<svg width="22" height="22" viewBox="0 0 22 22" fill="none" xmlns="http://www.w3.org/2000/svg">
<path fill-rule="evenodd" clip-rule="evenodd" d="M2.08305 11.2819L2.09322 8.2647C2.09322 8.09271 2.10339 7.95716 2.10339 7.78723C2.10339 7.54359 2.09487 7.3292 2.12961 7.09218C2.14083 7.01553 2.12654 6.93258 2.13534 6.85411C2.15656 6.66498 2.1328 6.4892 2.16741 6.28683C2.17242 6.25762 2.17314 6.21563 2.17883 6.17633C2.18968 6.10117 2.17677 6.01467 2.18992 5.94363C2.1986 5.89679 2.20602 5.89259 2.21393 5.85588C2.22797 5.7908 2.21998 5.69753 2.23596 5.63411C2.24399 5.60219 2.25907 5.57194 2.26351 5.53974C2.27146 5.48177 2.26944 5.42492 2.28788 5.38123C2.30894 5.33133 2.3068 5.27964 2.3181 5.22857C2.32516 5.1965 2.34267 5.16559 2.35538 5.09313C2.36316 5.04892 2.35521 5.07667 2.3695 5.04629C2.38959 5.00361 2.38939 5.00506 2.39697 4.95185C2.40932 4.86503 2.4079 4.96109 2.44002 4.81206C2.44833 4.77345 2.44082 4.80318 2.45979 4.77086C2.48294 4.73137 2.47302 4.71325 2.48859 4.67775L2.6141 4.37658C2.62596 4.34725 2.62286 4.36412 2.63633 4.33781L2.71835 4.17603C2.73207 4.15324 2.72735 4.1553 2.73776 4.13448L3.05845 3.6729L3.4721 3.24336L3.81067 2.97241C3.82604 2.96297 3.83354 2.96067 3.84932 2.9501C3.93589 2.89192 4.01565 2.8377 4.10736 2.79159C4.13394 2.77823 4.12559 2.7786 4.14427 2.76754L4.20632 2.73817C4.2271 2.72494 4.20697 2.73519 4.22399 2.72534L4.78376 2.50288C4.79926 2.50018 4.81713 2.49865 4.83359 2.49179C4.86231 2.47989 4.84819 2.47908 4.87252 2.4698C4.90157 2.45871 4.93828 2.4631 4.97379 2.44919C5.01958 2.43123 4.99807 2.42643 5.06347 2.41695C5.17329 2.40102 5.13391 2.395 5.20863 2.37927C5.2244 2.37596 5.23691 2.37459 5.26309 2.37277C5.32333 2.36862 5.31449 2.36692 5.36145 2.34921C5.42927 2.32368 5.49104 2.33885 5.56337 2.31746C5.59605 2.30782 5.62817 2.29568 5.66008 2.29225C5.73459 2.28422 5.80628 2.28999 5.88274 2.27111C5.96258 2.25138 6.02265 2.25336 6.10628 2.25085L6.42948 2.2185C6.5215 2.20244 7.02375 2.20163 7.14256 2.20014C7.30039 2.19821 7.4336 2.16916 7.58917 2.16924C7.75172 2.16932 7.91426 2.16924 8.07681 2.16924C8.23778 2.16924 8.38346 2.15907 8.55428 2.15907L13.522 2.15903C13.6083 2.15871 13.6512 2.16972 13.7353 2.16928C14.0227 2.16779 14.3275 2.16884 14.6084 2.19018L14.924 2.19962C14.9692 2.20204 14.9728 2.20958 15.0252 2.21023C15.2704 2.21325 15.4221 2.21479 15.6641 2.24178C15.7283 2.24896 15.8073 2.24436 15.8777 2.2517L16.0644 2.28846C16.1607 2.30076 16.1789 2.28208 16.2649 2.31145C16.3319 2.33433 16.3883 2.32493 16.4511 2.3386C16.5069 2.35079 16.4822 2.35474 16.5347 2.3668C16.5654 2.37386 16.6133 2.37532 16.6339 2.37931C16.6859 2.3894 16.6786 2.39759 16.7168 2.4082C16.7534 2.4184 16.7812 2.41449 16.813 2.42369C16.8552 2.43587 16.8403 2.44378 16.8934 2.45508C16.9123 2.45911 16.9187 2.45891 16.9376 2.46165L17.0678 2.50418C17.127 2.5147 17.104 2.52023 17.1476 2.53613C17.1877 2.55073 17.1902 2.53891 17.2321 2.56336C17.2861 2.59479 17.2605 2.57332 17.3168 2.59047C17.3543 2.60189 17.3451 2.61214 17.3927 2.62634C17.4126 2.63231 17.4126 2.62965 17.4315 2.63832C17.4564 2.64982 17.446 2.65034 17.4695 2.66119C17.4833 2.66757 17.4931 2.66813 17.5087 2.67285C17.5621 2.68907 17.5493 2.69799 17.6059 2.71792L18.0424 2.97221C18.0665 2.98798 18.0779 3.00029 18.1064 3.01993L18.3535 3.2198C18.3551 3.22117 18.3576 3.22286 18.3593 3.2242L18.3708 3.23299C18.3724 3.23432 18.3748 3.23618 18.3764 3.23751C18.4498 3.3002 18.5121 3.37242 18.5801 3.44028L18.9052 3.82625C18.9168 3.84223 18.9185 3.84146 18.9314 3.86103L19.2206 4.35399C19.2448 4.40059 19.2607 4.47317 19.2838 4.51428C19.3201 4.57863 19.311 4.59198 19.3322 4.62849L19.3577 4.70454C19.3664 4.74093 19.3654 4.72733 19.3768 4.74638L19.4029 4.83207C19.4178 4.89391 19.4206 4.84861 19.4361 4.91062L19.4729 5.03637C19.4916 5.08708 19.4897 5.13045 19.5089 5.17306C19.5314 5.22288 19.5269 5.2984 19.5517 5.35372C19.5756 5.40697 19.5639 5.48568 19.5843 5.54466C19.6223 5.65472 19.5988 5.74772 19.632 5.83216C19.6594 5.90199 19.6418 5.95291 19.6539 6.03375C19.6662 6.11577 19.6568 6.15095 19.6775 6.22341C19.6958 6.28716 19.6873 6.35828 19.6882 6.43623C19.6889 6.48863 19.6964 6.49218 19.6988 6.53737C19.7068 6.68475 19.6928 6.83019 19.713 6.97018C19.7389 7.14927 19.7394 7.53944 19.7394 7.72603C19.7394 8.16444 19.7588 8.59907 19.7594 9.03689C19.7595 9.10841 19.77 9.16518 19.7699 9.24986V12.7547C19.77 12.8407 19.7592 12.8918 19.7595 12.9678C19.7601 13.1239 19.7496 13.2449 19.7496 13.3947C19.7496 13.5654 19.7458 14.5518 19.7307 14.6864C19.719 14.7903 19.7326 14.8875 19.7159 14.9966C19.7012 15.0928 19.6988 15.1941 19.6988 15.3046L19.6845 15.7373C19.6783 15.7657 19.6642 15.7987 19.6604 15.825C19.6473 15.9165 19.6659 16.0423 19.6395 16.1291C19.6205 16.1915 19.6071 16.2393 19.6074 16.3205C19.6077 16.4171 19.5792 16.4144 19.5691 16.4955C19.5645 16.5316 19.5706 16.5677 19.5629 16.6011C19.5522 16.6472 19.5403 16.6336 19.5299 16.6799C19.5224 16.7133 19.5285 16.7372 19.5206 16.7722C19.5088 16.8246 19.5009 16.8043 19.4895 16.8529C19.4807 16.8907 19.485 16.9166 19.4728 16.9479C19.4394 17.0336 19.4567 16.9987 19.4358 17.0734C19.4245 17.1135 19.4314 17.0871 19.4198 17.1083C19.3978 17.1483 19.4037 17.1488 19.3944 17.1946L19.3309 17.3547C19.3078 17.3949 19.3067 17.4253 19.2865 17.4626C19.2591 17.5131 19.2097 17.6403 19.1558 17.7382C19.1498 17.7489 19.1514 17.7478 19.1458 17.7587L19.0347 17.9524C19.032 17.9558 19.0238 17.9667 19.0217 17.9699L18.8435 18.2285C18.8421 18.2301 18.8402 18.2324 18.8389 18.234L18.3704 18.7409C18.3483 18.7576 18.3574 18.7487 18.3363 18.7678C18.3348 18.7692 18.3327 18.7713 18.3311 18.7727C18.3296 18.7741 18.3275 18.7763 18.326 18.7777L17.8426 19.1273C17.8405 19.1283 17.8376 19.1294 17.8356 19.1305L17.3161 19.3831C17.2686 19.3995 17.2884 19.4086 17.2404 19.4191C17.1829 19.4319 17.203 19.4317 17.1604 19.4509C17.1325 19.4635 17.1028 19.4615 17.0733 19.4756C17.0244 19.499 17.0742 19.4914 16.9996 19.5034C16.9315 19.5144 16.9036 19.5367 16.8234 19.5507C16.7622 19.5614 16.8025 19.5677 16.6434 19.5942C16.6116 19.5996 16.5927 19.6132 16.56 19.6226C16.491 19.6426 16.4469 19.6249 16.3696 19.6557C16.3047 19.6816 16.2466 19.6689 16.1804 19.6798C16.096 19.6939 16.0882 19.7149 15.9909 19.7137C15.8869 19.7125 15.8019 19.7267 15.7005 19.7485C15.6639 19.7564 15.6348 19.7545 15.5946 19.7543C15.5157 19.7538 15.4542 19.7557 15.3898 19.7629C15.3205 19.7707 15.2386 19.7581 15.1693 19.7658C14.7916 19.8081 14.3858 19.7998 13.9991 19.8046C13.9467 19.8052 13.9432 19.8128 13.898 19.8152C13.8297 19.8189 13.7524 19.8101 13.6851 19.8157C13.6166 19.8214 13.5547 19.8255 13.4713 19.8253C13.3845 19.8251 13.3385 19.8361 13.2581 19.8356C11.7681 19.8271 10.2779 19.8355 8.78799 19.8355C8.6242 19.8355 8.48424 19.8252 8.33085 19.8253C8.24218 19.8254 8.18509 19.8146 8.10759 19.8149C8.01984 19.8152 7.94553 19.8147 7.87222 19.8064C7.74708 19.7924 7.53051 19.8043 7.39616 19.805C7.31031 19.8055 7.26254 19.7946 7.17274 19.7948L6.71713 19.7729C6.64177 19.7649 6.56907 19.7673 6.4816 19.7647L6.25842 19.7542C6.08789 19.7546 6.08034 19.7195 5.82113 19.714C5.7419 19.7123 5.69816 19.6791 5.61792 19.6734C5.58229 19.6709 5.54441 19.6771 5.51048 19.6691C5.46526 19.6585 5.47591 19.6459 5.42181 19.6359C5.38223 19.6286 5.34664 19.636 5.30707 19.6287C5.25289 19.6187 5.26366 19.6059 5.21827 19.5956C5.18486 19.588 5.13863 19.5893 5.11729 19.5848C5.06399 19.5736 5.0575 19.5584 4.97504 19.5442C4.92622 19.5358 4.93546 19.5235 4.8866 19.5108C4.86135 19.5042 4.85707 19.507 4.83484 19.5016C4.78812 19.4902 4.82669 19.4887 4.7053 19.4584C4.66745 19.449 4.69473 19.4561 4.66443 19.4383C4.62428 19.4147 4.63074 19.4365 4.53085 19.389C4.50099 19.3748 4.51532 19.3847 4.48336 19.3756L4.1241 19.2066C4.09243 19.1929 4.1101 19.1996 4.08581 19.1839C4.06669 19.1716 4.06608 19.1735 4.04587 19.163L3.63577 18.8822C3.62674 18.8755 3.62258 18.8739 3.61714 18.8704L3.52943 18.7955C3.52789 18.7941 3.52564 18.7921 3.52406 18.7907L3.30867 18.5896C3.30314 18.5841 3.29575 18.5773 3.29313 18.5747L3.18921 18.4653C3.09339 18.3653 3.0319 18.2682 2.97341 18.2036L2.87513 18.0682C2.80719 17.9854 2.6371 17.6714 2.60111 17.5702L2.5289 17.4087C2.51086 17.3587 2.5293 17.3699 2.49674 17.319L2.4361 17.1358C2.42638 17.0872 2.41488 17.0955 2.4029 17.0572C2.39144 17.0208 2.39637 16.9942 2.38035 16.9579L2.3517 16.8647C2.33964 16.7823 2.32112 16.7815 2.30757 16.6752C2.29978 16.6143 2.29191 16.6198 2.27925 16.5816C2.25686 16.5142 2.27303 16.4542 2.2429 16.3741C2.21482 16.2997 2.2335 16.2471 2.22014 16.1633C2.2063 16.0766 2.18403 16.0588 2.1846 15.955C2.18565 15.7599 2.14522 15.6414 2.14381 15.5184C2.14288 15.4408 2.14413 15.362 2.14421 15.2843L2.12356 14.8275C2.11848 14.7514 2.10298 14.6894 2.10347 14.6038C2.10786 13.8318 2.0833 13.0115 2.0833 12.2366C2.0833 11.9183 2.0833 11.6 2.0833 11.2817L2.08305 11.2819ZM0.0918726 8.10215L0.102443 14.3496C0.105348 14.5846 0.101757 14.5826 0.121485 14.8181C0.133911 14.9667 0.132862 15.1222 0.132499 15.2846C0.132136 15.4333 0.140971 15.5965 0.167598 15.7371C0.193378 15.8731 0.162676 16.0485 0.200277 16.1819C0.22646 16.2748 0.209879 16.4137 0.24171 16.5062C0.267006 16.5796 0.254298 16.6503 0.270032 16.7217C0.280037 16.7672 0.28972 16.7684 0.299725 16.8139C0.312474 16.8717 0.296256 16.9173 0.320785 16.9757C0.34955 17.0442 0.336116 17.062 0.351164 17.1282C0.363953 17.1846 0.377912 17.1652 0.385335 17.216C0.414262 17.4132 0.414907 17.3019 0.430157 17.415C0.437782 17.4715 0.459084 17.4911 0.470703 17.5471C0.473527 17.5607 0.473971 17.5763 0.480305 17.5985C0.49148 17.6376 0.50782 17.638 0.515969 17.6848L0.690175 18.181C0.70716 18.2233 0.714623 18.22 0.726323 18.2668C0.741089 18.3261 0.814798 18.4561 0.844491 18.5143L1.09838 18.9818C1.10729 18.9949 1.10189 18.9879 1.10975 19.0009L1.21634 19.1686C1.23018 19.1867 1.22925 19.1885 1.24087 19.205L1.50008 19.5553C1.50621 19.5629 1.52029 19.5785 1.52865 19.5878C1.54252 19.6032 1.54656 19.6057 1.55854 19.6188C1.62596 19.6929 1.68708 19.7761 1.75788 19.8461L1.81626 19.9097C1.83655 19.931 1.85144 19.9446 1.87234 19.9654L2.34892 20.4031C2.36478 20.4153 2.3672 20.4147 2.38471 20.4283L2.88489 20.7815C2.90054 20.7909 2.90224 20.7896 2.91826 20.7989L3.43006 21.0795C3.45047 21.0894 3.45217 21.0851 3.47408 21.0965C3.49558 21.1077 3.48933 21.1102 3.51099 21.1205C3.52854 21.1289 3.54617 21.1305 3.55844 21.1341L3.6852 21.1901C3.71739 21.2086 3.67834 21.1953 3.7251 21.2112C3.78243 21.2308 3.79074 21.2453 3.85968 21.2594C3.91237 21.2703 3.89938 21.2835 3.94477 21.2962L4.03409 21.3288C4.06834 21.3444 4.09679 21.3371 4.13277 21.3521C4.16118 21.3639 4.14697 21.3641 4.17179 21.374C4.19091 21.3816 4.20031 21.3801 4.22246 21.3843C4.28116 21.3954 4.25865 21.3992 4.3023 21.4162C4.33893 21.4305 4.37129 21.4254 4.40384 21.4366C4.44007 21.449 4.44249 21.4614 4.49361 21.4687C4.59314 21.483 4.56861 21.4989 4.69271 21.5134C4.73535 21.5184 4.74729 21.5327 4.78372 21.5443C4.82064 21.556 4.84896 21.5485 4.89177 21.5582C4.93961 21.569 4.93772 21.5841 4.9806 21.5912C5.10071 21.6114 5.05104 21.5903 5.18765 21.628C5.24421 21.6437 5.3554 21.6333 5.40982 21.6496C5.48886 21.6732 5.52823 21.6804 5.61844 21.6848C5.80189 21.6939 5.75989 21.7099 5.83215 21.7149C5.97722 21.725 6.14453 21.7188 6.28323 21.7413C6.4998 21.7764 6.76139 21.7673 6.99006 21.766C7.07664 21.7655 7.13788 21.7824 7.21336 21.7865L14.1317 21.7965C14.294 21.7965 14.4222 21.7869 14.579 21.7867C14.6514 21.7867 14.7156 21.7695 14.7818 21.766C14.9324 21.758 15.0884 21.7683 15.2394 21.7665C15.2918 21.7658 15.2954 21.7583 15.3406 21.7559C15.3806 21.7537 15.4212 21.7587 15.4611 21.7545C15.5205 21.7482 15.5948 21.7284 15.6554 21.7254C15.7313 21.7216 15.8113 21.7322 15.8849 21.7212C15.9545 21.7107 16.0109 21.7134 16.0805 21.6933C16.1632 21.6696 16.314 21.6938 16.3959 21.6632C16.5002 21.6244 16.5325 21.6565 16.6864 21.6083C16.7541 21.5871 16.821 21.6032 16.8808 21.5793C16.9565 21.549 17.0116 21.5598 17.0733 21.5381C17.1276 21.519 17.205 21.5113 17.2544 21.4855C17.3009 21.4613 17.3439 21.4819 17.3971 21.4556C17.4578 21.4256 17.486 21.4335 17.5289 21.4146C17.5723 21.3957 17.5383 21.3957 17.6103 21.3843C17.6892 21.3718 17.6427 21.3796 17.6931 21.3553L17.8209 21.3104C17.8431 21.301 17.844 21.3036 17.8704 21.2989L18.0299 21.2349C18.0545 21.2191 18.0871 21.2187 18.1188 21.202L18.2375 21.1479C18.2393 21.1468 18.2416 21.1449 18.2435 21.1438C18.2935 21.1147 18.3407 21.1073 18.3932 21.0802L18.7629 20.881C18.7808 20.8725 18.7845 20.8731 18.8034 20.8606L18.9786 20.7513C19.068 20.7024 19.2525 20.5728 19.3328 20.5061L19.3672 20.4796C19.3688 20.4783 19.371 20.4762 19.3727 20.4749L19.4406 20.4209C19.5422 20.3516 19.6357 20.2617 19.7271 20.1791L19.7585 20.1495C19.7758 20.132 19.7704 20.1359 19.7901 20.1202C19.8939 20.0375 19.9914 19.9221 20.0835 19.8244L20.4391 19.3977C20.4626 19.3686 20.4636 19.3662 20.4856 19.3325C20.4956 19.3174 20.496 19.318 20.5066 19.3028L20.7161 18.9941C20.7275 18.9779 20.7262 18.9756 20.7339 18.9611L20.8053 18.8496C20.8442 18.7808 20.8704 18.7081 20.9135 18.6429L21.1776 18.0739C21.1991 18.0376 21.1885 18.0237 21.2027 17.9873L21.2354 17.8981C21.2438 17.8554 21.2703 17.8265 21.2792 17.7794C21.2927 17.7082 21.3341 17.6243 21.355 17.5606C21.3652 17.5292 21.3609 17.4965 21.3722 17.466L21.4029 17.3849C21.415 17.3035 21.4402 17.2787 21.4468 17.1952C21.4499 17.157 21.4567 17.1384 21.4695 17.1061C21.4894 17.0558 21.4868 16.9734 21.5088 16.9219C21.5334 16.864 21.5259 16.7913 21.5404 16.7198C21.5473 16.6859 21.5619 16.6752 21.5676 16.6251C21.5744 16.5648 21.5703 16.4677 21.5911 16.415C21.626 16.3265 21.6069 16.2063 21.6212 16.1098C21.6251 16.0828 21.6394 16.0455 21.6453 16.0121C21.6694 15.8759 21.6432 15.7197 21.6647 15.5744L21.6879 15.4858C21.7058 15.401 21.6832 7.55214 21.6899 6.42594C21.6903 6.36643 21.6831 6.33666 21.6695 6.28381C21.6389 6.16427 21.6774 5.99809 21.6286 5.80666C21.6055 5.71605 21.6285 5.58259 21.5942 5.49569C21.5669 5.42662 21.5851 5.31805 21.5591 5.24628C21.5219 5.14381 21.5375 5.06667 21.5122 5.00873C21.4871 4.95124 21.4921 4.8708 21.4682 4.819C21.4446 4.76752 21.4499 4.68852 21.4234 4.64035C21.3982 4.59456 21.4143 4.55591 21.3898 4.50125C21.3634 4.44255 21.3693 4.40979 21.3506 4.36767C21.3211 4.30082 21.3274 4.27903 21.3092 4.23643L21.2762 4.14751C21.2669 4.10273 21.2758 4.13129 21.2602 4.10257L21.2322 4.01881C21.2202 3.96794 21.2113 3.985 21.197 3.94228C21.1907 3.92372 21.1933 3.92009 21.1871 3.90137C21.1761 3.86821 21.1785 3.88519 21.1668 3.86074L20.6618 2.86215C20.6439 2.83992 20.6272 2.82136 20.6135 2.79869C20.606 2.78614 20.6042 2.77908 20.5959 2.76552L20.2791 2.35091C20.2776 2.34942 20.2755 2.34728 20.2741 2.34574L20.2511 2.31799C20.2497 2.31637 20.2477 2.31415 20.2463 2.31254L19.8775 1.91943C19.8181 1.86492 19.7681 1.80634 19.7046 1.75704L19.5789 1.64908C19.4676 1.54766 19.3417 1.45418 19.2183 1.3697L19.1957 1.35167C19.1836 1.34279 19.1769 1.33997 19.165 1.33158C19.1472 1.31907 19.1461 1.31536 19.1306 1.30495L18.773 1.0835C18.7025 1.04997 18.6297 0.987118 18.5587 0.962629L18.4968 0.933056C18.4809 0.923414 18.4944 0.930232 18.4767 0.922648L18.2665 0.828122C18.2435 0.819932 18.2555 0.82445 18.2452 0.818964L18.0647 0.745497C18.0343 0.737791 18.0396 0.729077 18.0035 0.715199C17.9641 0.70011 17.9616 0.712899 17.9189 0.688047L17.6593 0.592069C17.6287 0.579764 17.6016 0.582386 17.5683 0.571332C17.5345 0.560076 17.5358 0.548094 17.4798 0.537887C17.4033 0.523968 17.3798 0.499882 17.301 0.493226C17.2383 0.487941 17.2675 0.482494 17.2191 0.463411C17.1798 0.44796 17.1546 0.458893 17.1127 0.447919C17.083 0.440133 17.0702 0.423471 17.0332 0.415644C16.9973 0.408019 16.966 0.414918 16.9289 0.40818C16.8751 0.398377 16.8905 0.389864 16.8482 0.377156C16.7896 0.359606 16.7134 0.372516 16.6454 0.346373C16.5877 0.324224 16.5145 0.322933 16.4477 0.320553C16.3724 0.31785 16.3343 0.277546 16.143 0.279846C16.0399 0.281097 16.0286 0.251444 15.9399 0.249185C15.8133 0.245997 15.6297 0.243859 15.5061 0.225866C15.2567 0.189596 14.7223 0.213641 14.6194 0.177977L14.5383 0.167569C14.4975 0.167972 14.4568 0.167932 14.416 0.167932C14.2273 0.167932 7.26125 0.155788 7.19501 0.169949C7.16556 0.176242 7.18044 0.175315 7.17262 0.178018C7.05832 0.217716 6.77938 0.198674 6.64439 0.198391C6.39942 0.197827 6.25063 0.238332 5.99388 0.238695C5.82295 0.238937 5.77227 0.273673 5.69945 0.279483L5.4772 0.2909C5.43932 0.295177 5.41991 0.312323 5.39223 0.317689C5.31994 0.331648 5.24062 0.319181 5.17986 0.33899C5.14137 0.351537 5.14605 0.356621 5.09494 0.365819C5.05443 0.373121 5.02833 0.367554 4.9894 0.371992C4.95301 0.376147 4.93881 0.391599 4.9075 0.401846C4.87668 0.411932 4.83972 0.40818 4.79918 0.415442C4.74463 0.425206 4.76093 0.433839 4.71829 0.446306C4.68254 0.456755 4.6562 0.44913 4.61795 0.457723C4.56506 0.469584 4.58108 0.480477 4.53875 0.490281C4.49619 0.500125 4.47699 0.493064 4.43737 0.510816C4.39569 0.529455 4.31723 0.542203 4.26853 0.565482C4.23262 0.582668 4.21503 0.576294 4.17905 0.587792C4.14516 0.598604 4.16872 0.595014 4.13947 0.609174C4.094 0.631202 4.08565 0.614016 4.01049 0.652867C3.97406 0.671708 3.9595 0.660855 3.91847 0.682762C3.86376 0.711971 3.77282 0.731699 3.71384 0.762603L3.47395 0.868143C3.45451 0.877543 3.44797 0.876212 3.42986 0.885007L2.78673 1.24762C2.785 1.24887 2.78254 1.25056 2.78072 1.25177L2.27424 1.62911L1.72488 2.15661C1.70568 2.17747 1.68692 2.19102 1.66937 2.21285L1.29029 2.6973C1.289 2.699 1.28707 2.70126 1.28577 2.70291L1.2203 2.79998C1.18503 2.8561 1.17769 2.84839 1.15292 2.89515L1.09156 2.99633C1.09039 2.99815 1.08849 3.00045 1.08728 3.00222L0.997274 3.15601C0.996064 3.15779 0.994127 3.16005 0.992957 3.16186L0.73302 3.68416C0.725153 3.70397 0.728381 3.70397 0.72241 3.72434C0.708854 3.77049 0.719505 3.736 0.702964 3.76585C0.674158 3.81782 0.647087 3.93001 0.623244 3.9706C0.603718 4.00388 0.596093 4.06133 0.577131 4.0972L0.518108 4.26168C0.504512 4.33979 0.486518 4.35443 0.468081 4.44533C0.457188 4.49907 0.448191 4.4768 0.435685 4.53481C0.429673 4.56261 0.42923 4.60291 0.418337 4.62922C0.38594 4.70748 0.392395 4.7513 0.366414 4.81097C0.343418 4.86382 0.350155 4.94572 0.32728 4.99534C0.302226 5.0498 0.313281 5.14159 0.295126 5.19682C0.284596 5.22885 0.27217 5.24108 0.266603 5.28005C0.254419 5.36529 0.268257 5.41133 0.241589 5.48871C0.208063 5.58598 0.230333 5.69366 0.209476 5.79185C0.20294 5.82268 0.189586 5.85999 0.185592 5.88989C0.166307 6.03448 0.187488 6.19457 0.160175 6.33178C0.147749 6.39427 0.142182 6.45555 0.142545 6.53765C0.142948 6.62758 0.131894 6.67506 0.132338 6.76108C0.134072 7.10094 0.102725 7.31181 0.102281 7.6453C0.102201 7.69738 0.0955843 7.70739 0.0923164 7.74709C0.0826742 7.8636 0.0917919 7.9854 0.0917919 8.10211L0.0918726 8.10215Z" fill="#2A3549"/>
<path fill-rule="evenodd" clip-rule="evenodd" d="M11.1956 14.5631C10.9755 14.5631 10.6659 14.5857 10.4616 14.5351C10.3757 14.5138 10.2744 14.5206 10.1987 14.4933C10.1568 14.4781 10.073 14.4798 10.0294 14.4594C9.97932 14.436 9.91001 14.4308 9.86599 14.4095C9.83319 14.3937 9.82206 14.3979 9.7847 14.3892C9.7454 14.38 9.75327 14.3699 9.71539 14.3569C9.66762 14.3405 9.6765 14.3591 9.62897 14.3316C9.57313 14.2993 9.50818 14.2886 9.44891 14.2577C9.43052 14.2481 9.43354 14.2453 9.41866 14.2371C9.39566 14.2245 9.40986 14.2327 9.38142 14.2236L8.69815 13.7995C8.69658 13.7981 8.69436 13.7961 8.69283 13.7947L8.12627 13.2336C8.12494 13.232 8.12281 13.2299 8.12143 13.2282L7.95961 13.0142C7.95832 13.0125 7.95639 13.0102 7.9551 13.0086L7.91281 12.9391C7.91164 12.9373 7.90971 12.935 7.9085 12.9332L7.59131 12.326C7.5763 12.275 7.57102 12.2858 7.55742 12.2481L7.48137 12.0194C7.46003 11.9778 7.47165 11.9763 7.46165 11.9274C7.44696 11.8553 7.43567 11.8866 7.41973 11.7661C7.4098 11.6912 7.39234 11.6695 7.38144 11.5911C7.37027 11.5104 7.37692 11.4815 7.35643 11.4129C7.32073 11.2934 7.32609 10.7341 7.34683 10.5924C7.35175 10.5588 7.3578 10.5608 7.36704 10.5212C7.37346 10.4937 7.37475 10.467 7.37588 10.4285C7.37701 10.3902 7.381 10.3788 7.38475 10.3459C7.39294 10.2748 7.38903 10.3175 7.40742 10.267C7.42356 10.2228 7.41876 10.1491 7.43667 10.1033C7.45935 10.0454 7.46778 9.97328 7.47774 9.95134L7.55109 9.74022C7.56255 9.69931 7.57154 9.71052 7.58445 9.67195L7.64917 9.50299C7.66018 9.48359 7.6574 9.49618 7.66768 9.47072L7.84609 9.13098C7.84746 9.1282 7.85117 9.11993 7.8527 9.11726L7.88933 9.06244C7.89054 9.06062 7.89208 9.05804 7.89329 9.05626L8.04288 8.84014C8.05571 8.82219 8.05317 8.82158 8.06249 8.80895L8.10618 8.76119C8.13999 8.7208 8.2252 8.63854 8.22927 8.58964C8.27119 8.58505 8.25679 8.57439 8.31686 8.51469L8.44891 8.38264C8.45673 8.37473 8.45722 8.37445 8.4642 8.36743C8.47166 8.35993 8.48171 8.34923 8.48961 8.34205L8.8864 8.02773C8.88813 8.02648 8.89055 8.02471 8.89225 8.02346L9.02845 7.93615C9.03026 7.93498 9.04233 7.92635 9.0466 7.92381L9.58169 7.65633C9.62962 7.64656 9.75573 7.58306 9.83004 7.56942C9.88632 7.5591 9.886 7.54623 9.91888 7.53634C9.94773 7.52771 9.98202 7.52751 10.013 7.51875C10.0651 7.50411 10.0377 7.50128 10.0965 7.49047C10.1239 7.48543 10.1638 7.48515 10.196 7.47817C10.2378 7.46909 10.2383 7.4588 10.2883 7.44859C10.3527 7.43544 10.4272 7.44641 10.5003 7.42693C10.6347 7.3911 11.1802 7.38271 11.3076 7.42116C11.3929 7.44694 11.4911 7.42713 11.5833 7.46041C11.6291 7.47696 11.7031 7.48083 11.7532 7.49358C11.7977 7.50491 11.7784 7.51323 11.8351 7.52347C11.9443 7.5432 11.9346 7.55571 11.9939 7.56785C12.1153 7.5927 12.0172 7.58262 12.1581 7.61703L12.6572 7.84937C12.6737 7.86002 12.6752 7.85942 12.6903 7.867L12.7921 7.92772C12.794 7.92889 12.7963 7.93071 12.7981 7.93188L13.0824 8.12508C13.2037 8.21259 13.3576 8.3525 13.4664 8.46236C13.4828 8.4789 13.4771 8.4745 13.4905 8.48907L13.5641 8.56782C13.5654 8.56947 13.5672 8.57193 13.5685 8.57359L13.7813 8.82804C13.7826 8.82977 13.7842 8.83235 13.7854 8.83409L14.1176 9.37563C14.1356 9.41997 14.1168 9.38184 14.139 9.41516L14.2898 9.7825C14.2906 9.78585 14.2929 9.79557 14.294 9.79868C14.3016 9.82127 14.2989 9.81094 14.3035 9.81957C14.3139 9.8391 14.3118 9.82526 14.3215 9.85233C14.3303 9.87666 14.3308 9.91067 14.3396 9.93588C14.3558 9.9828 14.3581 9.95186 14.3699 10.0173C14.377 10.0566 14.3742 10.0687 14.3874 10.1015C14.3997 10.1322 14.4046 10.1268 14.4123 10.1782C14.4176 10.2137 14.4133 10.2371 14.4221 10.2699C14.4323 10.308 14.4415 10.3082 14.4513 10.3525C14.4642 10.4112 14.4557 10.4861 14.468 10.5491C14.4803 10.6121 14.4973 10.6501 14.4973 10.7331C14.4973 10.9714 14.5166 11.1869 14.4696 11.4064C14.4546 11.4766 14.4645 11.5242 14.4544 11.5944C14.4446 11.6629 14.4204 11.6656 14.4158 11.759C14.4122 11.8312 14.3836 11.8578 14.3726 11.9291C14.3639 11.9859 14.3389 12.032 14.3276 12.0872L14.2828 12.2253C14.2698 12.2771 14.2594 12.2514 14.2424 12.317L14.2 12.427C14.1992 12.4295 14.1986 12.4324 14.1976 12.4348L13.4914 13.4759L13.3581 13.6067C13.3566 13.6082 13.3545 13.6104 13.353 13.6118L13.338 13.6273C13.3365 13.6288 13.3344 13.6309 13.333 13.6324L13.2517 13.7036C13.23 13.7242 13.217 13.7288 13.1943 13.7478L13.0524 13.8598C13.0339 13.8738 13.0396 13.8708 13.0172 13.8856L12.8989 13.9704C12.8814 13.9804 12.8843 13.9778 12.8674 13.9897C12.865 13.9915 12.8583 13.9968 12.8559 13.9985C12.8497 14.0029 12.8436 14.0069 12.8377 14.0107C12.8222 14.0206 12.822 14.02 12.8067 14.0306C12.7884 14.0433 12.8098 14.0308 12.789 14.0434L12.7361 14.0717C12.6857 14.1082 12.6273 14.1274 12.5727 14.1623L12.1328 14.3523C12.081 14.3625 12.096 14.3713 12.0634 14.3844C12.0392 14.3941 12.0086 14.3922 11.9803 14.403C11.9412 14.4179 11.9605 14.4228 11.8983 14.4328C11.8284 14.444 11.8119 14.465 11.7373 14.475C11.6599 14.4853 11.6289 14.5026 11.5633 14.5142C11.5071 14.5241 11.4363 14.5199 11.3791 14.5332C11.3168 14.5476 11.277 14.5631 11.1957 14.5631L11.1956 14.5631ZM5.33382 10.8856C5.33382 11.046 5.32608 11.2292 5.35839 11.3791C5.37957 11.4773 5.36549 11.6066 5.38135 11.7015C5.39067 11.7573 5.40672 11.7905 5.41273 11.8327C5.42165 11.895 5.41168 11.933 5.42774 11.9904L5.45715 12.1337C5.46155 12.1807 5.48802 12.2238 5.495 12.2685C5.52178 12.4404 5.52743 12.3704 5.54139 12.4659L5.56027 12.5385C5.58113 12.5783 5.58137 12.636 5.59836 12.6731C5.63446 12.7523 5.62381 12.7645 5.64257 12.8016C5.66178 12.8396 5.66787 12.8932 5.68836 12.9286L5.74101 13.0486C5.75235 13.0713 5.74799 13.0948 5.77361 13.1379C5.78927 13.1643 5.77922 13.1392 5.79076 13.1716L5.95125 13.519C5.97493 13.5593 5.98723 13.5917 6.00845 13.6345L6.08765 13.7686C6.12323 13.8484 6.27598 14.0776 6.33601 14.1603C6.34981 14.1793 6.34198 14.1704 6.35174 14.1852C6.35295 14.187 6.35449 14.1896 6.3557 14.1914L6.36441 14.203C6.3657 14.2047 6.36776 14.2069 6.36905 14.2085L6.50937 14.3933C6.51066 14.395 6.51227 14.3975 6.51352 14.3993L6.97312 14.9251C6.97461 14.9266 6.97671 14.9287 6.9782 14.9302L7.04037 14.9899C7.0501 14.9997 7.05127 15.0002 7.06095 15.01L7.72001 15.5497C7.7301 15.5569 7.73086 15.5569 7.74361 15.5667L8.18594 15.8457C8.20365 15.8557 8.2024 15.8521 8.21979 15.8626L8.28717 15.8968C8.28943 15.8978 8.29217 15.8988 8.29435 15.8998L8.49805 16.0111C8.52709 16.0233 8.53686 16.0183 8.56554 16.035C8.59899 16.0545 8.56917 16.046 8.61948 16.0624C8.67427 16.0802 8.6363 16.066 8.67512 16.088C8.70102 16.1027 8.70723 16.099 8.73438 16.11C8.76028 16.1206 8.75726 16.132 8.79268 16.1431C8.831 16.1552 8.81846 16.1412 8.85711 16.16L8.97475 16.2151C9.01227 16.2352 9.01618 16.22 9.10325 16.2593C9.13798 16.275 9.16062 16.2696 9.22525 16.2998C9.26793 16.3198 9.32651 16.3195 9.36129 16.3365C9.40655 16.3586 9.45751 16.355 9.49709 16.3734C9.52521 16.3865 9.52153 16.3911 9.56377 16.3982C9.63123 16.4094 9.62962 16.4031 9.69651 16.428C9.75315 16.449 9.79285 16.4343 9.84852 16.4486C9.89976 16.4618 9.92493 16.4806 9.9867 16.4832C10.1095 16.4882 10.1653 16.5253 10.2913 16.5239C10.4663 16.522 10.5973 16.5645 10.7689 16.5645C10.9176 16.5645 11.0812 16.5658 11.2259 16.5542C11.3276 16.546 11.4263 16.5229 11.5411 16.524C11.6663 16.5252 11.7212 16.486 11.8459 16.4834C11.8793 16.4827 11.8936 16.4801 11.9183 16.4745C11.9588 16.4653 11.9527 16.462 11.9864 16.4511C12.0327 16.4361 12.0821 16.448 12.1359 16.428C12.1628 16.418 12.1702 16.4092 12.1938 16.4046C12.2467 16.3941 12.286 16.3965 12.3353 16.3734C12.3711 16.3567 12.3545 16.3645 12.4015 16.3583C12.464 16.35 12.4652 16.3294 12.5333 16.3175C12.5487 16.3148 12.5805 16.3109 12.6001 16.3029C12.639 16.2872 12.6105 16.2885 12.6643 16.2758C12.699 16.2676 12.7008 16.2722 12.729 16.2592L12.8535 16.211C12.8895 16.19 13.0208 16.1575 13.0721 16.1249C13.0954 16.1101 13.0758 16.1189 13.0986 16.1107C13.1513 16.0918 13.1664 16.0754 13.2214 16.0608C13.2699 16.048 13.2728 16.0331 13.3109 16.0183L13.3332 16.01C13.3633 15.9955 13.3532 15.9911 13.3922 15.9776L13.4886 15.9318C13.5045 15.9242 13.4935 15.9304 13.5086 15.9213L13.8377 15.7324C13.8624 15.7165 13.8626 15.7158 13.8853 15.6986C13.9158 15.6753 13.9122 15.6854 13.9442 15.666L14.1306 15.5375C14.1346 15.5341 14.1344 15.5328 14.1468 15.5233C14.1635 15.5105 14.1773 15.5032 14.1954 15.4906C14.2178 15.475 14.2294 15.4705 14.2505 15.4542L14.3217 15.3934C14.3234 15.392 14.3258 15.3902 14.3274 15.3889C14.3291 15.3875 14.3315 15.3858 14.3332 15.3845L14.5295 15.2252C14.5311 15.2239 14.5335 15.222 14.5351 15.2207C14.5374 15.2188 14.5441 15.2135 14.5463 15.2116L15.0878 14.6762C15.0892 14.6747 15.0914 14.6726 15.0928 14.6711C15.1102 14.653 15.1214 14.6405 15.1363 14.6232L15.3053 14.4163C15.3066 14.4146 15.3085 14.4123 15.3097 14.4105L15.5357 14.0981C15.5368 14.0961 15.5382 14.0935 15.5395 14.0916C15.5406 14.0898 15.5424 14.0874 15.5436 14.0856C15.5449 14.0839 15.5468 14.0817 15.5481 14.08C15.5494 14.0783 15.5516 14.0763 15.5528 14.0746C15.5542 14.073 15.5563 14.0709 15.5576 14.0693L15.6787 13.8754C15.6897 13.8581 15.704 13.8361 15.7151 13.8204C15.7373 13.7889 15.7295 13.8058 15.7444 13.7684L15.7794 13.712C15.792 13.6909 15.7907 13.6819 15.8063 13.6577L16.0448 13.1647C16.0532 13.1414 16.0449 13.1615 16.0587 13.138L16.1587 12.8925C16.1662 12.8706 16.1666 12.847 16.1734 12.826C16.1844 12.7917 16.191 12.7971 16.2021 12.7632C16.2087 12.7428 16.2107 12.7156 16.2173 12.6972C16.2298 12.6623 16.2354 12.6779 16.2461 12.6346C16.2518 12.6113 16.2497 12.5947 16.2574 12.5646C16.272 12.5078 16.2811 12.5226 16.2967 12.4312C16.303 12.3941 16.3087 12.3987 16.3214 12.3644C16.3412 12.3111 16.3285 12.2651 16.3478 12.2181C16.3602 12.1879 16.3606 12.2071 16.3713 12.1603C16.3789 12.1271 16.3748 12.1101 16.3781 12.0757C16.3823 12.0323 16.4083 11.9815 16.4151 11.94C16.4232 11.8905 16.4215 11.8298 16.4279 11.7801C16.4346 11.7291 16.4553 11.7009 16.458 11.6376C16.4611 11.5655 16.4629 11.3604 16.477 11.3111C16.5413 11.0849 16.4628 10.5905 16.4583 10.3368C16.457 10.2646 16.4352 10.2512 16.4279 10.1944C16.4211 10.1417 16.4227 10.0894 16.415 10.0346C16.4084 9.98724 16.3829 9.95045 16.3779 9.89905C16.3687 9.80569 16.3832 9.83119 16.3492 9.75502C16.3256 9.70213 16.3448 9.66155 16.3235 9.60801C16.279 9.49605 16.3072 9.54612 16.2859 9.47298C16.2767 9.44135 16.2678 9.43824 16.2605 9.41706C16.2364 9.34674 16.2589 9.36243 16.2214 9.28348L16.161 9.07978C16.1509 9.04392 16.1458 9.05219 16.1334 9.02605C16.1191 8.99583 16.1263 8.98627 16.112 8.95601L16.0352 8.76873C16.0203 8.72762 16.0163 8.74602 16.0024 8.71003L15.7084 8.14057C15.7005 8.12569 15.7056 8.13033 15.695 8.11334L15.3262 7.57802C15.3248 7.5764 15.323 7.57394 15.3217 7.57233C15.3203 7.57072 15.3186 7.56825 15.3172 7.5666C15.2679 7.50681 15.2242 7.43544 15.1679 7.38069C15.1535 7.3667 15.1379 7.35201 15.1232 7.3339L14.8513 7.03696C14.8493 7.03478 14.8437 7.02837 14.8417 7.02623L14.3713 6.61275C14.3311 6.58338 14.341 6.57926 14.2693 6.53198L13.9975 6.33639C13.9776 6.32295 13.9887 6.33195 13.9711 6.32219C13.954 6.31267 13.9659 6.32041 13.9463 6.30633L13.7574 6.1905C13.7556 6.18933 13.7532 6.18756 13.7514 6.18639L13.734 6.17332C13.7158 6.1613 13.722 6.1663 13.7006 6.15589L13.5001 6.04147C13.4849 6.03272 13.4961 6.03845 13.4791 6.03207L13.3982 5.99108C13.3873 5.98584 13.3728 5.98225 13.3616 5.97688L12.9965 5.81369C12.9586 5.80284 12.9695 5.79876 12.9426 5.78638C12.9166 5.7744 12.9455 5.78489 12.9111 5.77726L12.8709 5.76661C12.8446 5.75346 12.8604 5.74813 12.8185 5.73776C12.7813 5.72853 12.781 5.73772 12.7448 5.72009L12.6167 5.67551C12.5861 5.66095 12.6009 5.66159 12.5583 5.65264C12.5426 5.64933 12.5365 5.64941 12.5236 5.64671C12.4766 5.63694 12.4768 5.6227 12.4264 5.61177C12.4033 5.60677 12.3722 5.60652 12.3463 5.60039C12.2853 5.58595 12.2911 5.56945 12.2013 5.56259C12.1361 5.55759 12.1281 5.53237 12.067 5.52422C12.0031 5.51571 11.9865 5.51841 11.9226 5.4959C11.8651 5.47565 11.8325 5.48565 11.7649 5.48081C11.7123 5.47702 11.6725 5.45999 11.6236 5.44947C11.5582 5.43534 11.3782 5.43385 11.2972 5.4305C11.2352 5.42792 11.222 5.40961 11.1452 5.40977C11.0251 5.41001 10.9151 5.3925 10.8069 5.40735C10.7154 5.41989 10.6797 5.40226 10.5717 5.42619L10.3219 5.44047C10.1873 5.43938 10.1509 5.47839 10.0171 5.4811C9.98371 5.48178 9.96935 5.48436 9.9447 5.48993C9.90424 5.49909 9.91029 5.50236 9.87668 5.51333C9.83682 5.52636 9.76344 5.51757 9.72225 5.53161C9.62276 5.56549 9.73265 5.54504 9.58427 5.56634C9.55599 5.57042 9.54082 5.57421 9.52028 5.58361C9.47889 5.60253 9.51673 5.59559 9.45138 5.60616C9.39441 5.61536 9.37593 5.63618 9.31804 5.6455L9.12063 5.70206C9.08537 5.71622 9.10555 5.71973 9.05806 5.73091C8.91871 5.76366 9.0105 5.75802 8.93033 5.77589L8.66551 5.88696C8.66358 5.88809 8.66112 5.88966 8.6591 5.89071C8.65704 5.89176 8.65442 5.89309 8.65228 5.89406C8.64377 5.89793 8.63195 5.90063 8.6219 5.9043L8.56179 5.93561C8.53984 5.94457 8.52302 5.94505 8.50055 5.95566C8.47703 5.96676 8.46484 5.97604 8.44132 5.98786L8.39105 6.01888C8.36983 6.02981 8.3802 6.02271 8.36156 6.03002L7.60967 6.4972C7.60773 6.49837 7.60503 6.49966 7.60317 6.50083L6.95541 7.06198C6.94605 7.07154 6.9402 7.0788 6.9312 7.08856L6.20428 8.0074C6.19476 8.02079 6.19492 8.01801 6.18661 8.03036L6.10129 8.16853C6.09431 8.18112 6.096 8.18282 6.08926 8.19714L6.03508 8.29533C6.03391 8.29715 6.03185 8.29929 6.03064 8.30106L5.92184 8.50718C5.90788 8.53909 5.89997 8.54014 5.88827 8.56503L5.75489 8.8685C5.75122 8.88202 5.75138 8.8898 5.74727 8.9015C5.73597 8.93374 5.7202 8.94959 5.70914 8.99542C5.69914 9.03682 5.69942 9.02137 5.68344 9.05102C5.66109 9.09257 5.67715 9.08184 5.6644 9.1234C5.65282 9.1612 5.64879 9.14325 5.63592 9.17621C5.62502 9.20408 5.62942 9.2249 5.61982 9.25157C5.60691 9.28748 5.60445 9.26859 5.59271 9.30571C5.5735 9.36643 5.58343 9.37066 5.55495 9.44066C5.54539 9.46414 5.54292 9.49347 5.53893 9.51611C5.52808 9.57807 5.53328 9.53704 5.51432 9.58295C5.50508 9.60543 5.50024 9.63625 5.49818 9.65828C5.49112 9.73429 5.47652 9.72569 5.46272 9.79549C5.45163 9.85157 5.46147 9.88477 5.43851 9.94399C5.41758 9.99801 5.41669 10.0242 5.41536 10.0935C5.41415 10.1584 5.39575 10.1848 5.38582 10.2367C5.36279 10.357 5.3738 10.4994 5.34964 10.6272C5.33556 10.7016 5.33394 10.8002 5.33394 10.8858L5.33382 10.8856Z" fill="#2A3549"/>
<path fill-rule="evenodd" clip-rule="evenodd" d="M15.3809 5.11555L15.3905 5.43096C15.397 5.49015 15.4148 5.48624 15.4248 5.54913C15.426 5.55688 15.4304 5.59613 15.4342 5.61082C15.4435 5.64725 15.449 5.63813 15.4616 5.66468C15.4757 5.69449 15.4668 5.68909 15.4772 5.72019L15.5399 5.84034C15.5536 5.86123 15.5425 5.84332 15.5536 5.86728L15.613 5.96024C15.6689 6.02717 15.7176 6.10669 15.7858 6.16337C15.8041 6.17858 15.8059 6.18076 15.8237 6.19657C15.8402 6.2113 15.8467 6.21428 15.8641 6.22727C15.9376 6.2823 16.0123 6.34738 16.0949 6.38248C16.1252 6.39535 16.1145 6.38538 16.1443 6.40426C16.1801 6.42702 16.1429 6.41536 16.1912 6.42847C16.2042 6.43198 16.2295 6.434 16.2486 6.44215C16.281 6.45595 16.2547 6.45607 16.3026 6.46942L16.4245 6.49992C16.5094 6.53002 16.8735 6.53002 16.9584 6.49992C16.9836 6.49096 16.9839 6.48515 17.0092 6.47963C17.0366 6.47362 17.064 6.47398 17.0803 6.46942C17.1288 6.4559 17.1431 6.43892 17.1577 6.43513C17.173 6.43117 17.1754 6.43271 17.1908 6.42758C17.2191 6.41822 17.1979 6.42653 17.2183 6.41443L17.2726 6.38748C17.2931 6.38046 17.2687 6.39043 17.288 6.38256L17.3461 6.34915C17.3675 6.33834 17.3532 6.34819 17.373 6.33552L17.6121 6.14792C17.6801 6.08422 17.7318 6.01156 17.7858 5.93555C17.7973 5.91941 17.7873 5.93587 17.799 5.91824C17.8002 5.91642 17.8019 5.91396 17.803 5.91211C17.8042 5.91021 17.8056 5.90759 17.8067 5.90565L17.8692 5.78527C17.884 5.75819 17.8849 5.77111 17.8983 5.73302C17.9126 5.69243 17.9319 5.66641 17.9398 5.62219C17.9473 5.5806 17.9386 5.60194 17.9544 5.56563C17.983 5.49987 17.9796 5.44028 17.9918 5.36936C18.0138 5.24127 18.0138 5.18277 17.9918 5.05472C17.9845 5.01268 17.9869 4.9447 17.978 4.90589C17.9649 4.84856 17.9548 4.87672 17.9386 4.7828C17.9321 4.74548 17.9278 4.75177 17.9137 4.72644L17.8929 4.66592C17.8809 4.63715 17.8901 4.66055 17.8775 4.6407C17.8559 4.6069 17.8599 4.59201 17.8369 4.55933L17.7298 4.40235C17.728 4.39993 17.7235 4.39247 17.7217 4.39005L17.3447 4.06608L17.1157 3.95986C17.0321 3.94537 17.0545 3.93666 16.991 3.92198L16.6916 3.88623C16.6457 3.88623 16.3914 3.91766 16.3538 3.93448C16.287 3.9643 16.1895 3.98213 16.1256 4.02122L16.0201 4.07827C16.0097 4.08412 16 4.08743 15.9928 4.09162L15.9638 4.11341C15.9621 4.11474 15.9599 4.11672 15.9582 4.11805L15.713 4.33002L15.595 4.48631C15.5939 4.4882 15.5924 4.49083 15.5913 4.49268L15.4623 4.74975C15.4469 4.7949 15.4371 4.77739 15.4271 4.83645C15.4129 4.92013 15.3987 4.92691 15.3924 4.96434C15.3839 5.01538 15.3811 5.05927 15.3811 5.11551L15.3809 5.11555Z" fill="#2A3549"/>
</svg>
