<svg width="32" height="23" viewBox="0 0 32 23" fill="none" xmlns="http://www.w3.org/2000/svg">
<path fill-rule="evenodd" clip-rule="evenodd" d="M13.8994 16.3205V6.11637C14.1578 6.18542 19.9048 10.0796 20.5926 10.5381C20.811 10.6838 21.435 11.0582 21.5522 11.2184C21.424 11.3935 18.0171 13.6158 17.75 13.7937C17.4462 13.9964 14.1438 16.2551 13.8991 16.3203L13.8994 16.3205ZM31.9995 9.6059V11.72C31.9823 12.8023 31.9494 13.8875 31.9411 14.5615C31.9369 14.8997 31.8796 14.9474 31.877 15.2869C31.87 16.1556 31.6967 18.7361 31.2926 19.5615C30.9674 20.2259 30.3926 20.8285 29.7327 21.16C29.2838 21.3853 29.1053 21.434 28.513 21.5195C26.4563 21.8155 23.1958 22.0367 21.0668 22.1516C20.8115 22.1654 20.5319 22.1373 20.2766 22.1511L17.9689 22.212C17.3746 22.2118 16.9991 22.2735 16.4504 22.2735L7.23479 21.8309C6.33173 21.7157 5.34164 21.6568 4.38777 21.5195C2.60093 21.2623 1.3813 19.9932 1.2677 18.2014C1.21924 17.439 0.960772 15.1889 0.959991 14.5003C0.95973 14.2564 0.979792 13.9539 0.953216 13.7176C0.923253 13.4519 0.908402 13.0319 0.901367 12.5644V10.2466L0.95973 7.87534C0.963899 7.53714 1.02122 7.48946 1.02383 7.14997C1.0319 6.15858 1.19475 5.14869 1.27057 4.17763C1.32398 3.49499 1.53007 2.90432 1.89875 2.37645C2.19291 1.9554 2.70775 1.50778 3.16788 1.27667C4.05505 0.831134 6.19885 0.71076 7.28794 0.598463L11.8337 0.285283C12.0891 0.271474 12.3687 0.299614 12.624 0.285805C12.9062 0.270693 12.9984 0.22197 13.3512 0.223273C13.878 0.225357 14.4048 0.224576 14.9319 0.224576C15.5262 0.224836 15.9017 0.163086 16.4504 0.163086L25.666 0.605759C26.5691 0.720921 27.5592 0.779805 28.513 0.917115C30.2999 1.17428 31.5195 2.44341 31.6331 4.23521C31.6816 4.99757 31.9401 7.24767 31.9408 7.93631C31.9411 8.18018 31.921 8.48268 31.9476 8.719C31.9737 8.9501 31.9901 9.25468 31.9995 9.60564V9.6059Z" fill="#2A3549"/>
</svg>
