<svg xmlns="http://www.w3.org/2000/svg" xml:space="preserve" width="200mm" height="200mm" version="1.1" style="shape-rendering:geometricPrecision; text-rendering:geometricPrecision; image-rendering:optimizeQuality; fill-rule:evenodd; clip-rule:evenodd"
viewBox="0 0 1663.81 1663.81">

 <g id="Layer_x0020_1">
  <metadata id="CorelCorpID_0Corel-Layer"/>
  <g id="_2987542948096">
   <path fill="#FEFEFE" d="M1082.58 1295.55l0 0zm-772.01 -399.31l168.6 0 0 323.89c-29.57,-7.9 -97.58,-110.6 -109.5,-134.53 -24.27,-48.73 -59.1,-119.46 -59.1,-189.36zm168.6 -452.56l0 319.45 -168.6 0c0,-83.82 58.81,-194.98 106.39,-257.42 11.53,-15.13 44.42,-57.28 62.2,-62.02zm763.13 57.68c37.47,27.45 87.1,143.96 101.22,196.05 43.39,160.18 3.83,336.17 -96.17,461.21 -30.29,37.88 -117.75,124.37 -164.77,136.93 24.57,-46.44 35.37,-91.37 -14.47,-131.94 -22.17,-18.05 -35.73,-19.19 -74.23,-18.94 -57.21,0.37 -78.49,8.59 -84.33,-13.28 17.07,-23.29 153.16,3.77 208.25,-13.59 126.81,-39.98 126.62,-218.59 3.32,-260.09 -28.03,-9.43 -69.87,-5.84 -105.08,-5.84 -19.23,0 -38.54,-0.18 -57.76,0.08 -26.65,0.36 -38.94,6.65 -44.29,-13.39 11.43,-15.6 39.26,-8.88 79.86,-8.87 28.29,0 59.91,2.44 86.38,-2.36 119.37,-21.63 202.09,-135.89 182.6,-257.75 -4.96,-30.99 -15.08,-44.88 -20.52,-68.22zm0 0l0 0zm-430.37 -17.75c5.56,23.88 33.65,62.29 75.13,62.41 17.38,0.05 103.12,-6.21 114.28,5.09 13.4,13.57 2.83,4.63 1.38,7.92 -6.26,14.79 1.49,9.01 -57.68,8.88 -20.08,-0.04 -52.43,-1.97 -71.04,-0.05 -18.41,1.89 -30.74,13.87 -41.07,25.49 -16.15,18.16 -15.55,24.96 -25.43,45.55l248.46 0c10.54,15.74 13.31,6.98 13.31,31.06 0,45.64 -122.85,5.8 -195.89,30.39 -83.16,28.01 -122.9,128.31 -79.4,213.84 50.38,99.07 183.32,79.66 288.6,79.66l0 17.75 -159.73 0c-128.89,0 -153.53,182.93 -30.36,216.7 60.88,16.7 136.84,-22.57 136.84,62.81 0,56.3 -118.76,63.33 -163.83,66.89 -35.44,2.8 -9,7.65 -59.24,0.92 -51.05,-6.84 -76.94,-3.24 -142.52,-26.11 -18.52,-6.46 -34.24,-15.5 -51.48,-19.51l0 -417.06 150.85 0c-17.33,-36.12 -8.71,-96.47 8.87,-133.11l-159.73 0 0 -412.62c16.67,-3.88 50.93,-23.4 117.94,-37.34 108.5,-22.58 236.58,-4.25 333.2,43.19 11.4,5.6 41.34,18.46 41.34,38.52 0,71.54 -96.1,20.17 -138.56,52.23 -46.49,35.1 28.98,36.51 -154.27,36.51zm22.18 909.55c177.75,0 362.48,-96.19 457.01,-239.57l51.8 -90.18c159.7,-317.34 -68.58,-792.77 -508.81,-792.77 -284.97,0 -531.83,223.44 -558.42,493.1 -1.15,11.68 -0.05,22.54 -1.3,34.2 -5.89,55.37 -2.04,95.79 10.61,154.91 52.4,244.83 276.27,440.3 549.11,440.3z"/>
   <path fill="#FEFEFE" d="M842.99 1628.31c-139.81,0 -238.02,-24.92 -341.58,-71.05 -43.54,-19.4 -87.22,-44.74 -124.27,-70.94 -19.2,-13.58 -35.56,-27.17 -55.19,-42.42l-98.26 -96.96c-53.14,-68 -74,-94.56 -114.31,-178.52 -108.03,-225 -96.75,-521.59 31.71,-734.5 13.26,-21.99 23.85,-37.96 38.13,-59.48 15,-22.59 27.72,-35.67 42.61,-55l97.61 -97.61c80.31,-61.86 85.83,-67.32 178.91,-113.92 243.94,-122.14 575.39,-84.48 790.9,71.43 114.39,82.76 210.17,192.2 268.02,322.08 114.47,257 90.75,556.56 -70.94,785.25 -81.56,115.36 -191.99,209.42 -320.9,269.2 -84.25,39.07 -201.25,72.45 -322.43,72.45zm-56.22 -1628.31l79.77 0c59.65,2.75 120.01,11.63 180.55,26.61 184.94,45.77 356.93,169.87 465.84,323.91 13.5,19.1 25.27,37.75 38.07,59.54 12.47,21.24 24.58,40.75 34.21,63.4 68.34,160.62 78.58,225.83 78.58,400.6 0,145.56 -67.15,323.23 -152.71,441.82 -73.83,102.31 -203.64,219.38 -320.74,269.36 -49.9,21.3 -89.98,38.31 -146.75,52.9 -84.55,21.73 -124.66,25.22 -188.36,25.67l-65.49 0c-125.46,0 -278.23,-52.08 -382.45,-114.48 -121.76,-72.9 -222.65,-173.26 -294.51,-295.58 -12.47,-21.24 -24.58,-40.75 -34.21,-63.4 -68.39,-160.73 -78.58,-225.59 -78.58,-400.6 0,-135.55 53.93,-281.33 114.48,-382.45 59.93,-100.09 141.14,-189.34 236.04,-256.44 132.36,-93.58 281.02,-143.6 436.25,-150.86z"/>
   <path fill="#FEFEFE" d="M1166.88 310.58c4.08,15.29 15.14,23.37 26.62,31.06l61.12 -58.68c0.99,24.34 -7.5,77.9 -12.32,98.61 35.78,0 59.77,-17 93.17,-17.75 -13.12,24.79 -30.48,40.31 -44.37,66.55l25.6 27.64c25.05,-36.9 56.86,-71.64 80.89,-107.51l-30.02 -32.09c-22.75,2.84 -59.36,13.77 -80.9,18.78 0,-71.95 31.7,-86.59 -31.06,-119.79 -1.49,17.9 -4.71,16.57 -16.5,27.87l-72.23 65.31z"/>
   <path fill="#FEFEFE" d="M851.87 159.73l-57.68 0 0 -35.49c26.59,-0.59 84.3,-18.8 84.3,17.75 0,13.64 -13,17.75 -26.62,17.75zm-84.3 66.55l26.62 0 0 -35.5 62.12 0c4.7,17.59 13.05,17.91 17.75,35.5l44.37 0c-5.22,-19.54 -21.4,-24.83 -26.62,-44.37 43.18,-11.53 33.14,-88.78 -26.64,-93.16 -34.37,-2.52 -79.75,-0.01 -115.34,-0.01 5.62,24.1 4.48,41.34 4.44,70.99 -0.03,20.73 -8.34,66.55 13.31,66.55z"/>
   <path fill="#FEFEFE" d="M1339.92 492.49c24.31,45.93 46.79,91.8 70.99,137.54 13.57,-3.16 17.05,-6.9 26.62,-13.31 -3.24,-13.9 -20.03,-40.03 -28.1,-56.2 -5.32,-10.66 -8.51,-15.98 -13.82,-26.66 -8.55,-17.18 -10.56,-16.15 1.99,-28.07 13.87,5.02 5.35,-0.86 13.6,13.02 3,5.06 5.29,11.66 8.81,17.81 7.24,12.68 13.5,18.42 17.53,35.72l26.53 -13.49c-6.22,-26.93 -24.65,-43.7 -30.96,-70.81l17.62 -9.12c6.05,25.66 36.39,74.14 48.94,97.85l26.53 -13.49c-14.75,-27.87 -56.27,-123.39 -75.33,-137.36 -4.41,16.5 -17.44,17.7 -51.82,36.92 -12.83,7.17 -48.14,27.08 -59.1,29.64z"/>
   <path fill="#FEFEFE" d="M1464.15 749.82c0,-28.3 -3.43,-57.68 39.93,-57.68 29.28,0 68.68,102.05 -8.87,102.05 -15.71,0 -31.06,-27.54 -31.06,-44.37zm-35.49 -17.75c0,43.66 22.79,87.77 55.1,100.4 53.54,20.91 86.87,-34.19 86.87,-60.47 0,-37.59 2.1,-56.86 -18.38,-88.1 -38.31,-58.42 -123.6,-34.78 -123.6,48.17z"/>
   <path fill="#FEFEFE" d="M758.7 541.29c-11.14,-5.89 -25.44,-17.45 -39.34,-16.45 -36.57,2.64 -46.98,54.73 -2.61,62.8 17.16,3.12 28.96,-8.42 41.95,-15.29 0,117.64 -35.61,50.11 -39.93,102.05 73.24,0 49.66,-24.35 89.48,-83.55 8.74,-12.99 13.98,-23.01 30.31,-27.37l0 -13.31c-24.85,-6.63 -38.83,-41.82 -50.28,-65.08 -18.57,-37.74 -16.39,-45.84 -69.52,-45.84 9.1,39.06 19.98,14.21 32.62,38.37 7.96,15.22 7.32,41.66 7.32,63.67z"/>
   <path fill="#FEFEFE" d="M1016.03 199.66c0,-67.84 102.05,-35.3 102.05,4.44 0,66.91 -102.05,33.86 -102.05,-4.44zm-39.93 -8.87c0,73.72 115.96,108.07 160.64,67.46 40.77,-37.06 21.57,-110.22 -63.26,-129.46 -47.98,-10.89 -97.38,13.75 -97.38,62z"/>
   <path fill="#FEFEFE" d="M173.04 754.26c-13.92,-3.72 -34.1,-22.13 -44.37,-31.06 22.48,-1.87 30.76,-11.44 53.24,-13.31 -3.52,7.33 -8.01,34.01 -8.87,44.37zm-70.99 -57.68c-3.21,13.78 -8.52,37.49 -8.87,53.24 22.14,1.84 46.34,25.02 63.14,38.91 20.02,16.55 40.08,31.32 61.09,45.39 2.2,-26.47 15.33,-41.16 -13.31,-48.81 0,-36.27 8.87,-57.89 8.87,-88.73 27.62,-6.44 31.06,-10.82 31.06,-44.37 -25.49,2.12 -105.32,35.83 -141.98,44.37z"/>
   <path fill="#FEFEFE" d="M474.74 270.65l0 -48.8c23.03,5.36 24.04,16.76 44.37,22.18 -8.33,11.37 -28.09,22.83 -44.37,26.62zm-39.93 -66.55c10.91,46.82 8.87,93.38 8.87,150.85 12.67,-6.7 19.8,-14.09 35.49,-17.75l0 -31.06c101.69,-53.81 50.89,-37.51 97.61,-26.62 9.57,-6.41 13.05,-10.15 26.62,-13.31l0 -8.87c-13.77,-3.67 -118.12,-75.43 -119.79,-75.43 -17.84,0 -35.13,14.95 -48.81,22.18z"/>
   <path fill="#FEFEFE" d="M244.03 381.57c51.34,27.17 74.17,76.86 102.05,84.3 7.24,-5.3 16.94,-18.78 22.18,-26.62l-27.52 -30.19c15.06,-17.16 39.09,-38.26 49.7,-54.11l-16.76 -18.73c-22.87,6.83 -42.58,36.83 -54.23,54.23l-23.19 -21.18c17.42,-25.51 55.59,-56.37 72,-80.87l-18.57 -21.41 -105.66 114.59z"/>
   <path fill="#FEFEFE" d="M248.46 572.35c-31.17,-16.49 -61.7,-32.15 -93.17,-48.8 -6.66,12.59 -14.2,24.7 -17.75,39.93 22.86,1.9 42.81,18.03 60.69,28.04 20.2,11.31 39.65,19.35 59.1,29.64l63.78 -127.84c-18.1,-4.66 -14.07,-8.15 -32.72,-9.7 -6.94,29.81 -32.98,58.92 -39.93,88.74z"/>
   <path fill="#FEFEFE" d="M798.63 408.19c17.01,9.56 128.04,4.44 155.29,4.44 -0.75,-33.85 -9.37,-22.18 -137.54,-22.18 -13.1,0 -15.3,7.51 -17.75,17.75z"/>
   <path fill="#FEFEFE" d="M860.74 359.38c0,14.71 26.25,35.23 35.49,-4.44l-13.31 -13.31c-11.27,2.63 -22.18,3.71 -22.18,17.75z"/>
   <path fill="#FEFEFE" d="M922.86 359.38c0,23.51 31.06,22.94 31.06,0 0,-23.51 -31.06,-22.94 -31.06,0z"/>
   <path fill="#FEFEFE" d="M798.63 354.95c10.84,46.54 60.87,9.51 17.75,-13.31 -3.27,1.73 -5.28,2.36 -8.54,4.77l-9.21 8.54z"/>
  </g>
 </g>
</svg>
