<svg xmlns="http://www.w3.org/2000/svg" xml:space="preserve" width="200mm" height="69.4138mm" version="1.1" style="shape-rendering:geometricPrecision; text-rendering:geometricPrecision; image-rendering:optimizeQuality; fill-rule:evenodd; clip-rule:evenodd"
viewBox="0 0 1662.34 576.95">
 <g id="Layer_x0020_1">
  <metadata id="CorelCorpID_0Corel-Layer"/>
  <g id="_2987495931248">
   <path fill="#FEFEFE" d="M1373.65 576.94c-0.01,0 -0.02,0 -0.03,0 -66.4,0 -129.59,-22.44 -180.72,-63.71 -48.49,39.09 -108.34,61.45 -171.25,63.55 -3.28,0.11 -6.52,0.16 -9.76,0.16 -0.01,0 -0.02,0 -0.03,0 -66.4,0 -129.59,-22.44 -180.72,-63.71 -48.5,39.09 -108.34,61.45 -171.25,63.55 -3.28,0.11 -6.52,0.16 -9.77,0.16 0,0 -0.01,0 -0.02,0 -66.4,0 -129.59,-22.44 -180.71,-63.71 -48.5,39.09 -108.34,61.45 -171.26,63.55 -3.27,0.11 -6.52,0.16 -9.76,0.16 -0.01,0 -0.01,0 -0.02,0 -156.4,-0.01 -282.99,-122.53 -288.21,-278.93 -5.31,-159.02 119.75,-292.7 278.76,-298l1.01 -0.02 18.23 0.02c62.89,2.1 122.73,24.46 171.25,63.55 48.51,-39.09 108.34,-61.45 171.26,-63.55l1.01 -0.02 18.23 0.02c62.89,2.1 122.73,24.46 171.25,63.54 48.5,-39.09 108.36,-61.45 171.27,-63.54l1 -0.02 18.23 0.02c62.89,2.1 122.74,24.46 171.25,63.55 48.51,-39.09 108.36,-61.46 171.27,-63.55l1 -0.02 18.23 0.02c151.27,5.04 273.72,127.49 278.76,278.76 5.3,159.01 -119.76,292.69 -278.76,298 -3.29,0.11 -6.52,0.16 -9.77,0.16zm-137.7 -106.58c39.49,30.02 87.42,46.28 137.68,46.28 0.01,0 0.01,0 0.02,0 2.58,0 5.16,-0.04 7.74,-0.13 125.79,-4.19 224.71,-109.94 220.52,-235.73 -3.98,-119.5 -100.59,-216.26 -220.03,-220.5l-16.19 0c-47.34,1.67 -92.44,17.86 -129.71,46.12 39.66,48.69 62.31,108.81 64.43,172.36 2.33,69.68 -20.9,137.88 -64.47,191.59zm-361.75 0c39.48,30.02 87.41,46.28 137.68,46.28 0.01,0 0.01,0 0.02,0 2.59,0 5.16,-0.04 7.74,-0.13 47.52,-1.59 92.81,-17.77 130.2,-46.13 -39.67,-48.69 -62.31,-108.8 -64.43,-172.38 -2.33,-69.67 20.91,-137.87 64.46,-191.56 -37.29,-28.29 -82.41,-44.48 -129.75,-46.16l-16.18 0c-47.34,1.67 -92.45,17.86 -129.71,46.12 39.66,48.69 62.31,108.81 64.42,172.36 2.33,69.68 -20.9,137.88 -64.46,191.59zm-361.75 0c39.48,30.02 87.41,46.28 137.68,46.28 0,0 0.01,0 0.02,0 2.58,0 5.15,-0.04 7.75,-0.13 47.51,-1.59 92.81,-17.77 130.19,-46.13 -39.67,-48.69 -62.31,-108.8 -64.42,-172.38 -2.32,-69.66 20.9,-137.86 64.46,-191.56 -37.29,-28.28 -82.41,-44.47 -129.74,-46.14l-16.19 0c-47.33,1.67 -92.44,17.86 -129.71,46.12 39.67,48.69 62.32,108.81 64.44,172.36 2.32,69.67 -20.92,137.87 -64.48,191.58zm-232 -410.06c-125.55,4.44 -224.22,110.08 -220.03,235.71 4.13,123.71 104.26,220.63 227.96,220.64 0,0 0.01,0 0.01,0 2.58,0 5.16,-0.04 7.75,-0.13 47.51,-1.59 92.81,-17.77 130.19,-46.13 -39.67,-48.69 -62.31,-108.8 -64.43,-172.38 -2.31,-69.66 20.92,-137.86 64.47,-191.56 -37.28,-28.28 -82.41,-44.47 -129.74,-46.14l-16.19 0zm912.5 88.88c-32.06,41.72 -49.04,93.74 -47.28,146.84 1.61,48.24 18.17,93.97 47.22,131.61 32.06,-41.72 49.04,-93.74 47.28,-146.84 -1.61,-48.23 -18.17,-93.96 -47.22,-131.61zm-723.51 -0.01c-32.06,41.72 -49.04,93.74 -47.27,146.84 1.61,48.24 18.17,93.97 47.21,131.61 32.06,-41.72 49.05,-93.74 47.28,-146.84 -1.61,-48.22 -18.17,-93.96 -47.22,-131.61zm361.75 0c-32.06,41.72 -49.05,93.74 -47.28,146.84 1.61,48.24 18.17,93.97 47.21,131.61 32.06,-41.72 49.05,-93.74 47.28,-146.84 -1.61,-48.22 -18.17,-93.96 -47.22,-131.61z"/>
  </g>
 </g>
</svg>
