<svg width="275" height="111" viewBox="0 0 275 111" fill="none" xmlns="http://www.w3.org/2000/svg">
<path d="M229.44 59.1174C229.216 71.4661 231.883 78.0069 242.063 78.0069C252.226 78.0069 253.684 66.8649 253.684 58.3863C253.684 49.902 251.756 41.6658 241.078 41.6658C234.528 41.6658 229.692 46.7556 229.44 59.1174ZM208.846 110.72V27.1312H229.692C229.692 27.1312 229.692 28.3417 229.692 30.5219C229.692 35.0448 231.516 33.1797 232.985 31.4172C233.232 31.1225 237.877 25.4359 248.341 25.4359C258.772 25.4359 275 32.7022 275 58.3863C275 78.2531 265.318 92.7877 248.598 92.7877C239.384 92.7877 234.058 89.1601 232.84 87.696C231.62 86.2525 229.927 86.0007 229.927 87.696C229.927 89.3951 229.927 110.72 229.927 110.72H208.846Z" fill="white"/>
<path d="M47.7256 0.0001297H70.2595C70.2595 0.0001297 70.2595 48.9361 70.2595 59.1158C70.2595 69.2842 65.8933 90.6114 34.6439 90.6114C3.39072 90.6114 0 70.7334 0 59.5969V48.6955H21.8065C21.8065 48.6955 21.8065 52.8136 21.8065 59.3508C21.8065 65.8916 26.169 71.9457 34.4014 71.9457C42.6376 71.9457 47.7256 67.3445 47.7256 59.5969C47.7256 51.8438 47.7256 0.0001297 47.7256 0.0001297Z" fill="white"/>
<path d="M117.389 50.1508C117.389 44.0874 114.004 38.2739 106.251 38.2739C98.74 38.2739 96.073 43.5988 96.073 50.1508H117.389ZM104.078 24.7092C121.774 24.7092 137.273 31.4907 137.273 62.7457H95.3624C95.3624 72.6791 99.4767 76.7991 106.745 76.7991C114.015 76.7991 116.436 70.98 116.436 70.98H137.036C137.036 79.9473 124.678 92.061 106.018 91.8204C84.7034 91.8204 74.2832 76.0717 74.2832 59.838C74.2832 43.5988 83.4837 24.7092 104.078 24.7092Z" fill="white"/>
<path d="M184.384 50.1504C184.384 44.087 180.995 38.2736 173.242 38.2736C165.735 38.2736 163.063 43.5984 163.063 50.1504H184.384ZM171.073 24.7088C188.767 24.7088 204.262 31.4903 204.262 62.7453H162.354C162.354 72.6787 166.472 76.7987 173.746 76.7987C181.008 76.7987 183.433 70.9797 183.433 70.9797H204.033C204.033 79.947 191.673 92.0607 173.018 91.8201C151.693 91.8201 141.273 76.0713 141.273 59.8377C141.273 43.5984 150.484 24.7088 171.073 24.7088Z" fill="white"/>
<path d="M261.203 100.698C261.203 97.388 263.898 94.6985 267.219 94.6985C270.53 94.6985 273.219 97.388 273.219 100.698C273.219 104.003 270.53 106.71 267.219 106.71C263.898 106.71 261.203 104.003 261.203 100.698ZM260.509 100.698C260.509 104.403 263.508 107.409 267.219 107.409C270.907 107.409 273.922 104.403 273.922 100.698C273.922 96.9944 270.907 93.9879 267.219 93.9879C263.508 93.9879 260.509 96.9944 260.509 100.698Z" fill="white"/>
<path d="M269.911 104.133L268.518 100.843C268.96 100.69 269.107 100.582 269.342 100.33C269.648 100.002 269.84 99.4836 269.84 99.0136C269.84 97.8274 268.928 97.0198 267.605 97.0198H264.808V104.133H265.638V101.052H267.66L268.988 104.133H269.911ZM265.615 100.33V97.7938H267.589C268.413 97.7938 268.937 98.2638 268.937 98.9912C268.937 99.8174 268.381 100.33 267.473 100.33H265.615Z" fill="white"/>
</svg>
