<?xml version="1.0" encoding="UTF-8"?>
<!DOCTYPE svg PUBLIC "-//W3C//DTD SVG 1.1//EN" "http://www.w3.org/Graphics/SVG/1.1/DTD/svg11.dtd">
<!-- Creator: CorelDRAW 2020 (64-Bit) -->
<svg xmlns="http://www.w3.org/2000/svg" xml:space="preserve" width="200mm" height="105.391mm" version="1.1" style="shape-rendering:geometricPrecision; text-rendering:geometricPrecision; image-rendering:optimizeQuality; fill-rule:evenodd; clip-rule:evenodd"
viewBox="0 0 1662.34 875.98"
 xmlns:xlink="http://www.w3.org/1999/xlink"
 xmlns:xodm="http://www.corel.com/coreldraw/odm/2003">
 <defs>
  <style type="text/css">
   <![CDATA[
    .fil0 {fill:#FEFEFE}
   ]]>
  </style>
 </defs>
 <g id="Layer_x0020_1">
  <metadata id="CorelCorpID_0Corel-Layer"/>
  <g id="_2987497100352">
   <path class="fil0" d="M1618.83 432.47c0,14.46 -0.96,30.43 -3.62,43.78 -8.12,40.74 -28.41,78.43 -55.02,109.92l-12.98 14.94c-4.19,5.02 -9.31,9.37 -13.93,13.99l-9.41 8.77c-3.48,3.06 -6.2,6.04 -9.77,9.06 -26.79,22.57 -55.9,43.61 -86.62,60.78l-11.61 6.57c-18.86,11.26 -41.31,22.02 -61.5,30.71l-38.77 16.42c-31.47,12.6 -63.43,23.04 -96.03,32.54 -59.24,17.28 -121,29.95 -182.74,38.04 -22.45,2.94 -44.02,6.1 -66.67,7.35 -11.35,0.63 -32.13,3.32 -42.23,3.22l-62.33 2.6c-6.06,0 -12.12,0.01 -18.18,-0 -6.61,-0.01 -11.23,0.62 -18.19,0.66l-17.52 -0.66c-6.06,0 -12.12,-0.01 -18.18,0l-52.97 -2.22c-4.84,-0.73 -12.17,-0.89 -17.17,-1.01 -3.21,-0.08 -4.6,-0.56 -8.43,-0.66 -3.05,-0.08 -4.81,-0.49 -8.42,-0.67 -14.79,-0.73 -51.17,-4.89 -66.44,-6.93 -26.88,-3.6 -54.01,-7.25 -80.38,-12.48l-60.59 -12.79c-24.71,-5.61 -48.9,-12.13 -72.55,-19.66 -13.69,-4.36 -28.5,-8.72 -41.58,-13.62 -4.61,-1.73 -8.87,-3.03 -13.45,-4.74 -24.13,-8.99 -48.51,-18.39 -71.75,-29.55l-18.82 -9.1c-16.6,-8.3 -32.57,-16.5 -48.12,-25.91 -22.7,-13.74 -45.29,-27.71 -65.8,-44.59l-38.96 -34.42c-1.23,-1.07 -1.49,-0.97 -2.53,-2.01 -1.04,-1.04 -0.94,-1.3 -2.01,-2.53 -1.43,-1.64 -2.96,-2.97 -4.54,-4.55 -3.29,-3.29 -5.93,-6.33 -9.1,-9.73 -1.13,-1.22 -1.09,-1.41 -2.01,-2.54l-22.04 -28.61c-2.58,-3.87 -5.08,-7.31 -7.48,-11.35 -18.93,-31.85 -32.62,-64.41 -34.08,-113.26 -0.06,-1.88 0.55,-5.18 0.52,-8.38 -0.03,-3.6 0.12,-6.01 0.46,-8.63 2.27,-17.49 3.83,-29.27 9.36,-45.83 9.09,-27.23 21.31,-49.59 37.95,-71.79l16.42 -20.6c8.09,-10.1 18.16,-18.89 27.21,-27.99l19.64 -17.37c17.33,-13.42 34.4,-27.65 53.28,-38.93l57.97 -33.58c16.39,-8.83 33.45,-15.75 50.22,-23.81 16.58,-7.97 48.74,-20.28 66.2,-26 14.09,-4.61 27.42,-9.68 41.52,-13.67 5.26,-1.49 9.4,-2.86 14.49,-4.34 38.41,-11.19 79.79,-21.6 119.09,-28.32 21.23,-3.63 41.04,-7.09 63.18,-10.19l49.09 -6.1c5.95,-0.66 11.22,-0.83 17.23,-1.6 10.76,-1.38 23.03,-1.46 33.48,-2.88l70.59 -3.43c11.81,0.07 25.9,1.03 36.55,-0.47l62.17 1.11c4.17,-0.02 5.61,0.58 9.06,0.68 23.58,0.7 47,2.12 68.96,4.42l33.07 3.29c11.23,1.07 22.14,2.45 33.02,3.99 21.78,3.09 42.73,6.09 63.95,10.08 79.4,14.94 156.14,35.92 229.03,65.77l75.24 35.15c11.93,5.93 23.72,13.08 35.19,20.01 15.09,9.11 29.93,18.81 44.13,29.24 3.62,2.66 7.22,5.23 10.74,8.09l15.14 12.13c1.9,1.47 3.25,2.82 5.29,4.45 1.9,1.53 2.63,2.58 4.82,4.27 6.01,4.64 22.3,21.19 27.72,26.82 1.87,1.94 2.49,3.21 4.53,5.21 9.12,8.91 21.03,25.14 28.28,36 5,7.48 9.77,15.17 13.76,23.25 5.15,10.44 10.49,20.74 14.21,31.89 6.64,19.86 11.76,39.84 11.76,62.26zm-807.37 -432.47l50.8 0c9.23,0.14 18.56,0.34 28.02,0.63 3.45,0.1 4.89,0.7 9.06,0.68l18.84 0.64c32.4,1.73 64.96,4.69 96.81,8.39 38.57,4.48 77.68,10.6 115.58,18.18 80.65,16.13 158.78,39.75 234.18,72.32 28.42,12.27 56.25,26.07 82.93,41.75l17.91 10.66c29.64,19.6 39.91,26.23 67.16,47.78 5.49,4.34 10.92,8.47 15.79,13.43 1.9,1.93 3.03,2.41 4.89,4.2 13.52,13.01 25.51,24.44 37.69,38.94 8.84,10.52 16.86,21.71 25.03,32.76 11.12,15.03 19.55,32.48 27.14,49.48 8.26,18.49 19.05,54.79 19.05,75.75l0 44.81c0,22.95 -10.38,55.93 -19.46,76.64 -15.37,35.05 -29.14,53.23 -52.06,81.7l-9.16 10.32c-2.05,2.02 -2.72,3.24 -4.53,5.21 -1.54,1.67 -2.92,2.91 -4.55,4.54 -3.4,3.4 -6.32,6.38 -9.73,9.75 -1.93,1.91 -3.24,2.54 -5.22,4.52l-9.72 9.11c-5.73,5.74 -20.36,17.35 -26.28,21.77l-33.17 23.97c-4.05,2.7 -7.64,5.08 -11.69,7.79l-23.71 14.6c-2.25,1.35 -4,2.25 -6.17,3.57l-18.3 10.27c-16.89,8.33 -33.23,18.15 -50.74,25.24 -4.44,1.8 -8.73,4.1 -12.99,5.84 -27.37,11.22 -54.75,22.6 -82.94,31.99l-104.5 29.92c-4.61,1.15 -10.59,2.63 -15.23,3.6 -10.72,2.26 -20.84,4.56 -31.6,6.71 -85.74,17.15 -186.8,28.52 -277.33,28.52l-61.16 0c-0.41,-0.03 -0.78,-0.06 -1.08,-0.09 -6,-0.67 -12.29,-0.19 -18.93,-0.55 -3.23,-0.17 -4.95,-0.69 -9.08,-0.66 -3.97,0.03 -6.18,-0.21 -9.19,-0.55 -3.08,-0.35 -6.52,0.13 -9.61,-0.13l-27.31 -1.91c-12.66,-0.04 -39.66,-3.17 -53.13,-4.66 -88.5,-9.84 -175.17,-26.12 -257.99,-52.4 -24.62,-7.82 -48.55,-15.9 -72.09,-25.31l-27.65 -11.31c-4.59,-1.96 -8.74,-3.7 -13.16,-5.67l-26.44 -12.52c-14.92,-6.37 -36.56,-18.25 -50.95,-26.97l-47.29 -29.99c-13.46,-8.92 -26.27,-19.16 -38.81,-29.37 -6.8,-5.54 -19.71,-16.44 -25.65,-22.41 -6.29,-6.32 -13.72,-12.97 -19.47,-19.49 -1.84,-2.08 -2.45,-3.13 -4.55,-5.19 -2.06,-2.01 -2.72,-3.26 -4.54,-5.2 -3.21,-3.43 -6.08,-6.84 -9.03,-10.45l-16.66 -22.3c-2.68,-4.04 -5.18,-7.62 -7.8,-11.68 -1.36,-2.12 -2.29,-3.83 -3.65,-6.09 -1.24,-2.06 -2.29,-3.6 -3.4,-5.69 -6.88,-12.93 -13.35,-25.9 -18.67,-39.77 -12.57,-32.74 -15.96,-57.61 -15.96,-95.08 0,-22.48 5.49,-49.41 11.28,-66.64 12.42,-36.93 27.96,-63.5 51.42,-94.68 5.71,-7.59 15.93,-19.54 22.51,-26.19 12.17,-12.29 24.01,-24.47 37.42,-35.3l7.8 -6.49c12.8,-10.14 25.22,-20.16 38.92,-29.27 2.1,-1.4 3.77,-2.47 5.85,-3.89 13.52,-9.18 27.44,-17.62 41.48,-26.06 14.03,-8.43 25.26,-13.19 38.08,-20.37l19.49 -9.73c2.52,-1.27 4.14,-1.83 6.72,-3.03l54.11 -23.16 42.77 -15.67c9.46,-3.15 19.04,-6.1 28.9,-9.41 19.79,-6.66 40.47,-12.05 60.8,-17.13 23.06,-5.76 41.2,-9.3 62.86,-14.42 18.33,-4.33 47.08,-9.01 66.17,-11.75 21.93,-3.15 45.31,-6.6 68.44,-8.84 50.82,-4.9 97.97,-7.77 146.47,-8.5z"/>
   <path class="fil0" d="M840.26 785.72l-59.12 -0.62c-3.61,-0.04 -4.13,-0.66 -7.74,-0.7 -2.81,-0.03 -5.67,0.05 -8.49,0.05 -3.76,-0 -4.43,-0.59 -7.75,-0.69 -7.73,-0.23 -40.83,-1.82 -47.8,-2.85 -5.21,-0.77 -10.26,-0.65 -15.49,-1.4 -10.46,-1.5 -19.91,-1.93 -30.13,-2.98 -48.26,-4.95 -96.77,-13.8 -143.99,-24.19 -9.49,-2.09 -17.99,-4.16 -27.29,-6.47 -26.45,-6.59 -52.87,-14.37 -78.42,-22.88l-49.48 -18.06c-11.8,-4.74 -23.81,-9.16 -35.13,-14.87l-11.63 -5.26c-7.59,-3.13 -15.3,-7.27 -22.57,-11.19 -11.05,-5.95 -22.26,-11.16 -33.02,-17.63 -24.3,-14.61 -48.65,-29.8 -70.51,-47.68l-17.96 -15.16c-5.67,-4.38 -16.57,-15.14 -21.35,-20.86 -5.05,-6.04 -11.18,-11.35 -15.95,-17.81 -1.32,-1.79 -2.28,-2.93 -3.7,-4.74 -2.68,-3.4 -4.67,-6.2 -7.25,-9.64 -4.8,-6.41 -8.93,-13.59 -12.97,-20.8 -4.3,-7.68 -7.39,-14.28 -10.87,-22.9 -18.86,-46.75 -13.31,-96.47 10.87,-139.69 6.1,-10.91 12.61,-20.77 20.21,-30.44 4.98,-6.33 9.79,-12.7 15.46,-18.31l8.11 -8.77c11.56,-11.51 23.32,-21.76 36.09,-32.09 15.7,-12.7 32.56,-23.72 49.53,-34.88l32.3 -19c16.4,-8.83 33.55,-18.03 50.81,-25.16l78.93 -31.46c48.73,-16.23 96.4,-29.41 146.83,-39.53 28.83,-5.79 58.44,-10.14 87.62,-14.33 16.96,-2.44 44.31,-5.77 61.56,-6.62 9.94,-0.49 20.94,-2.52 31.16,-2.61 5.29,-0.04 10.81,-0.22 16.22,-0.66 16.63,-1.36 32.2,-1.95 48.74,-1.91 6.22,0.01 9.91,-0.66 16.23,-0.65l38.31 0c6.36,-0 10.18,0.67 16.23,0.65 9.91,-0.04 23.43,-0.33 33.02,0.74 4.49,0.5 11.28,0.61 15.77,1.11l16.16 0.73c10.43,0.07 21.75,2.11 31.81,2.6 5.7,0.28 10.16,1.08 15.57,1.31 16.07,0.69 59.69,6.99 75.06,9.36 29.16,4.5 57.23,9.37 85.86,16.09 18.1,4.25 36.61,8.29 54.6,13.58 8.49,2.5 17.85,5.27 26.19,7.58 9.05,2.51 17.28,5.4 26.08,8.33 104.76,34.93 227.91,94.33 291.31,184.01 27.25,38.54 41.31,84.63 31.89,131.89 -1.9,9.55 -4.58,17.62 -7.62,26.15 -6.41,18.03 -18.51,39.1 -30.61,53.8 -2.66,3.23 -4.78,6.18 -7.49,9.39 -78.13,92.45 -212.56,149.04 -325.63,180.86 -54.79,15.42 -111.71,26.05 -168.44,34.16 -10.06,1.44 -19.65,2.31 -30.03,3.73 -10.39,1.42 -20.19,1.66 -30.61,3.15 -5.24,0.75 -10.35,0.53 -15.59,1.29 -5.38,0.79 -10.29,0.52 -15.76,1.12 -9.68,1.06 -21.38,1.7 -31.94,1.83 -3.61,0.04 -4.13,0.66 -7.74,0.7 -2.74,0.03 -5.76,-0.18 -8.47,-0.03l-50 1.3zm-768.83 -348.05c0,47.01 19.11,87.12 41.28,116.51 6.24,8.27 12.61,16.39 19.6,23.9 1.72,1.84 2.28,2.97 4.21,4.88 7.25,7.16 14.08,15.15 22.02,21.49l9.55 8.64c1.89,1.52 3.03,2.52 5.01,4.08l61.32 43.88 22.35 13.36c7.56,4.5 15.17,7.81 22.73,12.34 10.5,6.29 24.09,12.08 35.43,17.17 4.03,1.81 7.74,3.66 12.07,5.46 51.59,21.48 101.82,39.72 157.42,53.62 28.67,7.17 57.56,13.96 87.02,18.83 19.8,3.27 40.34,6.9 60.58,9.55 10.69,1.4 20.47,2.33 31.26,3.81 16.32,2.24 32.62,2.99 48.52,4.73l40.81 2.7c8.26,0.44 17.51,-0.31 25.8,0.82 7.28,1 43.97,1.12 53.42,1.12 46.89,0 90.96,-2.52 134.37,-5.89 10.36,-0.8 21.43,-2.32 31.85,-3.21 26.78,-2.31 65.9,-8.4 92.6,-13.24 77.65,-14.07 167.81,-38.34 232.31,-67.04l41.98 -19.06c2.3,-1.13 3.75,-1.53 6.14,-2.96 7.93,-4.75 23.97,-12.17 34.81,-18.43 27.2,-15.7 71.24,-43.65 93.31,-65.13 8.85,-8.62 18.71,-16.29 26.95,-25.65 1.62,-1.84 2.02,-2.71 3.9,-4.54 10.99,-10.74 22.23,-27.08 30.75,-40.03 1.31,-2 2.41,-3.75 3.48,-5.61 2.14,-3.73 4.21,-7.33 6.31,-11.22 13.94,-25.84 20.63,-54.72 21.37,-84.29 0.4,-15.92 -2.37,-31.37 -6.21,-46.03 -4.6,-17.56 -12.4,-33.32 -21.01,-49.12 -1.12,-2.06 -2.13,-3.73 -3.41,-5.68l-34.52 -44.7c-3.8,-4.31 -13.29,-14.04 -17.59,-17.47l-14.19 -12.44c-1,-0.85 -1.33,-1.36 -2.34,-2.21 -52.89,-44.81 -117.42,-78.97 -181.72,-104.65l-12.52 -5.01c-4.43,-1.79 -8.46,-3.14 -12.71,-4.83l-25.89 -9.17c-26.5,-8.83 -54.02,-17.3 -81.64,-24.2 -43.23,-10.8 -102.74,-23.19 -147.72,-28.26 -26.6,-2.99 -53.37,-6.43 -79.85,-8.46 -11.51,-0.88 -21.75,-1.87 -33.1,-1.96l-67.51 -2.62c-53.22,0.2 -102.1,2.07 -152.56,5.89 -42.05,3.19 -83.33,9.8 -124.35,16.56 -20.13,3.32 -39.5,7.8 -58.33,11.8 -55.37,11.77 -110.65,29.54 -161.71,49.98 -16.47,6.59 -32.92,13.49 -48.73,21.4 -2.07,1.03 -3.74,1.96 -5.64,2.81 -2.28,1.01 -3.95,1.56 -6.27,2.82 -11.41,6.2 -23.72,11.86 -34.75,18.49 -18.2,10.94 -36.63,21.38 -53.67,33.99 -12.6,9.32 -25.57,18.56 -37.26,28.97 -28.87,25.72 -56.18,54.32 -73.66,89.33 -3.97,7.95 -7.75,15.54 -10.69,24.38 -6.58,19.82 -10.96,38.06 -10.96,59.82z"/>
   <path class="fil0" d="M761.04 209.74c0,1.77 5.84,3.09 5.84,10.39 0,5.94 -11.99,38.24 -14.69,46.35l-31.17 90.91c-1.5,4.49 -15.1,42.3 -15.18,45.86l48.05 0c2.46,0 3.14,-4.54 3.81,-6.58l37.99 -112.66c0.53,-1.58 0.77,-2.29 1.29,-3.9 0.13,-0.41 0.45,-1.46 0.64,-1.95l1.07 -2.18c6.38,27.37 13.34,67.33 19.21,96.37 1.17,5.81 1.99,10.6 3.14,16.34 1.2,5.99 1.69,14.56 4.92,14.56l46.1 0c2.87,0 3.84,-5.98 5.44,-10.79 6.21,-18.64 14.72,-45.01 21.28,-62.49 8.33,-22.23 17.45,-52.64 25.79,-74.86l16.98 -50.56 -51.95 0c-1.58,3.28 -3.25,9.44 -4.46,13.07l-31.9 93.42 -17.69 -92.7c-0.68,-3.38 -2.35,-10 -2.44,-13.8l-70.78 0c-0.43,1.83 -1.3,3.3 -1.3,5.19z"/>
   <path class="fil0" d="M977.92 355.2c0.25,-3.04 2.92,-9.78 3.97,-12.91l22.25 -64.12c1.58,-4.74 2.96,-8.43 4.55,-12.98 1.47,-4.21 3.35,-9.16 4.29,-13.24 16.24,0 40.54,-3.92 44.13,12.36 3.17,14.36 -15.49,69.48 -30,82.94 -10.63,9.87 -29.25,7.94 -49.2,7.94zm-16.23 -145.45c3.45,5.15 5.84,2.81 5.84,11.04 0,4.87 -19.2,60.43 -22.35,68.56 -7.42,19.17 -15.95,49 -23.38,68.18l-11.66 33.8c-1.05,3.13 -3.4,8.97 -3.65,11.93 28.79,0 57.58,-0.06 86.36,0 57.39,0.13 81.73,-20.31 101.95,-70.78 7.81,-19.5 16.23,-48.57 16.23,-70.78 0,-32.59 -19.52,-50.11 -47.22,-55.38 -15.72,-2.99 -79.96,-1.77 -100.83,-1.77 -0.2,2.35 -0.81,3.09 -1.3,5.19z"/>
   <path class="fil0" d="M1233.12 531.82c1.46,-6.28 13.27,-36.49 13.64,-40.91 9.09,0 18.19,0.03 27.27,-0 11.49,-0.04 17.53,1.65 17.53,11.69 0,5.62 -3.63,18.11 -9.13,23.33 -8.74,8.29 -33.02,5.89 -49.31,5.89zm-37.01 -81.17c0,3.91 10.14,0.46 3.16,21.35 -1.24,3.72 -2.46,7.82 -3.91,11.68l-47.55 136.86c-1.62,4.87 -7.47,20.15 -7.55,23.62l54.55 0 20.38 -60.15c0.94,-2.83 2.44,-6.29 3,-8.69l18.18 0c1.36,5.82 3.61,11.76 5.19,17.53l13.07 43.43c0.63,2.02 1.27,7.87 3.82,7.87l53.25 0c-0.08,-3.61 -21.01,-58.5 -23.13,-64.54 -3.47,-9.91 -4.29,-2.66 14.42,-10.41 11.88,-4.92 23.29,-18.27 28.63,-29.81 8.6,-18.58 18.52,-48.69 8.18,-70.11 -2.5,-5.18 -6.67,-9.58 -11.22,-12.8 -4.88,-3.46 -9.2,-5.52 -15.95,-7.43 -19.44,-5.48 -46.54,-3.61 -67.82,-3.61 -15.8,0 -31.6,0 -47.4,0 -0.43,1.83 -1.3,3.3 -1.3,5.2z"/>
   <path class="fil0" d="M505.2 531.82c0.3,-3.54 12.11,-34.34 13.64,-40.91 7.73,0 33.13,-1.17 39.22,1.69 9.84,4.6 4.07,19.37 1.04,26.24 -2.38,5.39 -5.45,8.97 -11.11,10.97 -8.21,2.91 -31.02,2.02 -42.79,2.02zm-37.01 -81.17c0,0.96 5.84,5.33 5.84,9.09 0,7.94 -22.24,67.59 -26.71,81.08 -1.23,3.72 -2.46,7.83 -3.9,11.68l-19.79 56.83c-1.4,4.19 -2.67,7.87 -4.05,11.54 -1.44,3.85 -2.67,7.96 -3.9,11.68 -1.32,3.99 -3.01,7.43 -3.98,11.6l55.2 0c0.22,-2.65 15.62,-46.53 17.29,-51.54 1.88,-5.64 3.76,-12.44 6.09,-17.29l18.18 0 4.92 17.16c1.71,5.98 3.16,11.16 5.06,17.01l10.15 34.66 55.2 0c-0.23,-2.73 -4.74,-14.06 -6.04,-17.34 -2.38,-6.04 -4.14,-11.59 -6.4,-17.63l-9.65 -26.07c-0.88,-2.22 -2.73,-6.88 -3.25,-9.09 1.41,-0.68 4.71,-1.16 6.76,-1.68 16.02,-4.03 26.3,-12.61 34.83,-26.86 7.1,-11.85 16.2,-35.72 16.2,-54.58 0,-23.59 -11.65,-35.45 -30.59,-41.48 -19.34,-6.16 -48.03,-3.97 -68.11,-3.97 -16.02,0 -32.03,0 -48.05,0 -0.43,1.83 -1.3,3.3 -1.3,5.2z"/>
   <path class="fil0" d="M696.75 599.35c-11.34,0 -26.62,-1.5 -26.62,-16.88 0,-13.05 15.77,-70.08 32.83,-83.4 10.93,-8.54 19.51,-8.16 33.4,-8.16 29.39,0 18.16,32.23 12.9,47.97 -4.9,14.67 -12.82,39.84 -24.41,50.91 -6.21,5.93 -16.2,9.56 -28.1,9.56zm-77.92 -14.29c0,11.66 -0.2,17.04 4.26,28.21 3.69,9.23 8.62,14.97 15.77,20.59 2.4,1.89 4.71,3.2 7.67,4.67 12.26,6.07 26.08,8.12 39.83,8.88l23.57 -1.11c7.54,-0.99 13.91,-1.59 20.35,-3.68 9.96,-3.23 8.23,-2.47 17.56,-7.11 9.2,-4.58 20.41,-14.57 26.28,-22.42 20.17,-27.01 49.23,-104.36 31.09,-139.72 -17.1,-33.35 -63.18,-33.49 -96.78,-27.91 -24.04,3.99 -45.67,19.25 -58.06,39.99 -13.84,23.15 -31.54,70.63 -31.54,99.63z"/>
   <path class="fil0" d="M638.96 259.74c0,20.45 0.65,39.1 0.65,59.09l-35.71 0c8.97,-16.96 20.24,-35.14 29.44,-52.38 2.83,-5.31 2.87,-6.48 5.63,-6.71zm-36.36 -50c0,0.98 3.9,3.07 3.9,6.49 0,8.62 -13.68,28.55 -18.55,36.64 -2.53,4.2 -4.52,7.58 -7.06,11.77l-69.16 115.9c-2.41,4.03 -4.6,7.57 -6.98,11.85 -3.41,6.13 -8.08,10.84 -4.1,10.84l53.9 0c2.97,0 12.61,-19.35 14.01,-21.7l11.47 -20.35c0.84,-1.33 0.53,-2.1 2.44,-2.1l57.79 0c0,4.71 0.68,6.52 0.66,11.02l-0.01 23.39c-0,3.03 -1.22,9.74 1.95,9.74l48.7 0c3.65,0 1.63,-8.36 1.39,-10.48 -0.42,-3.74 -0.44,-8.95 -0.71,-12.28 -0.17,-2.09 0.08,-4.37 -0.03,-6.46 -0.15,-2.86 -0.58,-2.71 -0.67,-5.82l-0.65 -12.99c0.03,-8.46 -1.18,-16.75 -1.26,-25.37l-1.33 -18.15c-0.12,-2.3 0.16,-4.83 -0.03,-7.11l-3.19 -55.9c-0.09,-3.11 -0.52,-2.96 -0.67,-5.82l-0.67 -12.97c0.02,-8.68 -1.28,-16.67 -1.28,-25.34l-78.57 0c-0.43,1.83 -1.3,3.3 -1.3,5.19z"/>
   <path class="fil0" d="M1031.82 451.3c8.96,6 6.4,13.98 3.15,22.63l-54.38 157.31c-1.05,3.13 -3.72,9.88 -3.97,12.91l133.12 0c0.58,-2.49 1.21,-3.51 2.03,-5.76l14.2 -40.99 -77.27 0 11.04 -33.12 68.83 0c1.32,-5.66 13.8,-36.68 14.94,-41.56l-69.48 0c1.45,-6.22 8.37,-22.51 10.39,-31.17l75.97 0c0.21,-2.57 1.15,-4.07 1.85,-5.94l14.38 -40.17 -142.86 0c-0.43,1.86 -1.21,4.3 -1.95,5.84z"/>
   <path class="fil0" d="M821.43 451.3c10.2,2.72 12.25,13.11 12.36,22.7 0.14,11.64 0.9,22.08 1.25,33.81 0.1,3.33 0.69,3.99 0.69,7.75l0.62 16.91c-0.03,3.96 0.49,5.31 0.66,8.43 0.15,2.73 -0.15,5.72 -0.01,8.45l1.28 25.34c0,3.76 0.59,4.42 0.69,7.75l2.1 50.49c0.37,2.72 0.1,5.68 0.41,8.68 0.36,3.52 1.86,2.62 5.89,2.55l62.36 -0.02c0.54,-2.31 1.84,-3.73 3.03,-6.06l65.03 -118.09c2.43,-3.99 4.34,-8.18 6.65,-12.18l34.39 -62.37 -57.14 0 -17.96 35.93c-13.89,27.78 -30.76,61.66 -45.46,88.96l-6.7 13.43c-1.07,2.24 -0.9,3.25 -3.26,3.88l-3.9 -142.21 -61.04 0c-0.66,2.85 -1.69,2.71 -1.95,5.84z"/>
   <path class="fil0" d="M404.55 209.74c1.68,1.12 2.69,2.26 3.93,3.87 1.32,1.71 2.4,3.03 2.48,5.91 0.16,6.1 -25.72,78.37 -28.24,85.92 -2.61,7.84 -31.73,90.82 -33.36,97.81l135.06 0 16.88 -48.05 -78.57 0c1.15,-2.4 2.3,-6.58 3.16,-9.18l48.79 -141.47 -68.18 0c-0.8,1.67 -1.15,3.53 -1.95,5.19z"/>
   <path class="fil0" d="M1146.11 323.38l88.31 0c-0.67,0.47 0.2,0.04 -1.26,0.69 -7.64,3.42 -46.61,15.26 -57.65,19.63 -4.73,1.87 -9.93,3.38 -14.56,4.92l-26.18 8.89c-2.21,0.97 -1.35,-0.19 -2.44,2.75 -1.04,2.81 -4.86,12.57 -5.07,15.06l75.08 -24.92c8.68,-2.89 16.87,-5.41 25.49,-8.28l37.51 -12.49c2.59,-0.76 4.01,-1.15 6.49,-1.95 2.72,-0.88 4.27,-0.83 5.37,-3.07l17.6 -49.28 -131.82 0 -8.69 23.78c-1.62,4.66 -8.13,21.3 -8.19,24.28z"/>
   <path class="fil0" d="M250.65 570.78l131.82 0 12.99 -35.71c1.01,-2.54 3.83,-9.45 3.9,-12.34l-88.31 0 59.01 -20.21c9.9,-3.3 19.33,-6.65 29.55,-10.06 2.77,-0.92 4.52,-1.53 7.3,-2.44 5.04,-1.63 4.7,-0.91 5.95,-3.79l5.33 -14.8 -138.07 45.05c-12.45,4.15 -11.09,2.05 -13.96,10.71l-13.56 37.09c-0.77,1.92 -1.74,4.04 -1.95,6.49z"/>
  </g>
 </g>
</svg>
