<svg xmlns="http://www.w3.org/2000/svg" xml:space="preserve" width="200mm" height="200mm" version="1.1" style="shape-rendering:geometricPrecision; text-rendering:geometricPrecision; image-rendering:optimizeQuality; fill-rule:evenodd; clip-rule:evenodd"
viewBox="0 0 1658.71 1658.71"
>
 <g id="Layer_x0020_1">
  <metadata id="CorelCorpID_0Corel-Layer"/>
  <g id="_2987562690304">
   <path fill="#FEFEFE" d="M749.34 891.8l201.13 0 0 -67.08 -22.09 0c0.12,6.14 -1.05,12.23 -3.44,17.89 -2.38,5.67 -5.92,10.76 -10.39,14.97 -4.47,4.21 -9.77,7.44 -15.56,9.47 -5.8,2.04 -11.95,2.84 -18.07,2.36l-30.97 0 0 -100.42 33.73 0 0 -22.19 -134.34 0 0 22.19 33.74 0 0 100.22 -33.83 0 0.09 22.58z"/>
   <polygon fill="#FEFEFE" points="1047.14,891.9 1125.46,891.9 1191.84,769.09 1225.09,769.09 1225.09,746.81 1124.97,746.81 1124.97,769.09 1153.87,769.09 1105.54,858.56 1056.52,769.09 1091.63,769.09 1091.63,746.81 946.34,746.81 946.34,769.09 979.58,769.09 "/>
   <polygon fill="#FEFEFE" points="348.78,746.81 203.48,746.81 203.48,769.09 236.72,769.09 304.28,891.9 382.6,891.9 448.99,769.09 482.33,769.09 482.33,746.81 382.11,746.81 382.11,769.09 411.12,769.09 362.68,858.56 313.66,769.09 348.87,769.09 "/>
   <path fill="#FEFEFE" d="M501.76 819.89c0,42.71 34.42,76.64 103.47,76.64 69.05,0 102.98,-33.93 102.98,-76.64 0,-42.71 -36.1,-75.75 -103.37,-75.75 -67.28,0 -103.08,33.24 -103.08,75.75zm138.98 0c-0.49,26.34 -11.34,53.86 -36.69,53.36 -25.35,-0.49 -35.31,-27.62 -34.91,-54.64 0.4,-27.03 13.9,-52.28 36.89,-51.88 22.99,0.39 35.22,25.15 34.72,53.16z"/>
   <path fill="#FEFEFE" d="M1244.41 819.89c0,42.71 34.33,76.64 103.38,76.64 69.05,0 103.07,-33.93 103.07,-76.64 0,-42.71 -36.2,-75.75 -103.47,-75.75 -67.27,0 -102.98,33.24 -102.98,75.75zm104.26 -52.87c22.98,0 35.11,25.25 34.62,53.16 0,26.34 -11.34,53.86 -36.6,53.36 -25.25,-0.49 -35.41,-27.62 -34.92,-54.64 0.49,-27.04 13.81,-52.68 36.89,-52.28l0 0.4z"/>
   <path fill="#FEFEFE" d="M1511.92 358.26l-84.14 84.14c95.36,147.57 132.73,325.19 104.92,498.67 -27.81,173.48 -118.84,330.52 -255.56,440.87 -136.71,110.35 -309.44,166.2 -484.88,156.79 -175.44,-9.42 -341.19,-83.44 -465.3,-207.79 -124.11,-124.35 -197.82,-290.23 -206.91,-465.69 -9.09,-175.46 47.09,-348.07 157.69,-484.57 110.61,-136.51 267.83,-227.25 441.35,-254.73 173.53,-27.49 351.1,10.22 498.48,105.86l84.14 -84.14c-170.17,-117.91 -378.28,-167.93 -583.44,-140.2 -205.17,27.73 -392.54,131.18 -525.3,290.04 -132.76,158.85 -201.31,361.62 -192.17,568.44 9.14,206.83 95.3,402.76 241.55,549.28 146.25,146.53 342.02,233.06 548.83,242.59 206.81,9.53 409.7,-58.64 568.8,-191.11 159.1,-132.46 262.91,-319.64 291.03,-524.75 28.11,-205.1 -21.51,-413.32 -139.11,-583.7z"/>
   <path fill="#FEFEFE" d="M1246.87 33.06l0 23.18c50.08,27.19 97.42,59.17 141.35,95.48l-118.37 118.37c44.58,34.93 84.78,75.1 119.75,119.65l118.36 -118.36c36.21,43.89 68.28,91.04 95.78,140.85l22.69 0 0 -379.16 -379.56 0z"/>
  </g>
 </g>
</svg>
