<svg width="223" height="73" viewBox="0 0 223 73" fill="none" xmlns="http://www.w3.org/2000/svg">
<g clip-path="url(#clip0_2614_64)">
<path d="M66.856 50.0938C64.8658 50.0938 63.2024 49.4093 61.8667 48.0405C60.5312 46.6715 59.8631 44.9847 59.8631 42.9808C59.8631 40.9897 60.5312 39.3063 61.8667 37.9308C63.2024 36.5553 64.8984 35.8674 66.9545 35.8674C68.146 35.8674 69.1577 36.051 69.9896 36.4175C70.8211 36.7843 71.6036 37.3149 72.3367 38.0092L70.7851 39.7975C69.5543 38.6577 68.2707 38.0878 66.9352 38.0878C65.6254 38.0878 64.5418 38.5595 63.6843 39.5026C62.8262 40.4457 62.3976 41.6053 62.3976 42.9808C62.3976 44.3429 62.8296 45.4991 63.6941 46.4489C64.5582 47.3984 65.6388 47.8734 66.9352 47.8734C67.7208 47.8734 68.4151 47.7259 69.0175 47.4313C69.6198 47.1365 70.2416 46.6879 70.8836 46.0854L72.4352 47.6573C71.6627 48.4695 70.844 49.0788 69.9798 49.4846C69.1159 49.8908 68.0744 50.0938 66.8566 50.0938H66.856Z" fill="#003A4F"/>
<path d="M86.3028 48.011C84.9408 49.3993 83.2189 50.0938 81.1364 50.0938C79.0541 50.0938 77.3386 49.406 75.99 48.0305C74.6412 46.6553 73.9666 44.9719 73.9666 42.9808C73.9666 41.0159 74.6479 39.3389 76.0096 37.9503C77.3715 36.562 79.0935 35.8674 81.176 35.8674C83.2582 35.8674 84.9735 36.5553 86.3223 37.9308C87.6711 39.3063 88.3454 40.9894 88.3454 42.9808C88.3454 44.9454 87.6645 46.6224 86.3028 48.011ZM77.8266 46.4489C78.7103 47.3984 79.8269 47.8734 81.176 47.8734C82.5245 47.8734 83.6344 47.4018 84.5055 46.4586C85.3761 45.5155 85.8117 44.356 85.8117 42.9808C85.8117 41.6184 85.37 40.4622 84.4857 39.5124C83.602 38.5629 82.4855 38.0878 81.1364 38.0878C79.7878 38.0878 78.678 38.5595 77.8068 39.5026C76.9362 40.4457 76.5006 41.6053 76.5006 42.9808C76.5006 44.3429 76.9423 45.4991 77.8266 46.4489Z" fill="#003A4F"/>
<path d="M91.2726 49.8579V36.1035H93.5121L100.878 45.6138V36.1035H103.255V49.8579H101.231L93.6496 40.0726V49.8579H91.2726Z" fill="#003A4F"/>
<path d="M111.603 50.0545C109.416 50.0545 107.504 49.3209 105.867 47.8536L107.321 46.1244C108.696 47.3164 110.143 47.9128 111.662 47.9128C112.409 47.9128 113.001 47.7524 113.44 47.4313C113.879 47.1102 114.098 46.6815 114.098 46.1442C114.098 45.6332 113.889 45.224 113.47 44.9161C113.051 44.6084 112.226 44.3105 110.995 44.0223C109.397 43.6421 108.235 43.1607 107.508 42.578C106.781 41.995 106.418 41.1009 106.418 39.8959C106.418 38.7171 106.856 37.7573 107.734 37.0169C108.611 36.2769 109.737 35.9067 111.113 35.9067C112.998 35.9067 114.661 36.483 116.102 37.6359L114.805 39.4633C113.535 38.5202 112.291 38.0485 111.073 38.0485C110.379 38.0485 109.832 38.2058 109.433 38.5202C109.033 38.8345 108.834 39.234 108.834 39.7185C108.834 40.2557 109.053 40.6717 109.492 40.9662C109.93 41.2611 110.798 41.5657 112.094 41.88C113.613 42.2468 114.73 42.7381 115.444 43.3537C116.157 43.9693 116.514 44.834 116.514 45.9473C116.514 47.2179 116.063 48.2201 115.159 48.9538C114.255 49.6871 113.07 50.0545 111.603 50.0545Z" fill="#003A4F"/>
<path d="M122.446 49.8579V38.3434H118.086V36.1035H129.243V38.3434H124.882V49.8579H122.446Z" fill="#003A4F"/>
<path d="M131.796 49.8579V36.1035H137.925C139.523 36.1035 140.773 36.4996 141.677 37.2921C142.58 38.0849 143.032 39.149 143.032 40.4854C143.032 41.5725 142.738 42.4665 142.148 43.1675C141.559 43.8685 140.76 44.3628 139.752 44.6512L143.464 49.8582H140.616L137.198 45.064H134.212V49.8582H131.796L131.796 49.8579ZM134.213 42.9217H137.748C138.612 42.9217 139.3 42.712 139.811 42.293C140.322 41.8737 140.577 41.3039 140.577 40.5833C140.577 39.85 140.328 39.2865 139.83 38.8938C139.333 38.5008 138.632 38.3044 137.728 38.3044H134.212V42.922L134.213 42.9217Z" fill="#003A4F"/>
<path d="M151.636 50.0742C149.816 50.0742 148.385 49.5568 147.344 48.5219C146.303 47.4873 145.782 45.9871 145.782 44.0225V36.1036H148.199V43.924C148.199 45.1815 148.506 46.1509 149.122 46.832C149.737 47.5132 150.589 47.8535 151.676 47.8535C152.763 47.8535 153.611 47.526 154.219 46.8711C154.828 46.2161 155.133 45.2663 155.133 44.022V36.103H157.549V43.9037C157.549 45.9079 157.025 47.4371 155.978 48.492C154.93 49.5464 153.483 50.0736 151.637 50.0736L151.636 50.0742Z" fill="#003A4F"/>
<path d="M167.252 50.0938C165.262 50.0938 163.599 49.4093 162.263 48.0405C160.928 46.6715 160.259 44.9847 160.259 42.9808C160.259 40.9897 160.928 39.3063 162.263 37.9308C163.599 36.5553 165.295 35.8674 167.351 35.8674C168.542 35.8674 169.554 36.051 170.386 36.4175C171.217 36.7843 172 37.3149 172.733 38.0092L171.181 39.7975C169.951 38.6577 168.667 38.0878 167.331 38.0878C166.022 38.0878 164.938 38.5595 164.081 39.5026C163.223 40.4457 162.794 41.6053 162.794 42.9808C162.794 44.3429 163.226 45.4991 164.09 46.4489C164.955 47.3984 166.035 47.8734 167.331 47.8734C168.117 47.8734 168.811 47.7259 169.414 47.4313C170.016 47.1365 170.638 46.6879 171.28 46.0854L172.831 47.6573C172.059 48.4695 171.24 49.0788 170.376 49.4846C169.512 49.8908 168.471 50.0938 167.253 50.0938H167.252Z" fill="#003A4F"/>
<path d="M178.744 49.8579V38.3434H174.383V36.1035H185.54V38.3434H181.179V49.8579H178.744Z" fill="#003A4F"/>
<path d="M188.231 49.8579V36.1035H190.647V49.8579H188.231Z" fill="#003A4F"/>
<path d="M206.048 48.011C204.686 49.3993 202.964 50.0938 200.882 50.0938C198.799 50.0938 197.084 49.406 195.735 48.0305C194.386 46.6553 193.712 44.9719 193.712 42.9808C193.712 41.0159 194.393 39.3389 195.755 37.9503C197.117 36.562 198.839 35.8674 200.921 35.8674C203.003 35.8674 204.719 36.5553 206.067 37.9308C207.416 39.3063 208.091 40.9894 208.091 42.9808C208.091 44.9454 207.41 46.6224 206.048 48.011ZM197.572 46.4489C198.455 47.3984 199.572 47.8734 200.921 47.8734C202.27 47.8734 203.38 47.4018 204.251 46.4586C205.121 45.5155 205.557 44.356 205.557 42.9808C205.557 41.6184 205.115 40.4622 204.231 39.5124C203.347 38.5629 202.231 38.0878 200.882 38.0878C199.533 38.0878 198.423 38.5595 197.552 39.5026C196.681 40.4457 196.246 41.6053 196.246 42.9808C196.246 44.3429 196.687 45.4991 197.572 46.4489Z" fill="#003A4F"/>
<path d="M211.017 49.8579V36.1035H213.257L220.623 45.6138V36.1035H223V49.8579H220.976L213.394 40.0726V49.8579H211.017Z" fill="#003A4F"/>
<path d="M60.4718 69.6998V55.9451H70.6666V58.1063H62.8881V61.6829H69.7829V63.8442H62.8881V67.5382H70.7651V69.6998H60.4718Z" fill="#003A4F"/>
<path d="M72.5919 69.6998L77.601 62.7044L72.7885 55.9451H75.6367L79.0547 60.8771L82.4922 55.9451H85.2618L80.4688 62.6651L85.4581 69.6998H82.6098L78.9956 64.4927L75.3615 69.6998H72.5919Z" fill="#003A4F"/>
<path d="M87.9528 69.6997V55.9453H93.3744C94.9719 55.9453 96.2421 56.3646 97.1852 57.2028C98.1281 58.0413 98.5993 59.1677 98.5993 60.5825C98.5993 62.0628 98.0787 63.2154 97.0377 64.0408C95.9967 64.8662 94.6839 65.2785 93.0994 65.2785H90.3688V69.6997H87.9525H87.9528ZM90.3691 63.0974H93.178C94.0815 63.0974 94.8018 62.8681 95.3386 62.4098C95.8757 61.9513 96.144 61.3487 96.144 60.602C96.144 59.8162 95.8791 59.2103 95.3487 58.7847C94.818 58.359 94.0946 58.1462 93.178 58.1462H90.3691V63.0974Z" fill="#003A4F"/>
<path d="M112.802 67.8525C111.44 69.2408 109.718 69.9354 107.635 69.9354C105.553 69.9354 103.837 69.2475 102.489 67.872C101.14 66.4968 100.465 64.8134 100.465 62.8223C100.465 60.8574 101.147 59.1804 102.508 57.7919C103.87 56.4036 105.592 55.709 107.675 55.709C109.757 55.709 111.472 56.3969 112.821 57.7723C114.17 59.1478 114.844 60.8309 114.844 62.8223C114.844 64.7869 114.163 66.4639 112.802 67.8525ZM104.325 66.2904C105.209 67.24 106.326 67.715 107.675 67.715C109.023 67.715 110.133 67.2433 111.004 66.3002C111.875 65.3571 112.31 64.1975 112.31 62.8223C112.31 61.46 111.869 60.3037 110.985 59.3539C110.101 58.4044 108.984 57.9294 107.635 57.9294C106.287 57.9294 105.177 58.4011 104.306 59.3442C103.435 60.2873 102.999 61.4469 102.999 62.8223C102.999 64.1844 103.441 65.3406 104.325 66.2904Z" fill="#003A4F"/>
<path fill-rule="evenodd" clip-rule="evenodd" d="M7.90677 17.8409L12.9469 20.3929C15.1083 17.6411 17.7086 15.1664 20.6353 13.0575L17.3372 8.83936C13.7257 11.4059 10.5353 14.4453 7.90677 17.8411V17.8409Z" fill="#FFB121"/>
<path fill-rule="evenodd" clip-rule="evenodd" d="M6.11649 41.2904C6.01053 39.7292 6.03869 38.1292 6.21102 36.4996C6.38336 34.8708 6.69317 33.2714 7.12931 31.7098L1.33463 30.6228C0.784719 32.5369 0.394317 34.4993 0.182942 36.4993L0.182663 36.5001C-0.0289903 38.5013 -0.0535299 40.4639 0.0917554 42.3783L6.11649 41.291V41.2904Z" fill="#FFB121"/>
<path fill-rule="evenodd" clip-rule="evenodd" d="M8.18562 36.4995C8.02611 38.0078 7.99767 39.4878 8.09053 40.935L14.9234 39.7023C14.8718 38.6552 14.9003 37.5866 15.0151 36.4995C15.1298 35.4139 15.3277 34.3438 15.6005 33.2967L9.02777 32.0654C8.62956 33.5112 8.34485 34.9921 8.18534 36.4995H8.18562Z" fill="#FFB121"/>
<path fill-rule="evenodd" clip-rule="evenodd" d="M11.4879 64.1606L15.6777 59.9422C13.197 57.8339 11.1198 55.36 9.54059 52.606L3.96091 55.16C5.87137 58.5553 8.41902 61.5941 11.4879 64.1609V64.1606Z" fill="#FFB121"/>
<path fill-rule="evenodd" clip-rule="evenodd" d="M24.5019 34.9667L17.6077 33.6738C17.3732 34.598 17.2019 35.5425 17.1002 36.4995C16.9992 37.458 16.9713 38.4022 17.0098 39.3263L24.1779 38.0334C24.1734 37.5294 24.1988 37.0178 24.2537 36.4995C24.3084 35.9821 24.3909 35.4711 24.5019 34.9667Z" fill="#FFB121"/>
<path fill-rule="evenodd" clip-rule="evenodd" d="M23.2526 52.3168L28.2372 47.2986C27.4887 46.5859 26.8298 45.8001 26.2707 44.9502L19.6313 47.9885C20.6046 49.5887 21.8243 51.0443 23.2526 52.3168Z" fill="#FFB121"/>
<path fill-rule="evenodd" clip-rule="evenodd" d="M27.6396 64.3336C30.6284 65.2633 33.8654 65.7969 37.2789 65.865L37.7262 59.7701C35.2728 59.6911 32.9382 59.3084 30.7637 58.6641L27.6396 64.3336Z" fill="#FFB121"/>
<path fill-rule="evenodd" clip-rule="evenodd" d="M46.8323 58.6641C44.522 59.3084 42.1068 59.6909 39.6367 59.7701L38.7945 65.865C42.2239 65.7966 45.5727 65.2633 48.7595 64.3336L46.8321 58.6641H46.8323Z" fill="#FFB121"/>
<path fill-rule="evenodd" clip-rule="evenodd" d="M26.7372 65.9705L23.981 70.9686C27.9227 72.2369 32.2148 72.9482 36.7555 73.0001L37.1501 67.6246C33.4583 67.5602 29.9608 66.9833 26.7372 65.9705Z" fill="#FFB121"/>
<path fill-rule="evenodd" clip-rule="evenodd" d="M49.3158 65.9705C45.8767 66.9836 42.2571 67.5604 38.5508 67.6246L37.8102 73.0001C42.3625 72.9482 46.8047 72.2369 51.0135 70.9686L49.3161 65.9705H49.3158Z" fill="#FFB121"/>
<path fill-rule="evenodd" clip-rule="evenodd" d="M7.50271 30.4797C8.54536 27.2741 10.1223 24.2459 12.1318 21.476L7.29328 18.6533C4.80224 22.0377 2.8639 25.7561 1.61349 29.6984L7.50243 30.4797H7.50271Z" fill="#FFB121"/>
<path fill-rule="evenodd" clip-rule="evenodd" d="M0.17569 43.3018C0.592025 47.2447 1.74399 50.9613 3.51948 54.3472L8.95471 51.5245C7.53086 48.7546 6.59445 45.7261 6.22971 42.5205L0.17569 43.3018Z" fill="#FFB121"/>
<path fill-rule="evenodd" clip-rule="evenodd" d="M16.6668 60.7449L12.2316 64.7645C15.3626 67.2404 19.0014 69.2381 23.0262 70.6468L25.4651 65.5419C22.1991 64.3723 19.2376 62.7452 16.6665 60.7449H16.6668Z" fill="#FFB121"/>
<path fill-rule="evenodd" clip-rule="evenodd" d="M48.2183 56.311C50.2709 55.5841 52.2168 54.6284 54.0082 53.4811L49.7425 48.7014C48.7528 49.2984 47.7007 49.8155 46.5998 50.2367L48.2183 56.3107V56.311Z" fill="#FFB121"/>
<path fill-rule="evenodd" clip-rule="evenodd" d="M25.2453 43.0647C24.8452 42.1506 24.551 41.1863 24.3739 40.1804L17.1724 41.1087C17.4356 42.983 17.983 44.766 18.7806 46.4215L25.2456 43.0644L25.2453 43.0647Z" fill="#FFB121"/>
<path fill-rule="evenodd" clip-rule="evenodd" d="M38.3313 51.513C37.1721 51.4385 36.0567 51.2586 34.9973 50.9841L31.7193 56.9309C33.6426 57.491 35.7023 57.8266 37.862 57.9067L38.3313 51.513Z" fill="#FFB121"/>
<path fill-rule="evenodd" clip-rule="evenodd" d="M32.7781 50.2372C31.7678 49.816 30.8239 49.2988 29.9608 48.7019L24.6857 53.4816C26.2331 54.6289 27.9768 55.5846 29.8763 56.3115L32.7781 50.2375V50.2372Z" fill="#FFB121"/>
<path fill-rule="evenodd" clip-rule="evenodd" d="M39.8949 57.9067C42.0717 57.8269 44.2019 57.4913 46.2451 56.9309L44.2247 50.9841C43.1057 51.2583 41.952 51.4385 40.7772 51.513L39.8949 57.9067Z" fill="#FFB121"/>
<path fill-rule="evenodd" clip-rule="evenodd" d="M29.0303 58.081C26.8708 57.2668 24.8934 56.1839 23.1472 54.874L18.1202 59.4278C20.5073 61.2733 23.2473 62.7793 26.264 63.8705L29.0303 58.081Z" fill="#FFB121"/>
<path fill-rule="evenodd" clip-rule="evenodd" d="M16.1063 31.6196C16.8411 29.4913 17.8918 27.4695 19.2014 25.5997L13.7154 22.3994C11.8635 24.9682 10.4064 27.7708 9.43127 30.7351L16.106 31.6193L16.1063 31.6196Z" fill="#FFB121"/>
<path fill-rule="evenodd" clip-rule="evenodd" d="M8.2124 42.2647C8.56098 45.2287 9.42516 48.0313 10.7338 50.6001L16.8966 47.4C15.9822 45.5303 15.3593 43.509 15.0748 41.3801L8.21268 42.2644L8.2124 42.2647Z" fill="#FFB121"/>
<path fill-rule="evenodd" clip-rule="evenodd" d="M21.7995 53.7798C20.1707 52.344 18.7889 50.693 17.6975 48.8743L11.3682 51.77C12.8395 54.3142 14.7614 56.6024 17.0514 58.5592L21.7995 53.7798Z" fill="#FFB121"/>
<path fill-rule="evenodd" clip-rule="evenodd" d="M49.5055 22.7613C50.5174 23.1839 51.4591 23.7019 52.3225 24.2985L57.599 19.5183C56.05 18.3721 54.3066 17.4159 52.4073 16.689L49.5055 22.761V22.7613Z" fill="#003A4F"/>
<path fill-rule="evenodd" clip-rule="evenodd" d="M42.389 15.0933C40.2119 15.173 38.082 15.5089 36.0402 16.0687L38.0605 22.0152C39.1779 21.741 40.3316 21.5611 41.5061 21.4869L42.3887 15.0933H42.389Z" fill="#003A4F"/>
<path fill-rule="evenodd" clip-rule="evenodd" d="M34.0656 16.6892C32.0124 17.4161 30.0668 18.3724 28.2768 19.5185L32.5414 24.2988C33.5308 23.7021 34.584 23.1841 35.6836 22.7615L34.0656 16.6895V16.6892Z" fill="#003A4F"/>
<path fill-rule="evenodd" clip-rule="evenodd" d="M43.952 21.4869C45.1115 21.5611 46.2266 21.7408 47.2874 22.0152L50.566 16.0687C48.6413 15.5092 46.5814 15.1733 44.4216 15.0933L43.952 21.4869Z" fill="#003A4F"/>
<path fill-rule="evenodd" clip-rule="evenodd" d="M20.8787 26.5786C19.7306 28.2339 18.8068 30.0155 18.1467 31.8911L25.1519 32.8195C25.5421 31.8139 26.0398 30.8498 26.6335 29.9355L20.8787 26.5784V26.5786Z" fill="#003A4F"/>
<path fill-rule="evenodd" clip-rule="evenodd" d="M30.5208 25.7008L26.5972 20.6826C24.8998 21.9557 23.3725 23.411 22.0605 25.0107L28.059 28.0492C28.7963 27.1999 29.6215 26.4143 30.5208 25.7008Z" fill="#003A4F"/>
<path fill-rule="evenodd" clip-rule="evenodd" d="M65.6168 12.2549L70.0529 8.2356C66.921 5.76025 63.2836 3.76134 59.2571 2.35352L56.8182 7.45818C60.0845 8.62807 63.0457 10.2549 65.6171 12.2549H65.6168Z" fill="#003A4F"/>
<path fill-rule="evenodd" clip-rule="evenodd" d="M55.5478 7.02966L58.302 2.03155C54.3626 0.760679 50.0699 0.0518835 45.5278 0L45.1335 5.3758C48.8256 5.43996 52.3225 6.01626 55.5478 7.02966Z" fill="#003A4F"/>
<path fill-rule="evenodd" clip-rule="evenodd" d="M32.9694 7.02966C36.4069 6.01598 40.0268 5.43968 43.732 5.3758L44.4735 0C39.9225 0.0518835 35.4797 0.760679 31.2698 2.03155L32.9692 7.02966H32.9694Z" fill="#003A4F"/>
<path fill-rule="evenodd" clip-rule="evenodd" d="M18.2086 8.23536L21.7939 12.2547C24.7877 10.2546 28.0933 8.62755 31.6064 7.45794L30.2472 2.35327C25.9246 3.7611 21.8633 5.76001 18.2086 8.23536Z" fill="#003A4F"/>
<path fill-rule="evenodd" clip-rule="evenodd" d="M65.1115 31.8911C64.848 30.0155 64.3006 28.2339 63.503 26.5786L57.038 29.9357C57.4384 30.8498 57.7337 31.8141 57.9097 32.8197L65.1112 31.8914L65.1115 31.8911Z" fill="#003A4F"/>
<path fill-rule="evenodd" clip-rule="evenodd" d="M59.0321 20.6826L54.0478 25.7008C54.7943 26.4143 55.4552 27.1999 56.0129 28.0492L62.6525 25.0107C61.6801 23.4107 60.4607 21.9554 59.0321 20.6826Z" fill="#003A4F"/>
<path fill-rule="evenodd" clip-rule="evenodd" d="M60.4838 19.2207C62.1129 20.6556 63.4963 22.3061 64.5858 24.1256L70.9159 21.2296C69.4441 18.6857 67.5244 16.3978 65.2317 14.4404L60.4838 19.2207Z" fill="#003A4F"/>
<path fill-rule="evenodd" clip-rule="evenodd" d="M14.5974 21.2299L20.3146 24.1259C21.7908 22.3066 23.5214 20.6558 25.4537 19.2209L21.7167 14.4407C19.0126 16.398 16.6071 18.6859 14.5974 21.2299Z" fill="#003A4F"/>
<path fill-rule="evenodd" clip-rule="evenodd" d="M53.2528 14.9192C55.4139 15.7337 57.3899 16.816 59.1358 18.1262L64.1628 13.5708C61.7758 11.727 59.0377 10.221 56.0196 9.12891L53.2528 14.9192Z" fill="#003A4F"/>
<path fill-rule="evenodd" clip-rule="evenodd" d="M22.969 13.5706L27.0326 18.126C29.0557 16.8158 31.262 15.7335 33.5935 14.919L32.0517 9.12866C28.8044 10.2207 25.7459 11.7265 22.969 13.5706Z" fill="#003A4F"/>
<path fill-rule="evenodd" clip-rule="evenodd" d="M54.6451 8.66714C51.6549 7.73687 48.4193 7.20408 45.0047 7.13574L44.5574 13.2304C47.0111 13.309 49.3454 13.6923 51.5199 14.3361L54.6451 8.66714Z" fill="#003A4F"/>
<path fill-rule="evenodd" clip-rule="evenodd" d="M35.4504 14.3361C37.7605 13.6923 40.1765 13.3093 42.6467 13.2304L43.4882 7.13574C40.0614 7.20436 36.7109 7.73687 33.526 8.66714L35.4507 14.3361H35.4504Z" fill="#003A4F"/>
</g>
<defs>
<clipPath id="clip0_2614_64">
<rect width="223" height="73" fill="white"/>
</clipPath>
</defs>
</svg>
