<svg width="674" height="685" viewBox="0 0 674 685" fill="none" xmlns="http://www.w3.org/2000/svg">
<path d="M1.50803 2.84104L169.75 2.25252L329.818 1.70266C419.314 1.39461 498.894 25.1661 575.903 102.545C591.629 118.348 602.174 129.478 615.375 148.599C655.49 206.7 672.998 275.309 670.114 349.987L670.113 350.019L670.113 350.052L671.628 682.734L529.477 683.232L528.55 418.301L528.55 418.298L528.466 353.472C528.387 293.539 513.454 238.626 477.166 202.063L476.102 203.119L477.166 202.062C451.411 176.116 425.594 163.94 387.569 155.143C354.451 147.478 318.693 145.483 283.34 145.607L2.01087 146.591L1.50803 2.84104Z" stroke="#FEFEFE" stroke-width="3"/>
</svg>
