<svg xmlns="http://www.w3.org/2000/svg" xml:space="preserve" width="3.23625in" height="0.472441in" version="1.1"
     style="shape-rendering:geometricPrecision; text-rendering:geometricPrecision; image-rendering:optimizeQuality; fill-rule:evenodd; clip-rule:evenodd"
     viewBox="0 0 3940.55 575.26">
 <g id="Layer_x0020_1">
  <metadata id="CorelCorpID_0Corel-Layer"/>
     <g id="_1553913033840">
   <path d="M638.27 521.09l-10.23 3.73c-17.1,-56.59 -43.97,-104.73 -67.38,-160.42 5.84,-8.75 10.22,-16.66 15.97,-26.15 19.77,53.84 61.49,182.88 61.63,182.84l0 0z"/>
         <path d="M669.96 0c1.17,31.11 1.3,64.52 -0.15,99.92 -1.64,40.34 -5.06,77.87 -9.49,112.35 -5.26,-9.91 -10.47,-19.81 -15.73,-29.77 -3.55,10.71 -7.97,21.3 -13.17,32.32 -0.41,0.88 -0.82,1.83 -1.24,2.73 -1.47,3.03 -2.88,5.99 -4.38,9.02 -17.95,37.08 -37.92,74.27 -60.52,109.92 -4.32,6.88 -8.76,13.65 -13.33,20.36l0 0.06c-3.91,5.82 -7.95,11.58 -11.99,17.28 -33.28,46.74 -71.75,89.51 -116.6,124.08 -51.09,39.45 -112.9,70.45 -177.78,76.74l-0.35 0.02c-35.8,1.87 -59.37,-15.06 -74.98,-38.11 -22.56,-33.33 -28.29,-79.52 -29.77,-100.21 -0.52,-6.57 -0.5,-10.55 -0.5,-10.55 2.05,39.1 15.6,70.43 40.99,84.59 4.05,2.27 21.56,12.17 54.43,6 55.7,-10.37 109.96,-51.32 150.92,-89.51 56.82,-53.3 96.25,-109.88 96.25,-109.88 33.93,-48.61 62.83,-100.59 86.72,-154.84 1.6,-3.67 3.25,-7.46 4.86,-11.24 -10.84,2.83 -21.68,5.59 -32.53,8.36 21.32,-27.84 43.45,-56.01 66.35,-84.43 20.74,-25.73 41.41,-50.81 61.98,-75.19l0.01 -0.01z"/>
         <path d="M197.97 575.26c-80.87,-1.79 -168.31,-48.16 -188.69,-119 -84.13,-292.03 429.24,-621.63 521.04,-249.97 -1.57,2.67 -26.25,41.2 -26.25,41.23 -45.71,-76.88 -91.95,-130.68 -145.62,-130.68 -42.54,0 -79.96,14.3 -111.44,40.27 -33.09,27.32 -60.58,55.14 -83.67,91.12 -49.02,76.23 -97.56,306.44 34.64,327.03l-0.01 0z"/>
         <path d="M869.34 291.93l109.59 241.21 -33.04 0 -26.95 -59.37 -98.63 0 -26.83 59.37 -32.98 0 108.84 -241.21 -0.01 0zm0.12 72.94l-37.22 82.4 74.62 0 -37.4 -82.4zm143.45 -63.97l31.74 0 0 200.51 75.43 0 0 31.74 -107.17 0 0 -232.25 0 0zm146.3 0l46.67 0c26.39,0 47.67,6.22 63.85,18.6 16.18,12.39 24.27,28.44 24.27,48.29 0,19.92 -8.52,36.59 -25.52,50.1 -17.05,13.45 -42.88,20.04 -77.54,19.67l0 95.59 -31.74 0 0 -232.25 0.01 0zm31.74 27.63l0 81.4c23.71,-0.25 41.27,-3.61 52.71,-10.14 11.39,-6.47 17.11,-16.93 17.11,-31.3 0,-10.83 -4.3,-20.16 -12.94,-28.07 -8.65,-7.91 -27.63,-11.89 -56.88,-11.89l0.01 0zm148.61 -27.63l31.74 0 0 88.86 110.53 0 0 -88.86 31.74 0 0 232.25 -31.74 0 0 -111.64 -110.53 0 0 111.64 -31.74 0 0 -232.25zm311.21 -8.96l109.59 241.21 -33.04 0 -26.95 -59.37 -98.64 0 -26.82 59.37 -32.98 0 108.84 -241.21zm0.12 72.94l-37.22 82.4 74.62 0 -37.4 -82.4zm429.39 -56.14l0 35.84c-25.01,-12.2 -48.11,-18.3 -69.14,-18.3 -26.95,0 -49.73,8.72 -68.21,26.07 -18.48,17.42 -27.69,38.78 -27.69,64.11 0,25.82 9.46,47.36 28.38,64.66 18.86,17.24 42.57,25.88 71.01,25.88 20.66,0 42.57,-6.47 65.65,-19.41l0 36.21c-21.03,11.2 -43.81,16.81 -68.39,16.81 -36.04,0 -66.77,-12.13 -92.3,-36.47 -25.58,-24.34 -38.33,-53.71 -38.33,-88.06 0,-33.73 12.57,-62.61 37.66,-86.63 25.15,-24.03 55.39,-36.04 90.8,-36.04 22.72,0 46.24,5.11 70.57,15.31l-0.02 0.01zm28.01 106.66c0,-33.54 12.63,-62.23 37.9,-86.13 25.33,-23.9 55.7,-35.84 91.17,-35.84 34.66,0 64.48,12.08 89.55,36.16 25.01,24.08 37.52,52.65 37.52,85.82 0,35.04 -12.39,64.66 -37.08,88.87 -24.77,24.2 -55.08,36.34 -91.05,36.34 -35.53,0 -65.71,-12.2 -90.6,-36.59 -24.96,-24.4 -37.4,-53.95 -37.4,-88.62l0 0zm222.54 1.8c0,-25.58 -9.21,-47.1 -27.69,-64.66 -18.48,-17.49 -41.26,-26.26 -68.27,-26.26 -25.64,0 -47.6,8.9 -65.9,26.76 -18.3,17.79 -27.44,39.21 -27.44,64.17 0,25.33 9.39,46.73 28.19,64.28 18.8,17.49 41.76,26.26 69.02,26.26 25.09,0 46.67,-8.96 64.86,-26.83 18.17,-17.85 27.26,-39.14 27.26,-63.73l-0.01 0zm73.19 -125.65l171.75 176.36 0 -167.04 31.74 0 0 243.07 -171.75 -175.81 0 164.98 -31.74 0 0 -241.58zm392.8 35.03l-25.7 20.59c-6.78,-7.04 -12.94,-12.26 -18.48,-15.74 -5.48,-3.43 -13.44,-5.16 -23.89,-5.16 -11.39,0 -20.6,2.55 -27.69,7.71 -7.1,5.11 -10.64,11.76 -10.64,19.85 0,6.97 3.12,13.2 9.28,18.54 6.22,5.41 16.74,11.27 31.68,17.74 14.87,6.41 26.51,12.38 34.78,17.85 8.34,5.54 15.12,11.64 20.47,18.3 5.35,6.73 9.27,13.75 11.89,21.16 2.61,7.34 3.92,15.19 3.92,23.46 0,19.3 -7.03,35.72 -21.03,49.29 -14.07,13.63 -31.05,20.42 -51.03,20.42 -19.41,0 -36.59,-5.29 -51.52,-15.94 -14.88,-10.63 -26.33,-26.63 -34.35,-47.85l31.74 -9.02c11.51,26.14 29.13,39.21 52.83,39.21 11.51,0 21.1,-3.42 28.69,-10.27 7.65,-6.9 11.46,-15.56 11.46,-26.02 0,-6.29 -1.99,-12.57 -5.98,-18.85 -3.98,-6.35 -8.9,-11.58 -14.81,-15.62 -5.92,-4.1 -15.31,-8.9 -28.25,-14.32 -12.94,-5.48 -22.9,-10.39 -29.93,-14.87 -7.03,-4.42 -13.07,-9.65 -18.23,-15.81 -5.11,-6.1 -8.84,-12.19 -11.27,-18.3 -2.37,-6.04 -3.55,-12.56 -3.55,-19.47 0,-16.61 6.66,-30.81 20.04,-42.51 13.37,-11.7 29.63,-17.55 48.66,-17.55 12.7,0 25.51,2.74 38.52,8.21 12.94,5.48 23.77,13.75 32.43,24.96l-0.03 0.02zm43.69 -25.7l31.74 0 0 142.75c0,21.1 5.11,37.46 15.25,49.04 10.14,11.51 24.52,17.3 43.12,17.3 18.42,0 32.79,-5.29 43.06,-15.94 10.27,-10.63 15.43,-25.64 15.43,-44.93l0 -148.23 31.74 0 0 145.99c0,28.44 -8.09,51.15 -24.34,68.21 -16.24,16.98 -37.84,25.51 -64.84,25.51 -27.57,0 -49.66,-8.65 -66.28,-25.88 -16.61,-17.24 -24.89,-42.69 -24.89,-76.36l0 -137.47 0.01 0.01zm231.5 0l31.74 0 0 200.51 75.43 0 0 31.74 -107.17 0 0 -232.25 0 0zm113.5 0l142.63 0 0 31.74 -55.63 0 0 200.51 -31.74 0 0 -200.51 -55.27 0 0 -31.74 0 0zm176.99 0l31.74 0 0 232.25 -31.74 0 0 -232.25zm80.71 -9.33l171.75 176.36 0 -167.04 31.74 0 0 243.07 -171.75 -175.81 0 164.98 -31.74 0 0 -241.58zm475.7 46.3l-23.53 23.15c-23.77,-23.15 -51.28,-34.72 -82.59,-34.72 -27.32,0 -50.1,8.78 -68.27,26.26 -18.17,17.49 -27.26,39.33 -27.26,65.59 0,22.9 8.84,43.63 26.45,61.98 17.61,18.42 41.94,27.63 72.94,27.63 46.49,0 75.73,-20.16 87.68,-60.49l-63.1 0 0 -31.74 99.32 0c0,15.86 -1.06,28.56 -3.18,38.02 -2.17,9.47 -6.53,19.86 -13.25,31.25 -6.72,11.38 -15.62,21.6 -26.76,30.61 -11.14,9.02 -23.02,15.5 -35.78,19.41 -12.7,3.86 -27.87,5.79 -45.55,5.79 -40.14,0 -72.19,-12.57 -96.09,-37.78 -23.96,-25.21 -35.9,-53.95 -35.9,-86.38 0,-34.1 12.25,-63.1 36.71,-87.07 24.46,-23.96 54.15,-35.97 88.93,-35.97 20.73,0 39.59,3.11 56.69,9.39 17.12,6.22 34.6,17.93 52.53,35.03l0.01 0.03z"/>
  </g>
 </g>
</svg>
