<svg xmlns="http://www.w3.org/2000/svg" xml:space="preserve" width="1.17833in" height="1.06299in" version="1.1" style="shape-rendering:geometricPrecision; text-rendering:geometricPrecision; image-rendering:optimizeQuality; fill-rule:evenodd; clip-rule:evenodd"
viewBox="0 0 1045.79 943.42">

 <g id="Layer_x0020_1">
  <metadata id="CorelCorpID_0Corel-Layer"/>
  <g id="_1554124245616">
   <path d="M857.12 575.94l-11.29 4.13c-18.9,-62.56 -48.58,-115.74 -74.45,-177.3 6.45,-9.69 11.29,-18.42 17.66,-28.91 21.87,59.51 67.97,202.12 68.13,202.09l-0.04 0z"/>
   <path d="M892.12 0c1.28,34.36 1.44,71.33 -0.16,110.45 -1.8,44.58 -5.61,86.06 -10.49,124.15 -5.81,-10.93 -11.57,-21.91 -17.38,-32.88 -3.92,11.85 -8.81,23.55 -14.54,35.72 -0.44,0.96 -0.92,2.04 -1.36,3 -1.64,3.36 -3.17,6.61 -4.85,9.97 -19.86,40.97 -41.93,82.1 -66.88,121.51 -4.77,7.61 -9.69,15.1 -14.74,22.51l0 0.08c-4.33,6.4 -8.77,12.81 -13.25,19.1 -36.81,51.66 -79.3,98.96 -128.88,137.17 -56.47,43.61 -124.79,77.89 -196.48,84.82l-0.4 0.04c-39.57,2.08 -65.6,-16.62 -82.86,-42.13 -24.95,-36.84 -31.24,-87.91 -32.88,-110.78 -0.56,-7.25 -0.56,-11.65 -0.56,-11.65 2.29,43.21 17.26,77.85 45.29,93.51 4.49,2.52 23.83,13.46 60.16,6.61 61.55,-11.45 121.55,-56.71 166.8,-98.92 62.8,-58.91 106.37,-121.47 106.37,-121.47 37.49,-53.74 69.44,-111.17 95.84,-171.13 1.76,-4.04 3.6,-8.25 5.36,-12.41 -11.97,3.12 -23.99,6.17 -35.96,9.25 23.59,-30.76 48.02,-61.87 73.33,-93.31 22.91,-28.44 45.78,-56.15 68.52,-83.1l0 -0.12z"/>
   <path d="M370.44 635.81c-89.39,-1.96 -186.03,-53.22 -208.57,-131.52 -92.99,-322.79 474.42,-687.08 575.9,-276.29 -1.72,2.96 -28.99,45.53 -28.99,45.57 -50.54,-84.99 -101.65,-144.42 -160.96,-144.42 -47.02,0 -88.39,15.82 -123.19,44.53 -36.56,30.2 -66.96,60.96 -92.47,100.72 -54.19,84.26 -107.81,338.69 38.29,361.44l0 -0.04z"/>
   <path d="M35.76 860.56l36.05 79.34 -10.85 0 -8.85 -19.55 -32.44 0 -8.81 19.55 -10.85 0 35.8 -79.34 -0.04 0zm0.04 23.99l-12.26 27.11 24.55 0 -12.29 -27.11zm47.17 -21.02l10.45 0 0 65.96 24.79 0 0 10.45 -35.25 0 0 -76.37 0 -0.04zm48.1 0l15.34 0c8.69,0 15.66,2.04 20.99,6.13 5.33,4.08 7.97,9.37 7.97,15.9 0,6.57 -2.8,12.02 -8.41,16.46 -5.6,4.41 -14.1,6.61 -25.51,6.49l0 31.44 -10.45 0 0 -76.37 0.08 -0.04zm10.45 9.09l0 26.75c7.81,-0.08 13.58,-1.2 17.34,-3.33 3.77,-2.12 5.65,-5.57 5.65,-10.29 0,-3.56 -1.4,-6.65 -4.25,-9.21 -2.84,-2.61 -9.09,-3.93 -18.7,-3.93l-0.04 0zm48.86 -9.09l10.45 0 0 29.24 36.36 0 0 -29.24 10.45 0 0 76.37 -10.45 0 0 -36.73 -36.36 0 0 36.73 -10.45 0 0 -76.37zm102.37 -2.97l36.04 79.34 -10.85 0 -8.85 -19.55 -32.44 0 -8.81 19.55 -10.85 0 35.8 -79.34 -0.04 0zm0.04 23.99l-12.25 27.11 24.55 0 -12.3 -27.11zm141.21 -18.46l0 11.78c-8.21,-4 -15.82,-6.01 -22.75,-6.01 -8.85,0 -16.34,2.88 -22.43,8.57 -6.09,5.73 -9.09,12.74 -9.09,21.07 0,8.49 3.12,15.58 9.33,21.27 6.21,5.69 14.02,8.53 23.35,8.53 6.81,0 14.02,-2.12 21.59,-6.37l0 11.9c-6.93,3.68 -14.42,5.52 -22.51,5.52 -11.86,0 -21.95,-4 -30.36,-11.97 -8.41,-8.01 -12.62,-17.66 -12.62,-28.95 0,-11.09 4.13,-20.59 12.38,-28.48 8.25,-7.89 18.22,-11.85 29.88,-11.85 7.49,0 15.22,1.68 23.19,5.05l0.04 -0.04zm9.21 35.08c0,-11.02 4.17,-20.47 12.46,-28.32 8.33,-7.85 18.3,-11.78 29.99,-11.78 11.42,0 21.19,3.97 29.43,11.9 8.21,7.93 12.33,17.3 12.33,28.23 0,11.53 -4.08,21.27 -12.22,29.24 -8.13,7.97 -18.1,11.94 -29.96,11.94 -11.69,0 -21.63,-4 -29.79,-12.02 -8.21,-8.01 -12.3,-17.74 -12.3,-29.16l0.04 -0.04zm73.17 0.6c0,-8.41 -3.04,-15.5 -9.09,-21.27 -6.09,-5.77 -13.58,-8.65 -22.47,-8.65 -8.45,0 -15.66,2.92 -21.67,8.81 -6.01,5.85 -9.01,12.9 -9.01,21.1 0,8.33 3.09,15.38 9.25,21.15 6.17,5.77 13.74,8.65 22.71,8.65 8.25,0 15.34,-2.97 21.35,-8.81 5.97,-5.89 8.97,-12.86 8.97,-20.94l-0.04 -0.04zm24.07 -41.33l56.47 57.99 0 -54.95 10.45 0 0 79.94 -56.47 -57.83 0 54.26 -10.45 0 0 -79.46 0 0.04zm129.2 11.53l-8.45 6.77c-2.24,-2.32 -4.25,-4.05 -6.09,-5.17 -1.8,-1.12 -4.41,-1.68 -7.85,-1.68 -3.77,0 -6.77,0.84 -9.09,2.52 -2.32,1.68 -3.48,3.89 -3.48,6.53 0,2.28 1.04,4.33 3.04,6.09 2.04,1.76 5.49,3.69 10.41,5.85 4.88,2.12 8.73,4.08 11.45,5.89 2.72,1.8 4.97,3.85 6.73,6.01 1.76,2.2 3.04,4.53 3.93,6.97 0.84,2.4 1.28,5 1.28,7.73 0,6.33 -2.32,11.73 -6.93,16.22 -4.65,4.49 -10.21,6.73 -16.78,6.73 -6.37,0 -12.02,-1.72 -16.94,-5.24 -4.89,-3.48 -8.65,-8.77 -11.3,-15.74l10.45 -2.97c3.81,8.61 9.57,12.9 17.38,12.9 3.81,0 6.93,-1.12 9.45,-3.36 2.52,-2.28 3.77,-5.13 3.77,-8.57 0,-2.08 -0.64,-4.12 -1.96,-6.21 -1.32,-2.08 -2.92,-3.81 -4.89,-5.13 -1.96,-1.36 -5.05,-2.92 -9.29,-4.72 -4.25,-1.8 -7.53,-3.41 -9.85,-4.89 -2.32,-1.44 -4.28,-3.16 -6.01,-5.21 -1.68,-2 -2.92,-4 -3.69,-6.01 -0.76,-2 -1.16,-4.13 -1.16,-6.41 0,-5.44 2.2,-10.13 6.61,-13.98 4.41,-3.84 9.73,-5.77 16.02,-5.77 4.17,0 8.41,0.88 12.66,2.68 4.25,1.8 7.81,4.52 10.65,8.21l-0.08 -0.04zm14.38 -8.45l10.45 0 0 46.93c0,6.93 1.68,12.34 5.01,16.14 3.32,3.8 8.05,5.69 14.18,5.69 6.05,0 10.77,-1.72 14.18,-5.24 3.36,-3.49 5.09,-8.45 5.09,-14.78l0 -48.74 10.45 0 0 48.02c0,9.37 -2.64,16.82 -8.01,22.43 -5.33,5.61 -12.45,8.41 -21.35,8.41 -9.05,0 -16.34,-2.84 -21.79,-8.53 -5.45,-5.69 -8.17,-14.06 -8.17,-25.11l0 -45.21 -0.04 0zm76.13 0l10.45 0 0 65.96 24.79 0 0 10.45 -35.24 0 0 -76.37 0 -0.04zm37.32 0l46.9 0 0 10.45 -18.3 0 0 65.96 -10.45 0 0 -65.96 -18.18 0 0 -10.45 0.04 0zm58.19 0l10.45 0 0 76.37 -10.45 0 0 -76.37zm26.55 -3.09l56.47 57.99 0 -54.95 10.45 0 0 79.94 -56.47 -57.83 0 54.26 -10.45 0 0 -79.46 0 0.04zm156.43 15.22l-7.73 7.61c-7.81,-7.61 -16.86,-11.41 -27.15,-11.41 -8.97,0 -16.46,2.88 -22.47,8.65 -5.97,5.77 -8.97,12.94 -8.97,21.59 0,7.53 2.92,14.34 8.69,20.38 5.81,6.04 13.77,9.09 23.99,9.09 15.3,0 24.91,-6.65 28.83,-19.91l-20.74 0 0 -10.45 32.68 0c0,5.21 -0.36,9.41 -1.04,12.5 -0.72,3.12 -2.16,6.53 -4.36,10.29 -2.2,3.77 -5.13,7.09 -8.81,10.05 -3.64,2.97 -7.57,5.09 -11.77,6.37 -4.17,1.28 -9.17,1.93 -14.98,1.93 -13.21,0 -23.75,-4.13 -31.6,-12.41 -7.89,-8.29 -11.81,-17.74 -11.81,-28.4 0,-11.21 4.04,-20.74 12.09,-28.63 8.05,-7.89 17.82,-11.81 29.24,-11.81 6.81,0 13.02,1.04 18.66,3.09 5.65,2.04 11.37,5.89 17.26,11.53l0 -0.04z"/>
  </g>
 </g>
</svg>
