
<svg xmlns="http://www.w3.org/2000/svg" xml:space="preserve" width="3.64328in" height="0.472445in" version="1.1" style="shape-rendering:geometricPrecision; text-rendering:geometricPrecision; image-rendering:optimizeQuality; fill-rule:evenodd; clip-rule:evenodd"
viewBox="0 0 1542.78 200.06">
 <g id="Layer_x0020_1">
  <metadata id="CorelCorpID_0Corel-Layer"/>
  <g id="_2331055487152">
   <g>
    <path fill="#949A9B" d="M99.53 73.28c-31.66,11.62 -68.51,60.62 -44.6,84.14 -14.58,8.65 -28.11,10.95 -40.61,6.92 -31.96,-34.33 -4.99,-75.78 27.65,-99.24 0.5,-0.27 0.99,-0.52 1.48,-0.77l0.41 -0.21c0.47,-0.24 0.94,-0.47 1.4,-0.69l0.13 -0.06c0.47,-0.22 0.94,-0.43 1.41,-0.64l0.4 -0.18c0.48,-0.21 0.95,-0.41 1.42,-0.6l0.07 -0.03c0.46,-0.19 0.91,-0.36 1.36,-0.53l0.4 -0.15c0.46,-0.17 0.92,-0.33 1.37,-0.49l0.16 -0.05c0.42,-0.14 0.85,-0.28 1.26,-0.4l0.38 -0.11c0.45,-0.14 0.9,-0.27 1.35,-0.39l0.17 -0.04c0.4,-0.11 0.81,-0.21 1.21,-0.3l0.39 -0.09c0.43,-0.1 0.87,-0.19 1.29,-0.28 0.07,-0.02 0.15,-0.03 0.22,-0.04 0.37,-0.07 0.74,-0.14 1.11,-0.2l0.42 -0.07c0.42,-0.07 0.83,-0.13 1.24,-0.18 0.09,-0.01 0.19,-0.02 0.28,-0.03 0.34,-0.04 0.68,-0.08 1.02,-0.11 0.14,-0.01 0.28,-0.03 0.42,-0.04 0.41,-0.04 0.81,-0.07 1.21,-0.09 0.09,-0.01 0.18,-0.01 0.27,-0.01 0.33,-0.02 0.66,-0.03 0.99,-0.04 0.14,-0 0.28,-0.01 0.42,-0.01 0.39,-0.01 0.78,-0.01 1.16,-0.01 0.11,0 0.22,0.01 0.33,0.01 0.3,0.01 0.61,0.02 0.91,0.03 0.15,0.01 0.3,0.01 0.45,0.02 0.37,0.02 0.74,0.04 1.1,0.07 0.13,0.01 0.26,0.03 0.4,0.04 0.27,0.03 0.54,0.05 0.81,0.08 0.15,0.02 0.31,0.04 0.46,0.06 0.36,0.05 0.71,0.1 1.07,0.15 0.14,0.02 0.27,0.05 0.41,0.07 0.26,0.04 0.51,0.09 0.76,0.14 0.16,0.03 0.32,0.06 0.47,0.09 0.34,0.07 0.69,0.14 1.03,0.22 0.15,0.03 0.3,0.07 0.44,0.11 0.23,0.06 0.46,0.11 0.68,0.17 0.17,0.04 0.34,0.09 0.51,0.13 0.32,0.09 0.64,0.18 0.96,0.27 0.17,0.05 0.33,0.1 0.5,0.15 0.2,0.06 0.4,0.13 0.6,0.19 0.18,0.06 0.36,0.12 0.54,0.18 0.31,0.11 0.62,0.22 0.92,0.33 0.17,0.06 0.34,0.13 0.51,0.2 0.19,0.07 0.37,0.14 0.56,0.22 0.18,0.07 0.36,0.14 0.53,0.22 0.3,0.12 0.6,0.25 0.9,0.38 0.18,0.08 0.36,0.16 0.54,0.24 0.17,0.07 0.33,0.15 0.5,0.23 0.19,0.09 0.38,0.18 0.56,0.26 0.22,0.11 0.45,0.22 0.67,0.33 0.26,0.13 0.51,0.26 0.77,0.4l0.4 0.22c0.21,0.11 0.41,0.22 0.61,0.33l0.25 0.14c0.39,0.22 0.78,0.45 1.17,0.68l0.34 0.2c0.69,0.42 1.38,0.86 2.06,1.31l0.24 0.16c0.7,0.47 1.38,0.95 2.07,1.45l0.23 0.17c0.7,0.51 1.38,1.04 2.07,1.58l0.16 0.13c0.71,0.57 1.41,1.15 2.1,1.74l0.07 0.06c0.72,0.62 1.43,1.25 2.14,1.9l0 0 -0.01 -0zm-17.82 -11.91c0.3,0.12 0.6,0.25 0.89,0.38l-0.89 -0.38zm-63.25 106.68c-0.24,-0.09 -0.47,-0.18 -0.71,-0.28 -0.19,-0.18 -0.37,-0.36 -0.56,-0.54 0.42,0.28 0.84,0.55 1.26,0.82l0 0z"/>
   </g>
   <path fill="#949A9B" d="M257.44 27.64c-27.07,11.53 -47.14,38.88 -66.64,67.98 -11.02,-13.27 -23.42,-25.73 -39.22,-35.85 -0.09,-0.06 -0.17,-0.11 -0.26,-0.16 9.63,-13.1 18.85,-24.15 33.65,-36.59 5.51,-3.19 10.81,-5.58 15.91,-7.27 11.75,-3.39 23.11,-3.6 34.07,-0.65 7.92,2.51 15.37,6.85 22.5,12.54l-0 -0zm-102.5 119.16c-1.07,1.32 -2.15,2.63 -3.24,3.92 -34.22,40.47 -84.7,52.86 -133.97,17.05 19.26,7.83 41.06,0.2 65.4,-22.91 10.89,-10.23 23.92,-25.32 39.09,-45.27 11.45,15.13 21.84,31.75 32.71,47.21l0 0z"/>
   <path fill="#949A9B" d="M604.1 142.27l-50.72 0 -11.87 32.05 -12.85 0 44.78 -117.92 10.9 0 44.45 117.92 -12.85 0 -11.84 -32.05 0 0zm56.26 -41.14c-3.91,3.43 -6.29,7.96 -7.69,12.91l0 60.27 -12.35 0 0 -88.31 11.05 0 0.97 11.6c7.22,-11.3 19.03,-15.55 31.62,-11.96l-1.63 11.4c-8.01,-0.55 -15.29,-1.76 -21.97,4.09l0 0zm46.47 -4.08c2.43,-3.35 5.43,-6.18 9.07,-8.36 5.18,-3.11 11.05,-4.3 17.05,-4.3 6.17,0 12.17,1.38 17.23,5.02 4.18,3 6.99,7.19 8.83,11.86 2.43,-4.53 5.69,-8.47 9.95,-11.52 5.4,-3.85 11.71,-5.36 18.28,-5.36 8.74,0 16.55,2.71 22.2,9.62 6.35,7.76 7.74,19.36 7.74,29.03l0 51.28 -12.32 0 0 -51.52c0,-6.61 -0.72,-16.16 -5.24,-21.43 -3.74,-4.36 -8.79,-6.03 -14.46,-6.03 -6.14,0 -11.8,1.67 -15.92,6.39 -4.14,4.75 -6.24,10.62 -7.07,16.8 0,0.49 0.03,0.98 0.03,1.47 0.02,0.51 0.06,1.03 0.06,1.54l0 52.79 -12.43 0 0 -51.52c0,-6.69 -0.76,-15.93 -5.3,-21.28 -3.74,-4.41 -8.73,-6.19 -14.45,-6.19 -5.39,0 -10.81,1.14 -14.98,4.75 -3.94,3.41 -6.38,7.86 -7.76,12.84l0 61.38 -12.42 0 0 -88.31 11.23 0 0.68 11.04 0 0zm139.11 34.7l0 0.87c0,8.47 2.04,16.51 7.35,23.23 4.86,6.15 11.2,9.14 19.03,9.14 4.87,0 10.02,-0.56 14.58,-2.36 3.85,-1.51 7.29,-3.71 10.14,-6.7l1.27 -1.33 5.6 9 -0.76 0.8c-3.57,3.75 -7.94,6.48 -12.71,8.43 -5.69,2.33 -12.02,3.1 -18.13,3.1 -11.04,0 -20.34,-4.09 -27.71,-12.32 -7.81,-8.71 -10.99,-19.37 -10.99,-30.97l0 -4.34c0,-11.7 3.16,-22.45 10.9,-31.34 7.03,-8.06 15.83,-12.57 26.62,-12.57 9.97,0 19,2.93 25.79,10.42 6.91,7.63 9.38,17.36 9.38,27.47l0 9.47 -60.37 0 0 -0.01zm88.09 -34.1c2.43,-3.49 5.48,-6.45 9.19,-8.74 5.25,-3.23 11.19,-4.53 17.31,-4.53 8.53,0 16.56,2.34 22.26,9 6.23,7.29 7.62,18.2 7.62,27.44l0 53.49 -12.35 0 0 -53.51c0,-6.21 -0.73,-14.98 -5.11,-19.84 -3.79,-4.21 -9.03,-5.62 -14.56,-5.62 -5.57,0 -10.98,1.28 -15.32,4.93 -4.14,3.47 -6.88,7.98 -8.53,13.1l0 60.95 -12.35 0 0 -88.31 11.13 0 0.7 11.65 -0 -0zm91.69 76.66l-12.24 0 0 -88.3 12.24 0 0 88.3zm0 -110.05l-12.24 0 0 -16.12 12.24 0 0 16.12zm76.79 98.6c-3.02,3.42 -6.62,6.22 -10.65,8.47 -5.72,3.19 -11.97,4.6 -18.5,4.6 -7.46,0 -14.86,-1.74 -20.38,-7.03 -5.26,-5.05 -7.34,-11.61 -7.34,-18.81 0,-8.58 3.82,-15.27 10.83,-20.13 8.22,-5.7 18.62,-7.38 28.43,-7.38l17.45 0 0 -9.14c0,-5.15 -1.47,-9.79 -5.39,-13.26 -4.26,-3.76 -10.02,-4.85 -15.54,-4.85 -5.59,0 -11.02,1.24 -15.54,4.67 -3.66,2.78 -5.94,6.31 -5.94,10.98l0 1.44 -11.15 -0.11 -0.57 -1.6 -0.01 -0.21c-0.35,-7.53 3.59,-13.62 9.26,-18.27 6.97,-5.71 15.45,-7.85 24.34,-7.85 8.56,0 16.99,1.94 23.68,7.53 6.61,5.52 9.12,13.25 9.12,21.7l0 42.03c0,2.88 0.15,5.76 0.5,8.62 0.34,2.78 0.9,5.53 1.66,8.23l0.51 1.81 -12.89 0 -0.25 -1.12c-0.57,-2.52 -1.04,-5.08 -1.37,-7.65 -0.11,-0.89 -0.2,-1.79 -0.27,-2.68l0 0zm77.47 -95.53l0 106.98 -12.32 0 0 -106.98 -39.6 0 0 -10.94 91.52 0 0 10.94 -39.6 0 -0 0zm80.64 29.13c-5.06,0.01 -9.8,1.29 -13.66,4.66 -3.91,3.43 -6.29,7.96 -7.69,12.91l0 60.27 -12.35 0 0 -88.31 11.05 0 0.97 11.6c2.11,-3.31 4.76,-6.22 8.04,-8.53 4.65,-3.28 10,-4.69 15.66,-4.69 1.26,0 2.52,0.08 3.77,0.29 0.99,0.17 2,0.36 2.96,0.63l1.2 0.34 -1.63 11.39 -8.31 -0.58 0 0zm73.92 66.4c-3.02,3.42 -6.62,6.22 -10.65,8.47 -5.71,3.19 -11.97,4.6 -18.5,4.6 -7.46,0 -14.86,-1.74 -20.38,-7.03 -5.26,-5.04 -7.34,-11.61 -7.34,-18.8 0,-8.58 3.82,-15.27 10.83,-20.14 8.23,-5.7 18.62,-7.38 28.44,-7.38l17.46 0 0 -9.14c0,-5.15 -1.48,-9.79 -5.4,-13.26 -4.25,-3.76 -10.01,-4.85 -15.53,-4.85 -5.59,0 -11.02,1.24 -15.54,4.67 -3.66,2.78 -5.94,6.31 -5.94,10.98l0 1.44 -11.15 -0.11 -0.56 -1.6 -0.01 -0.21c-0.35,-7.53 3.58,-13.62 9.26,-18.27 6.97,-5.71 15.45,-7.85 24.34,-7.85 8.56,0 16.99,1.94 23.68,7.53 6.61,5.52 9.11,13.25 9.11,21.7l0 42.03c0,2.88 0.15,5.76 0.5,8.62 0.35,2.78 0.91,5.53 1.66,8.23l0.51 1.81 -12.9 0 -0.25 -1.12c-0.56,-2.52 -1.04,-5.08 -1.37,-7.65 -0.11,-0.89 -0.21,-1.79 -0.27,-2.68l0 0zm62.12 -5.7l1.85 -6.14 23.58 -65.01 12.86 0 -33.56 88.31 -9.54 0 -33.64 -88.31 12.85 0 23.91 65.02 1.7 6.13 -0.01 0zm56.45 -25.41l0 0.87c0,8.47 2.04,16.51 7.35,23.23 4.86,6.15 11.2,9.14 19.03,9.14 4.87,0 10.01,-0.56 14.58,-2.36 3.85,-1.51 7.29,-3.71 10.14,-6.7l1.27 -1.33 5.6 9 -0.76 0.8c-3.57,3.75 -7.94,6.48 -12.71,8.43 -5.69,2.33 -12.02,3.1 -18.12,3.1 -11.04,0 -20.34,-4.09 -27.71,-12.32 -7.81,-8.71 -10.99,-19.37 -10.99,-30.97l0 -4.34c0,-11.7 3.16,-22.45 10.9,-31.34 7.03,-8.07 15.83,-12.57 26.62,-12.57 9.97,0 19,2.93 25.79,10.42 6.92,7.63 9.38,17.36 9.38,27.47l0 9.47 -60.37 0 -0 -0.01zm89.69 42.56l-12.24 0 0 -126.18 12.24 0 0 126.18zm-985.19 -43.31l42.36 0 -21.1 -57.47 -21.25 57.47 -0 0zm289.18 -10.2l47.3 0 0 -0.92c0,-6.61 -1.8,-12.6 -6.2,-17.59 -4.39,-4.99 -10.16,-6.96 -16.73,-6.96 -6.65,0 -12.13,2.52 -16.55,7.48 -4.57,5.12 -6.96,11.28 -7.82,17.99zm255.59 28.03l0 -16.11 -17.62 0c-6.82,0 -14.09,1.19 -19.75,5.26 -4.31,3.1 -7.12,7.15 -7.12,12.57 0,4.1 1.32,7.6 4.34,10.39 3.35,3.09 7.81,4.04 12.25,4.04 6.16,0 12.02,-1.39 17.27,-4.64 4.61,-2.86 8.3,-6.6 10.63,-11.51l0 0zm232.03 0l0 -16.11 -17.62 0c-6.82,0 -14.09,1.19 -19.75,5.26 -4.31,3.1 -7.12,7.15 -7.12,12.57 0,4.1 1.32,7.6 4.34,10.39 3.35,3.09 7.81,4.04 12.25,4.04 6.15,0 12.01,-1.39 17.26,-4.64 4.62,-2.86 8.3,-6.6 10.63,-11.51l0 0zm119.53 -28.03l47.3 0 0 -0.92c0,-6.61 -1.8,-12.6 -6.2,-17.59 -4.4,-4.99 -10.16,-6.96 -16.73,-6.96 -6.65,0 -12.12,2.52 -16.55,7.48 -4.57,5.12 -6.96,11.28 -7.82,17.99l-0 0z"/>
   <path fill="#949A9B" d="M127.26 94.5c41.78,54.72 69.24,130.08 155.13,97.79 -65.14,-25.34 -77.47,-93.46 -135.25,-130.48 -32.55,-20.86 -66.23,-19.33 -99.33,-0.7 36.48,-19.59 58.82,6.36 79.45,33.38z"/>
   <path fill="#949A9B" d="M476.58 174.31c-64.87,-19.23 -90.61,-105 -144.51,-148.11 -39.4,-31.5 -101.94,-35.1 -141.07,-8.09 119.21,-69.02 137.08,231.26 285.59,156.19z"/>
  </g>
 </g>
</svg>
