<svg xmlns="http://www.w3.org/2000/svg" xml:space="preserve" width="2.01493in" height="0.787406in" version="1.1" style="shape-rendering:geometricPrecision; text-rendering:geometricPrecision; image-rendering:optimizeQuality; fill-rule:evenodd; clip-rule:evenodd"
viewBox="0 0 473.21 184.92">
 <g id="Layer_x0020_1">
  <metadata id="CorelCorpID_0Corel-Layer"/>
  <g id="_2331051525280">
   <g>
    <path d="M171.86 34.19c-14.77,5.42 -31.97,28.28 -20.81,39.26 -6.8,4.03 -13.12,5.11 -18.95,3.23 -14.91,-16.02 -2.33,-35.36 12.9,-46.31 0.23,-0.12 0.46,-0.24 0.69,-0.36l0.19 -0.1c0.22,-0.11 0.44,-0.22 0.65,-0.32l0.06 -0.03c0.22,-0.1 0.44,-0.2 0.66,-0.3l0.19 -0.08c0.22,-0.1 0.44,-0.19 0.66,-0.28l0.03 -0.01c0.21,-0.09 0.43,-0.17 0.64,-0.25l0.18 -0.07c0.21,-0.08 0.43,-0.16 0.64,-0.23l0.07 -0.02c0.2,-0.07 0.39,-0.13 0.59,-0.19l0.18 -0.05c0.21,-0.06 0.42,-0.12 0.63,-0.18l0.08 -0.02c0.19,-0.05 0.38,-0.1 0.56,-0.14l0.18 -0.04c0.2,-0.05 0.4,-0.09 0.6,-0.13 0.04,-0.01 0.07,-0.01 0.11,-0.02 0.17,-0.03 0.34,-0.06 0.52,-0.09l0.19 -0.03c0.19,-0.03 0.39,-0.06 0.58,-0.08 0.04,-0.01 0.09,-0.01 0.13,-0.02 0.16,-0.02 0.32,-0.04 0.48,-0.05 0.07,-0.01 0.13,-0.01 0.2,-0.02 0.19,-0.02 0.38,-0.03 0.56,-0.04 0.04,-0 0.08,-0 0.13,-0.01 0.15,-0.01 0.31,-0.01 0.46,-0.02 0.07,-0 0.13,-0 0.2,-0 0.18,-0 0.36,-0 0.54,-0 0.05,0 0.1,0 0.15,0 0.14,0 0.28,0.01 0.42,0.01 0.07,0 0.14,0.01 0.21,0.01 0.17,0.01 0.34,0.02 0.51,0.03 0.06,0.01 0.12,0.01 0.19,0.02 0.13,0.01 0.25,0.02 0.38,0.04 0.07,0.01 0.14,0.02 0.21,0.03 0.17,0.02 0.33,0.04 0.5,0.07 0.06,0.01 0.13,0.02 0.19,0.03 0.12,0.02 0.24,0.04 0.36,0.06 0.07,0.01 0.15,0.03 0.22,0.04 0.16,0.03 0.32,0.06 0.48,0.1 0.07,0.01 0.14,0.03 0.21,0.05 0.11,0.03 0.21,0.05 0.32,0.08 0.08,0.02 0.16,0.04 0.24,0.06 0.15,0.04 0.3,0.08 0.45,0.13 0.08,0.02 0.16,0.05 0.23,0.07 0.09,0.03 0.19,0.06 0.28,0.09 0.08,0.03 0.17,0.05 0.25,0.08 0.14,0.05 0.29,0.1 0.43,0.15 0.08,0.03 0.16,0.06 0.24,0.09 0.09,0.03 0.17,0.07 0.26,0.1 0.08,0.03 0.17,0.07 0.25,0.1 0.14,0.06 0.28,0.12 0.42,0.18 0.08,0.04 0.17,0.08 0.25,0.11 0.08,0.04 0.15,0.07 0.23,0.11 0.09,0.04 0.17,0.08 0.26,0.12 0.1,0.05 0.21,0.1 0.31,0.16 0.12,0.06 0.24,0.12 0.36,0.18l0.19 0.1c0.1,0.05 0.19,0.1 0.29,0.16l0.11 0.06c0.18,0.1 0.36,0.21 0.55,0.32l0.16 0.09c0.32,0.2 0.64,0.4 0.96,0.61l0.11 0.08c0.32,0.22 0.65,0.44 0.96,0.68l0.11 0.08c0.32,0.24 0.65,0.49 0.96,0.74l0.07 0.06c0.33,0.26 0.66,0.53 0.98,0.81l0.03 0.03c0.34,0.29 0.67,0.58 1,0.89l0 0 -0 -0zm-8.32 -5.56c0.14,0.06 0.28,0.12 0.42,0.18l-0.42 -0.18zm-29.51 49.78c-0.11,-0.04 -0.22,-0.09 -0.33,-0.13 -0.09,-0.08 -0.17,-0.17 -0.26,-0.25 0.2,0.13 0.39,0.26 0.59,0.38l0 0z"/>
   </g>
   <path d="M245.54 12.9c-12.63,5.38 -22,18.14 -31.1,31.72 -5.14,-6.19 -10.93,-12 -18.3,-16.73 -0.04,-0.02 -0.08,-0.05 -0.12,-0.07 4.5,-6.11 8.8,-11.27 15.7,-17.07 2.57,-1.49 5.04,-2.61 7.42,-3.39 5.48,-1.58 10.78,-1.68 15.9,-0.3 3.69,1.17 7.17,3.19 10.5,5.85l0 -0zm-47.83 55.6c-0.5,0.62 -1,1.23 -1.51,1.83 -15.97,18.89 -39.52,24.67 -62.51,7.96 8.99,3.65 19.16,0.09 30.52,-10.69 5.08,-4.77 11.16,-11.81 18.24,-21.12 5.34,7.06 10.19,14.82 15.26,22.03l0 -0z"/>
   <path d="M35.2 169.21l-23.67 0 -5.54 14.95 -6 0 20.9 -55.02 5.09 0 20.74 55.02 -6 0 -5.53 -14.95 0 0zm26.25 -19.2c-1.83,1.6 -2.94,3.71 -3.59,6.02l0 28.13 -5.76 0 0 -41.21 5.15 0 0.45 5.41c3.37,-5.27 8.88,-7.26 14.76,-5.58l-0.76 5.32c-3.74,-0.26 -7.14,-0.82 -10.25,1.91l0 0zm21.69 -1.9c1.14,-1.56 2.53,-2.88 4.23,-3.9 2.42,-1.45 5.16,-2.01 7.96,-2.01 2.88,0 5.68,0.64 8.04,2.34 1.95,1.4 3.26,3.35 4.12,5.54 1.13,-2.12 2.65,-3.95 4.64,-5.37 2.52,-1.8 5.47,-2.5 8.53,-2.5 4.08,0 7.72,1.26 10.36,4.49 2.96,3.62 3.61,9.03 3.61,13.55l0 23.93 -5.75 0 0 -24.04c0,-3.09 -0.34,-7.54 -2.45,-10 -1.75,-2.04 -4.1,-2.81 -6.75,-2.81 -2.87,0 -5.51,0.78 -7.43,2.98 -1.93,2.22 -2.91,4.95 -3.3,7.84 0,0.23 0.01,0.46 0.01,0.69 0.01,0.24 0.03,0.48 0.03,0.72l0 24.63 -5.8 0 0 -24.04c0,-3.12 -0.36,-7.43 -2.47,-9.93 -1.75,-2.06 -4.07,-2.89 -6.74,-2.89 -2.51,0 -5.05,0.53 -6.99,2.22 -1.84,1.59 -2.98,3.67 -3.62,5.99l0 28.64 -5.8 0 0 -41.21 5.24 0 0.32 5.15 0 -0zm64.91 16.19l0 0.4c0,3.95 0.95,7.7 3.43,10.84 2.27,2.87 5.23,4.27 8.88,4.27 2.27,0 4.67,-0.26 6.81,-1.1 1.79,-0.71 3.4,-1.73 4.73,-3.12l0.59 -0.62 2.61 4.2 -0.36 0.37c-1.66,1.75 -3.7,3.03 -5.93,3.93 -2.65,1.08 -5.61,1.45 -8.46,1.45 -5.15,0 -9.49,-1.91 -12.93,-5.75 -3.64,-4.07 -5.13,-9.04 -5.13,-14.45l0 -2.02c0,-5.46 1.47,-10.47 5.08,-14.62 3.28,-3.76 7.39,-5.87 12.42,-5.87 4.65,0 8.87,1.37 12.03,4.86 3.23,3.56 4.38,8.1 4.38,12.82l0 4.42 -28.17 0 0 -0zm41.1 -15.91c1.14,-1.63 2.56,-3.01 4.29,-4.08 2.45,-1.51 5.22,-2.11 8.08,-2.11 3.98,0 7.73,1.09 10.39,4.2 2.91,3.4 3.56,8.49 3.56,12.8l0 24.96 -5.76 0 0 -24.97c0,-2.9 -0.34,-6.99 -2.38,-9.26 -1.77,-1.96 -4.21,-2.62 -6.79,-2.62 -2.6,0 -5.12,0.6 -7.15,2.3 -1.93,1.62 -3.21,3.73 -3.98,6.11l0 28.44 -5.76 0 0 -41.21 5.19 0 0.32 5.43 0 -0zm42.79 35.77l-5.71 0 0 -41.2 5.71 0 0 41.2zm0 -51.35l-5.71 0 0 -7.52 5.71 0 0 7.52zm35.83 46.01c-1.41,1.6 -3.09,2.9 -4.97,3.95 -2.67,1.49 -5.58,2.15 -8.63,2.15 -3.48,0 -6.93,-0.81 -9.51,-3.28 -2.46,-2.35 -3.43,-5.42 -3.43,-8.77 0,-4.01 1.78,-7.12 5.06,-9.4 3.84,-2.66 8.69,-3.44 13.27,-3.44l8.14 0 0 -4.27c0,-2.4 -0.69,-4.57 -2.52,-6.19 -1.99,-1.75 -4.67,-2.26 -7.25,-2.26 -2.61,0 -5.14,0.58 -7.25,2.18 -1.71,1.3 -2.77,2.94 -2.77,5.12l0 0.67 -5.2 -0.05 -0.26 -0.75 -0 -0.1c-0.16,-3.51 1.67,-6.35 4.32,-8.52 3.25,-2.67 7.21,-3.66 11.36,-3.66 4,0 7.93,0.91 11.05,3.52 3.09,2.58 4.25,6.18 4.25,10.13l0 19.61c0,1.34 0.07,2.69 0.23,4.02 0.16,1.3 0.42,2.58 0.77,3.84l0.24 0.85 -6.02 0 -0.12 -0.52c-0.26,-1.18 -0.49,-2.37 -0.64,-3.57 -0.05,-0.42 -0.09,-0.83 -0.12,-1.25l-0 0zm36.15 -44.57l0 49.92 -5.75 0 0 -49.92 -18.48 0 0 -5.11 42.7 0 0 5.11 -18.48 0zm37.63 13.59c-2.36,0 -4.57,0.6 -6.37,2.18 -1.83,1.6 -2.94,3.71 -3.59,6.02l0 28.13 -5.76 0 0 -41.21 5.15 0 0.45 5.41c0.99,-1.54 2.22,-2.9 3.75,-3.98 2.17,-1.53 4.66,-2.19 7.31,-2.19 0.59,0 1.18,0.04 1.76,0.13 0.46,0.08 0.93,0.17 1.38,0.29l0.56 0.16 -0.76 5.32 -3.88 -0.27 -0 0zm34.49 30.98c-1.41,1.6 -3.09,2.9 -4.97,3.95 -2.66,1.49 -5.58,2.15 -8.63,2.15 -3.48,0 -6.93,-0.81 -9.51,-3.28 -2.45,-2.35 -3.43,-5.42 -3.43,-8.77 0,-4.01 1.78,-7.12 5.06,-9.4 3.84,-2.66 8.69,-3.44 13.27,-3.44l8.15 0 0 -4.27c0,-2.4 -0.69,-4.57 -2.52,-6.19 -1.99,-1.75 -4.67,-2.26 -7.25,-2.26 -2.61,0 -5.14,0.58 -7.25,2.18 -1.71,1.3 -2.77,2.94 -2.77,5.12l0 0.67 -5.2 -0.05 -0.26 -0.75 -0 -0.1c-0.16,-3.51 1.67,-6.35 4.32,-8.52 3.25,-2.67 7.21,-3.66 11.36,-3.66 4,0 7.93,0.91 11.05,3.52 3.08,2.58 4.25,6.18 4.25,10.13l0 19.61c0,1.34 0.07,2.69 0.23,4.02 0.16,1.3 0.42,2.58 0.77,3.84l0.24 0.85 -6.02 0 -0.12 -0.52c-0.26,-1.18 -0.49,-2.37 -0.64,-3.57 -0.05,-0.42 -0.1,-0.83 -0.13,-1.25l0 0zm28.98 -2.66l0.86 -2.87 11 -30.34 6 0 -15.66 41.21 -4.45 0 -15.7 -41.21 6 0 11.16 30.34 0.79 2.86 -0 0zm26.34 -11.86l0 0.4c0,3.95 0.95,7.7 3.43,10.84 2.27,2.87 5.22,4.27 8.88,4.27 2.27,0 4.67,-0.26 6.8,-1.1 1.8,-0.71 3.4,-1.73 4.73,-3.12l0.59 -0.62 2.61 4.2 -0.36 0.37c-1.66,1.75 -3.7,3.03 -5.93,3.93 -2.65,1.08 -5.61,1.45 -8.46,1.45 -5.15,0 -9.49,-1.91 -12.93,-5.75 -3.64,-4.07 -5.13,-9.04 -5.13,-14.45l0 -2.02c0,-5.46 1.47,-10.47 5.09,-14.62 3.28,-3.76 7.39,-5.87 12.42,-5.87 4.65,0 8.87,1.37 12.03,4.86 3.23,3.56 4.38,8.1 4.38,12.82l0 4.42 -28.17 0 0 -0zm41.85 19.86l-5.71 0 0 -58.88 5.71 0 0 58.88zm-459.71 -20.21l19.76 0 -9.85 -26.82 -9.92 26.82zm134.93 -4.76l22.07 0 0 -0.43c0,-3.09 -0.84,-5.88 -2.89,-8.21 -2.05,-2.33 -4.74,-3.25 -7.81,-3.25 -3.1,0 -5.66,1.18 -7.72,3.49 -2.13,2.39 -3.25,5.26 -3.65,8.39l-0 -0zm119.26 13.08l0 -7.52 -8.22 0c-3.18,0 -6.58,0.55 -9.21,2.45 -2.01,1.45 -3.32,3.34 -3.32,5.87 0,1.91 0.62,3.55 2.02,4.85 1.56,1.44 3.65,1.89 5.72,1.89 2.87,0 5.61,-0.65 8.06,-2.17 2.15,-1.34 3.87,-3.08 4.96,-5.37l-0 0zm108.27 0l0 -7.52 -8.22 0c-3.18,0 -6.58,0.55 -9.21,2.45 -2.01,1.45 -3.32,3.34 -3.32,5.87 0,1.91 0.61,3.55 2.03,4.85 1.56,1.44 3.65,1.89 5.72,1.89 2.87,0 5.61,-0.65 8.06,-2.17 2.15,-1.34 3.87,-3.08 4.96,-5.37l0 0zm55.77 -13.08l22.07 0 0 -0.43c0,-3.09 -0.84,-5.88 -2.89,-8.21 -2.05,-2.33 -4.74,-3.25 -7.81,-3.25 -3.1,0 -5.66,1.18 -7.72,3.49 -2.13,2.39 -3.25,5.26 -3.65,8.39l0 -0z"/>
   <path d="M184.79 44.1c19.5,25.53 32.31,60.7 72.39,45.63 -30.4,-11.82 -36.15,-43.61 -63.11,-60.88 -15.19,-9.73 -30.9,-9.02 -46.35,-0.33 17.02,-9.14 27.45,2.97 37.07,15.58l0 0z"/>
   <path d="M347.79 81.34c-30.27,-8.97 -42.28,-49 -67.43,-69.11 -18.38,-14.7 -47.56,-16.38 -65.83,-3.77 55.62,-32.2 63.96,107.91 133.26,72.88l0 0z"/>
  </g>
 </g>
</svg>
