
<svg xmlns="http://www.w3.org/2000/svg" xml:space="preserve" width="3.2638in" height="0.787402in" version="1.1" style="shape-rendering:geometricPrecision; text-rendering:geometricPrecision; image-rendering:optimizeQuality; fill-rule:evenodd; clip-rule:evenodd"
viewBox="0 0 1092.29 263.52">

 <g id="Layer_x0020_1">
  <metadata id="CorelCorpID_0Corel-Layer"/>
  <path  d="M374.5 93.42c-0.88,-8.81 -8.5,-9.94 -12.06,-9.94 7.21,-2.42 10.72,-9.02 10.72,-14.79 0,-7.32 -4.38,-14.53 -15.77,-14.53 -11.18,0 -15.87,7.78 -15.87,15.15l0 0.62 7.73 0 0 -0.46c0,-6.85 2.52,-10.1 8.14,-10.1 5.82,0 7.78,5.46 7.78,9.74 0,9.33 -10.66,13.55 -15.97,13.55l-0.05 0 0 -4.69 -7.62 0 0 15.46 7.62 0 0 -5.05 5.56 0c6.03,0 10.97,0.41 12.16,5.05l7.62 0zm19.06 -33.74c3.97,0 6.39,1.34 6.39,8.4l0 5.51 7.57 0 0 -6.85c0,-5.87 -2.47,-12.57 -13.96,-12.57 -11.49,0 -13.96,6.7 -13.96,12.57l0 26.69 7.57 0 0 -10.2 21.79 0 0 -5.41 -21.79 0 0 -9.74c0,-7.06 2.42,-8.4 6.39,-8.4zm49.1 7.06c0,-5.87 -2.47,-12.57 -13.96,-12.57 -11.49,0 -13.96,6.7 -13.96,12.57l0 26.69 7.57 0 0 -25.35c0,-7.06 2.42,-8.4 6.39,-8.4 3.97,0 6.39,1.34 6.39,8.4l0 25.35 7.57 0 0 -26.69zm35.14 -11.95l-7.57 0 0 25.35c0,7.06 -2.42,8.4 -6.39,8.4 -3.97,0 -6.39,-1.34 -6.39,-8.4l0 -25.35 -7.57 0 0 26.69c0,5.87 2.47,12.57 13.96,12.57 11.49,0 13.96,-6.7 13.96,-12.57l0 -26.69zm7.21 26.69c0,5.87 2.47,12.57 13.96,12.57 4.48,0 7.57,-0.93 9.69,-2.68l10.87 2.94 0 -6.44 -7.27 -1.86c0.62,-1.96 0.67,-3.61 0.67,-5.56l0 -25.66 -7.57 0 0 25.35c0,7.06 -2.42,8.4 -6.39,8.4 -3.97,0 -6.39,-1.34 -6.39,-8.4l0 -25.35 -7.57 0 0 26.69zm57.08 -15.25c3.76,2.68 10.25,2.06 13.09,-0.82l-2.11 -4.59 -0.26 0c-7.68,3.81 -6.7,-4.79 -15.77,-6.28 -5,-0.82 -11.33,-0.16 -16.02,5l2.11 4.59 0.26 0c4.89,-4.64 9.84,-5.36 13.81,-2.47 -8.86,0.93 -14.63,7.21 -14.79,16.02 -0.16,8.55 4.38,16.38 15.76,16.38 11.18,0 15.87,-7.78 15.87,-15.15l0 -0.62 -7.73 0 0 0.72c0,6.85 -2.52,9.84 -8.14,9.84 -5.82,0 -7.93,-6.34 -7.78,-11.59 0.16,-5.92 4.02,-11.69 11.69,-11.02zm46.93 0.52c0,-5.87 -2.47,-12.57 -13.96,-12.57 -11.49,0 -13.96,6.7 -13.96,12.57l0 26.69 7.57 0 0 -25.35c0,-7.06 2.42,-8.4 6.39,-8.4 3.97,0 6.39,1.34 6.39,8.4l0 6.03 7.57 0 0 -7.37zm28.13 16.74c8.35,-3.35 10.66,-8.55 10.61,-13.76 -0.1,-9.48 -10.3,-18.19 -22.77,-14.58 -5.51,1.6 -10.46,8.76 -7.32,15.15 2.99,6.08 15.3,3.45 7.78,12.47l-1.6 -0.1 0 -4.69 -7.62 0 0 15.46 7.62 0 0 -5.05 5.56 0c6.03,0 11.59,0 12.16,5.05l7.62 0c-0.88,-8.81 -8.5,-9.94 -12.06,-9.94zm-5.93 -1.29c4.69,-5.87 3.2,-10.35 -2.47,-12.21 -4.69,-1.55 -5.77,-5.93 -3.61,-8.6 2.78,-3.45 14.53,-1.39 15.04,8.91 0.31,6.49 -5.1,10.72 -8.96,11.9zm50.9 -15.46c0,-5.87 -2.47,-12.57 -13.96,-12.57 -11.49,0 -13.96,6.7 -13.96,12.57l0 26.69 7.57 0 0 -25.35c0,-7.06 2.42,-8.4 6.39,-8.4 3.97,0 6.39,1.34 6.39,8.4l0 25.35 7.57 0 0 -26.69zm14.94 2.16l0.57 0c13.34,0 0.98,14.63 18.55,14.63l3.19 0 0 -4.84 -0.62 0c-10.92,0 -0.46,-14.79 -17.41,-14.79l-4.28 0 0 -9.12 -7.57 0 0 38.64 7.57 0 0 -24.52zm56.83 7.01l0 6.03c0,4.53 -1.65,6.85 -4.43,6.85 -2.73,0 -4.74,-1.49 -4.74,-5.72l0 -0.1c0,-6.44 5.25,-7.06 6.03,-7.06l3.14 0zm7.62 0l20.3 0c8.76,0 9.43,4.79 9.48,6.49 0.15,4.07 -3.3,6.44 -8.5,6.44 -3.66,0 -8.19,-1.7 -8.19,-7.06l0 -0.41 -7.93 0 0 0.57c0,7.11 5,12.11 16.12,12.11 11.44,0 16.38,-6.44 16.38,-12.47 0,-5.1 -3.09,-8.45 -7.11,-9.53 4.69,-1.55 5.25,-5.93 5.1,-8.4 -0.41,-6.03 -6.59,-9.69 -14.89,-9.48 -8.24,0.15 -13.86,4.79 -14.17,10.35l0 0.16 7.73 0 0 -0.1c0,-3.91 3.81,-5.2 6.7,-5.2 4.12,0 6.59,2.22 6.8,5.15 0.15,2.37 -0.88,5.98 -7.52,5.98l-20.3 0 0 -0.52c0,-8.76 -7.32,-15.82 -19.32,-15.82 -11.9,0 -19.22,7.42 -19.22,16.18l0 23.08 7.57 0 0 -22.26c0,-9.01 6.18,-11.8 11.64,-11.8 5.41,0 11.69,2.68 11.69,11.13l-3.55 0c-9.48,0 -13.4,6.23 -13.4,11.9l0 0.1c0,6.49 3.97,11.54 12.52,11.54 8.24,0 12.06,-5.72 12.06,-11.85l0 -6.28zm43.33 5.56c0,5.87 2.47,12.57 13.96,12.57 4.48,0 7.57,-0.93 9.69,-2.68l10.87 2.94 0 -6.44 -7.27 -1.86c0.62,-1.96 0.67,-3.61 0.67,-5.56l0 -25.66 -7.57 0 0 25.35c0,7.06 -2.42,8.4 -6.39,8.4 -3.97,0 -6.39,-1.34 -6.39,-8.4l0 -25.35 -7.57 0 0 26.69zm68.31 -7.37l-7.57 0 0 6.03c0,7.06 -2.42,8.4 -6.39,8.4 -3.97,0 -6.39,-1.34 -6.39,-8.4l0 -25.4 -15.92 0 0 5.46 8.35 0 0 21.28c0,5.87 2.47,12.57 13.96,12.57 11.49,0 13.96,-6.7 13.96,-12.57l0 -7.37zm43.28 19.32l7.57 0 0 -26.38 -7.57 0 0 3.55c-0.05,6.9 -2.37,9.02 -6.9,9.02 -5.1,0 -5.87,-2.11 -5.87,-9.02l0 -15.82 -7.57 0 0 17.83c0,5.87 1.6,12.57 12.31,12.57 3.81,0 6.85,-1.49 8.04,-2.73l0 10.97zm42.71 -26.69c0,-5.87 -2.47,-12.57 -13.96,-12.57 -11.49,0 -13.96,6.7 -13.96,12.57l0 26.69 7.57 0 0 -25.35c0,-7.06 2.42,-8.4 6.39,-8.4 3.97,0 6.39,1.34 6.39,8.4l0 25.35 7.57 0 0 -26.69zm35.14 -6.49l8.35 0 0 -5.46 -15.92 0 0 25.35c0,7.06 -2.42,8.4 -6.39,8.4 -3.97,0 -6.39,-1.34 -6.39,-8.4l0 -25.35 -7.57 0 0 26.69c0,5.87 2.47,12.57 13.96,12.57 11.49,0 13.96,-6.7 13.96,-12.57l0 -21.23zm22.98 -5.46l-7.57 0 0 38.64 7.57 0 0 -15.2c0.05,-6.9 1.86,-9.53 6.9,-9.53 4.59,0 5.87,2.63 5.87,9.53l0 4.43 7.57 0 0 -6.44c0,-5.87 -1.6,-13.09 -12.31,-13.09 -3.81,0 -6.85,1.49 -8.04,2.73l0 -11.08zm46.47 10.1l7.57 0c0,-6.96 -5.56,-10.72 -12.83,-10.72 -8.71,0 -12.83,5.72 -13.24,10.05 -0.72,7.78 4.64,10.82 12.21,13.45 4.95,1.7 7.62,3.81 7.16,6.8 -0.62,4.02 -4.69,4.43 -6.44,4.38 -1.96,-0.05 -6.54,-0.98 -6.54,-6.7l0 -0.67 -7.32 0 0 0.72c0,8.66 6.39,11.85 13.34,11.85 10.15,0 14.07,-5.25 14.43,-10.61 0.52,-7.73 -7.11,-10.87 -13.45,-12.98 -5.31,-1.75 -6.28,-4.43 -6.08,-6.85 0.21,-2.27 2.83,-4.23 5.51,-4.23 1.91,0 5.67,0.67 5.67,5.2l0 0.31zm43.02 11.8l-7.57 0 0 3.45c0,7.06 -2.42,8.4 -6.39,8.4 -3.97,0 -6.39,-1.34 -6.39,-8.4l0 -7.68 21.79 0 0 -5.41 -21.79 0 0 -12.26 -7.57 0 0 26.69c0,5.87 2.47,12.57 13.96,12.57 11.49,0 13.96,-6.7 13.96,-12.57l0 -4.79zm-696.46 47.02l-1.17 -3.55c-8.06,1.59 -17.8,8.82 -22.89,22.56l25.06 9.52 1.13 -3.89 -22.02 -8.27c5.64,-11.28 14.5,-15.92 19.76,-16.13l0.13 -0.25zm17.21 25.53c-4.55,0 -7.06,-2.84 -7.06,-8.44l0 -20.6 -3.84 0 0 20.81c0,4.76 1.59,11.03 10.9,11.03 3.68,0 6.1,-0.96 7.77,-2.42l8.02 2.38 0 -3.59 -6.02 -1.59c0.88,-1.84 1.13,-3.93 1.13,-5.81l0 -20.81 -3.84 0 0 20.6c0,5.6 -2.51,8.44 -7.06,8.44zm24.02 -21.06c0.71,-3.89 4.76,-5.81 7.52,-5.81 3.63,0 7.02,1.5 7.27,5.39 0.21,3.38 -2.67,5.89 -8.94,5.89l-11.28 0 0 2.76 11.99 0c8.4,0 9.44,3.63 9.44,5.93 0,5.35 -4.68,6.89 -8.77,6.89 -3.55,0 -8.52,-1.55 -8.52,-7.14l0 -0.33 -4.14 0 0 0.13c0,5.77 4.22,10.15 12.66,10.15 8.86,0 12.87,-4.89 12.87,-9.78 0,-4.55 -2.97,-6.89 -6.27,-7.73 4.39,-1.76 5.01,-5.01 4.93,-7.02 -0.21,-4.55 -4.34,-7.98 -11.07,-7.81 -6.69,0.13 -11.28,4.51 -11.66,8.52l3.97 -0.04zm36.72 21.06c-4.55,0 -7.06,-2.84 -7.06,-8.44l0 -20.6 -3.84 0 0 20.81c0,4.76 1.59,11.03 10.9,11.03 3.68,0 6.1,-0.96 7.77,-2.42l8.02 2.38 0 -3.59 -6.02 -1.59c0.88,-1.84 1.13,-3.93 1.13,-5.81l0 -20.81 -3.84 0 0 20.6c0,5.6 -2.51,8.44 -7.06,8.44zm30.46 0c-4.55,0 -7.06,-1.59 -7.06,-8.02l0 -21.01 -3.84 0 0 21.22c0,4.76 1.59,10.61 10.9,10.61 9.32,0 10.9,-5.85 10.9,-10.61l0 -21.22 -3.84 0 0 21.01c0,6.43 -2.51,8.02 -7.06,8.02zm34.13 -20.01l4.26 0c0,-0.13 0,-1.13 0,-1.25 -0.21,-5.39 -4.8,-8.27 -10.53,-8.27 -6.35,0 -10.07,4.09 -10.28,7.85 -0.33,6.39 5.18,7.85 9.82,9.65 4.01,1.55 7.9,2.72 7.81,6.98 -0.08,4.26 -5.14,5.14 -7.52,5.06 -3.68,-0.13 -6.89,-1.8 -6.89,-6.85l0 -0.63 -4.05 0 0 0.67c0,7.02 5.18,9.61 10.82,9.61 7.56,0 11.61,-3.68 11.7,-8.81 0.08,-5.77 -5.81,-7.77 -10.9,-9.61 -3.84,-1.38 -7.02,-2.88 -6.73,-6.56 0.25,-3.18 3.18,-4.55 6.06,-4.55 3.3,0 6.43,1.96 6.43,5.64l0 1.09zm21.93 20.01c-4.55,0 -7.06,-2.84 -7.06,-8.44l0 -20.6 -3.84 0 0 20.81c0,4.76 1.59,11.03 10.9,11.03 3.68,0 6.1,-0.96 7.77,-2.42l8.02 2.38 0 -3.59 -6.02 -1.59c0.88,-1.84 1.13,-3.93 1.13,-5.81l0 -20.81 -3.84 0 0 20.6c0,5.6 -2.51,8.44 -7.06,8.44zm21.39 -26.28l0 18.34c0,4.76 1.59,10.61 10.9,10.61 9.32,0 10.9,-5.85 10.9,-10.61l0 -5.56 -3.84 0 0 5.35c0,6.43 -2.51,8.02 -7.06,8.02 -4.55,0 -7.06,-1.59 -7.06,-8.02l0 -20.89 -11.49 0 0 2.76 7.65 0zm32.34 6.52l0 -9.19 -3.84 0 0 31.25 3.84 0 0 -14.83c0.38,-5.31 2.97,-6.69 7.06,-6.69 4.55,0 7.06,1.59 7.06,8.02l0 5.35 3.84 0 0 -5.56c0,-4.76 -1.59,-10.61 -10.9,-10.61 -3.17,0 -5.47,0.96 -7.06,2.26l0 0zm59.2 -5.77l-1.17 -3.55c-8.06,1.59 -17.8,8.82 -22.89,22.56l25.07 9.52 1.13 -3.89 -22.02 -8.27c5.64,-11.28 14.5,-15.92 19.76,-16.13l0.13 -0.25zm17.21 25.53c-4.55,0 -7.06,-2.84 -7.06,-8.44l0 -20.6 -3.84 0 0 20.81c0,4.76 1.59,11.03 10.9,11.03 3.68,0 6.1,-0.96 7.77,-2.42l8.02 2.38 0 -3.59 -6.02 -1.59c0.88,-1.84 1.13,-3.93 1.13,-5.81l0 -20.81 -3.84 0 0 20.6c0,5.6 -2.51,8.44 -7.06,8.44zm21.39 -26.28l0 18.34c0,4.76 1.59,10.61 10.9,10.61 9.32,0 10.9,-5.85 10.9,-10.61l0 -5.56 -3.84 0 0 5.35c0,6.43 -2.51,8.02 -7.06,8.02 -4.55,0 -7.06,-1.59 -7.06,-8.02l0 -20.89 -11.49 0 0 2.76 7.65 0zm39.4 -0.46c4.55,0 7.06,1.59 7.06,8.02l0 5.77 3.84 0 0 -5.98c0,-4.76 -1.59,-10.61 -10.9,-10.61 -9.32,0 -10.9,5.85 -10.9,10.61l0 21.22 3.84 0 0 -21.01c0,-6.43 2.51,-8.02 7.06,-8.02zm28.49 26.74c-4.55,0 -7.06,-2.84 -7.06,-8.44l0 -20.6 -3.84 0 0 20.81c0,4.76 1.59,11.03 10.9,11.03 3.68,0 6.1,-0.96 7.77,-2.42l8.02 2.38 0 -3.59 -6.01 -1.59c0.88,-1.84 1.13,-3.93 1.13,-5.81l0 -20.81 -3.84 0 0 20.6c0,5.6 -2.51,8.44 -7.06,8.44zm34.26 -26.57c5.22,0.63 9.48,2.55 9.48,9.15l0 19.72 3.76 0 0 -20.39c0,-7.1 -5.56,-11.24 -15.25,-11.24 -9.65,0 -15.17,4.14 -15.17,11.24l0 5.14 3.84 0 0 -4.47c0,-6.77 4.09,-8.48 9.48,-9.15l0 19.8 3.84 0 0 -19.8zm42.91 10.24l0 -2.76 -19.13 0 0 -9.94 -3.84 0 0 20.81c0,4.76 1.59,11.03 10.9,11.03 9.32,0 10.9,-6.27 10.9,-11.03l0 -3.47 -3.84 0 0 3.26c0,6.43 -2.51,8.44 -7.06,8.44 -4.55,0 -7.06,-2.01 -7.06,-8.44l0 -7.9 19.13 0zm22.06 -3.68l4.26 0c0,-0.13 0,-1.13 0,-1.25 -0.21,-5.39 -4.8,-8.27 -10.53,-8.27 -6.35,0 -10.07,4.09 -10.28,7.85 -0.33,6.39 5.18,7.85 9.82,9.65 4.01,1.55 7.9,2.72 7.81,6.98 -0.08,4.26 -5.14,5.14 -7.52,5.06 -3.68,-0.13 -6.89,-1.8 -6.89,-6.85l0 -0.63 -4.05 0 0 0.67c0,7.02 5.18,9.61 10.82,9.61 7.56,0 11.61,-3.68 11.7,-8.81 0.08,-5.77 -5.81,-7.77 -10.9,-9.61 -3.84,-1.38 -7.02,-2.88 -6.73,-6.56 0.25,-3.18 3.18,-4.55 6.06,-4.55 3.3,0 6.43,1.96 6.43,5.64l0 1.09zm21.93 -6.73c4.55,0 7.06,1.59 7.06,8.02l0 21.01 3.84 0 0 -21.22c0,-4.76 -1.59,-10.61 -10.9,-10.61 -9.32,0 -10.9,5.85 -10.9,10.61l0 21.22 3.84 0 0 -21.01c0,-6.43 2.51,-8.02 7.06,-8.02zm21.35 7.65l4.01 0c10.82,0 -0.54,13.2 13.7,13.2l1.21 0 0 -2.51 -1 0c-8.86,0 0.96,-13.33 -12.78,-13.33l-5.14 0 0 -7.31 -3.84 0 0 31.33 3.84 0 0 -21.39zm48.96 5.93l0 6.14c0,5.14 -3.18,6.85 -5.43,6.85 -2.21,0 -5.72,-1.25 -5.72,-6.39l0 -0.08c0,-5.26 3.64,-6.52 6.77,-6.52l4.39 0zm3.72 0l17.38 0c8.4,0 9.23,3.8 9.23,6.1 0,5.35 -4.68,7.06 -8.77,7.06 -3.55,0 -8.52,-1.55 -8.52,-7.14l0 -0.33 -4.14 0 0 0.13c0,5.77 4.22,10.15 12.66,10.15 8.86,0 12.87,-5.05 12.87,-9.94 0,-4.55 -2.76,-7.06 -6.06,-7.9 4.09,-1.34 5.01,-4.72 4.93,-6.73 -0.21,-4.55 -4.85,-7.94 -11.57,-7.77 -6.68,0.13 -11.11,3.88 -11.36,8.4l0 0.13 3.97 0 0 -0.08c0,-4.39 4.47,-5.64 7.23,-5.64 3.64,0 7.65,1.34 7.69,5.22 0.04,3.38 -2.59,5.6 -8.86,5.6l-16.67 0 0 -0.79c0,-7.1 -5.51,-12.83 -15.25,-12.83 -9.65,0 -15.17,6.01 -15.17,13.12l0 18.72 3.84 0 0 -18.05c0,-7.31 5.05,-10.99 11.32,-10.99 6.52,0 11.53,3.47 11.53,10.78l0 0.04 -4.72 0c-7.69,0 -10.44,4.68 -10.44,9.27l0 0.08c0,4.18 2.8,9.36 9.73,9.36 6.68,0 9.15,-5.56 9.15,-9.61l0 -6.35zm47.33 13.16c-4.55,0 -7.06,-2.84 -7.06,-8.44l0 -20.6 -3.84 0 0 20.81c0,4.76 1.59,11.03 10.9,11.03 3.68,0 6.1,-0.96 7.77,-2.42l8.02 2.38 0 -3.59 -6.02 -1.59c0.88,-1.84 1.13,-3.93 1.13,-5.81l0 -20.81 -3.84 0 0 20.6c0,5.6 -2.51,8.44 -7.06,8.44zm21.39 -26.28l0 18.34c0,4.76 1.59,10.61 10.9,10.61 9.32,0 10.9,-5.85 10.9,-10.61l0 -5.56 -3.84 0 0 5.35c0,6.43 -2.51,8.02 -7.06,8.02 -4.55,0 -7.06,-1.59 -7.06,-8.02l0 -20.89 -11.49 0 0 2.76 7.65 0zm-698.28 81.88l0 -15.88 15.79 0 0 -2.76 -15.79 0 0 -9.94 -3.84 0 0 31.33 7.73 0c5.05,0 7.98,0 8.02,4.39l3.88 0c0.08,-5.31 -3.09,-7.14 -8.52,-7.14l-7.27 0zm37.1 2.76l3.84 0 0 -21.39 -3.84 0 0 1.59c-0.38,5.31 -2.97,6.69 -7.06,6.69 -4.55,0 -7.06,-1.59 -7.06,-8.02l0 -10.19 -3.84 0 0 10.4c0,4.76 1.59,10.61 10.9,10.61 3.18,0 5.47,-0.96 7.06,-2.26l0 12.58zm21.43 -29.04c4.55,0 7.06,1.59 7.06,8.02l0 21.01 3.84 0 0 -21.22c0,-4.76 -1.59,-10.61 -10.9,-10.61 -9.32,0 -10.9,5.85 -10.9,10.61l0 21.22 3.84 0 0 -21.01c0,-6.43 2.51,-8.02 7.06,-8.02zm21.89 0.46l0 18.34c0,4.76 1.59,10.61 10.9,10.61 9.32,0 10.9,-5.85 10.9,-10.61l0 -5.56 -3.84 0 0 5.35c0,6.43 -2.51,8.02 -7.06,8.02 -4.55,0 -7.06,-1.59 -7.06,-8.02l0 -20.89 -11.49 0 0 2.76 7.65 0zm39.4 -0.46c4.55,0 7.06,1.59 7.06,8.02l0 21.01 3.84 0 0 -21.22c0,-4.76 -1.59,-10.61 -10.9,-10.61 -9.32,0 -10.9,5.85 -10.9,10.61l0 21.22 3.84 0 0 -21.01c0,-6.43 2.51,-8.02 7.06,-8.02zm35.55 -2.3l0 21.01c0,6.43 -2.51,8.02 -7.06,8.02 -4.55,0 -7.06,-1.59 -7.06,-8.02l0 -21.01 -3.84 0 0 21.22c0,4.76 1.59,10.61 10.9,10.61 9.32,0 10.9,-5.85 10.9,-10.61l0 -18.47 7.65 0 0 -2.76 -11.49 0zm18.68 9.27l0 -9.19 -3.84 0 0 31.25 3.84 0 0 -14.83c0.38,-5.31 2.97,-6.69 7.06,-6.69 4.55,0 7.06,1.59 7.06,8.02l0 5.35 3.84 0 0 -5.56c0,-4.76 -1.59,-10.61 -10.9,-10.61 -3.17,0 -5.47,0.96 -7.06,2.26l0 0zm42.49 22.06l3.84 0 0 -21.39 -3.84 0 0 1.59c-0.38,5.31 -2.97,6.69 -7.06,6.69 -4.55,0 -7.06,-1.59 -7.06,-8.02l0 -10.19 -3.84 0 0 10.4c0,4.76 1.59,10.61 10.9,10.61 3.18,0 5.47,-0.96 7.06,-2.26l0 12.58zm21.43 -2.3c-4.55,0 -7.06,-2.84 -7.06,-8.44l0 -20.6 -3.84 0 0 20.81c0,4.76 1.59,11.03 10.9,11.03 3.68,0 6.1,-0.96 7.77,-2.42l8.02 2.38 0 -3.59 -6.02 -1.59c0.88,-1.84 1.13,-3.93 1.13,-5.81l0 -20.81 -3.84 0 0 20.6c0,5.6 -2.51,8.44 -7.06,8.44zm24.02 -21.06c0.71,-3.89 4.76,-5.81 7.52,-5.81 3.63,0 7.02,1.5 7.27,5.39 0.21,3.38 -2.67,5.89 -8.94,5.89l-11.28 0 0 2.76 11.99 0c8.4,0 9.44,3.63 9.44,5.93 0,5.35 -4.68,6.89 -8.77,6.89 -3.55,0 -8.52,-1.55 -8.52,-7.14l0 -0.33 -4.14 0 0 0.13c0,5.77 4.22,10.15 12.66,10.15 8.86,0 12.87,-4.89 12.87,-9.78 0,-4.55 -2.97,-6.89 -6.27,-7.73 4.39,-1.76 5.01,-5.01 4.93,-7.02 -0.21,-4.55 -4.34,-7.98 -11.07,-7.81 -6.69,0.13 -11.28,4.51 -11.66,8.52l3.97 -0.04zm29.66 1.3l0 -9.19 -3.84 0 0 31.25 3.84 0 0 -14.83c0.38,-5.31 2.97,-6.69 7.06,-6.69 4.55,0 7.06,1.59 7.06,8.02l0 5.35 3.84 0 0 -5.56c0,-4.76 -1.59,-10.61 -10.9,-10.61 -3.17,0 -5.47,0.96 -7.06,2.26l0 0zm41.57 -6.52l0 18.34c0,4.76 1.59,10.61 10.9,10.61 9.32,0 10.9,-5.85 10.9,-10.61l0 -5.56 -3.84 0 0 5.35c0,6.43 -2.51,8.02 -7.06,8.02 -4.55,0 -7.06,-1.59 -7.06,-8.02l0 -20.89 -11.49 0 0 2.76 7.65 0zm39.4 26.28c-4.55,0 -7.06,-2.84 -7.06,-8.44l0 -20.6 -3.84 0 0 20.81c0,4.76 1.59,11.03 10.9,11.03 3.68,0 6.1,-0.96 7.77,-2.42l8.02 2.38 0 -3.59 -6.02 -1.59c0.88,-1.84 1.13,-3.93 1.13,-5.81l0 -20.81 -3.84 0 0 20.6c0,5.6 -2.51,8.44 -7.06,8.44zm33.38 -16.54l0 9.15c0,4.68 0.96,10.19 10.07,10.19 9.11,0 9.82,-5.97 9.82,-10.19l0 -11.82 -3.93 0 0 10.9c0,6.35 -1.3,8.31 -5.89,8.31 -4.55,0 -6.1,-2.01 -6.1,-8.31l0 -10.9 -13.95 0 0 -9.82 -3.84 0 0 31.33 3.84 0 0 -18.84 9.98 0zm37.48 16.54c-4.55,0 -7.06,-2.84 -7.06,-8.44l0 -20.6 -3.84 0 0 20.81c0,4.76 1.59,11.03 10.9,11.03 3.68,0 6.1,-0.96 7.77,-2.42l8.02 2.38 0 -3.59 -6.02 -1.59c0.88,-1.84 1.13,-3.93 1.13,-5.81l0 -20.81 -3.84 0 0 20.6c0,5.6 -2.51,8.44 -7.06,8.44zm30.45 -26.74c4.55,0 7.06,1.59 7.06,8.02l0 5.77 3.84 0 0 -5.98c0,-4.76 -1.59,-10.61 -10.9,-10.61 -9.32,0 -10.9,5.85 -10.9,10.61l0 21.22 3.84 0 0 -21.01c0,-6.43 2.51,-8.02 7.06,-8.02zm28.49 26.74c-4.55,0 -7.06,-2.84 -7.06,-8.44l0 -20.6 -3.84 0 0 20.81c0,4.76 1.59,11.03 10.9,11.03 3.68,0 6.1,-0.96 7.77,-2.42l8.02 2.38 0 -3.59 -6.02 -1.59c0.88,-1.84 1.13,-3.93 1.13,-5.81l0 -20.81 -3.84 0 0 20.6c0,5.6 -2.51,8.44 -7.06,8.44zm30.46 -26.74c4.55,0 7.06,1.59 7.06,8.02l0 5.77 3.84 0 0 -5.98c0,-4.76 -1.59,-10.61 -10.9,-10.61 -9.32,0 -10.9,5.85 -10.9,10.61l0 21.22 3.84 0 0 -21.01c0,-6.43 2.51,-8.02 7.06,-8.02zm28.49 0c4.55,0 7.06,1.59 7.06,8.02l0 21.01 3.84 0 0 -21.22c0,-4.76 -1.59,-10.61 -10.9,-10.61 -9.32,0 -10.9,5.85 -10.9,10.61l0 21.22 3.84 0 0 -21.01c0,-6.43 2.51,-8.02 7.06,-8.02zm21.35 7.65l4.01 0c10.82,0 -0.54,13.2 13.7,13.2l1.21 0 0 -2.51 -1 0c-8.86,0 0.96,-13.33 -12.78,-13.33l-5.14 0 0 -7.31 -3.84 0 0 31.33 3.84 0 0 -21.39zm48.96 5.93l0 6.14c0,5.14 -3.18,6.85 -5.43,6.85 -2.21,0 -5.72,-1.25 -5.72,-6.39l0 -0.08c0,-5.26 3.64,-6.52 6.77,-6.52l4.39 0zm3.72 0l17.38 0c8.4,0 9.23,3.8 9.23,6.1 0,5.35 -4.68,7.06 -8.77,7.06 -3.55,0 -8.52,-1.55 -8.52,-7.14l0 -0.33 -4.14 0 0 0.13c0,5.77 4.22,10.15 12.66,10.15 8.86,0 12.87,-5.05 12.87,-9.94 0,-4.55 -2.76,-7.06 -6.06,-7.9 4.09,-1.34 5.01,-4.72 4.93,-6.73 -0.21,-4.55 -4.85,-7.94 -11.57,-7.77 -6.68,0.13 -11.11,3.88 -11.36,8.4l0 0.13 3.97 0 0 -0.08c0,-4.39 4.47,-5.64 7.23,-5.64 3.64,0 7.65,1.34 7.69,5.22 0.04,3.38 -2.59,5.6 -8.86,5.6l-16.67 0 0 -0.79c0,-7.1 -5.51,-12.83 -15.25,-12.83 -9.65,0 -15.17,6.01 -15.17,13.12l0 18.72 3.84 0 0 -18.05c0,-7.31 5.05,-10.99 11.32,-10.99 6.52,0 11.53,3.47 11.53,10.78l0 0.04 -4.72 0c-7.69,0 -10.44,4.68 -10.44,9.27l0 0.08c0,4.18 2.8,9.36 9.73,9.36 6.68,0 9.15,-5.56 9.15,-9.61l0 -6.35zm47.33 -13.58c4.55,0 7.06,1.59 7.06,8.02l0 21.01 3.84 0 0 -21.22c0,-4.76 -1.59,-10.61 -10.9,-10.61 -9.32,0 -10.9,5.85 -10.9,10.61l0 21.22 3.84 0 0 -21.01c0,-6.43 2.51,-8.02 7.06,-8.02zm21.35 7.65l4.01 0c10.82,0 -0.54,13.2 13.7,13.2l1.21 0 0 -2.51 -1 0c-8.86,0 0.96,-13.33 -12.78,-13.33l-5.14 0 0 -7.31 -3.84 0 0 31.33 3.84 0 0 -21.39zm26.57 -7.19l0 18.34c0,4.76 1.59,10.61 10.9,10.61 9.32,0 10.9,-5.85 10.9,-10.61l0 -5.56 -3.84 0 0 5.35c0,6.43 -2.51,8.02 -7.06,8.02 -4.55,0 -7.06,-1.59 -7.06,-8.02l0 -20.89 -11.49 0 0 2.76 7.65 0z"/>
  <path  d="M273.72 153.27c1.72,-6.84 1.7,-14.58 -0.06,-23.21 -2.71,-13.31 -29.16,-57.54 -14.02,-57.46 0,2.76 2.07,5.08 4.82,5.4 2.74,0.31 5.29,-1.48 5.91,-4.17 3.16,-14.61 -2.85,-29.67 -15.21,-38.09 2.52,7.03 -2.84,17.38 -4.47,31.12 -3.56,30.01 19.48,51.03 17.63,78.01l5.4 8.41zm-160.45 95.81c6.12,0.91 12.24,1.5 18.36,1.77l0 -9.98c-10.17,-0.41 -20.31,-1.66 -30.6,-3.74 -5.4,0 -5.39,8.21 0,8.21 2.7,0 12.15,-1.31 12.23,2 -0.97,8.77 -32.16,-4.62 -38.98,-10.43l2.86 9.01 -9.48 -1.25c7.59,6.47 45.6,22.69 45.6,12.66l0 -8.26zm34.12 1.77c6.12,-0.27 12.24,-0.86 18.36,-1.77l0 8.26c0,10.99 38.2,-6.34 45.6,-12.66l-9.48 1.25 2.86 -9.01c-6.71,5.72 -37.93,19.89 -38.98,10.43 0.09,-3.31 9.53,-2 12.23,-2 5.4,0 5.4,-8.21 0,-8.21 -10.41,2.04 -20.56,3.28 -30.59,3.71l0 10zm-62.15 -179.56l108.55 0 0 70.06c0,29.86 -24.42,54.27 -54.27,54.27l0 0c-29.86,0 -54.27,-24.42 -54.27,-54.27l0 -70.06zm105.78 56.88l-23.04 0 0 4.13c0,14.65 -11.34,26.89 -25.64,28.33l0 32.15c-0.94,0.05 -1.88,0.08 -2.82,0.08l0 0c-0.95,0 -1.89,-0.03 -2.82,-0.08l0 -32.15c-14.3,-1.44 -25.64,-13.68 -25.64,-28.33l0 -4.13 -23.04 0 0 -5.65 23.04 0 0 -25.43 25.64 0 0 -23.03 5.65 0 0 23.03 25.64 0 0 25.43c7.68,0 15.36,0 23.04,0l0 5.65zm-74.32 0l0 4.13c0,12.48 10.34,22.82 22.82,22.82 12.48,0 22.82,-10.34 22.82,-22.82l0 -4.13c-30.42,0 -45.64,0 -45.64,0zm0 -25.43l0 19.84 4.96 -3.95 4.96 3.95c-3.41,2.39 -5.11,3.58 -5.11,3.58 5.88,-1.07 11.19,-4.71 15.92,-10.92 0.87,-0.41 1.92,-0.54 3.16,-0.39 7.76,0.95 8.24,7.41 21.74,7.7l0 -19.81 -45.64 0zm-20.49 42.53c1.55,-2.95 3.49,-4.84 5.85,-5.68 0.48,-5.75 -9.65,-1.45 -5.85,5.68zm12.75 7.64c0.54,-0.32 2.06,1.3 2.33,1.76 0.75,1.31 -1.22,2.45 -1.97,1.14 -0.27,-0.46 -0.9,-2.58 -0.36,-2.9zm-3.12 4.06c0.16,-0.61 2.38,-0.54 2.89,-0.4 1.46,0.39 0.87,2.59 -0.59,2.2 -0.52,-0.14 -2.46,-1.19 -2.3,-1.79zm8.2 -4.74c0.61,0.16 0.54,2.38 0.41,2.89 -0.39,1.46 -2.59,0.87 -2.2,-0.59 0.14,-0.51 1.19,-2.46 1.79,-2.3zm1.86 27.13c3.33,0.14 5.94,-0.6 7.84,-2.22 5.22,2.46 -3.56,9.08 -7.84,2.22zm-0.25 -14.86c0.55,-0.31 -0.09,-2.44 -0.36,-2.9 -0.75,-1.31 -2.73,-0.17 -1.97,1.14 0.27,0.46 1.79,2.07 2.33,1.76zm-5.08 0.67c0.61,0.16 1.66,-1.79 1.79,-2.3 0.39,-1.46 -1.81,-2.05 -2.2,-0.59 -0.14,0.51 -0.2,2.73 0.4,2.89zm8.2 -4.73c0.16,-0.61 -1.79,-1.66 -2.3,-1.8 -1.46,-0.39 -2.05,1.81 -0.59,2.2 0.51,0.14 2.73,0.2 2.89,-0.4zm-3.98 -3.17c0.28,0.5 0.9,0.8 1.55,0.42 0.46,-0.27 2.07,-1.79 1.76,-2.33 -0.31,-0.54 -2.43,0.09 -2.9,0.36 -0.65,0.38 -0.7,1.06 -0.41,1.55zm-4.21 2.43l0 0c0.55,0.95 1.76,1.28 2.71,0.73 0.95,-0.55 1.28,-1.76 0.73,-2.71 -0.55,-0.95 -1.76,-1.28 -2.71,-0.73 -0.95,0.55 -1.28,1.76 -0.73,2.71zm-4.08 2.35l0 0c0.31,0.55 2.44,-0.09 2.9,-0.36 0.65,-0.38 0.7,-1.06 0.41,-1.55 -0.28,-0.49 -0.9,-0.8 -1.55,-0.42 -0.46,0.27 -2.07,1.79 -1.76,2.33l0 0zm12.09 -6.98c2.01,3.47 0.82,7.92 -2.66,9.92 -3.47,2.01 -7.92,0.82 -9.92,-2.66 -2.01,-3.48 -0.82,-7.92 2.66,-9.92 3.47,-2.01 7.92,-0.82 9.93,2.66zm49.72 -2.18c0.75,0 1.35,0.6 1.35,1.35 0,0.75 -0.61,1.35 -1.35,1.35 -0.75,0 -1.35,-0.6 -1.35,-1.35 0,-0.75 0.6,-1.35 1.35,-1.35zm-0.76 3.45l1.52 0 0 18.85 -1.52 0 0 -18.85zm6.14 9.01c-0.92,2.73 -2,4.79 -3.24,6.16 -0.05,-3.68 -0.05,-7.37 0,-11.05 1.45,-1.22 2.2,-3.17 2.7,-4.94 0.42,-1.51 0.47,-2.04 1.84,-3.26 1.2,-1.08 2.71,-1.64 4.44,-2 1.22,-0.25 3.65,-0.48 4.56,-1.33 0.37,-0.34 0.54,-0.79 0.61,-1.28 0.32,-2.27 -3.14,-2.93 -4.77,-3.21 -1.22,-0.21 -2.67,-0.57 -3.46,-1.62 -1.44,-1.91 0.28,-4.74 1.4,-6.36 0.74,-1.07 2.09,-0.14 1.35,0.93 -0.58,0.84 -2.25,3.36 -1.44,4.44 0.47,0.62 1.71,0.86 2.42,0.99 0.66,0.11 1.31,0.25 1.96,0.43 2.23,0.63 4.54,1.94 4.16,4.63 -0.48,3.37 -3.81,3.43 -6.46,3.98 -1,0.21 -1.92,0.48 -2.72,0.93 -1.31,0.74 -2.45,2.8 -0.91,3.63 1.71,0.93 2.61,-1.44 4.34,-2.09 2.05,-0.78 3.59,0.93 4.81,3.61 -0.56,1.49 -1.02,2.62 -1.38,3.38 -0.24,-0.64 -0.63,-1.87 -1.1,-2.9 -1.75,-3.83 -2.23,-0.35 -3.37,1.3 -1.26,1.82 -3.18,3.7 -5.74,5.62zm2.71 1.65c1.31,-0.98 2.25,0.11 1.86,1.31 -0.39,1.19 -1.55,1.18 -1.65,2.44 -0.04,0.54 0.17,1.06 0.57,1.42 2.04,-2.55 3.67,-4.94 4.88,-7.17 -1.34,-1.14 -3.21,-1.41 -4.82,-0.69 -1.61,0.72 -2.65,2.3 -2.69,4.06 1.24,-0.91 1.85,-1.37 1.85,-1.37zm-11.03 14.09c-1.16,0.49 -1.52,1.22 -1.1,2.2 2.85,-1.76 5.17,-3.43 6.95,-5.01 -2.87,-3.44 -7.73,-0.44 -5.85,2.81zm-10.52 -11.82c0.74,2.23 2.88,3.68 5.22,3.54 -0.12,1.46 -0.7,4.29 -1.72,8.5 -2.37,-0.1 -3.51,0.7 -3.44,2.39 0,0 1.54,-0.11 4.63,-0.35 3.17,-3.78 5.43,-6.46 6.78,-8.03 0.05,-6.54 0.69,-11.46 -2.99,-17.3 -1.5,0.04 -3.01,0.04 -4.51,0 -1.67,1.31 -2.99,5.06 -3.97,11.24zm0.98 2.99c0.14,2.35 0.9,4.66 2.29,6.93 0,0 0.28,-1.81 0.82,-5.44 -1.1,-0.35 -2.15,-0.85 -3.11,-1.5zm2.84 -17.04l1.5 1.06 0.86 -1.92 0.86 1.92 1.5 -1.06 -0.04 2.13c-1.55,0 -3.09,0 -4.63,0l-0.04 -2.13zm10.34 -6.65l2.15 -0.4 0 2.2 -2.15 -0.4 0.39 2.15 -2.2 0 0.39 -2.15 -2.15 0.4 0 -2.2 2.15 0.4 -0.39 -2.15 2.2 0 -0.39 2.15zm12.14 -64.78c2.56,-0.33 5.23,1.38 3.64,4.14 -0.21,-2.09 -3.29,-2.71 -3.48,1.7 10.97,0.15 4.93,17.05 6.8,26 -1.98,-0.89 -3.31,-2.19 -3.2,-5.27l0.41 -11.77c0.07,-2.31 -1.3,-2.47 -1.46,-1.46 -0.21,3.41 -0.31,9.64 -0.54,14.16 -1.98,-0.89 -2.65,-1.98 -2.54,-5.06l0.32 -10.49c0.07,-2.31 -1.3,-2.48 -1.46,-1.46 -0.22,3.41 -0.24,8.59 -0.45,12.76 -1.98,-0.88 -2.66,-1.87 -2.55,-4.95l0.19 -7.64c0.07,-2.31 -1.1,-2.8 -1.94,-1.96 -0.32,0.38 -0.56,0.8 -0.77,1.23 -3.05,6.26 -9.17,0.17 -2.89,-2.89 0.43,-0.21 0.86,-0.45 1.23,-0.77 0.84,-0.84 0.35,-2.01 -1.96,-1.94l-7.64 0.19c-3.08,0.11 -4.06,-0.57 -4.94,-2.55 4.16,-0.21 9.35,-0.23 12.76,-0.45 1.01,-0.16 0.85,-1.53 -1.46,-1.46l-10.49 0.33c-3.08,0.11 -4.17,-0.57 -5.06,-2.54 4.52,-0.23 10.74,-0.33 14.16,-0.54 1.01,-0.16 0.85,-1.53 -1.46,-1.46l-11.77 0.41c-3.08,0.11 -4.38,-1.22 -5.27,-3.2 8.95,1.87 25.85,-4.17 26,6.8 4.4,-0.2 3.79,-3.27 1.7,-3.48 2.76,-1.59 4.47,1.07 4.14,3.64zm-75.99 13.28c0.48,1.24 0.43,2.17 0.05,3.9 0.18,0 -0.17,0.02 0,0 2.32,-0.33 3.68,-2.91 4.74,-1.88 -0.99,3.29 -5.73,5.08 -8.91,5.45 2.38,-2.63 3.75,-5.12 4.12,-7.47zm-6.78 -13.85l1.24 -1.8 1.56 1.56 -1.8 1.24 1.8 1.24 -1.56 1.56 -1.24 -1.8 -1.24 1.8 -1.56 -1.56 1.8 -1.24 -1.8 -1.24 1.56 -1.56 1.24 1.8zm2.55 3.56c0.53,-0.53 1.38,-0.53 1.91,0 0.53,0.53 0.53,1.38 0,1.91 -0.53,0.53 -1.38,0.53 -1.91,0 -0.53,-0.53 -0.53,-1.38 0,-1.91zm5.17 1.1c-1.43,-7 3.1,-15.12 9.46,-9.7 -0.27,1.31 -0.98,2.49 -2.01,3.34 1.1,0.6 1.88,1.65 2.13,2.88 0.26,1.23 -0.03,2.5 -0.8,3.49 2.03,0.87 3.68,1.33 5.24,1.03 1.38,-0.27 1.6,-0.68 2.62,-1.41 0.63,-0.46 1.36,-0.7 2.02,0.45 -2.06,2.53 -6.09,3.64 -12.11,3.34 -2.58,2.25 -5.28,3.91 -8.08,4.99 0.07,1.98 -2.02,5.03 -6.27,9.17 0.63,3.59 0.29,6.5 -1.29,7.64 -1.44,1.04 -3.46,0.72 -2.07,-1.57 0.93,-1.53 2.83,-2.91 1.23,-4.7 -2.97,-3.41 3.72,-5.23 1.31,-8.56 -0.45,0.48 -0.89,0.95 -1.33,1.44 -0.83,0.93 -2.02,1.56 -3.28,1.23 -0.98,-0.25 -1.67,-1.02 -2.05,-1.93 -0.48,-1.19 -0.43,-2.59 -0.17,-3.83 0.19,-0.89 0.53,-1.75 0.91,-2.57 0.63,-1.35 1.77,-3.27 1.79,-4.77 0.01,-0.56 -0.14,-1.01 -0.39,-1.38 -0.78,0.39 -1.72,0.3 -2.41,-0.25 -0.72,-0.58 -1.01,-1.54 -0.72,-2.42 1.78,-0.25 3.51,0.64 4.37,2.19 0.33,0.57 0.47,1.21 0.46,1.88 -0.03,2.57 -2.2,5.02 -2.73,7.59 -0.2,0.97 -0.27,2.13 0.11,3.07 0.21,0.52 0.59,1.01 1.16,1.16 1.59,0.41 2.74,-1.98 3.5,-3.07 1.93,-2.76 3.87,-4.96 9.4,-8.75zm37.22 52.8c0,1.83 -1.72,3.31 -3.83,3.31 -2.12,0 -3.83,-1.48 -3.83,-3.31l7.66 0zm9.03 0c0,1.83 -1.72,3.31 -3.83,3.31 -2.12,0 -3.83,-1.48 -3.83,-3.31l7.66 0zm4.51 -6.19c0,1.83 -1.71,3.31 -3.83,3.31 -2.11,0 -3.83,-1.48 -3.83,-3.31l7.66 0zm-9.03 0c0,1.83 -1.72,3.31 -3.83,3.31 -2.12,0 -3.83,-1.48 -3.83,-3.31l7.66 0zm-9.03 0c0,1.83 -1.71,3.31 -3.83,3.31 -2.11,0 -3.83,-1.48 -3.83,-3.31l7.66 0zm-9.03 0c0,1.83 -1.72,3.31 -3.83,3.31 -2.12,0 -3.83,-1.48 -3.83,-3.31l7.66 0zm-0.39 -24.28l20.21 0c0,2.24 -1.5,4.15 -3.54,4.78 -1.59,-0.92 -3.24,-1.55 -5.28,-1.81 -1.39,-0.17 -2.81,-0.06 -4.08,0.54 -0.81,0.38 -1.07,1.48 -2.31,1.48 -2.75,0 -5,-2.25 -5,-5zm4.91 30.48c0,1.83 -1.72,3.31 -3.83,3.31 -2.12,0 -3.83,-1.48 -3.83,-3.31l7.66 0zm-32.34 23.99c-3.29,-1.06 -5.29,-4.39 -4.67,-7.79l0.05 -0.35 3.6 2.48c-1.87,-2.2 -3.04,-4.3 -3.67,-6.26 -0.98,-0.44 -1.93,-0.85 -2.85,-1.21 -0.21,0.41 -0.67,0.72 -1.38,0.91 -0.18,-1.5 -0.29,-2.52 -0.43,-3.69 1.35,0.66 2.3,1.25 4.18,1.93l0 0.01c-0.04,-0.31 -0.07,-0.62 -0.09,-0.92 -1.39,-0.65 -2.78,-1.22 -4.18,-1.8l-0.25 -2.14c1.48,0.65 3.07,1.35 4.5,1.89 0.94,-6.76 8.45,-10.19 11.14,-6.58 0.92,1.23 0.86,2.92 -0.14,4.08 0.18,-2.02 -3.33,-4.33 -3.86,0.4 -1.41,12.68 -1.96,19.03 -1.96,19.03 -0.73,3.38 1.16,6.78 4.41,7.94l0.32 0.13 -0.35 -4.36c0.97,2.72 2.21,4.78 3.59,6.31 -0.11,1.07 -0.23,2.1 -0.38,3.07 -0.46,-0.03 -0.96,0.22 -1.48,0.74 1.21,0.9 2.04,1.51 2.98,2.21 0.11,-1.5 0.07,-2.62 0.42,-4.58l-0 -0.01c0.25,0.19 0.5,0.37 0.75,0.54 -0.13,1.53 -0.33,3.02 -0.53,4.52l1.73 1.28c0.17,-1.61 0.37,-3.34 0.61,-4.85 6.32,2.57 13.05,-2.22 11.27,-6.36 -0.6,-1.41 -2.11,-2.2 -3.61,-1.92 1.84,0.85 2.09,5.05 -2.27,3.14 -11.68,-5.12 -17.46,-7.82 -17.46,-7.82zm55.93 -2.92l6.3 0c-0.27,1.42 -0.51,1.51 -2.07,1.51l0 -0 -0.29 1.18c-0.1,0.42 -0.35,0.79 -0.79,0.79 -0.43,0 -0.68,-0.37 -0.79,-0.79l-0.29 -1.17c-1.54,0.01 -1.79,-0.09 -2.07,-1.51zm-25.95 -37.88c1.6,-0.3 6.42,-2.78 7.32,-3.37 -0.72,2.28 -0.91,2.74 0.27,2.41 0.81,-0.23 3.72,-1.11 4.28,-1.48 0.36,-0.24 0.25,-0.5 -0.72,-0.72 -2.69,-0.54 -4.25,-1.26 -4.75,-3.62 -0.95,1.6 -3.87,4.95 -6.39,6.78zm-24.19 104.33c0.18,2.05 -0.92,4.1 -2.89,5.01l-2.3 1.08c-2.52,1.17 -5.53,0.07 -6.7,-2.44 -1.17,-2.51 -0.08,-5.53 2.44,-6.7l2.3 -1.08c1.97,-0.92 4.24,-0.45 5.7,1.01l2.13 -0.99c-0.17,-2.05 0.92,-4.1 2.89,-5.01l2.3 -1.07c1.97,-0.92 4.24,-0.45 5.7,1.01l2.13 -0.99c-0.18,-2.05 0.92,-4.1 2.89,-5.01l1.74 -0.81 1.4 3.01 -1.74 0.81c-0.75,0.35 -1.13,1.17 -0.95,1.95l0.31 0.65c0.48,0.63 1.36,0.87 2.1,0.52l1.74 -0.81 1.4 3.01 -1.74 0.81c-1.97,0.92 -4.24,0.44 -5.7,-1.01l-2.13 0.99c0.18,2.05 -0.92,4.1 -2.89,5.01l-2.3 1.07c-1.97,0.92 -4.24,0.45 -5.7,-1.01l-2.13 0.99zm4.01 -4.17l0.31 0.66c0.48,0.63 1.36,0.87 2.1,0.52l2.3 -1.07c0.86,-0.4 1.23,-1.43 0.83,-2.29 -0.4,-0.86 -1.43,-1.23 -2.29,-0.83l-2.3 1.08c-0.75,0.35 -1.13,1.17 -0.95,1.94zm-7.48 3.89l0 0c0.4,0.86 0.03,1.89 -0.83,2.29l-2.3 1.07c-0.86,0.4 -1.89,0.03 -2.29,-0.83 -0.4,-0.86 -0.03,-1.89 0.83,-2.29l2.3 -1.07c0.86,-0.4 1.89,-0.03 2.29,0.83zm66.96 0.29c-0.18,2.05 0.92,4.1 2.89,5.01l2.3 1.08c2.52,1.17 5.53,0.07 6.71,-2.44 1.17,-2.51 0.07,-5.53 -2.44,-6.7l-2.3 -1.08c-1.97,-0.92 -4.24,-0.45 -5.7,1.01l-2.13 -0.99c0.18,-2.05 -0.92,-4.1 -2.89,-5.01l-2.3 -1.07c-1.97,-0.92 -4.24,-0.45 -5.7,1.01l-2.13 -0.99c0.18,-2.05 -0.92,-4.1 -2.89,-5.01l-1.74 -0.81 -1.4 3.01 1.74 0.81c0.75,0.35 1.13,1.17 0.95,1.95l-0.31 0.65c-0.48,0.63 -1.36,0.87 -2.1,0.52l-1.74 -0.81 -1.4 3.01 1.74 0.81c1.97,0.92 4.24,0.44 5.7,-1.01l2.13 0.99c-0.18,2.05 0.92,4.1 2.89,5.01l2.3 1.07c1.97,0.92 4.24,0.45 5.7,-1.01l2.13 0.99zm-4.01 -4.17l-0.31 0.66c-0.48,0.63 -1.36,0.87 -2.1,0.52l-2.3 -1.07c-0.86,-0.4 -1.23,-1.43 -0.83,-2.29 0.4,-0.86 1.43,-1.23 2.29,-0.83l2.3 1.08c0.75,0.35 1.13,1.17 0.95,1.94zm7.48 3.89l0 0c-0.4,0.86 -0.02,1.89 0.83,2.29l2.3 1.07c0.86,0.4 1.89,0.03 2.29,-0.83 0.4,-0.86 0.03,-1.89 -0.84,-2.29l-2.3 -1.07c-0.86,-0.4 -1.89,-0.03 -2.29,0.83zm46.11 -141.51c-0.28,2.29 -1.27,3.91 -2.94,4.83 -1.97,1.08 -4.32,0.86 -5.37,0.36 -2.3,-1.1 -3.33,-3.01 -3.63,-3.68 0.03,-0.17 0.07,-0.33 0.09,-0.51 0.63,-4.29 -0.69,-10.48 -1.71,-14.32 1.78,1.65 3.66,2.3 4.85,2.55 0.62,0.13 1.24,0.19 1.83,0.19 1.44,0 2.75,-0.38 3.67,-1.1 0.43,-0.34 0.8,-0.69 1.13,-1.04 0.83,2.31 2.65,8.05 2.08,12.73zm-89.77 -24.46c-3.89,1.89 -10.19,-4.24 -12.83,-7.37 1.69,-2.47 1.48,-6.86 0.89,-10.52 2.65,3.19 6.39,6.83 9.68,6.83 0.55,0 1.09,-0.1 1.61,-0.33 1.05,-0.45 1.77,-1.27 2.26,-2.31 1.06,4.04 2.21,11.85 -1.61,13.69zm-15.56 -7.92c-2.77,1.2 -8.48,-5.1 -11.74,-10.06 1.59,-2.37 1.54,-6.52 1.12,-9.95 2.42,3.19 5.8,6.71 8.93,6.71 0.47,0 0.94,-0.08 1.4,-0.25 0.26,-0.1 0.5,-0.23 0.72,-0.37 1.24,4.76 2.41,12.7 -0.44,13.93zm-14.5 -10.6c-2.62,1 -7.74,-5.19 -10.58,-9.98 0.33,-0.08 0.67,-0.18 1.01,-0.3 2.9,-1.05 4.8,-3.01 5.71,-4.15 1,0.45 2.7,1.01 4.71,0.85 1.02,4.43 1.97,12.52 -0.84,13.58zm-0.65 14.9c-2.52,0.85 -7.1,-5.01 -9.73,-9.71 1.32,-2.42 1.25,-6.29 0.86,-9.51 2.42,3.19 5.8,6.71 8.93,6.71 0.43,0 0.85,-0.08 1.26,-0.22 0.96,5.14 1.14,11.89 -1.33,12.73zm-45.43 17.74c-3.8,2.49 -8.57,2.67 -11.34,2.51 4.15,-4.62 6.77,-9.62 7.56,-11.24 3.78,-0.91 8.39,-6.15 9.96,-8.05 0.09,0.01 0.17,0.02 0.26,0.02 2.6,0 6.26,-2.42 9.51,-5.09 -1.57,4.18 0,0 -2.7,7.39 -4.25,5.51 -9.81,12.21 -13.26,14.48zm-30.88 8.88c7.2,-6.53 13.4,-17.17 15.13,-20.28 0.19,0.03 0.39,0.05 0.59,0.05 2.22,0 5.02,-1.86 7.46,-3.96 -0.75,2.4 -0.86,4.89 1.12,6.2 0.11,0.07 0.22,0.13 0.33,0.18 -2.47,4.63 -11.74,20.05 -24.63,17.79zm-6.11 1.68c-4.17,2.26 -8.9,2.38 -11.73,2.18 12.15,-10.51 17.56,-26.02 18.95,-30.58 0.15,1.01 0.66,1.84 1.48,2.4 0.48,0.33 1.05,0.48 1.67,0.48 2.66,0 6.36,-2.66 9.41,-5.32 -1.08,2.83 -1.74,5.91 -0.48,7.67 -1.92,3.44 -10.69,18.5 -19.3,23.18zm14.81 -38.82c0.04,-0.04 0.06,-0.1 0.09,-0.15 0.81,-0.58 1.62,-1.26 2.41,-1.97 -0.49,1.31 -0.75,2.58 -0.6,3.68 0.15,1.11 0.69,2.01 1.58,2.61 0.5,0.34 1.09,0.49 1.73,0.5 -4.25,3.97 -8.79,7.12 -10.04,6.27 -0.3,-0.2 -0.46,-0.48 -0.52,-0.88 -0.32,-2.4 3.11,-7.43 5.35,-10.05zm15.76 8.05c0.12,0.08 0.24,0.15 0.37,0.21 -3.87,3.96 -8.25,7.17 -9.61,6.26 -1.46,-0.96 0.53,-6.61 3.3,-11.27 0.02,-0.03 0.02,-0.06 0.03,-0.09 0.03,-0.05 0.05,-0.11 0.07,-0.16 1.92,-1.14 3.92,-2.72 5.69,-4.29 -1.43,3.61 -2.31,7.73 0.15,9.36zm-6.33 -17.09c0.53,0.27 1.1,0.51 1.73,0.68 2.96,0.85 5.66,0.37 7.06,-0.02 0.14,0.25 0.33,0.54 0.55,0.84 -0,0.01 -0.01,0.01 -0.01,0.01 -5.36,5.67 -12.26,10.96 -14,9.79 -0.35,-0.24 -0.53,-0.55 -0.6,-1.02 -0.33,-2.44 2.87,-7.34 5.27,-10.29zm16.84 19.47c-3.02,3.57 -6.69,6.73 -8.61,6.97 -0.04,-0 -0.08,0.01 -0.12,0.01 -0.27,0.02 -0.51,-0.03 -0.7,-0.15 -1.52,-1.01 0.48,-5.86 2.58,-9.15 2.19,-0.84 4.65,-2.86 6.8,-4.97 -0.94,2.81 -1.33,5.67 0.04,7.28zm-5.92 -16.23c0.82,0.71 1.86,1.37 3.17,1.77 2.78,0.86 4.98,0.26 6.22,-0.29 -0.09,0.14 -0.19,0.33 -0.31,0.54 -0.01,0.01 -0.02,0.01 -0.03,0.02 -3.69,4.56 -8.32,8.89 -10.89,9.85 -0.13,0.02 -0.26,0.05 -0.38,0.11 -0.46,0.12 -0.85,0.11 -1.11,-0.06 -1.72,-1.14 0.78,-7.54 3.33,-11.94zm12.35 53.66l-0.09 0.12 0 0 -4.29 5.72c-2.07,2.76 -1.94,6.48 0.33,9.08 3.69,4.23 7.38,8.46 11.07,12.68 2.06,2.36 2.91,5.26 2.46,8.36 -0.21,1.43 -0.37,2.88 -0.45,4.33 -0.16,3.1 0.02,7.15 2.01,9.7 1.55,1.98 3.91,2.63 6.3,2.69 -0.28,-2.28 -0.42,-4.59 -0.42,-6.94l0 -49.6c-1.73,-1.23 -5.04,-3.83 -8.19,-7.73 -2.91,3.86 -5.81,7.73 -8.72,11.59zm16.91 -6.71l0 -20.56 4.01 0c-1.47,-2.42 -2.45,-5.16 -2.95,-6.77 -1.37,2.32 -5.32,8.44 -9.13,8.44 -0.45,0 -0.89,-0.09 -1.32,-0.27 -2.18,-0.92 -2.75,-3.89 -2.71,-6.89 -0.77,5.93 0.7,12.44 3.6,16.87 2.81,4.29 6.25,7.4 8.51,9.16zm6.79 -20.56l7.3 0c1.44,-2.37 2.2,-5.8 2.47,-7.81 -4.03,-0.87 -8.1,-7.09 -9.86,-10.1 -0.28,1.96 -1.27,7.37 -3.68,9.73 0.57,2.01 1.94,5.7 3.77,8.19zm9.86 0l6.91 0c-2.09,-1.96 -3.85,-4.42 -4.96,-6.14 -0.31,1.62 -0.9,4.01 -1.94,6.14zm10.64 0l4.63 0c2.4,-2.29 2.28,-8.55 1.86,-12.19 -0.43,0.15 -0.88,0.24 -1.33,0.24 -3.58,0 -7.69,-4.3 -10.35,-7.66 0.42,4 0.35,9.14 -2.28,11.11 1.47,2.44 4.5,6.69 7.47,8.5zm7.97 0l14.35 0c-0.03,-1.63 -0.16,-3.15 -0.32,-4.23 -0.72,0.28 -1.46,0.42 -2.21,0.42 -3.96,0 -8.17,-3.52 -10.83,-6.22 0.16,2.9 0.04,6.76 -1.28,9.56 0.01,0.02 0.02,0.02 0.03,0.04 0.07,0.13 0.16,0.28 0.25,0.43zm16.67 0l7.16 0c-0.57,-0.35 -1.11,-0.77 -1.59,-1.28 -2.18,-2.26 -2.99,-5.56 -2.29,-9.3 0.3,-1.61 0.9,-3.17 1.63,-4.61l0.01 -0.02c-1.03,0.69 -2.29,0.71 -3.34,0.06 0.31,3.45 0.04,7.35 -2.19,9.6 0.07,0.12 0.13,0.26 0.15,0.4 0.09,0.54 0.41,2.62 0.46,5.15zm-4.1 -32.89c-0.11,-0.3 -0.22,-0.59 -0.34,-0.88 -0.35,0.31 -0.75,0.58 -1.21,0.75 -0.46,0.17 -0.93,0.25 -1.4,0.25 -3.14,0 -6.52,-3.52 -8.93,-6.71 0.37,3.01 0.45,6.59 -0.61,9.01 0.02,0.04 0.05,0.07 0.06,0.11 0.04,0.12 0.1,0.33 0.17,0.59 3.28,4.92 8.86,11.01 11.59,9.83 2.66,-1.15 1.81,-8.17 0.68,-12.97zm-44.84 -2.1c-0.1,4.11 -1.03,8.54 -2.75,12.56 0.02,-0.01 0.03,-0.02 0.03,-0.04 1.88,1.88 3.71,3.06 4.98,2.58 2.98,-1.13 1.73,-10.15 0.66,-14.34 -0.01,-0.03 0,-0.05 -0,-0.07 -0.02,-0.08 -0.01,-0.15 -0.01,-0.23 0,-0.05 -0.01,-0.09 -0.01,-0.13 -0.11,0 -0.22,0.01 -0.33,0.01 -0.95,0 -1.81,-0.12 -2.54,-0.28 0,-0.02 -0.01,-0.04 -0.01,-0.06zm-3.75 14.66c-0.73,1.39 -1.56,2.72 -2.49,3.93 0.01,-0.01 0.02,-0.02 0.02,-0.03 0.82,3.47 2.28,7.06 3.73,7.09 0,0 0.01,0 0.01,0 1.66,0 3.18,-4.46 3.82,-8.2 -1.71,-0.13 -3.48,-1.25 -5.11,-2.75 0.01,-0.01 0.01,-0.03 0.01,-0.04zm-4.28 5.98c-2.7,2.74 -1.74,1.51 -4.44,5.14 -0.54,3.73 -0.54,7.86 0.98,8.51 1.81,0.76 5.24,-3.35 7.36,-6.83 -1.93,-1.14 -3.16,-4.17 -3.91,-6.8 0.01,-0.01 0.01,-0.01 0.01,-0.01zm-3.41 -5.63c0.33,-1.08 0.6,-2.14 0.78,-3.18 -1.41,0.86 -3.24,1.59 -5.44,1.59 -0.22,0 -0.44,-0.01 -0.66,-0.02 -1.89,-0.13 -3.33,-0.86 -4.4,-1.69 -2.52,4.4 -4.94,10.67 -3.24,11.79 1.57,1.04 7.61,-3.32 12.97,-8.49zm1.09 -6.22c0.14,-6.75 -3.77,-12.11 -14.36,-13.56 -6.39,-0.88 -13.31,0.89 -20.75,5.3 0.01,0 0.02,0 0.03,-0 0.79,1.01 2.34,2.66 4.62,3.32 3.47,0.99 6.54,-0.25 6.57,-0.27l1.09 -0.45 0.42 1.1c0.01,0.03 1.21,2.99 4.33,3.97 3.17,0.99 5.25,-0.53 5.27,-0.55l1.08 -0.81 0.62 1.2c0.06,0.11 1.55,2.87 4.81,3.08 2.86,0.2 5.06,-1.26 6.26,-2.33zm-37.02 -7.07c-0.56,0.36 -1.13,0.74 -1.7,1.14 -2.98,2.06 -5.75,4.23 -8.33,6.51 0.04,-0.01 0.08,-0.03 0.11,-0.06 -0.77,2.31 -0.98,4.15 -0.2,4.67 1.35,0.89 6.99,-3.79 12.15,-10.06 -0.92,-0.77 -1.59,-1.57 -2.03,-2.17 0,-0 0.01,-0.01 0.01,-0.02zm-12.78 10.2c-2.74,2.65 -5.24,5.44 -7.51,8.34 0.03,-0.01 0.06,-0.03 0.08,-0.06 -1.25,3.05 -1.77,5.69 -0.82,6.32 1.31,0.87 5.77,-2.79 9.63,-7.13 0.57,-1.1 1.25,-2.17 1.9,-3.12 -0.12,0.01 -0.24,0.04 -0.36,0.04 -0.55,0 -1.06,-0.13 -1.51,-0.43 -1.21,-0.8 -1.55,-2.23 -1.43,-3.9 0.01,-0.01 0.02,-0.03 0.03,-0.06zm-10.95 13.08c-11.05,16.52 -15.18,36.14 -14.06,56.17 1.93,34.41 17.5,55.12 28.82,85.62 6.37,-0.84 9.65,-7.59 7.17,-13.48 -10.74,-26.58 -24.74,-50.61 -24.13,-80.43 0,-2.84 3.29,-2.97 3.29,0 -1.02,28.41 13.1,52.49 23.36,77.89 5.19,-4.34 6.14,-10.52 2.85,-18.55 -8.61,-23.64 -18.3,-46.28 -16.24,-72.6 0.16,-2.84 3.45,-2.77 3.28,0.19 -2.4,25.59 7.66,47.91 16.06,71.27 5.16,-3.04 6.53,-8.12 4.1,-15.38 -6.3,-21.84 -12.6,-43.05 -9.15,-66.7 -3.59,2.93 -7.91,5.1 -12.85,5.1 -1.57,0 -3.21,-0.23 -4.9,-0.72 -0.93,0.71 -1.88,1.33 -2.82,1.85 -3.76,2.04 -7.84,2.54 -10.91,2.54 -2.03,0 -3.61,-0.22 -4.39,-0.35 -0.81,0.6 -1.64,1.19 -2.5,1.74 0.17,-1.06 0.35,-2.12 0.55,-3.17 11.65,-8.47 17.83,-22.33 20.27,-29.08 -1.52,1.16 -3.15,1.98 -4.74,1.98 -0.59,0 -1.14,-0.14 -1.62,-0.47 -1.07,-0.71 -1.46,-1.92 -1.45,-3.34 0.01,-0.01 0.02,-0.04 0.02,-0.07zm28.56 22.4c0.16,0.37 0.22,0.85 0.15,1.43 -3.93,23.32 2.91,45.08 9.32,67.14 2.99,-1.25 5.84,-4.32 7.06,-8.17 0.49,-1.56 0.72,-3.24 0.58,-4.98 -1.17,-8.07 9.29,-2.97 3.67,10.42 -7.5,18.02 -15.63,36.14 -22.29,54.47 -3.37,9.28 5.51,11.77 8.61,4.72 5.43,-12.38 10.1,-25.02 15.01,-37.62 0.4,-1.62 3.06,-1.1 2.53,0.81 -4.89,13.88 -9.5,28.52 -14.62,42.25 -3.38,9.05 7.27,14.14 9.74,2.88 2.65,-12.09 6.91,-25.28 10.2,-37.44 0.69,-2.56 4.02,-2.32 3,1.96 -7.07,29.66 -9.78,42.23 -9.78,42.23 -3.62,12.08 10.82,14.38 11.41,1.85 3.98,-24.38 5.35,-35.32 5.35,-35.32 0.11,-0.51 0.18,-0.97 0.26,-1.37 0.56,-2.68 3.64,-1.93 3.7,0.59 0.01,0.54 -0.05,1.19 -0.19,2 -3.64,25.76 -4.98,39.47 -4.98,39.47 -2.35,10.72 12.14,14.48 12.95,-0.32 0.17,-3.06 0.23,-6.01 0.28,-9.08 0.3,-18.34 0.44,-29.56 0.44,-29.56 -0.03,-7.88 -0.04,-11.82 -0.04,-11.82l0 -0.01c-5.94,-7.32 -10.12,-16.13 -11.87,-25.75 -3.56,0.01 -7.01,-0.96 -9.32,-3.93 -3.4,-4.35 -2.97,-11.28 -2.21,-16.47 0.32,-2.17 -0.26,-4.13 -1.7,-5.79 -3.69,-4.23 -7.38,-8.46 -11.07,-12.68 -3.27,-3.75 -3.47,-9.16 -0.48,-13.13l13.68 -18.22c-0.07,-0.11 -0.15,-0.21 -0.22,-0.32 -2.65,-4.05 -4.19,-9.71 -4.13,-15.28 -3.96,4.95 -8.51,10.16 -11.64,12.21 -3.67,2.4 -7.99,2.94 -11.1,2.94 -0.87,0 -1.63,-0.04 -2.27,-0.1l-0.01 0zm107.27 -12.41l3.84 0c-0.57,-0.34 -1.1,-0.74 -1.58,-1.22 -0.12,-0.12 -0.24,-0.25 -0.36,-0.39 -0.45,0.51 -1.08,1.1 -1.9,1.6zm11.87 0l5.18 0c-0.98,-0.54 -1.95,-1.28 -2.77,-2.23 -0.49,0.68 -1.29,1.55 -2.41,2.23zm14.22 0l4.3 0c-0.54,-0.45 -1.22,-1.14 -1.85,-2.07 -0.61,0.74 -1.43,1.48 -2.45,2.07zm16.63 0l3.88 0 0 2.97 0.05 0.01 0.01 0 0.01 0c1.16,0.21 2.29,0.05 3.1,-0.26 2.38,-0.9 3.6,-3.34 3.95,-4.17 -1.14,-4.62 -0.19,-9.83 0.24,-11.7 -3.39,-0.44 -6.9,-1.16 -10.05,-2.31 -0.88,2.27 -3.02,8.5 -1.99,13.18 0.19,0.85 0.46,1.61 0.81,2.27zm3.88 27.17l0 45.85c0,15.97 -6.64,30.46 -17.29,40.85l0 0c19.32,10.14 19.88,37.48 0.62,28.03 -1.7,-0.98 -3.77,-1.1 -5.58,-0.31 -1.8,0.79 -3.12,2.38 -3.56,4.3 0,0 0.57,0.36 1.71,1.08 1.17,-1.95 3.2,-3.23 5.46,-3.45 2.26,-0.22 4.5,0.65 6.02,2.34 -1.7,-1.1 -3.83,-1.31 -5.71,-0.55 -1.88,0.76 -3.26,2.39 -3.72,4.37 0.23,0.18 0.8,0.54 1.71,1.08 1.17,-1.95 3.2,-3.23 5.46,-3.45 2.26,-0.22 4.5,0.65 6.02,2.34 -3.61,-2.35 -8.47,-0.38 -9.42,3.82 7.3,5.27 17.56,3.29 22.37,-4.32 2.21,0.98 4.8,0.29 6.25,-1.64 8.1,-16.27 4.37,-8.75 8.07,-15.84 -14.59,-5.14 -12.45,-30.86 -2.28,-36.29 -1.5,1.76 -4.3,11.34 -4.25,18.09 0.09,11.48 14.25,7.44 17.29,23.76 1.59,8.53 -3.45,16.87 -12.89,15.29 -2.11,-0.5 -4.33,0.03 -5.99,1.43 -1.66,1.4 -2.55,3.5 -2.41,5.67 0,0 0.72,0.2 2.15,0.6 0.62,-2.43 2.36,-4.42 4.68,-5.37 2.32,-0.95 4.96,-0.73 7.1,0.57 -2.14,-0.63 -4.46,-0.17 -6.2,1.22 -1.74,1.4 -2.69,3.56 -2.55,5.79 0.3,0.12 1.01,0.32 2.15,0.6 0.62,-2.43 2.36,-4.42 4.68,-5.37 2.32,-0.95 4.96,-0.73 7.1,0.57 -4.55,-1.34 -9.06,2.27 -8.75,7.01 9.38,3.27 19.59,-2.06 22.27,-11.63 2.65,0.33 5.17,-1.2 6.08,-3.71 0,-9.85 0,-19.7 0,-29.55 -6.38,0.04 -12.41,-2.93 -16.26,-8.01 -3.85,-5.09 -5.08,-11.69 -3.31,-17.82 12.34,14.58 30.15,18.22 41.36,6.88 -0.06,-0.06 -0.12,-0.12 -0.19,-0.18 -0.11,0.04 -0.22,0.07 -0.33,0.1 -3.24,0.85 -6.59,0.56 -9.55,-0.7 -11.33,4.59 -26.8,-5.98 -33.58,-39.95l-8.16 3.75c0.2,5.68 -0.3,14.28 -4.16,18.79 -1.92,2.24 -3.91,3.21 -3.2,1.56 2.94,-6.81 4.2,-13.96 3.77,-21.36 -0.04,-0.74 0.35,-1.4 1.03,-1.71 5.27,-2.42 10.36,-4.34 14.96,-7.93 11.12,-8.68 14.29,-20.48 19.11,-34.29 -0.56,-2.68 -1.39,-5.13 -2.43,-7.38 -0.28,0.86 -0.65,1.72 -1.19,2.52 -1.29,1.93 -4.14,3.74 -7.59,3.74 -1.79,0 -3.74,-0.49 -5.72,-1.71 -2.17,-1.34 -3.88,-3.47 -5.16,-5.61 0.43,2.31 0.68,4.86 0.39,7.22 -0.46,3.81 -2.49,5.67 -4.1,6.55 -1.35,0.74 -2.87,1.05 -4.27,1.05 -1.23,0 -2.36,-0.24 -3.19,-0.64 -1.61,-0.77 -2.73,-1.83 -3.5,-2.81 -1.65,3.84 -4.83,5.52 -7.97,5.52 -0.84,0 -2.91,-0.22 -3.41,-0.79zm0.1 -2.82c0.53,0.59 1.3,1.12 2.4,1.27 2.96,0.41 6.73,-1.16 7.58,-6.95 0.79,-5.39 -1.96,-14.59 -2.53,-16.44 -0.85,1.03 -2.01,2.06 -3.57,2.64 -0.91,0.34 -1.87,0.51 -2.83,0.51 -0.35,0 -1.06,-0.08 -1.06,-0.08l0.02 19.05zm43.91 -15.41c-1.61,-2.7 -3.52,-5.1 -5.59,-7.26 -0.17,0.46 -0.38,0.93 -0.66,1.41 -0.83,1.43 -2.62,2.5 -4.77,2.87 -0.45,0.08 -1.02,0.14 -1.67,0.14 -1.58,0 -3.67,-0.39 -5.85,-1.8 0.82,2.45 3.07,8.06 6.93,10.44 4.94,3.05 9.08,0.34 10.21,-1.36 0.91,-1.37 1.28,-3.05 1.4,-4.45zm-7.47 -9.13c-5.14,-4.87 -10.97,-8.61 -15.57,-12.36 -0.37,0.01 -0.79,0.03 -1.26,0.03 0.55,3.04 2.29,11.07 5.92,14.12 2.85,2.39 5.59,2.35 6.97,2.11 1.77,-0.31 2.83,-1.15 3.2,-1.78 0.43,-0.74 0.65,-1.46 0.75,-2.12zm-18.16 -14.61c-3.16,-2.97 -5.34,-6.08 -5.64,-9.87 -2.71,-1.44 -5.56,-3.41 -7.99,-6.1 -4.89,-5.43 -5.79,-12.55 -5.95,-15.39 -0.1,0 -0.2,0.01 -0.31,0.01 -1.65,0 -3.71,-0.32 -6.07,-1.32 -4.06,2.8 -6.49,6.9 -6.82,11.63 -0.39,5.52 2.07,11.13 6.57,15.01 6.23,5.37 19.42,6.07 26.21,6.04zm-8.75 1.92c2.88,0.28 5.56,0.37 7.76,0.38 0.4,2.36 1.69,8.79 4.48,13.15 -0.04,0.55 -0.31,2.31 -2.32,3.88 -0.57,0.45 -1.86,0.84 -3.62,0.47 -1.37,-0.29 -3.93,-1.26 -5.7,-4.54 -2.44,-4.53 -0.99,-11.63 -0.6,-13.34zm-16.79 9.54c-0.06,0.13 -1.23,2.36 -4.16,2.88 -0.71,0.12 -2.04,-0.13 -3.42,-1.29 -1.08,-0.9 -2.88,-2.96 -2.9,-6.68 -0.03,-5.18 5.03,-11.34 6.25,-12.75 0.64,0.72 1.33,1.41 2.08,2.05 1.29,1.11 2.82,2.03 4.5,2.81 -0.87,2.21 -2.84,7.93 -2.34,12.97zm-12.77 -5.07c0.01,1.57 0.29,2.89 0.7,4.02 -0.6,1.02 -2.62,3.75 -6.72,3.25 -1.83,-0.22 -6.56,-2.11 -6.46,-8.1 0.07,-4.2 3.84,-9.28 5.99,-11.85 0.91,3.23 3.66,5 5.65,5.41 0.5,0.1 0.98,0.15 1.44,0.15 0.52,0 1,-0.07 1.46,-0.17 -1.16,2.28 -2.07,4.83 -2.05,7.29zm-13.75 4.07c-0.02,0.03 -0.04,0.05 -0.06,0.08 -0.01,0.03 -1.46,3.03 -4.93,3.11 -1.47,0.04 -2.96,-0.58 -4.08,-1.69 -1.04,-1.03 -2.27,-2.98 -2.21,-6.4 0.08,-4.46 3.53,-8.85 5.18,-10.7 0.97,1.37 2.25,2.34 3.6,2.65 0.84,0.2 1.63,0.28 2.36,0.28 0.66,0 1.25,-0.08 1.81,-0.18 -1.45,2.48 -2.65,5.28 -2.69,7.91 -0.03,1.94 0.36,3.57 1.01,4.94zm-12.36 0.75c-0.47,0.68 -1.71,2.11 -4.01,2.45 -1.93,0.29 -3.8,-0.34 -5.13,-1.72 -1.65,-1.72 -2.25,-4.31 -1.69,-7.3 0.86,-4.59 4.61,-8.9 6.19,-10.54 1.51,1.15 3.27,1.6 4.59,1.6 0,0 0.01,0 0.01,0 1.09,0 2.04,-0.1 2.87,-0.23 -1.84,2.49 -3.95,6.17 -4.02,10.05 -0.04,2.45 0.48,4.29 1.19,5.69zm1.7 -35.55c0.96,2.11 2.58,3.85 4.19,4.42 0.84,0.3 1.62,0.45 2.33,0.5 -1.1,1.2 -2.07,2.55 -2.69,4.05 -1.4,3.37 -1.05,6.09 -0.46,7.88 -0.62,0.26 -2.42,0.91 -5.12,0.91 -0,0 -0.01,0 -0.01,0 -1.1,0 -2.8,-0.48 -3.97,-1.83 -1.13,-1.31 -1.54,-3.13 -1.22,-5.4 0.65,-4.52 5.02,-8.83 6.94,-10.53zm12.48 -14.77c-0.08,1.36 0.2,2.47 0.46,3.17 0.6,1.59 1.69,2.8 2.92,3.23 0.43,0.15 0.85,0.22 1.26,0.27 -0.26,0.35 -0.5,0.72 -0.71,1.11 -1.11,1.98 -1.66,4.04 -1.64,5.96 -0.94,0.46 -2.91,1.51 -4.98,3.05 -0.03,0.01 -0.06,0.02 -0.08,0.03 -0.08,0.05 -1.93,1.22 -4.76,0.22 -0.97,-0.34 -2.34,-1.72 -3.08,-3.69 -0.59,-1.56 -0.98,-3.98 0.52,-6.67 2.1,-3.76 7.44,-5.85 10.08,-6.69zm3.14 -2.71c1.53,-2.73 4.49,-4.2 5.88,-4.76 2,2.81 3.94,5.12 5.78,7.01 -1.77,0.71 -4.59,2.03 -7.06,3.98 -0.01,0.01 -0.02,0.01 -0.02,0.01 -0.02,0.01 -1.69,1.38 -3.57,0.71 -0.48,-0.17 -1.14,-0.82 -1.55,-1.89 -0.35,-0.91 -0.74,-2.79 0.54,-5.07zm2.06 32.1c-0.01,0.1 -0.01,0.19 -0.02,0.29 -0.36,0.38 -1.66,1.78 -3.11,3.74 -0.01,0.01 -0.01,0.01 -0.02,0.01 -0.02,0.02 -2.29,1.8 -5.82,0.97 -1.01,-0.24 -2.06,-1.2 -2.74,-2.52 -0.62,-1.22 -1.46,-3.79 -0.01,-7.28 1.73,-4.17 6.88,-7.27 9.18,-8.49 0.08,0.26 0.15,0.51 0.25,0.76 0.77,1.89 2.2,3.25 3.91,3.76 0.63,0.19 1.31,0.26 2.01,0.26 0.32,0 0.65,-0.02 0.98,-0.05 -1.93,2.23 -4.25,5.49 -4.6,8.55zm13.83 1.53c-0.21,0.23 -1.44,1.61 -2.84,3.63 -0.3,0.3 -2.09,1.96 -4.64,1.44 -1.31,-0.27 -4.59,-1.93 -4.09,-6.34 0.45,-3.98 5.42,-8.85 6.35,-9.73 0.49,-0.17 0.95,-0.34 1.35,-0.5 0.05,4.06 1.42,8.08 3.87,11.5zm-97.99 -37.1c1.24,-0.25 2.28,-0.85 3.11,-1.8 -3.28,-2.41 -6.56,-2.41 -9.84,0 2.19,0.51 3.93,1.45 5.23,2.82 2.32,2.45 2.53,2.09 1.5,-1.02zm32.55 7.84c-17.55,-18.97 -42.86,-19.61 -42.34,-10.3 -12.88,0.03 -15.56,5.71 -8.09,15.1 0.43,-4.5 8.54,-4.64 13.31,-0.37 2.47,2.2 3.79,6.09 4.04,10.56 0.01,-0.01 0.01,-0.02 0.01,-0.03 1.28,0.33 3.31,0.62 5.34,-0.12 3.37,-1.22 5.15,-4.04 5.17,-4.07l0.62 -0.99 0.98 0.64c0.03,0.01 2.74,1.72 5.83,0.67 3.15,-1.06 3.94,-3.51 3.95,-3.54l0.4 -1.29 1.2 0.61c0.11,0.06 2.94,1.42 5.71,-0.32 3,-1.88 3.71,-5.29 3.87,-6.55zm10.47 16.1c-2.36,-5.39 -5.31,-10.03 -8.59,-13.96 -0.43,1.53 -1.28,3.49 -2.96,5.1 2.86,4.77 7.9,10.85 10.5,9.85 0.44,-0.17 0.77,-0.52 1.04,-0.99zm-19.99 -6.78c1.38,0.41 3.86,0.77 6.4,-0.6 1,4.46 1.92,12.4 -0.87,13.46 -2.47,0.94 -7.12,-4.46 -10.03,-9.09 2.52,-0.97 3.86,-2.66 4.5,-3.77zm63.78 169.08c-0.36,0.2 -0.71,0.4 -1.07,0.59 -1.42,0.79 -1.61,2.15 -1.63,3.18l-16.88 9.38 2.09 1.16 15.78 -8.77c0.88,0.53 2.14,1.08 3.55,0.29 0.36,-0.2 0.71,-0.4 1.07,-0.59 -0.86,-0.01 -1.55,-0.66 -2.38,-0.94l0.94 -0.52c0.88,0.53 2.14,1.08 3.55,0.29 0.36,-0.2 0.71,-0.4 1.07,-0.59 -0.86,-0.01 -1.55,-0.66 -2.38,-0.94l0.94 -0.52c0.88,0.53 2.14,1.08 3.55,0.29 0.36,-0.2 0.71,-0.4 1.07,-0.59 -0.86,-0.01 -1.55,-0.66 -2.38,-0.94l1.04 -0.58c0.04,-0.02 0.08,-0.04 0.11,-0.06 0.73,-0.45 1.37,-1.69 2.08,-2.32 -1,0.3 -2.57,0.13 -3.27,0.66l-0.96 0.53c0.2,-0.86 0.02,-1.79 0.46,-2.53 -0.35,0.2 -0.71,0.4 -1.07,0.59 -1.42,0.79 -1.61,2.15 -1.63,3.18l-0.95 0.53c0.2,-0.86 0.02,-1.79 0.46,-2.53 -0.36,0.2 -0.71,0.4 -1.07,0.59 -1.42,0.79 -1.61,2.15 -1.63,3.18l-0.95 0.52c0.2,-0.86 0.02,-1.79 0.46,-2.53zm-2.09 7.19l-14.1 7.83 2.09 1.16 13 -7.22 -0.99 -1.77zm5.28 -1.45c-0.35,0.2 -0.71,0.4 -1.07,0.59 -1.42,0.79 -1.61,2.15 -1.63,3.18l-13.3 7.39 2.09 1.16 12.2 -6.78c0.88,0.53 2.14,1.08 3.55,0.29 0.36,-0.2 0.71,-0.39 1.07,-0.59 -0.86,-0.01 -1.55,-0.66 -2.38,-0.94l0.94 -0.52c0.88,0.53 2.14,1.08 3.55,0.29 0.35,-0.2 0.71,-0.4 1.07,-0.59 -0.86,-0.01 -1.55,-0.66 -2.38,-0.94l0.94 -0.52c0.88,0.53 2.14,1.08 3.55,0.29 0.35,-0.2 0.71,-0.4 1.07,-0.59 -0.86,-0.01 -1.55,-0.66 -2.38,-0.94l1.04 -0.58c0.04,-0.02 0.08,-0.04 0.11,-0.06l0 -0c0.73,-0.45 1.37,-1.69 2.08,-2.32 -1,0.3 -2.57,0.13 -3.27,0.66l-0.96 0.53c0.2,-0.86 0.02,-1.79 0.46,-2.53 -0.36,0.2 -0.71,0.4 -1.07,0.59 -1.42,0.79 -1.61,2.15 -1.63,3.18l-0.95 0.53c0.2,-0.86 0.02,-1.8 0.46,-2.53 -0.36,0.2 -0.71,0.4 -1.07,0.59 -1.42,0.79 -1.61,2.16 -1.63,3.18l-0.95 0.52c0.2,-0.86 0.02,-1.79 0.46,-2.53zm-8.47 -4.29l-17.68 9.82 2.09 1.16 16.58 -9.21 -0.99 -1.77zm2.09 -7.2c-0.36,0.2 -0.71,0.4 -1.07,0.59 -1.42,0.79 -1.61,2.15 -1.63,3.18l-20.46 11.37 0 -5.8c-1.87,0.22 -3.76,0.36 -5.67,0.4l0 30.93 -2.24 0 0 -30.93c-1.91,-0.04 -3.8,-0.17 -5.67,-0.4 0,10.15 0,21.17 0,31.33l-6.74 0 -6.36 -1.91c0,4.27 0,4.44 0,8.71l6.36 -1.91 9.35 0 0 22.77 -3.1 6.36 14.55 0 -3.1 -6.36 0 -18.16 -0.63 0c0.21,-0.01 0.42,-0.01 0.63,-0.01l0 -4.6 9.35 0 6.36 1.91 0 -8.71 -6.36 1.91 -6.74 0 0 -25.53 2.09 1.16 19.36 -10.76c0.88,0.52 2.13,1.08 3.55,0.29 0.36,-0.2 0.71,-0.4 1.07,-0.59 -0.86,-0.01 -1.55,-0.66 -2.38,-0.94l0.94 -0.52c0.88,0.53 2.14,1.08 3.55,0.29 0.35,-0.2 0.71,-0.4 1.07,-0.59 -0.86,-0.01 -1.55,-0.66 -2.38,-0.94l0.94 -0.52c0.88,0.53 2.14,1.08 3.55,0.29 0.36,-0.2 0.71,-0.39 1.07,-0.59 -0.86,-0.02 -1.55,-0.66 -2.38,-0.94l1.04 -0.58c0.04,-0.02 0.08,-0.04 0.11,-0.06l0 -0c0.73,-0.45 1.37,-1.69 2.08,-2.32 -1,0.3 -2.57,0.13 -3.27,0.66l-0.96 0.53c0.2,-0.86 0.02,-1.79 0.46,-2.53 -0.36,0.2 -0.71,0.39 -1.07,0.59 -1.42,0.79 -1.61,2.15 -1.63,3.18l-0.95 0.53c0.2,-0.86 0.02,-1.79 0.46,-2.53 -0.36,0.2 -0.71,0.4 -1.07,0.59 -1.42,0.79 -1.61,2.15 -1.63,3.18l-0.95 0.53c0.2,-0.86 0.02,-1.79 0.46,-2.53zm-46.88 6.42c0.92,0.43 1.84,0.86 2.77,1.29 4.85,2.26 4.56,7.39 4.76,9.75 -0.92,-0.43 -1.84,-0.86 -2.77,-1.29 -4.85,-2.26 -2.72,-6.84 -4.76,-9.75zm-16.76 -2.04c-1.42,-1.96 -6.02,-1.01 -8.89,-1.64 2.33,1.79 4.55,5.93 6.97,5.75 1.95,-0.14 3.07,-2.53 1.92,-4.11zm-6.07 7.95c0.92,0.43 1.84,0.86 2.77,1.29 4.85,2.26 8.59,-1.26 10.53,-2.62 -0.92,-0.43 -1.84,-0.86 -2.77,-1.29 -4.85,-2.26 -6.99,2.31 -10.53,2.62zm6.34 -13.59c0.92,0.43 1.84,0.86 2.77,1.29 4.84,2.26 4.55,7.39 4.76,9.75 -0.92,-0.43 -1.84,-0.86 -2.77,-1.29 -4.84,-2.26 -2.72,-6.84 -4.76,-9.75zm1.91 17.44c0.92,0.43 1.84,0.86 2.77,1.29 4.85,2.26 8.59,-1.26 10.53,-2.62 -0.92,-0.43 -1.84,-0.86 -2.77,-1.29 -4.85,-2.26 -6.99,2.31 -10.53,2.62zm6.34 -13.59c0.92,0.43 1.85,0.86 2.77,1.29 4.85,2.26 4.56,7.39 4.76,9.75 -0.92,-0.43 -1.84,-0.86 -2.77,-1.29 -4.85,-2.26 -2.72,-6.84 -4.76,-9.75zm1.91 17.44c0.92,0.43 1.84,0.86 2.77,1.29 4.85,2.26 8.59,-1.26 10.53,-2.62 -0.92,-0.43 -1.85,-0.86 -2.77,-1.29 -4.85,-2.26 -6.99,2.31 -10.53,2.62zm124.73 -99.86l39.48 61.53c-5.18,1.37 -10.68,-0.45 -14.03,-4.63l-30.79 -48.13c2.11,-2.74 3.84,-5.67 5.35,-8.77zm-7.07 10.86l29.75 46.36c-4.25,1.12 -8.77,-0.37 -11.52,-3.8l-23.84 -37.26c2.12,-1.67 3.98,-3.44 5.61,-5.3zm-7.57 6.76l21.34 33.27c-9.62,2.53 -15.13,-8.02 -17.93,-15.51 -2.09,-5.59 -3.58,-11.51 -4.62,-16.93 0.41,-0.27 0.82,-0.55 1.21,-0.83zm-12.92 -108.74c-1.13,1.43 -3.18,1.74 -4.69,0.7 -1.5,-1.03 -1.95,-3.06 -1.01,-4.63 4.75,0 8.74,1.91 12.8,5.05 -4.73,-0.75 -7.1,-1.12 -7.1,-1.12zm-33.32 13.52c-0.62,0.29 -1.49,0.65 -2.46,0.98 -0,0 -0,0 -0.01,0 -1.78,0.59 -3.88,1.03 -5.37,0.59 -1.04,-0.31 -1.94,-1.19 -2.44,-2.43 -0.82,-2.02 -0.49,-4.62 0.91,-7.13 2.4,-4.3 8.71,-6.87 10.68,-7.59 1.9,1.73 3.7,3.03 5.37,3.98 -3.76,2.95 -6.09,6.99 -6.68,11.6zm15.03 -24.2c5.44,1.99 7.47,5.36 6.04,10 -0.21,0.67 -1.66,2.28 -4.63,2.7 -1.64,0.23 -4,0.12 -6.94,-1.19 -0.07,-0.05 -0.16,-0.08 -0.24,-0.11 -2.01,-0.94 -4.29,-2.45 -6.79,-4.79 -0.04,-0.05 -0.08,-0.08 -0.13,-0.12 -2.28,-2.16 -4.74,-5.02 -7.35,-8.79 4.33,-0.02 14.27,0.18 20.04,2.3zm14.39 34c5.09,-0.35 8.15,0.31 9.19,1.96 1.32,-0.1 2.52,-0.81 3.24,-1.91 2.38,-3.64 -0.92,-5.74 -4.6,-5.44 -0.64,0.05 -1.2,-0.43 -1.25,-1.07 -0.14,-1.77 8.04,-3.08 10.08,-1.84 2.36,-3.66 3.75,-7.89 4.05,-12.24 -9.17,-8.67 -19.63,-13.59 -31.38,-14.77 0.34,-6.04 -10.19,-7.89 -22.42,-3.27l0.02 0c4.92,0.03 13.86,0.38 19.47,2.44 9.23,3.38 8.28,10.09 7.44,12.81 -0.49,1.6 -2.55,3.42 -5.61,4.11 0.13,2.43 0.91,9.2 5.37,14.15 1.93,2.14 4.19,3.79 6.41,5.07z"/>
 </g>
</svg>
