<svg xmlns="http://www.w3.org/2000/svg" xml:space="preserve" width="2.85006in" height="0.787402in" version="1.1" style="shape-rendering:geometricPrecision; text-rendering:geometricPrecision; image-rendering:optimizeQuality; fill-rule:evenodd; clip-rule:evenodd"
viewBox="0 0 832.91 230.11">
 <g id="Layer_x0020_1">
  <metadata id="CorelCorpID_0Corel-Layer"/>
  <path d="M308.43 48.43l0 32.18 7.39 0 0 -32.18 9.95 0 0 -5.03 -27.3 0 0 5.03 9.95 0zm36.5 -0.55c6.34,0 9.85,5.18 9.85,14.13 0,8.95 -3.52,14.13 -9.85,14.13 -6.33,0 -9.85,-5.18 -9.85,-14.13 0,-8.95 3.52,-14.13 9.85,-14.13zm0 -5.08c-12.07,0 -17.5,10.05 -17.5,18.85l0 0.65c0,8.8 5.43,18.9 17.5,18.9 12.07,0 17.5,-10.11 17.5,-18.9l0 -0.65c0,-8.8 -5.43,-18.85 -17.5,-18.85zm37.41 33.03c-4.37,0 -6.99,-2.31 -6.99,-9.2l0 -23.23 -7.39 0 0 24.53c0,5.73 2.41,13.27 13.63,13.27 11.21,0 13.63,-7.54 13.63,-13.27l0 -24.53 -5.38 0 0 23.23c0,6.89 -3.12,9.2 -7.49,9.2zm27.55 -10.16c2.76,0 3.32,0.15 4.98,0.15 1.21,2.92 4.17,7.94 10.91,14.78l9.45 0 0 -0.4c-3.62,-3.52 -10.86,-11.36 -12.47,-15.43 6.64,-1.36 8.65,-6.84 8.65,-10.71l0 -0.35c0,-5.73 -4.42,-11.41 -14.08,-10.91 -3.22,0.15 -7.69,0.65 -10.21,0.6l-4.63 0 0 37.2 7.39 0 0 -14.93zm0 -17.3c1.11,0 3.32,-0.15 5.33,-0.3 6.74,-0.5 8.6,3.27 8.6,5.78l0 0.3c0,3.37 -2.01,6.79 -8.9,6.49 -1.96,-0.1 -3.37,-0.2 -5.03,-0.25l0 -12.02zm29.91 -4.88l0 37.1 7.44 0 0 -37.1 -7.44 0zm17.5 27.6l-5.38 3.07c4.37,6.79 9.95,7.04 13.78,7.04 7.14,0 12.82,-4.17 13.22,-9.9 0.3,-4.07 -1.51,-8.9 -12.62,-12.97 -6.74,-2.46 -5.73,-6.38 -5.53,-7.19 0.4,-1.46 2.21,-3.37 5.53,-3.27 2.06,0.05 5.03,1.36 6.84,5.08l0.5 0 5.38 -3.07c-3.52,-5.93 -9.05,-7.09 -12.87,-7.09 -7.99,0 -11.92,4.88 -12.72,8.75 -0.91,4.27 0.5,10.01 10.36,13.52 6.59,2.36 7.84,5.43 7.44,7.59 -0.45,2.56 -3.12,3.47 -5.68,3.47 -1.81,0 -6.18,-0.8 -7.74,-5.03l-0.5 0zm57.37 -10.81l1.16 20.31 7.34 0 -2.16 -37.2 -3.37 0 -15.08 27 -15.08 -27 -3.37 0 -2.16 37.2 7.34 0 1.16 -20.31 11.61 20.31 1.01 0 11.61 -20.31zm44.9 20.92c3.72,0 9.1,-0.6 14.43,-7.69l-5.33 -3.57 -0.5 0c-2.26,5.08 -5.93,6.13 -8.55,6.18 -6.79,0.15 -9.95,-6.18 -9.95,-15.13 0,-8.95 4.27,-13.12 10.01,-13.12 2.61,0 6.38,1.21 8.3,5.78l0.5 0 5.48 -3.07c-4.07,-6.59 -10.21,-7.79 -14.18,-7.79 -10.96,0 -17.75,8.65 -17.75,18.2l0 0.2c0,12.62 7.04,20.01 17.55,20.01zm33.13 -33.33c6.34,0 9.85,5.18 9.85,14.13 0,8.95 -3.52,14.13 -9.85,14.13 -6.33,0 -9.85,-5.18 -9.85,-14.13 0,-8.95 3.52,-14.13 9.85,-14.13zm0 -5.08c-12.07,0 -17.5,10.05 -17.5,18.85l0 0.65c0,8.8 5.43,18.9 17.5,18.9 12.07,0 17.5,-10.11 17.5,-18.9l0 -0.65c0,-8.8 -5.43,-18.85 -17.5,-18.85zm53.8 17.5l1.16 20.31 7.34 0 -2.16 -37.2 -3.37 0 -15.08 27 -15.08 -27 -3.37 0 -2.16 37.2 7.34 0 1.16 -20.31 11.61 20.31 1.01 0 11.61 -20.31zm44.29 0l1.16 20.31 7.34 0 -2.16 -37.2 -3.37 0 -15.08 27 -15.08 -27 -3.37 0 -2.16 37.2 7.34 0 1.16 -20.31 11.61 20.31 1.01 0 11.61 -20.31zm14.03 -16.79l0 37.1 7.44 0 0 -37.1 -7.44 0zm22.52 4.93l0 32.18 7.39 0 0 -32.18 9.95 0 0 -5.03 -27.3 0 0 5.03 9.95 0zm30.62 0l0 32.18 7.39 0 0 -32.18 9.95 0 0 -5.03 -27.3 0 0 5.03 9.95 0zm29.31 14.93l12.37 0 0 -5.03 -12.37 0 0 -9.9 15.69 0 0 -5.03 -23.03 0 0 37.2 24.18 0 0 -5.03 -16.84 0 0 -12.22zm28.81 0l12.37 0 0 -5.03 -12.37 0 0 -9.9 15.69 0 0 -5.03 -23.03 0 0 37.2 24.18 0 0 -5.03 -16.84 0 0 -12.22zm-480.16 53.56l1.55 20.39 3.75 0 0 -0.25 -2.36 -30.29 -1.67 0 -11.25 25.77 -11.33 -25.77 -1.75 0 -2.36 30.29 0 0.25 3.75 0 1.55 -20.39 8.77 20.39 2.61 0 8.77 -20.39zm9.99 -9.71l0 30.09 3.79 0 0 -30.09 -3.79 0zm13.82 30.09l0 -23.08 15.53 23.08 2.85 0 0 -30.17 -2.89 0 0 23.2 -15.86 -23.2 -2.53 0 0 30.17 2.89 0zm25.52 -30.09l0 30.09 3.79 0 0 -30.09 -3.79 0zm19.65 30.58c5.38,0 10.03,-2.69 10.07,-8.72 0.04,-3.3 -2.61,-7.09 -9.87,-8.89 -6.2,-1.55 -7.26,-4.04 -6.73,-6.77 0.49,-2.53 2.85,-4.04 5.58,-4.04 2.12,0 5.26,0.41 7.01,4.89l0.41 0 3.22 -1.88c-2.85,-4.81 -7.34,-5.75 -10.44,-5.75 -5.79,0 -9.01,3.91 -9.5,7.18 -0.65,4.24 2.16,8.03 8.24,9.66 5.46,1.47 8.4,3.34 8.07,6.89 -0.37,3.79 -3.96,4.69 -6.12,4.69 -2.12,0 -5.83,-0.53 -7.46,-4.85l-0.41 0 -3.22 1.88c3.55,5.5 8.03,5.71 11.13,5.71zm21.41 -27.97l0 27.48 3.75 0 0 -27.48 8.97 0 0 -2.69 -21.69 0 0 2.69 8.97 0zm20.55 14.07c2.24,0 3.59,0.2 4.93,0.2 0.98,2.37 3.87,7.67 9.34,13.21l5.55 0 0 -0.33c-3.59,-2.73 -9.38,-9.83 -10.44,-13.13 5.46,-1.1 8.07,-4.53 8.07,-8.36l0 -0.73c0,-4.36 -3.55,-8.52 -11.82,-8.11 -2.61,0.12 -5.83,0.53 -7.87,0.49l-1.51 0 0 30.17 3.75 0 0 -13.41zm0 -14.11c0.9,0 3.34,-0.25 4.97,-0.33 5.46,-0.29 8.64,1.96 8.64,5.91l0 0.04c0,4.04 -3.3,6.03 -8.89,5.79 -1.59,-0.08 -3.38,-0.16 -4.73,-0.2l0 -11.21zm29.48 14.15l0 13.37 3.75 0 0 -13.66 9.79 -16.19 0 -0.33 -3.06 0 -8.19 13.58 -7.54 -13.58 -4.2 0 0 0.33 9.46 16.47zm53.78 -2c-0.04,-7.13 -3.43,-15.29 -12.27,-15.29 -8.89,0 -12.15,8.2 -12.15,15.29l0 0.53c0,7.13 3.26,15.33 12.15,15.33 8.89,0 12.27,-8.2 12.27,-15.33l0 -0.53zm-20.51 0.08c0,-7.26 3.1,-12.64 8.24,-12.64 5.26,0 8.24,5.38 8.24,12.64 0,7.26 -2.98,13.05 -8.24,13.05 -5.14,0 -8.24,-5.79 -8.24,-13.05l0 0zm30.09 0.61l10.85 0 0 -2.69 -10.85 0 0 -10.11 13.54 0 0 -2.69 -17.25 0 0 30.17 3.71 0 0 -14.68zm33.76 0l10.85 0 0 -2.69 -10.85 0 0 -10.11 13.54 0 0 -2.69 -17.25 0 0 30.17 18.18 0 0 -2.69 -14.47 0 0 -11.99zm30.74 15.17c3.22,0.08 6.32,-0.77 10.15,-5.59l-3.06 -2.16 -0.41 0c-1.43,3.75 -4.53,5.02 -6.65,5.02 -5.14,0 -9.09,-5.59 -9.09,-12.84 0,-7.26 3.99,-12.84 9.13,-12.84 2.12,0 5.06,0.81 6.69,5.14l0.41 0 3.22 -1.88c-3.47,-5.02 -7.18,-6.08 -10.4,-5.99 -8.89,0 -13.01,8.16 -13.01,15.29l0 0.45c0,7.14 4.12,15.41 13.01,15.41zm37.1 -15.86c-0.04,-7.13 -3.43,-15.29 -12.27,-15.29 -8.89,0 -12.15,8.2 -12.15,15.29l0 0.53c0,7.13 3.26,15.33 12.15,15.33 8.89,0 12.27,-8.2 12.27,-15.33l0 -0.53zm-20.51 0.08c0,-7.26 3.1,-12.64 8.24,-12.64 5.26,0 8.24,5.38 8.24,12.64 0,7.26 -2.98,13.05 -8.24,13.05 -5.14,0 -8.24,-5.79 -8.24,-13.05l0 0zm29.28 15.29l0 -23.08 15.53 23.08 2.85 0 0 -30.17 -2.89 0 0 23.2 -15.86 -23.2 -2.53 0 0 30.17 2.89 0zm48.68 -15.37c-0.04,-7.13 -3.43,-15.29 -12.27,-15.29 -8.89,0 -12.15,8.2 -12.15,15.29l0 0.53c0,7.13 3.26,15.33 12.15,15.33 8.89,0 12.27,-8.2 12.27,-15.33l0 -0.53zm-20.51 0.08c0,-7.26 3.1,-12.64 8.24,-12.64 5.26,0 8.24,5.38 8.24,12.64 0,7.26 -2.98,13.05 -8.24,13.05 -5.14,0 -8.24,-5.79 -8.24,-13.05l0 0zm49.38 -5.1l1.55 20.39 3.75 0 0 -0.25 -2.36 -30.29 -1.67 0 -11.25 25.77 -11.33 -25.77 -1.75 0 -2.36 30.29 0 0.25 3.75 0 1.55 -20.39 8.77 20.39 2.61 0 8.77 -20.39zm16.39 7.01l0 13.37 3.75 0 0 -13.66 9.79 -16.19 0 -0.33 -3.06 0 -8.19 13.58 -7.54 -13.58 -4.2 0 0 0.33 9.46 16.47zm53.78 -2c-0.04,-7.13 -3.43,-15.29 -12.27,-15.29 -8.89,0 -12.15,8.2 -12.15,15.29l0 0.53c0,7.13 3.26,15.33 12.15,15.33 8.89,0 12.27,-8.2 12.27,-15.33l0 -0.53zm-20.51 0.08c0,-7.26 3.1,-12.64 8.24,-12.64 5.26,0 8.24,5.38 8.24,12.64 0,7.26 -2.98,13.05 -8.24,13.05 -5.14,0 -8.24,-5.79 -8.24,-13.05l0 0zm30.09 0.61l10.85 0 0 -2.69 -10.85 0 0 -10.11 13.54 0 0 -2.69 -17.25 0 0 30.17 3.71 0 0 -14.68zm-492.8 41.91l0 27.48 3.75 0 0 -27.48 8.97 0 0 -2.69 -21.69 0 0 2.69 8.97 0zm35.64 12.8l0 14.68 3.79 0 0 -30.17 -3.79 0 0 12.8 -15.04 0 0 -12.8 -3.79 0 0 30.17 3.79 0 0 -14.68 15.04 0zm14.03 0l10.85 0 0 -2.69 -10.85 0 0 -10.11 13.54 0 0 -2.69 -17.25 0 0 30.17 18.18 0 0 -2.69 -14.47 0 0 -11.99zm34.74 1.26c2.24,0 3.59,0.2 4.93,0.2 0.98,2.37 3.87,7.67 9.34,13.21l5.55 0 0 -0.33c-3.59,-2.73 -9.38,-9.83 -10.44,-13.13 5.46,-1.1 8.07,-4.53 8.07,-8.36l0 -0.73c0,-4.36 -3.55,-8.52 -11.82,-8.11 -2.61,0.12 -5.83,0.53 -7.87,0.49l-1.51 0 0 30.17 3.75 0 0 -13.41zm0 -14.11c0.9,0 3.34,-0.25 4.97,-0.33 5.46,-0.29 8.64,1.96 8.64,5.91l0 0.04c0,4.04 -3.3,6.03 -8.89,5.79 -1.59,-0.08 -3.38,-0.16 -4.73,-0.2l0 -11.21zm26.95 12.84l10.85 0 0 -2.69 -10.85 0 0 -10.11 13.54 0 0 -2.69 -17.25 0 0 30.17 18.18 0 0 -2.69 -14.47 0 0 -11.99zm22.34 2c2.04,0 2.98,0.12 5.58,0.25 8.93,0.41 11.82,-4.73 11.82,-9.09l0 -0.65c0,-4.36 -3.55,-8.77 -11.82,-8.36 -2.61,0.12 -5.83,0.41 -7.87,0.37l-1.51 0 0 30.17 3.79 0 0 -12.68zm13.58 -8.72c-0.08,4.04 -3.3,6.48 -8.89,6.24 -1.59,-0.08 -3.34,-0.16 -4.69,-0.2l0 -12.15c0.9,0 3.3,-0.16 4.93,-0.2 5.46,-0.12 8.73,2.36 8.64,6.32l0 0zm18.96 19.16c-4.44,0 -6.89,-1.55 -6.89,-7.83l0 -20.1 -3.75 0 0 20.3c0,4.65 1.55,10.36 10.64,10.36 9.09,0 10.64,-5.71 10.64,-10.36l0 -20.3 -3.75 0 0 20.1c0,6.28 -2.45,7.83 -6.89,7.83zm38.37 -5.91c0,-3.63 -1.67,-7.34 -7.22,-8.36 3.91,-0.65 5.71,-3.67 5.67,-6.32 -0.08,-5.01 -3.55,-8.32 -12.27,-7.71 -1.18,0.08 -4.08,0.37 -6.12,0.37l-1.26 0 0 30.17 2.2 0c2.04,-0.04 4.36,0.33 6.97,0.45 8.28,0.41 12.03,-4.08 12.03,-8.44l0 -0.16zm-17.37 -19.33l2.45 -0.2c6.2,-0.73 9.54,0.9 9.46,5.02 -0.08,3.18 -3.02,5.1 -8.56,5.1l-3.34 0 0 -9.91zm13.54 19c0,3.95 -3.18,6.4 -8.64,6.12 -1.63,-0.08 -4.04,-0.33 -4.93,-0.33l0.04 -12.23 3.43 0c6.73,-0.12 10.11,2.77 10.11,6.4l0 0.04zm8.32 -21.69l0 30.17 18.18 0 0 -2.69 -14.43 0 0 -27.48 -3.75 0zm22.87 0.08l0 30.09 3.79 0 0 -30.09 -3.79 0zm23.12 30.58c3.22,0.08 6.32,-0.77 10.15,-5.59l-3.06 -2.16 -0.41 0c-1.43,3.75 -4.53,5.02 -6.65,5.02 -5.14,0 -9.09,-5.59 -9.09,-12.84 0,-7.26 3.99,-12.84 9.13,-12.84 2.12,0 5.06,0.81 6.69,5.14l0.41 0 3.22 -1.88c-3.47,-5.02 -7.18,-6.08 -10.4,-5.99 -8.89,0 -13.01,8.16 -13.01,15.29l0 0.45c0,7.14 4.12,15.41 13.01,15.41zm50.76 -15.86c-0.04,-7.13 -3.43,-15.29 -12.27,-15.29 -8.89,0 -12.15,8.2 -12.15,15.29l0 0.53c0,7.13 3.26,15.33 12.15,15.33 8.89,0 12.27,-8.2 12.27,-15.33l0 -0.53zm-20.51 0.08c0,-7.26 3.1,-12.64 8.24,-12.64 5.26,0 8.24,5.38 8.24,12.64 0,7.26 -2.98,13.05 -8.24,13.05 -5.14,0 -8.24,-5.79 -8.24,-13.05l0 0zm30.09 0.61l10.85 0 0 -2.69 -10.85 0 0 -10.11 13.54 0 0 -2.69 -17.25 0 0 30.17 3.71 0 0 -14.68zm46.28 14.68l4.12 0 0 -0.33 -11.01 -30.13 -0.82 0 -10.97 30.21 0 0.25 2.81 0 3.14 -8.56 9.74 0 2.98 8.56zm-7.71 -22.18l3.79 10.93 -7.83 0 4.04 -10.93zm19.65 8.77c2.24,0 3.59,0.2 4.93,0.2 0.98,2.37 3.87,7.67 9.34,13.21l5.55 0 0 -0.33c-3.59,-2.73 -9.38,-9.83 -10.44,-13.13 5.46,-1.1 8.07,-4.53 8.07,-8.36l0 -0.73c0,-4.36 -3.55,-8.52 -11.82,-8.11 -2.61,0.12 -5.83,0.53 -7.87,0.49l-1.51 0 0 30.17 3.75 0 0 -13.41zm0 -14.11c0.9,0 3.34,-0.25 4.97,-0.33 5.46,-0.29 8.64,1.96 8.64,5.91l0 0.04c0,4.04 -3.3,6.03 -8.89,5.79 -1.59,-0.08 -3.38,-0.16 -4.73,-0.2l0 -11.21zm46.24 7.14l1.55 20.39 3.75 0 0 -0.25 -2.36 -30.29 -1.67 0 -11.25 25.77 -11.33 -25.77 -1.75 0 -2.36 30.29 0 0.25 3.75 0 1.55 -20.39 8.77 20.39 2.61 0 8.77 -20.39zm13.09 5.71l10.85 0 0 -2.69 -10.85 0 0 -10.11 13.54 0 0 -2.69 -17.25 0 0 30.17 18.18 0 0 -2.69 -14.47 0 0 -11.99zm21.45 14.68l0 -23.08 15.53 23.08 2.85 0 0 -30.17 -2.89 0 0 23.2 -15.86 -23.2 -2.53 0 0 30.17 2.89 0zm25.52 -30.09l0 30.09 3.79 0 0 -30.09 -3.79 0zm27.15 30.09l4.12 0 0 -0.33 -11.01 -30.13 -0.82 0 -10.97 30.21 0 0.25 2.81 0 3.14 -8.56 9.74 0 2.98 8.56zm-7.71 -22.18l3.79 10.93 -7.83 0 4.04 -10.93z"/>
  <path d="M239.02 133.84c1.5,-5.97 1.48,-12.73 -0.05,-20.27 -2.36,-11.62 -25.47,-50.25 -12.24,-50.18 0,2.41 1.81,4.44 4.21,4.71 2.4,0.27 4.62,-1.29 5.16,-3.64 2.76,-12.76 -2.49,-25.91 -13.28,-33.26 2.2,6.13 -2.48,15.18 -3.91,27.17 -3.11,26.2 17.01,44.56 15.4,68.12l4.71 7.34zm-140.11 83.66c5.34,0.79 10.69,1.31 16.03,1.55l0 -8.71c-8.88,-0.36 -17.74,-1.45 -26.72,-3.26 -4.71,0 -4.71,7.17 0,7.17 2.36,0 10.61,-1.14 10.68,1.75 -0.85,7.66 -28.09,-4.03 -34.04,-9.11l2.5 7.87 -8.28 -1.09c6.62,5.65 39.82,19.82 39.82,11.05l0 -7.21zm29.79 1.55c5.34,-0.24 10.69,-0.75 16.03,-1.55l0 7.21c0,9.6 33.35,-5.54 39.82,-11.05l-8.28 1.09 2.5 -7.87c-5.86,4.99 -33.12,17.37 -34.04,9.11 0.07,-2.89 8.32,-1.75 10.68,-1.75 4.71,0 4.71,-7.17 0,-7.17 -9.09,1.78 -17.95,2.86 -26.72,3.24l0 8.73zm-54.27 -156.8l94.79 0 0 61.18c0,26.07 -21.32,47.39 -47.39,47.39l0 0c-26.07,0 -47.39,-21.32 -47.39,-47.39l0 -61.18zm92.37 49.67l-20.12 0 0 3.61c0,12.79 -9.91,23.48 -22.39,24.73l0 28.07c-0.82,0.04 -1.64,0.07 -2.47,0.07l0 0c-0.83,0 -1.65,-0.03 -2.47,-0.07l0 -28.07c-12.49,-1.26 -22.39,-11.94 -22.39,-24.73l0 -3.61 -20.12 0 0 -4.93 20.12 0 0 -22.2 22.39 0 0 -20.11 4.93 0 0 20.11 22.39 0 0 22.2c6.71,0 13.41,0 20.12,0l0 4.93zm-64.9 0l0 3.61c0,10.9 9.03,19.93 19.93,19.93 10.9,0 19.93,-9.03 19.93,-19.93l0 -3.61c-26.57,0 -39.85,0 -39.85,0zm0 -22.2l0 17.32 4.33 -3.45 4.33 3.45c-2.97,2.09 -4.46,3.13 -4.46,3.13 5.14,-0.93 9.77,-4.11 13.9,-9.53 0.76,-0.36 1.68,-0.48 2.76,-0.34 6.77,0.83 7.2,6.47 18.98,6.72l0 -17.3 -39.85 0zm-17.89 37.14c1.35,-2.58 3.05,-4.23 5.11,-4.96 0.42,-5.02 -8.42,-1.27 -5.11,4.96zm11.13 6.67c0.48,-0.28 1.8,1.13 2.03,1.53 0.66,1.14 -1.06,2.14 -1.72,0.99 -0.23,-0.4 -0.79,-2.26 -0.31,-2.53zm-2.72 3.55c0.14,-0.53 2.08,-0.47 2.52,-0.35 1.27,0.34 0.76,2.26 -0.51,1.92 -0.45,-0.12 -2.15,-1.04 -2.01,-1.57zm7.16 -4.14c0.53,0.14 0.48,2.08 0.35,2.53 -0.34,1.27 -2.26,0.76 -1.92,-0.52 0.12,-0.45 1.04,-2.15 1.57,-2.01zm1.63 23.69c2.91,0.12 5.19,-0.53 6.85,-1.94 4.56,2.15 -3.11,7.93 -6.85,1.94zm-0.22 -12.97c0.48,-0.27 -0.08,-2.13 -0.31,-2.53 -0.66,-1.14 -2.38,-0.15 -1.72,0.99 0.23,0.4 1.56,1.81 2.03,1.54zm-4.44 0.58c0.53,0.14 1.45,-1.56 1.57,-2.01 0.34,-1.27 -1.58,-1.79 -1.92,-0.51 -0.12,0.45 -0.18,2.38 0.35,2.52zm7.16 -4.13c0.14,-0.53 -1.56,-1.45 -2.01,-1.57 -1.27,-0.34 -1.79,1.58 -0.51,1.92 0.45,0.12 2.38,0.18 2.52,-0.35zm-3.47 -2.77c0.25,0.43 0.78,0.7 1.35,0.37 0.4,-0.23 1.81,-1.56 1.53,-2.04 -0.27,-0.48 -2.13,0.08 -2.53,0.31 -0.57,0.33 -0.61,0.93 -0.36,1.36zm-3.68 2.12l0 0c0.48,0.83 1.54,1.11 2.37,0.64 0.83,-0.48 1.11,-1.54 0.63,-2.37 -0.48,-0.83 -1.54,-1.11 -2.37,-0.64 -0.83,0.48 -1.11,1.54 -0.63,2.37zm-3.56 2.06l0 0c0.27,0.48 2.13,-0.08 2.53,-0.31 0.57,-0.33 0.61,-0.93 0.36,-1.36 -0.25,-0.43 -0.78,-0.7 -1.35,-0.37 -0.4,0.23 -1.81,1.56 -1.54,2.03l0 0zm10.56 -6.09c1.75,3.03 0.71,6.91 -2.32,8.66 -3.03,1.75 -6.91,0.71 -8.67,-2.32 -1.75,-3.04 -0.71,-6.91 2.32,-8.67 3.03,-1.75 6.91,-0.71 8.67,2.32zm43.42 -1.91c0.65,0 1.18,0.53 1.18,1.18 0,0.65 -0.53,1.18 -1.18,1.18 -0.65,0 -1.18,-0.53 -1.18,-1.18 0,-0.65 0.53,-1.18 1.18,-1.18zm-0.66 3.01l1.33 0 0 16.46 -1.33 0 0 -16.46zm5.36 7.87c-0.8,2.38 -1.75,4.18 -2.83,5.38 -0.04,-3.22 -0.04,-6.43 0,-9.65 1.26,-1.06 1.92,-2.77 2.36,-4.32 0.36,-1.32 0.41,-1.78 1.61,-2.85 1.05,-0.94 2.36,-1.43 3.88,-1.74 1.07,-0.22 3.18,-0.42 3.98,-1.16 0.32,-0.3 0.47,-0.69 0.54,-1.11 0.28,-1.98 -2.74,-2.56 -4.16,-2.8 -1.07,-0.18 -2.33,-0.5 -3.02,-1.41 -1.26,-1.67 0.25,-4.14 1.22,-5.55 0.65,-0.93 1.82,-0.12 1.18,0.81 -0.5,0.73 -1.97,2.93 -1.26,3.87 0.41,0.54 1.49,0.75 2.12,0.86 0.57,0.1 1.15,0.22 1.71,0.37 1.95,0.55 3.97,1.69 3.63,4.04 -0.42,2.95 -3.33,2.99 -5.64,3.48 -0.88,0.18 -1.68,0.42 -2.37,0.81 -1.14,0.65 -2.14,2.44 -0.8,3.17 1.49,0.81 2.28,-1.26 3.79,-1.83 1.79,-0.68 3.13,0.81 4.2,3.15 -0.49,1.3 -0.89,2.29 -1.2,2.95 -0.21,-0.56 -0.55,-1.63 -0.96,-2.53 -1.53,-3.35 -1.95,-0.3 -2.94,1.14 -1.1,1.59 -2.78,3.23 -5.02,4.91zm2.36 1.44c1.15,-0.86 1.97,0.1 1.62,1.14 -0.34,1.04 -1.35,1.03 -1.44,2.13 -0.04,0.47 0.14,0.93 0.5,1.24 1.78,-2.23 3.2,-4.31 4.26,-6.26 -1.17,-1 -2.81,-1.23 -4.21,-0.6 -1.4,0.63 -2.32,2.01 -2.35,3.54 1.08,-0.79 1.62,-1.19 1.62,-1.19zm-9.63 12.3c-1.01,0.43 -1.33,1.07 -0.96,1.92 2.49,-1.54 4.52,-2.99 6.07,-4.38 -2.5,-3 -6.75,-0.38 -5.11,2.45zm-9.18 -10.32c0.64,1.95 2.51,3.21 4.56,3.09 -0.11,1.28 -0.61,3.75 -1.5,7.42 -2.07,-0.09 -3.07,0.61 -3,2.09 0,0 1.35,-0.1 4.05,-0.3 2.77,-3.3 4.74,-5.64 5.92,-7.01 0.04,-5.71 0.6,-10 -2.61,-15.11 -1.31,0.04 -2.62,0.04 -3.94,0 -1.46,1.14 -2.61,4.42 -3.47,9.82zm0.86 2.61c0.12,2.05 0.79,4.07 2,6.05 0,0 0.24,-1.58 0.72,-4.75 -0.96,-0.3 -1.88,-0.74 -2.72,-1.31zm2.48 -14.88l1.31 0.93 0.75 -1.68 0.75 1.68 1.31 -0.93 -0.04 1.86c-1.35,0 -2.7,0 -4.05,0l-0.04 -1.86zm9.03 -5.81l1.88 -0.35 0 1.92 -1.88 -0.35 0.34 1.88 -1.92 0 0.34 -1.88 -1.88 0.35 0 -1.92 1.88 0.35 -0.34 -1.88 1.92 0 -0.34 1.88zm10.6 -56.56c2.24,-0.29 4.57,1.2 3.18,3.62 -0.19,-1.82 -2.87,-2.36 -3.04,1.48 9.58,0.13 4.3,14.89 5.94,22.71 -1.73,-0.77 -2.89,-1.91 -2.79,-4.6l0.36 -10.28c0.06,-2.02 -1.13,-2.16 -1.28,-1.28 -0.19,2.98 -0.27,8.42 -0.47,12.36 -1.73,-0.77 -2.31,-1.72 -2.22,-4.42l0.28 -9.16c0.06,-2.02 -1.13,-2.16 -1.27,-1.28 -0.19,2.98 -0.21,7.5 -0.39,11.14 -1.73,-0.77 -2.32,-1.63 -2.23,-4.32l0.17 -6.67c0.06,-2.02 -0.96,-2.44 -1.69,-1.71 -0.28,0.33 -0.49,0.7 -0.67,1.08 -2.66,5.46 -8.01,0.15 -2.53,-2.53 0.38,-0.18 0.75,-0.39 1.08,-0.67 0.73,-0.73 0.3,-1.75 -1.71,-1.69l-6.67 0.17c-2.69,0.09 -3.55,-0.5 -4.32,-2.23 3.64,-0.18 8.16,-0.2 11.14,-0.39 0.88,-0.14 0.74,-1.33 -1.27,-1.28l-9.16 0.28c-2.69,0.09 -3.64,-0.49 -4.42,-2.22 3.95,-0.2 9.38,-0.28 12.36,-0.47 0.88,-0.14 0.74,-1.34 -1.28,-1.28l-10.28 0.36c-2.69,0.1 -3.83,-1.07 -4.6,-2.79 7.82,1.63 22.58,-3.64 22.7,5.94 3.85,-0.17 3.31,-2.85 1.48,-3.04 2.41,-1.39 3.91,0.94 3.61,3.18zm-66.36 11.6c0.42,1.08 0.38,1.89 0.05,3.41 0.16,0 -0.15,0.02 0,0 2.03,-0.29 3.21,-2.54 4.14,-1.64 -0.87,2.87 -5,4.44 -7.78,4.76 2.08,-2.29 3.28,-4.47 3.6,-6.53zm-5.92 -12.09l1.08 -1.57 1.36 1.36 -1.57 1.08 1.57 1.08 -1.36 1.36 -1.08 -1.57 -1.08 1.57 -1.36 -1.36 1.57 -1.08 -1.57 -1.08 1.36 -1.36 1.08 1.57zm2.23 3.11c0.46,-0.46 1.21,-0.46 1.67,0 0.46,0.46 0.46,1.21 0,1.67 -0.46,0.46 -1.21,0.46 -1.67,0 -0.46,-0.46 -0.46,-1.21 0,-1.67zm4.51 0.96c-1.25,-6.11 2.71,-13.21 8.26,-8.47 -0.23,1.15 -0.85,2.18 -1.75,2.92 0.96,0.52 1.64,1.44 1.86,2.51 0.22,1.07 -0.03,2.18 -0.7,3.05 1.78,0.76 3.21,1.16 4.57,0.9 1.21,-0.23 1.4,-0.59 2.29,-1.23 0.55,-0.4 1.19,-0.61 1.76,0.4 -1.8,2.21 -5.32,3.18 -10.58,2.91 -2.26,1.96 -4.61,3.42 -7.06,4.36 0.06,1.73 -1.77,4.4 -5.47,8 0.55,3.14 0.25,5.68 -1.12,6.67 -1.26,0.91 -3.02,0.63 -1.81,-1.37 0.81,-1.34 2.47,-2.54 1.08,-4.1 -2.59,-2.98 3.25,-4.57 1.14,-7.47 -0.39,0.42 -0.78,0.83 -1.16,1.26 -0.72,0.81 -1.77,1.36 -2.87,1.07 -0.86,-0.22 -1.46,-0.89 -1.79,-1.69 -0.42,-1.04 -0.38,-2.26 -0.15,-3.34 0.16,-0.78 0.46,-1.53 0.79,-2.25 0.55,-1.18 1.55,-2.86 1.57,-4.16 0.01,-0.49 -0.12,-0.88 -0.34,-1.2 -0.68,0.34 -1.5,0.26 -2.1,-0.22 -0.63,-0.51 -0.88,-1.35 -0.63,-2.11 1.56,-0.22 3.07,0.56 3.82,1.91 0.29,0.5 0.41,1.06 0.4,1.64 -0.03,2.24 -1.92,4.38 -2.38,6.63 -0.17,0.85 -0.24,1.86 0.09,2.68 0.19,0.46 0.52,0.88 1.02,1.01 1.39,0.36 2.39,-1.72 3.06,-2.68 1.69,-2.41 3.38,-4.34 8.21,-7.64zm32.5 46.11c0,1.6 -1.5,2.89 -3.34,2.89 -1.85,0 -3.34,-1.3 -3.34,-2.89l6.69 0zm7.89 0c0,1.6 -1.5,2.89 -3.34,2.89 -1.85,0 -3.34,-1.3 -3.34,-2.89l6.69 0zm3.94 -5.41c0,1.6 -1.5,2.89 -3.34,2.89 -1.85,0 -3.34,-1.3 -3.34,-2.89l6.69 0zm-7.88 0c0,1.6 -1.5,2.89 -3.34,2.89 -1.85,0 -3.35,-1.3 -3.35,-2.89l6.69 0zm-7.89 0c0,1.6 -1.5,2.89 -3.34,2.89 -1.85,0 -3.34,-1.3 -3.34,-2.89l6.69 0zm-7.88 0c0,1.6 -1.5,2.89 -3.34,2.89 -1.85,0 -3.34,-1.3 -3.34,-2.89l6.69 0zm-0.34 -21.2l17.65 0c0,1.96 -1.31,3.63 -3.09,4.17 -1.39,-0.8 -2.83,-1.36 -4.61,-1.58 -1.21,-0.15 -2.45,-0.06 -3.57,0.47 -0.7,0.33 -0.94,1.3 -2.01,1.3 -2.4,0 -4.37,-1.96 -4.37,-4.36zm4.28 26.61c0,1.6 -1.5,2.89 -3.34,2.89 -1.85,0 -3.34,-1.3 -3.34,-2.89l6.69 0zm-28.24 20.95c-2.88,-0.92 -4.62,-3.83 -4.08,-6.8l0.04 -0.3 3.15 2.17c-1.64,-1.92 -2.65,-3.76 -3.2,-5.47 -0.86,-0.39 -1.69,-0.74 -2.49,-1.05 -0.18,0.36 -0.58,0.63 -1.21,0.8 -0.15,-1.31 -0.25,-2.2 -0.37,-3.22 1.18,0.57 2.01,1.09 3.65,1.68l0 0.01c-0.04,-0.27 -0.06,-0.54 -0.08,-0.8 -1.22,-0.57 -2.43,-1.07 -3.65,-1.57l-0.22 -1.87c1.29,0.57 2.68,1.18 3.93,1.65 0.82,-5.9 7.38,-8.9 9.73,-5.74 0.8,1.07 0.75,2.55 -0.13,3.57 0.16,-1.76 -2.91,-3.78 -3.37,0.35 -1.23,11.07 -1.71,16.62 -1.71,16.62 -0.64,2.95 1.01,5.92 3.85,6.93l0.28 0.12 -0.3 -3.81c0.85,2.38 1.93,4.18 3.14,5.51 -0.09,0.94 -0.2,1.83 -0.33,2.68 -0.4,-0.03 -0.83,0.19 -1.29,0.65 1.06,0.78 1.78,1.32 2.6,1.93 0.09,-1.31 0.06,-2.29 0.37,-4l-0 -0.01c0.22,0.17 0.43,0.33 0.65,0.47 -0.12,1.34 -0.29,2.64 -0.46,3.95l1.51 1.12c0.15,-1.41 0.32,-2.92 0.53,-4.24 5.52,2.24 11.4,-1.94 9.84,-5.55 -0.53,-1.23 -1.84,-1.92 -3.15,-1.67 1.61,0.74 1.82,4.41 -1.99,2.74 -10.2,-4.47 -15.25,-6.83 -15.25,-6.83zm48.84 -2.55l5.5 0c-0.24,1.24 -0.44,1.32 -1.81,1.32l0 -0 -0.26 1.03c-0.09,0.36 -0.31,0.69 -0.69,0.69 -0.38,0 -0.6,-0.32 -0.69,-0.69l-0.26 -1.02c-1.35,0.01 -1.56,-0.08 -1.81,-1.32zm-22.66 -33.08c1.4,-0.27 5.61,-2.43 6.39,-2.95 -0.63,1.99 -0.79,2.39 0.23,2.1 0.71,-0.2 3.25,-0.97 3.73,-1.3 0.31,-0.21 0.22,-0.43 -0.63,-0.62 -2.35,-0.47 -3.71,-1.1 -4.15,-3.16 -0.83,1.4 -3.38,4.32 -5.58,5.92zm-21.12 91.1c0.15,1.79 -0.81,3.58 -2.52,4.38l-2.01 0.94c-2.2,1.02 -4.83,0.06 -5.85,-2.13 -1.03,-2.2 -0.07,-4.83 2.13,-5.85l2.01 -0.94c1.72,-0.8 3.7,-0.39 4.98,0.88l1.86 -0.87c-0.15,-1.79 0.81,-3.58 2.53,-4.38l2.01 -0.94c1.72,-0.8 3.7,-0.39 4.98,0.88l1.86 -0.87c-0.15,-1.79 0.81,-3.58 2.53,-4.38l1.52 -0.71 1.23 2.63 -1.52 0.71c-0.65,0.3 -0.98,1.02 -0.83,1.7l0.27 0.57c0.42,0.55 1.18,0.76 1.84,0.46l1.52 -0.71 1.23 2.63 -1.52 0.71c-1.72,0.8 -3.7,0.39 -4.98,-0.88l-1.86 0.87c0.15,1.79 -0.81,3.58 -2.53,4.38l-2.01 0.94c-1.72,0.8 -3.7,0.39 -4.98,-0.88l-1.86 0.87zm3.51 -3.64l0.27 0.57c0.42,0.55 1.19,0.76 1.84,0.46l2.01 -0.94c0.75,-0.35 1.08,-1.25 0.73,-2 -0.35,-0.75 -1.25,-1.08 -2,-0.73l-2.01 0.94c-0.65,0.3 -0.98,1.02 -0.83,1.7zm-6.53 3.39l0 0c0.35,0.75 0.02,1.65 -0.73,2l-2.01 0.94c-0.75,0.35 -1.65,0.02 -2,-0.73 -0.35,-0.75 -0.02,-1.65 0.73,-2l2.01 -0.94c0.75,-0.35 1.65,-0.02 2,0.73zm58.47 0.25c-0.15,1.79 0.81,3.58 2.53,4.38l2.01 0.94c2.2,1.02 4.83,0.06 5.86,-2.13 1.02,-2.2 0.06,-4.83 -2.13,-5.85l-2.01 -0.94c-1.72,-0.8 -3.7,-0.39 -4.98,0.88l-1.86 -0.87c0.15,-1.79 -0.81,-3.58 -2.53,-4.38l-2.01 -0.94c-1.72,-0.8 -3.7,-0.39 -4.98,0.88l-1.86 -0.87c0.15,-1.79 -0.81,-3.58 -2.53,-4.38l-1.52 -0.71 -1.23 2.63 1.52 0.71c0.65,0.3 0.98,1.02 0.83,1.7l-0.27 0.57c-0.42,0.55 -1.19,0.76 -1.84,0.46l-1.52 -0.71 -1.23 2.63 1.52 0.71c1.72,0.8 3.7,0.39 4.98,-0.88l1.86 0.87c-0.15,1.79 0.81,3.58 2.52,4.38l2.01 0.94c1.72,0.8 3.7,0.39 4.98,-0.88l1.86 0.87zm-3.51 -3.64l-0.27 0.57c-0.42,0.55 -1.18,0.76 -1.84,0.46l-2.01 -0.94c-0.75,-0.35 -1.08,-1.25 -0.73,-2 0.35,-0.75 1.25,-1.08 2,-0.73l2.01 0.94c0.65,0.3 0.98,1.02 0.83,1.7zm6.53 3.39l0 0c-0.35,0.75 -0.02,1.65 0.73,2l2.01 0.94c0.75,0.35 1.65,0.02 2,-0.73 0.35,-0.75 0.02,-1.65 -0.73,-2l-2.01 -0.94c-0.75,-0.35 -1.65,-0.02 -2,0.73zm40.27 -123.57c-0.24,2 -1.11,3.42 -2.56,4.22 -1.72,0.94 -3.78,0.75 -4.69,0.31 -2,-0.96 -2.9,-2.63 -3.17,-3.21 0.03,-0.15 0.06,-0.29 0.08,-0.44 0.55,-3.75 -0.6,-9.15 -1.49,-12.51 1.55,1.44 3.19,2.01 4.23,2.22 0.54,0.11 1.08,0.17 1.6,0.17 1.26,0 2.4,-0.33 3.2,-0.96 0.38,-0.3 0.7,-0.6 0.98,-0.91 0.72,2.01 2.31,7.03 1.82,11.11zm-78.39 -21.36c-3.4,1.65 -8.9,-3.7 -11.2,-6.43 1.47,-2.16 1.29,-5.99 0.78,-9.18 2.31,2.79 5.58,5.97 8.45,5.97 0.48,0 0.95,-0.09 1.4,-0.29 0.91,-0.39 1.55,-1.11 1.98,-2.02 0.92,3.53 1.93,10.34 -1.4,11.96zm-13.58 -6.92c-2.42,1.05 -7.41,-4.46 -10.25,-8.78 1.39,-2.07 1.35,-5.69 0.98,-8.69 2.11,2.78 5.06,5.86 7.8,5.86 0.41,0 0.82,-0.07 1.22,-0.22 0.23,-0.09 0.43,-0.2 0.63,-0.33 1.08,4.16 2.1,11.09 -0.38,12.16zm-12.66 -9.26c-2.29,0.87 -6.76,-4.53 -9.24,-8.71 0.29,-0.07 0.58,-0.16 0.88,-0.26 2.53,-0.91 4.19,-2.63 4.99,-3.63 0.88,0.39 2.35,0.88 4.11,0.74 0.89,3.87 1.72,10.93 -0.73,11.86zm-0.57 13.01c-2.2,0.74 -6.2,-4.38 -8.5,-8.48 1.16,-2.11 1.09,-5.49 0.75,-8.31 2.11,2.78 5.06,5.86 7.8,5.86 0.37,0 0.74,-0.07 1.1,-0.19 0.84,4.49 1,10.38 -1.16,11.12zm-39.67 15.49c-3.32,2.18 -7.48,2.33 -9.9,2.19 3.62,-4.04 5.91,-8.4 6.61,-9.82 3.3,-0.79 7.33,-5.37 8.7,-7.03 0.08,0 0.15,0.01 0.23,0.01 2.27,0 5.47,-2.12 8.3,-4.45 -1.37,3.65 0,0 -2.36,6.45 -3.72,4.81 -8.57,10.67 -11.58,12.64zm-26.97 7.76c6.28,-5.7 11.7,-14.99 13.21,-17.7 0.17,0.03 0.34,0.05 0.51,0.05 1.94,0 4.38,-1.63 6.52,-3.45 -0.66,2.1 -0.75,4.27 0.98,5.41 0.09,0.06 0.19,0.11 0.29,0.16 -2.15,4.04 -10.25,17.51 -21.51,15.54zm-5.34 1.47c-3.64,1.98 -7.77,2.08 -10.24,1.9 10.61,-9.18 15.34,-22.72 16.55,-26.7 0.13,0.89 0.58,1.61 1.3,2.09 0.42,0.29 0.92,0.42 1.46,0.42 2.32,0 5.55,-2.32 8.22,-4.65 -0.95,2.47 -1.52,5.16 -0.42,6.7 -1.68,3.01 -9.33,16.16 -16.85,20.24zm12.94 -33.9c0.03,-0.04 0.05,-0.09 0.07,-0.13 0.7,-0.51 1.41,-1.1 2.11,-1.72 -0.43,1.14 -0.66,2.25 -0.53,3.21 0.13,0.97 0.61,1.75 1.38,2.28 0.44,0.3 0.95,0.43 1.51,0.44 -3.71,3.46 -7.67,6.22 -8.77,5.48 -0.26,-0.18 -0.4,-0.42 -0.45,-0.77 -0.28,-2.09 2.72,-6.49 4.67,-8.77zm13.76 7.03c0.1,0.07 0.21,0.13 0.32,0.18 -3.38,3.46 -7.2,6.26 -8.4,5.47 -1.27,-0.84 0.46,-5.77 2.88,-9.85 0.02,-0.03 0.02,-0.05 0.03,-0.08 0.02,-0.05 0.04,-0.09 0.06,-0.14 1.68,-1 3.42,-2.38 4.97,-3.75 -1.25,3.15 -2.02,6.75 0.13,8.17zm-5.53 -14.92c0.46,0.23 0.96,0.44 1.51,0.6 2.59,0.74 4.94,0.32 6.17,-0.01 0.13,0.22 0.29,0.47 0.48,0.73 -0,0 -0.01,0 -0.01,0.01 -4.68,4.95 -10.71,9.57 -12.22,8.55 -0.3,-0.21 -0.47,-0.48 -0.52,-0.89 -0.29,-2.13 2.5,-6.41 4.61,-8.98zm14.71 17c-2.63,3.12 -5.85,5.88 -7.52,6.09 -0.03,-0 -0.07,0.01 -0.1,0.01 -0.24,0.01 -0.45,-0.02 -0.61,-0.13 -1.33,-0.88 0.42,-5.12 2.25,-7.99 1.91,-0.74 4.06,-2.5 5.94,-4.34 -0.82,2.45 -1.16,4.95 0.03,6.36zm-5.17 -14.17c0.72,0.62 1.62,1.19 2.76,1.55 2.43,0.75 4.35,0.23 5.43,-0.25 -0.08,0.13 -0.17,0.28 -0.27,0.47 -0.01,0.01 -0.02,0.01 -0.03,0.02 -3.22,3.98 -7.26,7.76 -9.51,8.6 -0.12,0.01 -0.23,0.04 -0.33,0.1 -0.4,0.1 -0.74,0.1 -0.97,-0.06 -1.5,-0.99 0.68,-6.58 2.91,-10.43zm10.78 46.86l-0.08 0.11 0 0 -3.75 5c-1.81,2.41 -1.69,5.66 0.29,7.93 3.22,3.69 6.44,7.38 9.66,11.08 1.8,2.06 2.55,4.6 2.15,7.3 -0.18,1.25 -0.32,2.51 -0.39,3.78 -0.14,2.7 0.01,6.25 1.75,8.47 1.36,1.73 3.41,2.29 5.5,2.35 -0.24,-1.99 -0.37,-4.01 -0.37,-6.06l0 -43.32c-1.51,-1.07 -4.4,-3.34 -7.15,-6.75 -2.54,3.37 -5.08,6.75 -7.62,10.12zm14.77 -5.86l0 -17.95 3.5 0c-1.28,-2.11 -2.14,-4.51 -2.58,-5.91 -1.19,2.03 -4.65,7.37 -7.97,7.37 -0.39,0 -0.78,-0.07 -1.16,-0.23 -1.91,-0.8 -2.4,-3.39 -2.37,-6.01 -0.68,5.18 0.61,10.87 3.14,14.74 2.45,3.75 5.46,6.46 7.43,8zm5.93 -17.95l6.37 0c1.26,-2.07 1.92,-5.07 2.16,-6.82 -3.52,-0.76 -7.07,-6.19 -8.61,-8.82 -0.25,1.72 -1.11,6.43 -3.22,8.49 0.5,1.75 1.69,4.98 3.29,7.15zm8.61 0l6.03 0c-1.82,-1.71 -3.36,-3.86 -4.33,-5.37 -0.27,1.42 -0.79,3.5 -1.7,5.37zm9.29 0l4.04 0c2.09,-2 1.99,-7.46 1.63,-10.65 -0.38,0.13 -0.77,0.21 -1.16,0.21 -3.12,0 -6.71,-3.76 -9.04,-6.69 0.37,3.5 0.31,7.98 -1.99,9.7 1.29,2.13 3.93,5.84 6.52,7.42zm6.96 0l12.53 0c-0.02,-1.43 -0.14,-2.75 -0.28,-3.69 -0.63,0.25 -1.27,0.37 -1.93,0.37 -3.45,0 -7.14,-3.07 -9.46,-5.43 0.14,2.53 0.04,5.9 -1.12,8.35 0.01,0.01 0.02,0.02 0.03,0.03 0.06,0.11 0.14,0.25 0.22,0.37zm14.56 0l6.25 0c-0.5,-0.31 -0.97,-0.68 -1.39,-1.11 -1.9,-1.98 -2.61,-4.86 -2,-8.12 0.26,-1.41 0.79,-2.77 1.43,-4.03l0.01 -0.02c-0.9,0.6 -2,0.62 -2.92,0.05 0.27,3.01 0.03,6.42 -1.91,8.38 0.06,0.11 0.11,0.22 0.13,0.35 0.08,0.48 0.36,2.29 0.41,4.49zm-3.58 -28.72c-0.1,-0.26 -0.19,-0.52 -0.29,-0.77 -0.31,0.27 -0.65,0.5 -1.06,0.66 -0.4,0.15 -0.81,0.22 -1.22,0.22 -2.74,0 -5.69,-3.08 -7.8,-5.86 0.32,2.63 0.39,5.75 -0.54,7.87 0.01,0.03 0.04,0.06 0.05,0.1 0.03,0.11 0.09,0.29 0.15,0.51 2.86,4.3 7.73,9.62 10.12,8.59 2.33,-1 1.58,-7.13 0.59,-11.32zm-39.16 -1.83c-0.08,3.59 -0.9,7.46 -2.4,10.96 0.01,-0.01 0.02,-0.02 0.03,-0.03 1.64,1.64 3.24,2.68 4.35,2.26 2.6,-0.99 1.51,-8.87 0.57,-12.53 -0.01,-0.02 0,-0.04 -0,-0.06 -0.01,-0.07 -0.01,-0.13 -0.01,-0.2 0,-0.04 -0.01,-0.08 -0.01,-0.12 -0.1,0 -0.2,0.01 -0.29,0.01 -0.83,0 -1.58,-0.1 -2.22,-0.24 0,-0.02 -0,-0.03 -0.01,-0.05zm-3.27 12.8c-0.64,1.22 -1.36,2.37 -2.18,3.43 0.01,-0.01 0.01,-0.01 0.02,-0.02 0.72,3.03 1.99,6.17 3.26,6.19 0,0 0.01,0 0.01,0 1.45,0 2.78,-3.89 3.34,-7.16 -1.49,-0.11 -3.04,-1.09 -4.47,-2.4 0.01,-0.01 0.01,-0.02 0.01,-0.04zm-3.73 5.22c-2.36,2.39 -1.52,1.32 -3.88,4.49 -0.47,3.26 -0.47,6.87 0.85,7.43 1.58,0.67 4.58,-2.93 6.43,-5.97 -1.68,-1 -2.76,-3.64 -3.41,-5.94 0,-0 0.01,-0.01 0.01,-0.01zm-2.98 -4.92c0.29,-0.94 0.52,-1.87 0.68,-2.78 -1.23,0.75 -2.83,1.39 -4.75,1.39 -0.19,0 -0.38,-0.01 -0.58,-0.02 -1.65,-0.11 -2.91,-0.75 -3.84,-1.47 -2.2,3.84 -4.32,9.32 -2.83,10.3 1.37,0.91 6.64,-2.9 11.32,-7.42zm0.95 -5.43c0.12,-5.9 -3.29,-10.57 -12.54,-11.84 -5.58,-0.77 -11.62,0.78 -18.12,4.63 0.01,0 0.02,0 0.03,-0 0.69,0.89 2.05,2.32 4.03,2.89 3.03,0.87 5.71,-0.22 5.74,-0.23l0.95 -0.39 0.36 0.96c0.01,0.02 1.06,2.62 3.78,3.46 2.77,0.86 4.59,-0.46 4.61,-0.48l0.94 -0.71 0.54 1.05c0.05,0.1 1.35,2.5 4.2,2.69 2.49,0.17 4.41,-1.1 5.47,-2.03zm-32.33 -6.18c-0.49,0.32 -0.99,0.65 -1.49,0.99 -2.6,1.8 -5.02,3.7 -7.27,5.69 0.03,-0.01 0.07,-0.03 0.09,-0.05 -0.68,2.02 -0.86,3.62 -0.18,4.07 1.17,0.77 6.1,-3.31 10.61,-8.79 -0.8,-0.68 -1.39,-1.37 -1.77,-1.9 0,-0 0.01,-0.01 0.01,-0.01zm-11.16 8.91c-2.4,2.32 -4.58,4.75 -6.56,7.28 0.03,-0.01 0.05,-0.03 0.07,-0.05 -1.09,2.66 -1.55,4.96 -0.72,5.52 1.15,0.76 5.03,-2.44 8.41,-6.22 0.5,-0.96 1.09,-1.9 1.66,-2.73 -0.1,0.01 -0.21,0.04 -0.32,0.04 -0.48,0 -0.93,-0.12 -1.32,-0.38 -1.06,-0.7 -1.36,-1.95 -1.25,-3.4 0.01,-0.01 0.02,-0.03 0.03,-0.05zm-9.56 11.43c-9.65,14.42 -13.26,31.56 -12.28,49.05 1.68,30.05 15.28,48.14 25.17,74.76 5.56,-0.74 8.43,-6.62 6.26,-11.77 -9.38,-23.21 -21.6,-44.19 -21.07,-70.24 0,-2.48 2.87,-2.59 2.87,0 -0.89,24.81 11.44,45.83 20.4,68.02 4.53,-3.79 5.36,-9.19 2.49,-16.2 -7.52,-20.64 -15.98,-40.41 -14.18,-63.39 0.14,-2.48 3.02,-2.42 2.87,0.17 -2.1,22.34 6.69,41.84 14.03,62.23 4.5,-2.65 5.71,-7.09 3.58,-13.43 -5.5,-19.07 -11.01,-37.59 -7.99,-58.25 -3.13,2.56 -6.9,4.45 -11.22,4.45 -1.37,0 -2.8,-0.2 -4.28,-0.63 -0.82,0.62 -1.64,1.16 -2.47,1.61 -3.29,1.78 -6.84,2.22 -9.53,2.22 -1.77,0 -3.15,-0.19 -3.84,-0.3 -0.71,0.53 -1.43,1.04 -2.18,1.52 0.14,-0.93 0.3,-1.85 0.48,-2.77 10.18,-7.39 15.57,-19.5 17.7,-25.4 -1.33,1.01 -2.75,1.73 -4.14,1.73 -0.51,0 -0.99,-0.13 -1.42,-0.41 -0.93,-0.62 -1.27,-1.68 -1.27,-2.92 0.01,-0.01 0.01,-0.03 0.02,-0.06zm24.94 19.56c0.14,0.32 0.2,0.74 0.13,1.25 -3.44,20.37 2.54,39.37 8.14,58.63 2.61,-1.1 5.1,-3.78 6.16,-7.14 0.43,-1.36 0.63,-2.83 0.51,-4.35 -1.02,-7.05 8.11,-2.59 3.21,9.1 -6.55,15.73 -13.65,31.56 -19.47,47.56 -2.94,8.1 4.81,10.28 7.52,4.12 4.74,-10.81 8.82,-21.85 13.11,-32.85 0.35,-1.42 2.67,-0.96 2.21,0.71 -4.27,12.12 -8.3,24.91 -12.77,36.89 -2.95,7.91 6.35,12.35 8.5,2.52 2.31,-10.56 6.03,-22.07 8.91,-32.7 0.61,-2.23 3.51,-2.02 2.62,1.71 -6.17,25.9 -8.54,36.88 -8.54,36.88 -3.16,10.54 9.45,12.56 9.96,1.61 3.48,-21.29 4.68,-30.84 4.68,-30.84 0.09,-0.45 0.16,-0.85 0.23,-1.19 0.49,-2.34 3.18,-1.69 3.23,0.51 0.01,0.47 -0.04,1.04 -0.16,1.75 -3.18,22.5 -4.35,34.47 -4.35,34.47 -2.05,9.36 10.6,12.65 11.31,-0.28 0.15,-2.68 0.2,-5.25 0.24,-7.93 0.26,-16.01 0.39,-25.81 0.39,-25.81 -0.02,-6.88 -0.04,-10.32 -0.04,-10.32l0 -0c-5.19,-6.39 -8.84,-14.08 -10.37,-22.49 -3.11,0.01 -6.12,-0.84 -8.14,-3.43 -2.97,-3.8 -2.59,-9.85 -1.93,-14.39 0.28,-1.9 -0.23,-3.61 -1.49,-5.05 -3.22,-3.69 -6.44,-7.38 -9.66,-11.07 -2.85,-3.27 -3.03,-8 -0.42,-11.47l11.95 -15.91c-0.06,-0.1 -0.13,-0.19 -0.19,-0.28 -2.32,-3.54 -3.66,-8.48 -3.6,-13.34 -3.46,4.32 -7.43,8.87 -10.16,10.66 -3.2,2.1 -6.98,2.56 -9.69,2.56 -0.76,0 -1.42,-0.04 -1.98,-0.09l-0.01 0zm93.67 -10.84l3.35 0c-0.49,-0.29 -0.96,-0.65 -1.38,-1.06 -0.1,-0.1 -0.21,-0.22 -0.31,-0.34 -0.39,0.45 -0.94,0.96 -1.66,1.4zm10.36 0l4.52 0c-0.86,-0.47 -1.7,-1.11 -2.42,-1.95 -0.43,0.59 -1.12,1.35 -2.11,1.95zm12.42 0l3.76 0c-0.47,-0.39 -1.07,-0.99 -1.62,-1.81 -0.53,0.65 -1.25,1.29 -2.14,1.81zm14.52 0l3.39 0 0 2.6 0.04 0.01 0.01 0 0.01 0c1.01,0.18 2,0.04 2.71,-0.22 2.08,-0.78 3.14,-2.92 3.45,-3.64 -1,-4.03 -0.16,-8.58 0.21,-10.22 -2.96,-0.38 -6.03,-1.01 -8.78,-2.02 -0.77,1.98 -2.64,7.42 -1.74,11.51 0.16,0.74 0.4,1.4 0.71,1.98zm3.39 23.73l0 40.04c0,13.94 -5.8,26.6 -15.1,35.67l0 0c16.87,8.85 17.36,32.73 0.54,24.47 -1.49,-0.86 -3.3,-0.96 -4.87,-0.27 -1.57,0.69 -2.73,2.08 -3.11,3.76 0,0 0.5,0.31 1.49,0.94 1.02,-1.7 2.79,-2.82 4.77,-3.01 1.98,-0.19 3.93,0.57 5.26,2.04 -1.48,-0.96 -3.34,-1.14 -4.98,-0.48 -1.64,0.66 -2.85,2.09 -3.24,3.81 0.2,0.16 0.7,0.47 1.49,0.94 1.02,-1.7 2.79,-2.82 4.77,-3.01 1.98,-0.19 3.93,0.57 5.26,2.04 -3.15,-2.05 -7.39,-0.33 -8.23,3.34 6.38,4.6 15.33,2.88 19.54,-3.77 1.93,0.85 4.19,0.26 5.46,-1.43 7.07,-14.21 3.82,-7.64 7.05,-13.83 -12.74,-4.49 -10.87,-26.94 -1.99,-31.69 -1.31,1.53 -3.76,9.9 -3.71,15.8 0.07,10.02 12.44,6.49 15.1,20.75 1.39,7.45 -3.01,14.73 -11.26,13.35 -1.84,-0.44 -3.78,0.03 -5.23,1.25 -1.45,1.22 -2.23,3.06 -2.1,4.95 0,0 0.62,0.17 1.87,0.52 0.54,-2.12 2.06,-3.86 4.09,-4.69 2.03,-0.83 4.33,-0.64 6.2,0.5 -1.87,-0.55 -3.89,-0.15 -5.41,1.07 -1.52,1.22 -2.35,3.11 -2.23,5.05 0.26,0.1 0.89,0.28 1.88,0.52 0.54,-2.12 2.06,-3.86 4.09,-4.69 2.03,-0.83 4.33,-0.64 6.2,0.5 -3.98,-1.17 -7.91,1.99 -7.64,6.12 8.19,2.85 17.11,-1.8 19.45,-10.15 2.31,0.29 4.51,-1.05 5.31,-3.24 0,-8.6 0,-17.2 0,-25.81 -5.57,0.04 -10.83,-2.55 -14.2,-6.99 -3.37,-4.44 -4.44,-10.21 -2.89,-15.56 10.78,12.73 26.33,15.91 36.12,6.01 -0.05,-0.05 -0.11,-0.11 -0.16,-0.16 -0.09,0.03 -0.19,0.06 -0.29,0.09 -2.83,0.75 -5.76,0.49 -8.34,-0.61 -9.89,4.01 -23.4,-5.22 -29.32,-34.88l-7.12 3.27c0.17,4.96 -0.26,12.47 -3.64,16.41 -1.68,1.96 -3.41,2.8 -2.79,1.36 2.57,-5.94 3.67,-12.19 3.29,-18.65 -0.04,-0.65 0.31,-1.22 0.9,-1.49 4.6,-2.11 9.05,-3.79 13.06,-6.92 9.71,-7.58 12.48,-17.88 16.69,-29.94 -0.49,-2.34 -1.22,-4.48 -2.12,-6.44 -0.24,0.75 -0.57,1.51 -1.04,2.2 -1.12,1.68 -3.62,3.27 -6.63,3.27 -1.56,0 -3.27,-0.43 -4.99,-1.49 -1.9,-1.17 -3.39,-3.03 -4.51,-4.9 0.38,2.02 0.59,4.24 0.34,6.3 -0.4,3.33 -2.17,4.95 -3.58,5.72 -1.18,0.65 -2.51,0.92 -3.72,0.92 -1.07,0 -2.06,-0.21 -2.78,-0.56 -1.4,-0.67 -2.39,-1.6 -3.05,-2.45 -1.44,3.35 -4.22,4.82 -6.96,4.82 -0.73,0 -2.54,-0.19 -2.98,-0.69zm0.09 -2.47c0.47,0.52 1.14,0.98 2.09,1.11 2.58,0.36 5.87,-1.01 6.62,-6.07 0.69,-4.7 -1.71,-12.74 -2.21,-14.36 -0.74,0.9 -1.75,1.8 -3.12,2.31 -0.79,0.3 -1.63,0.45 -2.47,0.45 -0.31,0 -0.93,-0.07 -0.93,-0.07l0.02 16.63zm38.35 -13.46c-1.4,-2.36 -3.07,-4.45 -4.88,-6.34 -0.15,0.4 -0.33,0.81 -0.58,1.23 -0.73,1.24 -2.29,2.18 -4.17,2.51 -0.4,0.07 -0.89,0.12 -1.46,0.12 -1.38,0 -3.2,-0.34 -5.11,-1.57 0.72,2.14 2.68,7.04 6.05,9.12 4.31,2.66 7.93,0.3 8.92,-1.18 0.8,-1.2 1.11,-2.66 1.23,-3.88zm-6.52 -7.97c-4.49,-4.25 -9.58,-7.52 -13.6,-10.79 -0.33,0.01 -0.69,0.02 -1.1,0.03 0.48,2.66 2,9.67 5.17,12.33 2.49,2.09 4.89,2.05 6.08,1.84 1.55,-0.27 2.47,-1.01 2.79,-1.55 0.38,-0.65 0.57,-1.28 0.66,-1.85zm-15.86 -12.75c-2.76,-2.59 -4.66,-5.31 -4.93,-8.62 -2.37,-1.26 -4.86,-2.98 -6.97,-5.33 -4.27,-4.74 -5.05,-10.96 -5.19,-13.44 -0.09,0 -0.17,0.01 -0.27,0.01 -1.45,0 -3.24,-0.28 -5.3,-1.16 -3.54,2.44 -5.66,6.02 -5.95,10.15 -0.34,4.82 1.8,9.72 5.73,13.11 5.44,4.69 16.96,5.3 22.89,5.28zm-7.64 1.68c2.51,0.24 4.86,0.32 6.77,0.33 0.35,2.06 1.47,7.68 3.91,11.48 -0.03,0.48 -0.27,2.02 -2.02,3.39 -0.5,0.39 -1.63,0.74 -3.17,0.41 -1.2,-0.25 -3.43,-1.1 -4.97,-3.96 -2.13,-3.95 -0.87,-10.16 -0.52,-11.65zm-14.66 8.33c-0.06,0.11 -1.08,2.06 -3.64,2.51 -0.62,0.11 -1.78,-0.12 -2.99,-1.12 -0.94,-0.78 -2.52,-2.58 -2.53,-5.83 -0.02,-4.52 4.39,-9.9 5.46,-11.13 0.56,0.63 1.16,1.23 1.81,1.79 1.12,0.97 2.46,1.78 3.93,2.45 -0.76,1.93 -2.48,6.93 -2.04,11.33zm-11.15 -4.43c0.01,1.37 0.25,2.53 0.61,3.51 -0.53,0.89 -2.29,3.27 -5.87,2.84 -1.6,-0.2 -5.73,-1.85 -5.64,-7.07 0.06,-3.67 3.35,-8.1 5.23,-10.34 0.8,2.82 3.19,4.37 4.93,4.72 0.44,0.09 0.86,0.13 1.26,0.13 0.45,0 0.87,-0.06 1.27,-0.15 -1.02,1.99 -1.8,4.22 -1.79,6.37zm-12.01 3.55c-0.01,0.03 -0.04,0.04 -0.05,0.07 -0.01,0.03 -1.28,2.64 -4.3,2.72 -1.28,0.04 -2.59,-0.5 -3.56,-1.47 -0.91,-0.9 -1.98,-2.6 -1.93,-5.59 0.07,-3.89 3.08,-7.73 4.52,-9.34 0.84,1.19 1.97,2.04 3.15,2.32 0.74,0.17 1.42,0.24 2.06,0.24 0.58,0 1.1,-0.07 1.58,-0.16 -1.27,2.16 -2.31,4.61 -2.35,6.91 -0.03,1.69 0.32,3.12 0.88,4.31zm-10.8 0.66c-0.41,0.59 -1.49,1.84 -3.5,2.14 -1.69,0.25 -3.32,-0.3 -4.48,-1.5 -1.44,-1.5 -1.97,-3.76 -1.48,-6.37 0.75,-4.01 4.03,-7.77 5.41,-9.21 1.32,1 2.86,1.4 4.01,1.4 0,0 0.01,0 0.01,0 0.95,0 1.78,-0.09 2.51,-0.2 -1.61,2.17 -3.45,5.39 -3.51,8.78 -0.04,2.14 0.42,3.75 1.04,4.97zm1.49 -31.05c0.84,1.85 2.26,3.37 3.66,3.86 0.73,0.26 1.41,0.39 2.04,0.44 -0.96,1.05 -1.81,2.23 -2.34,3.53 -1.22,2.94 -0.92,5.32 -0.4,6.88 -0.54,0.23 -2.11,0.8 -4.47,0.8 -0,0 -0,0 -0.01,0 -0.96,0 -2.45,-0.42 -3.47,-1.6 -0.99,-1.14 -1.35,-2.73 -1.06,-4.72 0.57,-3.94 4.38,-7.71 6.06,-9.19zm10.89 -12.9c-0.07,1.19 0.17,2.16 0.4,2.77 0.53,1.39 1.48,2.44 2.55,2.82 0.38,0.13 0.74,0.2 1.1,0.23 -0.22,0.31 -0.43,0.63 -0.62,0.97 -0.97,1.73 -1.45,3.53 -1.43,5.21 -0.82,0.4 -2.54,1.32 -4.35,2.66 -0.02,0.01 -0.05,0.01 -0.07,0.03 -0.07,0.04 -1.69,1.06 -4.16,0.2 -0.84,-0.3 -2.04,-1.5 -2.69,-3.22 -0.52,-1.36 -0.85,-3.48 0.46,-5.82 1.83,-3.28 6.49,-5.11 8.8,-5.84zm2.74 -2.36c1.33,-2.39 3.92,-3.66 5.13,-4.16 1.75,2.46 3.44,4.47 5.05,6.12 -1.55,0.62 -4.01,1.77 -6.16,3.47 -0.01,0.01 -0.01,0.01 -0.02,0.01 -0.01,0.01 -1.48,1.2 -3.12,0.62 -0.42,-0.15 -1,-0.71 -1.35,-1.65 -0.3,-0.8 -0.64,-2.43 0.47,-4.43zm1.8 28.03c-0.01,0.09 -0.01,0.17 -0.02,0.25 -0.32,0.33 -1.45,1.55 -2.72,3.26 -0.01,0.01 -0.01,0.01 -0.02,0.01 -0.02,0.01 -2,1.57 -5.08,0.85 -0.88,-0.21 -1.8,-1.05 -2.39,-2.2 -0.55,-1.07 -1.27,-3.31 -0.01,-6.36 1.51,-3.64 6.01,-6.35 8.02,-7.41 0.07,0.22 0.13,0.45 0.22,0.66 0.67,1.65 1.92,2.84 3.41,3.28 0.55,0.16 1.14,0.23 1.75,0.23 0.28,0 0.57,-0.02 0.85,-0.04 -1.68,1.95 -3.71,4.8 -4.02,7.46zm12.08 1.34c-0.18,0.2 -1.26,1.41 -2.48,3.17 -0.26,0.26 -1.82,1.71 -4.05,1.26 -1.14,-0.23 -4.01,-1.68 -3.57,-5.54 0.4,-3.47 4.74,-7.73 5.55,-8.49 0.43,-0.15 0.83,-0.3 1.18,-0.44 0.04,3.54 1.24,7.06 3.38,10.05zm-85.56 -32.4c1.08,-0.22 1.99,-0.74 2.72,-1.57 -2.86,-2.11 -5.73,-2.11 -8.59,0 1.91,0.45 3.43,1.27 4.57,2.46 2.03,2.14 2.21,1.82 1.31,-0.89zm28.42 6.85c-15.33,-16.56 -37.43,-17.12 -36.98,-8.99 -11.25,0.02 -13.59,4.98 -7.07,13.19 0.37,-3.93 7.45,-4.05 11.62,-0.33 2.16,1.92 3.31,5.31 3.53,9.22 0.01,-0.01 0.01,-0.02 0.01,-0.03 1.11,0.29 2.89,0.54 4.67,-0.1 2.94,-1.06 4.5,-3.53 4.51,-3.56l0.54 -0.87 0.85 0.55c0.02,0.01 2.39,1.5 5.09,0.59 2.75,-0.93 3.44,-3.07 3.45,-3.09l0.35 -1.13 1.05 0.53c0.1,0.05 2.56,1.24 4.99,-0.28 2.62,-1.64 3.24,-4.62 3.38,-5.72zm9.14 14.06c-2.06,-4.71 -4.63,-8.75 -7.5,-12.19 -0.38,1.34 -1.12,3.05 -2.58,4.45 2.5,4.17 6.89,9.47 9.17,8.6 0.38,-0.14 0.68,-0.45 0.91,-0.86zm-17.45 -5.92c1.2,0.36 3.37,0.68 5.59,-0.53 0.88,3.89 1.67,10.83 -0.76,11.75 -2.15,0.82 -6.22,-3.89 -8.76,-7.94 2.2,-0.85 3.37,-2.32 3.93,-3.29zm55.69 147.65c-0.31,0.17 -0.62,0.35 -0.93,0.52 -1.24,0.69 -1.41,1.88 -1.42,2.78l-14.74 8.19 1.83 1.01 13.78 -7.66c0.77,0.46 1.87,0.94 3.1,0.26 0.31,-0.17 0.62,-0.35 0.93,-0.52 -0.75,-0.01 -1.36,-0.57 -2.08,-0.82l0.82 -0.46c0.77,0.46 1.87,0.94 3.1,0.26 0.31,-0.17 0.62,-0.35 0.93,-0.52 -0.75,-0.01 -1.36,-0.57 -2.08,-0.82l0.82 -0.46c0.77,0.46 1.87,0.94 3.1,0.26 0.31,-0.17 0.62,-0.35 0.93,-0.52 -0.75,-0.01 -1.36,-0.58 -2.08,-0.82l0.91 -0.5c0.03,-0.02 0.07,-0.03 0.1,-0.06 0.64,-0.39 1.2,-1.48 1.82,-2.03 -0.87,0.26 -2.24,0.12 -2.86,0.58l-0.83 0.46c0.17,-0.75 0.02,-1.57 0.4,-2.21 -0.31,0.17 -0.62,0.35 -0.93,0.52 -1.24,0.69 -1.41,1.88 -1.42,2.78l-0.83 0.46c0.18,-0.75 0.02,-1.57 0.4,-2.21 -0.31,0.17 -0.62,0.35 -0.93,0.52 -1.24,0.69 -1.41,1.88 -1.42,2.78l-0.83 0.46c0.17,-0.75 0.01,-1.57 0.4,-2.21zm-1.82 6.28l-12.32 6.84 1.83 1.01 11.35 -6.3 -0.86 -1.55zm4.61 -1.27c-0.31,0.17 -0.62,0.35 -0.93,0.52 -1.24,0.69 -1.41,1.88 -1.42,2.78l-11.62 6.45 1.83 1.01 10.65 -5.92c0.77,0.46 1.87,0.94 3.1,0.25 0.31,-0.17 0.62,-0.34 0.93,-0.52 -0.75,-0.01 -1.36,-0.58 -2.08,-0.82l0.82 -0.46c0.77,0.46 1.87,0.94 3.1,0.25 0.31,-0.17 0.62,-0.35 0.93,-0.52 -0.75,-0.01 -1.35,-0.57 -2.08,-0.82l0.82 -0.46c0.77,0.46 1.87,0.94 3.1,0.26 0.31,-0.17 0.62,-0.35 0.93,-0.52 -0.75,-0.01 -1.36,-0.57 -2.08,-0.82l0.91 -0.5c0.03,-0.02 0.07,-0.03 0.1,-0.05l0 -0c0.64,-0.39 1.2,-1.48 1.82,-2.03 -0.87,0.26 -2.24,0.12 -2.86,0.58l-0.84 0.46c0.17,-0.75 0.02,-1.57 0.4,-2.21 -0.31,0.17 -0.62,0.35 -0.93,0.52 -1.24,0.69 -1.41,1.88 -1.42,2.78l-0.83 0.46c0.17,-0.75 0.02,-1.57 0.4,-2.21 -0.31,0.17 -0.62,0.35 -0.93,0.52 -1.24,0.69 -1.41,1.88 -1.42,2.78l-0.83 0.46c0.18,-0.75 0.02,-1.56 0.4,-2.21zm-7.4 -3.75l-15.44 8.58 1.83 1.01 14.48 -8.04 -0.86 -1.55zm1.82 -6.28c-0.31,0.17 -0.62,0.35 -0.93,0.52 -1.24,0.69 -1.41,1.88 -1.42,2.78l-17.87 9.93 0 -5.06c-1.63,0.2 -3.28,0.31 -4.95,0.35l0 27.01 -1.95 0 0 -27.01c-1.67,-0.03 -3.32,-0.15 -4.95,-0.35 0,8.87 0,18.49 0,27.36l-5.88 0 -5.55 -1.67c0,3.73 0,3.88 0,7.61l5.55 -1.67 8.16 0 0 19.89 -2.7 5.55 12.71 0 -2.7 -5.55 0 -15.86 -0.55 0c0.18,-0 0.37,-0.01 0.55,-0.01l0 -4.02 8.16 0 5.55 1.67 0 -7.61 -5.55 1.67 -5.88 0 0 -22.29 1.83 1.01 16.91 -9.39c0.77,0.46 1.86,0.94 3.1,0.26 0.31,-0.17 0.62,-0.35 0.93,-0.52 -0.75,-0.01 -1.36,-0.57 -2.08,-0.82l0.82 -0.46c0.77,0.46 1.87,0.94 3.1,0.26 0.31,-0.17 0.62,-0.35 0.93,-0.52 -0.75,-0.01 -1.36,-0.58 -2.08,-0.82l0.82 -0.46c0.77,0.46 1.87,0.94 3.1,0.25 0.31,-0.17 0.62,-0.34 0.93,-0.52 -0.75,-0.01 -1.36,-0.58 -2.08,-0.82l0.91 -0.5c0.03,-0.02 0.07,-0.03 0.1,-0.06l0 -0c0.64,-0.39 1.2,-1.48 1.82,-2.03 -0.87,0.26 -2.24,0.12 -2.86,0.58l-0.83 0.46c0.18,-0.75 0.01,-1.57 0.4,-2.21 -0.31,0.17 -0.62,0.34 -0.93,0.52 -1.24,0.69 -1.41,1.88 -1.42,2.78l-0.83 0.46c0.18,-0.75 0.02,-1.57 0.4,-2.21 -0.31,0.17 -0.62,0.35 -0.93,0.52 -1.24,0.69 -1.41,1.88 -1.42,2.78l-0.83 0.46c0.17,-0.75 0.02,-1.57 0.4,-2.21zm-40.93 5.61c0.81,0.38 1.61,0.75 2.42,1.13 4.23,1.97 3.98,6.45 4.16,8.52 -0.81,-0.38 -1.61,-0.75 -2.42,-1.13 -4.23,-1.97 -2.38,-5.97 -4.16,-8.52zm-14.64 -1.79c-1.24,-1.71 -5.25,-0.88 -7.76,-1.43 2.04,1.56 3.98,5.17 6.09,5.02 1.71,-0.12 2.68,-2.21 1.68,-3.59zm-5.3 6.94c0.81,0.38 1.61,0.75 2.42,1.13 4.23,1.97 7.5,-1.1 9.2,-2.29 -0.8,-0.38 -1.61,-0.75 -2.42,-1.13 -4.23,-1.97 -6.11,2.02 -9.2,2.29zm5.54 -11.87c0.81,0.38 1.61,0.75 2.42,1.13 4.23,1.97 3.98,6.45 4.16,8.52 -0.81,-0.38 -1.61,-0.75 -2.42,-1.13 -4.23,-1.97 -2.38,-5.97 -4.16,-8.52zm1.66 15.23c0.8,0.38 1.61,0.75 2.42,1.13 4.23,1.97 7.5,-1.1 9.2,-2.29 -0.8,-0.37 -1.61,-0.75 -2.42,-1.13 -4.23,-1.97 -6.1,2.02 -9.2,2.29zm5.53 -11.87c0.81,0.38 1.61,0.75 2.42,1.13 4.23,1.97 3.98,6.45 4.16,8.52 -0.8,-0.38 -1.61,-0.75 -2.42,-1.13 -4.23,-1.97 -2.38,-5.97 -4.16,-8.52zm1.67 15.23c0.8,0.38 1.61,0.75 2.42,1.13 4.23,1.97 7.5,-1.1 9.2,-2.29 -0.81,-0.38 -1.61,-0.75 -2.42,-1.13 -4.23,-1.97 -6.1,2.02 -9.2,2.29zm108.92 -87.2l34.47 53.73c-4.52,1.19 -9.33,-0.39 -12.25,-4.04l-26.89 -42.03c1.84,-2.39 3.35,-4.95 4.67,-7.66zm-6.17 9.49l25.98 40.49c-3.71,0.98 -7.66,-0.32 -10.06,-3.32l-20.82 -32.54c1.85,-1.46 3.47,-3 4.9,-4.63zm-6.61 5.9l18.64 29.05c-8.4,2.21 -13.21,-7.01 -15.66,-13.54 -1.83,-4.88 -3.12,-10.05 -4.04,-14.78 0.36,-0.24 0.71,-0.48 1.06,-0.72zm-11.28 -94.96c-0.99,1.25 -2.78,1.52 -4.09,0.61 -1.31,-0.9 -1.7,-2.67 -0.89,-4.05 4.15,0 7.63,1.67 11.18,4.41 -4.13,-0.65 -6.2,-0.98 -6.2,-0.98zm-29.1 11.8c-0.54,0.25 -1.3,0.57 -2.15,0.85 -0,0 -0,0 -0,0 -1.55,0.51 -3.39,0.9 -4.69,0.52 -0.91,-0.27 -1.69,-1.04 -2.13,-2.12 -0.72,-1.76 -0.43,-4.03 0.8,-6.23 2.1,-3.76 7.61,-6 9.33,-6.63 1.66,1.51 3.23,2.64 4.69,3.48 -3.28,2.58 -5.32,6.1 -5.83,10.13zm13.13 -21.13c4.75,1.74 6.52,4.68 5.28,8.73 -0.18,0.58 -1.45,1.99 -4.04,2.36 -1.43,0.2 -3.5,0.1 -6.06,-1.04 -0.06,-0.04 -0.14,-0.07 -0.21,-0.09 -1.76,-0.82 -3.75,-2.14 -5.93,-4.18 -0.03,-0.04 -0.07,-0.07 -0.11,-0.1 -1.99,-1.89 -4.14,-4.38 -6.42,-7.68 3.78,-0.02 12.46,0.16 17.5,2.01zm12.56 29.69c4.44,-0.3 7.12,0.27 8.03,1.71 1.15,-0.09 2.2,-0.7 2.83,-1.67 2.08,-3.18 -0.8,-5.01 -4.02,-4.75 -0.56,0.05 -1.05,-0.37 -1.09,-0.93 -0.12,-1.54 7.02,-2.69 8.8,-1.6 2.06,-3.2 3.28,-6.89 3.54,-10.68 -8.01,-7.57 -17.14,-11.87 -27.4,-12.9 0.29,-5.27 -8.9,-6.89 -19.57,-2.86l0.01 0c4.3,0.02 12.1,0.33 17,2.13 8.06,2.96 7.23,8.81 6.49,11.19 -0.43,1.39 -2.23,2.98 -4.9,3.59 0.12,2.12 0.79,8.03 4.69,12.35 1.68,1.87 3.66,3.31 5.59,4.43z"/>
 </g>
</svg>
