<svg width="34" height="34" viewBox="0 0 34 34" fill="none" xmlns="http://www.w3.org/2000/svg">
<path d="M29.7502 19.8333C29.3744 19.8333 29.0141 19.9826 28.7484 20.2482C28.4827 20.5139 28.3335 20.8743 28.3335 21.25V26.9166C28.3335 27.2924 28.1842 27.6527 27.9186 27.9184C27.6529 28.1841 27.2926 28.3333 26.9168 28.3333H7.0835C6.70777 28.3333 6.34744 28.1841 6.08176 27.9184C5.81609 27.6527 5.66683 27.2924 5.66683 26.9166V21.25C5.66683 20.8743 5.51757 20.5139 5.2519 20.2482C4.98622 19.9826 4.62589 19.8333 4.25016 19.8333C3.87444 19.8333 3.5141 19.9826 3.24843 20.2482C2.98275 20.5139 2.8335 20.8743 2.8335 21.25V26.9166C2.8335 28.0438 3.28126 29.1248 4.07829 29.9219C4.87532 30.7189 5.95633 31.1666 7.0835 31.1666H26.9168C28.044 31.1666 29.125 30.7189 29.922 29.9219C30.7191 29.1248 31.1668 28.0438 31.1668 26.9166V21.25C31.1668 20.8743 31.0176 20.5139 30.7519 20.2482C30.4862 19.9826 30.1259 19.8333 29.7502 19.8333ZM15.9943 22.2558C16.1291 22.3848 16.2879 22.4859 16.4618 22.5533C16.6314 22.6283 16.8148 22.667 17.0002 22.667C17.1856 22.667 17.3689 22.6283 17.5385 22.5533C17.7124 22.4859 17.8713 22.3848 18.006 22.2558L23.6727 16.5891C23.9394 16.3224 24.0893 15.9606 24.0893 15.5833C24.0893 15.2061 23.9394 14.8442 23.6727 14.5775C23.4059 14.3107 23.0441 14.1609 22.6668 14.1609C22.2896 14.1608 21.9278 14.3107 21.661 14.5775L18.4168 17.8358V4.24998C18.4168 3.87426 18.2676 3.51392 18.0019 3.24824C17.7362 2.98257 17.3759 2.83331 17.0002 2.83331C16.6244 2.83331 16.2641 2.98257 15.9984 3.24824C15.7328 3.51392 15.5835 3.87426 15.5835 4.24998V17.8358L12.3393 14.5775C12.2072 14.4454 12.0504 14.3406 11.8778 14.2691C11.7053 14.1976 11.5203 14.1609 11.3335 14.1609C11.1467 14.1608 10.9617 14.1976 10.7891 14.2691C10.6166 14.3406 10.4598 14.4454 10.3277 14.5775C10.1956 14.7096 10.0908 14.8664 10.0193 15.039C9.94783 15.2115 9.91103 15.3965 9.91103 15.5833C9.91103 15.7701 9.94783 15.9551 10.0193 16.1277C10.0908 16.3002 10.1956 16.4571 10.3277 16.5891L15.9943 22.2558Z" fill="white"/>
</svg>
