<svg xmlns="http://www.w3.org/2000/svg" xml:space="preserve" width="0.944882in" height="0.176732in" version="1.1" style="shape-rendering:geometricPrecision; text-rendering:geometricPrecision; image-rendering:optimizeQuality; fill-rule:evenodd; clip-rule:evenodd"
viewBox="0 0 78.16 14.62">

 <g id="Layer_x0020_1">
  <metadata id="CorelCorpID_0Corel-Layer"/>
  <g id="_1851082786896">
   <path fill="#FEFEFE" d="M39.9 3.01c-2.38,0 -4.31,1.91 -4.31,4.27 0,2.36 1.93,4.27 4.31,4.27 2.38,0 4.31,-1.91 4.31,-4.27 0,-2.36 -1.93,-4.27 -4.31,-4.27zm0 -3.01c4.05,0 7.34,3.26 7.34,7.29 0,4.02 -3.29,7.29 -7.34,7.29 -4.05,0 -7.34,-3.26 -7.34,-7.29 0,-4.02 3.29,-7.29 7.34,-7.29z"/>
   <path fill="#FEFEFE" d="M70.99 3.01c-2.38,0 -4.31,1.91 -4.31,4.27 0,2.36 1.93,4.27 4.31,4.27 2.38,0 4.31,-1.91 4.31,-4.27 0,-2.36 -1.93,-4.27 -4.31,-4.27zm4.31 -1.63l0 -1.01 2.87 0 0 13.82 -2.87 0 0 -1.01c-1.25,0.9 -2.75,1.38 -4.31,1.38 -4.05,0 -7.34,-3.26 -7.34,-7.29 0,-4.02 3.29,-7.29 7.34,-7.29 1.55,0 3.05,0.48 4.31,1.38z"/>
   <path fill="#FEFEFE" d="M52.94 7.29c0,2.36 1.93,4.27 4.31,4.27 1.04,0 2.04,-0.37 2.82,-1.05l0.1 -0.09 1.54 2.65c-1.28,0.97 -2.84,1.5 -4.46,1.5 -4.05,0 -7.34,-3.26 -7.34,-7.29 0,-4.02 3.29,-7.29 7.34,-7.29 1.63,0 3.19,0.53 4.46,1.5l-1.54 2.65 -0.1 -0.09c-0.79,-0.68 -1.78,-1.05 -2.82,-1.05 -2.38,0 -4.31,1.91 -4.31,4.27z"/>
   <path fill="#FEFEFE" d="M25.14 0.38l3.44 5.91 2.72 -4.68c0.15,-0.26 0.15,-0.56 0,-0.82 -0.15,-0.26 -0.41,-0.41 -0.72,-0.41l-5.44 0zm-9.36 1.23c-0.15,-0.26 -0.15,-0.56 0,-0.82 0.15,-0.26 0.41,-0.41 0.71,-0.41l3.85 0 5.84 10.03c-0.64,1.1 -1.28,2.21 -1.93,3.31 -0.15,0.26 -0.41,0.41 -0.72,0.41 -0.3,0 -0.56,-0.15 -0.71,-0.41 -2.35,-4.04 -4.7,-8.07 -7.05,-12.11z"/>
   <path fill="#FEFEFE" d="M3.45 5.46l7.78 0c-0.69,-1.44 -2.17,-2.44 -3.89,-2.44 -1.72,0 -3.2,1 -3.89,2.44zm10.48 7.19c-1.48,1.22 -3.46,1.97 -5.65,1.97 -4.17,0 -8.28,-2.96 -8.28,-7.33 0,-4.02 3.29,-7.29 7.34,-7.29 4.05,0 7.34,3.26 7.34,7.29 0,0.4 -0.03,0.79 -0.1,1.18l-11.3 0c0.61,1.79 2.62,3.09 4.99,3.09 1.65,0 3.13,-0.63 4.08,-1.62l1.57 2.7z"/>
  </g>
 </g>
</svg>
