<svg width="12" height="23" viewBox="0 0 12 23" fill="none" xmlns="http://www.w3.org/2000/svg">
<path fill-rule="evenodd" clip-rule="evenodd" d="M3.27383 5.06335V7.96525H0.475101C0.150956 7.96525 0 8.22087 0 8.55627V11.888C0 12.2909 0.184892 12.4791 0.580809 12.4791H3.27383V21.6142C3.27383 21.9345 3.4868 22.0441 3.80198 22.0441H7.28722C7.76115 22.0441 7.86803 21.7635 7.86803 21.2919V12.4255H11.1423C11.3977 12.4255 11.5647 12.2556 11.5647 11.9956V8.39512C11.5647 8.10258 11.3771 7.91166 11.0896 7.91166H7.86842C7.86842 7.28492 7.78651 5.41899 7.91679 4.95181C8.29204 3.60744 11.6704 4.89227 11.6704 3.93529V0.496357C11.6704 0.11293 11.3638 0.0129053 10.9839 0.0129053C9.08933 0.0129053 6.79574 -0.188731 5.24952 1.00204C4.04382 1.93044 3.27422 3.4701 3.27422 5.06414L3.27383 5.06335Z" fill="#2A3549"/>
</svg>
