<svg xmlns="http://www.w3.org/2000/svg" xml:space="preserve" width="2.21283in" height="1.41732in" version="1.1" style="shape-rendering:geometricPrecision; text-rendering:geometricPrecision; image-rendering:optimizeQuality; fill-rule:evenodd; clip-rule:evenodd"
viewBox="0 0 270.93 173.53">

 <g id="Layer_x0020_1">
  <metadata id="CorelCorpID_0Corel-Layer"/>
  <path fill="#2858A1" fill-rule="nonzero" d="M7.33 161.01l-0.37 0.08c-0.3,0.07 -0.54,0.2 -0.72,0.4 -0.18,0.2 -0.31,0.44 -0.38,0.73 -0.07,0.29 -0.1,0.62 -0.08,0.99 0.02,0.37 0.07,0.76 0.17,1.16 0.1,0.42 0.21,0.8 0.35,1.15 0.14,0.35 0.3,0.63 0.48,0.87 0.18,0.24 0.39,0.4 0.62,0.51 0.23,0.1 0.49,0.12 0.77,0.06 0.32,-0.07 0.56,-0.24 0.72,-0.5 0.16,-0.26 0.27,-0.6 0.34,-1.03 0.06,-0.42 0.08,-0.93 0.07,-1.51 -0.02,-0.58 -0.06,-1.23 -0.1,-1.94 -0.07,-1 -0.1,-1.9 -0.08,-2.72 0.02,-0.82 0.14,-1.53 0.36,-2.16 0.22,-0.62 0.57,-1.15 1.05,-1.56 0.48,-0.42 1.14,-0.72 2,-0.92 0.96,-0.22 1.84,-0.22 2.63,-0.01 0.8,0.22 1.51,0.61 2.14,1.2 0.63,0.59 1.17,1.34 1.62,2.26 0.45,0.93 0.82,2 1.1,3.2 0.28,1.2 0.42,2.31 0.41,3.34 0,1.03 -0.15,1.94 -0.44,2.73 -0.29,0.8 -0.74,1.46 -1.34,2 -0.6,0.53 -1.37,0.91 -2.3,1.13l-0.89 0.21 -0.97 -4.2 0.68 -0.16c0.38,-0.09 0.73,-0.24 1.03,-0.46 0.3,-0.22 0.53,-0.51 0.7,-0.87 0.17,-0.36 0.27,-0.8 0.29,-1.31 0.02,-0.51 -0.05,-1.11 -0.2,-1.8 -0.29,-1.28 -0.66,-2.18 -1.1,-2.72 -0.44,-0.54 -0.97,-0.73 -1.6,-0.59 -0.31,0.07 -0.54,0.22 -0.71,0.45 -0.17,0.23 -0.29,0.55 -0.36,0.97 -0.07,0.42 -0.09,0.94 -0.07,1.57 0.01,0.62 0.06,1.37 0.12,2.23 0.07,0.86 0.08,1.69 0.02,2.48 -0.05,0.79 -0.22,1.51 -0.49,2.16 -0.27,0.65 -0.68,1.2 -1.2,1.67 -0.53,0.46 -1.24,0.8 -2.13,1 -0.72,0.17 -1.39,0.18 -2.04,0.04 -0.64,-0.14 -1.24,-0.46 -1.77,-0.94 -0.54,-0.48 -1.02,-1.15 -1.45,-1.99 -0.43,-0.84 -0.78,-1.88 -1.06,-3.12 -0.29,-1.24 -0.43,-2.34 -0.43,-3.3 -0,-0.96 0.12,-1.77 0.38,-2.45 0.25,-0.68 0.61,-1.23 1.09,-1.64 0.47,-0.41 1.04,-0.7 1.7,-0.85l0.49 -0.11 0.99 4.29 -0 -0zm-7.13 -15.56c-0.09,-1.14 -0.02,-2.16 0.19,-3.06 0.21,-0.89 0.56,-1.65 1.06,-2.28 0.5,-0.62 1.13,-1.11 1.89,-1.47 0.77,-0.35 1.66,-0.57 2.69,-0.65l10.61 -0.81 0.32 4.18 -10.36 0.79c-1.2,0.09 -2.05,0.38 -2.56,0.87 -0.51,0.49 -0.73,1.21 -0.66,2.17 0.07,0.98 0.41,1.67 1.01,2.06 0.6,0.39 1.47,0.54 2.63,0.46l10.36 -0.79 0.32 4.18 -10.61 0.81c-1.04,0.08 -1.96,-0 -2.77,-0.25 -0.82,-0.24 -1.52,-0.64 -2.1,-1.19 -0.58,-0.55 -1.04,-1.25 -1.38,-2.09 -0.34,-0.84 -0.55,-1.82 -0.63,-2.94l0 -0zm16.43 -11.53l-16.62 -1.26 0.32 -4.18 4.25 0.32 0.51 -6.7 3.18 0.24 -0.51 6.7 9.19 0.7 -0.32 4.18 -0 0zm-14.64 -22.56c0.41,-2.32 1.28,-3.95 2.6,-4.88 1.32,-0.93 3.13,-1.19 5.44,-0.78l0.93 0.17 -0.74 4.13 -0.93 -0.17c-0.66,-0.12 -1.23,-0.17 -1.71,-0.15 -0.48,0.02 -0.89,0.11 -1.23,0.28 -0.34,0.17 -0.61,0.41 -0.8,0.74 -0.2,0.32 -0.34,0.73 -0.43,1.22 -0.09,0.51 -0.09,0.95 0,1.33 0.09,0.38 0.27,0.7 0.54,0.97 0.27,0.27 0.62,0.49 1.06,0.67 0.44,0.17 0.96,0.32 1.56,0.43l9.97 1.78 -0.74 4.13 -10.48 -1.87c-1.02,-0.18 -1.9,-0.49 -2.62,-0.93 -0.73,-0.44 -1.3,-1 -1.72,-1.68 -0.43,-0.68 -0.7,-1.47 -0.82,-2.37 -0.12,-0.9 -0.08,-1.9 0.12,-3.01l0 -0zm19.82 -10.11l-1.34 3.97 -15.79 -5.34 1.34 -3.97 5.4 1.83c-0.09,-0.22 -0.17,-0.46 -0.24,-0.73 -0.07,-0.27 -0.11,-0.56 -0.11,-0.89 -0.01,-0.33 0.02,-0.7 0.08,-1.11 0.06,-0.41 0.18,-0.86 0.35,-1.37 0.29,-0.84 0.67,-1.56 1.17,-2.16 0.5,-0.6 1.09,-1.05 1.8,-1.35 0.7,-0.3 1.51,-0.45 2.42,-0.43 0.91,0.02 1.93,0.21 3.06,0.59l0.89 0.3 -1.34 3.97 -0.89 -0.3c-0.64,-0.22 -1.19,-0.35 -1.67,-0.4 -0.48,-0.05 -0.9,-0.02 -1.25,0.1 -0.36,0.12 -0.66,0.32 -0.91,0.61 -0.24,0.29 -0.45,0.67 -0.61,1.15 -0.17,0.51 -0.24,1.03 -0.2,1.55 0.04,0.52 0.16,1.01 0.36,1.45l7.49 2.53 0 -0zm9.79 -23.97l-6.02 13.33 -4.99 -2.26 1.73 -3.82 2.09 0.95 0.35 -0.77c-0.06,-1.13 -0.23,-2.09 -0.5,-2.89 -0.27,-0.8 -0.61,-1.48 -1.02,-2.04 -0.41,-0.56 -0.88,-1.02 -1.41,-1.39 -0.53,-0.37 -1.09,-0.68 -1.68,-0.95 -0.49,-0.22 -0.96,-0.38 -1.39,-0.46 -0.43,-0.08 -0.82,-0.09 -1.18,-0 -0.36,0.08 -0.68,0.25 -0.97,0.51 -0.29,0.26 -0.53,0.61 -0.74,1.07 -0.21,0.47 -0.31,0.9 -0.31,1.3 0.01,0.4 0.13,0.76 0.35,1.1 0.22,0.34 0.55,0.66 0.97,0.96 0.43,0.3 0.94,0.59 1.56,0.86l-1.73 3.82c-1.16,-0.53 -2.1,-1.11 -2.82,-1.74 -0.72,-0.63 -1.23,-1.33 -1.53,-2.1 -0.3,-0.77 -0.4,-1.61 -0.29,-2.52 0.1,-0.91 0.4,-1.91 0.9,-3 0.97,-2.13 2.17,-3.51 3.62,-4.13 1.45,-0.62 3.1,-0.5 4.97,0.34 0.57,0.26 1.14,0.59 1.72,1 0.57,0.41 1.09,0.91 1.56,1.52 0.47,0.61 0.85,1.33 1.15,2.16 0.3,0.84 0.45,1.81 0.46,2.9l2.29 -5.07 2.89 1.31 0 -0zm-2.55 -25.55l2.6 1.85 -1.9 2.67 6.07 4.32c0.84,0.6 1.49,1.24 1.97,1.94 0.47,0.7 0.76,1.44 0.86,2.23 0.1,0.79 0.02,1.62 -0.26,2.49 -0.28,0.87 -0.75,1.78 -1.41,2.71 -0.65,0.91 -1.33,1.64 -2.06,2.19 -0.72,0.55 -1.47,0.91 -2.26,1.08 -0.78,0.17 -1.58,0.15 -2.4,-0.06 -0.82,-0.21 -1.66,-0.62 -2.51,-1.22l-8.67 -6.17 2.43 -3.42 8.47 6.02c0.94,0.67 1.77,0.99 2.49,0.97 0.71,-0.03 1.35,-0.44 1.92,-1.24 0.55,-0.78 0.74,-1.51 0.55,-2.19 -0.18,-0.68 -0.77,-1.37 -1.74,-2.06l-8.47 -6.02 4.33 -6.09 -0 -0zm17.52 5.16l-2.9 3.04 -12.07 -11.5 2.9 -3.04 4.13 3.94c0.01,-0.24 0.04,-0.49 0.09,-0.76 0.05,-0.27 0.14,-0.55 0.27,-0.85 0.13,-0.3 0.31,-0.63 0.54,-0.97 0.23,-0.35 0.53,-0.71 0.89,-1.09 0.61,-0.64 1.27,-1.13 1.97,-1.47 0.7,-0.33 1.43,-0.49 2.2,-0.47 0.76,0.02 1.56,0.23 2.38,0.63 0.82,0.4 1.66,1.01 2.53,1.83l0.68 0.65 -2.9 3.04 -0.68 -0.65c-0.49,-0.46 -0.94,-0.82 -1.35,-1.07 -0.41,-0.25 -0.8,-0.4 -1.18,-0.44 -0.37,-0.05 -0.74,0.01 -1.08,0.17 -0.34,0.16 -0.69,0.42 -1.03,0.78 -0.37,0.39 -0.65,0.83 -0.84,1.32 -0.19,0.49 -0.28,0.98 -0.29,1.47l5.72 5.45 0 -0zm4.29 -22.93l-1.94 -2.47 3.91 -3.07c0.99,-0.78 1.9,-1.36 2.74,-1.75 0.84,-0.38 1.6,-0.6 2.28,-0.65 0.68,-0.05 1.3,0.06 1.84,0.32 0.54,0.27 1.02,0.66 1.42,1.18 0.3,0.39 0.53,0.79 0.68,1.21 0.15,0.42 0.23,0.84 0.22,1.28 -0,0.43 -0.08,0.86 -0.23,1.3 -0.15,0.43 -0.38,0.85 -0.68,1.26 0.53,-0.2 1.06,-0.33 1.59,-0.39 0.53,-0.06 1.06,-0.01 1.6,0.14 0.53,0.15 1.07,0.43 1.61,0.82 0.54,0.39 1.09,0.94 1.63,1.63l1.61 2.04 -3.39 2.66 -1.51 -1.92c-0.51,-0.65 -1.02,-1.13 -1.54,-1.43 -0.51,-0.3 -1.03,-0.47 -1.55,-0.48 -0.52,-0.02 -1.04,0.09 -1.57,0.32 -0.53,0.24 -1.07,0.57 -1.62,1l-2.93 2.3 -1.97 -2.51 3.62 -2.85c0.46,-0.36 0.82,-0.69 1.09,-1.01 0.27,-0.31 0.45,-0.6 0.55,-0.88 0.1,-0.27 0.13,-0.54 0.07,-0.79 -0.05,-0.25 -0.17,-0.49 -0.36,-0.73 -0.39,-0.49 -0.87,-0.67 -1.46,-0.54 -0.59,0.13 -1.3,0.53 -2.14,1.19l-3.57 2.8 -0 0zm26.68 -1.55c-0.97,0.56 -1.9,0.93 -2.79,1.13 -0.88,0.2 -1.72,0.21 -2.5,0.04 -0.78,-0.17 -1.5,-0.52 -2.16,-1.06 -0.66,-0.53 -1.25,-1.25 -1.77,-2.16l-5.31 -9.23 3.64 -2.09 5.18 9.01c0.58,1 1.19,1.64 1.85,1.92 0.66,0.27 1.41,0.17 2.26,-0.32 0.83,-0.48 1.3,-1.06 1.42,-1.76 0.12,-0.69 -0.12,-1.56 -0.72,-2.6l-5.18 -9.01 3.64 -2.09 4.92 8.55 4.15 0.6 2.1 3.66 -4.88 -0.84c0.17,1.23 -0.05,2.36 -0.69,3.41 -0.64,1.05 -1.69,2 -3.17,2.85l-0 -0zm11.98 -17.44c0.86,-0.34 1.54,-0.65 2.04,-0.94 0.5,-0.29 0.87,-0.57 1.09,-0.85 0.23,-0.28 0.35,-0.55 0.36,-0.83 0.01,-0.28 -0.05,-0.57 -0.17,-0.88 -0.22,-0.55 -0.6,-0.84 -1.14,-0.9 -0.54,-0.05 -1.22,0.08 -2.03,0.4 -0.39,0.15 -0.74,0.33 -1.06,0.52 -0.31,0.2 -0.57,0.41 -0.77,0.63 -0.19,0.23 -0.32,0.47 -0.39,0.74 -0.06,0.26 -0.03,0.54 0.08,0.83l0.06 0.15 -4.1 1.62 -0.1 -0.26c-0.25,-0.64 -0.34,-1.27 -0.27,-1.89 0.07,-0.62 0.31,-1.23 0.74,-1.83 0.42,-0.59 1.03,-1.16 1.81,-1.7 0.79,-0.55 1.78,-1.05 2.97,-1.52 1.18,-0.47 2.23,-0.76 3.15,-0.87 0.92,-0.11 1.71,-0.08 2.38,0.09 0.67,0.17 1.22,0.46 1.66,0.88 0.44,0.41 0.77,0.91 1,1.48 0.19,0.47 0.28,0.92 0.27,1.34 -0.01,0.42 -0.1,0.82 -0.27,1.2 -0.17,0.37 -0.41,0.73 -0.72,1.06 -0.31,0.34 -0.68,0.65 -1.1,0.95 0.54,-0.07 1.07,-0.11 1.6,-0.11 0.52,-0.01 1.01,0.06 1.46,0.19 0.46,0.13 0.86,0.36 1.23,0.67 0.37,0.31 0.66,0.75 0.88,1.32 0.31,0.79 0.43,1.57 0.35,2.32 -0.08,0.76 -0.35,1.48 -0.82,2.17 -0.47,0.69 -1.13,1.34 -1.98,1.94 -0.86,0.61 -1.9,1.15 -3.14,1.64 -1.15,0.45 -2.23,0.75 -3.24,0.9 -1.02,0.15 -1.94,0.14 -2.77,-0.03 -0.83,-0.17 -1.56,-0.52 -2.18,-1.03 -0.62,-0.52 -1.1,-1.22 -1.46,-2.11l-0.09 -0.23 4.01 -1.58 0.01 0.02c0.15,0.37 0.35,0.68 0.61,0.95 0.26,0.27 0.59,0.45 0.97,0.57 0.38,0.12 0.83,0.15 1.34,0.09 0.51,-0.05 1.1,-0.21 1.75,-0.47 0.7,-0.27 1.25,-0.56 1.67,-0.84 0.42,-0.29 0.73,-0.57 0.93,-0.87 0.2,-0.29 0.3,-0.59 0.31,-0.88 0.01,-0.29 -0.04,-0.58 -0.16,-0.87 -0.13,-0.33 -0.31,-0.58 -0.53,-0.77 -0.23,-0.19 -0.54,-0.29 -0.94,-0.32 -0.4,-0.03 -0.91,0.04 -1.53,0.19 -0.62,0.15 -1.38,0.4 -2.28,0.76l-5.58 2.2 -1.23 -3.11 5.34 -2.1 -0 0zm21.47 -8.49l4.09 -0.94 2.84 12.31 -4.09 0.94 -1.28 -5.56c-0.14,0.19 -0.3,0.39 -0.49,0.58 -0.19,0.2 -0.42,0.38 -0.69,0.56 -0.28,0.18 -0.6,0.35 -0.98,0.51 -0.38,0.16 -0.83,0.3 -1.35,0.42 -0.86,0.2 -1.68,0.25 -2.45,0.14 -0.77,-0.11 -1.46,-0.38 -2.09,-0.82 -0.63,-0.44 -1.17,-1.05 -1.64,-1.83 -0.47,-0.79 -0.84,-1.76 -1.1,-2.91l-1.19 -5.14 4.09 -0.94 1.19 5.14c0.15,0.65 0.33,1.2 0.53,1.64 0.21,0.43 0.45,0.77 0.74,1.02 0.28,0.24 0.61,0.4 0.99,0.45 0.37,0.05 0.81,0.02 1.31,-0.09 0.52,-0.12 0.99,-0.33 1.41,-0.64 0.42,-0.31 0.77,-0.66 1.04,-1.07l-0.87 -3.77 -0 -0zm17.19 11.02c-1.12,0.09 -2.11,0.02 -3,-0.18 -0.88,-0.2 -1.64,-0.55 -2.27,-1.05 -0.63,-0.49 -1.13,-1.12 -1.49,-1.88 -0.36,-0.76 -0.59,-1.67 -0.67,-2.71l-0.81 -10.61 4.18 -0.32 0.79 10.36c0.09,1.15 0.37,2 0.84,2.53 0.48,0.53 1.2,0.76 2.18,0.68 0.95,-0.07 1.63,-0.4 2.04,-0.98 0.4,-0.57 0.56,-1.46 0.47,-2.66l-0.79 -10.36 4.18 -0.32 0.75 9.83 3.49 2.33 0.32 4.21 -4.04 -2.86c-0.37,1.18 -1.07,2.11 -2.1,2.78 -1.03,0.67 -2.39,1.07 -4.09,1.2l0 0zm22.49 -12.41l4.18 0.32 -0.96 12.6 -4.18 -0.32 0.43 -5.69c-0.19,0.14 -0.4,0.28 -0.64,0.41 -0.24,0.13 -0.51,0.24 -0.83,0.33 -0.32,0.09 -0.68,0.16 -1.09,0.19 -0.41,0.04 -0.88,0.04 -1.41,0 -0.88,-0.07 -1.68,-0.27 -2.38,-0.59 -0.7,-0.33 -1.28,-0.8 -1.75,-1.41 -0.47,-0.6 -0.81,-1.35 -1.02,-2.24 -0.21,-0.89 -0.28,-1.93 -0.19,-3.11l0.4 -5.26 4.18 0.32 -0.4 5.26c-0.05,0.67 -0.04,1.24 0.02,1.72 0.07,0.48 0.2,0.87 0.4,1.19 0.2,0.32 0.47,0.56 0.81,0.72 0.34,0.16 0.77,0.27 1.27,0.3 0.53,0.04 1.05,-0.02 1.54,-0.19 0.5,-0.17 0.94,-0.4 1.32,-0.71l0.29 -3.86 0 -0zm13.13 15.62c-1.09,-0.25 -2.02,-0.61 -2.81,-1.07 -0.78,-0.46 -1.4,-1.02 -1.86,-1.68 -0.46,-0.65 -0.74,-1.4 -0.86,-2.24 -0.12,-0.84 -0.06,-1.77 0.17,-2.79l2.39 -10.37 4.09 0.94 -2.34 10.12c-0.26,1.13 -0.24,2.02 0.05,2.67 0.3,0.65 0.92,1.08 1.88,1.3 0.93,0.21 1.68,0.11 2.24,-0.32 0.56,-0.43 0.97,-1.23 1.24,-2.4l2.34 -10.12 4.09 0.94 -2.22 9.61 2.64 3.26 -0.95 4.12 -3 -3.94c-0.71,1.02 -1.65,1.69 -2.83,2.03 -1.18,0.34 -2.6,0.31 -4.26,-0.07l-0 0zm19.69 -0.8c-0.25,0.56 -0.43,1.07 -0.53,1.53 -0.1,0.46 -0.12,0.88 -0.05,1.25 0.07,0.37 0.23,0.7 0.49,0.99 0.26,0.29 0.63,0.54 1.1,0.75 0.45,0.2 0.87,0.32 1.25,0.34 0.38,0.02 0.73,-0.06 1.06,-0.24 0.33,-0.18 0.64,-0.47 0.92,-0.85 0.29,-0.39 0.57,-0.88 0.85,-1.5l0.39 -0.86 3.82 1.73 -0.39 0.86c-0.97,2.14 -2.21,3.49 -3.72,4.05 -1.52,0.56 -3.35,0.36 -5.5,-0.61 -1.02,-0.46 -1.87,-1 -2.55,-1.6 -0.67,-0.61 -1.17,-1.28 -1.49,-2.01 -0.32,-0.73 -0.46,-1.53 -0.41,-2.37 0.05,-0.85 0.28,-1.74 0.71,-2.69l3.07 -6.8 -2.99 -1.35 1.31 -2.9 6.81 3.08 -4.17 9.22 0 -0zm27.77 11.57c0.64,0.65 1.21,1.29 1.7,1.92 0.5,0.63 0.87,1.27 1.11,1.91 0.24,0.64 0.33,1.28 0.27,1.92 -0.07,0.65 -0.34,1.31 -0.82,1.98 -0.57,0.8 -1.22,1.38 -1.94,1.71 -0.72,0.34 -1.51,0.48 -2.37,0.41 -0.86,-0.07 -1.78,-0.32 -2.76,-0.78 -0.98,-0.45 -2.03,-1.06 -3.13,-1.85 -1.09,-0.78 -2.01,-1.57 -2.73,-2.37 -0.73,-0.8 -1.26,-1.61 -1.59,-2.42 -0.33,-0.81 -0.46,-1.61 -0.37,-2.41 0.09,-0.8 0.41,-1.59 0.96,-2.37l0.53 -0.75 3.42 2.43 -0.4 0.57c-0.19,0.27 -0.33,0.56 -0.4,0.87 -0.07,0.3 -0.08,0.62 -0,0.96 0.07,0.33 0.22,0.68 0.44,1.04 0.22,0.36 0.54,0.73 0.94,1.11l2.41 -3.39c-0.4,-0.39 -0.77,-0.79 -1.13,-1.2 -0.35,-0.41 -0.67,-0.82 -0.95,-1.25 -0.28,-0.43 -0.5,-0.86 -0.67,-1.3 -0.17,-0.44 -0.28,-0.88 -0.3,-1.34 -0.03,-0.46 0.02,-0.92 0.15,-1.38 0.13,-0.47 0.37,-0.94 0.71,-1.42 0.43,-0.6 0.93,-1.05 1.52,-1.35 0.59,-0.31 1.26,-0.45 2.02,-0.43 0.76,0.02 1.59,0.22 2.51,0.6 0.92,0.38 1.91,0.95 2.99,1.71l1.84 1.31 -3.95 5.56 -0 -0zm-1.41 5.77c0.27,-0.38 0.34,-0.8 0.2,-1.26 -0.15,-0.46 -0.47,-0.93 -0.99,-1.43l-1.99 2.8c0.61,0.34 1.16,0.51 1.64,0.5 0.48,-0.01 0.86,-0.22 1.15,-0.62zm-1.92 -10.98c-0.27,0.38 -0.34,0.8 -0.19,1.24 0.14,0.44 0.47,0.9 0.97,1.37l1.85 -2.61c-0.6,-0.39 -1.12,-0.58 -1.57,-0.57 -0.45,0 -0.8,0.19 -1.07,0.56l0 0zm9 23.6c-0.81,-0.77 -1.43,-1.56 -1.87,-2.36 -0.43,-0.8 -0.68,-1.6 -0.74,-2.4 -0.06,-0.8 0.07,-1.59 0.4,-2.37 0.32,-0.78 0.84,-1.55 1.56,-2.3l7.35 -7.7 3.04 2.9 -2.93 3.07 6.99 6.66 -2.2 2.31 -6.99 -6.66 -1.86 1.95c-0.42,0.44 -0.76,0.87 -1.01,1.27 -0.25,0.4 -0.4,0.79 -0.46,1.16 -0.06,0.37 -0.01,0.74 0.14,1.1 0.15,0.36 0.41,0.71 0.79,1.07 0.36,0.34 0.72,0.59 1.07,0.73 0.35,0.15 0.71,0.18 1.08,0.12 0.37,-0.07 0.75,-0.23 1.16,-0.5 0.4,-0.27 0.83,-0.64 1.3,-1.13l0.11 -0.11 3.04 2.9 -0.11 0.11c-1.62,1.7 -3.24,2.56 -4.85,2.59 -1.62,0.03 -3.28,-0.77 -4.99,-2.4l0 0zm20.33 6.94c0.48,-0.38 0.87,-0.75 1.18,-1.11 0.3,-0.36 0.51,-0.72 0.62,-1.09 0.11,-0.36 0.12,-0.73 0.02,-1.11 -0.1,-0.38 -0.31,-0.77 -0.62,-1.17 -0.31,-0.4 -0.63,-0.7 -0.96,-0.89 -0.33,-0.19 -0.68,-0.28 -1.05,-0.27 -0.38,0.01 -0.78,0.12 -1.21,0.33 -0.43,0.21 -0.91,0.52 -1.44,0.94l-0.74 0.58 -2.59 -3.3 0.74 -0.58c1.84,-1.45 3.57,-2.07 5.17,-1.87 1.6,0.2 3.13,1.23 4.59,3.09 0.69,0.88 1.2,1.74 1.51,2.6 0.32,0.85 0.45,1.68 0.39,2.48 -0.06,0.8 -0.3,1.56 -0.73,2.29 -0.43,0.73 -1.06,1.41 -1.87,2.05l-2.17 1.71 2.03 2.58 -2.51 1.97 -2.03 -2.58 -3.7 2.9 -2.59 -3.3 7.96 -6.26 0 0zm0.63 19.68c-0.56,-0.97 -0.93,-1.9 -1.13,-2.79 -0.19,-0.89 -0.2,-1.72 -0.03,-2.51 0.17,-0.78 0.52,-1.5 1.05,-2.16 0.53,-0.66 1.25,-1.25 2.15,-1.77l9.23 -5.31 2.09 3.64 -3.68 2.12 4.81 8.37 -2.76 1.59 -4.81 -8.37 -2.33 1.34c-0.53,0.3 -0.97,0.62 -1.33,0.93 -0.35,0.31 -0.61,0.64 -0.77,0.98 -0.16,0.34 -0.22,0.7 -0.18,1.09 0.04,0.39 0.19,0.8 0.45,1.25 0.25,0.43 0.52,0.77 0.82,1 0.3,0.24 0.63,0.38 1.01,0.42 0.37,0.04 0.79,-0.01 1.25,-0.15 0.46,-0.14 0.98,-0.38 1.56,-0.72l0.14 -0.08 2.09 3.64 -0.14 0.08c-2.03,1.17 -3.83,1.54 -5.39,1.11 -1.56,-0.43 -2.93,-1.67 -4.1,-3.71l0 -0zm23.31 8.3c0.86,2.19 0.98,4.03 0.34,5.52 -0.63,1.49 -2.04,2.66 -4.22,3.52l-0.87 0.34 -1.54 -3.9 0.87 -0.34c0.63,-0.25 1.14,-0.51 1.53,-0.77 0.4,-0.27 0.7,-0.56 0.9,-0.88 0.2,-0.32 0.3,-0.67 0.3,-1.05 -0,-0.38 -0.09,-0.8 -0.28,-1.26 -0.19,-0.48 -0.42,-0.86 -0.7,-1.13 -0.28,-0.28 -0.6,-0.46 -0.97,-0.54 -0.37,-0.09 -0.78,-0.09 -1.25,-0.01 -0.46,0.08 -0.98,0.23 -1.55,0.46l-9.42 3.71 -1.54 -3.9 9.9 -3.9c0.97,-0.38 1.87,-0.57 2.72,-0.58 0.85,-0 1.63,0.17 2.35,0.52 0.72,0.36 1.36,0.89 1.94,1.59 0.57,0.71 1.07,1.58 1.48,2.62l0 0zm-11.16 21.5c-0.25,-1.09 -0.34,-2.09 -0.27,-2.99 0.07,-0.9 0.3,-1.7 0.69,-2.4 0.39,-0.7 0.94,-1.28 1.64,-1.76 0.7,-0.48 1.56,-0.83 2.58,-1.07l10.37 -2.39 0.94 4.09 -10.13 2.34c-1.13,0.26 -1.92,0.67 -2.37,1.21 -0.45,0.55 -0.57,1.3 -0.35,2.26 0.21,0.93 0.64,1.56 1.27,1.87 0.63,0.31 1.53,0.34 2.7,0.07l10.12 -2.34 0.94 4.09 -9.61 2.22 -1.78 3.8 -4.12 0.95 2.22 -4.42c-1.23,-0.19 -2.25,-0.74 -3.06,-1.65 -0.82,-0.91 -1.42,-2.2 -1.81,-3.86l-0 0zm15.47 11.47c0.68,-0.05 1.3,0.03 1.87,0.25 0.57,0.22 1.07,0.6 1.5,1.14 0.43,0.54 0.79,1.25 1.07,2.14 0.28,0.89 0.47,1.96 0.57,3.24 0.1,1.26 0.06,2.35 -0.1,3.26 -0.16,0.91 -0.43,1.66 -0.78,2.25 -0.36,0.59 -0.8,1.03 -1.33,1.33 -0.52,0.3 -1.1,0.47 -1.71,0.52 -0.51,0.04 -0.96,-0.01 -1.36,-0.15 -0.4,-0.13 -0.75,-0.34 -1.07,-0.61 -0.31,-0.27 -0.57,-0.61 -0.8,-1 -0.23,-0.4 -0.42,-0.84 -0.58,-1.33 -0.09,0.54 -0.21,1.06 -0.36,1.56 -0.15,0.5 -0.35,0.95 -0.61,1.34 -0.26,0.39 -0.6,0.72 -1,0.97 -0.41,0.26 -0.92,0.41 -1.53,0.45 -0.85,0.07 -1.62,-0.05 -2.32,-0.35 -0.7,-0.3 -1.31,-0.77 -1.83,-1.42 -0.52,-0.65 -0.94,-1.47 -1.26,-2.47 -0.32,-1 -0.54,-2.16 -0.64,-3.49 -0.09,-1.23 -0.06,-2.35 0.09,-3.37 0.15,-1.02 0.44,-1.9 0.85,-2.64 0.41,-0.74 0.95,-1.34 1.63,-1.78 0.68,-0.44 1.49,-0.7 2.44,-0.77l0.24 -0.02 0.33 4.3 -0.02 0c-0.4,0.03 -0.76,0.13 -1.09,0.3 -0.33,0.17 -0.61,0.43 -0.83,0.76 -0.22,0.34 -0.38,0.75 -0.49,1.26 -0.1,0.51 -0.12,1.11 -0.07,1.81 0.06,0.75 0.16,1.36 0.31,1.85 0.15,0.48 0.33,0.86 0.56,1.14 0.22,0.28 0.47,0.46 0.75,0.56 0.28,0.1 0.57,0.13 0.88,0.11 0.35,-0.03 0.65,-0.12 0.89,-0.28 0.24,-0.16 0.44,-0.43 0.58,-0.81 0.14,-0.38 0.24,-0.89 0.27,-1.52 0.04,-0.64 0.02,-1.44 -0.05,-2.41l-0.57 -7.44 3.34 -0.25 0.19 2.45c0.25,-0.24 0.55,-0.44 0.88,-0.6 0.33,-0.16 0.72,-0.26 1.16,-0.29l0 0zm-1.56 7.21c0.07,0.97 0.29,1.7 0.65,2.18 0.36,0.49 0.88,0.7 1.55,0.65 0.29,-0.02 0.54,-0.12 0.73,-0.28 0.2,-0.17 0.36,-0.38 0.48,-0.66 0.12,-0.28 0.19,-0.6 0.23,-0.96 0.04,-0.37 0.04,-0.77 0.01,-1.2 -0.03,-0.42 -0.09,-0.8 -0.18,-1.16 -0.09,-0.36 -0.21,-0.67 -0.36,-0.92 -0.15,-0.26 -0.35,-0.46 -0.57,-0.59 -0.23,-0.14 -0.5,-0.19 -0.81,-0.17 -0.62,0.05 -1.08,0.31 -1.37,0.78 -0.29,0.47 -0.42,1.12 -0.4,1.94l0.03 0.39 -0 -0zm-9.97 15.23l0.32 -4.18 16.62 1.26 -0.32 4.18 -5.69 -0.43c0.14,0.19 0.28,0.4 0.41,0.64 0.13,0.24 0.24,0.52 0.33,0.83 0.09,0.32 0.15,0.68 0.19,1.1 0.04,0.41 0.04,0.88 0,1.41 -0.07,0.89 -0.27,1.68 -0.59,2.39 -0.33,0.7 -0.8,1.29 -1.41,1.76 -0.6,0.47 -1.35,0.81 -2.24,1.02 -0.89,0.21 -1.93,0.28 -3.11,0.18l-0.94 -0.07 0.32 -4.18 0.94 0.07c0.67,0.05 1.24,0.04 1.72,-0.03 0.48,-0.07 0.87,-0.2 1.19,-0.4 0.32,-0.2 0.56,-0.47 0.72,-0.82 0.16,-0.34 0.27,-0.76 0.3,-1.26 0.04,-0.54 -0.02,-1.05 -0.18,-1.55 -0.16,-0.5 -0.4,-0.94 -0.71,-1.32l-7.88 -0.6 -0 0zm-2.56 18.56c0.25,-1.09 0.61,-2.02 1.07,-2.81 0.46,-0.78 1.02,-1.4 1.68,-1.86 0.65,-0.46 1.4,-0.74 2.24,-0.86 0.84,-0.12 1.77,-0.06 2.79,0.17l10.37 2.39 -0.94 4.09 -10.12 -2.34c-1.13,-0.26 -2.01,-0.24 -2.67,0.05 -0.65,0.3 -1.08,0.92 -1.3,1.88 -0.21,0.93 -0.11,1.68 0.32,2.24 0.43,0.56 1.23,0.97 2.4,1.24l10.12 2.34 -0.94 4.09 -9.61 -2.22 -3.26 2.64 -4.11 -0.95 3.94 -3c-1.02,-0.71 -1.69,-1.65 -2.03,-2.83 -0.34,-1.18 -0.31,-2.6 0.07,-4.26l0 0zm-206.66 -3.66l0.9 3.08 -2.85 2.16 1.66 5.66 3.56 0.23 0.89 3.02 -15.72 -1.34 -0.88 -3.02 12.45 -9.79 -0 0zm-4.06 6.86l-4.65 3.49 5.78 0.37 -1.13 -3.87 -0 0zm3.9 -8.47l-14.56 2.06 -0.88 -6.19c-0.22,-1.56 -0.25,-2.71 -0.09,-3.45 0.16,-0.75 0.55,-1.37 1.15,-1.89 0.61,-0.52 1.34,-0.84 2.2,-0.96 1.1,-0.15 2.04,0.04 2.84,0.58 0.8,0.54 1.38,1.43 1.75,2.68 0.28,-0.69 0.61,-1.27 1,-1.74 0.39,-0.48 1.1,-1.14 2.13,-2l2.59 -2.18 0.5 3.51 -2.88 2.56c-1.02,0.92 -1.66,1.53 -1.92,1.86 -0.25,0.32 -0.41,0.64 -0.48,0.97 -0.06,0.33 -0.05,0.83 0.05,1.51l0.08 0.6 6.08 -0.86 0.42 2.95 -0 0zm-8.81 -1.76l-0.31 -2.18c-0.2,-1.41 -0.38,-2.28 -0.55,-2.61 -0.17,-0.33 -0.41,-0.58 -0.73,-0.74 -0.32,-0.16 -0.7,-0.2 -1.14,-0.14 -0.49,0.07 -0.87,0.26 -1.13,0.56 -0.27,0.3 -0.4,0.7 -0.41,1.18 0,0.25 0.08,0.96 0.25,2.15l0.32 2.29 3.7 -0.52 0 -0zm7.17 -12.94l-14.7 -0.16 0.05 -4.46 10.06 -2.53 -10 -2.71 0.05 -4.47 14.7 0.16 -0.03 2.75 -11.58 -0.12 11.54 3.03 -0.03 2.86 -11.61 2.76 11.58 0.14 -0.03 2.75 0 0zm0.72 -17.16l-14.33 -3.31 2.45 -10.6 2.42 0.56 -1.78 7.7 3.18 0.74 1.65 -7.16 2.42 0.56 -1.65 7.16 3.88 0.9 1.84 -7.98 2.42 0.56 -2.51 10.89 -0 0zm3.15 -13.35l-13.75 -5.2 1.02 -2.7 11.36 -2.17 -9.22 -3.49 0.97 -2.57 13.75 5.2 -1.05 2.78 -11.15 2.15 9.04 3.42 -0.97 2.57 0 0zm5.67 -13.58l-13.14 -6.61 1.34 -2.66 13.14 6.61 -1.34 2.66zm9.69 -16.4l-1.7 2.72 -3.51 -0.7 -3.13 5 2.19 2.81 -1.67 2.67 -9.44 -12.64 1.67 -2.67 15.59 2.8 -0 -0zm-7.83 1.52l-5.7 -1.15 3.56 4.57 2.14 -3.42 0 -0zm8.94 -2.74l-10.55 -10.25 2.01 -2.07 11.29 2.53 -7.07 -6.87 1.92 -1.97 10.55 10.25 -2.07 2.13 -11.09 -2.46 6.93 6.74 -1.92 1.97 -0 0zm22.18 -19.39l-6.48 -10.36 -3.69 2.31 -1.32 -2.11 9.89 -6.18 1.32 2.11 -3.67 2.3 6.48 10.36 -2.53 1.58 0 0zm4.07 -11.06c-0.6,-1.37 -0.91,-2.62 -0.91,-3.73 0,-0.82 0.15,-1.62 0.44,-2.4 0.29,-0.78 0.69,-1.44 1.2,-1.98 0.68,-0.72 1.57,-1.33 2.67,-1.81 1.99,-0.88 3.84,-0.96 5.58,-0.25 1.73,0.71 3.08,2.16 4.05,4.36 0.96,2.18 1.12,4.14 0.48,5.89 -0.64,1.75 -1.95,3.06 -3.93,3.93 -2,0.88 -3.86,0.97 -5.58,0.27 -1.72,-0.7 -3.05,-2.13 -4,-4.27l0 -0zm2.76 -1.32c0.67,1.53 1.53,2.52 2.59,3 1.05,0.48 2.12,0.48 3.2,-0 1.09,-0.48 1.8,-1.26 2.16,-2.35 0.35,-1.09 0.18,-2.41 -0.51,-3.98 -0.68,-1.54 -1.53,-2.55 -2.54,-3.01 -1.01,-0.46 -2.08,-0.45 -3.2,0.05 -1.12,0.49 -1.86,1.28 -2.21,2.35 -0.35,1.07 -0.18,2.38 0.5,3.93l-0 0zm12.48 -12.94l2.92 -0.61 1.62 7.8c0.26,1.24 0.46,2.03 0.61,2.38 0.25,0.56 0.64,0.98 1.17,1.24 0.54,0.26 1.21,0.31 2.01,0.14 0.81,-0.17 1.4,-0.46 1.74,-0.89 0.35,-0.42 0.51,-0.89 0.49,-1.4 -0.02,-0.51 -0.14,-1.33 -0.38,-2.47l-1.66 -7.97 2.92 -0.61 1.57 7.57c0.36,1.73 0.54,2.97 0.53,3.72 -0.01,0.75 -0.17,1.41 -0.49,1.99 -0.32,0.58 -0.8,1.09 -1.44,1.52 -0.65,0.44 -1.53,0.78 -2.67,1.01 -1.37,0.28 -2.44,0.34 -3.22,0.17 -0.77,-0.17 -1.42,-0.47 -1.94,-0.89 -0.52,-0.42 -0.9,-0.9 -1.14,-1.43 -0.36,-0.78 -0.71,-1.98 -1.04,-3.6l-1.6 -7.69 0 -0zm17.51 11.22l-0.79 -14.68 6.24 -0.34c1.57,-0.08 2.72,-0.01 3.44,0.21 0.73,0.22 1.32,0.66 1.78,1.31 0.46,0.65 0.72,1.41 0.77,2.28 0.06,1.1 -0.21,2.03 -0.82,2.78 -0.61,0.75 -1.55,1.26 -2.82,1.51 0.66,0.34 1.21,0.72 1.65,1.15 0.44,0.43 1.05,1.19 1.81,2.29l1.95 2.77 -3.54 0.19 -2.3 -3.09c-0.82,-1.1 -1.38,-1.79 -1.68,-2.07 -0.3,-0.28 -0.6,-0.47 -0.93,-0.56 -0.32,-0.09 -0.83,-0.12 -1.51,-0.08l-0.6 0.03 0.33 6.13 -2.97 0.16 -0 -0zm2.51 -8.63l2.19 -0.12c1.42,-0.08 2.3,-0.19 2.65,-0.32 0.35,-0.14 0.62,-0.36 0.8,-0.67 0.19,-0.3 0.26,-0.68 0.24,-1.12 -0.03,-0.5 -0.18,-0.89 -0.46,-1.18 -0.28,-0.29 -0.66,-0.46 -1.15,-0.51 -0.24,-0.02 -0.97,0 -2.17,0.07l-2.31 0.12 0.2 3.73 0 0zm12.2 8.04l0.16 -14.7 2.98 0.03 -0.16 14.7 -2.98 -0.03 -0 0zm5.59 -4.59l2.91 0.06c0.06,0.98 0.32,1.73 0.79,2.24 0.47,0.52 1.16,0.82 2.05,0.93 0.94,0.11 1.68,-0 2.21,-0.35 0.53,-0.34 0.82,-0.78 0.89,-1.32 0.04,-0.35 -0.03,-0.65 -0.2,-0.92 -0.17,-0.27 -0.5,-0.52 -0.98,-0.76 -0.33,-0.16 -1.09,-0.47 -2.27,-0.92 -1.53,-0.58 -2.57,-1.2 -3.14,-1.85 -0.8,-0.91 -1.13,-1.95 -0.99,-3.11 0.09,-0.74 0.38,-1.42 0.88,-2.02 0.5,-0.6 1.16,-1.02 2,-1.26 0.83,-0.25 1.8,-0.3 2.93,-0.17 1.82,0.22 3.15,0.79 3.98,1.71 0.83,0.92 1.18,2.06 1.07,3.42l-2.97 -0.25c-0.04,-0.77 -0.24,-1.34 -0.61,-1.72 -0.37,-0.38 -0.97,-0.62 -1.79,-0.72 -0.85,-0.1 -1.54,-0 -2.06,0.29 -0.34,0.19 -0.53,0.47 -0.57,0.86 -0.04,0.35 0.07,0.66 0.33,0.94 0.33,0.36 1.19,0.79 2.59,1.3 1.39,0.51 2.41,0.99 3.05,1.43 0.64,0.45 1.12,1 1.43,1.68 0.31,0.68 0.41,1.47 0.3,2.39 -0.1,0.84 -0.42,1.59 -0.98,2.27 -0.55,0.67 -1.27,1.14 -2.17,1.39 -0.89,0.26 -1.97,0.31 -3.24,0.15 -1.85,-0.22 -3.21,-0.81 -4.1,-1.79 -0.89,-0.97 -1.33,-2.28 -1.33,-3.93l0 0zm13.83 6.44l4.73 -13.92 4.22 1.43 -0.73 10.34 5.69 -8.66 4.23 1.44 -4.73 13.92 -2.61 -0.88 3.71 -10.96 -6.47 10.03 -2.71 -0.92 0.99 -11.89 -3.73 10.96 -2.61 -0.89 -0 0zm26.26 11.05l7.8 -12.47 8.57 5.36 -1.32 2.11 -6.04 -3.78 -1.85 2.96 5.22 3.27 -1.32 2.11 -5.22 -3.27 -3.31 5.29 -2.52 -1.58 0 -0zm10.33 7.1l9.59 -11.15 8.25 7.1 -1.62 1.88 -5.99 -5.16 -2.13 2.48 5.57 4.79 -1.62 1.88 -5.57 -4.79 -2.6 3.02 6.21 5.34 -1.62 1.88 -8.47 -7.28 0 0zm22.17 0.15l3.26 4.33c0.73,0.98 1.22,1.78 1.45,2.4 0.31,0.84 0.4,1.7 0.25,2.58 -0.15,0.88 -0.5,1.73 -1.06,2.55 -0.56,0.82 -1.39,1.64 -2.49,2.47 -0.97,0.73 -1.89,1.23 -2.77,1.52 -1.08,0.35 -2.08,0.45 -3.02,0.31 -0.71,-0.11 -1.44,-0.43 -2.19,-0.96 -0.56,-0.4 -1.17,-1.03 -1.83,-1.91l-3.35 -4.46 11.75 -8.84 0 0zm-0.2 3.87l-7.78 5.85 1.33 1.76c0.5,0.66 0.89,1.11 1.19,1.34 0.39,0.31 0.79,0.51 1.21,0.59 0.42,0.08 0.95,0 1.6,-0.23 0.65,-0.23 1.43,-0.7 2.33,-1.38 0.91,-0.68 1.54,-1.29 1.91,-1.81 0.37,-0.52 0.58,-1.03 0.63,-1.53 0.05,-0.49 -0.03,-1 -0.27,-1.51 -0.17,-0.38 -0.62,-1.06 -1.35,-2.02l-0.8 -1.06 0 -0zm-2.55 16.78l12.7 -7.41 5.49 9.4 -2.15 1.25 -3.98 -6.83 -2.82 1.65 3.71 6.35 -2.15 1.25 -3.71 -6.35 -3.44 2.01 4.13 7.08 -2.15 1.25 -5.63 -9.65 0 0zm6.74 11.93l13.59 -5.6 2.38 5.78c0.6,1.45 0.91,2.56 0.94,3.32 0.03,0.76 -0.19,1.47 -0.65,2.12 -0.46,0.65 -1.09,1.15 -1.9,1.48 -1.02,0.42 -1.99,0.47 -2.9,0.15 -0.91,-0.32 -1.7,-1.04 -2.36,-2.16 -0.1,0.73 -0.28,1.38 -0.54,1.93 -0.25,0.56 -0.78,1.38 -1.57,2.47l-1.97 2.75 -1.35 -3.28 2.16 -3.19c0.76,-1.14 1.23,-1.9 1.39,-2.27 0.17,-0.37 0.24,-0.72 0.22,-1.06 -0.02,-0.34 -0.16,-0.82 -0.42,-1.45l-0.23 -0.56 -5.68 2.34 -1.14 -2.75 0 -0zm8.98 -0.48l0.84 2.03c0.54,1.32 0.94,2.11 1.18,2.4 0.25,0.28 0.55,0.46 0.89,0.53 0.35,0.08 0.73,0.03 1.14,-0.14 0.46,-0.19 0.78,-0.46 0.96,-0.83 0.18,-0.36 0.22,-0.78 0.11,-1.25 -0.06,-0.24 -0.32,-0.91 -0.78,-2.02l-0.88 -2.14 -3.46 1.42 0 0zm-0.71 27.25l-0.72 -3.12 2.98 -1.99 -1.33 -5.75 -3.54 -0.44 -0.71 -3.07 15.61 2.25 0.71 3.06 -13 9.05 -0 0zm4.46 -6.61l4.84 -3.22 -5.75 -0.71 0.91 3.93 -0 0zm-4.39 10.02l12.18 -0.92 -0.33 -4.34 2.48 -0.19 0.88 11.63 -2.48 0.19 -0.33 -4.32 -12.18 0.92 -0.23 -2.97 0 0zm0.53 9.12l14.7 0.47 -0.1 2.98 -14.7 -0.47 0.1 -2.98zm7.25 6.07c1.49,0.18 2.71,0.55 3.67,1.12 0.7,0.42 1.32,0.95 1.84,1.6 0.52,0.64 0.89,1.33 1.09,2.04 0.28,0.96 0.34,2.03 0.2,3.22 -0.26,2.15 -1.13,3.79 -2.62,4.93 -1.49,1.13 -3.43,1.56 -5.81,1.27 -2.36,-0.28 -4.13,-1.14 -5.31,-2.58 -1.18,-1.44 -1.65,-3.24 -1.39,-5.38 0.26,-2.17 1.13,-3.82 2.61,-4.94 1.48,-1.12 3.38,-1.55 5.71,-1.27l0 0zm-0.26 3.05c-1.66,-0.2 -2.96,0.04 -3.9,0.7 -0.95,0.66 -1.49,1.58 -1.63,2.76 -0.14,1.18 0.17,2.2 0.93,3.05 0.76,0.86 1.99,1.38 3.68,1.59 1.68,0.2 2.97,-0.02 3.88,-0.66 0.91,-0.64 1.44,-1.56 1.59,-2.78 0.15,-1.22 -0.16,-2.25 -0.9,-3.09 -0.75,-0.84 -1.96,-1.37 -3.64,-1.57l0 0zm-9.39 12.49l14.2 3.84 -0.75 2.78 -11.09 3.27 9.51 2.57 -0.72 2.66 -14.19 -3.84 0.78 -2.87 10.89 -3.23 -9.33 -2.52 0.72 -2.66 0 0zm-163.6 -10.97c8.29,-9.34 16.58,-18.68 24.87,-28.01 6.28,4.18 12.56,8.37 18.84,12.56 14.39,-14.84 28.77,-29.68 43.16,-44.52 2.83,-2.92 2.32,-3.34 4.82,-0.08 17.57,22.98 35.14,45.97 52.7,68.95 2.57,3.37 3.64,3.29 1.6,7.01 -1.15,2.1 -2.3,4.21 -3.45,6.31 -3.78,6.91 -2.89,6.46 -10.34,3.9 -2.6,-0.9 -5.22,-1.8 -7.82,-2.69 -38.12,-10.46 -75.86,-16.1 -115.29,-4.27 -8.69,2.61 -12.08,-2.72 -1.36,-7.32 3.38,-1.21 6.76,-2.42 10.14,-3.62 13.96,-3.85 27.16,-5.92 41.54,-7.49 20.34,-0.38 41.36,-0.01 61.34,4.1 0.96,0.08 1.93,0.16 2.9,0.24 -4.67,-11.71 -29.55,-45.44 -35.74,-54.1 -13.69,15.54 -27.37,31.07 -41.05,46.61 -7.41,-5.8 -14.81,-11.59 -22.22,-17.39 -7.12,6.97 -14.23,13.94 -21.35,20.92 -1.18,1.16 -4.22,1.55 -3.29,-1.11l0 0 0 -0z"/>
 </g>
</svg>
