<svg xmlns="http://www.w3.org/2000/svg"  width="1.22939in" height="0.787402in" version="1.1" style="shape-rendering:geometricPrecision; text-rendering:geometricPrecision; image-rendering:optimizeQuality; fill-rule:evenodd; clip-rule:evenodd"
viewBox="0 0 905.96 580.25"
>
 <g id="Layer_x0020_1">
  <metadata id="CorelCorpID_0Corel-Layer"/>
  <path d="M24.48 538.44l-1.24 0.27c-1,0.23 -1.8,0.67 -2.41,1.34 -0.6,0.67 -1.04,1.47 -1.27,2.44 -0.23,0.97 -0.33,2.07 -0.27,3.31 0.07,1.24 0.24,2.54 0.57,3.88 0.33,1.4 0.71,2.67 1.17,3.85 0.47,1.17 1,2.11 1.6,2.91 0.6,0.8 1.31,1.34 2.07,1.7 0.77,0.33 1.64,0.4 2.57,0.2 1.07,-0.23 1.87,-0.8 2.41,-1.67 0.53,-0.87 0.9,-2.01 1.14,-3.44 0.2,-1.4 0.27,-3.11 0.23,-5.05 -0.06,-1.94 -0.2,-4.11 -0.33,-6.49 -0.23,-3.35 -0.33,-6.36 -0.27,-9.1 0.07,-2.74 0.47,-5.11 1.2,-7.22 0.73,-2.07 1.91,-3.85 3.51,-5.22 1.61,-1.4 3.81,-2.41 6.69,-3.08 3.21,-0.73 6.15,-0.73 8.8,-0.03 2.67,0.74 5.05,2.04 7.16,4.01 2.11,1.97 3.91,4.48 5.42,7.56 1.51,3.11 2.74,6.69 3.68,10.7 0.94,4.01 1.4,7.72 1.37,11.17 0,3.44 -0.5,6.49 -1.47,9.13 -0.97,2.67 -2.47,4.88 -4.48,6.69 -2.01,1.77 -4.58,3.04 -7.69,3.78l-2.97 0.7 -3.24 -14.04 2.27 -0.53c1.27,-0.3 2.44,-0.8 3.44,-1.54 1,-0.74 1.77,-1.71 2.34,-2.91 0.57,-1.2 0.9,-2.67 0.97,-4.38 0.07,-1.71 -0.17,-3.71 -0.67,-6.02 -0.97,-4.28 -2.21,-7.29 -3.68,-9.1 -1.47,-1.8 -3.24,-2.44 -5.35,-1.97 -1.04,0.23 -1.81,0.73 -2.38,1.51 -0.57,0.77 -0.97,1.84 -1.2,3.24 -0.23,1.4 -0.3,3.14 -0.23,5.25 0.03,2.07 0.2,4.58 0.4,7.46 0.24,2.88 0.27,5.65 0.07,8.29 -0.17,2.64 -0.74,5.05 -1.64,7.22 -0.9,2.17 -2.27,4.01 -4.01,5.58 -1.77,1.54 -4.15,2.67 -7.12,3.35 -2.41,0.57 -4.65,0.6 -6.82,0.13 -2.14,-0.47 -4.15,-1.54 -5.92,-3.14 -1.8,-1.61 -3.41,-3.85 -4.85,-6.66 -1.44,-2.81 -2.61,-6.29 -3.55,-10.43 -0.97,-4.15 -1.44,-7.82 -1.44,-11.04 0,-3.21 0.4,-5.92 1.27,-8.19 0.84,-2.27 2.04,-4.11 3.64,-5.49 1.57,-1.37 3.48,-2.34 5.69,-2.84l1.64 -0.37 3.31 14.35 0 0 -0.14 -0.07zm-23.85 -52.03c-0.3,-3.81 -0.06,-7.22 0.64,-10.23 0.71,-2.98 1.87,-5.52 3.55,-7.62 1.67,-2.07 3.78,-3.71 6.32,-4.92 2.57,-1.17 5.55,-1.9 9,-2.17l35.48 -2.71 1.07 13.98 -34.64 2.64c-4.01,0.3 -6.86,1.27 -8.56,2.91 -1.71,1.64 -2.44,4.04 -2.21,7.26 0.24,3.28 1.37,5.58 3.38,6.89 2.01,1.3 4.92,1.8 8.8,1.54l34.64 -2.64 1.07 13.98 -35.48 2.71c-3.48,0.27 -6.55,0 -9.26,-0.84 -2.74,-0.8 -5.08,-2.14 -7.02,-3.98 -1.94,-1.84 -3.48,-4.18 -4.61,-6.99 -1.14,-2.81 -1.84,-6.09 -2.11,-9.83l0 0 -0.03 0.03zm54.95 -38.56l-55.58 -4.21 1.07 -13.98 14.21 1.07 1.71 -22.41 10.63 0.8 -1.7 22.41 30.73 2.34 -1.07 13.98 0 0zm-48.96 -75.44c1.37,-7.76 4.28,-13.21 8.7,-16.32 4.41,-3.11 10.47,-3.98 18.19,-2.61l3.11 0.57 -2.47 13.81 -3.11 -0.57c-2.21,-0.4 -4.11,-0.57 -5.72,-0.5 -1.6,0.07 -2.98,0.37 -4.11,0.94 -1.14,0.57 -2.04,1.37 -2.67,2.47 -0.67,1.07 -1.14,2.44 -1.44,4.08 -0.3,1.71 -0.3,3.18 0,4.45 0.3,1.27 0.9,2.34 1.8,3.24 0.91,0.9 2.07,1.64 3.55,2.24 1.47,0.57 3.21,1.07 5.22,1.44l33.34 5.95 -2.47 13.81 -35.05 -6.25c-3.41,-0.6 -6.35,-1.64 -8.76,-3.11 -2.44,-1.47 -4.35,-3.35 -5.75,-5.62 -1.44,-2.27 -2.34,-4.92 -2.74,-7.93 -0.4,-3.01 -0.27,-6.35 0.4,-10.06l0 0 -0 -0.03zm66.28 -33.81l-4.48 13.28 -52.8 -17.86 4.48 -13.28 18.06 6.12c-0.3,-0.73 -0.57,-1.54 -0.8,-2.44 -0.23,-0.9 -0.37,-1.87 -0.37,-2.98 -0.03,-1.1 0.06,-2.34 0.27,-3.71 0.2,-1.37 0.6,-2.88 1.17,-4.58 0.97,-2.81 2.24,-5.22 3.91,-7.22 1.67,-2.01 3.64,-3.51 6.02,-4.51 2.34,-1 5.05,-1.51 8.09,-1.44 3.04,0.07 6.45,0.7 10.23,1.97l2.97 1 -4.48 13.28 -2.98 -1c-2.14,-0.73 -3.98,-1.17 -5.58,-1.34 -1.61,-0.17 -3.01,-0.07 -4.18,0.33 -1.2,0.4 -2.21,1.07 -3.04,2.04 -0.8,0.97 -1.51,2.24 -2.04,3.85 -0.57,1.7 -0.8,3.44 -0.67,5.18 0.13,1.74 0.53,3.38 1.2,4.85l25.05 8.46 0 0 -0.03 0zm32.74 -80.16l-20.13 44.58 -16.69 -7.56 5.79 -12.77 6.99 3.18 1.17 -2.57c-0.2,-3.78 -0.77,-6.99 -1.67,-9.66 -0.9,-2.67 -2.04,-4.95 -3.41,-6.82 -1.37,-1.87 -2.94,-3.41 -4.72,-4.65 -1.77,-1.24 -3.64,-2.27 -5.62,-3.18 -1.64,-0.73 -3.21,-1.27 -4.65,-1.54 -1.44,-0.27 -2.74,-0.3 -3.95,0 -1.2,0.27 -2.27,0.84 -3.24,1.71 -0.97,0.87 -1.77,2.04 -2.47,3.58 -0.7,1.57 -1.04,3.01 -1.04,4.35 0.03,1.34 0.44,2.54 1.17,3.68 0.73,1.13 1.84,2.2 3.24,3.21 1.44,1 3.14,1.97 5.22,2.88l-5.79 12.77c-3.88,-1.77 -7.02,-3.71 -9.43,-5.82 -2.41,-2.11 -4.11,-4.45 -5.11,-7.02 -1,-2.57 -1.34,-5.38 -0.97,-8.43 0.33,-3.04 1.34,-6.39 3.01,-10.03 3.24,-7.13 7.26,-11.74 12.1,-13.81 4.85,-2.07 10.37,-1.67 16.62,1.14 1.91,0.87 3.81,1.97 5.75,3.35 1.9,1.37 3.64,3.04 5.22,5.08 1.57,2.04 2.84,4.45 3.84,7.22 1,2.81 1.51,6.05 1.54,9.7l7.66 -16.95 9.66 4.38 0 0 -0.1 0.03zm-8.53 -85.44l8.7 6.19 -6.35 8.93 20.3 14.45c2.81,2.01 4.98,4.15 6.59,6.49 1.57,2.34 2.54,4.82 2.88,7.46 0.33,2.64 0.07,5.42 -0.87,8.33 -0.94,2.91 -2.51,5.95 -4.72,9.06 -2.17,3.04 -4.45,5.48 -6.89,7.32 -2.41,1.84 -4.92,3.04 -7.56,3.61 -2.61,0.57 -5.28,0.5 -8.02,-0.2 -2.74,-0.7 -5.55,-2.07 -8.39,-4.08l-29 -20.63 8.13 -11.44 28.32 20.13c3.14,2.24 5.92,3.31 8.33,3.24 2.38,-0.1 4.51,-1.47 6.42,-4.15 1.84,-2.61 2.47,-5.05 1.84,-7.32 -0.6,-2.27 -2.57,-4.58 -5.82,-6.89l-28.32 -20.13 14.48 -20.37 0 0 -0.04 0zm58.59 17.26l-9.7 10.17 -40.37 -38.46 9.7 -10.17 13.81 13.18c0.03,-0.8 0.13,-1.64 0.3,-2.54 0.17,-0.9 0.47,-1.84 0.9,-2.84 0.44,-1 1.04,-2.11 1.81,-3.24 0.77,-1.17 1.77,-2.37 2.97,-3.64 2.04,-2.14 4.25,-3.78 6.59,-4.92 2.34,-1.1 4.78,-1.64 7.36,-1.57 2.54,0.06 5.22,0.77 7.96,2.11 2.74,1.34 5.55,3.38 8.46,6.12l2.27 2.17 -9.7 10.17 -2.27 -2.17c-1.64,-1.54 -3.14,-2.74 -4.51,-3.58 -1.37,-0.84 -2.68,-1.34 -3.95,-1.47 -1.24,-0.17 -2.47,0.03 -3.61,0.57 -1.13,0.53 -2.31,1.4 -3.44,2.61 -1.24,1.3 -2.17,2.77 -2.81,4.41 -0.63,1.64 -0.93,3.28 -0.97,4.91l19.13 18.23 0 0 0.07 -0.03zm14.35 -76.68l-6.49 -8.26 13.08 -10.27c3.31,-2.61 6.35,-4.55 9.16,-5.85 2.81,-1.27 5.35,-2 7.62,-2.17 2.27,-0.17 4.35,0.2 6.15,1.07 1.81,0.91 3.41,2.21 4.75,3.95 1,1.3 1.78,2.64 2.27,4.04 0.5,1.4 0.77,2.81 0.74,4.28 0,1.44 -0.27,2.88 -0.77,4.35 -0.5,1.44 -1.27,2.84 -2.27,4.21 1.77,-0.67 3.54,-1.1 5.32,-1.3 1.77,-0.2 3.54,-0.03 5.35,0.47 1.77,0.5 3.58,1.44 5.38,2.74 1.81,1.3 3.65,3.14 5.45,5.45l5.38 6.82 -11.34 8.9 -5.05 -6.42c-1.71,-2.17 -3.41,-3.78 -5.15,-4.78 -1.71,-1 -3.45,-1.57 -5.18,-1.61 -1.74,-0.06 -3.48,0.3 -5.25,1.07 -1.77,0.8 -3.58,1.91 -5.42,3.35l-9.8 7.69 -6.59 -8.39 12.11 -9.53c1.54,-1.2 2.74,-2.31 3.64,-3.38 0.9,-1.04 1.51,-2.01 1.84,-2.94 0.33,-0.91 0.44,-1.81 0.23,-2.64 -0.17,-0.84 -0.57,-1.64 -1.2,-2.44 -1.3,-1.64 -2.91,-2.24 -4.88,-1.81 -1.97,0.44 -4.35,1.78 -7.15,3.98l-11.94 9.37 0 0 0 0.06zm89.22 -5.18c-3.24,1.87 -6.35,3.11 -9.33,3.78 -2.94,0.67 -5.75,0.7 -8.36,0.13 -2.61,-0.57 -5.02,-1.74 -7.22,-3.55 -2.2,-1.77 -4.18,-4.18 -5.92,-7.22l-17.76 -30.87 12.17 -6.99 17.32 30.13c1.94,3.35 3.98,5.48 6.19,6.42 2.21,0.9 4.71,0.57 7.56,-1.07 2.78,-1.6 4.35,-3.55 4.75,-5.88 0.4,-2.31 -0.4,-5.22 -2.41,-8.7l-17.32 -30.13 12.17 -6.99 16.46 28.59 13.88 2.01 7.02 12.24 -16.32 -2.81c0.57,4.11 -0.17,7.89 -2.31,11.4 -2.14,3.51 -5.65,6.69 -10.6,9.53l0 0 0.03 -0.03zm40.07 -58.32c2.88,-1.14 5.15,-2.17 6.82,-3.14 1.67,-0.97 2.91,-1.91 3.64,-2.84 0.77,-0.94 1.17,-1.84 1.2,-2.78 0.03,-0.94 -0.17,-1.9 -0.57,-2.94 -0.73,-1.84 -2.01,-2.81 -3.81,-3.01 -1.8,-0.17 -4.08,0.27 -6.79,1.34 -1.3,0.5 -2.47,1.1 -3.54,1.74 -1.04,0.67 -1.91,1.37 -2.58,2.11 -0.64,0.77 -1.07,1.57 -1.3,2.47 -0.2,0.87 -0.1,1.8 0.27,2.78l0.2 0.5 -13.71 5.42 -0.33 -0.87c-0.84,-2.14 -1.14,-4.25 -0.9,-6.32 0.23,-2.07 1.04,-4.11 2.47,-6.12 1.4,-1.97 3.44,-3.88 6.05,-5.69 2.64,-1.84 5.95,-3.51 9.93,-5.08 3.95,-1.57 7.46,-2.54 10.53,-2.91 3.08,-0.37 5.72,-0.27 7.96,0.3 2.24,0.57 4.08,1.54 5.55,2.94 1.47,1.37 2.57,3.04 3.35,4.95 0.63,1.57 0.93,3.08 0.9,4.48 -0.03,1.4 -0.33,2.74 -0.9,4.01 -0.57,1.24 -1.37,2.44 -2.41,3.55 -1.04,1.14 -2.27,2.17 -3.68,3.18 1.8,-0.23 3.58,-0.37 5.35,-0.37 1.74,-0.03 3.38,0.2 4.88,0.63 1.54,0.44 2.88,1.2 4.11,2.24 1.24,1.04 2.2,2.51 2.94,4.41 1.04,2.64 1.44,5.25 1.17,7.76 -0.27,2.54 -1.17,4.95 -2.74,7.26 -1.57,2.31 -3.78,4.48 -6.62,6.49 -2.88,2.04 -6.35,3.85 -10.5,5.48 -3.85,1.51 -7.46,2.51 -10.84,3.01 -3.41,0.5 -6.49,0.47 -9.26,-0.1 -2.78,-0.57 -5.22,-1.74 -7.29,-3.44 -2.07,-1.74 -3.68,-4.08 -4.88,-7.06l-0.3 -0.77 13.41 -5.29 0.03 0.07c0.5,1.24 1.17,2.27 2.04,3.18 0.87,0.9 1.98,1.51 3.24,1.91 1.27,0.4 2.78,0.5 4.48,0.3 1.71,-0.17 3.68,-0.7 5.85,-1.57 2.34,-0.9 4.18,-1.87 5.58,-2.81 1.4,-0.97 2.44,-1.91 3.11,-2.91 0.67,-0.97 1,-1.97 1.04,-2.94 0.03,-0.97 -0.13,-1.94 -0.53,-2.91 -0.44,-1.1 -1.04,-1.94 -1.78,-2.57 -0.77,-0.64 -1.8,-0.97 -3.14,-1.07 -1.34,-0.1 -3.04,0.13 -5.12,0.64 -2.07,0.5 -4.61,1.34 -7.62,2.54l-18.66 7.36 -4.11 -10.4 17.86 -7.02 0 0 -0.06 -0.1zm71.8 -28.39l13.68 -3.14 9.5 41.17 -13.68 3.14 -4.28 -18.59c-0.47,0.64 -1,1.31 -1.64,1.94 -0.64,0.67 -1.4,1.27 -2.31,1.87 -0.94,0.6 -2.01,1.17 -3.28,1.71 -1.27,0.54 -2.78,1 -4.52,1.4 -2.88,0.67 -5.62,0.84 -8.19,0.47 -2.57,-0.37 -4.88,-1.27 -6.99,-2.74 -2.11,-1.47 -3.91,-3.51 -5.48,-6.12 -1.57,-2.64 -2.81,-5.89 -3.68,-9.73l-3.98 -17.19 13.68 -3.14 3.98 17.19c0.5,2.17 1.11,4.01 1.77,5.49 0.71,1.44 1.51,2.57 2.47,3.41 0.94,0.8 2.04,1.34 3.31,1.51 1.24,0.17 2.71,0.07 4.38,-0.3 1.74,-0.4 3.31,-1.1 4.71,-2.14 1.4,-1.04 2.57,-2.2 3.48,-3.58l-2.91 -12.61 0 0 -0.03 0zm57.49 36.85c-3.75,0.3 -7.06,0.07 -10.03,-0.6 -2.94,-0.67 -5.48,-1.84 -7.59,-3.51 -2.11,-1.64 -3.78,-3.75 -4.98,-6.29 -1.2,-2.54 -1.97,-5.58 -2.24,-9.06l-2.71 -35.48 13.98 -1.07 2.64 34.64c0.3,3.85 1.24,6.69 2.81,8.46 1.6,1.77 4.01,2.54 7.29,2.27 3.18,-0.24 5.45,-1.34 6.82,-3.28 1.34,-1.91 1.87,-4.88 1.57,-8.9l-2.64 -34.64 13.98 -1.07 2.51 32.87 11.67 7.79 1.07 14.08 -13.51 -9.56c-1.24,3.95 -3.58,7.06 -7.02,9.3 -3.44,2.24 -7.99,3.58 -13.68,4.01l0 0 0.06 0.03zm75.21 -41.5l13.98 1.07 -3.21 42.13 -13.98 -1.07 1.44 -19.03c-0.64,0.47 -1.34,0.94 -2.14,1.37 -0.8,0.44 -1.71,0.8 -2.78,1.1 -1.07,0.3 -2.27,0.54 -3.64,0.64 -1.37,0.13 -2.94,0.13 -4.71,0 -2.94,-0.23 -5.62,-0.9 -7.96,-1.97 -2.34,-1.1 -4.28,-2.67 -5.85,-4.71 -1.57,-2.01 -2.71,-4.51 -3.41,-7.49 -0.7,-2.98 -0.93,-6.46 -0.63,-10.4l1.34 -17.59 13.98 1.07 -1.34 17.59c-0.17,2.24 -0.13,4.15 0.07,5.75 0.23,1.6 0.67,2.91 1.34,3.98 0.67,1.07 1.57,1.87 2.71,2.41 1.14,0.54 2.58,0.91 4.25,1 1.77,0.13 3.51,-0.07 5.15,-0.64 1.67,-0.57 3.14,-1.34 4.42,-2.37l0.97 -12.91 0 0 0.03 0.07zm43.91 52.23c-3.64,-0.84 -6.75,-2.04 -9.4,-3.58 -2.61,-1.54 -4.68,-3.41 -6.22,-5.62 -1.54,-2.17 -2.47,-4.68 -2.88,-7.49 -0.4,-2.81 -0.2,-5.92 0.57,-9.33l7.99 -34.68 13.68 3.14 -7.82 33.84c-0.87,3.78 -0.8,6.75 0.17,8.93 1,2.17 3.08,3.61 6.29,4.35 3.11,0.7 5.62,0.37 7.49,-1.07 1.87,-1.44 3.24,-4.11 4.15,-8.03l7.82 -33.84 13.68 3.14 -7.42 32.14 8.83 10.9 -3.18 13.78 -10.03 -13.18c-2.37,3.41 -5.52,5.65 -9.46,6.79 -3.95,1.13 -8.7,1.04 -14.25,-0.24l0 0 0 0.03zm65.85 -2.67c-0.84,1.87 -1.44,3.58 -1.77,5.11 -0.33,1.54 -0.4,2.94 -0.17,4.18 0.23,1.24 0.77,2.34 1.64,3.31 0.87,0.97 2.11,1.8 3.68,2.51 1.51,0.67 2.91,1.07 4.18,1.13 1.27,0.07 2.44,-0.2 3.54,-0.8 1.11,-0.6 2.14,-1.57 3.08,-2.84 0.97,-1.3 1.91,-2.94 2.84,-5.02l1.3 -2.88 12.77 5.79 -1.3 2.88c-3.24,7.16 -7.39,11.67 -12.44,13.54 -5.08,1.87 -11.2,1.2 -18.39,-2.04 -3.41,-1.54 -6.26,-3.34 -8.53,-5.35 -2.24,-2.04 -3.91,-4.28 -4.98,-6.72 -1.07,-2.44 -1.54,-5.11 -1.37,-7.93 0.17,-2.84 0.94,-5.82 2.38,-8.99l10.26 -22.74 -10 -4.52 4.38 -9.7 22.77 10.3 -13.95 30.83 0 0 0.07 -0.06zm92.87 38.69c2.14,2.17 4.05,4.31 5.69,6.42 1.67,2.11 2.91,4.25 3.71,6.39 0.8,2.14 1.1,4.28 0.9,6.42 -0.24,2.17 -1.14,4.38 -2.74,6.62 -1.91,2.68 -4.08,4.62 -6.49,5.72 -2.41,1.14 -5.05,1.6 -7.93,1.37 -2.88,-0.24 -5.95,-1.07 -9.23,-2.61 -3.28,-1.51 -6.79,-3.55 -10.47,-6.19 -3.64,-2.61 -6.72,-5.25 -9.13,-7.93 -2.44,-2.67 -4.21,-5.38 -5.32,-8.09 -1.1,-2.71 -1.54,-5.38 -1.24,-8.06 0.3,-2.67 1.37,-5.32 3.21,-7.93l1.77 -2.51 11.44 8.13 -1.34 1.9c-0.64,0.9 -1.1,1.87 -1.34,2.91 -0.23,1 -0.27,2.07 0,3.21 0.24,1.11 0.74,2.27 1.47,3.48 0.73,1.2 1.8,2.44 3.14,3.71l8.06 -11.34c-1.34,-1.31 -2.57,-2.64 -3.78,-4.01 -1.17,-1.37 -2.24,-2.74 -3.18,-4.18 -0.94,-1.44 -1.67,-2.88 -2.24,-4.35 -0.57,-1.47 -0.94,-2.94 -1,-4.48 -0.1,-1.54 0.06,-3.08 0.5,-4.62 0.44,-1.57 1.24,-3.14 2.38,-4.75 1.44,-2.01 3.11,-3.51 5.08,-4.52 1.97,-1.04 4.21,-1.51 6.75,-1.44 2.54,0.06 5.32,0.73 8.39,2 3.08,1.27 6.39,3.18 10,5.72l6.15 4.38 -13.21 18.59 0 0 -0.03 0zm-4.71 19.3c0.9,-1.27 1.14,-2.67 0.67,-4.21 -0.5,-1.54 -1.57,-3.11 -3.31,-4.78l-6.65 9.37c2.04,1.13 3.88,1.71 5.48,1.67 1.6,-0.03 2.88,-0.73 3.85,-2.07l-0.03 0.03zm-6.42 -36.72c-0.9,1.27 -1.14,2.68 -0.64,4.15 0.47,1.47 1.57,3.01 3.24,4.58l6.19 -8.73c-2.01,-1.31 -3.75,-1.94 -5.25,-1.91 -1.51,0 -2.67,0.64 -3.58,1.87l0 0 0.03 0.03zm30.1 78.92c-2.71,-2.58 -4.78,-5.22 -6.25,-7.89 -1.44,-2.67 -2.27,-5.35 -2.47,-8.02 -0.2,-2.67 0.23,-5.32 1.34,-7.93 1.07,-2.61 2.81,-5.18 5.22,-7.69l24.58 -25.75 10.17 9.7 -9.8 10.27 23.38 22.27 -7.36 7.72 -23.38 -22.27 -6.22 6.52c-1.4,1.47 -2.54,2.91 -3.38,4.25 -0.84,1.34 -1.34,2.64 -1.54,3.88 -0.2,1.24 -0.03,2.47 0.47,3.68 0.5,1.2 1.37,2.37 2.64,3.58 1.2,1.14 2.41,1.97 3.58,2.44 1.17,0.5 2.38,0.6 3.61,0.4 1.24,-0.24 2.51,-0.77 3.88,-1.67 1.34,-0.91 2.78,-2.14 4.35,-3.78l0.37 -0.37 10.17 9.7 -0.37 0.37c-5.42,5.68 -10.84,8.56 -16.22,8.66 -5.42,0.1 -10.97,-2.57 -16.69,-8.02l0 0 -0.07 -0.03zm67.99 23.21c1.6,-1.27 2.91,-2.51 3.95,-3.71 1,-1.2 1.71,-2.41 2.07,-3.64 0.37,-1.21 0.4,-2.44 0.06,-3.71 -0.33,-1.27 -1.04,-2.57 -2.07,-3.91 -1.04,-1.34 -2.11,-2.34 -3.21,-2.97 -1.1,-0.64 -2.27,-0.94 -3.51,-0.9 -1.27,0.03 -2.61,0.4 -4.05,1.1 -1.44,0.71 -3.04,1.74 -4.81,3.14l-2.47 1.94 -8.66 -11.04 2.47 -1.94c6.15,-4.85 11.94,-6.92 17.29,-6.25 5.35,0.67 10.47,4.11 15.35,10.33 2.31,2.94 4.01,5.82 5.05,8.7 1.07,2.84 1.51,5.62 1.3,8.29 -0.2,2.67 -1,5.22 -2.44,7.66 -1.44,2.44 -3.55,4.71 -6.25,6.86l-7.26 5.72 6.79 8.63 -8.39 6.59 -6.79 -8.63 -12.37 9.7 -8.66 -11.04 26.62 -20.94 0 0 0 0.03zm2.11 65.81c-1.87,-3.24 -3.11,-6.35 -3.78,-9.33 -0.64,-2.98 -0.67,-5.75 -0.1,-8.4 0.57,-2.61 1.74,-5.02 3.51,-7.22 1.78,-2.21 4.18,-4.18 7.19,-5.92l30.86 -17.76 6.99 12.17 -12.31 7.09 16.08 27.99 -9.23 5.32 -16.08 -27.99 -7.79 4.48c-1.77,1 -3.24,2.07 -4.45,3.11 -1.17,1.04 -2.04,2.14 -2.58,3.28 -0.53,1.14 -0.73,2.34 -0.6,3.64 0.13,1.31 0.64,2.67 1.51,4.18 0.84,1.44 1.74,2.57 2.74,3.35 1,0.8 2.11,1.27 3.38,1.4 1.24,0.13 2.64,-0.03 4.18,-0.5 1.54,-0.47 3.28,-1.27 5.22,-2.41l0.47 -0.27 6.99 12.17 -0.47 0.27c-6.79,3.91 -12.81,5.15 -18.03,3.71 -5.22,-1.44 -9.8,-5.58 -13.71,-12.41l0 0 0 0.03zm77.95 27.76c2.88,7.32 3.28,13.47 1.13,18.46 -2.11,4.98 -6.82,8.9 -14.11,11.77l-2.91 1.13 -5.15 -13.04 2.91 -1.14c2.11,-0.84 3.81,-1.71 5.11,-2.57 1.34,-0.9 2.34,-1.87 3.01,-2.94 0.67,-1.07 1,-2.24 1,-3.51 0,-1.27 -0.3,-2.67 -0.94,-4.21 -0.64,-1.61 -1.4,-2.88 -2.34,-3.78 -0.94,-0.93 -2.01,-1.54 -3.24,-1.8 -1.24,-0.3 -2.61,-0.3 -4.18,-0.03 -1.54,0.27 -3.28,0.77 -5.18,1.54l-31.5 12.41 -5.15 -13.04 33.11 -13.04c3.24,-1.27 6.26,-1.91 9.1,-1.94 2.84,0 5.45,0.57 7.86,1.74 2.41,1.2 4.55,2.98 6.49,5.32 1.9,2.38 3.58,5.28 4.95,8.76l0 0 0.04 -0.07zm-37.32 71.9c-0.84,-3.65 -1.14,-6.99 -0.9,-10 0.23,-3.01 1,-5.69 2.31,-8.02 1.3,-2.34 3.14,-4.28 5.48,-5.89 2.34,-1.6 5.22,-2.78 8.63,-3.58l34.68 -7.99 3.14 13.68 -33.88 7.82c-3.78,0.87 -6.42,2.24 -7.93,4.05 -1.51,1.84 -1.91,4.35 -1.17,7.56 0.7,3.11 2.14,5.22 4.25,6.25 2.11,1.04 5.11,1.14 9.03,0.23l33.84 -7.82 3.14 13.68 -32.14 7.42 -5.95 12.71 -13.78 3.18 7.42 -14.78c-4.11,-0.64 -7.52,-2.47 -10.23,-5.52 -2.74,-3.04 -4.75,-7.36 -6.05,-12.91l0 0 0.1 -0.06zm51.73 38.35c2.27,-0.17 4.35,0.1 6.26,0.84 1.9,0.73 3.58,2.01 5.02,3.81 1.44,1.8 2.64,4.18 3.58,7.16 0.94,2.97 1.57,6.55 1.91,10.84 0.33,4.21 0.2,7.86 -0.33,10.9 -0.54,3.04 -1.44,5.55 -2.61,7.53 -1.2,1.97 -2.68,3.44 -4.45,4.45 -1.74,1 -3.68,1.57 -5.72,1.74 -1.71,0.13 -3.21,-0.03 -4.55,-0.5 -1.34,-0.44 -2.51,-1.13 -3.58,-2.04 -1.04,-0.91 -1.9,-2.04 -2.67,-3.35 -0.77,-1.34 -1.4,-2.81 -1.94,-4.45 -0.3,1.8 -0.71,3.55 -1.21,5.22 -0.5,1.67 -1.17,3.18 -2.04,4.48 -0.87,1.31 -2.01,2.41 -3.35,3.24 -1.37,0.87 -3.08,1.37 -5.12,1.51 -2.84,0.24 -5.42,-0.17 -7.76,-1.17 -2.34,-1 -4.38,-2.57 -6.12,-4.75 -1.74,-2.17 -3.14,-4.92 -4.21,-8.26 -1.07,-3.35 -1.81,-7.22 -2.14,-11.67 -0.3,-4.11 -0.2,-7.86 0.3,-11.27 0.5,-3.41 1.47,-6.35 2.84,-8.83 1.37,-2.47 3.18,-4.48 5.45,-5.95 2.27,-1.47 4.98,-2.34 8.16,-2.57l0.8 -0.07 1.11 14.38 -0.07 0c-1.34,0.1 -2.54,0.44 -3.64,1 -1.11,0.57 -2.04,1.44 -2.78,2.54 -0.73,1.14 -1.27,2.51 -1.64,4.22 -0.33,1.71 -0.4,3.71 -0.23,6.05 0.2,2.51 0.53,4.55 1.04,6.19 0.5,1.6 1.1,2.88 1.87,3.81 0.73,0.93 1.57,1.54 2.51,1.87 0.94,0.33 1.91,0.44 2.94,0.37 1.17,-0.1 2.17,-0.4 2.97,-0.94 0.8,-0.53 1.47,-1.44 1.94,-2.71 0.47,-1.27 0.8,-2.98 0.9,-5.08 0.13,-2.14 0.07,-4.82 -0.17,-8.06l-1.91 -24.88 11.17 -0.84 0.64 8.2c0.84,-0.8 1.84,-1.47 2.94,-2.01 1.1,-0.54 2.41,-0.87 3.88,-0.97l0 0 -0 0.03zm-5.22 24.11c0.24,3.24 0.97,5.68 2.17,7.29 1.2,1.64 2.94,2.34 5.18,2.17 0.97,-0.07 1.8,-0.4 2.44,-0.94 0.67,-0.57 1.2,-1.27 1.61,-2.21 0.4,-0.93 0.64,-2 0.77,-3.21 0.13,-1.24 0.13,-2.58 0.03,-4.01 -0.1,-1.4 -0.3,-2.68 -0.6,-3.88 -0.3,-1.2 -0.7,-2.24 -1.2,-3.08 -0.5,-0.87 -1.17,-1.54 -1.91,-1.97 -0.77,-0.47 -1.67,-0.64 -2.71,-0.57 -2.07,0.17 -3.61,1.04 -4.58,2.61 -0.97,1.57 -1.4,3.75 -1.34,6.49l0.1 1.31 0 0 0.03 0zm-33.34 50.93l1.07 -13.98 55.58 4.21 -1.07 13.98 -19.03 -1.44c0.47,0.64 0.94,1.34 1.37,2.14 0.44,0.8 0.8,1.74 1.11,2.77 0.3,1.07 0.5,2.27 0.63,3.68 0.14,1.37 0.14,2.94 0,4.71 -0.23,2.98 -0.9,5.62 -1.97,7.99 -1.1,2.34 -2.67,4.31 -4.71,5.89 -2.01,1.57 -4.51,2.71 -7.49,3.41 -2.97,0.71 -6.45,0.94 -10.4,0.6l-3.14 -0.24 1.07 -13.98 3.14 0.23c2.24,0.17 4.15,0.13 5.75,-0.1 1.6,-0.24 2.91,-0.67 3.98,-1.34 1.07,-0.67 1.87,-1.57 2.41,-2.74 0.53,-1.14 0.9,-2.54 1,-4.22 0.13,-1.8 -0.06,-3.51 -0.6,-5.18 -0.53,-1.67 -1.34,-3.14 -2.37,-4.41l-26.35 -2.01 0 0 0.03 0zm-8.56 62.07c0.84,-3.64 2.04,-6.76 3.58,-9.4 1.54,-2.61 3.41,-4.68 5.62,-6.22 2.17,-1.54 4.68,-2.47 7.49,-2.88 2.81,-0.4 5.92,-0.2 9.33,0.57l34.68 7.99 -3.14 13.68 -33.84 -7.82c-3.78,-0.87 -6.72,-0.8 -8.93,0.17 -2.17,1 -3.61,3.08 -4.35,6.29 -0.7,3.11 -0.37,5.62 1.07,7.49 1.44,1.87 4.11,3.24 8.03,4.15l33.84 7.82 -3.14 13.68 -32.14 -7.42 -10.9 8.83 -13.74 -3.18 13.18 -10.03c-3.41,-2.38 -5.65,-5.52 -6.79,-9.46 -1.14,-3.95 -1.04,-8.7 0.24,-14.25l0 0 -0.07 0zm-691.1 -12.24l3.01 10.3 -9.53 7.22 5.55 18.93 11.9 0.77 2.98 10.1 -52.57 -4.48 -2.94 -10.1 41.63 -32.74 0 0 -0.03 0zm-13.58 22.94l-15.55 11.67 19.33 1.24 -3.78 -12.94 0 0 0 0.03zm13.04 -28.32l-48.69 6.89 -2.94 -20.7c-0.73,-5.22 -0.84,-9.06 -0.3,-11.54 0.54,-2.51 1.84,-4.58 3.85,-6.32 2.04,-1.74 4.48,-2.81 7.36,-3.21 3.68,-0.5 6.82,0.13 9.5,1.94 2.68,1.81 4.62,4.78 5.85,8.96 0.94,-2.31 2.04,-4.25 3.35,-5.82 1.31,-1.61 3.68,-3.81 7.12,-6.69l8.66 -7.29 1.67 11.74 -9.63 8.56c-3.41,3.08 -5.55,5.12 -6.42,6.22 -0.84,1.07 -1.37,2.14 -1.6,3.24 -0.2,1.11 -0.17,2.78 0.17,5.05l0.27 2.01 20.33 -2.88 1.4 9.86 0 0 0.07 -0.03zm-29.46 -5.89l-1.04 -7.29c-0.67,-4.72 -1.27,-7.62 -1.84,-8.73 -0.57,-1.11 -1.37,-1.94 -2.44,-2.47 -1.07,-0.53 -2.34,-0.67 -3.81,-0.47 -1.64,0.24 -2.91,0.87 -3.78,1.87 -0.9,1 -1.34,2.34 -1.37,3.95 0,0.84 0.27,3.21 0.84,7.19l1.07 7.66 12.37 -1.74 0 0 0 0.03zm23.98 -43.27l-49.16 -0.54 0.17 -14.92 33.64 -8.46 -33.44 -9.06 0.17 -14.95 49.16 0.53 -0.1 9.2 -38.73 -0.4 38.59 10.13 -0.1 9.57 -38.82 9.23 38.72 0.47 -0.1 9.2 0 0 0 0zm2.41 -57.39l-47.92 -11.07 8.19 -35.45 8.09 1.87 -5.95 25.75 10.63 2.47 5.52 -23.94 8.09 1.87 -5.52 23.94 12.97 3.01 6.15 -26.69 8.09 1.87 -8.39 36.42 0 0 0.03 -0.07zm10.53 -44.64l-45.98 -17.39 3.41 -9.03 37.99 -7.26 -30.83 -11.67 3.24 -8.59 45.98 17.39 -3.51 9.3 -37.29 7.19 30.23 11.44 -3.24 8.6 0 0 0 0.03zm18.96 -45.41l-43.95 -22.1 4.48 -8.9 43.94 22.11 -4.48 8.89zm32.4 -54.84l-5.68 9.1 -11.74 -2.34 -10.47 16.72 7.32 9.39 -5.58 8.93 -31.57 -42.27 5.58 -8.93 52.14 9.37 0 0 0 0.03zm-26.18 5.08l-19.06 -3.85 11.9 15.28 7.16 -11.44 0 0zm29.9 -9.17l-35.28 -34.28 6.72 -6.92 37.76 8.46 -23.64 -22.98 6.42 -6.59 35.28 34.28 -6.92 7.12 -37.09 -8.23 23.18 22.54 -6.42 6.59 0 0 -0 -0zm74.17 -64.84l-21.67 -34.64 -12.34 7.73 -4.41 -7.06 33.07 -20.67 4.42 7.06 -12.28 7.69 21.67 34.64 -8.46 5.28 0 0 0 -0.03zm13.61 -36.99c-2.01,-4.58 -3.04,-8.76 -3.04,-12.47 0,-2.74 0.5,-5.42 1.47,-8.02 0.97,-2.61 2.31,-4.82 4.01,-6.62 2.27,-2.41 5.25,-4.45 8.93,-6.05 6.65,-2.94 12.84,-3.21 18.66,-0.84 5.79,2.38 10.3,7.22 13.54,14.58 3.21,7.29 3.75,13.84 1.6,19.7 -2.14,5.85 -6.52,10.23 -13.14,13.14 -6.69,2.94 -12.91,3.24 -18.66,0.9 -5.75,-2.34 -10.2,-7.12 -13.38,-14.28l0 0 0 -0.03zm9.23 -4.41c2.24,5.11 5.11,8.43 8.66,10.03 3.51,1.6 7.09,1.6 10.7,0 3.64,-1.61 6.02,-4.22 7.22,-7.86 1.17,-3.64 0.6,-8.06 -1.71,-13.31 -2.27,-5.15 -5.11,-8.53 -8.49,-10.06 -3.38,-1.54 -6.96,-1.51 -10.7,0.17 -3.75,1.64 -6.22,4.28 -7.39,7.86 -1.17,3.58 -0.6,7.96 1.67,13.14l0 0 0.03 0.03zm41.73 -43.27l9.77 -2.04 5.42 26.09c0.87,4.15 1.54,6.79 2.04,7.96 0.84,1.87 2.14,3.28 3.91,4.15 1.8,0.87 4.05,1.04 6.72,0.47 2.71,-0.57 4.68,-1.54 5.82,-2.98 1.17,-1.4 1.71,-2.97 1.64,-4.68 -0.07,-1.71 -0.47,-4.45 -1.27,-8.26l-5.55 -26.65 9.77 -2.04 5.25 25.32c1.2,5.79 1.8,9.93 1.77,12.44 -0.03,2.51 -0.57,4.72 -1.64,6.66 -1.07,1.94 -2.67,3.64 -4.82,5.08 -2.17,1.47 -5.11,2.61 -8.93,3.38 -4.58,0.94 -8.16,1.14 -10.77,0.57 -2.57,-0.57 -4.75,-1.57 -6.49,-2.98 -1.74,-1.4 -3.01,-3.01 -3.81,-4.78 -1.2,-2.61 -2.37,-6.62 -3.48,-12.04l-5.35 -25.72 0 0 -0 0.07zm58.56 37.52l-2.64 -49.09 20.87 -1.13c5.25,-0.27 9.1,-0.03 11.5,0.7 2.44,0.73 4.42,2.21 5.95,4.38 1.54,2.17 2.41,4.71 2.57,7.62 0.2,3.68 -0.7,6.79 -2.74,9.3 -2.04,2.51 -5.18,4.22 -9.43,5.05 2.21,1.14 4.05,2.41 5.52,3.85 1.47,1.44 3.51,3.98 6.05,7.66l6.52 9.26 -11.84 0.64 -7.69 -10.33c-2.74,-3.68 -4.61,-5.99 -5.62,-6.92 -1,-0.94 -2.01,-1.57 -3.11,-1.87 -1.07,-0.3 -2.77,-0.4 -5.05,-0.27l-2.01 0.1 1.1 20.5 -9.93 0.53 0 0 -0.03 0.03zm8.39 -28.86l7.32 -0.4c4.75,-0.27 7.69,-0.64 8.86,-1.07 1.17,-0.47 2.07,-1.2 2.67,-2.24 0.64,-1 0.87,-2.27 0.8,-3.75 -0.1,-1.67 -0.6,-2.98 -1.54,-3.95 -0.94,-0.97 -2.21,-1.54 -3.85,-1.71 -0.8,-0.07 -3.24,0 -7.26,0.24l-7.73 0.4 0.67 12.47 0 0 0.03 0zm40.8 26.89l0.53 -49.16 9.97 0.1 -0.53 49.16 -9.97 -0.1 0 0zm18.69 -15.35l9.73 0.2c0.2,3.28 1.07,5.79 2.64,7.49 1.57,1.74 3.88,2.74 6.86,3.11 3.14,0.37 5.62,0 7.39,-1.17 1.77,-1.14 2.74,-2.61 2.97,-4.42 0.13,-1.17 -0.1,-2.17 -0.67,-3.08 -0.57,-0.9 -1.67,-1.74 -3.28,-2.54 -1.1,-0.54 -3.64,-1.57 -7.59,-3.08 -5.12,-1.94 -8.6,-4.01 -10.5,-6.19 -2.67,-3.04 -3.78,-6.52 -3.31,-10.4 0.3,-2.47 1.27,-4.75 2.94,-6.76 1.67,-2.01 3.88,-3.41 6.69,-4.21 2.78,-0.84 6.02,-1 9.8,-0.57 6.09,0.73 10.53,2.64 13.31,5.72 2.78,3.08 3.95,6.89 3.58,11.44l-9.93 -0.84c-0.13,-2.57 -0.8,-4.48 -2.04,-5.75 -1.24,-1.27 -3.24,-2.07 -5.99,-2.41 -2.84,-0.33 -5.15,0 -6.89,0.97 -1.14,0.64 -1.78,1.57 -1.91,2.88 -0.13,1.17 0.23,2.21 1.1,3.14 1.11,1.2 3.98,2.64 8.66,4.35 4.65,1.71 8.06,3.31 10.2,4.78 2.14,1.51 3.75,3.35 4.78,5.62 1.04,2.27 1.37,4.92 1,7.99 -0.33,2.81 -1.4,5.32 -3.28,7.59 -1.84,2.24 -4.25,3.81 -7.26,4.65 -2.97,0.87 -6.59,1.04 -10.84,0.5 -6.19,-0.73 -10.73,-2.71 -13.71,-5.99 -2.97,-3.24 -4.45,-7.62 -4.45,-13.14l0 0 -0.03 0.1zm46.25 21.54l15.82 -46.55 14.11 4.78 -2.44 34.58 19.03 -28.96 14.15 4.82 -15.82 46.55 -8.73 -2.94 12.41 -36.65 -21.63 33.54 -9.06 -3.08 3.31 -39.76 -12.48 36.65 -8.73 -2.98 0 0 0.06 0zm87.82 36.95l26.09 -41.7 28.66 17.92 -4.41 7.06 -20.2 -12.64 -6.19 9.9 17.45 10.93 -4.41 7.06 -17.46 -10.93 -11.07 17.69 -8.43 -5.28 0 0 -0.03 0zm34.55 23.74l32.07 -37.29 27.59 23.74 -5.42 6.29 -20.03 -17.26 -7.12 8.29 18.63 16.02 -5.42 6.28 -18.63 -16.02 -8.7 10.1 20.77 17.86 -5.42 6.29 -28.32 -24.34 0 0 0 0.03zm74.14 0.5l10.9 14.48c2.44,3.28 4.08,5.95 4.85,8.02 1.04,2.81 1.34,5.69 0.84,8.63 -0.5,2.94 -1.67,5.79 -3.54,8.53 -1.87,2.74 -4.65,5.48 -8.33,8.26 -3.24,2.44 -6.32,4.11 -9.26,5.08 -3.61,1.17 -6.95,1.51 -10.1,1.04 -2.37,-0.37 -4.81,-1.44 -7.32,-3.21 -1.87,-1.34 -3.91,-3.44 -6.12,-6.39l-11.2 -14.92 39.29 -29.56 0 0 0 0.03zm-0.67 12.94l-26.02 19.56 4.45 5.88c1.67,2.21 2.98,3.71 3.98,4.48 1.3,1.04 2.64,1.71 4.04,1.97 1.4,0.27 3.18,0 5.35,-0.77 2.17,-0.77 4.78,-2.34 7.79,-4.62 3.04,-2.27 5.15,-4.31 6.39,-6.05 1.24,-1.74 1.94,-3.44 2.11,-5.12 0.17,-1.64 -0.1,-3.35 -0.9,-5.05 -0.57,-1.27 -2.07,-3.55 -4.52,-6.76l-2.67 -3.55 0 0 0 0zm-8.53 56.11l42.47 -24.78 18.36 31.44 -7.19 4.18 -13.31 -22.84 -9.43 5.52 12.41 21.23 -7.19 4.18 -12.41 -21.23 -11.5 6.72 13.81 23.68 -7.19 4.18 -18.83 -32.27 0 0 -0 -0zm22.54 39.9l45.45 -18.73 7.96 19.33c2,4.85 3.04,8.56 3.14,11.11 0.1,2.54 -0.64,4.91 -2.17,7.09 -1.54,2.17 -3.64,3.85 -6.35,4.95 -3.41,1.4 -6.66,1.57 -9.7,0.5 -3.04,-1.07 -5.68,-3.48 -7.89,-7.22 -0.33,2.44 -0.94,4.62 -1.8,6.46 -0.84,1.87 -2.61,4.61 -5.25,8.26l-6.59 9.19 -4.51 -10.97 7.22 -10.67c2.54,-3.81 4.11,-6.35 4.65,-7.59 0.57,-1.24 0.8,-2.41 0.73,-3.55 -0.06,-1.14 -0.53,-2.74 -1.4,-4.85l-0.77 -1.87 -18.99 7.82 -3.81 -9.2 0 0 0.1 -0.06zm30.03 -1.6l2.81 6.79c1.8,4.41 3.14,7.06 3.95,8.02 0.84,0.94 1.84,1.54 2.97,1.78 1.17,0.27 2.44,0.1 3.81,-0.47 1.54,-0.64 2.61,-1.54 3.21,-2.78 0.6,-1.2 0.74,-2.61 0.37,-4.18 -0.2,-0.8 -1.07,-3.04 -2.61,-6.76l-2.94 -7.15 -11.57 4.75 0 0zm-2.37 91.13l-2.41 -10.44 9.96 -6.65 -4.45 -19.23 -11.84 -1.47 -2.37 -10.27 52.2 7.52 2.37 10.23 -43.47 30.27 0 0 0 0.03zm14.91 -22.1l16.19 -10.77 -19.23 -2.37 3.04 13.14 0 0zm-14.68 33.51l40.73 -3.08 -1.11 -14.51 8.29 -0.64 2.94 38.89 -8.29 0.64 -1.1 -14.45 -40.73 3.08 -0.77 -9.93 0 0 0.03 0zm1.77 30.5l49.16 1.57 -0.33 9.97 -49.16 -1.57 0.33 -9.97zm24.25 20.3c4.98,0.6 9.06,1.84 12.27,3.75 2.34,1.4 4.42,3.18 6.15,5.35 1.74,2.14 2.98,4.45 3.64,6.82 0.94,3.21 1.14,6.79 0.67,10.77 -0.87,7.19 -3.78,12.68 -8.76,16.49 -4.98,3.78 -11.47,5.22 -19.43,4.25 -7.89,-0.93 -13.81,-3.81 -17.76,-8.63 -3.95,-4.82 -5.52,-10.84 -4.65,-17.99 0.87,-7.26 3.78,-12.77 8.73,-16.52 4.95,-3.75 11.3,-5.18 19.1,-4.25l0 0 0.03 -0.04zm-0.87 10.2c-5.55,-0.67 -9.9,0.13 -13.04,2.34 -3.18,2.21 -4.98,5.29 -5.45,9.23 -0.47,3.95 0.57,7.36 3.11,10.2 2.54,2.88 6.65,4.62 12.3,5.32 5.62,0.67 9.93,-0.07 12.97,-2.2 3.04,-2.14 4.82,-5.22 5.32,-9.3 0.5,-4.08 -0.53,-7.52 -3.01,-10.33 -2.51,-2.81 -6.55,-4.58 -12.17,-5.25l0 0 -0.03 0zm-31.4 41.77l47.49 12.84 -2.51 9.3 -37.09 10.94 31.8 8.59 -2.41 8.9 -47.45 -12.84 2.61 -9.6 36.42 -10.8 -31.2 -8.43 2.41 -8.9 0 0 -0.07 0zm-547.1 -36.68c27.72,-31.23 55.45,-62.47 83.17,-93.67 21,13.98 42,27.99 63,42 48.12,-49.63 96.21,-99.25 144.33,-148.88 9.46,-9.77 7.76,-11.17 16.12,-0.27 58.76,76.85 117.51,153.73 176.24,230.58 8.59,11.27 12.17,11 5.35,23.45 -3.85,7.02 -7.69,14.08 -11.54,21.1 -12.64,23.11 -9.66,21.6 -34.58,13.04 -8.7,-3.01 -17.46,-6.02 -26.15,-9 -127.48,-34.98 -253.69,-53.84 -385.54,-14.28 -29.06,8.73 -40.4,-9.1 -4.55,-24.48 11.3,-4.05 22.61,-8.09 33.91,-12.11 46.68,-12.87 90.83,-19.8 138.92,-25.05 68.02,-1.27 138.31,-0.03 205.13,13.71 3.21,0.27 6.46,0.54 9.7,0.8 -15.62,-39.16 -98.82,-151.96 -119.52,-180.92 -45.78,51.97 -91.53,103.9 -137.28,155.87 -24.78,-19.39 -49.53,-38.76 -74.31,-58.15 -23.81,23.31 -47.59,46.61 -71.4,69.96 -3.95,3.88 -14.11,5.18 -11,-3.71l0 0 0 0 0 -0z"/>
 </g>
</svg>
