<svg width="54" height="58" viewBox="0 0 54 58" fill="none" xmlns="http://www.w3.org/2000/svg">
<g clip-path="url(#clip0_175_1189)">
<path fill-rule="evenodd" clip-rule="evenodd" d="M17.846 24.5382C19.5946 24.5382 21.16 25.7304 21.8468 27.0903C22.5691 28.5204 22.3702 30.212 21.5326 31.4312C18.3591 36.0523 11.7587 31.8879 13.755 27.2789C14.3481 25.9089 15.9447 24.5382 17.846 24.5382ZM9.20185 26.7688H9.15527e-05V31.2305H9.20185C10.0341 34.8024 13.654 37.9229 17.2883 37.9229C19.8037 37.9229 21.9724 37.3881 23.6694 35.7993C24.9301 34.6185 26.0394 33.1655 26.4901 31.2305H53.5383V26.7688H26.4901C25.6614 23.2126 22.062 20.0764 18.4036 20.0764C15.869 20.0764 13.7339 20.598 12.0225 22.2C10.7618 23.3808 9.65254 24.8338 9.20185 26.7688Z" fill="white"/>
<path fill-rule="evenodd" clip-rule="evenodd" d="M35.6926 4.46177C38.9874 4.46177 41.4511 8.33765 39.3792 11.3548C36.2058 15.9758 29.6054 11.8115 31.6016 7.20253C32.1953 5.83245 33.7913 4.46177 35.6926 4.46177ZM27.0485 6.69235H0.000244141V11.1541H27.0485C27.8807 14.7259 31.5006 17.8465 35.135 17.8465C37.6504 17.8465 39.8191 17.3117 41.516 15.7229C42.7767 14.5421 43.886 13.0891 44.3367 11.1541H53.5385V6.69235H44.3367C43.5081 3.13616 39.9086 0 36.2502 0C33.7156 0 31.5806 0.521591 29.8692 2.12362C28.6084 3.30441 27.4992 4.75742 27.0485 6.69235Z" fill="white"/>
<path fill-rule="evenodd" clip-rule="evenodd" d="M35.6924 44.6153C37.4411 44.6153 39.0065 45.8075 39.6933 47.1674C41.8392 51.4165 36.199 55.7352 32.656 52.2529C29.5385 49.1883 32.0852 44.6153 35.6924 44.6153ZM27.0483 46.8459H9.15527e-05V51.3077H27.0483C27.8806 54.8795 31.5005 58 35.1348 58C37.6502 58 39.8189 57.4652 41.5159 55.8764C42.7766 54.6956 43.8859 53.2426 44.3366 51.3077H53.5383V46.8459H44.3366C43.5079 43.2897 39.9084 40.1536 36.2501 40.1536C33.7154 40.1536 31.5804 40.6752 29.869 42.2772C28.6083 43.458 27.499 44.911 27.0483 46.8459Z" fill="white"/>
</g>
<defs>
<clipPath id="clip0_175_1189">
<rect width="53.5384" height="58" fill="white"/>
</clipPath>
</defs>
</svg>
