<svg xmlns="http://www.w3.org/2000/svg" xml:space="preserve" width="7.8494in" height="1.98841in" version="1.1" style="shape-rendering:geometricPrecision; text-rendering:geometricPrecision; image-rendering:optimizeQuality; fill-rule:evenodd; clip-rule:evenodd"
viewBox="0 0 7856.46 1990.2">
 <g id="Layer_x0020_1">
  <metadata id="CorelCorpID_0Corel-Layer"/>
  <path fill="#989D9F" d="M1939.35 853.33l-0.44 233.43 -131.06 0 -401.14 -0.2c-306.5,-5.76 -548.09,-249.49 -530.76,-548.75 7.42,-128.2 -4.9,-461.09 4.85,-535.43l226.15 -2.38c7.2,42.08 1.11,355.02 -1.57,415.49 -14.55,328.08 75.08,444.23 409.49,438.38 128.67,-2.24 299.87,0 424.5,-0.54l-0.02 0zm-694.54 537.73l156.99 -155.62 429.56 428.04 -157.6 158.11 -428.95 -430.53zm587.4 -1120.52l-428.75 431.34 -156.9 -158.93 427.66 -428.01 158 155.6zm-1138.51 257.01l-155.43 156.85 -415.94 -412.73 158.95 -156.94 412.43 412.82z"/>
  <path fill="#357926" d="M737.47 1155.72c-73.77,-71.13 -233.03,-70.59 -322.57,-69.14l-414.71 -0.52 -0.2 -207.45 574.22 -0.4c232.61,17.96 387.26,141.64 457.23,317.56 46.77,117.6 35.17,219.81 36.37,354.62 0.5,56.26 5.26,357.76 -1.25,388.45l-216.75 0.2c-13.04,-124.41 13.63,-504.6 -18.3,-630.99 -17.65,-69.88 -45.46,-105.49 -94.06,-152.34l0.02 0.01zm-43.69 250.76l-412.51 412.89 -158.35 -156.66 415.35 -412.08 155.52 155.85z"/>
  <path fill="#989D9F" fill-rule="nonzero" d="M7306.94 772.7c-2.98,0 -4.53,1.43 -4.53,4.51l0 315.56c0,32.62 -11.9,60.35 -35.59,83.33 -23.68,22.85 -51.9,33.69 -84.75,32.51 -31.19,-1.2 -57.62,-13.46 -79.52,-36.67 -21.44,-23.19 -32.03,-50.71 -32.03,-82.25l0 -312.46c0,-3.08 -1.54,-4.51 -4.53,-4.51l-54.5 0c-2.98,0 -4.53,1.43 -4.53,4.51l0 311.76c0,50.46 17.99,93.67 53.8,129.74 35.7,36.42 78.67,54.27 128.68,53.32 48.79,-0.95 90.34,-18.8 124.75,-53.69 34.51,-34.89 51.64,-76.77 51.64,-125.57l0 -315.56c0,-3.08 -1.55,-4.51 -4.51,-4.51l-54.39 0 0 -0.02zm524.43 0.06c-3.45,0 -6.43,1.3 -9.04,4.16l-170.46 190.32 -170.21 -190.32c-2.63,-2.86 -5.6,-4.16 -9.04,-4.16l-20.24 0c-2.98,0 -4.51,1.43 -4.51,4.51l0 490.29c0,2.98 1.55,4.53 4.51,4.53l51.54 0c3.09,0 4.63,-1.55 4.63,-4.53l0 -369.73 140.1 156.65c2.15,2.27 4.3,2.27 6.66,0l140.59 -157 0 370.06c0,2.98 1.41,4.53 4.53,4.53l51.54 0c3.08,0 4.51,-1.54 4.51,-4.53l0 -490.29c0,-3.08 -1.43,-4.51 -4.51,-4.51l-20.6 0 0.02 0.02zm-1557.68 0.03c-68.81,0 -127.73,24.4 -176.52,73.21 -48.81,48.79 -73.21,107.59 -73.21,176.39 0,68.79 24.4,127.73 73.21,176.52 48.79,48.81 107.71,73.21 176.52,73.21 68.79,0 127.61,-24.4 176.4,-73.21 48.81,-48.78 73.21,-107.73 73.21,-176.52 0,-68.8 -24.4,-127.59 -73.21,-176.39 -48.78,-48.81 -107.61,-73.21 -176.4,-73.21zm0 435.53c-51.42,0 -95.22,-18.22 -131.55,-54.39 -36.19,-36.33 -54.39,-80.12 -54.39,-131.55 0,-51.07 18.21,-94.99 54.39,-131.41 36.3,-36.3 80.12,-54.39 131.55,-54.39 51.07,0 94.97,18.1 131.41,54.39 36.3,36.41 54.41,80.35 54.41,131.41 0,51.42 -18.1,95.22 -54.41,131.55 -36.41,36.17 -80.33,54.39 -131.41,54.39zm-294.57 -372.48c2.98,0 4.53,-1.55 4.53,-4.51l0 -54.75c0,-3.1 -1.55,-4.52 -4.53,-4.52l-303.04 0c-2.98,0 -4.51,1.41 -4.51,4.52l0 491c0,2.98 1.54,4.52 4.51,4.52l54.75 0c2.98,0 4.53,-1.55 4.53,-4.52l0 -214.14 189 0c2.98,0 4.53,-1.55 4.53,-4.51l0 -54.75c0,-2.98 -1.54,-4.51 -4.53,-4.51l-189 0 0 -153.78 243.76 0 0 -0.04zm686.05 156.19l0 -156.17 124.51 0c21.65,0 40.11,7.49 55.47,22.61 15.35,15.35 22.98,33.92 22.98,55.47 0,21.41 -7.63,39.77 -22.98,55.12 -15.35,15.35 -33.8,22.96 -55.47,22.96l-124.51 0zm155.57 59.4c31.07,-7.51 57.02,-23.33 77.74,-47.49 20.95,-24.88 32,-53.44 33.07,-85.83 1.19,-40 -12.14,-74.27 -40.11,-102.85 -27.84,-28.56 -61.78,-42.87 -101.77,-42.87l-183.43 0c-2.98,0 -4.51,1.43 -4.51,4.53l0 489.57c0,2.98 1.55,4.52 4.51,4.52l54.41 0c2.98,0 4.51,-1.55 4.51,-4.52l0 -210.94 86.18 0 -0.37 0.37 117.14 213.66c0.72,1.66 2.01,2.51 3.8,2.51l62.15 0c1.79,0 3.08,-0.72 3.79,-2.15 0.97,-1.55 1.08,-3.09 0.37,-4.53l-117.48 -214.02 0.02 0.04z"/>
  <path fill="#989D9F" fill-rule="nonzero" d="M5347.37 772.76c-3.42,0 -6.38,1.28 -8.98,4.13l-169.24 188.97 -168.99 -188.97c-2.61,-2.85 -5.55,-4.13 -8.97,-4.13l-20.09 0c-2.96,0 -4.48,1.42 -4.48,4.48l0 486.78c0,2.96 1.54,4.5 4.48,4.5l51.17 0c3.07,0 4.59,-1.54 4.59,-4.5l0 -367.08 139.09 155.53c2.13,2.25 4.26,2.25 6.61,0l139.58 -155.88 0 367.41c0,2.96 1.4,4.5 4.5,4.5l51.17 0c3.06,0 4.48,-1.54 4.48,-4.5l0 -486.78c0,-3.06 -1.42,-4.48 -4.48,-4.48l-20.46 0 0.02 0.02zm-627.99 202.2l-1.08 -0.71c-30.01,-13.02 -50.94,-24.47 -62.63,-34.65 -14.06,-12.05 -21.14,-26.12 -21.14,-42.31 0,-41.02 27.55,-61.57 82.72,-61.57 21.53,0 41.85,4.48 60.98,13.48 6.75,2.96 13.13,6.62 19.4,10.77 2.25,1.64 4.48,3.17 6.62,4.84 1.54,1.42 3.05,2.73 4.48,4.15 2,1.64 4.13,1.54 6.15,-0.36l19.72 -18.67 19.49 -18.32c2.49,-2.36 2.49,-4.48 0,-6.61 -1.88,-1.88 -4.02,-3.78 -6.27,-5.9 -3.32,-2.48 -6.52,-4.96 -9.69,-7.21 -8.97,-6.75 -18.68,-12.63 -28.73,-17.72 -28.96,-14.3 -59.56,-21.39 -92.19,-21.39 -45.02,0 -80.49,11.11 -106.59,33.56 -26.12,22.09 -39.12,52.48 -39.12,91 0,35.57 14.42,65.71 43.27,90.41 10.86,9.21 23.99,17.83 39.46,25.99 6.02,3.19 12.77,6.51 20.09,10.03l9.35 4.13 8.61 3.79 16.3 7.92 1.08 0.37c34.16,15.01 58.25,28.71 72.31,40.88 16.66,14.3 24.95,31.09 24.95,50.23 0,49.64 -32.62,74.44 -97.96,74.44 -25.41,0 -49.28,-5.32 -71.62,-15.97 -8.15,-3.88 -15.61,-8.27 -22.57,-13.11 -2.73,-1.9 -5.32,-3.78 -7.57,-5.55 -1.88,-1.66 -3.67,-3.2 -5.19,-4.48 -2.13,-1.89 -4.13,-1.89 -6.27,0l-39.48 36.98c-2.36,2.36 -2.36,4.5 0,6.61 2.13,2 4.38,4.13 6.97,6.27 3.42,2.73 6.96,5.44 10.64,8.29 9.93,7.33 20.57,13.96 31.91,19.75 32.26,16.18 66.65,24.22 103.17,24.22 49.64,0 88.87,-12.42 117.7,-37.1 28.83,-24.47 43.26,-57.92 43.26,-100.35 0,-39 -15.96,-72.08 -48.1,-99.4 -12.05,-10.15 -26.72,-19.86 -43.96,-29.07 -6.75,-3.42 -14.07,-7.21 -22.09,-11.11l-10.42 -4.48c-2.36,-1.17 -5.67,-2.6 -10.03,-4.5l-15.96 -7.55 0.05 -0.02zm-314.7 -202.2c-2.96,0 -4.49,1.42 -4.49,4.48l0 486.78c0,2.96 1.53,4.5 4.49,4.5l54.36 0c2.96,0 4.48,-1.54 4.48,-4.5l0 -486.78c0,-3.05 -1.54,-4.48 -4.48,-4.48l-54.36 0zm-209.78 276.66c30.85,-7.46 56.61,-23.16 77.18,-47.15 20.81,-24.7 31.78,-53.06 32.84,-85.21 1.19,-39.72 -12.05,-73.74 -39.81,-102.12 -27.64,-28.36 -61.34,-42.56 -101.05,-42.56l-182.1 0c-2.96,0 -4.49,1.42 -4.49,4.5l0 486.06c0,2.96 1.54,4.48 4.49,4.48l54 0c2.96,0 4.48,-1.53 4.48,-4.48l0 -209.43 85.56 0 -0.36 0.37 116.3 212.12c0.72,1.65 2,2.49 3.77,2.49l61.71 0c1.77,0 3.06,-0.71 3.77,-2.13 0.96,-1.54 1.08,-3.07 0.36,-4.5l-116.64 -212.49 0.01 0.04zm-154.45 -58.98l0 -155.05 123.62 0c21.52,0 39.83,7.44 55.08,22.45 15.24,15.24 22.81,33.68 22.81,55.07 0,21.26 -7.57,39.48 -22.81,54.73 -15.24,15.24 -33.56,22.8 -55.08,22.8l-123.62 0zm-239.56 -217.68c-2.96,0 -4.49,1.42 -4.49,4.48l0 313.29c0,32.39 -11.82,59.92 -35.33,82.73 -23.51,22.69 -51.53,33.45 -84.14,32.27 -30.96,-1.19 -57.21,-13.35 -78.95,-36.4 -21.28,-23.03 -31.8,-50.34 -31.8,-81.66l0 -310.22c0,-3.05 -1.54,-4.48 -4.49,-4.48l-54.12 0c-2.96,0 -4.5,1.42 -4.5,4.48l0 309.53c0,50.09 17.86,93 53.42,128.81 35.45,36.15 78.1,53.88 127.76,52.94 48.44,-0.94 89.69,-18.67 123.85,-53.3 34.26,-34.65 51.27,-76.22 51.27,-124.68l0 -313.29c0,-3.05 -1.53,-4.48 -4.48,-4.48l-54 0 0 -0.02zm-639.45 0c-68.32,0 -126.81,24.22 -175.27,72.68 -48.46,48.44 -72.68,106.82 -72.68,175.14 0,68.3 24.22,126.81 72.68,175.26 48.46,48.46 106.94,72.68 175.27,72.68 68.31,0 126.68,-24.22 175.12,-72.68 48.46,-48.46 72.68,-106.96 72.68,-175.26 0,-68.32 -24.22,-126.7 -72.68,-175.14 -48.44,-48.46 -106.82,-72.68 -175.12,-72.68zm0 432.41c-51.05,0 -94.56,-18.08 -130.6,-54 -35.93,-36.04 -54,-79.55 -54,-130.6 0,-50.71 18.07,-94.31 54,-130.47 36.04,-36.04 79.55,-54.02 130.6,-54.02 50.7,0 94.29,17.97 130.44,54.02 36.07,36.15 54.02,79.77 54.02,130.47 0,51.05 -17.96,94.54 -54.02,130.6 -36.15,35.91 -79.76,54 -130.44,54zm-606.39 -432.41c-3.06,0 -4.48,1.42 -4.48,4.48l0 54.01c0,2.96 1.42,4.49 4.48,4.49l130.12 0 0 428.28c0,2.96 1.54,4.5 4.61,4.5l54.02 0c2.96,0 4.48,-1.54 4.48,-4.5l0 -428.28 129.77 0c3.06,0 4.48,-1.54 4.48,-4.49l0 -54.01c0,-3.05 -1.42,-4.48 -4.48,-4.48l-323 0z"/>
  <path fill="#989D9F" fill-rule="nonzero" d="M7621.74 442.03l0 -428c0,-3.05 -1.54,-4.48 -4.49,-4.48l-54.33 0c-2.96,0 -4.48,1.42 -4.48,4.48l0 486.83c0,2.96 1.54,4.48 4.48,4.48l275.42 0c2.96,0 4.48,-1.53 4.48,-4.48l0 -54.33c0,-2.96 -1.54,-4.48 -4.48,-4.48l-216.6 0 0 -0.02zm-396.96 -433.19c-1.9,0 -3.32,0.94 -4.13,2.73l-202.43 487.52c-0.71,1.4 -0.6,2.85 0.36,4.13 0.81,1.42 2.13,2.13 3.77,2.13l55.38 0c2.02,0 3.42,-0.94 4.15,-2.71l79.24 -191.09 175.37 0 79.26 191.09c0.71,1.79 1.99,2.71 4.13,2.71l55.4 0c1.54,0 2.85,-0.71 3.78,-2.13 0.96,-1.28 1.07,-2.73 0.36,-4.13l-202.44 -487.52c-0.71,-1.79 -1.99,-2.73 -4.13,-2.73l-48.07 0 -0.02 0zm-38.5 242.57l62.7 -150.59 62.24 150.59 -124.94 0 0.01 0zm-302.35 -241.88c-3.07,0 -4.48,1.42 -4.48,4.48l0 352.19 -265.74 -354.64c-0.96,-1.31 -2.13,-2.02 -3.55,-2.02l-22.78 0c-2.96,0 -4.48,1.42 -4.48,4.48l0 486.83c0,2.96 1.54,4.48 4.48,4.48l51.14 0c3.05,0 4.59,-1.53 4.59,-4.48l0 -349.81 263.97 352.55c0.94,1.17 2,1.77 3.42,1.77l24.57 0c3.05,0 4.48,-1.53 4.48,-4.48l0 -486.83c0,-3.05 -1.42,-4.48 -4.48,-4.48l-51.14 0 0.01 -0.02zm-659.61 0.37c-68.27,0 -126.73,24.21 -175.15,72.64 -48.43,48.41 -72.64,106.75 -72.64,175.01 0,68.26 24.21,126.73 72.64,175.14 48.41,48.43 106.87,72.64 175.15,72.64 68.25,0 126.61,-24.21 175.02,-72.64 48.43,-48.41 72.64,-106.88 72.64,-175.14 0,-68.26 -24.21,-126.59 -72.64,-175.01 -48.41,-48.43 -106.77,-72.64 -175.02,-72.64zm0 432.13c-51.03,0 -94.48,-18.07 -130.52,-53.96 -35.91,-36.04 -53.97,-79.5 -53.97,-130.52 0,-50.68 18.06,-94.25 53.97,-130.38 36.02,-36.02 79.49,-53.97 130.52,-53.97 50.68,0 94.22,17.96 130.38,53.97 36.02,36.13 53.98,79.72 53.98,130.38 0,51.02 -17.96,94.47 -53.98,130.52 -36.13,35.88 -79.71,53.96 -130.38,53.96zm-403.21 -432.13c-2.96,0 -4.48,1.42 -4.48,4.49l0 486.46c0,2.96 1.54,4.48 4.48,4.48l54.33 0c2.96,0 4.48,-1.53 4.48,-4.48l0 -486.46c0,-3.05 -1.53,-4.49 -4.48,-4.49l-54.33 0zm-415.02 0c-3.07,0 -4.49,1.42 -4.49,4.49l0 53.97c0,2.96 1.42,4.49 4.49,4.49l130.03 0 0 428c0,2.96 1.53,4.48 4.61,4.48l53.97 0c2.96,0 4.48,-1.53 4.48,-4.48l0 -428 129.69 0c3.07,0 4.49,-1.54 4.49,-4.49l0 -53.97c0,-3.05 -1.42,-4.49 -4.49,-4.49l-322.77 0zm-298.69 -1.06c-1.88,0 -3.3,0.94 -4.13,2.73l-202.42 487.52c-0.71,1.4 -0.6,2.85 0.36,4.13 0.83,1.42 2.14,2.13 3.77,2.13l55.38 0c2.02,0 3.42,-0.94 4.15,-2.71l79.24 -191.09 175.37 0 79.26 191.09c0.71,1.79 2,2.71 4.13,2.71l55.39 0c1.56,0 2.84,-0.71 3.78,-2.13 0.96,-1.28 1.08,-2.73 0.36,-4.13l-202.43 -487.52c-0.71,-1.79 -2,-2.73 -4.13,-2.73l-48.07 0 -0.02 0zm-38.49 242.57l62.7 -150.59 62.24 150.59 -124.95 0 0.01 0zm-302.35 -241.88c-3.07,0 -4.48,1.42 -4.48,4.48l0 352.19 -265.74 -354.64c-0.96,-1.31 -2.13,-2.02 -3.55,-2.02l-22.78 0c-2.96,0 -4.49,1.42 -4.49,4.48l0 486.83c0,2.96 1.53,4.48 4.49,4.48l51.14 0c3.07,0 4.59,-1.53 4.59,-4.48l0 -349.81 263.97 352.55c0.94,1.17 1.99,1.77 3.42,1.77l24.57 0c3.07,0 4.49,-1.53 4.49,-4.48l0 -486.83c0,-3.05 -1.42,-4.48 -4.49,-4.48l-51.14 0 0.01 -0.02zm-515.31 276.84c30.83,-7.44 56.57,-23.15 77.13,-47.11 20.79,-24.68 31.75,-53.02 32.83,-85.16 1.19,-39.67 -12.05,-73.69 -39.8,-102.05 -27.63,-28.33 -61.3,-42.51 -100.97,-42.51l-182 0c-2.96,0 -4.48,1.42 -4.48,4.48l0 485.75c0,2.96 1.53,4.49 4.48,4.49l53.96 0c2.96,0 4.49,-1.54 4.49,-4.49l0 -209.28 85.51 0 -0.36 0.37 116.22 211.99c0.71,1.65 2,2.48 3.77,2.48l61.66 0c1.77,0 3.06,-0.71 3.77,-2.13 0.96,-1.54 1.08,-3.05 0.36,-4.48l-116.57 -212.35 0 0.01zm-154.36 -58.93l0 -154.93 123.54 0c21.48,0 39.8,7.43 55.04,22.44 15.23,15.23 22.8,33.66 22.8,55.04 0,21.26 -7.57,39.46 -22.8,54.69 -15.23,15.23 -33.54,22.78 -55.04,22.78l-123.54 0 0 -0.02zm-481.73 -217.54c-2.96,0 -4.48,1.42 -4.48,4.49l0 486.46c0,2.96 1.53,4.48 4.48,4.48l321.69 0c3.07,0 4.61,-1.53 4.61,-4.48l0 -53.96c0,-3.1 -1.54,-4.49 -4.61,-4.49l-263.24 0 0 -153.3 190.62 0c3.05,0 4.48,-1.56 4.48,-4.48l0 -53.98c0,-3.05 -1.42,-4.48 -4.48,-4.48l-190.62 0 0 -153.3 263.24 0c3.07,0 4.61,-1.54 4.61,-4.49l0 -53.97c0,-3.05 -1.54,-4.49 -4.61,-4.49l-321.69 0 0 -0.02zm-415.02 0c-3.07,0 -4.49,1.42 -4.49,4.49l0 53.97c0,2.96 1.42,4.49 4.49,4.49l130.03 0 0 428c0,2.96 1.53,4.48 4.61,4.48l53.97 0c2.96,0 4.48,-1.53 4.48,-4.48l0 -428 129.69 0c3.07,0 4.49,-1.54 4.49,-4.49l0 -53.97c0,-3.05 -1.42,-4.49 -4.49,-4.49l-322.77 0zm-152.95 -0.37c-3.07,0 -4.48,1.42 -4.48,4.48l0 352.19 -265.74 -354.64c-0.96,-1.31 -2.13,-2.02 -3.55,-2.02l-22.78 0c-2.96,0 -4.48,1.42 -4.48,4.48l0 486.83c0,2.96 1.53,4.48 4.48,4.48l51.14 0c3.07,0 4.59,-1.53 4.59,-4.48l0 -349.81 263.97 352.55c0.94,1.17 1.99,1.77 3.42,1.77l24.57 0c3.07,0 4.49,-1.53 4.49,-4.48l0 -486.83c0,-3.05 -1.42,-4.48 -4.49,-4.48l-51.14 0 0.01 -0.02zm-492.15 0.37c-2.96,0 -4.48,1.42 -4.48,4.49l0 486.46c0,2.96 1.53,4.48 4.48,4.48l54.33 0c2.96,0 4.48,-1.53 4.48,-4.48l0 -486.46c0,-3.05 -1.54,-4.49 -4.48,-4.49l-54.33 0z"/>
  <path fill="#357926" fill-rule="nonzero" d="M2715.67 1741.27l61.46 -147.54 60.98 147.54 -122.43 0zm37.73 -237.69c-1.85,0 -3.23,0.95 -4.04,2.66l-198.34 477.67c-0.7,1.4 -0.59,2.77 0.34,4.06 0.84,1.38 2.1,2.08 3.7,2.08l54.28 0c1.97,0 3.37,-0.93 4.04,-2.67l77.64 -187.22 171.83 0 77.64 187.22c0.7,1.74 1.97,2.67 4.04,2.67l54.28 0c1.51,0 2.8,-0.7 3.72,-2.08 0.93,-1.29 1.04,-2.66 0.34,-4.06l-198.34 -477.67c-0.7,-1.71 -1.96,-2.66 -4.06,-2.66l-47.07 0 -0.02 0zm379.64 214.2l0 -151.81 121.03 0c21.06,0 38.99,7.29 53.91,21.98 14.92,14.92 22.33,32.98 22.33,53.91 0,20.84 -7.4,38.65 -22.33,53.6 -14.92,14.92 -32.85,22.32 -53.91,22.32l-121.03 0 0 -0.02zm151.25 57.75c30.21,-7.29 55.42,-22.66 75.56,-46.17 20.36,-24.18 31.13,-51.95 32.17,-83.42 1.15,-38.9 -11.81,-72.2 -38.99,-99.97 -27.07,-27.77 -60.05,-41.66 -98.93,-41.66l-178.31 0c-2.89,0 -4.38,1.39 -4.38,4.38l0 475.93c0,2.89 1.51,4.38 4.38,4.38l52.9 0c2.89,0 4.38,-1.51 4.38,-4.38l0 -205.06 83.78 0 -0.34 0.36 113.86 207.7c0.7,1.63 1.96,2.42 3.72,2.42l60.39 0c1.74,0 3,-0.7 3.71,-2.08 0.92,-1.51 1.04,-3 0.36,-4.4l-114.21 -208.05 -0.06 0zm573.83 -270.9c-3.37,0 -6.26,1.26 -8.81,4.04l-165.69 185.04 -165.48 -185.04c-2.53,-2.77 -5.44,-4.04 -8.78,-4.04l-19.69 0c-2.89,0 -4.38,1.38 -4.38,4.38l0 476.63c0,2.89 1.51,4.4 4.38,4.4l50.12 0c3.01,0 4.52,-1.51 4.52,-4.4l0 -359.42 136.2 152.28c2.08,2.21 4.18,2.21 6.48,0l136.65 -152.64 0 359.75c0,2.89 1.38,4.4 4.4,4.4l50.1 0c3,0 4.38,-1.51 4.38,-4.4l0 -476.63c0,-3 -1.38,-4.38 -4.38,-4.38l-20.03 0 0.01 0.03zm149.61 0c-2.89,0 -4.38,1.38 -4.38,4.38l0 476.63c0,2.89 1.51,4.4 4.38,4.4l315.21 0c3,0 4.52,-1.51 4.52,-4.4l0 -52.9c0,-3 -1.51,-4.38 -4.52,-4.38l-257.94 0 0 -150.2 186.75 0c3,0 4.43,-1.49 4.43,-4.38l0 -52.87c0,-3 -1.39,-4.43 -4.43,-4.43l-186.75 0 0 -150.18 257.94 0c3,0 4.52,-1.51 4.52,-4.38l0 -52.9c0,-3 -1.51,-4.38 -4.52,-4.38l-315.21 0 0 -0.02zm696.35 -0.34c-3,0 -4.38,1.39 -4.38,4.38l0 345.07 -260.35 -347.5c-0.93,-1.26 -2.08,-1.96 -3.46,-1.96l-22.35 0c-2.89,0 -4.4,1.39 -4.4,4.38l0 476.97c0,2.89 1.51,4.4 4.4,4.4l50.12 0c3.01,0 4.5,-1.51 4.5,-4.4l0 -342.74 258.63 345.42c0.92,1.17 1.96,1.74 3.34,1.74l24.06 0c3.02,0 4.4,-1.51 4.4,-4.4l0 -476.97c0,-3 -1.38,-4.38 -4.4,-4.38l-50.12 0 0 -0.01zm179.6 0.34c-2.89,0 -4.38,1.38 -4.38,4.38l0 476.63c0,2.89 1.51,4.4 4.38,4.4l53.24 0c2.89,0 4.38,-1.51 4.38,-4.4l0 -476.63c0,-3.01 -1.51,-4.38 -4.38,-4.38l-53.24 0zm290.45 236.65l61.46 -147.54 60.98 147.54 -122.44 0zm37.73 -237.69c-1.85,0 -3.23,0.95 -4.05,2.67l-198.33 477.67c-0.7,1.39 -0.59,2.77 0.34,4.06 0.84,1.38 2.1,2.08 3.72,2.08l54.27 0c1.97,0 3.37,-0.92 4.05,-2.66l77.64 -187.22 171.83 0 77.64 187.22c0.71,1.74 1.97,2.66 4.05,2.66l54.27 0c1.51,0 2.8,-0.7 3.72,-2.08 0.93,-1.29 1.04,-2.67 0.34,-4.06l-198.33 -477.67c-0.7,-1.72 -1.97,-2.67 -4.06,-2.67l-47.09 0 -0.01 0zm562.72 427.81l155.28 -231.54 0.22 -0.7c12.28,-20.25 18.4,-42.47 18.4,-66.42 0,-35.51 -12.59,-65.85 -37.61,-91.18 -25.33,-25.33 -55.88,-37.95 -91.64,-37.95 -27.54,0 -52.65,8.11 -75.21,24.43 -22.58,16.18 -38.29,37.36 -47.1,63.4 -0.92,2.89 0.12,4.88 3.01,5.69l47.79 14.34c2.77,0.59 4.52,-0.22 5.44,-2.77 4.97,-13.78 13.55,-24.99 25.81,-33.55 12.15,-8.56 25.69,-12.84 40.28,-12.84 19.43,0 36.1,6.84 49.87,20.61 13.77,13.88 20.72,30.43 20.72,49.87 0,12.84 -3.23,24.77 -9.48,35.65l-211.19 314.87c-0.92,1.38 -0.92,2.89 0,4.4 0.57,1.62 1.85,2.42 3.68,2.42l287.46 0c2.77,0 4.05,-1.51 4.05,-4.4l0 -49.87c0,-2.89 -1.26,-4.38 -4.05,-4.38l-185.74 0 -0.01 -0.06zm522.1 -370.16c-51.16,0 -94.89,18.15 -131.22,54.62 -17.22,16.89 -30.43,36.55 -39.69,58.88 -9.73,22.91 -14.58,47.01 -14.58,72.2 0,51.16 18.06,94.89 54.27,131.21 17.14,17.25 36.8,30.43 59.01,39.69 23.03,9.73 47.09,14.58 72.2,14.58 51.24,0 95,-18.06 131.1,-54.28 17.25,-17.12 30.55,-36.78 40.03,-59.01 9.73,-23.02 14.58,-47.09 14.58,-72.2 0,-51.25 -18.17,-95 -54.61,-131.08 -16.91,-17.25 -36.57,-30.57 -58.91,-40.05 -22.91,-9.73 -46.98,-14.58 -72.2,-14.58l0.01 0.02zm0 428.84c-32.88,0 -64.35,-6.36 -94.66,-18.98 -28.92,-12.5 -54.73,-29.85 -77.31,-52.18 -22.32,-22.69 -39.78,-48.39 -52.18,-77.31 -12.59,-30.32 -18.99,-61.8 -18.99,-94.66 0,-32.96 6.39,-64.45 18.99,-94.53 12.4,-29.14 29.84,-54.95 52.18,-77.31 22.58,-22.56 48.36,-40.03 77.31,-52.18 30.32,-12.84 61.81,-19.35 94.66,-19.35 32.96,0 64.45,6.48 94.53,19.35 29.17,12.15 54.98,29.62 77.3,52.18 22.58,22.35 40.03,48.15 52.18,77.31 12.84,30.09 19.32,61.56 19.32,94.53 0,32.88 -6.48,64.35 -19.32,94.66 -12.15,28.92 -29.6,54.62 -52.18,77.31 -22.32,22.32 -48.13,39.66 -77.3,52.18 -30.09,12.62 -61.56,18.98 -94.53,18.98zm412.15 -58.67l155.29 -231.54 0.22 -0.7c12.28,-20.25 18.4,-42.47 18.4,-66.42 0,-35.51 -12.62,-65.85 -37.61,-91.18 -25.36,-25.33 -55.88,-37.95 -91.64,-37.95 -27.54,0 -52.65,8.11 -75.21,24.43 -22.57,16.18 -38.31,37.36 -47.09,63.4 -0.92,2.89 0.11,4.88 3,5.69l47.8 14.34c2.77,0.59 4.52,-0.22 5.44,-2.77 4.97,-13.78 13.54,-24.99 25.81,-33.55 12.15,-8.56 25.69,-12.84 40.28,-12.84 19.44,0 36.1,6.84 49.87,20.61 13.78,13.88 20.7,30.43 20.7,49.87 0,12.84 -3.23,24.77 -9.48,35.65l-211.19 314.87c-0.93,1.38 -0.93,2.89 0,4.4 0.59,1.62 1.85,2.42 3.7,2.42l287.45 0c2.77,0 4.04,-1.51 4.04,-4.4l0 -49.87c0,-2.89 -1.26,-4.38 -4.04,-4.38l-185.71 0 -0.02 -0.06zm410.9 58.31c-27.21,2.08 -52.87,-2.67 -77.31,-14.22 -24.18,-11.58 -44.09,-28.24 -59.72,-50.23 -1.85,-2.42 -1.38,-4.52 1.4,-6.01l39.91 -26.84c2.3,-1.51 4.38,-1.26 6.14,1.04 11.11,15.38 25.44,26.48 43.03,33.21 17.83,6.82 36.32,8.08 55.31,4.04 20.36,-4.26 37.36,-14.45 51.16,-30.43 14,-15.87 21.99,-34.14 23.7,-54.98 2.3,-28.22 -6.26,-52.65 -25.44,-73.24 -18.98,-20.61 -42.36,-30.8 -70.12,-30.8l-98.93 0c-3.02,0 -4.51,-1.51 -4.51,-4.52l0 -228.77c0,-2.89 1.49,-4.4 4.51,-4.4l212.79 0c3,0 4.38,1.51 4.38,4.4l0 48.13c0,2.89 -1.38,4.4 -4.38,4.4l-160.25 0 0 123.69 46.39 0c42.92,0 79.49,15.51 109.48,46.51 30.09,30.89 44.54,68.03 43.39,111.21 -1.26,38.65 -15.51,72.2 -42.7,100.67 -27.09,28.45 -59.85,44.21 -98.25,47.09l0.01 0.03z"/>
 </g>
</svg>
