<svg width="40" height="40" viewBox="0 0 40 40" fill="none" xmlns="http://www.w3.org/2000/svg">
<rect x="1.25" y="1.25" width="37.5" height="37.5" stroke="white" stroke-width="2.5"/>
<path d="M21.322 26.5702L23 26.659V29H16V26.7746L16.9709 26.6876C17.4987 26.6294 17.822 26.4527 17.822 25.7497V17.6093C17.822 16.9627 17.6473 16.7583 17.0871 16.7583L16.0595 16.701V14.2721H21.3239L21.322 26.5702ZM19.264 8C20.5592 8 21.4985 8.96842 21.4985 10.1958C21.4985 11.4269 20.5564 12.3352 19.2333 12.3352C17.8824 12.3352 16.9997 11.4269 16.9997 10.1958C16.9997 8.96842 17.8824 8 19.264 8Z" fill="white"/>
</svg>
