<svg width="34" height="34" viewBox="0 0 34 34" fill="none" xmlns="http://www.w3.org/2000/svg">
<path fill-rule="evenodd" clip-rule="evenodd" d="M29.1429 0H4.85714C2.18571 0 0 2.18571 0 4.85714V29.1429C0 31.8143 2.18571 34 4.85714 34H29.1429C31.8143 34 34 31.8143 34 29.1429V4.85714C34 2.18571 31.8143 0 29.1429 0ZM21.9784 10.8072C21.9784 9.95717 22.7069 9.35002 23.4355 9.35002C24.1641 9.35002 24.7712 9.95717 24.8926 10.8072C24.8926 11.6572 24.2855 12.2643 23.4355 12.2643C22.5855 12.2643 21.9784 11.6572 21.9784 10.8072ZM16.9991 11.1714C13.7206 11.1714 11.0491 13.8429 11.0491 17.1214C11.0491 20.4 13.7206 23.0714 16.9991 23.0714C20.2777 23.0714 22.9491 20.4 22.9491 17.1214C23.0706 13.8429 20.3991 11.1714 16.9991 11.1714ZM16.9991 21.0071C14.9348 21.0071 13.1134 19.3071 13.1134 17.1214C13.1134 15.0571 14.8134 13.2357 16.9991 13.2357C19.0634 13.2357 20.8848 14.9357 20.8848 17.1214C20.8848 19.3071 19.1848 21.0071 16.9991 21.0071ZM12.1419 4.8572H21.8562C25.8633 4.8572 29.1419 8.13577 29.1419 12.1429V21.8572C29.1419 25.8643 25.8633 29.1429 21.8562 29.1429H12.1419C8.13474 29.1429 4.85616 25.8643 4.85616 21.8572V12.1429C4.85616 8.13577 8.13474 4.8572 12.1419 4.8572ZM21.8562 26.8358C24.5276 26.8358 26.8347 24.6501 26.8347 21.8572V12.1429C26.8347 9.47149 24.649 7.16434 21.8562 7.16434H12.1419C9.47045 7.16434 7.16331 9.35006 7.16331 12.1429V21.8572C7.16331 24.5286 9.34902 26.8358 12.1419 26.8358H21.8562Z" fill="white"/>
</svg>
