<svg xmlns="http://www.w3.org/2000/svg" xml:space="preserve" width="200mm" height="80.5226mm" version="1.1" style="shape-rendering:geometricPrecision; text-rendering:geometricPrecision; image-rendering:optimizeQuality; fill-rule:evenodd; clip-rule:evenodd"
     viewBox="0 0 1663.81 669.87">

    <g id="Layer_x0020_1">
        <metadata id="CorelCorpID_0Corel-Layer"/>
     <g id="_2987541916976">
            <g id="g2993">
                <g id="g3045">
                    <g>
                        <path id="path3047" fill="#FEFEFE" fill-rule="nonzero" d="M1388.16 357.66c-1.35,74.71 14.78,114.29 76.37,114.29 61.49,0 70.31,-67.41 70.31,-118.71 0,-51.33 -11.67,-101.16 -76.27,-101.16 -39.63,0 -68.89,30.79 -70.41,105.59zm-124.6 312.21l0 -505.73 126.12 0c0,0 0,7.32 0,20.51 0,27.36 11.04,16.08 19.93,5.42 1.49,-1.78 29.6,-36.19 92.9,-36.19 63.11,0 161.29,43.96 161.29,199.36 0,120.2 -58.58,208.14 -159.74,208.14 -55.74,0 -87.97,-21.95 -95.34,-30.81 -7.38,-8.73 -17.63,-10.26 -17.63,0 0,10.28 0,139.3 0,139.3l-127.54 0 0 -0zm0 0l0 0 0 0z"/>
                    </g>
                </g>
             <g id="g3049">
                    <path id="path3051" fill="#FEFEFE" fill-rule="nonzero" d="M288.75 0l136.33 0c0,0 0,296.07 0,357.66 0,61.52 -26.42,190.55 -215.48,190.55 -189.09,0 -209.6,-120.27 -209.6,-187.64l0 -65.96 131.93 0c0,0 0,24.91 0,64.47 0,39.57 26.39,76.2 76.2,76.2 49.83,0 80.61,-27.84 80.61,-74.71 0,-46.91 0,-360.57 0,-360.57z"/>
                </g>
             <g id="g3053">
                    <g>
                        <path id="path3055" fill="#FEFEFE" fill-rule="nonzero" d="M710.2 303.41c0,-36.68 -20.48,-71.86 -67.39,-71.86 -45.44,0 -61.58,32.22 -61.58,71.86l128.97 0zm-80.53 -153.93c107.06,0 200.83,41.03 200.83,230.13l-253.56 0c0,60.1 24.89,85.03 68.87,85.03 43.99,0 58.63,-35.21 58.63,-35.21l124.63 0c0,54.25 -74.77,127.54 -187.67,126.09 -128.95,0 -192,-95.28 -192,-193.5 0,-98.25 55.66,-212.54 180.26,-212.54l-0 0zm0 0l0 0 0 0z"/>
                    </g>
                </g>
             <g id="g3057">
                    <path id="path3059" fill="#FEFEFE" fill-rule="nonzero" d="M1115.56 303.41c0,-36.68 -20.5,-71.86 -67.41,-71.86 -45.42,0 -61.59,32.22 -61.59,71.86l129 0zm-80.53 -153.93c107.05,0 200.8,41.03 200.8,230.13l-253.55 0c0,60.1 24.91,85.03 68.92,85.03 43.94,0 58.61,-35.21 58.61,-35.21l124.63 0c0,54.25 -74.78,127.54 -187.64,126.09 -129.02,0 -192.07,-95.28 -192.07,-193.5 0,-98.25 55.73,-212.54 180.3,-212.54z"/>
                </g>
             <g id="g3061">
                    <path id="path3063" fill="#FEFEFE" fill-rule="nonzero" d="M1580.33 609.24c0,-20.03 16.3,-36.3 36.4,-36.3 20.03,0 36.3,16.27 36.3,36.3 0,19.99 -16.27,36.37 -36.3,36.37 -20.1,0 -36.4,-16.37 -36.4,-36.37zm-4.2 0c0,22.41 18.15,40.6 40.6,40.6 22.31,0 40.56,-18.19 40.56,-40.6 0,-22.41 -18.25,-40.6 -40.56,-40.6 -22.45,0 -40.6,18.19 -40.6,40.6z"/>
                </g>
             <g id="g3065">
                    <path id="path3067" fill="#FEFEFE" fill-rule="nonzero" d="M1632.99 630l-8.43 -19.9c2.67,-0.93 3.57,-1.58 4.99,-3.1 1.85,-1.99 3.01,-5.12 3.01,-7.97 0,-7.18 -5.52,-12.06 -13.52,-12.06l-16.93 0 0 43.04 5.02 0 0 -18.64 12.23 0 8.04 18.64 5.59 0zm-25.99 -23.01l0 -15.35 11.94 0c4.99,0 8.16,2.84 8.16,7.24 0,5 -3.36,8.1 -8.86,8.1l-11.24 0z"/>
                </g>
            </g>
        </g>
    </g>
</svg>
