<svg width="26" height="26" viewBox="0 0 26 26" fill="none" xmlns="http://www.w3.org/2000/svg">
<path fill-rule="evenodd" clip-rule="evenodd" d="M8.73454 20.0586H17.2658C17.2535 20.2058 17.047 20.7469 16.9783 20.8883C16.9059 21.0374 16.8703 21.1374 16.8081 21.2767C15.9439 23.2137 14.1984 25.8131 11.7293 24.5287C11.5648 24.443 11.5193 24.3883 11.3648 24.2838C10.7401 23.8612 10.1813 23.0883 9.7979 22.4484C9.37841 21.7482 9.33291 21.5688 9.03832 20.9227C8.946 20.7203 8.7663 20.3063 8.73448 20.0586L8.73454 20.0586ZM26.0002 12.9069V13.3769C25.9849 14.3622 25.872 15.3316 25.64 16.1436L24.7988 18.5017C24.2292 19.6313 23.738 20.4692 22.9384 21.4147C22.8644 21.5022 22.8122 21.5372 22.738 21.6206L22.1789 22.2295C19.939 24.4697 16.8404 25.852 13.5584 26H12.3854C11.5064 25.9603 10.6202 25.8311 9.73926 25.6046C8.79963 25.363 7.96135 25.0348 7.14621 24.6429C6.03131 24.1069 4.07899 22.6875 3.35164 21.7344C3.2286 21.5731 3.11295 21.4902 2.98852 21.3358C2.74098 21.0286 2.55285 20.7646 2.31445 20.4356C1.80607 19.7338 1.53515 19.1737 1.16744 18.4342C0.851318 17.7983 0.504194 16.7908 0.343692 16.1095C0.0336246 14.7932 0 14.0223 0 12.6446C0 10.9354 0.613387 8.33232 1.48227 6.9159C1.59007 6.7401 1.67384 6.56313 1.77437 6.39548C1.88205 6.21583 1.97757 6.07278 2.08426 5.89285C2.45419 5.26917 2.88188 4.83473 3.28584 4.35223C5.24136 2.01666 8.79219 0 12.7969 0H13.4571C16.3891 0 19.4703 1.34615 21.6211 3.26187C23.6027 5.02699 24.9986 7.27856 25.6351 9.86113C25.8522 10.7421 25.9834 11.8204 26.0001 12.9071L26.0002 12.9069ZM16.0979 24.4766C16.6328 23.6778 16.6544 23.946 17.4852 22.4616C18.0709 21.4153 18.2333 20.5823 18.4846 20.0586H22.5471C22.2313 20.5303 21.7226 21.118 21.3167 21.5196C20.5896 22.2389 19.0498 23.3559 18.1083 23.7449L17.1429 24.1505C16.9221 24.2359 16.3082 24.4591 16.0979 24.4767L16.0979 24.4766ZM3.45327 20.0586H7.51579C7.64302 20.6048 8.26606 21.975 8.51371 22.463C8.60615 22.6452 8.69888 22.8046 8.80621 22.983C9.28294 23.7758 9.63786 24.0813 9.90255 24.4766C9.62274 24.4533 8.73518 24.122 8.41499 23.9836C7.1351 23.4307 6.88577 23.2122 5.80949 22.4758L4.70936 21.5447C4.35508 21.1886 3.6613 20.4517 3.45327 20.0586V20.0586ZM17.5197 18.9415H8.48067C8.3112 18.9415 8.32621 18.8059 8.23709 18.4741C7.88584 17.1667 7.61742 14.8968 7.61742 13.5587H18.3831C18.3831 14.6708 18.278 15.5248 18.1382 16.513C18.0705 16.991 17.9966 17.3445 17.9049 17.8032C17.8584 18.0358 17.827 18.2236 17.7683 18.4282C17.7446 18.5104 17.7274 18.5963 17.6973 18.7127C17.6609 18.853 17.6802 18.9415 17.5198 18.9415L17.5197 18.9415ZM23.2072 18.9415H18.8401L19.2826 16.5403C19.3428 16.089 19.3539 15.7087 19.4132 15.249C19.4914 14.6423 19.5002 14.1985 19.5002 13.5587H24.8831C24.8831 14.3747 24.6141 15.769 24.3562 16.5357C24.1358 17.1908 23.9002 17.8158 23.5973 18.4175C23.5339 18.5433 23.5031 18.5933 23.4345 18.7117C23.3597 18.8408 23.3573 18.9415 23.2072 18.9415V18.9415ZM1.11729 13.5586H6.50013C6.50013 15.2904 6.6643 16.1386 6.92085 17.7082C6.9817 18.0807 7.16029 18.7058 7.16029 18.9415H2.79311C2.47042 18.9415 1.76826 16.9036 1.6568 16.5738C1.50537 16.1259 1.39903 15.6522 1.29903 15.1543L1.11729 13.5586ZM7.6173 12.2383C7.6173 11.2974 7.7379 10.2945 7.85564 9.4805L8.22656 7.56623C8.27037 7.38827 8.28828 7.05854 8.48061 7.05854H17.5197C17.7056 7.05854 17.6786 7.2344 17.7634 7.57652C18.1026 8.94577 18.3829 11.0308 18.3829 12.4413H7.61725V12.2382L7.6173 12.2383ZM6.50013 12.0859V12.4414H1.11729C1.11729 12.0285 1.21776 11.2926 1.291 10.8885C1.52067 9.62146 1.84929 8.70149 2.40363 7.58321C2.4774 7.43441 2.6265 7.05854 2.79305 7.05854H7.16023L6.91939 8.23959C6.68041 9.46956 6.50007 10.8061 6.50007 12.0859L6.50013 12.0859ZM18.7892 7.0586H23.3088C23.4103 7.25046 23.5113 7.41306 23.6137 7.61696C24.2857 8.95537 24.883 10.9389 24.883 12.4414H19.5002C19.5002 11.8965 19.5034 11.3126 19.4286 10.7864C19.3639 10.3314 19.3399 9.92629 19.2756 9.46677L18.9416 7.66797C18.9046 7.52254 18.8409 7.16634 18.7892 7.0586ZM12.9494 1.11717C14.6853 1.11717 15.969 2.90282 16.607 4.315C16.7525 4.63705 17.24 5.63136 17.2658 5.94143H8.73454C8.79271 5.24241 9.79295 3.52994 10.2164 2.9037C10.7662 2.0906 11.8324 1.11717 12.9494 1.11717H12.9494ZM16.0978 1.5234C16.9895 1.59763 19.0326 2.70463 19.8052 3.2496C20.1921 3.52249 20.5716 3.79964 20.9084 4.12686C21.1301 4.34217 21.3048 4.44368 21.6209 4.78545C21.856 5.03967 22.4007 5.66481 22.547 5.94137H18.4845C18.4006 5.76638 18.3484 5.53904 18.2741 5.33921C17.8783 4.27445 17.4905 3.45798 16.8495 2.49822C16.7301 2.3194 16.628 2.15983 16.4886 1.99589C16.3598 1.84452 16.1994 1.67512 16.0978 1.52334V1.5234ZM7.51573 5.94137H3.45321C3.54995 5.57906 5.05201 4.10231 5.40361 3.82925C6.6184 2.88572 7.43749 2.3984 8.85746 1.84953C9.07829 1.76419 9.6922 1.54091 9.90244 1.5234C9.64089 1.91398 9.37591 2.1077 8.82564 2.98566L8.51365 3.53698C8.3176 3.92325 8.1468 4.2855 7.97298 4.67213L7.51568 5.94143L7.51573 5.94137Z" fill="#FE5840"/>
</svg>
