<svg width="107" height="48" viewBox="0 0 107 48" fill="none" xmlns="http://www.w3.org/2000/svg">
<path fill-rule="evenodd" clip-rule="evenodd" d="M54.5164 2.46138C52.3362 5.15051 46.1176 13.8323 45.409 14.9565C44.0446 17.1103 43.924 18.1541 43.8838 18.8495C43.8443 19.5321 43.8443 20.7628 44.9542 21.7664C46.8135 23.4252 49.4211 23.1572 51.7353 23.1572H70.7947C71.6105 23.1572 71.8516 22.9161 72.293 22.3278C73.8176 19.9998 74.5001 17.4714 74.5001 15.2104C74.5001 10.3674 71.3573 4.26753 63.3987 1.51142L62.5019 2.7957C68.8148 5.79174 71.4236 9.71156 71.4236 15.1964C71.4638 16.6682 71.0754 18.26 70.1122 19.7319H51.574C50.4641 19.7319 50.3033 18.4744 50.7046 17.7649C52.2939 14.9359 54.0676 12.2145 56.0142 9.61839C57.8869 7.11682 59.7323 4.7754 61.672 2.32741C62.1938 1.64539 61.8455 0.989545 60.8026 0.775803C58.6358 0.320916 56.3758 0 53.6336 0C38.4269 0 32.8622 8.73541 32.8622 15.2104C32.8622 22.234 38.4665 30.3812 53.6738 30.3812C62.1134 30.3812 67.6379 27.6647 70.8343 24.1735H67.6105C64.8148 26.7555 60.013 28.5891 53.6738 28.5891C40.7934 28.5891 36.0458 21.3511 36.0458 15.1166C36.1389 9.5514 41.2348 1.87253 53.9953 1.61859C54.4769 1.6052 54.8519 2.04669 54.5164 2.46138ZM100.26 42.5541C101.022 42.6613 101.611 43.263 101.611 43.973C101.611 44.7744 100.889 45.4168 100.005 45.4168H83.6617V34.7279H78.8459V45.4442H69.9917C67.5977 45.4442 67.1034 43.9858 67.1034 42.6479V34.6615H59.1186C58.3289 35.1968 57.5667 35.7856 56.7508 36.2801L52.016 39.1964L45.8638 34.7017H36.2869V37.3908H39.7505V35.9184L47.896 41.7656L42.3319 45.2561H36.2862V47.9452H43.2811C44.03 47.4373 44.7392 46.9021 45.5149 46.4338L50.3831 43.4773L56.5621 47.8922H63.5983L54.3015 40.8954L59.0772 37.7794C60.0939 37.1095 61.1642 36.5487 62.2072 35.9336V42.9701C62.2072 45.9399 62.9694 48 68.9481 48L102.721 47.9202C105.328 47.9592 107 46.1543 107 43.9742C107 41.8057 105.074 40.027 102.721 40.027H90.5226C90.6833 38.5424 91.9662 37.2989 93.2636 37.2989H105.609L105.57 34.7169H92.4751C88.3284 34.7169 85.0121 38.1551 84.9183 42.1553C84.9056 42.436 85.0919 42.6096 85.3999 42.6096L100.26 42.5541ZM36.2869 42.5146V39.7718H38.6674V42.5146H36.2869ZM36.2869 34.7017H27.2451C24.7976 34.7017 22.9115 35.3442 21.5209 36.4403C19.0198 38.4206 18.2174 40.5068 18.2442 41.444H21.5075C20.0762 42.5146 19.113 43.7976 18.6052 45.2835H7.90444C5.97871 45.2835 4.73426 43.9194 4.73426 42.5943V34.6079H0V42.9025C0 45.8851 2.83593 47.9452 7.38267 47.9452H36.2869V45.2561H24.811C24.8646 43.892 26.3221 42.5146 27.6463 42.5146H36.2869V39.7718H24.6771C24.517 38.9692 26.0147 37.3908 27.1648 37.3908H36.2869V34.7017Z" fill="white" fill-opacity="0.6"/>
</svg>
