<svg width="703" height="1410" viewBox="0 0 703 1410" fill="none" xmlns="http://www.w3.org/2000/svg">
<g opacity="0.5">
<path d="M357.37 193.189H404.474L449.837 193.187C475.07 193.185 497.444 186.429 519.067 164.591C523.5 160.114 526.449 156.984 530.142 151.605C541.373 135.248 546.242 115.952 545.355 94.9399L545.354 94.9183L545.354 94.8966L545.453 1.37427H506.318L506.318 75.7321L506.318 75.7343L506.359 94.0686C506.396 111.099 502.201 126.822 491.805 137.351L491.093 136.648L491.804 137.351C484.437 144.811 477.026 148.322 466.182 150.866C456.742 153.081 446.56 153.682 436.523 153.682H357.37V193.189Z" stroke="#FE5840" stroke-width="2"/>
<path d="M608.818 194.011C608.784 194.011 608.751 194.014 608.717 194.017C608.699 194.019 608.682 194.021 608.664 194.022C586.402 195.641 567.724 202.04 557.43 224.032M608.818 194.011L702 194.005V193.005M608.818 194.011L608.818 193.011C608.746 193.011 608.683 193.016 608.649 193.019L608.607 193.023C608.597 193.024 608.594 193.025 608.595 193.024L608.592 193.025C597.398 193.839 587.008 195.859 578.097 200.5C569.16 205.154 561.763 212.416 556.524 223.608M608.818 194.011V193.011L656.067 193.005H656.067H702M557.43 224.032C552.806 233.897 551.468 245.706 551.468 257.48V344.763H551.467H550.468M557.43 224.032L556.524 223.608M557.43 224.032L556.524 223.608C556.524 223.608 556.524 223.608 556.524 223.608M550.468 344.763V345.763H511.883M550.468 344.763H512.88M550.468 344.763V257.48C550.468 245.651 551.808 233.669 556.524 223.608M511.883 345.763L511.67 252.429M511.883 345.763V344.763H512.88M511.883 345.763L512.883 345.76L512.88 344.763M511.67 252.429C511.759 194.577 551.219 156.79 607.324 156.917H702V157.917M511.67 252.429L512.67 252.43M511.67 252.429L512.67 252.427V252.43M702 157.917H703V193.005H702M702 157.917V193.005M702 157.917L607.324 157.917L607.322 157.917C579.498 157.854 555.872 167.188 539.193 183.643C522.517 200.095 512.714 223.738 512.67 252.43M512.67 252.43L512.88 344.763" stroke="#989D9F" stroke-width="2"/>
<path d="M377.663 48.3031L451.419 124.431L477.958 97.849L403.98 22.9014L377.663 48.3031Z" stroke="#FE5840" stroke-width="2"/>
<path d="M377.659 296.039L404.448 323.219L479.192 247.808L452.63 221.685L377.659 296.039Z" stroke="#FE5840" stroke-width="2"/>
<path d="M580.166 251.402L651.422 323.355C651.715 323.135 652.096 322.828 652.566 322.429C653.435 321.69 654.529 320.704 655.778 319.54C658.274 317.215 661.365 314.206 664.474 311.105C670.14 305.454 675.801 299.561 678.04 296.952L605.782 225.423L580.166 251.402Z" stroke="#989D9F" stroke-width="2"/>
<path d="M580.174 94.5968L606.215 120.721L679.205 49.1466L652.218 22.8979L580.174 94.5968Z" stroke="#FE5840" stroke-width="2"/>
</g>
<path opacity="0.5" d="M545.354 606.174L545.453 700.302H506.318L506.318 625.461L506.318 625.459L506.359 607.007C506.396 589.87 502.202 574.049 491.807 563.455L491.093 564.155L491.807 563.454C484.439 555.947 477.028 552.413 466.184 549.852C456.743 547.623 446.56 547.019 436.523 547.019H357.37V507.245H404.474L449.837 507.248C475.068 507.249 497.441 514.048 519.065 536.026C523.498 540.532 526.447 543.682 530.141 549.096C541.372 565.559 546.242 584.981 545.355 606.131L545.354 606.153L545.354 606.174Z" stroke="#FE5840" stroke-width="2"/>
<path opacity="0.5" d="M608.818 507.422C608.784 507.422 608.751 507.418 608.717 507.415C608.699 507.413 608.682 507.412 608.664 507.41C586.402 505.781 567.724 499.34 557.43 477.203M608.818 507.422L702 507.427V508.427M608.818 507.422L608.818 508.422C608.745 508.422 608.683 508.416 608.648 508.413L608.606 508.409C608.596 508.408 608.594 508.408 608.594 508.408L608.591 508.408C597.397 507.588 587.007 505.554 578.095 500.882C569.157 496.197 561.761 488.888 556.523 477.624M608.818 507.422V508.422L656.067 508.427H656.067H702M557.43 477.203C552.806 467.273 551.468 455.386 551.468 443.535V355.671H551.467H550.468M557.43 477.203L556.523 477.624M557.43 477.203L556.523 477.625C556.523 477.625 556.523 477.624 556.523 477.624M550.468 355.671V354.671H511.883M550.468 355.671H512.88M550.468 355.671V443.535C550.468 455.44 551.808 467.499 556.523 477.624M511.883 354.671L511.67 448.619M511.883 354.671V355.671H512.88M511.883 354.671L512.883 354.674L512.88 355.671M511.67 448.619C511.759 506.852 551.219 544.888 607.324 544.759H702V543.759M511.67 448.619L512.67 448.618M511.67 448.619L512.67 448.622V448.618M702 543.759H703V508.427H702M702 543.759V508.427M702 543.759L607.324 543.759L607.322 543.759C579.5 543.823 555.874 534.428 539.196 517.865C522.518 501.303 512.714 477.502 512.67 448.618M512.67 448.618L512.88 355.671" stroke="#989D9F" stroke-width="2"/>
<path opacity="0.5" d="M377.663 653.373L451.419 577.246L477.958 603.828L403.98 678.775L377.663 653.373Z" stroke="#FE5840" stroke-width="2"/>
<path opacity="0.5" d="M377.659 404.395L404.448 377.215L479.192 452.626L452.63 478.749L377.659 404.395Z" stroke="#FE5840" stroke-width="2"/>
<path opacity="0.5" d="M580.166 449.032L651.422 377.079C651.715 377.299 652.096 377.606 652.566 378.005C653.435 378.744 654.529 379.731 655.778 380.894C658.274 383.219 661.365 386.228 664.474 389.329C670.14 394.981 675.801 400.873 678.04 403.482L605.782 475.012L580.166 449.032Z" stroke="#989D9F" stroke-width="2"/>
<path opacity="0.5" d="M580.166 606.177L606.215 579.721L679.214 652.189L652.218 678.77L580.166 606.177Z" stroke="#FE5840" stroke-width="2"/>
<path opacity="0.5" d="M156.404 606.174L156.305 700.302H195.44L195.44 625.461L195.44 625.459L195.399 607.007C195.362 589.87 199.556 574.049 209.951 563.455L210.665 564.155L209.951 563.454C217.318 555.947 224.73 552.413 235.574 549.852C245.015 547.623 255.198 547.019 265.235 547.019H344.388V507.245H297.284L251.921 507.248C226.69 507.249 204.317 514.048 182.693 536.026C178.26 540.532 175.311 543.682 171.617 549.096C160.385 565.559 155.516 584.981 156.403 606.131L156.404 606.153L156.404 606.174Z" stroke="#FE5840" stroke-width="2"/>
<path opacity="0.5" d="M94.1816 507.422C94.2155 507.422 94.2494 507.418 94.2829 507.415C94.3006 507.413 94.3181 507.412 94.3355 507.41C116.598 505.781 135.276 499.34 145.57 477.203M94.1816 507.422L1 507.427V508.427M94.1816 507.422L94.1817 508.422C94.2548 508.422 94.3174 508.416 94.3519 508.413L94.3937 508.409C94.4035 508.408 94.4062 508.408 94.4059 508.408L94.4085 508.408C105.603 507.588 115.993 505.554 124.905 500.882C133.843 496.197 141.239 488.888 146.477 477.624M94.1816 507.422V508.422L46.9335 508.427H46.9333H1M145.57 477.203C150.194 467.273 151.532 455.386 151.532 443.535V355.671H151.533H152.532M145.57 477.203L146.477 477.624M145.57 477.203L146.477 477.625C146.477 477.625 146.477 477.624 146.477 477.624M152.532 355.671V354.671H191.117M152.532 355.671H190.12M152.532 355.671V443.535C152.532 455.44 151.192 467.499 146.477 477.624M191.117 354.671L191.33 448.619M191.117 354.671V355.671H190.12M191.117 354.671L190.117 354.674L190.12 355.671M191.33 448.619C191.241 506.852 151.781 544.888 95.6761 544.759H1V543.759M191.33 448.619L190.33 448.618M191.33 448.619L190.33 448.622V448.618M1 543.759H0V508.427H1M1 543.759V508.427M1 543.759L95.6761 543.759L95.6784 543.759C123.5 543.823 147.126 534.428 163.804 517.865C180.482 501.303 190.286 477.502 190.33 448.618M190.33 448.618L190.12 355.671" stroke="#989D9F" stroke-width="2"/>
<path opacity="0.5" d="M325.329 653.373L250.676 577.237L223.808 603.828L298.686 678.783L325.329 653.373Z" stroke="#FE5840" stroke-width="2"/>
<path opacity="0.5" d="M325.341 404.395L298.552 377.215L223.808 452.626L250.37 478.749L325.341 404.395Z" stroke="#FE5840" stroke-width="2"/>
<path opacity="0.5" d="M122.826 449.032L50.683 377.072C50.3841 377.294 49.9934 377.604 49.5108 378.009C48.6306 378.748 47.5234 379.735 46.259 380.898C43.7316 383.224 40.6026 386.232 37.4554 389.333C31.7226 394.981 25.9948 400.87 23.7255 403.482L96.8846 475.02L122.826 449.032Z" stroke="#989D9F" stroke-width="2"/>
<path opacity="0.5" d="M122.834 606.177L96.7845 579.721L23.7856 652.189L50.7817 678.77L122.834 606.177Z" stroke="#FE5840" stroke-width="2"/>
<path opacity="0.3" d="M156.404 804.097L156.305 709.969H195.44L195.44 784.81L195.44 784.812L195.399 803.264C195.362 820.401 199.556 836.222 209.951 846.817L210.665 846.116L209.951 846.817C217.318 854.324 224.73 857.858 235.574 860.419C245.015 862.649 255.198 863.252 265.235 863.252H344.388V903.026H297.284L251.921 903.023C226.69 903.022 204.317 896.223 182.693 874.245C178.26 869.74 175.311 866.589 171.617 861.175C160.385 844.712 155.516 825.29 156.403 804.14L156.404 804.119L156.404 804.097Z" stroke="#FE5840" stroke-width="2"/>
<path opacity="0.3" d="M94.1816 902.849C94.2155 902.849 94.2494 902.853 94.2829 902.856C94.3006 902.858 94.3181 902.86 94.3355 902.861C116.598 904.49 135.276 910.932 145.57 933.068M94.1816 902.849L1 902.844V901.844M94.1816 902.849L94.1817 901.849C94.2548 901.849 94.3174 901.855 94.3519 901.858L94.3937 901.862C94.4035 901.863 94.4062 901.863 94.4059 901.863L94.4085 901.863C105.603 902.683 115.993 904.717 124.905 909.389C133.843 914.074 141.239 921.383 146.477 932.647M94.1816 902.849V901.849L46.9335 901.844H46.9333H1M145.57 933.068C150.194 942.998 151.532 954.885 151.532 966.736V1054.6H151.533H152.532M145.57 933.068L146.477 932.647M145.57 933.068L146.477 932.646C146.477 932.646 146.477 932.647 146.477 932.647M152.532 1054.6V1055.6H191.117M152.532 1054.6H190.12M152.532 1054.6V966.736C152.532 954.831 151.192 942.772 146.477 932.647M191.117 1055.6L191.33 961.652M191.117 1055.6V1054.6H190.12M191.117 1055.6L190.117 1055.6L190.12 1054.6M191.33 961.652C191.241 903.419 151.781 865.384 95.6761 865.512H1V866.512M191.33 961.652L190.33 961.653M191.33 961.652L190.33 961.65V961.653M1 866.512H0V901.844H1M1 866.512V901.844M1 866.512L95.6761 866.512L95.6784 866.512C123.5 866.448 147.126 875.843 163.804 892.406C180.482 908.968 190.286 932.769 190.33 961.653M190.33 961.653L190.12 1054.6" stroke="#989D9F" stroke-width="2"/>
<path opacity="0.3" d="M325.33 756.898L250.677 833.034L223.809 806.444L298.687 731.488L325.33 756.898Z" stroke="#FE5840" stroke-width="2"/>
<path opacity="0.3" d="M325.342 1005.88L298.553 1033.06L223.809 957.645L250.371 931.522L325.342 1005.88Z" stroke="#FE5840" stroke-width="2"/>
<path opacity="0.3" d="M122.826 961.239L50.683 1033.2C50.3841 1032.98 49.9934 1032.67 49.5108 1032.26C48.6306 1031.52 47.5234 1030.54 46.259 1029.37C43.7316 1027.05 40.6026 1024.04 37.4554 1020.94C31.7226 1015.29 25.9948 1009.4 23.7255 1006.79L96.8846 935.251L122.826 961.239Z" stroke="#989D9F" stroke-width="2"/>
<path opacity="0.3" d="M122.834 804.094L96.7845 830.55L23.7856 758.083L50.7817 731.501L122.834 804.094Z" stroke="#FE5840" stroke-width="2"/>
<path opacity="0.3" d="M545.354 804.097L545.453 709.969H506.318L506.318 784.81L506.318 784.812L506.359 803.264C506.396 820.401 502.202 836.222 491.807 846.817L491.093 846.116L491.807 846.817C484.439 854.324 477.028 857.858 466.184 860.419C456.743 862.649 446.56 863.252 436.523 863.252H357.37V903.026H404.474L449.837 903.023C475.068 903.022 497.441 896.223 519.065 874.245C523.498 869.74 526.447 866.589 530.141 861.175C541.372 844.712 546.242 825.29 545.355 804.14L545.354 804.119L545.354 804.097Z" stroke="#FE5840" stroke-width="2"/>
<path opacity="0.3" d="M607.576 902.849C607.542 902.849 607.508 902.853 607.475 902.856C607.457 902.858 607.44 902.86 607.422 902.861C585.16 904.49 566.482 910.932 556.188 933.068M607.576 902.849L700.758 902.844V901.844M607.576 902.849L607.576 901.849C607.503 901.849 607.44 901.855 607.406 901.858L607.364 901.862C607.354 901.863 607.352 901.863 607.352 901.863L607.349 901.863C596.154 902.683 585.764 904.717 576.853 909.389C567.915 914.074 560.519 921.383 555.281 932.647M607.576 902.849V901.849L654.824 901.844H654.824H700.758M556.188 933.068C551.564 942.998 550.226 954.885 550.226 966.736V1054.6H550.225H549.226M556.188 933.068L555.281 932.647M556.188 933.068L555.281 932.646C555.281 932.646 555.281 932.647 555.281 932.647M549.226 1054.6V1055.6H510.64M549.226 1054.6H511.638M549.226 1054.6V966.736C549.226 954.831 550.566 942.772 555.281 932.647M510.64 1055.6L510.428 961.652M510.64 1055.6V1054.6H511.638M510.64 1055.6L511.64 1055.6L511.638 1054.6M510.428 961.652C510.517 903.419 549.977 865.384 606.082 865.512H700.758V866.512M510.428 961.652L511.428 961.653M510.428 961.652L511.428 961.65V961.653M700.758 866.512H701.758V901.844H700.758M700.758 866.512V901.844M700.758 866.512L606.082 866.512L606.079 866.512C578.258 866.448 554.632 875.843 537.953 892.406C521.276 908.968 511.472 932.769 511.428 961.653M511.428 961.653L511.638 1054.6" stroke="#989D9F" stroke-width="2"/>
<path opacity="0.3" d="M376.428 756.898L451.081 833.034L477.949 806.444L403.071 731.488L376.428 756.898Z" stroke="#FE5840" stroke-width="2"/>
<path opacity="0.3" d="M376.416 1005.88L403.204 1033.06L477.949 957.645L451.387 931.522L376.416 1005.88Z" stroke="#FE5840" stroke-width="2"/>
<path opacity="0.3" d="M578.932 961.239L651.075 1033.2C651.374 1032.98 651.764 1032.67 652.247 1032.26C653.127 1031.52 654.234 1030.54 655.499 1029.37C658.026 1027.05 661.155 1024.04 664.302 1020.94C670.035 1015.29 675.763 1009.4 678.032 1006.79L604.873 935.251L578.932 961.239Z" stroke="#989D9F" stroke-width="2"/>
<path opacity="0.3" d="M578.924 804.094L604.973 830.55L677.972 758.083L650.976 731.501L578.924 804.094Z" stroke="#FE5840" stroke-width="2"/>
<path opacity="0.3" d="M545.354 1314.5L545.453 1408.63H506.318L506.318 1333.79L506.318 1333.79L506.359 1315.34C506.396 1298.2 502.202 1282.38 491.807 1271.78L491.093 1272.48L491.807 1271.78C484.439 1264.28 477.028 1260.74 466.184 1258.18C456.743 1255.95 446.56 1255.35 436.523 1255.35H357.37V1215.57H404.474L449.837 1215.58C475.068 1215.58 497.441 1222.38 519.065 1244.35C523.498 1248.86 526.447 1252.01 530.141 1257.42C541.372 1273.89 546.242 1293.31 545.355 1314.46L545.354 1314.48L545.354 1314.5Z" stroke="#FE5840" stroke-opacity="0.2" stroke-width="2"/>
<path opacity="0.3" d="M607.576 1215.75C607.542 1215.75 607.508 1215.75 607.475 1215.74C607.457 1215.74 607.44 1215.74 607.422 1215.74C585.16 1214.11 566.482 1207.67 556.188 1185.53M607.576 1215.75L700.758 1215.76V1216.76M607.576 1215.75L607.576 1216.75C607.503 1216.75 607.44 1216.74 607.406 1216.74L607.364 1216.74C607.354 1216.74 607.352 1216.74 607.352 1216.74L607.349 1216.74C596.154 1215.92 585.764 1213.88 576.853 1209.21C567.915 1204.53 560.519 1197.22 555.281 1185.95M607.576 1215.75V1216.75L654.824 1216.76H654.824H700.758M556.188 1185.53C551.564 1175.6 550.226 1163.71 550.226 1151.86V1064H550.225H549.226M556.188 1185.53L555.281 1185.95M556.188 1185.53L555.281 1185.95C555.281 1185.95 555.281 1185.95 555.281 1185.95M549.226 1064V1063H510.64M549.226 1064H511.638M549.226 1064V1151.86C549.226 1163.77 550.566 1175.83 555.281 1185.95M510.64 1063L510.428 1156.95M510.64 1063V1064H511.638M510.64 1063L511.64 1063L511.638 1064M510.428 1156.95C510.517 1215.18 549.977 1253.22 606.082 1253.09H700.758V1252.09M510.428 1156.95L511.428 1156.95M510.428 1156.95L511.428 1156.95V1156.95M700.758 1252.09H701.758V1216.76H700.758M700.758 1252.09V1216.76M700.758 1252.09L606.082 1252.09L606.079 1252.09C578.258 1252.15 554.632 1242.76 537.953 1226.19C521.276 1209.63 511.472 1185.83 511.428 1156.95M511.428 1156.95L511.638 1064" stroke="#989D9F" stroke-opacity="0.5" stroke-width="2"/>
<path opacity="0.3" d="M376.428 1361.7L451.081 1285.57L477.949 1312.16L403.071 1387.11L376.428 1361.7Z" stroke="#FE5840" stroke-opacity="0.2" stroke-width="2"/>
<path opacity="0.3" d="M376.416 1112.72L403.204 1085.54L477.949 1160.95L451.387 1187.08L376.416 1112.72Z" stroke="#FE5840" stroke-opacity="0.2" stroke-width="2"/>
<path opacity="0.3" d="M578.932 1157.36L651.075 1085.4C651.374 1085.62 651.764 1085.93 652.247 1086.34C653.127 1087.08 654.234 1088.06 655.499 1089.23C658.026 1091.55 661.155 1094.56 664.302 1097.66C670.035 1103.31 675.763 1109.2 678.032 1111.81L604.873 1183.35L578.932 1157.36Z" stroke="#989D9F" stroke-opacity="0.5" stroke-width="2"/>
<path opacity="0.3" d="M578.924 1314.51L604.973 1288.05L677.972 1360.52L650.976 1387.1L578.924 1314.51Z" stroke="#FE5840" stroke-opacity="0.2" stroke-width="2"/>
<path opacity="0.3" d="M156.404 1314.5L156.305 1408.63H195.44L195.44 1333.79L195.44 1333.79L195.399 1315.34C195.362 1298.2 199.556 1282.38 209.951 1271.78L210.665 1272.48L209.951 1271.78C217.318 1264.28 224.73 1260.74 235.574 1258.18C245.015 1255.95 255.198 1255.35 265.235 1255.35H344.388V1215.57H297.284L251.921 1215.58C226.69 1215.58 204.317 1222.38 182.693 1244.35C178.26 1248.86 175.311 1252.01 171.617 1257.42C160.385 1273.89 155.516 1293.31 156.403 1314.46L156.404 1314.48L156.404 1314.5Z" stroke="#FE5840" stroke-opacity="0.2" stroke-width="2"/>
<path opacity="0.3" d="M94.1816 1215.75C94.2155 1215.75 94.2494 1215.75 94.2829 1215.74C94.3006 1215.74 94.3181 1215.74 94.3355 1215.74C116.598 1214.11 135.276 1207.67 145.57 1185.53M94.1816 1215.75L1 1215.76V1216.76M94.1816 1215.75L94.1817 1216.75C94.2548 1216.75 94.3174 1216.74 94.3519 1216.74L94.3937 1216.74C94.4035 1216.74 94.4062 1216.74 94.4059 1216.74L94.4085 1216.74C105.603 1215.92 115.993 1213.88 124.905 1209.21C133.843 1204.53 141.239 1197.22 146.477 1185.95M94.1816 1215.75V1216.75L46.9335 1216.76H46.9333H1M145.57 1185.53C150.194 1175.6 151.532 1163.71 151.532 1151.86V1064H151.533H152.532M145.57 1185.53L146.477 1185.95M145.57 1185.53L146.477 1185.95C146.477 1185.95 146.477 1185.95 146.477 1185.95M152.532 1064V1063H191.117M152.532 1064H190.12M152.532 1064V1151.86C152.532 1163.77 151.192 1175.83 146.477 1185.95M191.117 1063L191.33 1156.95M191.117 1063V1064H190.12M191.117 1063L190.117 1063L190.12 1064M191.33 1156.95C191.241 1215.18 151.781 1253.22 95.6761 1253.09H1V1252.09M191.33 1156.95L190.33 1156.95M191.33 1156.95L190.33 1156.95V1156.95M1 1252.09H0V1216.76H1M1 1252.09V1216.76M1 1252.09L95.6761 1252.09L95.6784 1252.09C123.5 1252.15 147.126 1242.76 163.804 1226.19C180.482 1209.63 190.286 1185.83 190.33 1156.95M190.33 1156.95L190.12 1064" stroke="#989D9F" stroke-opacity="0.5" stroke-width="2"/>
<path opacity="0.3" d="M325.33 1361.7L250.677 1285.57L223.809 1312.16L298.687 1387.11L325.33 1361.7Z" stroke="#FE5840" stroke-opacity="0.2" stroke-width="2"/>
<path opacity="0.3" d="M325.342 1112.72L298.553 1085.54L223.809 1160.95L250.371 1187.08L325.342 1112.72Z" stroke="#FE5840" stroke-opacity="0.2" stroke-width="2"/>
<path opacity="0.3" d="M122.826 1157.36L50.683 1085.4C50.3841 1085.62 49.9934 1085.93 49.5108 1086.34C48.6306 1087.08 47.5234 1088.06 46.259 1089.23C43.7316 1091.55 40.6026 1094.56 37.4554 1097.66C31.7226 1103.31 25.9948 1109.2 23.7255 1111.81L96.8846 1183.35L122.826 1157.36Z" stroke="#989D9F" stroke-opacity="0.5" stroke-width="2"/>
<path opacity="0.3" d="M122.834 1314.51L96.7845 1288.05L23.7856 1360.52L50.7817 1387.1L122.834 1314.51Z" stroke="#FE5840" stroke-opacity="0.2" stroke-width="2"/>
<path fill-rule="evenodd" clip-rule="evenodd" d="M345.388 194.189V152.682H265.759C255.819 152.682 245.791 152.082 236.52 149.892C225.879 147.38 218.701 143.942 211.545 136.648C201.474 126.382 197.336 110.965 197.373 94.0708L197.413 75.7343V0.374268H156.546L156.645 94.8977C155.757 116.095 160.637 135.612 171.932 152.171C175.651 157.623 178.629 160.803 183.048 165.294C204.743 187.349 227.238 194.185 252.531 194.187L297.598 194.189H345.388H345.388Z" fill="#FE5840"/>
<path fill-rule="evenodd" clip-rule="evenodd" d="M151.791 344.52H191.119L191.33 251.801C191.241 194.329 152.038 156.791 96.2971 156.918H1.24219V193.761H47.8708L94.8122 193.767C94.8637 193.767 94.9151 193.775 94.9651 193.778C117.083 195.386 135.64 201.743 145.867 223.591C150.461 233.391 151.79 245.122 151.79 256.818V344.52H151.791Z" fill="#979C9D"/>
<path fill-rule="evenodd" clip-rule="evenodd" d="M223.633 97.8531L251.592 125.857L326.752 48.2795L299.003 21.4952L223.633 97.8531Z" fill="#FE5840"/>
<path fill-rule="evenodd" clip-rule="evenodd" d="M222.391 247.799L298.554 324.642L326.753 296.031L250.373 220.28L222.391 247.799Z" fill="#FE5840"/>
<path fill-rule="evenodd" clip-rule="evenodd" d="M23.6055 295.644C27.0222 299.959 48.7261 321.883 51.7113 323.399L124.24 250.161L97.2264 222.765L23.6055 295.644Z" fill="#979C9D"/>
<path fill-rule="evenodd" clip-rule="evenodd" d="M23.6055 49.1438L97.1271 122.13L124.24 94.594L51.6853 21.4952L23.6055 49.1438Z" fill="#FE5840"/>
</svg>
