<svg width="299" height="74" viewBox="0 0 299 74" fill="none" xmlns="http://www.w3.org/2000/svg">
<path fill-rule="evenodd" clip-rule="evenodd" d="M73.9709 41.4587V32.5798H56.8588C54.7228 32.5798 52.5677 32.4516 50.5755 31.9832C48.2888 31.4457 46.7463 30.7102 45.2084 29.1501C43.0441 26.954 42.1549 23.6563 42.1628 20.0425L42.1714 16.1201V0H33.3892L33.4106 20.2193C33.2195 24.7537 34.2683 28.9284 36.6956 32.4706C37.4948 33.6368 38.1348 34.317 39.0844 35.2778C43.7466 39.9954 48.5809 41.4578 54.0163 41.4581L63.701 41.4587H73.9711H73.9709Z" fill="#FE5840"/>
<path fill-rule="evenodd" clip-rule="evenodd" d="M32.3107 74H40.7513L40.7966 53.9864C40.7776 41.5812 32.3637 33.4785 20.4007 33.5059H0V41.4586H10.0074L20.082 41.4598C20.093 41.4598 20.1041 41.4615 20.1148 41.4622C24.8618 41.8093 28.8444 43.1816 31.0394 47.8973C32.0253 50.0126 32.3106 52.5449 32.3106 55.0695V74H32.3107Z" fill="#989D9F"/>
<path fill-rule="evenodd" clip-rule="evenodd" d="M47.6511 20.7323L53.6744 26.7175L69.8667 10.137L63.8886 4.41241L47.6511 20.7323Z" fill="#FE5840"/>
<path fill-rule="evenodd" clip-rule="evenodd" d="M47.5414 53.0526L63.8158 69.484L69.8411 63.3662L53.5206 47.1681L47.5414 53.0526Z" fill="#FE5840"/>
<path fill-rule="evenodd" clip-rule="evenodd" d="M4.77313 63.4201C5.50712 64.3467 10.1695 69.0543 10.8108 69.38L26.3915 53.654L20.5884 47.7713L4.77313 63.4201Z" fill="#989D9F"/>
<path fill-rule="evenodd" clip-rule="evenodd" d="M4.74243 10.336L20.5581 26.0191L26.3906 20.1022L10.7828 4.39488L4.74243 10.336Z" fill="#FE5840"/>
<path d="M247.122 73.984C246.21 74.0539 245.348 73.8946 244.529 73.5062C243.717 73.1179 243.049 72.5585 242.525 71.8206C242.463 71.7392 242.479 71.669 242.572 71.6186L243.911 70.7174C243.989 70.667 244.059 70.6746 244.117 70.7524C244.49 71.2691 244.971 71.6418 245.561 71.8672C246.159 72.0961 246.78 72.1388 247.417 72.0031C248.1 71.8594 248.671 71.5176 249.133 70.9816C249.603 70.4495 249.871 69.8358 249.929 69.1366C250.007 68.1889 249.719 67.3695 249.075 66.6781C248.438 65.9868 247.654 65.645 246.722 65.645H243.403C243.302 65.645 243.251 65.5945 243.251 65.4935V57.8152C243.251 57.7179 243.302 57.6675 243.403 57.6675H250.542C250.643 57.6675 250.69 57.7179 250.69 57.8152V59.4307C250.69 59.5278 250.643 59.5783 250.542 59.5783H245.165V63.7302H246.722C248.162 63.7302 249.389 64.2507 250.395 65.2914C251.404 66.3286 251.89 67.5752 251.851 69.0239C251.808 70.321 251.33 71.4473 250.418 72.403C249.51 73.3584 248.411 73.8867 247.122 73.9837V73.984ZM233.336 72.0264L238.546 64.2546L238.554 64.2315C238.965 63.5518 239.171 62.806 239.171 62.0021C239.171 60.8095 238.748 59.7921 237.909 58.9413C237.059 58.0908 236.034 57.6675 234.835 57.6675C233.91 57.6675 233.068 57.9394 232.311 58.487C231.554 59.0308 231.026 59.7415 230.731 60.6154C230.7 60.7125 230.735 60.7785 230.832 60.8057L232.435 61.2874C232.529 61.3067 232.587 61.2795 232.618 61.194C232.785 60.7319 233.072 60.3552 233.484 60.0677C233.891 59.7803 234.346 59.6366 234.835 59.6366C235.487 59.6366 236.046 59.8658 236.508 60.3279C236.97 60.7939 237.203 61.3492 237.203 62.002C237.203 62.4329 237.094 62.8331 236.885 63.1981L229.799 73.7663C229.768 73.813 229.768 73.8634 229.799 73.914C229.819 73.9684 229.861 73.9955 229.924 73.9955H239.567C239.66 73.9955 239.703 73.9451 239.703 73.8478V72.1739C239.703 72.0768 239.66 72.0262 239.567 72.0262H233.336L233.336 72.0264ZM219.507 73.9957C218.405 73.9957 217.348 73.782 216.331 73.3587C215.361 72.9391 214.495 72.3565 213.738 71.607C212.989 70.8457 212.402 69.9834 211.987 69.0125C211.564 67.995 211.35 66.9385 211.35 65.8355C211.35 64.7285 211.564 63.6721 211.987 62.6623C212.402 61.6836 212.989 60.8175 213.738 60.0678C214.495 59.3107 215.361 58.7241 216.331 58.3161C217.348 57.8852 218.404 57.6676 219.507 57.6676C220.613 57.6676 221.669 57.8852 222.679 58.3161C223.657 58.7241 224.523 59.3105 225.272 60.0678C226.029 60.8175 226.616 61.6836 227.023 62.6623C227.454 63.6721 227.672 64.7285 227.672 65.8355C227.672 66.9385 227.454 67.995 227.023 69.0125C226.616 69.9836 226.029 70.8457 225.272 71.607C224.523 72.3565 223.657 72.9391 222.679 73.3587C221.669 73.782 220.614 73.9957 219.507 73.9957ZM219.507 59.6018C217.791 59.6018 216.324 60.2116 215.105 61.4349C214.526 62.0021 214.084 62.6623 213.773 63.4119C213.447 64.181 213.284 64.9888 213.284 65.8355C213.284 67.5522 213.889 69.0202 215.105 70.2399C215.679 70.8187 216.339 71.2612 217.085 71.572C217.857 71.8982 218.665 72.0615 219.507 72.0615C221.227 72.0615 222.694 71.4555 223.906 70.2399C224.484 69.6649 224.931 69.0048 225.249 68.259C225.575 67.4861 225.738 66.6783 225.738 65.8355C225.738 64.115 225.129 62.6469 223.906 61.4349C223.339 60.8563 222.679 60.4095 221.93 60.0911C221.161 59.7649 220.353 59.6016 219.507 59.6016L219.507 59.6018ZM201.99 72.0264L207.2 64.2546L207.208 64.2315C207.62 63.5518 207.825 62.806 207.825 62.0021C207.825 60.8095 207.402 59.7921 206.564 58.9413C205.713 58.0908 204.688 57.6675 203.489 57.6675C202.565 57.6675 201.722 57.9394 200.965 58.487C200.208 59.0308 199.68 59.7415 199.385 60.6154C199.354 60.7125 199.389 60.7785 199.486 60.8057L201.09 61.2874C201.183 61.3067 201.241 61.2795 201.272 61.194C201.439 60.7319 201.726 60.3552 202.138 60.0677C202.546 59.7803 203 59.6366 203.489 59.6366C204.141 59.6366 204.7 59.8658 205.162 60.3279C205.624 60.7939 205.857 61.3492 205.857 62.002C205.857 62.4329 205.749 62.8331 205.539 63.1981L198.454 73.7663C198.423 73.813 198.423 73.8634 198.454 73.914C198.473 73.9684 198.516 73.9955 198.578 73.9955H208.222C208.315 73.9955 208.357 73.9451 208.357 73.8478V72.1739C208.357 72.0768 208.315 72.0262 208.222 72.0262H201.99L201.99 72.0264ZM183.11 57.6676C183.048 57.6676 183.002 57.6988 182.975 57.7571L176.32 73.7897C176.297 73.8363 176.301 73.8829 176.332 73.9258C176.359 73.9724 176.402 73.9957 176.456 73.9957H178.277C178.343 73.9957 178.389 73.9645 178.413 73.9062L181.018 67.6221H186.783L189.388 73.9062C189.412 73.9645 189.454 73.9957 189.524 73.9957H191.345C191.395 73.9957 191.438 73.9724 191.469 73.9258C191.5 73.8829 191.504 73.8363 191.481 73.7897L184.826 57.7571C184.803 57.6988 184.76 57.6676 184.69 57.6676H183.11ZM181.845 65.6452L183.906 60.693L185.952 65.6452H181.845ZM172.1 57.7026C172.003 57.7026 171.953 57.749 171.953 57.8501V73.848C171.953 73.9451 172.003 73.9957 172.1 73.9957H173.886C173.983 73.9957 174.034 73.9453 174.034 73.848V57.8501C174.034 57.749 173.983 57.7026 173.886 57.7026H172.1ZM166.075 57.6908C165.974 57.6908 165.927 57.7374 165.927 57.8385V69.4203L157.192 57.7571C157.161 57.7142 157.122 57.6909 157.076 57.6909H156.326C156.229 57.6909 156.179 57.7375 156.179 57.8386V73.8481C156.179 73.9453 156.229 73.9958 156.326 73.9958H158.007C158.108 73.9958 158.159 73.9454 158.159 73.8481V62.3439L166.836 73.9376C166.867 73.9763 166.902 73.9958 166.948 73.9958H167.756C167.857 73.9958 167.904 73.9454 167.904 73.8481V57.8386C167.904 57.7375 167.857 57.6909 167.756 57.6909H166.075V57.6908ZM142.711 57.7026C142.614 57.7026 142.564 57.749 142.564 57.8501V73.848C142.564 73.9451 142.614 73.9957 142.711 73.9957H153.287C153.387 73.9957 153.438 73.9453 153.438 73.848V72.073C153.438 71.9721 153.387 71.9253 153.287 71.9253H144.633V66.8842H150.899C151 66.8842 151.047 66.8337 151.047 66.7365V64.9616C151.047 64.8606 151 64.8139 150.899 64.8139H144.633V59.7725H153.287C153.387 59.7725 153.438 59.7221 153.438 59.6248V57.85C153.438 57.7489 153.387 57.7024 153.287 57.7024H142.711V57.7026ZM137.691 57.7026C137.579 57.7026 137.482 57.7454 137.396 57.8385L131.837 64.049L126.285 57.8385C126.199 57.7454 126.103 57.7026 125.99 57.7026H125.33C125.233 57.7026 125.182 57.749 125.182 57.8501V73.848C125.182 73.9451 125.233 73.9957 125.33 73.9957H127.011C127.112 73.9957 127.162 73.9453 127.162 73.848V61.7846L131.732 66.8959C131.802 66.9697 131.872 66.9697 131.949 66.8959L136.534 61.7729V73.848C136.534 73.9451 136.581 73.9957 136.682 73.9957H138.363C138.464 73.9957 138.51 73.9453 138.51 73.848V57.8501C138.51 57.749 138.464 57.7026 138.363 57.7026H137.691ZM118.439 66.7948C119.452 66.5501 120.298 66.0334 120.974 65.2451C121.657 64.4333 122.018 63.5011 122.053 62.4447C122.092 61.1398 121.657 60.0212 120.745 59.089C119.836 58.157 118.73 57.6908 117.425 57.6908H111.443C111.346 57.6908 111.295 57.7374 111.295 57.8385V73.8132C111.295 73.9103 111.346 73.9606 111.443 73.9606H113.217C113.314 73.9606 113.364 73.9102 113.364 73.8132V66.9308H116.175L116.164 66.9425L119.984 73.9141C120.007 73.9686 120.05 73.9957 120.108 73.9957H122.135C122.193 73.9957 122.236 73.9724 122.259 73.9258C122.29 73.8752 122.294 73.8247 122.271 73.7781L118.439 66.7948ZM113.364 64.8567V59.761H117.425C118.132 59.761 118.734 60.0056 119.235 60.4989C119.735 61 119.984 61.6059 119.984 62.3088C119.984 63.008 119.735 63.6061 119.235 64.1073C118.734 64.6081 118.132 64.8569 117.425 64.8569H113.364V64.8567ZM100.627 57.6676C100.565 57.6676 100.518 57.6988 100.491 57.7571L93.8364 73.7897C93.813 73.8363 93.8169 73.8829 93.8481 73.9258C93.8751 73.9724 93.9179 73.9957 93.9722 73.9957H95.7931C95.8592 73.9957 95.9056 73.9645 95.929 73.9062L98.5341 67.6221H104.299L106.904 73.9062C106.928 73.9645 106.97 73.9957 107.04 73.9957H108.861C108.911 73.9957 108.954 73.9724 108.985 73.9258C109.016 73.8829 109.02 73.8363 108.997 73.7897L102.343 57.7571C102.319 57.6988 102.277 57.6676 102.207 57.6676H100.627ZM99.3609 65.6452L101.423 60.693L103.468 65.6452H99.3609Z" fill="#FE5840"/>
<path d="M266.509 40.0732C267.724 39.7798 268.74 39.1602 269.55 38.2145C270.369 37.2408 270.802 36.1228 270.844 34.8558C270.891 33.2905 270.369 31.9487 269.275 30.8307C268.185 29.7125 266.858 29.1538 265.294 29.1538H258.118C258.001 29.1538 257.941 29.2096 257.941 29.3306V48.4913C257.941 48.6078 258.001 48.6683 258.118 48.6683H260.246C260.362 48.6683 260.423 48.6078 260.423 48.4913V40.2363H263.794L263.78 40.2503L268.362 48.6125C268.39 48.6777 268.441 48.7102 268.511 48.7102H270.942C271.012 48.7102 271.063 48.6824 271.091 48.6263C271.128 48.5657 271.133 48.5051 271.105 48.4494L266.509 40.073L266.509 40.0732ZM260.423 37.7486V31.6364H265.294C266.141 31.6364 266.863 31.9298 267.463 32.5216C268.064 33.1226 268.362 33.8493 268.362 34.6925C268.362 35.5311 268.064 36.2486 267.463 36.8494C266.863 37.4504 266.141 37.7486 265.294 37.7486H260.423ZM250.765 29.1675C250.648 29.1675 250.588 29.2234 250.588 29.3446V48.5332C250.588 48.6496 250.648 48.7102 250.765 48.7102H252.907C253.023 48.7102 253.084 48.6496 253.084 48.5332V29.3446C253.084 29.2234 253.023 29.1675 252.907 29.1675H250.765ZM237.791 29.1255C237.717 29.1255 237.661 29.1628 237.628 29.2326L229.647 48.4633C229.619 48.5193 229.624 48.5751 229.661 48.6263C229.694 48.6822 229.745 48.7102 229.81 48.7102H231.994C232.073 48.7102 232.129 48.673 232.157 48.6031L235.282 41.0654H242.197L245.321 48.6031C245.349 48.673 245.4 48.7102 245.484 48.7102H247.668C247.729 48.7102 247.78 48.6824 247.817 48.6263C247.855 48.5751 247.859 48.5193 247.831 48.4633L239.85 29.2326C239.822 29.1628 239.771 29.1255 239.687 29.1255H237.792H237.791ZM236.273 38.6941L238.746 32.7544L241.2 38.6941H236.273ZM229.13 31.6364C229.246 31.6364 229.307 31.5759 229.307 31.4594V29.3166C229.307 29.1954 229.246 29.1394 229.13 29.1394H217.274C217.158 29.1394 217.097 29.1954 217.097 29.3166V48.5332C217.097 48.6496 217.158 48.7102 217.274 48.7102H219.416C219.533 48.7102 219.593 48.6496 219.593 48.5332V40.1523H226.988C227.104 40.1523 227.165 40.0919 227.165 39.9754V37.8325C227.165 37.7159 227.104 37.6553 226.988 37.6553H219.593V31.6364H229.13ZM204.324 29.1674C204.189 29.1674 204.072 29.2185 203.97 29.3303L197.302 36.7794L190.643 29.3303C190.54 29.2185 190.424 29.1674 190.289 29.1674H189.497C189.381 29.1674 189.32 29.2232 189.32 29.3444V48.5331C189.32 48.6494 189.381 48.7101 189.497 48.7101H191.513C191.635 48.7101 191.695 48.6494 191.695 48.5331V34.0635L197.176 40.1942C197.26 40.2827 197.344 40.2827 197.437 40.1942L202.936 34.0495V48.5331C202.936 48.6494 202.992 48.7101 203.113 48.7101H205.129C205.251 48.7101 205.307 48.6494 205.307 48.5331V29.3444C205.307 29.2232 205.251 29.1674 205.129 29.1674H204.324ZM179.578 37.1383L179.536 37.1104C178.353 36.5979 177.529 36.1461 177.068 35.7455C176.514 35.2702 176.235 34.716 176.235 34.0776C176.235 32.4612 177.32 31.6505 179.495 31.6505C180.342 31.6505 181.143 31.8275 181.898 32.1814C182.163 32.2981 182.415 32.4423 182.661 32.6052C182.75 32.6706 182.838 32.7311 182.922 32.7963C182.983 32.8523 183.043 32.9035 183.099 32.9593C183.178 33.0245 183.262 33.02 183.341 32.9454L184.119 32.2093L184.887 31.4871C184.985 31.3939 184.985 31.3099 184.887 31.2261C184.813 31.1516 184.729 31.0769 184.64 30.9931C184.51 30.8953 184.384 30.7974 184.259 30.7091C183.905 30.4435 183.523 30.2105 183.127 30.0102C181.986 29.4464 180.78 29.1669 179.495 29.1669C177.72 29.1669 176.323 29.6048 175.294 30.49C174.265 31.3612 173.753 32.5583 173.753 34.0772C173.753 35.4793 174.321 36.6674 175.457 37.641C175.886 38.0045 176.403 38.3445 177.013 38.666C177.25 38.7919 177.516 38.9223 177.805 39.062L178.172 39.2249L178.512 39.3741L179.155 39.6863L179.197 39.7002C180.543 40.2918 181.493 40.8323 182.047 41.3121C182.703 41.8757 183.029 42.5372 183.029 43.2919C183.029 45.2485 181.744 46.2267 179.169 46.2267C178.168 46.2267 177.227 46.017 176.347 45.5977C176.025 45.444 175.732 45.2716 175.457 45.0807C175.35 45.0062 175.248 44.9315 175.159 44.8617C175.085 44.7964 175.015 44.736 174.954 44.6847C174.871 44.6103 174.791 44.6103 174.708 44.6847L173.152 46.1429C173.059 46.2359 173.059 46.3199 173.152 46.4037C173.236 46.483 173.325 46.5667 173.427 46.6506C173.562 46.7579 173.702 46.8649 173.846 46.9767C174.237 47.2656 174.656 47.5264 175.104 47.7547C176.375 48.3931 177.73 48.7098 179.169 48.7098C181.125 48.7098 182.671 48.2206 183.807 47.2469C184.943 46.2827 185.511 44.9642 185.511 43.2918C185.511 41.7543 184.882 40.4499 183.616 39.3738C183.141 38.9732 182.563 38.5911 181.884 38.2277C181.618 38.0927 181.33 37.9437 181.013 37.7899L180.603 37.6129C180.51 37.5663 180.38 37.5105 180.207 37.4359L179.579 37.1376L179.578 37.1383ZM167.178 29.1674C167.061 29.1674 167.001 29.2232 167.001 29.3444V48.5331C167.001 48.6494 167.061 48.7101 167.178 48.7101H169.32C169.436 48.7101 169.497 48.6494 169.497 48.5331V29.3444C169.497 29.2232 169.436 29.1674 169.32 29.1674H167.178ZM158.912 40.073C160.127 39.7796 161.143 39.16 161.953 38.2144C162.773 37.2407 163.206 36.1227 163.247 34.8556C163.294 33.2904 162.772 31.9486 161.678 30.8306C160.588 29.7124 159.261 29.1536 157.697 29.1536H150.521C150.404 29.1536 150.344 29.2094 150.344 29.3305V48.4911C150.344 48.6077 150.404 48.6682 150.521 48.6682H152.649C152.765 48.6682 152.826 48.6077 152.826 48.4911V40.2361H156.197L156.183 40.2502L160.765 48.6123C160.793 48.6776 160.844 48.7101 160.914 48.7101H163.345C163.415 48.7101 163.466 48.6822 163.494 48.6261C163.531 48.5656 163.536 48.5049 163.508 48.4492L158.912 40.0729L158.912 40.073ZM152.826 37.7485V31.6363H157.697C158.544 31.6363 159.266 31.9297 159.866 32.5214C160.467 33.1224 160.765 33.8491 160.765 34.6924C160.765 35.5309 160.467 36.2484 159.866 36.8493C159.266 37.4502 158.544 37.7485 157.697 37.7485H152.826ZM143.387 29.1674C143.27 29.1674 143.21 29.2232 143.21 29.3444V41.6943C143.21 42.9707 142.744 44.0562 141.817 44.9552C140.891 45.8496 139.787 46.2737 138.502 46.227C137.282 46.1805 136.248 45.7007 135.391 44.7921C134.553 43.8837 134.139 42.8076 134.139 41.5731V29.3443C134.139 29.2231 134.078 29.1672 133.962 29.1672H131.829C131.712 29.1672 131.652 29.2231 131.652 29.3443V41.5451C131.652 43.5202 132.355 45.2113 133.757 46.623C135.154 48.0484 136.835 48.7472 138.791 48.7099C140.7 48.6727 142.325 47.9738 143.671 46.6089C145.021 45.2439 145.692 43.6039 145.692 41.6941V29.3443C145.692 29.2231 145.631 29.1672 145.515 29.1672H143.387L143.387 29.1674ZM118.189 29.1674C115.498 29.1674 113.193 30.1224 111.284 32.0324C109.374 33.9423 108.42 36.2439 108.42 38.9364C108.42 41.6292 109.374 43.9353 111.284 45.8451C113.193 47.755 115.498 48.7102 118.189 48.7102C120.881 48.7102 123.181 47.7552 125.091 45.8451C127 43.9351 127.954 41.6291 127.954 38.9364C127.954 36.2439 127 33.9423 125.091 32.0324C123.181 30.1224 120.881 29.1674 118.189 29.1674ZM118.189 46.2132C116.178 46.2132 114.464 45.5004 113.044 44.0842C111.628 42.6634 110.916 40.9489 110.916 38.9364C110.916 36.9379 111.628 35.2188 113.044 33.7933C114.464 32.3725 116.178 31.6644 118.189 31.6644C120.187 31.6644 121.905 32.3725 123.33 33.7933C124.751 35.2188 125.458 36.9378 125.458 38.9364C125.458 40.9489 124.751 42.6634 123.33 44.0842C121.905 45.5004 120.187 46.2132 118.189 46.2132ZM93.998 29.1674C93.8769 29.1674 93.821 29.2232 93.821 29.3444V31.4733C93.821 31.59 93.877 31.6505 93.998 31.6505H99.1249V48.5332C99.1249 48.6496 99.1856 48.7102 99.3067 48.7102H101.435C101.551 48.7102 101.612 48.6496 101.612 48.5332V31.6505H106.725C106.846 31.6505 106.901 31.59 106.901 31.4733V29.3444C106.901 29.2232 106.846 29.1674 106.725 29.1674H93.9979H93.998Z" fill="#989D9F"/>
<path d="M289.428 17.0877V0.205021C289.428 0.0838243 289.367 0.0279919 289.251 0.0279919H287.109C286.993 0.0279919 286.932 0.0838243 286.932 0.205021V19.4077C286.932 19.5241 286.993 19.5846 287.109 19.5846H297.968C298.085 19.5846 298.145 19.5241 298.145 19.4077V17.2646C298.145 17.1483 298.085 17.0877 297.968 17.0877H289.428ZM274.136 0C274.061 0 274.005 0.0373729 273.973 0.107126L265.991 19.3378C265.964 19.3938 265.968 19.4495 266.005 19.5008C266.038 19.5568 266.089 19.5846 266.154 19.5846H268.338C268.418 19.5846 268.473 19.5475 268.502 19.4776L271.626 11.94H278.541L281.666 19.4776C281.694 19.5475 281.745 19.5846 281.829 19.5846H284.013C284.073 19.5846 284.124 19.5568 284.162 19.5008C284.199 19.4495 284.203 19.3937 284.176 19.3378L276.194 0.107126C276.166 0.0373729 276.115 0 276.031 0H274.136L274.136 0ZM272.618 9.56868L275.091 3.62896L277.544 9.56868H272.618ZM261.055 0.0279919C260.934 0.0279919 260.878 0.0838243 260.878 0.205021V14.097L250.401 0.107126C250.364 0.0559837 250.317 0.0279919 250.261 0.0279919H249.363C249.246 0.0279919 249.186 0.0838243 249.186 0.205021V19.4077C249.186 19.5241 249.246 19.5846 249.363 19.5846H251.379C251.5 19.5846 251.56 19.5241 251.56 19.4077V5.60896L261.968 19.5149C262.005 19.5615 262.047 19.5846 262.103 19.5846H263.072C263.193 19.5846 263.249 19.5241 263.249 19.4077V0.205021C263.249 0.0838243 263.193 0.0279919 263.072 0.0279919H261.055ZM235.406 0.0420634C232.715 0.0420634 230.41 0.997115 228.5 2.90692C226.591 4.81702 225.637 7.1184 225.637 9.81107C225.637 12.5039 226.591 14.8098 228.5 16.7198C230.41 18.6297 232.715 19.5848 235.406 19.5848C238.098 19.5848 240.398 18.6297 242.307 16.7198C244.217 14.8098 245.171 12.5037 245.171 9.81107C245.171 7.1184 244.217 4.81702 242.307 2.90692C240.398 0.996964 238.098 0.0420634 235.406 0.0420634ZM235.406 17.0879C233.395 17.0879 231.681 16.3751 230.261 14.9588C228.845 13.5381 228.133 11.8236 228.133 9.81107C228.133 7.81245 228.845 6.09345 230.261 4.66798C231.681 3.24736 233.395 2.53909 235.406 2.53909C237.404 2.53909 239.122 3.24721 240.547 4.66798C241.967 6.0936 242.675 7.81245 242.675 9.81107C242.675 11.8236 241.967 13.5381 240.547 14.9588C239.122 16.3751 237.404 17.0879 235.406 17.0879ZM219.867 0.0420634C219.751 0.0420634 219.69 0.0978959 219.69 0.218942V19.4077C219.69 19.5241 219.751 19.5846 219.867 19.5846H222.009C222.125 19.5846 222.186 19.5241 222.186 19.4077V0.218942C222.186 0.0977445 222.125 0.0420634 222.009 0.0420634H219.867ZM203.862 0.0420634C203.741 0.0420634 203.685 0.0978959 203.685 0.218942V2.34784C203.685 2.46434 203.741 2.52502 203.862 2.52502H208.989V19.4077C208.989 19.5241 209.05 19.5846 209.171 19.5846H211.299C211.415 19.5846 211.476 19.5241 211.476 19.4077V2.52502H216.589C216.71 2.52502 216.766 2.46434 216.766 2.34784V0.218942C216.766 0.0977445 216.71 0.0420634 216.589 0.0420634H203.862H203.862ZM192.444 0C192.37 0 192.314 0.0373729 192.281 0.107126L184.299 19.3378C184.272 19.3938 184.276 19.4495 184.314 19.5008C184.346 19.5568 184.397 19.5846 184.463 19.5846H186.647C186.726 19.5846 186.782 19.5475 186.81 19.4776L189.934 11.94H196.849L199.974 19.4776C200.002 19.5475 200.053 19.5846 200.137 19.5846H202.321C202.381 19.5846 202.433 19.5568 202.47 19.5008C202.507 19.4495 202.512 19.3937 202.484 19.3378L194.502 0.107126C194.475 0.0373729 194.423 0 194.34 0H192.444L192.444 0ZM190.926 9.56868L193.399 3.62896L195.853 9.56868H190.926ZM179.363 0.0279919C179.242 0.0279919 179.187 0.0838243 179.187 0.205021V14.097L168.709 0.107126C168.672 0.0559837 168.625 0.0279919 168.569 0.0279919H167.671C167.554 0.0279919 167.494 0.0838243 167.494 0.205021V19.4077C167.494 19.5241 167.554 19.5846 167.671 19.5846H169.687C169.808 19.5846 169.869 19.5241 169.869 19.4077V5.60896L180.276 19.5149C180.314 19.5615 180.355 19.5846 180.411 19.5846H181.38C181.501 19.5846 181.557 19.5241 181.557 19.4077V0.205021C181.557 0.0838243 181.501 0.0279919 181.38 0.0279919H179.364H179.363ZM159.405 10.9475C160.62 10.6542 161.636 10.0346 162.446 9.08873C163.266 8.11507 163.699 6.99706 163.74 5.73001C163.787 4.16473 163.265 2.82294 162.171 1.70493C161.081 0.58677 159.754 0.0278406 158.19 0.0278406H151.014C150.897 0.0278406 150.837 0.083673 150.837 0.20487V19.3655C150.837 19.482 150.897 19.5426 151.014 19.5426H153.142C153.258 19.5426 153.319 19.482 153.319 19.3655V11.1105H156.69L156.676 11.1246L161.258 19.4867C161.286 19.5519 161.337 19.5845 161.407 19.5845H163.838C163.908 19.5845 163.959 19.5566 163.987 19.5006C164.024 19.44 164.029 19.3794 164.001 19.3238L159.405 10.9474L159.405 10.9475ZM153.319 8.62301V2.51079H158.19C159.037 2.51079 159.759 2.80433 160.36 3.39594C160.96 3.99693 161.258 4.72366 161.258 5.56675C161.258 6.40545 160.96 7.12294 160.36 7.72363C159.759 8.32478 159.037 8.62301 158.19 8.62301H153.319ZM134.683 0.0419121C134.566 0.0419121 134.506 0.0977445 134.506 0.21879V19.4076C134.506 19.5239 134.566 19.5845 134.683 19.5845H147.368C147.489 19.5845 147.549 19.5239 147.549 19.4076V17.2785C147.549 17.1573 147.489 17.1015 147.368 17.1015H136.988V11.0547H144.504C144.625 11.0547 144.681 10.9941 144.681 10.8778V8.74874C144.681 8.62755 144.625 8.57171 144.504 8.57171H136.988V2.52487H147.368C147.489 2.52487 147.549 2.46419 147.549 2.34768V0.21879C147.549 0.0975932 147.489 0.0419121 147.368 0.0419121H134.683ZM118.678 0.0419121C118.557 0.0419121 118.501 0.0977445 118.501 0.21879V2.34768C118.501 2.46419 118.557 2.52487 118.678 2.52487H123.805V19.4076C123.805 19.5239 123.866 19.5845 123.987 19.5845H126.115C126.231 19.5845 126.292 19.5239 126.292 19.4076V2.52487H131.405C131.526 2.52487 131.582 2.46419 131.582 2.34768V0.21879C131.582 0.0975932 131.526 0.0419121 131.405 0.0419121H118.678ZM113.006 0.0278406C112.885 0.0278406 112.829 0.083673 112.829 0.20487V14.0969L102.352 0.106974C102.314 0.0558324 102.268 0.0278406 102.212 0.0278406H101.313C101.197 0.0278406 101.136 0.083673 101.136 0.20487V19.4076C101.136 19.5239 101.197 19.5845 101.313 19.5845H103.33C103.451 19.5845 103.511 19.5239 103.511 19.4076V5.60881L113.919 19.5147C113.956 19.5613 113.998 19.5845 114.054 19.5845H115.023C115.144 19.5845 115.2 19.5239 115.2 19.4076V0.20487C115.2 0.083673 115.144 0.0278406 115.023 0.0278406H113.006H113.006ZM93.9603 0.0419121C93.8437 0.0419121 93.7834 0.0977445 93.7834 0.21879V19.4076C93.7834 19.5239 93.8437 19.5845 93.9603 19.5845H96.1023C96.2187 19.5845 96.2794 19.5239 96.2794 19.4076V0.21879C96.2794 0.0975932 96.2187 0.0419121 96.1023 0.0419121H93.9603Z" fill="#989D9F"/>
</svg>
