<svg width="104" height="105" viewBox="0 0 104 105" fill="none" xmlns="http://www.w3.org/2000/svg">
<path d="M38.6276 53.8344H55.9705C58.2757 53.8344 59.4302 56.6215 57.8002 58.2515C57.2763 58.7753 57.2763 59.6247 57.8002 60.1486C58.324 60.6723 59.1733 60.6723 59.6972 60.1486L66.4042 53.4415C66.9281 52.9178 66.9281 52.0684 66.4042 51.5445L59.6972 44.8375C59.4352 44.5756 59.092 44.4445 58.7486 44.4445C58.4053 44.4445 58.062 44.5756 57.8002 44.8375C57.2763 45.3613 57.2763 46.2106 57.8002 46.7345C59.4302 48.3645 58.2758 51.1516 55.9706 51.1516H38.6276C37.8868 51.1516 37.2862 51.7522 37.2862 52.493C37.2862 53.2338 37.8868 53.8344 38.6276 53.8344Z" fill="#D83634"/>
<circle cx="52.233" cy="52.4931" r="49.7398" transform="rotate(-90 52.233 52.4931)" stroke="#D83634" stroke-width="4"/>
</svg>
