<svg width="70" height="70" viewBox="0 0 70 70" fill="none" xmlns="http://www.w3.org/2000/svg">
<rect x="1.5" y="1.5" width="67" height="67" rx="18.5" stroke="black" stroke-width="3"/>
<path fill-rule="evenodd" clip-rule="evenodd" d="M32.312 50.9939L28.8186 47.5616L35.4335 40.8287C36.2592 39.9883 37.0419 39.0908 37.6277 38.1259C38.3002 37.0184 38.6071 36.1272 38.5877 34.919C38.5603 33.2185 37.6065 31.5939 36.1816 30.2L34.635 28.6872L28.2924 22.4557L31.6872 19.0003L39.6345 26.8247C41.4924 28.5024 42.7296 30.5288 43.1849 32.8531C43.3349 33.6184 43.355 34.1332 43.366 34.8782C43.4199 38.5362 42.1266 41.0036 40.0256 43.1424L36.282 46.9531L32.312 50.994L32.312 50.9939Z" fill="#22242C"/>
</svg>
