<svg xmlns="http://www.w3.org/2000/svg" xml:space="preserve" width="154.859mm" height="200mm" version="1.1"
     style="shape-rendering:geometricPrecision; text-rendering:geometricPrecision; image-rendering:optimizeQuality; fill-rule:evenodd; clip-rule:evenodd"
     viewBox="0 0 1015.68 1311.75"
>

 <g id="Layer_x0020_1">
  <metadata id="CorelCorpID_0Corel-Layer"/>
     <g id="_2987556585696">
   <g>
    <path fill="#FEFEFE" fill-rule="nonzero"
          d="M579.24 969.31c7.61,-5.82 24.62,-11.64 34.02,-15.67 -0.45,-14.32 -6.27,-27.75 -2.69,-39.84 6.27,-21.49 21.04,-30.89 35.36,-32.68 0.9,0.45 1.79,2.24 0.9,2.69 -8.06,7.61 -11.19,18.35 -12.53,29.99 -0.45,4.48 -1.34,18.35 2.69,28.2 8.51,-4.48 29.1,-11.64 35.81,-12.98 0.9,-14.32 3.13,-28.2 7.16,-38.5 8.06,-20.14 25.96,-36.26 43.87,-26.86 0.89,0.45 1.79,2.24 0.89,2.69 -11.19,4.03 -18.35,15.67 -24.62,29.1 -1.79,4.03 -8.06,25.51 -0.89,29.99 0,0 0.45,0 0.45,0.45 12.98,-2.69 15.22,-1.34 29.1,-2.69 2.24,-13.88 8.51,-25.96 13.88,-34.91 8.06,-15.67 29.1,-28.2 47.9,-17.01 0.9,0.45 1.79,2.69 0.45,2.69 -12.98,2.69 -21.49,11.19 -25.96,18.8 -2.24,3.58 -14.32,20.14 -8.06,26.86 0.45,0 1.34,0 2.24,0 11.19,-0.45 19.25,1.79 30.89,4.03 3.58,-8.5 6.71,-9.4 10.3,-13.88 12.98,-15.67 34.91,-21.04 42.52,-6.27 0.9,0.9 0.9,2.69 0,2.69 -6.71,0.9 -17.91,4.48 -23.28,11.19 -1.34,1.34 -4.92,5.37 -8.5,12.98 15.22,11.64 23.72,21.04 27.75,36.71 0.9,2.69 2.24,18.8 -3.13,10.74 -24.62,-30.89 -57.74,-37.6 -107.43,-32.68 -53.27,4.92 -77.89,12.98 -131.16,41.63 29.54,26.41 -14.77,52.37 -21.93,13.43 -25.96,39.39 -53.27,-10.3 -18.35,-17.46 -35.81,-34.92 12.98,-51.03 22.38,-13.43l0 0z"/>
       <path fill="#FEFEFE" fill-rule="nonzero"
             d="M670.11 799.21c19.25,-6.27 40.29,-12.98 51.03,-15.22 1.79,-31.33 31.33,-70.28 66.25,-56.85 1.34,0.45 2.24,2.24 0.9,2.69 -8.95,2.69 -37.6,29.99 -27.75,47.45 7.16,0.45 26.86,0 32.68,0.45 7.61,-34.47 37.6,-58.64 71.62,-42.97 1.34,0.45 2.24,2.69 0.9,2.69 -13.43,2.24 -43.87,23.72 -40.29,42.08 6.27,0.45 23.28,6.27 34.02,12.09 4.03,-8.51 8.51,-11.64 12.53,-16.11 14.77,-15.67 45.21,-17.01 54.16,-1.79 0.9,0.89 0.9,2.69 0,2.69 -12.98,-0.45 -24.62,1.34 -35.81,11.19 -1.79,1.34 -5.37,6.71 -9.4,14.32 10.74,5.82 22.83,17.01 25.07,27.75 1.79,5.37 2.69,9.85 1.79,15.22 -0.45,1.34 -3.13,0 -4.03,-0.89 -28.2,-30.89 -90.42,-50.14 -150.85,-42.53 -40.29,4.92 -79.68,16.11 -112.36,30.44 11.19,-9.85 21.04,-20.59 29.54,-32.68l0 0zm-88.63 69.83c-2.69,2.69 -5.37,4.92 -7.61,7.61 14.32,19.7 -8.5,35.36 -15.22,15.67 -17.01,18.35 -30.44,-3.13 -19.25,-12.09 14.32,-2.24 28.65,-5.82 42.08,-11.19l0 0z"/>
       <path fill="#FEFEFE" fill-rule="nonzero"
             d="M571.63 1133.14c4.03,-4.48 13.88,-12.98 18.8,-17.01 -15.22,-23.72 -6.71,-54.16 8.06,-56.4 0.89,0.45 1.34,1.79 0.89,2.69 -4.03,5.82 -5.82,37.15 5.82,43.87 5.82,-4.03 17.01,-12.09 21.93,-13.43 -8.5,-28.65 6.27,-67.14 34.92,-60.88 0.9,0.45 1.34,2.24 0.9,2.69 -23.28,12.09 -23.72,47.9 -17.46,51.93 9.4,-2.69 19.7,-6.71 29.99,-7.61 4.48,-38.05 38.05,-55.06 55.06,-45.21 0.89,0.45 1.34,2.69 0.89,2.69 -9.4,-5.37 -44.76,30.89 -33.12,41.63 8.06,-0.45 17.46,3.13 26.86,5.37 4.03,-21.04 33.57,-38.5 46.11,-25.07 0.9,0.89 0.9,2.69 0.45,2.69 -11.19,2.24 -25.96,12.53 -28.2,32.23 23.72,11.19 21.04,34.47 17.01,28.2 -22.38,-29.54 -69.83,-24.62 -106.09,-17.01 -21.04,4.48 -50.58,24.62 -63.12,38.94 38.05,17.91 3.58,51.48 -12.53,13.43 -26.41,46.55 -52.37,4.03 -21.49,-8.5 -37.6,-29.1 1.34,-48.79 14.32,-15.22l0 0z"/>
       <path fill="#FEFEFE" fill-rule="nonzero"
             d="M188.45 1097.78c-37.6,-43.42 -69.38,-90.42 -94.9,-137.87l411.82 0 0 137.87 -316.92 0 0 0z"/>
       <polygon fill="#FEFEFE" fill-rule="nonzero" points="703.68,424.09 1006.28,424.09 1006.28,542.72 703.68,542.72 "/>
       <polygon fill="#FEFEFE" fill-rule="nonzero"
                points="1006.28,244.15 916.75,212.36 812.45,191.32 695.17,165.81 586.4,157.3 503.59,157.3 503.59,282.19 1005.83,282.19 "/>
       <path fill="#FEFEFE" fill-rule="nonzero"
             d="M74.31 104.04c12.09,-4.03 24.17,-7.61 36.71,-11.19 4.48,-1.34 8.95,-2.69 13.88,-3.58 4.92,-0.9 9.85,-1.34 14.77,0l1.79 0.89c1.79,0.9 2.69,2.24 3.58,4.03 1.34,3.13 1.79,6.27 2.24,9.85 0.9,7.16 0.9,14.32 0,21.49 -0.45,5.82 -1.34,11.64 -3.58,16.56 -0.89,2.24 -2.24,4.03 -4.03,5.82 -1.34,1.34 -2.69,2.69 -4.03,3.58 -3.13,2.24 -5.82,4.03 -9.4,5.37 -8.06,3.58 -16.11,6.27 -24.62,8.95 -14.32,4.92 -28.65,9.85 -42.97,14.77l0 26.41c-7.16,2.69 -14.32,5.82 -21.49,8.5l-0 -99.37c12.53,-4.03 24.62,-8.06 37.15,-12.09l0 0zm-15.67 58.64c14.32,-4.92 28.65,-9.85 43.42,-14.77 4.48,-1.34 8.95,-2.69 12.98,-4.48l3.13 -1.79 1.34 -0.9 1.34 -1.34 1.34 -1.34 0.9 -1.34 1.34 -2.69c0.45,-1.79 0.9,-3.13 0.9,-4.92 0.45,-4.48 0.45,-8.5 -0.9,-12.98l-0.9 -2.24 -0.89 -1.79 -1.34 -1.34 -1.79 -0.9 -1.79 -0.45 -1.79 0 -1.79 0c-4.48,0.45 -8.5,1.79 -12.98,3.13 -14.32,4.48 -28.65,9.4 -42.97,13.88l0.45 36.26 0 0zm182.19 -103.85c9.85,-1.79 19.25,-3.58 29.1,-4.48 3.13,-0.45 6.27,-0.45 9.4,-0.45 1.34,0 3.13,0.45 4.48,0.9 1.34,0.45 2.24,0.9 3.58,1.79 0.9,0.9 1.79,1.34 2.69,2.24 0.9,0.9 1.34,2.24 1.79,3.13 0.9,1.79 1.34,3.13 1.34,4.92 0.9,5.82 1.34,12.09 1.79,18.35 0.45,7.16 0.45,13.88 0,20.59 0,2.69 0,5.82 -0.45,8.5 -0.45,5.37 -0.45,10.74 -1.79,16.11 -0.45,1.34 -0.9,2.69 -1.34,3.58 -0.9,1.79 -1.79,3.58 -3.13,5.37l-2.69 4.03 -4.03 2.69c-1.79,0.9 -3.13,1.34 -4.92,2.24 -7.16,2.24 -14.32,3.58 -21.49,5.37 -14.77,3.13 -29.54,5.82 -44.32,8.95 -7.16,1.34 -14.32,2.69 -21.49,3.58 -1.79,0.45 -4.03,0.45 -5.82,0.45l-4.48 -0.45c-1.34,-0.45 -2.24,-0.9 -3.13,-1.34l-2.24 -1.79 -1.79 -2.69 -2.69 -14.77 0 -39.84c0.45,-4.48 0.9,-9.4 1.79,-13.88l1.34 -4.03c0.89,-2.24 1.79,-4.03 3.13,-5.82l3.13 -3.58 2.69 -2.24c2.69,-1.79 5.82,-3.58 9.4,-4.92l16.11 -4.92c10.3,-3.13 21.93,-5.37 34.02,-7.61l0 0zm-11.19 20.14l-23.28 5.37c-1.79,0.45 -3.58,1.34 -5.37,1.79l-1.79 1.34 -1.79 1.34 -1.34 1.34 -1.34 1.34 -1.34 1.34 -0.9 1.79c-0.89,1.34 -1.34,3.13 -1.79,4.48 -1.34,5.82 -1.34,11.64 -1.34,17.46 0,6.27 0,12.53 0.9,18.35l0.9 2.24 1.34 2.24 1.79 1.79 1.79 1.34 2.24 0.9 2.24 0.45 2.69 0c1.79,0 3.13,0 4.48,-0.45 8.95,-1.34 17.91,-3.13 26.86,-4.92 7.16,-1.34 14.77,-3.13 21.93,-4.92 1.34,-0.45 3.13,-0.9 4.48,-1.34l2.24 -1.34 2.24 -1.34 1.79 -1.79 1.79 -1.79 1.34 -2.24 0.9 -2.24 0.9 -2.24c1.34,-6.71 0.89,-12.98 0.89,-19.7 0,-3.58 0,-7.16 -0.45,-10.3l-0.45 -2.69c-0.45,-1.79 -0.9,-3.58 -1.79,-5.37l-0.89 -1.79 -0.9 -1.34 -1.34 -1.34 -0.9 -0.45 -1.79 -0.9 -1.79 -0.45 -3.58 -0.45c-4.03,0 -7.61,0.45 -11.19,0.89 -6.27,1.34 -12.53,2.69 -18.35,3.58l0 0zm147.72 -36.71c11.19,-0.9 22.38,-1.79 33.57,-1.79 2.24,0 4.92,0 7.16,0 2.69,0 4.92,0.45 7.16,1.79 0.9,0.45 1.79,0.9 2.24,1.34 1.79,1.34 3.13,2.69 4.03,4.92 0.9,1.34 1.34,3.13 1.79,4.48 0.9,3.58 0.9,7.61 0.9,11.19 0,4.92 0,9.4 -0.45,14.32 0,1.79 -0.45,3.58 -0.9,5.37l-0.9 1.79c-0.89,1.34 -1.34,2.24 -2.24,3.58l-2.24 1.79c-0.9,0.45 -1.79,1.34 -3.13,1.79 -1.34,0.45 -3.13,0.9 -4.48,1.34l-12.09 2.69 12.09 6.71c1.79,1.34 3.13,2.24 4.48,3.58l1.34 1.79c1.79,2.69 3.13,5.37 4.48,8.51 1.79,5.37 2.69,10.74 2.69,16.11 -7.16,0.45 -14.32,0.45 -21.49,0.89 -0.45,-4.03 -0.9,-7.61 -2.24,-11.64l-1.79 -4.48 -0.9 -2.24 -1.34 -1.79 -1.34 -1.79 -1.79 -1.34 -2.24 -1.34c-1.34,-0.45 -2.69,-0.9 -4.03,-0.9 -2.69,-0.45 -5.82,0 -8.5,0 -13.88,0.9 -27.31,2.24 -41.18,3.58l-5.37 0.45 0 26.41c-7.16,0.9 -14.32,1.79 -21.49,2.24l0 -94c19.7,-2.24 38.94,-4.03 58.19,-5.37l0 0zm-36.26 54.61c14.32,-1.34 28.65,-2.69 42.97,-3.58 4.92,-0.45 9.85,-0.9 14.77,-1.34 1.34,0 2.69,-0.45 4.03,-0.9l1.79 -0.45 1.79 -0.9 1.34 -0.9 1.34 -1.34 0.9 -1.34 0.9 -1.34c0.45,-1.34 0.89,-2.24 0.89,-3.58 0.45,-4.03 0.45,-8.06 0.45,-12.09 0,-1.34 -0.45,-2.69 -0.9,-4.48l-0.9 -1.34 -0.89 -1.34 -1.34 -1.34 -1.34 -0.9 -1.34 -0.89 -1.79 -0.45c-1.34,-0.45 -2.69,-0.45 -4.03,-0.45 -7.16,0 -14.32,0.9 -21.04,1.34 -12.53,0.9 -24.62,2.24 -37.15,3.13l-0.45 34.46 0 0zm152.19 21.93c8.06,0 16.11,0 24.62,0 5.37,0 11.19,0 17.01,-0.45 1.34,0 2.24,-0.45 3.58,-0.45 1.34,-0.45 2.24,-0.9 3.13,-1.34l1.34 -0.9 0.89 -1.34 0.9 -1.34 0.45 -1.34 0.45 -3.13 0 -4.48 -0.9 -4.92 -0.45 -1.34 -0.45 -1.34 -0.89 -1.34 -1.34 -0.9 -1.34 -0.9 -3.13 -0.89 -5.37 -0.9 -6.71 0 -45.21 0c-4.48,0 -8.95,0 -12.98,-0.9 -1.34,-0.45 -2.24,-0.45 -3.13,-0.89l-1.34 -0.9 -1.34 -0.9 -0.9 -0.89 -0.9 -1.34 -0.89 -1.34c-0.9,-1.79 -1.79,-3.58 -2.24,-5.37 -0.9,-4.92 -0.9,-10.3 -0.9,-15.22 0,-6.27 0.45,-12.53 3.13,-18.35 0.45,-0.9 1.34,-1.79 1.79,-2.69 3.13,-2.69 7.16,-4.03 11.19,-4.92 4.03,-0.9 8.51,-0.9 12.53,-0.9 9.85,0 19.7,0 29.54,0 16.11,0 32.68,0.45 48.79,0.9l0 14.32c-21.49,-0.45 -42.97,-0.9 -64.46,-0.9 -4.92,0 -9.85,0 -14.77,0.45 -0.9,0 -2.24,0.45 -3.13,0.45l-1.79 0.89 -1.34 1.34 -0.89 1.79 -0.45 1.79 -0.45 3.13c0,2.69 0,4.92 0,7.61l0.45 1.79 0.45 1.79 1.34 1.79 2.24 1.34 2.24 0.45c22.38,0.45 45.21,0.9 67.59,1.79l2.69 0.45c3.58,0.9 7.16,2.24 9.85,4.92 1.34,1.34 2.24,2.69 2.69,4.03 2.24,4.92 2.69,10.74 2.69,16.11 0,6.27 0,12.53 -1.79,18.35 -0.45,0.9 -0.45,1.79 -0.9,2.69l-1.34 1.79c-0.89,1.34 -1.79,2.24 -3.13,3.13 -2.24,1.34 -4.48,2.69 -6.71,3.13 -3.58,0.9 -7.61,0.9 -11.19,1.34 -11.19,0.45 -21.93,0.45 -33.12,0.45 -17.46,0 -34.92,0.45 -51.92,0.45 0,-4.92 0,-10.3 0,-15.22 11.64,-0.45 23.28,-0.45 34.91,-0.45l1.34 -0 0 0 0 0 0 0zm148.17 19.7c-8.95,-0.89 -18.35,-1.34 -27.31,-2.69 -4.03,-0.45 -8.06,-1.34 -11.64,-2.69 -1.79,-0.89 -3.58,-1.34 -5.37,-2.69 -1.34,-0.89 -2.24,-1.79 -3.58,-2.69 -0.9,-0.89 -1.79,-2.24 -2.69,-3.13 -0.9,-1.34 -1.34,-2.69 -1.79,-4.03 -1.34,-4.92 -1.79,-10.3 -1.79,-15.67 -0.45,-12.98 -0.45,-25.51 0,-38.5l0 -3.13c0.45,-5.82 0.9,-11.64 4.48,-16.56 1.34,-1.34 2.24,-2.69 4.03,-3.58 4.48,-2.24 9.85,-3.13 14.77,-3.58 5.37,-0.45 10.3,-0.45 15.67,0 10.3,0.45 21.04,0.89 31.34,1.79 15.22,1.34 29.99,2.69 45.21,4.48l0 17.01c-20.14,-1.79 -39.84,-3.58 -59.98,-4.92 -6.27,-0.45 -12.98,-0.89 -19.7,-0.45l-3.13 0.45 -2.24 0.45 -1.79 0.89 -1.79 1.34 -1.79 1.79 -1.34 1.79 -0.9 2.24c-0.45,1.34 -0.89,2.69 -0.89,4.03 -0.9,6.27 -1.34,12.98 -0.9,19.7 0,5.37 0,10.74 0.9,16.11 0.45,1.34 0.45,2.69 0.89,4.03l0.9 2.24 1.34 1.79 1.79 1.79 1.79 1.34 1.79 0.89 2.24 0.9c1.79,0.45 3.58,0.9 5.37,0.9 5.82,0.89 12.09,1.34 17.91,1.79 20.14,1.79 40.73,3.58 60.88,5.82 0,5.37 0,10.3 0,15.67l0 1.79c-12.53,-1.34 -25.51,-2.69 -38.05,-3.58 -7.61,-1.79 -16.12,-2.24 -24.62,-3.13l0 0zm136.98 -42.52c16.56,3.13 33.12,6.27 49.69,9.4l0 -38.05c7.61,1.79 15.22,3.58 23.28,4.92l0 98.03c-7.61,-1.79 -15.22,-3.58 -23.28,-5.37l0 -38.5c-13.43,-2.69 -26.41,-5.37 -39.84,-8.06 -12.09,-2.24 -24.62,-4.48 -36.71,-6.71l0 38.05c-7.61,-1.34 -15.22,-2.24 -23.28,-3.58l0 -95.35c7.61,0.9 15.67,1.79 23.28,3.13l0 37.6c8.95,1.34 17.91,2.69 26.86,4.48l0 0zm175.92 6.27c8.06,2.69 16.11,5.37 24.62,8.06l0 16.11c-23.72,-8.06 -47.9,-15.67 -72.07,-23.28l-8.06 -2.24 0 24.62c17.46,5.37 35.36,10.74 52.82,16.56 7.61,2.69 15.67,4.92 23.28,7.61l0 14.32c-22.38,-7.61 -45.21,-14.77 -68.04,-21.49l-8.06 -2.24 0 25.96c17.01,4.92 34.02,10.3 50.58,15.67 9.85,3.13 19.7,6.71 29.99,9.85l0 16.56c-32.23,-10.74 -64.91,-20.59 -98.03,-29.99l-3.58 -0.9 -0 -98.48c25.52,7.16 51.03,15.22 76.55,23.28l0 0z"/>
       <path fill="#FEFEFE" fill-rule="nonzero"
             d="M35.81 822.49c-14.32,-47.9 -21.93,-92.66 -22.38,-131.16l299.91 0c0.9,50.58 21.93,97.14 55.06,131.16l-332.59 0 0 0z"/>
       <path fill="#FEFEFE" fill-rule="nonzero"
             d="M-0 99.56l5.82 -2.24c167.41,-61.77 334.38,-94 501.8,-97.14 167.42,-2.69 334.38,23.72 501.8,80.13l6.27 2.24 0 6.27c-1.34,200.99 -2.69,401.97 -4.03,602.96 -0.45,103.85 -55.06,249.78 -158.01,377.35 -82.81,102.96 -197.41,194.27 -340.65,242.62l-4.92 0c-144.59,-37.15 -258.73,-124.89 -341.99,-227.4 -106.54,-132.05 -161.15,-289.62 -161.6,-396.6l0 0 0 0 0 0c-0.9,-97.14 -1.34,-194.27 -2.24,-290.96l-2.24 -297.23 0 0zm195.17 992.85l304.39 0 0 -122.2 -390.34 0c-1.34,-2.24 -2.69,-4.48 -3.58,-6.71 21.04,37.6 45.66,74.76 73.86,110.12 5.37,6.27 10.3,12.53 15.67,18.8l0 0zm304.84 15.22l-290.96 0c75.2,82.36 172.34,150.85 290.96,183.98l0 -183.98 0 0zm-291.86 -0.9c-0.9,-0.9 -1.79,-1.79 -2.24,-2.69 0.45,0.9 1.34,1.79 2.24,2.69l0 0zm-5.37 -5.82c-0.45,-0.45 -0.45,-0.45 -0.45,-0.89 0,0.45 0.45,0.89 0.45,0.89l0 0zm-102.06 -146.38l399.29 0 0 -72.07c3.13,0 6.27,0 9.4,0 2.24,0 4.03,0 6.27,0l0 409.58c-0.45,0 -0.89,0.45 -0.89,0.45 136.08,-47.45 245.3,-135.19 324.98,-234.11 98.93,-122.65 151.75,-262.31 153.99,-362.58 0,0.45 0,0.45 0,0.89l-287.83 0c0,-3.13 0.45,-6.27 0.45,-9.4l0 -6.27 287.83 -0c0.45,-42.97 0.45,-85.95 0.9,-128.47l-288.72 0 0 -15.22 288.72 0c0.45,-34.92 0.45,-69.38 0.9,-103.85l-289.62 0 0 -15.22 -2.24 0 0 -0.45 291.86 0c0.45,-42.08 0.45,-83.71 0.89,-125.78l-485.68 -0 0 126.23 -15.67 0 0 -253.81c-159.36,2.69 -319.16,34.47 -479.41,96.69l-0.45 -16.11c164.73,-63.56 329.46,-94.9 493.74,-96.24 162.94,-1.34 325.43,26.86 487.47,82.81 0,5.37 0,10.74 0,16.11 0.45,-51.03 0.9,-102.06 0.9,-152.64 -163.39,-54.16 -326.77,-79.68 -489.71,-76.99 -165.62,2.69 -330.8,34.47 -495.98,95.79l8.06 282.9c0.89,94.9 1.34,189.8 2.24,285.14 0,0 0,0 0,-0.45l291.41 0 0 6.27c0,3.13 0,6.27 0.45,9.4l-292.3 0c0,0 0,0 0,0 0.9,35.81 8.5,77.44 21.49,121.31 0,-0.45 -0.45,-0.9 -0.45,-1.34l319.61 -0c2.69,3.13 5.37,6.27 8.5,8.95l9.85 6.71 -333.04 0c12.98,39.39 30.44,80.57 52.82,121.76l0 0zm4.48 8.5c0,0 0,-0.45 -0.45,-0.45 0.45,0 0.45,0.45 0.45,0.45l0 0zm-0.45 -0.9c-0.45,-0.45 -0.45,-0.89 -0.89,-1.34 0.45,0.45 0.45,0.9 0.89,1.34l0 0zm-2.69 -4.48c0,-0.45 0,-0.45 0,0 0,-0.45 0,-0.45 0,0l0 0zm-55.06 -128.02c-0.45,-0.9 -0.45,-1.79 -0.9,-2.24 0.45,0.9 0.9,1.34 0.9,2.24l0 0zm-1.79 -5.82c-0.45,-0.9 -0.45,-1.79 -0.89,-2.69 0.45,0.89 0.89,1.79 0.89,2.69l0 0zm-23.28 -131.16c0,0 0,0 0,0 0,0 0,0 0,0l0 0zm0 -9.85c0,0 0,0 0,0 0,0 0,0 0,0l0 0zm971.36 1.79c0,0 0,0.45 0,0.45 0,0 0,-0.45 0,-0.45l0 0zm0 2.24c0,0.45 0,0.45 0,0.9 0,-0.45 0,-0.45 0,-0.9l0 0zm0 0.9c0,0 0,0.45 0,0.45 0,0 0,0 0,-0.45l0 0zm0 2.69c0,0 0,0.45 0,0.45 0,0 0,0 0,-0.45l0 0zm0 0.89c0,0 0,0.45 0,0.45 0,0 0,-0.45 0,-0.45l0 0zm0 0.45c0,0 0,0.45 0,0 0,0.45 0,0 0,0l0 0zm0 -1.34c0,0 0,0 0,0 0,0 0,0 0,0 0,0 0,0 0,0 0,-0.45 0,-0.45 0,-0.45 0,0 0,0 0,0 0,0 0,0 0,0 0,0 0,0 0,0 0,0 0,0 0,0 0,0 0,0 0,0 0,0 0,0 0,0l0 0.45 0 0zm0 -1.34c0,0 0,0 0,0 0,-0.45 0,-0.45 0,-0.45 0,0 0,0 0,0 0,0 0,0 0,0l0 0.45 0 0zm0 -6.71c0,0 0,0 0,0 0,0 0,-0.45 0,0 0,-0.45 0,-0.45 0,-0.45 0,0 0,0 0,0 0,0 0,0 0,0l0 0.45 0 0zm2.24 -262.31c0,0 0,0 0,0 0,0 0,0 0,0l0 0zm-484.34 -143.24l485.23 0c0,2.69 0,4.92 0,7.61 0,-12.09 0,-24.17 0,-36.26 -161.6,-56.4 -323.19,-84.6 -485.23,-83.71l0 112.36 0 0zm485.23 7.61c0,1.34 0,2.24 0,3.58 0,-1.34 0,-2.24 0,-3.58l0 0zm0 4.48c0,0 0,0 0,0 0,0 0,0 0,0l0 0zm0 0.45c0,0.9 0,1.79 0,2.69 0,-0.9 0,-1.79 0,-2.69l0 0zm-482.55 1003.59c0,0 0,0 0,0 0,0 0,0 0,0l0 0zm-3.58 0.9c0,0 0,0 0,0 0,0 0,0 0,0l0 0zm0 0c-0.45,0 -0.45,0 -0.89,0.45 0.45,0 0.45,0 0.89,-0.45l0 0zm-6.27 -0.9c-1.34,-0.45 -2.24,-0.45 -3.58,-0.9 1.34,0 2.69,0.45 3.58,0.9l0 0zm9.85 -0.45c0.45,0 0.45,0 0,0 0.45,0 0.45,0 0,0l0 0 0 0z"/>
       <path fill="#FEFEFE" fill-rule="nonzero"
             d="M85.5 347.1c8.5,-5.37 17.46,-10.74 26.41,-15.22 -1.34,-13.88 -2.69,-35.36 0.89,-47 6.71,-21.49 26.41,-38.94 49.69,-34.92 1.34,0.45 2.24,1.79 1.34,2.24 -12.98,6.71 -23.28,17.01 -29.1,31.33 -1.79,4.03 -8.06,32.68 1.34,34.92 0.89,0.45 1.79,0.45 3.13,0.45 17.01,-7.16 34.47,-13.43 52.37,-18.8 0,-13.88 0.45,-33.12 5.37,-43.42 8.95,-20.14 31.33,-34.92 55.51,-27.75 1.34,0.45 2.24,2.24 1.34,2.69 -14.32,4.92 -25.96,13.43 -33.57,26.86 -2.24,4.03 -11.64,31.33 -1.79,34.92 0,0 0.45,0 0.45,0 16.56,-3.58 33.57,-6.71 51.93,-8.95 2.24,-13.88 5.82,-31.78 12.09,-41.18 13.43,-19.7 40.29,-33.12 65.35,-23.72 1.34,0.45 2.24,2.24 0.9,2.69 -16.56,4.03 -30.89,11.64 -41.18,24.62 -2.69,3.58 -16.56,28.65 -8.5,34.47 0.9,0 1.79,0 2.69,-0.45 14.32,-1.34 30.89,-1.79 46.55,-0.9 4.03,-8.5 8.06,-16.11 12.53,-21.04 15.67,-16.11 50.14,-21.93 60.43,-8.06 0.89,0.89 1.34,2.69 0,2.69 -14.77,0.45 -29.99,2.69 -41.18,12.98 -1.79,1.79 -8.06,8.06 -11.64,15.22 23.72,4.03 43.87,12.09 50.14,27.31 2.24,4.92 3.58,9.4 2.69,14.77 0,1.34 -3.13,0.45 -4.03,-0.9 -29.99,-27.75 -77.89,-30.89 -141.9,-19.7 -64.91,11.19 -119.07,30.44 -177.26,58.19 23.28,26.41 -13.43,46.55 -25.51,18.8 -28.2,33.57 -54.16,-15.22 -15.67,-21.04 -21.93,-34.02 22.38,-35.36 28.2,-12.09l0 0z"/>
       <path fill="#FEFEFE" fill-rule="nonzero"
             d="M93.56 614.78c7.61,-5.82 17.46,-10.74 25.51,-15.67 -8.06,-12.98 -12.98,-31.78 -9.85,-43.87 5.37,-21.49 18.8,-31.78 35.36,-30.89 1.34,0 2.24,1.79 1.34,2.24 -11.64,7.61 -13.43,17.46 -17.01,32.23 -1.79,8.06 2.69,21.49 8.51,26.41 14.77,-8.06 14.32,-6.71 29.99,-12.53 -4.48,-13.88 -3.58,-32.68 2.24,-44.32 8.95,-18.8 23.72,-25.96 38.5,-22.83 1.34,0.45 2.24,1.79 0.9,2.24 -11.64,4.92 -35.36,23.72 -19.7,59.09 14.32,-4.92 15.22,-5.82 33.57,-9.85 1.34,-13.88 1.79,-30.44 7.16,-40.29 11.19,-20.14 37.6,-29.54 49.69,-24.62 1.34,0.45 2.24,2.24 0.9,2.69 -6.71,4.48 -15.67,8.06 -24.62,21.49 -4.92,7.16 -13.43,23.72 -11.19,34.92 12.98,-1.79 29.99,-2.69 44.76,-2.24 3.13,-8.51 9.4,-18.8 13.43,-23.72 2.69,-3.13 6.27,-5.82 9.85,-7.16l0 50.14c-24.62,-1.34 -51.93,1.34 -77.89,7.61 -58.64,13.88 -73.86,24.62 -126.23,52.82 31.34,19.7 0.9,49.69 -18.35,20.14 -34.02,38.94 -55.95,-11.19 -20.59,-18.8 -26.86,-32.68 17.01,-50.14 23.73,-15.22l0 0z"/>
       <path fill="#FEFEFE" fill-rule="nonzero"
             d="M78.34 481.39c8.95,-5.37 21.04,-9.4 29.99,-13.88 -0.9,-13.88 -2.69,-26.41 1.34,-38.05 7.16,-21.04 18.35,-31.78 36.26,-29.99 1.34,0.45 2.24,1.79 1.34,2.69 -12.98,6.71 -9.85,15.67 -15.67,29.54 -1.79,4.03 -6.27,21.04 3.13,23.72 0.89,0.45 1.79,0.45 3.13,0.45 17.01,-6.71 10.74,-6.27 28.2,-10.74 0.45,-13.43 1.34,-31.78 5.82,-41.63 9.4,-19.25 26.86,-28.65 42.97,-24.62 1.34,0.45 4.03,3.58 2.69,4.03 -12.98,4.03 -35.36,30.44 -25.96,51.03 11.19,-1.79 18.8,-5.37 38.94,-8.06 2.69,-13.88 7.16,-27.75 13.88,-37.15 13.88,-19.25 35.36,-23.28 47.9,-17.46 1.34,0.45 3.13,4.03 1.79,4.48 -16.56,3.58 -17.01,1.79 -27.75,14.77 -5.82,6.71 -17.46,25.07 -8.95,33.57 14.32,-0.9 24.17,-2.69 39.84,-1.34 4.03,-8.06 7.16,-19.25 11.64,-23.72 15.67,-16.11 42.97,-17.46 51.93,-6.71 0.89,0.89 1.34,2.69 0,2.69 -14.77,0.45 -20.14,4.48 -31.78,14.77 -1.34,0.9 -4.03,4.48 -7.16,8.95l-8.5 0 0 27.75c-24.17,-2.24 -50.58,-1.34 -75.2,2.24 -64.91,9.85 -88.63,24.62 -142.35,50.58 22.83,26.86 -14.32,45.66 -25.51,17.46 -28.65,33.12 -54.16,-16.56 -14.77,-21.49 -21.93,-35.36 16.56,-44.76 22.83,-13.88l0 0z"/>
       <g>
     <g>
      <path fill="#FEFEFE" fill-rule="nonzero"
            d="M696.52 427.67l0 260.07c0,102.51 -83.71,185.77 -187.11,185.77 -102.96,0 -187.11,-83.26 -187.11,-185.77l0 -260.07 374.22 0 0 0zm8.95 -9.4l-392.57 0 0 269.03c0,106.98 88.18,195.17 196.06,195.17 108.33,0 196.06,-88.18 196.06,-195.17l0.45 -269.03 0 0z"/>
     </g>
    </g>
       <path fill="#FEFEFE" fill-rule="nonzero"
             d="M500.9 608.97c1.79,1.79 5.82,-0.45 7.16,-2.24 3.13,-4.92 2.69,-11.19 3.13,-17.46 0.45,-6.71 0.45,-12.53 -1.79,-18.8 -3.58,-10.74 -8.51,-19.25 -20.59,-21.04 -1.34,-0.45 -4.03,2.24 -3.13,3.13 8.06,8.51 11.19,8.06 13.43,21.04 2.24,12.53 0.9,34.47 1.79,35.36l0 0zm-84.6 156.22c1.79,0.45 5.82,-4.92 7.16,-8.06 1.34,-2.69 0.9,-8.06 0.9,-8.5 -0.45,-0.9 -4.92,0.9 -7.16,0.9 -2.24,0 -4.03,-0.45 -7.16,-0.9 -3.13,-0.45 -2.69,-7.61 -3.13,-11.64 -0.9,-10.3 -1.34,-20.59 -0.9,-30.89 0,-2.69 0.9,-6.27 3.13,-8.06 3.13,-1.79 7.61,-1.34 11.19,-0.89 7.16,1.34 13.88,4.92 21.49,6.27 4.03,0.9 8.5,0.45 12.53,-0.89 3.58,-0.9 6.27,-3.58 9.4,-4.92 1.79,-0.45 4.03,-0.9 5.37,0 5.82,3.13 9.85,8.95 15.67,11.19 7.61,2.24 15.67,1.34 23.72,1.79 6.27,0 12.53,-0.9 18.8,0 2.69,0.45 7.16,0.89 8.06,4.03 0.9,4.03 -5.82,7.61 -4.92,11.64 1.79,6.27 8.95,9.4 12.09,14.77 1.34,2.24 0.9,4.92 0,7.16 -0.89,1.79 -4.03,2.24 -5.37,4.03 -1.79,2.69 -2.24,5.82 -4.03,8.5 -1.79,2.69 -4.48,4.92 -7.16,7.16 -5.82,4.48 -11.64,8.95 -18.35,12.53 -2.24,1.34 -6.27,-1.34 -7.16,0.9 -1.79,4.03 -3.58,8.95 -5.37,11.64 -1.79,2.69 -4.03,3.13 -5.37,4.48 -1.34,1.79 -3.13,4.92 -2.24,5.37 0.9,0.45 9.4,0.45 12.53,0 3.13,-0.45 4.92,-0.9 5.82,-1.34 0.9,-0.9 -0.45,-3.58 -1.34,-8.95 -0.45,-5.37 14.32,-7.61 21.49,-11.64 7.61,-4.92 15.22,-10.3 22.83,-14.77 3.13,-1.79 7.61,-2.24 10.3,-4.92 1.34,-1.34 0.89,-3.58 0.89,-5.37 0,-4.48 -0.89,-8.95 -0.89,-13.43 0,-2.24 0,-4.92 1.79,-6.27 1.34,-1.34 4.03,-1.79 5.37,-0.9 2.69,1.34 3.13,5.37 5.37,7.16 3.58,2.69 8.06,3.58 12.09,5.37 3.58,1.79 9.85,1.79 10.3,5.37 0.9,6.71 -3.58,12.98 -6.27,18.8 -1.34,3.13 -4.48,4.92 -6.27,8.06 -0.9,1.79 -0.9,4.03 -2.24,5.37 -3.58,3.58 -8.5,5.82 -12.09,9.4 -2.69,2.69 -4.92,5.37 -6.27,8.5 -0.9,1.79 -1.34,3.58 -2.24,5.37 -1.34,1.79 -3.58,2.24 -4.92,4.92 -1.34,2.69 -4.48,9.85 -1.79,9.4 2.69,-0.45 18.35,-3.13 18.8,-4.92 0.45,-1.34 -0.9,-5.37 -1.79,-10.3 -0.9,-4.92 10.3,-8.51 15.67,-11.64 3.13,-1.79 7.61,-0.9 10.3,-3.13 1.79,-1.34 0.9,-4.48 1.34,-6.27 1.34,-3.13 2.24,-6.71 4.92,-9.4 3.13,-3.58 8.5,-4.92 11.19,-8.5 2.69,-4.48 5.82,-9.85 4.92,-14.77 -0.9,-4.03 -5.82,-5.37 -8.51,-8.51 -2.24,-2.24 -4.48,-4.92 -5.37,-8.06 -1.34,-4.48 -2.24,-8.95 -0.89,-13.43 1.79,-5.37 7.16,-8.95 10.3,-13.43 2.69,-4.03 6.71,-7.16 8.06,-11.64 1.34,-5.37 -1.34,-11.19 -1.79,-16.56 0,-0.9 -0.9,-2.24 0,-3.13 3.58,-3.13 7.61,-7.16 12.53,-8.06 4.48,-0.45 8.06,4.03 12.53,4.92 4.48,0.45 9.85,0.9 14.32,-0.9 1.34,-0.45 1.79,-3.58 0.9,-4.92 -3.13,-2.69 -9.85,-1.79 -11.19,-5.37 -0.9,-3.13 5.37,-4.03 7.16,-7.16 2.24,-4.03 4.03,-8.5 4.03,-13.43 0,-1.79 -3.58,-1.79 -4.92,-0.89 -2.24,1.34 -2.24,4.48 -4.03,6.27 -1.34,1.34 -3.58,1.79 -5.37,1.79 -1.79,0 -4.48,-0.9 -5.37,-2.24 -1.34,-1.34 -2.24,-4.48 -0.89,-5.37 3.58,-2.24 8.5,-1.34 12.53,-2.24 1.79,-0.45 4.03,-0.89 4.92,-2.24 1.34,-2.69 1.34,-5.82 0,-8.51 -0.45,-1.34 -2.69,-1.34 -4.03,-0.89 -1.79,0.45 -2.69,3.13 -4.92,3.13 -2.69,0 -5.37,-1.34 -7.16,-3.13 -1.34,-1.79 -1.79,-4.48 -0.9,-6.27 1.34,-3.13 5.82,-4.03 7.16,-7.16 1.79,-4.03 3.13,-8.95 2.24,-13.43 -0.45,-1.79 -4.03,-2.69 -5.37,-1.34 -2.24,1.34 -1.79,4.48 -3.13,6.27 -1.79,2.69 -2.69,6.71 -5.37,8.06 -1.79,0.9 -4.92,-0.89 -5.37,-3.13 -0.9,-3.58 1.34,-7.16 2.24,-10.3 1.34,-3.58 3.13,-7.16 5.37,-10.3 2.24,-3.13 6.71,-4.48 8.5,-8.06 1.34,-2.69 2.69,-6.27 0.9,-8.5 -1.34,-1.79 -4.48,-0.45 -6.27,0.89 -1.34,0.9 -0.9,4.03 -2.24,4.92 -4.03,1.79 -8.95,0.45 -12.53,2.24 -3.13,1.79 -4.48,4.92 -6.27,8.06 -3.13,5.37 -3.58,14.77 -4.92,15.67 -1.34,1.34 -4.48,0.9 -5.37,-0.9 -1.34,-2.24 0.9,-5.82 -0.89,-8.06 -1.34,-1.34 -4.92,-1.34 -6.27,0 -1.79,1.79 -2.24,4.48 -2.24,7.16 0,4.03 0.45,8.06 2.24,11.64 3.13,5.82 8.06,10.3 12.09,15.67 4.03,5.37 8.95,10.3 11.19,16.56 1.34,4.03 1.79,8.95 0,12.53 -1.34,3.58 -4.92,7.16 -8.5,7.16 -4.92,-0.45 -8.5,-5.82 -12.53,-8.5 -4.03,-2.69 -8.06,-6.27 -12.53,-7.16 -10.3,-1.79 -21.04,0 -31.78,0 -9.4,0 -19.25,1.34 -28.65,0 -4.48,-0.45 -9.4,-2.24 -12.53,-5.37 -3.13,-3.13 -5.37,-7.61 -5.37,-11.64 -0.45,-5.82 1.79,-11.19 4.03,-16.56 1.79,-3.58 4.48,-7.16 8.06,-9.4 2.69,-1.79 7.16,-2.69 9.85,-1.79 3.13,1.34 11.64,12.98 13.43,12.53 1.79,-0.45 0.45,-10.74 -0.45,-13.88 -1.79,-4.92 -7.16,-7.61 -8.5,-12.53 -0.45,-1.34 1.79,-3.13 3.13,-3.13 2.69,0 5.82,1.79 8.06,4.03 1.34,0.9 7.16,9.4 8.51,8.95 1.34,-0.45 -0.9,-12.09 -2.24,-15.67 -2.24,-4.92 -9.4,-8.5 -9.85,-9.85 -0.45,-0.9 0,-1.79 1.34,-2.24 2.69,0 5.37,1.34 8.06,2.24 2.24,0.9 5.82,3.58 7.16,3.13 1.34,-0.45 0,-4.48 -1.34,-6.27 -4.92,-5.82 -11.64,-9.4 -16.56,-14.77 -2.69,-2.69 -5.37,-6.27 -5.37,-10.3 0,-2.24 2.69,-4.48 4.92,-5.37 4.03,-1.79 9.4,-2.69 12.98,-4.92 1.34,-0.9 0.45,-1.79 -0.9,-2.24 -5.82,-2.24 -12.09,-3.13 -18.35,-3.13 -3.58,0 -6.71,2.24 -10.3,3.13 -2.24,0.9 -4.48,2.24 -7.16,2.24 -4.48,0 -9.4,0.45 -12.53,-2.24 -1.79,-1.79 0.45,-5.37 1.79,-8.06 1.34,-2.24 3.58,-3.58 5.37,-5.37 1.34,-1.34 5.37,-2.69 4.03,-3.13 -1.34,-0.45 -8.51,-0.45 -12.53,0.89 -3.58,0.9 -6.71,2.24 -9.4,4.92 -2.24,2.24 -1.79,7.16 -4.92,8.5 -5.37,3.13 -8.06,2.24 -13.88,4.92 -1.34,0.9 -4.48,4.48 -5.82,4.92 -7.16,0.89 -21.49,-2.69 -21.93,-1.34 -0.9,1.34 11.19,8.06 13.43,14.32 0.89,2.69 -5.82,-1.34 -8.51,-0.9 -4.48,0.45 -8.95,1.34 -12.53,3.13 -3.58,1.79 -6.71,4.92 -9.4,8.06 -2.69,2.69 -4.03,6.27 -7.16,8.5 -1.34,0.9 -4.48,-0.45 -5.37,0.9 -1.34,1.79 -1.79,5.82 0.45,5.82l12.53 0.9c2.24,0 -2.24,4.92 -0.9,7.16 0.9,1.34 4.03,0.9 5.37,0 1.79,-0.9 2.69,-3.58 4.92,-4.92 2.24,-1.34 4.48,-3.13 7.16,-3.13 3.13,0 7.16,1.34 8.5,4.03 1.34,2.69 -1.79,5.82 -2.24,8.5 -0.45,3.13 1.34,7.16 -0.89,9.4 -6.71,6.27 -8.95,0.9 -18.8,13.43 -8.06,9.85 -4.48,4.48 -7.16,17.46 -0.45,2.69 -0.9,5.37 -3.13,7.16 -2.24,1.34 -5.82,2.24 -8.06,0.89 -4.48,-2.24 -7.16,-6.71 -10.3,-11.19 -1.79,-2.24 -0.9,-6.27 -3.13,-8.06 -3.13,-1.79 -7.61,-1.79 -11.19,-0.9 -2.69,0.9 -4.03,4.03 -5.37,6.27 -3.58,4.92 -6.27,10.74 -9.4,15.67 -2.69,4.03 -6.27,7.61 -8.5,11.64 -1.34,2.24 -0.45,4.92 -1.79,7.16 -2.69,6.27 -4.92,12.09 -8.06,17.91 -1.34,2.24 -4.03,3.58 -4.92,6.27 -0.45,2.69 0.45,8.5 1.79,8.5 1.34,0 5.82,-3.13 8.5,-4.92 3.13,-1.34 8.95,-3.13 9.4,-4.03 0.45,-0.89 -3.13,-4.03 -4.92,-6.27 -3.13,-4.03 3.58,-9.85 6.27,-14.32 0.9,-1.79 3.13,-2.24 4.03,-4.03 1.79,-3.58 2.24,-8.06 4.03,-11.64 2.24,-4.92 4.92,-9.85 8.51,-13.43 1.79,-1.79 4.92,-3.13 7.16,-1.34 3.58,2.24 4.03,7.16 6.27,11.19 1.79,2.69 4.03,5.37 4.92,8.5 0.9,2.69 -1.79,6.27 0,8.5 2.24,2.69 6.71,3.58 10.3,4.03l8.06 0.9 0.9 11.19c0.45,4.03 -8.51,0.9 -12.53,1.79 -3.58,0.89 -7.16,2.24 -11.19,3.13 -3.58,0.9 -10.3,-2.24 -11.19,1.79 -3.13,15.67 0.89,31.33 1.79,47 0,4.03 -2.24,10.74 1.79,12.53l7.61 3.13c1.34,3.13 2.24,7.16 4.03,9.4 -0.45,2.24 1.79,2.68 3.58,3.13l0 0z"/>
       <path fill="#FEFEFE" fill-rule="nonzero"
             d="M662.94 466.62c0,-3.13 -2.24,-4.48 -6.27,-4.48l-15.22 0c-4.03,0 -6.27,1.34 -6.27,4.48 0,3.13 2.24,4.48 6.27,4.48l3.13 0 0 28.2c0,4.92 1.34,7.16 4.48,7.16 3.13,0 4.48,-2.24 4.48,-7.16l0 -28.2 3.13 0c4.48,0 6.27,-1.34 6.27,-4.48l0 0zm-43.42 9.85c0,3.58 -1.79,5.37 -5.37,5.37l-4.03 0 0 -10.74 4.03 0c3.58,0 5.37,1.79 5.37,5.37l0 0zm9.85 25.51c0,-1.79 -0.9,-3.58 -2.69,-5.82l-7.16 -8.95c5.82,-1.34 9.4,-5.82 9.4,-12.09 0,-8.06 -5.37,-13.88 -14.77,-13.88l-6.71 -0c-4.92,0 -6.27,2.24 -6.27,7.16l0 30.44c0,4.92 1.34,7.16 4.48,7.16 3.13,0 4.48,-2.24 4.48,-7.16l0 -10.74 10.3 14.77c1.79,2.24 3.13,3.58 4.92,3.58 2.24,0 4.03,-1.79 4.03,-4.48l0 0zm-47.45 -13.88l-9.4 0 4.92 -16.11 4.48 16.11 0 0zm12.53 13.43c0,-0.9 0,-1.79 -0.45,-3.13l-9.85 -31.33c-1.34,-3.58 -3.58,-5.82 -6.71,-5.82 -3.13,0 -5.37,2.24 -6.71,6.27l-10.3 30.89c-0.45,0.9 -0.45,1.79 -0.45,2.69 0,2.69 1.79,4.92 4.03,4.92 1.79,0 3.58,-1.34 4.48,-4.48l1.34 -4.48 14.32 0 0.9 4.03c0.89,3.13 2.24,4.92 4.48,4.92 3.13,0.45 4.92,-1.34 4.92,-4.48l0 0zm-40.73 -15.67c0,-4.92 -1.79,-6.71 -5.37,-6.71l-5.82 0c-3.58,0 -5.37,1.34 -5.37,4.48 0,3.13 1.79,4.48 5.37,4.48l2.69 -0c0,5.37 -2.69,8.95 -7.16,8.95 -4.92,0 -8.5,-5.37 -8.5,-13.88 0,-8.5 3.58,-13.43 8.5,-13.43 4.92,0 7.16,4.03 9.4,4.03 1.79,0 3.58,-2.24 3.58,-4.48 0,-4.48 -4.92,-8.95 -12.53,-8.95 -10.74,0 -17.46,8.95 -17.46,23.28 0,13.88 6.71,23.28 16.56,23.28 9.85,0 16.12,-8.95 16.12,-21.04l0 0zm-34.92 -19.25c0,-3.13 -2.24,-4.48 -6.27,-4.48l-15.22 0c-4.03,0 -6.27,1.34 -6.27,4.48 0,3.13 2.24,4.48 6.27,4.48l3.13 0 0 28.2c0,4.92 1.34,7.16 4.48,7.16 3.13,0 4.48,-2.24 4.48,-7.16l0 -28.2 3.13 0c4.03,0 6.27,-1.34 6.27,-4.48l0 0zm-29.54 0c0,-3.13 -2.24,-4.48 -6.27,-4.48l-15.22 0c-4.03,0 -6.27,1.34 -6.27,4.48 0,3.13 2.24,4.48 6.27,4.48l3.13 0 0 28.2c0,4.92 1.34,7.16 4.48,7.16 3.13,0 4.48,-2.24 4.48,-7.16l0 -28.2 3.13 0c4.03,0 6.27,-1.34 6.27,-4.48l0 0zm-33.12 20.14l0 -18.35c0,-4.92 -1.34,-7.16 -4.48,-7.16 -3.13,0 -4.48,2.24 -4.48,7.16l0 17.46c0,7.61 -2.69,11.64 -7.61,11.64 -4.92,0 -7.61,-4.03 -7.61,-11.64l0 -17.46c0,-4.92 -1.34,-7.16 -4.48,-7.16 -3.13,0 -4.48,2.24 -4.48,7.16l0 18.35c0,12.98 6.27,20.14 16.56,20.14 9.85,0 16.56,-7.16 16.56,-20.14l0 0zm-36.71 -20.14c0,-3.13 -2.24,-4.48 -6.27,-4.48l-15.22 0c-4.03,0 -6.27,1.34 -6.27,4.48 0,3.13 2.24,4.48 6.27,4.48l3.13 0 0 28.2c0,4.92 1.34,7.16 4.48,7.16 3.13,0 4.48,-2.24 4.48,-7.16l0 -28.2 3.13 0c4.03,0 6.27,-1.34 6.27,-4.48l0 0zm-30.89 25.51c0,-6.71 -3.58,-10.74 -10.74,-13.43 -4.48,-1.79 -7.16,-2.24 -7.16,-5.37 0,-2.24 1.79,-3.58 4.48,-3.58 2.24,0 4.92,1.34 6.71,1.34 2.69,0 4.03,-1.79 4.03,-4.03 0,-3.58 -4.03,-6.27 -10.74,-6.27 -8.5,0 -13.88,5.82 -13.88,13.88 0,6.71 3.58,9.85 10.74,12.53 4.03,1.34 6.71,2.69 6.71,6.27 0,2.69 -1.79,4.48 -4.48,4.48 -4.03,0 -7.16,-2.24 -9.4,-2.24 -2.69,0 -4.48,1.79 -4.48,4.48 0,3.58 5.37,7.16 12.53,7.16 9.85,-0.45 15.67,-6.71 15.67,-15.22l0 0z"/>
   </g>
  </g>
 </g>
</svg>
