<svg width="104" height="104" viewBox="0 0 104 104" fill="none" xmlns="http://www.w3.org/2000/svg">
<path d="M65.3451 50.3985H48.0021C45.6969 50.3985 44.5424 47.6114 46.1725 45.9814C46.6963 45.4576 46.6963 44.6082 46.1725 44.0844C45.6487 43.5606 44.7993 43.5606 44.2754 44.0844L37.5684 50.7914C37.0446 51.3152 37.0446 52.1645 37.5684 52.6884L44.2754 59.3954C44.5375 59.6573 44.8807 59.7884 45.224 59.7884C45.5673 59.7884 45.9106 59.6573 46.1725 59.3954C46.6963 58.8716 46.6963 58.0223 46.1725 57.4984C44.5425 55.8684 45.6969 53.0813 48.0021 53.0813H65.3451C66.0859 53.0813 66.6865 52.4807 66.6865 51.7399C66.6865 50.9991 66.0859 50.3985 65.3451 50.3985Z" fill="#F2F2F2"/>
<circle cx="51.7397" cy="51.7398" r="49.7398" transform="rotate(90 51.7397 51.7398)" stroke="#F2F2F2" stroke-width="4"/>
</svg>
