<svg xmlns="http://www.w3.org/2000/svg" width="1.02906in" height="0.496665in" version="1.1" style="shape-rendering:geometricPrecision; text-rendering:geometricPrecision; image-rendering:optimizeQuality; fill-rule:evenodd; clip-rule:evenodd"
viewBox="0 0 118.62 57.25">
 <g id="Layer_x0020_1">
  <metadata id="CorelCorpID_0Corel-Layer"/>
  <g id="_1554233465232">
   <path d="M77.3 48.14c-0.06,0.16 0.02,3.87 -0.03,5.62 -0.05,0.3 -0.12,0.55 -0.21,0.71 -0.17,0.27 -0.46,0.4 -0.8,0.38 -0.26,0.04 -0.47,-0.03 -0.63,-0.2 -0.11,-0.18 -0.21,-0.44 -0.24,-0.79 -0.17,-1.94 -0,-6.35 -0.02,-11.63 -0,-1.22 0.05,-2.48 0.01,-3.78 0.04,-0.93 1.2,-1.14 1.71,-0.45 0.18,0.25 0.23,0.64 0.21,1.03 -0.01,0.19 -0.03,0.41 0.09,0.56 0.3,0.36 0.59,0.31 0.88,0.11 0.26,-0.32 0.73,-0.84 1.01,-1.07 2.08,-1.99 7.47,-1.47 7.68,4.94 0.04,1.49 -0.27,2.99 -1.05,4.16 -0.67,1.02 -1.58,1.73 -2.73,2.04 -0.79,0.21 -1.81,0.19 -2.75,-0.1 -0.58,-0.18 -1.11,-0.71 -1.6,-1.17 -0.32,-0.34 -0.5,-0.67 -0.75,-0.79 -0.33,-0.11 -0.64,0.04 -0.78,0.42zm-3 -10.12l-0.04 0.26c-0.11,4.68 -0.08,10.51 -0.1,15.29 0.17,1.54 0.62,2.39 2.12,2.39 1.4,0 2.07,-1.08 2.17,-2.32l-0 -3.91c0.89,0.8 1.89,1.21 2.89,1.32 1.32,0.14 2.7,-0.15 3.82,-0.89 0.79,-0.52 1.46,-1.31 1.94,-2.12 0.64,-1.07 0.99,-2.49 1,-3.8 0,-0.95 -0.07,-1.84 -0.23,-2.75 -0.6,-2.71 -2.73,-4.69 -5.15,-5 -1.43,-0.18 -2.97,0.24 -4.4,1.48 -0.66,-2.1 -3.62,-1.94 -4.02,0.06z"/>
   <path d="M81.13 47.26c-2.13,0 -2.46,-2.12 -2.46,-3.72 0,-1.52 0.66,-3.44 2.52,-3.44 1.82,0 2.38,2.07 2.38,3.49 0,1.5 -0.51,3.66 -2.44,3.66zm-3.67 -3.75c0,0.97 0.12,2.23 0.7,3.21 0.62,1.04 1.73,1.77 3.03,1.77 0.91,0 1.89,-0.48 2.5,-1.25 0.86,-1.09 1.17,-2.69 1.09,-3.77 -0.06,-0.83 -0.18,-1.9 -0.66,-2.75 -0.6,-1.06 -1.67,-1.8 -2.96,-1.8 -1.09,0 -2.17,0.58 -2.82,1.46 -0.67,0.92 -0.88,2.16 -0.88,3.12z"/>
   <path d="M15.11 17.57c-0.06,0.16 0.02,3.87 -0.03,5.62 -0.05,0.3 -0.12,0.55 -0.21,0.71 -0.17,0.27 -0.46,0.4 -0.8,0.38 -0.26,0.04 -0.47,-0.03 -0.63,-0.2 -0.11,-0.18 -0.21,-0.44 -0.24,-0.79 -0.17,-1.94 -0,-6.35 -0.02,-11.63 -0,-1.22 0.05,-2.48 0.01,-3.78 0.04,-0.93 1.2,-1.14 1.71,-0.45 0.18,0.25 0.23,0.64 0.21,1.03 -0.01,0.19 -0.03,0.41 0.09,0.56 0.3,0.36 0.59,0.31 0.88,0.11 0.26,-0.32 0.73,-0.84 1.01,-1.07 2.08,-1.99 7.47,-1.47 7.68,4.94 0.04,1.49 -0.27,2.99 -1.05,4.16 -0.67,1.02 -1.58,1.73 -2.73,2.04 -0.79,0.21 -1.81,0.19 -2.75,-0.1 -0.58,-0.18 -1.11,-0.71 -1.6,-1.17 -0.32,-0.34 -0.5,-0.67 -0.75,-0.79 -0.33,-0.11 -0.64,0.04 -0.78,0.42zm-3 -10.12l-0.04 0.26c-0.11,4.68 -0.08,10.51 -0.1,15.29 0.17,1.55 0.62,2.39 2.11,2.39 1.4,0 2.07,-1.08 2.17,-2.32l-0 -3.91c0.89,0.8 1.89,1.21 2.89,1.32 1.32,0.14 2.7,-0.15 3.82,-0.89 0.79,-0.52 1.46,-1.31 1.94,-2.12 0.64,-1.07 0.99,-2.49 1,-3.8 0,-0.95 -0.07,-1.84 -0.23,-2.75 -0.6,-2.71 -2.73,-4.69 -5.15,-5 -1.43,-0.18 -2.97,0.24 -4.4,1.48 -0.66,-2.1 -3.62,-1.94 -4.02,0.06z"/>
   <path d="M18.94 16.69c-2.13,0 -2.46,-2.12 -2.46,-3.72 0,-1.52 0.66,-3.44 2.52,-3.44 1.82,0 2.38,2.07 2.38,3.49 0,1.5 -0.51,3.66 -2.44,3.66zm-3.67 -3.75c0,0.97 0.12,2.23 0.7,3.21 0.62,1.04 1.73,1.77 3.03,1.77 0.91,0 1.89,-0.48 2.5,-1.25 0.86,-1.09 1.17,-2.68 1.09,-3.77 -0.06,-0.82 -0.18,-1.9 -0.66,-2.75 -0.6,-1.06 -1.67,-1.8 -2.96,-1.8 -1.09,0 -2.17,0.58 -2.82,1.46 -0.67,0.92 -0.88,2.16 -0.88,3.12z"/>
   <path d="M55.99 11.81l-0.12 6.74c-0.3,0.64 -0.58,0.81 -1.14,0.77 -0.51,-0.04 -0.84,-0.31 -0.96,-0.92 -0.14,-0.82 0,-6.9 -0.08,-9.9 -0.01,-0.43 0.06,-0.79 0.19,-1.05 0.58,-0.83 1.53,-0.4 1.78,0.32 0.01,0.95 0.02,1 0.32,1.2 0.2,0.11 0.54,0.18 0.86,-0.33 1.01,-1.08 2.28,-1.83 3.78,-1.61 0.78,0.11 1.4,0.28 2.02,0.89 0.3,0.35 0.58,0.71 0.73,0.97 0.07,0.12 0.24,0.14 0.29,0.15 0.1,0.03 0.33,0 0.47,-0.12 0.18,-0.18 0.47,-0.54 0.93,-0.97 0.65,-0.47 1.46,-0.87 2.27,-0.92 0.42,-0.03 0.82,0.03 1.13,0.07 3.06,0.61 2.73,3.54 2.75,5.98 0.01,2 -0.04,4.02 -0.04,5.35 0,0.28 -0.16,0.48 -0.28,0.61 -0.21,0.24 -0.52,0.33 -0.88,0.3 -0.94,-0.15 -0.97,-0.56 -1.03,-1.79 -0.1,-2.41 0.17,-6.1 -0.2,-7.53 -0.26,-0.98 -1,-1.58 -2.05,-1.59 -1.27,-0.01 -2.82,1.05 -3,2.73 -0.23,1.22 -0.13,5.1 -0.16,7.12 -0.19,0.65 -0.51,1.07 -1.01,1.07 -0.57,0 -1.15,-0.46 -1.2,-1.4 0.05,-1.22 0,-4.37 0.01,-6.66 0.01,-1.1 -0.28,-1.98 -0.79,-2.37 -0.21,-0.16 -0.55,-0.33 -0.83,-0.4 -0.32,-0.08 -0.67,-0.07 -0.96,-0.06 -1.86,0.09 -2.71,1.6 -2.8,3.37zm-3.4 -3.83c-0.01,3.47 -0.11,7.1 0.04,10.56 0.25,1.17 0.96,1.91 2.16,1.91 0.65,0.02 1.2,-0.22 1.6,-0.62 0.42,-0.43 0.65,-1.05 0.67,-1.7 0.14,-1.87 -0.39,-6.45 0.6,-7.99 0.75,-0.75 1.87,-0.81 2.29,-0.2 0.3,0.39 0.25,1.2 0.29,2.02 0.02,1.63 -0.03,4.43 0.02,6.41 0.01,0.44 0.21,0.82 0.38,1.15 0.43,0.59 1.11,0.96 2.16,0.96 1.12,-0.22 1.73,-0.88 1.93,-2.13 0.07,-2.02 -0.1,-5.79 0.28,-7.6 0.41,-1.1 2.42,-2.04 2.79,-0.01l0.04 7.16c0.15,1.54 0.59,2.38 1.98,2.55 0.48,0.06 0.87,0.01 1.31,-0.21 0.64,-0.32 1.17,-1.07 1.22,-2.22 -0.05,-5.97 0.29,-8.21 -0.51,-9.8 -1.67,-3.16 -5.82,-2.94 -8.01,-0.77 -1.11,-1.08 -1.9,-1.55 -3.7,-1.61 -1.24,0 -2.43,0.45 -3.46,1.34 -0.97,-1.88 -3.38,-1.71 -3.99,0.24 -0.04,0.2 -0.08,0.35 -0.08,0.55z"/>
   <path d="M40.63 18.22c-1.58,-1.26 -2.29,-3.16 -2.23,-5.05 -0.02,-1.39 0.34,-3.05 1.24,-4.1 1.03,-1.34 2.66,-1.99 4.68,-2.07 3.77,-0.01 5.66,2.65 5.89,5.53 0.17,2.12 -0.51,4.38 -2.27,5.67 -2.14,1.57 -5.12,1.4 -7.31,0.02zm-3.4 -5.1c0.08,3.47 1.76,5.87 4.26,6.86 1.04,0.41 2.24,0.52 3.35,0.47 2.91,-0.14 5.7,-1.85 6.45,-5.7 0.66,-4.63 -1.86,-8.9 -7.02,-8.9 -2.2,0 -4.07,0.86 -5.32,2.29 -1.12,1.29 -1.72,3.06 -1.72,4.98z"/>
   <path d="M41.75 12.62c0.15,-1.31 0.45,-2.53 1.93,-3.03l0.39 -0.06 0.45 0c1.63,0.23 2.1,1.44 2.32,2.77l0 1.74c-0.22,1.32 -0.7,2.44 -2.06,2.71l-1.03 0c-1.27,-0.32 -1.64,-1.28 -1.93,-2.45l-0.06 -0.58 0 -1.1zm1.7 -4.19c-0.3,0.07 -0.57,0.2 -0.82,0.32 -1.88,0.94 -2.3,3.44 -2.03,5.43 0.1,0.71 0.3,1.39 0.61,2.02 0.52,0.99 1.35,1.54 2.26,1.72 0.85,0.17 1.74,0.09 2.5,-0.31 0.85,-0.45 1.47,-1.29 1.81,-2.23 0.41,-1.26 0.4,-2.97 -0.01,-4.43 -0.78,-2.01 -2.27,-2.94 -4.33,-2.52z"/>
   <path d="M92.63 48.78c-1.58,-1.26 -2.29,-3.16 -2.23,-5.05 -0.02,-1.39 0.34,-3.05 1.24,-4.1 1.03,-1.34 2.66,-1.99 4.68,-2.07 3.77,-0.01 5.67,2.65 5.89,5.53 0.17,2.12 -0.51,4.38 -2.27,5.67 -2.14,1.57 -5.12,1.4 -7.31,0.02zm-3.4 -5.1c0.08,3.47 1.76,5.87 4.26,6.86 1.04,0.41 2.24,0.53 3.35,0.47 2.91,-0.14 5.7,-1.86 6.45,-5.7 0.66,-4.63 -1.86,-8.9 -7.02,-8.9 -2.2,0 -4.08,0.85 -5.32,2.29 -1.12,1.29 -1.72,3.06 -1.72,4.98z"/>
   <path d="M93.74 43.19c0.15,-1.32 0.45,-2.53 1.93,-3.03l0.39 -0.06 0.45 0c1.63,0.23 2.1,1.44 2.32,2.77l0 1.74c-0.22,1.32 -0.7,2.44 -2.06,2.71l-1.03 0c-1.27,-0.32 -1.64,-1.28 -1.93,-2.45l-0.06 -0.58 0 -1.1zm1.7 -4.19c-0.3,0.06 -0.57,0.2 -0.82,0.32 -1.88,0.94 -2.3,3.44 -2.03,5.43 0.1,0.71 0.3,1.39 0.61,2.02 0.52,0.99 1.35,1.54 2.26,1.72 0.85,0.18 1.74,0.09 2.5,-0.31 0.85,-0.45 1.47,-1.29 1.81,-2.23 0.41,-1.26 0.4,-2.97 -0.01,-4.43 -0.78,-2.01 -2.27,-2.94 -4.33,-2.52z"/>
   <path d="M103.1 37.39c-0.83,-0.66 -1.2,-1.66 -1.17,-2.65 -0.01,-0.73 0.18,-1.6 0.65,-2.15 0.54,-0.7 1.39,-1.04 2.45,-1.09 1.98,-0 2.97,1.39 3.09,2.9 0.09,1.11 -0.27,2.29 -1.19,2.97 -1.12,0.82 -2.68,0.73 -3.83,0.01zm-1.78 -2.67c0.04,1.82 0.92,3.08 2.23,3.59 0.54,0.22 1.17,0.28 1.76,0.25 1.53,-0.07 2.99,-0.97 3.38,-2.99 0.35,-2.42 -0.97,-4.66 -3.68,-4.66 -1.15,0 -2.14,0.45 -2.79,1.2 -0.59,0.68 -0.9,1.6 -0.9,2.61z"/>
   <path d="M31.34 9.98c-1.02,1.54 -0.66,6.66 -0.79,8.42 -0.01,0.16 -0.1,0.3 -0.15,0.43 -0.07,0.18 -0.25,0.29 -0.41,0.39 -0.13,0.05 -0.28,0.08 -0.45,0.1 -0.44,-0.01 -0.79,-0.19 -0.96,-0.66 -0.24,-3.31 -0.1,-7.23 -0.09,-10.51 0.09,-0.88 0.47,-1.18 1.02,-1.17 1.06,0.03 0.76,1.08 1.03,1.73 0.11,0.27 0.33,0.32 0.43,0.33 0.14,0.02 0.3,0.06 0.55,-0.22 0.45,-0.53 0.64,-1.04 1.22,-1.51 0.39,-0.28 0.91,-0.29 1.35,-0.31 1.14,0.09 1.87,0.56 2.13,1.04 0.21,0.47 -0.17,1.03 -0.59,1.09 -0.99,-0.08 -2.87,-1.35 -4.3,0.83zm-3.36 -3.49c-0.38,0.4 -0.57,1.12 -0.62,1.69 -0.04,2.36 -0.09,6.74 -0.01,9.87 0.01,0.21 0.04,0.41 0.05,0.61 0,0.14 0.06,0.26 0.1,0.39 0.12,0.25 0.25,0.48 0.38,0.68 0.46,0.46 1.01,0.73 1.66,0.73 1.05,-0.02 2.02,-0.68 2.19,-2.26 0.01,-2.07 0,-4.09 0.18,-6.15 0.09,-0.56 0.2,-1.06 0.45,-1.56 0.3,-0.59 0.88,-0.61 1.13,-0.63 0.78,-0.02 1.67,0.6 2.47,0.4 0.83,-0.26 1.3,-0.83 1.44,-1.63 0,-0.6 0.07,-0.76 -0.43,-1.51 -1.4,-1.47 -4.24,-1.84 -5.62,-0.06 -0.43,-1.18 -2.23,-1.71 -3.38,-0.57z"/>
   <path d="M45.39 28.56l-1.93 0.06 -1.35 0.06 -1.23 0.06 -1.29 0.07 -0.97 0.06 -0.97 0.06 -1.03 0.07 -0.84 0.06 -0.77 0.06 -0.84 0.06 -0.77 0.06 -0.77 0.06 -0.64 0.06 -0.64 0.06 -0.71 0.06 -0.64 0.06 -0.71 0.06 -0.58 0.06 -0.52 0.06 -0.58 0.06 -0.64 0.06 -0.58 0.07 -0.52 0.06 -0.52 0.06 -0.52 0.07 -0.52 0.06 -0.45 0.06 -0.52 0.06 -0.52 0.06 -0.45 0.06 -0.45 0.06 -0.45 0.06 -0.45 0.06 -0.39 0.06 -0.52 0.06 -0.39 0.06 -0.39 0.06 -0.32 0.06 -0.32 0.06 -0.32 0.07 -0.32 0.06 -0.26 0.06 -0.26 0.07 -0.32 0.06 -0.26 0.06 -0.26 0.06 -0.26 0.06 -0.26 0.06 -0.19 0.06 -0.26 0.06 -0.26 0.06 -0.19 0.06 -0.26 0.06 -0.19 0.06 -0.19 0.06 -0.19 0.06 -0.26 0.06 -0.19 0.07 -0.19 0.06 -0.19 0.06 -0.19 0.07 -0.13 0.06 -0.19 0.06 -0.19 0.06 -0.19 0.06 -0.19 0.06 -0.13 0.06 -0.19 0.06 -0.19 0.06 -0.19 0.06 -0.13 0.06 -0.19 0.06 -0.13 0.06 -0.19 0.06 -0.13 0.06 -0.19 0.07 -0.13 0.06 -0.13 0.06 -0.19 0.06 -0.13 0.06 -0.19 0.06 -0.13 0.06 -0.13 0.06 -0.13 0.06 -0.13 0.06 -0.19 0.06 -0.13 0.06 -0.13 0.06 -0.13 0.06 -0.13 0.06 -0.19 0.06 -0.06 0.06 -0.13 0.06 -0.13 0.07 -0.13 0.06 -0.13 0.06 -0.13 0.06 -0.13 0.06 -0.13 0.06 -0.13 0.06 -0.13 0.06 -0.13 0.06 -0.13 0.06 -0.06 0.06 -0.13 0.06 -0.13 0.06 -0.13 0.06 -0.13 0.06 -0.06 0.06 -0.13 0.06 -0.13 0.06 -0.06 0.06 -0.13 0.06 -0.13 0.06 -0.06 0.06 -0.13 0.06 -0.06 0.06 -0.13 0.06 -0.06 0.06 -0.13 0.06 -0.13 0.06 -0.06 0.06 -0.13 0.06 -0.06 0.06 -0.13 0.06 -0.06 0.06 -0.06 0.06 -0.13 0.06 -0.06 0.07 -0.13 0.06 -0.06 0.06 -0.13 0.06 -0.06 0.06 -0.06 0.06 -0.06 0.06 -0.13 0.06 -0.06 0.06 -0.06 0.06 -0.06 0.06 -0.13 0.06 -0.06 0.06 -0.06 0.06 -0.06 0.06 -0.06 0.07 -0.13 0.06 -0.06 0.06 -0.06 0.07 -0.06 0.06 -0.06 0.06 -0.06 0.06 -0.06 0.06 -0.06 0.06 -0.06 0.06 -0.13 0.06 -0.06 0.06 -0.06 0.06 -0.06 0.06 -0.06 0.06 -0.06 0.13 -0.06 0.06 -0.06 0.07 -0.06 0.06 -0.06 0.06 -0.06 0.06 -0.06 0.06 -0.06 0.06 -0.06 0.06 -0.06 0.13 -0.06 0.06 -0.06 0.06 -0.06 0.06 -0.06 0.13 -0.06 0.06 -0.06 0.06 -0.06 0.13 -0.06 0.07 -0.06 0.13 -0.06 0.06 -0.06 0.13 -0.06 0.06 -0.06 0.13 -0.06 0.13 -0.06 0.13 -0.06 0.13 -0.06 0.13 -0.06 0.13 -0.06 0.13 -0.06 0.19 -0.06 0.13 -0.06 0.26 -0.06 0.19 -0.06 0.26 -0.06 0.45 0 1.03 0.06 0.39 0.06 0.26 0.06 0.19 0.06 0.26 0.06 0.13 0.06 0.13 0.06 0.19 0.06 0.13 0.06 0.13 0.06 0.13 0.06 0.07 0.06 0.13 0.06 0.13 0.06 0.06 0.06 0.13 0.06 0.06 0.06 0.13 0.06 0.06 0.06 0.06 0.06 0.06 0.06 0.13 0.06 0.06 0.06 0.06 0.06 0.07 0.06 0.13 0.06 0.06 0.06 0.06 0.06 0.06 0.06 0.06 0.06 0.06 0.06 0.06 0.06 0.06 0.06 0.06 0.06 0.06 0.06 0.06 0.06 0.06 0.06 0.06 0.13 0.07 0.06 0.06 0.06 0.06 0.06 0.07 0.06 0.06 0.06 0.06 0.13 0.06 0.06 0.06 0.06 0.06 0.06 0.06 0.13 0.06 0.06 0.06 0.06 0.06 0.13 0.06 0.06 0.06 0.06 0.06 0.13 0.06 0.06 0.06 0.13 0.07 0.06 0.06 0.06 0.06 0.13 0.06 0.06 0.06 0.13 0.06 0.13 0.06 0.06 0.06 0.13 0.06 0.06 0.06 0.13 0.06 0.13 0.07 0.06 0.06 0.13 0.06 0.13 0.07 0.13 0.06 0.06 0.06 0.13 0.06 0.13 0.07 0.13 0.06 0.06 0.06 0.13 0.06 0.13 0.06 0.13 0.06 0.13 0.06 0.13 0.06 0.13 0.06 0.13 0.06 0.13 0.06 0.13 0.07 0.13 0.06 0.13 0.06 0.13 0.06 0.13 0.06 0.19 0.06 0.13 0.06 0.13 0.07 0.13 0.06 0.19 0.06 0.13 0.06 0.13 0.06 0.13 0.06 0.19 0.06 0.13 0.06 0.19 0.06 0.13 0.06 0.19 0.06 0.19 0.07 0.19 0.06 0.19 0.06 0.13 0.06 0.19 0.06 0.19 0.06 0.19 0.07 0.19 0.06 0.19 0.06 0.19 0.06 0.19 0.06 0.19 0.06 0.26 0.06 0.19 0.06 0.19 0.06 0.26 0.06 0.19 0.06 0.19 0.06 0.19 0.06 0.26 0.06 0.19 0.06 0.26 0.06 0.26 0.06 0.19 0.06 0.19 0.07 0.32 0.06 0.19 0.06 0.26 0.06 0.26 0.06 0.26 0.06 0.26 0.06 0.26 0.06 0.26 0.06 0.32 0.06 0.26 0.06 0.32 0.06 0.32 0.06 0.26 0.06 0.32 0.06 0.32 0.07 0.39 0.06 0.32 0.06 0.39 0.07 0.32 0.06 0.52 0.06 0.39 0.06 0.58 0.06 0.58 0.06 0.58 0.06 0.64 0.06 0.58 0.06 0.58 0.06 0.64 0.06 0.64 0.06 0.64 0.06 0.58 0.06 0.64 0.06 0.64 0.07 0.71 0.06 0.64 0.06 0.71 0.06 0.71 0.06 0.65 0.06 0.71 0.06 0.71 0.06 0.84 0.06 0.71 0.06 0.84 0.06 0.77 0.06 0.97 0.06 0.9 0.06 0.9 0.06 0.97 0.06 1.1 0.06 1.29 0.06 1.35 0.07 1.68 0.06 2.58 0.06c3.64,0 7.27,0.06 10.9,-0.26 -2.87,-0.32 -5.99,-0.55 -8.9,-0.84l-0.64 -0.06 -0.58 -0.06 -0.52 -0.06 -0.58 -0.07 -0.52 -0.06 -0.52 -0.06 -0.58 -0.06 -0.52 -0.06 -0.45 -0.06 -0.52 -0.06 -0.45 -0.06 -0.45 -0.06 -0.39 -0.06 -0.45 -0.06 -0.45 -0.06 -0.39 -0.06 -0.45 -0.06 -0.39 -0.06 -0.39 -0.07 -0.32 -0.06 -0.39 -0.06 -0.39 -0.07 -0.39 -0.06 -0.32 -0.06 -0.39 -0.06 -0.32 -0.06 -0.32 -0.06 -0.39 -0.06 -0.26 -0.06 -0.32 -0.06 -0.32 -0.06 -0.32 -0.06 -0.26 -0.06 -0.32 -0.06 -0.26 -0.06 -0.32 -0.06 -0.26 -0.07 -0.26 -0.06 -0.32 -0.06 -0.26 -0.06 -0.26 -0.06 -0.26 -0.06 -0.19 -0.06 -0.32 -0.06 -0.19 -0.06 -0.26 -0.06 -0.26 -0.06 -0.19 -0.06 -0.26 -0.06 -0.19 -0.06 -0.26 -0.06 -0.19 -0.06 -0.26 -0.06 -0.19 -0.06 -0.19 -0.07 -0.19 -0.06 -0.19 -0.06 -0.26 -0.06 -0.19 -0.06 -0.19 -0.06 -0.19 -0.07 -0.19 -0.06 -0.13 -0.06 -0.19 -0.06 -0.19 -0.06 -0.19 -0.06 -0.19 -0.06 -0.13 -0.06 -0.19 -0.06 -0.13 -0.06 -0.19 -0.06 -0.19 -0.07 -0.13 -0.06 -0.13 -0.06 -0.19 -0.06 -0.13 -0.06 -0.19 -0.06 -0.13 -0.06 -0.13 -0.07 -0.19 -0.06 -0.13 -0.06 -0.13 -0.06 -0.13 -0.06 -0.13 -0.06 -0.13 -0.06 -0.13 -0.06 -0.13 -0.06 -0.13 -0.06 -0.13 -0.06 -0.13 -0.07 -0.13 -0.06 -0.13 -0.06 -0.13 -0.06 -0.13 -0.07 -0.13 -0.06 -0.06 -0.06 -0.13 -0.07 -0.13 -0.06 -0.06 -0.06 -0.13 -0.06 -0.13 -0.06 -0.06 -0.06 -0.13 -0.06 -0.06 -0.06 -0.13 -0.06 -0.06 -0.06 -0.13 -0.06 -0.06 -0.07 -0.13 -0.06 -0.06 -0.06 -0.06 -0.06 -0.13 -0.06 -0.06 -0.06 -0.06 -0.06 -0.13 -0.06 -0.06 -0.06 -0.06 -0.06 -0.13 -0.06 -0.06 -0.06 -0.06 -0.06 -0.06 -0.06 -0.06 -0.06 -0.06 -0.07 -0.06 -0.06 -0.06 -0.06 -0.13 -0.07 -0.06 -0.06 -0.06 -0.06 -0.06 -0.06 -0.06 -0.13 -0.13 0 0 -0.13 -0.06 -0.06 -0.06 -0.06 -0.06 -0.06 -0.06 -0.06 -0.06 -0.06 -0.06 -0.13 -0.06 -0.07 -0.06 -0.06 -0.06 -0.13 -0.06 -0.06 -0.06 -0.06 -0.06 -0.13 -0.06 -0.13 -0.06 -0.06 -0.06 -0.13 -0.06 -0.13 -0.06 -0.13 -0.06 -0.06 -0.06 -0.19 -0.06 -0.13 -0.06 -0.13 -0.06 -0.19 -0.06 -0.19 -0.06 -0.26 -0.06 -0.26 -0.06 -0.45 0 -2 0.06 -0.39 0.06 -0.19 0.06 -0.19 0.06 -0.19 0.06 -0.13 0.06 -0.13 0.06 -0.13 0.06 -0.13 0.06 -0.13 0.06 -0.06 0.06 -0.13 0.06 -0.06 0.06 -0.13 0.06 -0.07 0.06 -0.06 0.06 -0.13 0.06 -0.06 0.06 -0.06 0.06 -0.06 0.06 -0.06 0.06 -0.06 0.06 -0.06 0.06 -0.13 0.06 -0.06 0.06 -0.06 0.13 -0.06 0.06 -0.06 0.06 -0.06 0.06 -0.06 0.06 -0.07 0.06 -0.06 0.06 -0.06 0.06 -0.06 0.13 -0.06 0.06 -0.06 0.06 -0.06 0.06 -0.06 0.13 -0.06 0.06 -0.06 0.06 -0.06 0.13 -0.06 0.06 -0.06 0.13 -0.06 0.06 -0.06 0.06 -0.07 0.13 -0.06 0.06 -0.06 0.13 -0.07 0.06 -0.06 0.13 -0.06 0.13 -0.06 0.06 -0.06 0.13 -0.06 0.06 -0.06 0.13 -0.06 0.13 -0.06 0.13 -0.06 0.13 -0.06 0.06 -0.06 0.13 -0.06 0.13 -0.06 0.13 -0.06 0.13 -0.07 0.13 -0.06 0.06 -0.06 0.19 -0.06 0.13 -0.06 0.13 -0.06 0.13 -0.06 0.13 -0.06 0.13 -0.06 0.13 -0.06 0.13 -0.06 0.13 -0.06 0.19 -0.06 0.13 -0.06 0.13 -0.06 0.13 -0.06 0.19 -0.06 0.13 -0.06 0.19 -0.06 0.13 -0.06 0.13 -0.06 0.19 -0.06 0.13 -0.06 0.19 -0.06 0.13 -0.06 0.19 -0.06 0.13 -0.06 0.19 -0.06 0.19 -0.06 0.19 -0.06 0.13 -0.06 0.19 -0.06 0.19 -0.06 0.19 -0.06 0.13 -0.06 0.19 -0.07 0.19 -0.06 0.19 -0.06 0.19 -0.06 0.19 -0.06 0.19 -0.06 0.19 -0.06 0.26 -0.06 0.19 -0.06 0.19 -0.06 0.19 -0.06 0.19 -0.06 0.26 -0.06 0.19 -0.06 0.19 -0.06 0.26 -0.06 0.19 -0.06 0.19 -0.06 0.26 -0.07 0.19 -0.06 0.26 -0.06 0.26 -0.06 0.19 -0.06 0.26 -0.06 0.26 -0.06 0.19 -0.06 0.26 -0.06 0.26 -0.06 0.26 -0.06 0.26 -0.06 0.26 -0.06 0.26 -0.06 0.26 -0.06 0.26 -0.07 0.26 -0.06 0.26 -0.06 0.32 -0.07 0.26 -0.06 0.26 -0.06 0.26 -0.06 0.32 -0.06 0.26 -0.06 0.32 -0.06 0.26 -0.06 0.32 -0.06 0.26 -0.06 0.32 -0.06 0.32 -0.06 0.32 -0.06 0.26 -0.06 0.32 -0.06 0.32 -0.07 0.32 -0.06 0.32 -0.06 0.32 -0.07 0.32 -0.06 0.39 -0.06 0.32 -0.06 0.32 -0.06 0.39 -0.06 0.32 -0.06 0.32 -0.06 0.39 -0.06 0.39 -0.06 0.39 -0.06c3.9,-0.65 7.87,-0.99 11.73,-1.8 -4.64,-0.26 -9.28,-0.2 -13.93,-0.06z"/>
   <path d="M59.31 0.26c0.82,0.14 1.62,0.2 2.45,0.26l0.84 0.06 0.84 0.06 0.77 0.06 0.71 0.07 0.71 0.06 0.71 0.06 0.64 0.06 0.64 0.06 0.64 0.06 0.64 0.06 0.58 0.06 0.52 0.06 0.58 0.06 0.52 0.06 0.52 0.06 0.58 0.06 0.52 0.06 0.45 0.06 0.52 0.06 0.45 0.06 0.45 0.06 0.45 0.07 0.39 0.06 0.45 0.06 0.39 0.06 0.39 0.06 0.45 0.06 0.39 0.06 0.39 0.06 0.32 0.06 0.39 0.06 0.39 0.06 0.32 0.06 0.32 0.06 0.39 0.06 0.32 0.06 0.32 0.06 0.32 0.06 0.32 0.06 0.32 0.06 0.26 0.06 0.32 0.06 0.32 0.06 0.26 0.06 0.26 0.06 0.32 0.06 0.26 0.06 0.26 0.06 0.32 0.06 0.19 0.06 0.26 0.06 0.26 0.06 0.26 0.06 0.26 0.06 0.26 0.06 0.19 0.06 0.26 0.06 0.19 0.06 0.26 0.06 0.19 0.06 0.26 0.07 0.19 0.06 0.26 0.06 0.19 0.06 0.19 0.06 0.19 0.06 0.19 0.06 0.19 0.06 0.26 0.06 0.13 0.06 0.19 0.06 0.19 0.07 0.19 0.06 0.19 0.06 0.13 0.06 0.19 0.06 0.19 0.06 0.13 0.06 0.19 0.07 0.13 0.06 0.19 0.06 0.19 0.06 0.13 0.06 0.13 0.06 0.19 0.06 0.13 0.06 0.19 0.06 0.13 0.06 0.13 0.06 0.13 0.07 0.19 0.06 0.13 0.06 0.13 0.06 0.13 0.07 0.13 0.06 0.13 0.06 0.13 0.07 0.13 0.06 0.13 0.06 0.13 0.06 0.06 0.06 0.13 0.06 0.13 0.06 0.13 0.06 0.13 0.06 0.06 0.06 0.13 0.06 0.13 0.07 0.13 0.06 0.06 0.06 0.13 0.06 0.06 0.06 0.13 0.06 0.06 0.06 0.13 0.06 0.06 0.06 0.13 0.06 0.06 0.06 0.13 0.06 0.06 0.06 0.06 0.06 0.13 0.06 0.06 0.07 0.06 0.06 0.13 0.06 0.06 0.07 0.06 0.06 0.06 0.06 0.06 0.06 0.13 0.06 0.06 0.06 0.06 0.06 0.06 0.06 0.06 0.06 0.06 0.06 0.06 0.06 0.06 0.06 0.06 0.06 0.06 0.06 0.06 0.06 0.06 0.07 0.06 0.06 0.06 0.06 0.06 0.07 0.06 0.13 0.06 0.06 0.06 0.06 0.06 0.06 0.06 0.13 0.06 0.06 0.06 0.06 0.06 0.13 0.06 0.06 0.06 0.13 0.06 0.13 0.06 0.06 0.06 0.13 0.06 0.13 0.06 0.13 0.06 0.13 0.06 0.13 0.06 0.13 0.06 0.19 0.06 0.19 0.06 0.19 0.06 0.26 0.06 0.39 0.06 0.71 0 1.03 -0.06 0.58 -0.06 0.32 -0.06 0.19 -0.06 0.19 -0.06 0.13 -0.06 0.19 -0.06 0.13 -0.06 0.13 -0.06 0.07 -0.06 0.13 -0.06 0.13 -0.06 0.06 -0.06 0.13 -0.06 0.06 -0.06 0.06 -0.06 0.13 -0.06 0.06 -0.06 0.06 -0.06 0.06 -0.06 0.13 -0.06 0.06 -0.06 0.07 -0.06 0.06 -0.06 0.06 -0.06 0.06 -0.06 0.06 -0.06 0.06 -0.06 0.06 -0.06 0.06 -0.13 0.06 -0.06 0.06 -0.06 0.06 -0.06 0.07 -0.06 0.06 -0.06 0.06 -0.06 0.06 -0.13 0.06 -0.06 0.06 -0.06 0.06 -0.13 0.07 -0.06 0.06 -0.06 0.06 -0.13 0.06 -0.06 0.06 -0.13 0.06 -0.06 0.06 -0.13 0.06 -0.06 0.06 -0.13 0.06 -0.06 0.06 -0.13 0.06 -0.06 0.06 -0.13 0.06 -0.13 0.06 -0.06 0.06 -0.13 0.06 -0.13 0.06 -0.06 0.06 -0.13 0.06 -0.13 0.06 -0.13 0.06 -0.13 0.06 -0.06 0.06 -0.13 0.06 -0.13 0.06 -0.13 0.06 -0.13 0.06 -0.13 0.06 -0.13 0.06 -0.13 0.06 -0.13 0.06 -0.13 0.06 -0.19 0.06 -0.13 0.06 -0.13 0.06 -0.13 0.06 -0.19 0.06 -0.13 0.06 -0.13 0.06 -0.13 0.06 -0.19 0.06 -0.13 0.06 -0.19 0.06 -0.13 0.06 -0.19 0.06 -0.13 0.06 -0.19 0.06 -0.13 0.06 -0.19 0.06 -0.13 0.07 -0.19 0.06 -0.13 0.06 -0.19 0.06 -0.19 0.06 -0.19 0.06 -0.19 0.06 -0.13 0.06 -0.19 0.06 -0.19 0.06 -0.19 0.06 -0.19 0.06 -0.19 0.06 -0.19 0.06 -0.19 0.06 -0.19 0.06 -0.19 0.06 -0.19 0.06 -0.19 0.07 -0.19 0.06 -0.26 0.06 -0.19 0.06 -0.26 0.06 -0.19 0.06 -0.26 0.06 -0.19 0.06 -0.19 0.06 -0.19 0.06 -0.26 0.06 -0.26 0.06 -0.19 0.06 -0.26 0.06 -0.26 0.06 -0.26 0.06 -0.19 0.06 -0.26 0.06 -0.26 0.07 -0.26 0.06 -0.26 0.06 -0.19 0.06 -0.26 0.06 -0.26 0.06 -0.26 0.06 -0.32 0.06 -0.26 0.06 -0.26 0.06 -0.26 0.06 -0.32 0.06 -0.26 0.06 -0.26 0.06 -0.32 0.06 -0.26 0.07 -0.32 0.06 -0.26 0.06 -0.32 0.07 -0.32 0.06 -0.26 0.06 -0.32 0.06 -0.32 0.06 -0.32 0.06 -0.32 0.06 -0.32 0.06 -0.32 0.06 -0.32 0.06 -0.32 0.06 -0.32 0.06 -0.32 0.06 -0.39 0.06 -0.32 0.06 -0.39 0.07 -0.32 0.06 -0.39 0.06 -0.39 0.07 -0.32 0.06 -0.39 0.06 -0.39 0.06 -0.39 0.06 -0.39 0.06 -0.39 0.06 -0.39 0.06 -0.39 0.06 -0.39 0.06 -0.45 0.06 -0.45 0.06 -0.39 0.06 -0.45 0.06 -0.39 0.06 -0.45 0.07 -0.45 0.06 -0.52 0.06 -0.45 0.07c-1.57,0.22 -3.14,0.46 -4.71,0.71l0.97 0.06 1.55 0.06 3.87 0.06 0.32 0 4.84 -0.06 2.32 -0.06 1.87 -0.06 1.42 -0.06 1.29 -0.06 1.23 -0.06 0.97 -0.06 1.03 -0.06 0.97 -0.06 0.84 -0.06 0.77 -0.06 0.84 -0.06 0.84 -0.06 0.71 -0.06 0.71 -0.07 0.64 -0.06 0.71 -0.06 0.64 -0.07 0.64 -0.06 0.58 -0.06 0.58 -0.06 0.58 -0.06 0.58 -0.06 0.58 -0.06 0.52 -0.06 0.58 -0.06 0.52 -0.06 0.45 -0.06 0.52 -0.06 0.52 -0.06 0.45 -0.06 0.45 -0.06 0.52 -0.07 0.39 -0.06 0.52 -0.06 0.39 -0.07 0.45 -0.06 0.39 -0.06 0.45 -0.06 0.32 -0.06 0.32 -0.06 0.32 -0.06 0.32 -0.06 0.26 -0.06 0.32 -0.06 0.26 -0.06 0.26 -0.06 0.26 -0.06 0.26 -0.06 0.26 -0.06 0.26 -0.07 0.19 -0.06 0.26 -0.06 0.19 -0.07 0.26 -0.06 0.19 -0.06 0.19 -0.06 0.26 -0.06 0.19 -0.06 0.19 -0.06 0.19 -0.06 0.19 -0.06 0.19 -0.06 0.19 -0.06 0.19 -0.06 0.19 -0.06 0.13 -0.06 0.19 -0.06 0.19 -0.07 0.19 -0.06 0.13 -0.06 0.19 -0.06 0.13 -0.06 0.19 -0.06 0.13 -0.06 0.19 -0.06 0.13 -0.06 0.19 -0.06 0.13 -0.06 0.19 -0.06 0.13 -0.06 0.13 -0.06 0.19 -0.06 0.13 -0.06 0.13 -0.06 0.13 -0.06 0.19 -0.07 0.13 -0.06 0.13 -0.06 0.13 -0.06 0.13 -0.06 0.13 -0.06 0.13 -0.06 0.19 -0.06 0.13 -0.06 0.13 -0.06 0.13 -0.06 0.13 -0.06 0.13 -0.06 0.13 -0.06 0.06 -0.06 0.13 -0.06 0.13 -0.06 0.13 -0.06 0.13 -0.07 0.13 -0.06 0.06 -0.06 0.13 -0.06 0.13 -0.06 0.13 -0.06 0.13 -0.06 0.06 -0.06 0.13 -0.06 0.13 -0.06 0.06 -0.06 0.13 -0.06 0.06 -0.06 0.13 -0.06 0.13 -0.06 0.06 -0.06 0.13 -0.06 0.06 -0.06 0.13 -0.06 0.06 -0.06 0.13 -0.06 0.06 -0.06 0.13 -0.06 0.06 -0.06 0.13 -0.06 0.06 -0.06 0.06 -0.06 0.13 -0.06 0.06 -0.06 0.13 -0.06 0.06 -0.06 0.06 -0.06 0.13 -0.06 0.06 -0.06 0.06 -0.06 0.06 -0.06 0.13 -0.06 0.06 -0.06 0.06 -0.06 0.06 -0.06 0.13 -0.06 0.06 -0.06 0.06 -0.06 0.06 -0.06 0.06 -0.06 0.06 -0.06 0.06 -0.06 0.13 -0.06 0.06 -0.06 0.06 -0.06 0.06 -0.07 0.06 -0.06 0.06 -0.06 0.06 -0.06 0.06 -0.06 0.06 -0.06 0.06 -0.06 0.06 -0.07 0.06 -0.06 0.06 -0.06 0.06 -0.06 0.06 -0.13 0.06 -0.06 0.06 -0.06 0.06 -0.06 0.06 -0.06 0.06 -0.06 0.06 -0.13 0.06 -0.06 0.06 -0.06 0.06 -0.13 0.06 -0.06 0.06 -0.06 0.06 -0.13 0.06 -0.06 0.06 -0.13 0.06 -0.06 0.06 -0.13 0.06 -0.06 0.06 -0.13 0.06 -0.13 0.06 -0.13 0.06 -0.13 0.06 -0.13 0.06 -0.19 0.06 -0.13 0.06 -0.13 0.06 -0.26 0.06 -0.19 0.06 -0.26 0.06 -0.32 0 -1.35 -0.06 -0.39 -0.06 -0.19 -0.06 -0.26 -0.06 -0.19 -0.06 -0.13 -0.06 -0.13 -0.06 -0.19 -0.06 -0.13 -0.06 -0.06 -0.06 -0.13 -0.06 -0.13 -0.06 -0.13 -0.06 -0.06 -0.06 -0.13 -0.06 -0.06 -0.06 -0.13 -0.06 -0.06 -0.06 -0.13 -0.06 -0.06 -0.06 -0.06 -0.06 -0.06 -0.06 -0.06 -0.06 -0.13 -0.06 -0.06 -0.06 -0.06 -0.06 -0.06 -0.06 -0.06 -0.06 -0.06 -0.06 -0.07 -0.06 -0.06 -0.06 -0.06 -0.06 -0.07 -0.06 -0.06 -0.06 -0.06 -0.06 -0.06 -0.06 -0.06 -0.06 -0.06 -0.06 -0.06 -0.06 -0.06 -0.06 -0.06 -0.06 -0.06 -0.13 -0.06 -0.06 -0.06 -0.06 -0.06 -0.06 -0.06 -0.13 -0.06 -0.06 -0.07 -0.06 -0.06 -0.06 -0.06 -0.13 -0.07 -0.06 -0.06 -0.13 -0.06 -0.06 -0.06 -0.06 -0.06 -0.13 -0.06 -0.06 -0.06 -0.13 -0.06 -0.06 -0.06 -0.13 -0.06 -0.06 -0.06 -0.13 -0.06 -0.06 -0.06 -0.13 -0.06 -0.06 -0.06 -0.13 -0.07 -0.06 -0.06 -0.13 -0.06 -0.13 -0.06 -0.13 -0.06 -0.06 -0.06 -0.13 -0.06 -0.13 -0.06 -0.13 -0.06 -0.06 -0.06 -0.13 -0.06 -0.13 -0.07 -0.13 -0.06 -0.13 -0.06 -0.13 -0.07 -0.13 -0.06 -0.13 -0.06 -0.13 -0.06 -0.13 -0.07 -0.13 -0.06 -0.13 -0.06 -0.13 -0.06 -0.13 -0.06 -0.13 -0.06 -0.13 -0.06 -0.13 -0.06 -0.13 -0.06 -0.19 -0.06 -0.13 -0.06 -0.13 -0.07 -0.19 -0.06 -0.13 -0.06 -0.13 -0.06 -0.13 -0.06 -0.19 -0.06 -0.13 -0.06 -0.19 -0.07 -0.19 -0.06 -0.19 -0.06 -0.13 -0.06 -0.19 -0.06 -0.19 -0.06 -0.19 -0.06 -0.19 -0.06 -0.19 -0.06 -0.19 -0.06 -0.19 -0.06 -0.19 -0.07 -0.19 -0.06 -0.19 -0.06 -0.19 -0.06 -0.19 -0.06 -0.26 -0.06 -0.19 -0.06 -0.19 -0.06 -0.26 -0.06 -0.19 -0.06 -0.19 -0.06 -0.26 -0.06 -0.26 -0.06 -0.19 -0.06 -0.26 -0.06 -0.26 -0.06 -0.19 -0.06 -0.26 -0.06 -0.26 -0.06 -0.26 -0.06 -0.26 -0.06 -0.26 -0.06 -0.26 -0.06 -0.26 -0.06 -0.26 -0.06 -0.32 -0.06 -0.32 -0.06 -0.26 -0.06 -0.32 -0.06 -0.26 -0.06 -0.39 -0.06 -0.32 -0.06 -0.39 -0.06 -0.39 -0.06 -0.32 -0.06 -0.45 -0.06 -0.45 -0.06 -0.52 -0.06 -0.58 -0.06 -0.64 -0.07 -0.58 -0.06 -0.64 -0.06 -0.58 -0.06 -0.64 -0.06 -0.58 -0.06 -0.64 -0.06 -0.64 -0.06 -0.64 -0.06 -0.64 -0.06 -0.64 -0.06 -0.64 -0.06 -0.71 -0.06 -0.71 -0.06 -0.64 -0.06 -0.71 -0.06 -0.77 -0.06 -0.77 -0.06 -0.77 -0.07 -0.77 -0.06 -0.77 -0.06 -0.9 -0.06 -0.97 -0.06 -0.9 -0.06 -0.97 -0.06 -1.16 -0.06 -1.22 -0.06 -1.35 -0.06 -1.68 -0.06 -2.58 -0.06c-3.66,0 -7.31,-0.06 -10.96,0.26z"/>
   <path d="M66.24 45.02c-0.14,0 -0.4,0.01 -0.47,0.15 -0.87,1.03 -2.12,3.31 -3.19,4.49 -0.28,0.31 -0.77,0.3 -1.14,0.14 -0.31,-0.14 -0.45,-0.36 -0.41,-0.76 0.71,-1.52 2.01,-3.04 2.99,-4.58 0.55,-0.75 0.64,-0.86 0.6,-1.13 -0.12,-0.55 -1.11,-1.59 -1.83,-2.63 -0.42,-0.67 -2.13,-2.33 -1.15,-2.92 0.31,-0.19 0.63,-0.24 0.95,-0.13 0.79,0.49 2.26,2.9 3.08,3.95 0.25,0.33 0.63,0.42 1.01,-0 0.77,-0.84 1.81,-2.87 2.68,-3.74 0.41,-0.29 0.85,-0.37 1.32,-0.08 0.16,0.11 0.25,0.26 0.28,0.44 0.13,0.66 -1.08,1.59 -3.28,4.95 -0.16,0.35 0.1,0.62 0.27,0.89 0.76,1.25 2.47,3.28 3.14,4.69 0.5,1.03 -0.68,1.5 -1.33,0.97 -0.07,-0.05 -0.14,-0.12 -0.21,-0.2 -0.8,-1.13 -1.93,-2.7 -2.67,-3.86 -0.26,-0.41 -0.38,-0.59 -0.65,-0.64zm-5.98 -5.51c1.03,1.53 1.99,2.52 2.91,3.85 0.05,0.07 0.08,0.06 0.04,0.14 -0.33,0.82 -1,1.39 -1.93,2.93 -0.85,1.2 -1.71,2.26 -1.3,3.38 0.14,0.28 0.29,0.52 0.48,0.69 0.28,0.26 0.6,0.39 0.86,0.46 0.73,0.2 1.24,0.17 2.07,-0.5 0.92,-1.03 2.22,-3.11 2.77,-3.85 0.94,1.21 2.05,3.49 3.27,4.26 1.75,0.68 3.63,-0.71 2.78,-2.52 -1.06,-1.89 -3.1,-4.57 -3.3,-4.94 0.64,-0.95 2.06,-2.67 2.86,-3.97 0.35,-0.56 0.47,-1.32 0.15,-1.92l-0.06 -0.13c-0.42,-0.64 -1.18,-1.01 -1.95,-0.94 -0.51,0.04 -0.97,0.22 -1.31,0.59 -0.71,0.7 -0.84,1.07 -2.43,3.29 -1.57,-2.04 -1.92,-3.07 -2.95,-3.65 -0.37,-0.17 -0.73,-0.24 -1.06,-0.23 -1.48,0.04 -2.47,1.64 -1.88,3.06z"/>
   <path d="M55.42 44.01c-1.9,-0.01 -4.55,-0.02 -6.12,0.01 -1.56,0.03 0.15,3.59 0.77,3.88 1.87,1.78 4.65,0.93 5.95,-0.63 0.65,-0.68 1.07,-0.89 1.43,-0.63 0.11,0.08 0.18,0.25 0.17,0.54 -0.11,0.69 -0.63,1.15 -1.14,1.57 -2.01,1.63 -6.39,1.28 -7.94,-0.11 -2.07,-2.12 -2.71,-6.9 -0.56,-9.18 3.14,-3.14 8.83,-2.35 9.79,2.33 0.39,1.96 -0.46,2.23 -2.34,2.22zm-9.97 -0.55c-0.07,4.61 2.49,7.52 7.2,7.62 2.13,0.04 5.35,-1.01 6.07,-3.56 0.31,-1.22 -0.66,-2.29 -1.93,-2.11 -0.79,0.13 -1.38,0.92 -1.97,1.43 -0.4,0.34 -0.9,0.64 -1.42,0.82 -0.91,0.18 -1.77,0.03 -2.36,-0.43 -0.58,-0.46 -0.97,-1.24 -1.09,-2.06l6.28 -0.02c1.33,-0.09 2.32,-0.45 2.64,-1.63 0.29,-1.17 -0.02,-2.63 -0.53,-3.66 -1.02,-2.04 -2.77,-3.01 -4.78,-3.31 -0.24,-0.03 -0.48,-0.06 -0.72,-0.08 -3.83,-0.36 -7.48,2.43 -7.37,6.99z"/>
   <path d="M54.6 42.09l-4.52 -0c0.67,-2.67 3.95,-2.87 4.52,0zm-5.22 1.18l5.93 0c0.44,-0 0.52,-0.41 0.51,-0.6 -0.11,-5.15 -6.64,-5.39 -7.07,-0.05 -0.01,0.18 0.13,0.7 0.63,0.65z"/>
   <path d="M104.21 33.31l0.9 0c0.29,0 0.64,0.12 0.64,0.39l0 0.32c0,0.49 -1.2,0.39 -1.55,0.39l0 -1.1zm-0.84 -0.23l0 3.41c0,0.03 0,0.05 0.02,0.08 0.05,0.09 0.09,0.14 0.18,0.19 0.04,0.03 0.06,0.03 0.11,0.03l0.28 0c0.04,0 0.06,-0 0.1,-0.02 0.06,-0.03 0.1,-0.07 0.13,-0.13 0.02,-0.04 0.02,-0.06 0.02,-0.1l0 -1.5c0.35,0.04 0.62,0.01 0.86,0.32 0.33,0.41 0.56,0.89 0.88,1.3 0.17,0.17 0.43,0.19 0.6,0.08 0.17,-0.11 0.18,-0.26 0.12,-0.43 -0.16,-0.49 -0.68,-1.14 -0.92,-1.39l0.13 -0.06c1.13,-0.38 0.97,-1.91 -0.19,-2.19l-1.94 0c-0.05,0 -0.07,0.01 -0.11,0.03 -0.11,0.06 -0.17,0.13 -0.23,0.23 -0.03,0.06 -0.03,0.09 -0.03,0.15z"/>
  </g>
 </g>
</svg>
