<svg width="32" height="32" viewBox="0 0 32 32" fill="none" xmlns="http://www.w3.org/2000/svg">
<path fill-rule="evenodd" clip-rule="evenodd" d="M16.3125 31.9939L12.8191 28.5616L19.434 21.8287C20.2597 20.9883 21.0424 20.0908 21.6282 19.1259C22.3007 18.0184 22.6076 17.1272 22.5882 15.919C22.5608 14.2185 21.607 12.5939 20.182 11.2L18.6354 9.68715L12.2928 3.45569L15.6877 0.000270457L23.6349 7.82474C25.4929 9.5024 26.73 11.5288 27.1854 13.8531C27.3353 14.6184 27.3555 15.1332 27.3665 15.8782C27.4204 19.5362 26.1271 22.0036 24.026 24.1424L20.2825 27.9531L16.3125 31.994L16.3125 31.9939Z" fill="#FE5840" fill-opacity="0.65"/>
<path fill-rule="evenodd" clip-rule="evenodd" d="M18.3313 13.6259L18.3579 18.3095L5.57478 18.2711L5.63333 13.706L18.3313 13.6259Z" fill="#FE5840" fill-opacity="0.65"/>
</svg>
