<svg width="34" height="25" viewBox="0 0 34 25" fill="none" xmlns="http://www.w3.org/2000/svg">
<path d="M13.6322 17.8416V7.61074L22.4704 12.7268L13.6322 17.8416ZM33.2908 4.39014C32.8916 2.89745 31.7642 1.74322 30.3311 1.33476L30.3007 1.32788C26.7007 0.862058 22.5369 0.595874 18.3112 0.595874C17.8816 0.595874 17.4532 0.598168 17.0259 0.603905L17.0913 0.602758C16.7282 0.598169 16.3009 0.594727 15.8713 0.594727C11.6456 0.594727 7.47958 0.86091 3.39024 1.37607L3.87956 1.32559C2.41723 1.74207 1.28976 2.89515 0.898532 4.35802L0.891767 4.38785C0.440779 6.8076 0.183716 9.59221 0.183716 12.4376C0.183716 12.5386 0.183716 12.6396 0.184843 12.7394V12.7233C0.184843 12.8082 0.183716 12.9092 0.183716 13.0101C0.183716 15.8556 0.441907 18.639 0.934611 21.3387L0.891767 21.0588C1.29089 22.5515 2.41836 23.7057 3.85138 24.1142L3.88182 24.121C7.48183 24.5869 11.6456 24.853 15.8713 24.853C16.2998 24.853 16.7282 24.8507 17.1567 24.845L17.0913 24.8462C17.4543 24.8507 17.8827 24.8542 18.3112 24.8542C22.5381 24.8542 26.7029 24.588 30.7923 24.0728L30.303 24.1233C31.7664 23.708 32.8939 22.5538 33.2862 21.0909L33.293 21.0611C33.7429 18.6413 33.9999 15.8567 33.9999 13.0124C33.9999 12.9115 33.9999 12.8105 33.9988 12.7107V12.7256C33.9988 12.6407 33.9999 12.5397 33.9999 12.4388C33.9999 9.59335 33.7417 6.80989 33.249 4.11019L33.2908 4.39014Z" fill="white"/>
</svg>
