
<svg xmlns="http://www.w3.org/2000/svg" xml:space="preserve" width="200mm" height="49.1228mm" version="1.1" style="shape-rendering:geometricPrecision; text-rendering:geometricPrecision; image-rendering:optimizeQuality; fill-rule:evenodd; clip-rule:evenodd"
viewBox="0 0 1663.81 408.65">
 <g id="Layer_x0020_1">
  <metadata id="CorelCorpID_0Corel-Layer"/>
  <g id="_2987557660368">
   <path fill="#FEFEFE" d="M34.57 34.57l101.4 0 0 125.21c0,2.89 47.92,49.07 50.89,52.04 3.01,3.01 51.27,49.55 51.27,52.43l0 109.85 -203.56 0 0 -339.52zm135.96 110.61l0 -110.61 203.56 0 0 339.52 -101.4 0 0 -124.44c0,-2.89 -47.92,-49.07 -50.89,-52.04 -3.01,-3.01 -51.27,-49.55 -51.27,-52.43zm-170.53 263.47l408.65 0 0 -408.65 -408.65 0 0 408.65z"/>
   <path fill="#FEFEFE" d="M1036.23 271.16l139.03 0 0 -23.81 -109.84 0c-1.77,0 -2.3,-0.53 -2.3,-2.3l0 -30.73 104.47 0c1.77,0 2.3,-0.53 2.3,-2.3l0 -22.28 -106.77 0 0 -26.12c0,-1.77 0.53,-2.3 2.3,-2.3l109.84 0 0 -23.81 -139.03 0 0 133.66z"/>
   <path fill="#FEFEFE" d="M1520.93 200.49l-0.01 -31.5c-0.03,-3.67 -1.12,-8.44 2.31,-8.44l79.89 0c10.48,0 22.28,5.21 22.28,15.36 0,11.47 1.73,14.58 -5.84,20.27 -9.34,7.02 -27.67,5.08 -40.24,5.08 -5.85,0 -52.75,0.54 -58.38,-0.77zm-27.65 70.67l28.42 0c-2.54,-4.53 0.67,-65.64 -0.77,-69.13 2.28,0.61 40.13,27.04 47.32,31.8 4.19,2.78 52.42,36.71 55.69,37.26l39.87 0.07 -63.6 -43.17c-1.71,-1.14 -2.9,-1.95 -4.62,-3.06 -2.13,-1.37 -3.23,-1.62 -3.98,-3.7 20.45,0 27.26,0.26 41.23,-7.16 10.24,-5.44 19.45,-17.83 19.45,-29.71 0,-16.69 -1.26,-25.29 -15.25,-36.22 -7.71,-6.03 -20.33,-10.64 -33.91,-10.64l-109.85 0 0 133.66z"/>
   <polygon fill="#FEFEFE" points="809.63,271.16 948.66,271.16 948.66,247.34 836.51,247.34 836.51,214.31 942.52,214.31 942.52,189.73 836.51,189.73 836.51,161.31 948.66,161.31 948.66,137.5 809.63,137.5 "/>
   <path fill="#FEFEFE" d="M571.5 160.54l99.09 0c-3.3,4.93 -9.31,8.91 -13.06,13.83 -4.75,6.23 -11.2,11.16 -16.31,16.72 -0.7,0.76 -0.82,0.93 -1.43,1.65 -9.32,11.06 -27.95,28.02 -37.79,39.79l-10.34 10.4c-4.27,4.27 -24.54,24.88 -26.31,28.23l156.7 0 0 -23.04 -99.86 0 87.49 -91.49c0.01,-0.01 1.01,-1.15 1.08,-1.22 1.3,-1.43 2.07,-2.16 3.41,-3.5 3.1,-3.09 10.8,-10.74 13.25,-14.4l-155.93 0 0 23.04z"/>
   <path fill="#FEFEFE" d="M1263.6 271.16l27.65 0 0 -68.37 91.41 64.53c2.87,1.9 4.3,3.8 9.17,3.89l39.22 -0.05c-1.87,-2.56 -44.96,-32.09 -48.84,-34.89l-42.79 -30.18c-2.07,-1.56 -4.16,-3.38 -6.7,-4.06 2.62,-3.58 92.63,-60.94 95.25,-64.52l-36.89 -0.02c-6.39,-0.07 -6.3,0.44 -9.96,3.1 -15.78,11.45 -42.73,29 -59.61,40.25 -10.39,6.93 -20.08,13.61 -30.27,20.43l0 -63.76 -27.65 0 0 133.66z"/>
  </g>
 </g>
</svg>
