
<!-- Creator: CorelDRAW 2020 (64-Bit) -->
<svg xmlns="http://www.w3.org/2000/svg" xml:space="preserve" width="391.149mm" height="255.696mm" version="1.1"
     style="shape-rendering:geometricPrecision; text-rendering:geometricPrecision; image-rendering:optimizeQuality; fill-rule:evenodd; clip-rule:evenodd"
     viewBox="0 0 4325.81 2827.81">
    <g id="Layer_x0020_1">
  <metadata id="CorelCorpID_0Corel-Layer"/>
        <polygon fill="none" fill-rule="nonzero" stroke="#FEFEFE" stroke-width="3.75" stroke-linejoin="round"
                 stroke-miterlimit="22.9256" points="936.62,355.14 1005.53,638.94 551.44,749.19 482.53,465.4 "/>
        <polygon fill="none" fill-rule="nonzero" stroke="#FEFEFE" stroke-width="3.75" stroke-linejoin="round"
                 stroke-miterlimit="22.9256" points="1723.8,395.44 1733.21,511.8 1966.09,492.97 1956.69,376.62 "/>
        <polygon fill="none" fill-rule="nonzero" stroke="#FEFEFE" stroke-width="3.75" stroke-linejoin="round"
                 stroke-miterlimit="22.9256" points="1491.18,414.32 1500.59,530.68 1733.48,511.85 1724.07,395.5 "/>
        <polygon fill="none" fill-rule="nonzero" stroke="#FEFEFE" stroke-width="3.75" stroke-linejoin="round"
                 stroke-miterlimit="22.9256" points="1154.82,200.95 1154.82,25.73 1339.19,25.72 1339.19,200.94 "/>
        <polygon fill="none" fill-rule="nonzero" stroke="#FEFEFE" stroke-width="3.75" stroke-linejoin="round"
                 stroke-miterlimit="22.9256" points="1339.19,25.73 1573.57,25.73 1573.56,200.95 1339.19,200.95 "/>
        <polygon fill="none" fill-rule="nonzero" stroke="#FEFEFE" stroke-width="3.75" stroke-linejoin="round"
                 stroke-miterlimit="22.9256" points="4056.81,778.07 4169.47,747.5 4215.35,916.63 4102.69,947.19 "/>
        <polygon fill="none" fill-rule="nonzero" stroke="#FEFEFE" stroke-width="3.75" stroke-linejoin="round"
                 stroke-miterlimit="22.9256" points="4020.19,2357.18 3989.03,2244.68 3820.16,2291.43 3851.3,2403.93 "/>
        <polygon fill="none" fill-rule="nonzero" stroke="#FEFEFE" stroke-width="3.75" stroke-linejoin="round"
                 stroke-miterlimit="22.9256" points="3749.31,543.27 3780.46,430.77 3949.34,477.53 3918.19,590.03 "/>
        <polygon fill="none" fill-rule="nonzero" stroke="#FEFEFE" stroke-width="3.75" stroke-linejoin="round"
                 stroke-miterlimit="22.9256" points="943.48,2497.02 1012.39,2213.22 558.3,2102.96 489.39,2386.76 "/>
        <polygon fill="none" fill-rule="nonzero" stroke="#FEFEFE" stroke-width="3.75" stroke-linejoin="round"
                 stroke-miterlimit="22.9256" points="2082.68,2702.33 2316.33,2702.33 2316.33,2527.12 2082.68,2527.12 "/>
        <polygon fill="none" fill-rule="nonzero" stroke="#FEFEFE" stroke-width="3.75" stroke-linejoin="round"
                 stroke-miterlimit="22.9256" points="2082.68,140.34 2316.33,140.34 2316.33,315.55 2082.68,315.55 "/>
        <polygon fill="none" fill-rule="nonzero" stroke="#FEFEFE" stroke-width="3.75" stroke-linejoin="round"
                 stroke-miterlimit="22.9256" points="1491.04,2435.34 1500.46,2318.98 1733.21,2337.8 1723.8,2454.15 "/>
        <polygon fill="none" fill-rule="nonzero" stroke="#FEFEFE" stroke-width="3.75" stroke-linejoin="round"
                 stroke-miterlimit="22.9256" points="1723.8,2454.15 1733.21,2337.8 1966.09,2356.63 1956.69,2472.98 "/>
        <polygon fill="none" fill-rule="nonzero" stroke="#FEFEFE" stroke-width="3.75" stroke-linejoin="round"
                 stroke-miterlimit="22.9256" points="2442.78,2352.39 2452.19,2468.74 2684.93,2449.93 2675.53,2333.58 "/>
        <polygon fill="none" fill-rule="nonzero" stroke="#FEFEFE" stroke-width="3.75" stroke-linejoin="round"
                 stroke-miterlimit="22.9256" points="2675.53,2333.58 2684.94,2449.93 2917.69,2431.12 2908.28,2314.76 "/>
        <polygon fill="none" fill-rule="nonzero" stroke="#FEFEFE" stroke-width="3.75" stroke-linejoin="round"
                 stroke-miterlimit="22.9256" points="3682.42,2450.7 3651.27,2338.2 3482.39,2384.96 3513.54,2497.45 "/>
        <polygon fill="none" fill-rule="nonzero" stroke="#FEFEFE" stroke-width="3.75" stroke-linejoin="round"
                 stroke-miterlimit="22.9256" points="3851.3,2403.94 3820.15,2291.43 3651.27,2338.19 3682.42,2450.69 "/>
        <polygon fill="none" fill-rule="nonzero" stroke="#FEFEFE" stroke-width="3.75" stroke-linejoin="round"
                 stroke-miterlimit="22.9256" points="3611.32,384.22 3580.17,496.72 3411.29,449.96 3442.44,337.46 "/>
        <polygon fill="none" fill-rule="nonzero" stroke="#FEFEFE" stroke-width="3.75" stroke-linejoin="round"
                 stroke-miterlimit="22.9256" points="3780.2,430.98 3749.05,543.48 3580.17,496.73 3611.32,384.22 "/>
        <polygon fill="none" fill-rule="nonzero" stroke="#FEFEFE" stroke-width="3.75" stroke-linejoin="round"
                 stroke-miterlimit="22.9256" points="4010.93,608.94 4123.59,578.38 4169.47,747.5 4056.81,778.06 "/>
        <polygon fill="none" fill-rule="nonzero" stroke="#FEFEFE" stroke-width="3.75" stroke-linejoin="round"
                 stroke-miterlimit="22.9256" points="3092.33,2796.95 3092.34,2613.16 3340.05,2613.14 3340.04,2796.94 "/>
        <polygon fill="none" fill-rule="nonzero" stroke="#FEFEFE" stroke-width="3.75" stroke-linejoin="round"
                 stroke-miterlimit="22.9256" points="2846.57,2796.95 2846.58,2613.16 3094.29,2613.14 3094.28,2796.94 "/>
        <polygon fill="none" fill-rule="nonzero" stroke="#FEFEFE" stroke-width="3.75" stroke-linejoin="round"
                 stroke-miterlimit="22.9256" points="4267.7,1435.95 4141.46,1435.93 4141.45,1059.81 4267.7,1059.81 "/>
        <polygon fill="none" fill-rule="nonzero" stroke="#FEFEFE" stroke-width="3.75" stroke-linejoin="round"
                 stroke-miterlimit="22.9256" points="4267.7,1812.08 4141.46,1812.06 4141.45,1435.94 4267.7,1435.95 "/>
        <polygon fill="none" fill-rule="nonzero" stroke="#FEFEFE" stroke-width="3.75" stroke-linejoin="round"
                 stroke-miterlimit="22.9256" points="3094.77,25.72 3340.05,25.72 3340.04,206.71 3094.77,206.71 "/>
        <polygon fill="none" fill-rule="nonzero" stroke="#FEFEFE" stroke-width="3.75" stroke-linejoin="round"
                 stroke-miterlimit="22.9256" points="2441.39,499.65 2454.24,384.35 2673.2,403.05 2661.34,519.44 "/>
        <polygon fill="none" fill-rule="nonzero" stroke="#FEFEFE" stroke-width="3.75" stroke-linejoin="round"
                 stroke-miterlimit="22.9256" points="2661.34,519.44 2673.2,403.05 2905.44,422.43 2893.58,538.81 "/>
        <polygon fill="none" fill-rule="nonzero" stroke="#FEFEFE" stroke-width="3.75" stroke-linejoin="round"
                 stroke-miterlimit="22.9256" points="2849.05,25.72 3094.32,25.72 3094.32,206.71 2849.04,206.71 "/>
        <polygon fill="none" fill-rule="nonzero" stroke="#FEFEFE" stroke-width="3.75" stroke-linejoin="round"
                 stroke-miterlimit="22.9256" points="4049.45,2072.84 4162.11,2103.4 4207.99,1934.29 4095.33,1903.72 "/>
        <polygon fill="none" fill-rule="nonzero" stroke="#FEFEFE" stroke-width="3.75" stroke-linejoin="round"
                 stroke-miterlimit="22.9256" points="4003.57,2241.98 4116.23,2272.53 4162.11,2103.41 4049.45,2072.85 "/>
        <polygon fill="none" fill-rule="nonzero" stroke="#FEFEFE" stroke-width="3.75" stroke-linejoin="round"
                 stroke-miterlimit="22.9256" points="1121.83,2797.83 1121.84,2613.16 1311.43,2613.14 1311.42,2797.83 "/>
        <polygon fill="none" fill-rule="nonzero" stroke="#FEFEFE" stroke-width="3.75" stroke-linejoin="round"
                 stroke-miterlimit="22.9256" points="1311.43,2613.15 1552.43,2613.15 1552.42,2797.83 1311.42,2797.83 "/>
        <polygon fill="none" fill-rule="nonzero" stroke="#FEFEFE" stroke-width="3.75" stroke-linejoin="round"
                 stroke-miterlimit="22.9256" points="406.34,1905.52 359.69,1728.52 1.87,1822.84 48.53,1999.84 "/>
        <polygon fill="none" fill-rule="nonzero" stroke="#FEFEFE" stroke-width="3.75" stroke-linejoin="round"
                 stroke-miterlimit="22.9256" points="411.43,949.92 364.77,1126.92 6.96,1032.6 53.61,855.6 "/>
        <polygon fill="none" fill-rule="nonzero" stroke="#FEFEFE" stroke-width="3.75" stroke-linejoin="round"
                 stroke-miterlimit="22.9256" points="692.48,1811.8 996.31,1811.8 996.31,1560.71 692.48,1560.71 "/>
        <polygon fill="none" fill-rule="nonzero" stroke="#FEFEFE" stroke-width="3.75" stroke-linejoin="round"
                 stroke-miterlimit="22.9256" points="1182.03,1354.52 1485.86,1354.52 1485.86,989.49 1182.03,989.49 "/>
        <polygon fill="none" fill-rule="nonzero" stroke="#FEFEFE" stroke-width="3.75" stroke-linejoin="round"
                 stroke-miterlimit="22.9256" points="1182.03,1876.58 1485.86,1876.58 1485.86,1511.54 1182.03,1511.54 "/>
        <polygon fill="none" fill-rule="nonzero" stroke="#FEFEFE" stroke-width="3.75" stroke-linejoin="round"
                 stroke-miterlimit="22.9256" points="1612.83,1871.18 1860.5,1871.18 1860.5,1380.18 1612.83,1380.18 "/>
        <polygon fill="none" fill-rule="nonzero" stroke="#FEFEFE" stroke-width="3.75" stroke-linejoin="round"
                 stroke-miterlimit="22.9256" points="2014.36,1876.04 2318.19,1876.04 2318.19,1381.9 2014.36,1381.9 "/>
        <polygon fill="none" fill-rule="nonzero" stroke="#FEFEFE" stroke-width="3.75" stroke-linejoin="round"
                 stroke-miterlimit="22.9256" points="2480.93,1871.18 2784.76,1871.18 2784.76,1377.05 2480.93,1377.05 "/>
        <polygon fill="none" fill-rule="nonzero" stroke="#FEFEFE" stroke-width="3.75" stroke-linejoin="round"
                 stroke-miterlimit="22.9256" points="2568.68,1200.52 3244.53,1200.52 3244.53,949.43 2568.68,949.43 "/>
        <polygon fill="none" fill-rule="nonzero" stroke="#FEFEFE" stroke-width="3.75" stroke-linejoin="round"
                 stroke-miterlimit="22.9256" points="2971.23,1871.18 3275.06,1871.18 3275.06,1366.11 2971.23,1366.11 "/>
        <polygon fill="none" fill-rule="nonzero" stroke="#FEFEFE" stroke-width="3.75" stroke-linejoin="round"
                 stroke-miterlimit="22.9256" points="3403.88,1320.86 3707.71,1320.86 3707.71,1069.78 3403.88,1069.78 "/>
        <polygon fill="none" fill-rule="nonzero" stroke="#FEFEFE" stroke-width="3.75" stroke-linejoin="round"
                 stroke-miterlimit="22.9256" points="3403.88,1751.4 3707.71,1751.4 3707.71,1500.3 3403.88,1500.3 "/>
        <polygon fill="none" fill-rule="nonzero" stroke="#FEFEFE" stroke-width="3.75" stroke-linejoin="round"
                 stroke-miterlimit="22.9256" points="692.48,1354.52 1033.47,1354.52 1033.47,1072.72 692.48,1072.72 "/>
        <g>
   <path fill-rule="nonzero" fill="#FEFEFE"
         d="M2411.53 1202.11l-397.17 0 0 -3.18 397.17 0 1.87 1.59 -1.87 1.59zm0 -3.18c1.03,0 1.87,0.71 1.87,1.59 0,0.88 -0.84,1.59 -1.87,1.59l0 -3.18zm1.87 -249.5l0 251.09 -3.75 0 0 -251.09 1.87 -1.59 1.87 1.59zm-3.75 0c0,-0.88 0.84,-1.59 1.87,-1.59 1.03,0 1.87,0.71 1.87,1.59l-3.75 0zm-395.29 -1.59l397.17 0 0 3.18 -397.17 0 -1.87 -1.59 1.87 -1.59zm0 3.18c-1.03,0 -1.87,-0.71 -1.87,-1.59 0,-0.88 0.84,-1.59 1.87,-1.59l0 3.18zm-1.87 249.5l0 -251.09 3.75 0 0 251.09 -1.87 1.59 -1.87 -1.59zm3.75 0c0,0.88 -0.84,1.59 -1.87,1.59 -1.03,0 -1.87,-0.71 -1.87,-1.59l3.75 0z"/>
  </g>
        <g>
   <path fill-rule="nonzero" fill="#FEFEFE"
         d="M1933.62 1202.39l-320.79 0 0 -3.75 320.79 0 0.88 1.87 -0.88 1.87zm0 -3.75c0.49,0 0.88,0.84 0.88,1.87 0,1.03 -0.39,1.87 -0.88,1.87l0 -3.75zm0.88 -249.22l0 251.09 -1.76 0 0 -251.09 0.88 -1.87 0.88 1.87zm-1.76 0c0,-1.03 0.39,-1.87 0.88,-1.87 0.49,0 0.88,0.84 0.88,1.87l-1.76 0zm-319.91 -1.87l320.79 0 0 3.75 -320.79 0 -0.88 -1.87 0.88 -1.87zm0 3.75c-0.49,0 -0.88,-0.84 -0.88,-1.87 0,-1.03 0.39,-1.87 0.88,-1.87l0 3.75zm-0.88 249.22l0 -251.09 1.76 0 0 251.09 -0.88 1.87 -0.88 -1.87zm1.76 0c0,1.03 -0.39,1.87 -0.88,1.87 -0.49,0 -0.88,-0.84 -0.88,-1.87l1.76 0z"/>
  </g>
        <polygon fill="none" stroke="#FEFEFE" stroke-width="1.87" stroke-miterlimit="22.9256"
                 points="645.26,1854.4 559.87,1558.46 559.87,1290.96 645.26,995.01 1091.31,887.47 1536.75,817.02 1983.32,782.1 2425.48,782.1 2874.97,817.37 3317.5,887.47 3753.14,992.08 3805.74,1284.66 3805.74,1564.76 3754.99,1849.95 3317.5,1961.95 2874.97,2032.06 2431.36,2067.07 1980.38,2067.19 1530.91,2031.7 1088.42,1961.37 "/>
        <polygon fill="none" stroke="#FEFEFE" stroke-width="1.87" stroke-miterlimit="22.9256"
                 points="463.25,2033.79 352.01,1613.15 352.01,1236.32 472.39,812.18 951.51,667.93 1454,568.7 1957.77,519.51 2456.57,519.51 2963.62,569.18 3462.83,667.93 3954.27,815.29 4013.61,1227.44 4013.61,1622.02 3956.36,2023.76 3462.83,2181.53 2963.62,2280.29 2449.54,2322.8 1977.86,2320.03 1447.41,2279.8 1034.2,2177.3 "/>
        <polyline fill="none" stroke="#FEFEFE" stroke-width="7.49" stroke-linecap="round" stroke-linejoin="round"
                  stroke-miterlimit="22.9256"
                  points="54.33,2024.79 402.86,1933.98 438.71,2063.38 527.15,2090.5 448.83,2400.97 1094.89,2566.74 1095.48,2822.6 1576.25,2820.39 1576.25,2651.95 2064.75,2650.66 2064.76,2723.96 2334.41,2723.52 2334.09,2650.17 2827.06,2651.95 2827.06,2821.54 3360.01,2824.06 3360.38,2560.47 4132.74,2344.98 4261,1976.12 4322.06,1634.03 4322.06,1215.39 4261,873.3 4130.26,497.35 3366.41,286 3361.28,4.08 2823.74,4.08 2823.74,203.85 2334.08,203.85 2334.41,124.93 2067.19,124.93 2066.77,200.86 1598.5,200.63 1597.63,4.36 1131.78,3.74 1129.16,277.35 449.52,450.02 524.64,755.54 457.77,777.81 411.26,927.33 56.62,832.65 "/>
        <polygon fill="none" stroke="#FEFEFE" stroke-width="1.87" stroke-miterlimit="22.9256"
                 points="629.68,1862.12 543.43,1560.86 543.43,1288.56 629.68,987.3 1080.24,877.83 1530.2,806.12 1981.29,770.57 2427.94,770.57 2881.98,806.47 3329,877.83 3769.05,984.31 3822.19,1282.14 3822.19,1567.27 3770.93,1857.58 3329,1971.59 2881.98,2042.96 2433.88,2078.6 1978.32,2078.72 1524.3,2042.6 1077.33,1971.01 "/>
        <polygon fill="none" stroke="#FEFEFE" stroke-width="1.87" stroke-miterlimit="22.9256"
                 points="478.14,2023.26 367.87,1609.85 367.87,1239.49 487.2,822.64 962.17,680.87 1460.31,583.34 1959.72,535 2454.2,535 2956.86,583.82 3451.75,680.87 3938.93,825.7 3997.75,1230.77 3997.75,1618.57 3941,2013.41 3451.75,2168.47 2956.86,2265.53 2447.24,2307.3 1979.63,2304.59 1453.78,2265.04 1044.14,2164.31 "/>
        <polygon class="fil3" fill-rule="nonzero" fill="#FEFEFE"
                 points="755.22,576.33 747.24,576.33 747.24,541.48 738.69,551.6 732.85,545.99 748.14,527.99 755.22,527.99 "/>
        <path class="fil3" fill-rule="nonzero" fill="#FEFEFE"
              d="M1269.49 105.24c0,4.76 -1.61,8.75 -4.83,11.97 -1.2,1.16 -2.87,2.44 -5,3.82 -2.14,1.39 -4.7,2.85 -7.7,4.38l-9.22 4.67 23.55 0 0 7.98 -39.01 0 0 -9.19 20.85 -10.54c5.25,-2.62 8.67,-4.67 10.29,-6.17 2.06,-1.94 3.09,-4.31 3.09,-7.11 0,-0.67 -0.32,-1.4 -0.95,-2.19 -0.64,-0.79 -1.58,-1.68 -2.86,-2.69 -3.22,-2.39 -6.74,-3.59 -10.55,-3.59 -3.59,0 -7.02,1.08 -10.27,3.23 -1.54,0.99 -2.61,2.03 -3.25,3.11 -0.75,1.26 -1.12,2.89 -1.12,4.9l-7.98 -0.62c0,-2.76 0.52,-5.16 1.55,-7.2 1.03,-2.03 2.71,-4 5.03,-5.91 4.57,-3.66 9.91,-5.49 16.02,-5.49 3,0 5.77,0.43 8.32,1.29 1.42,0.45 2.71,0.98 3.85,1.6 1.14,0.62 2.33,1.43 3.57,2.44 4.42,3.49 6.63,7.25 6.63,11.3z"/>
        <path class="fil3" fill-rule="nonzero" fill="#FEFEFE"
              d="M1478.83 121.95c0,1.95 -0.54,3.88 -1.63,5.79 -1.09,1.91 -2.77,3.77 -5.06,5.56 -4.68,3.56 -10.02,5.34 -16.02,5.34 -6.18,0 -11.54,-2.01 -16.08,-6.02 -2.1,-1.84 -3.64,-3.76 -4.64,-5.76 -0.99,-2.01 -1.49,-4.32 -1.49,-6.94l7.98 -0.62c0,1.84 0.3,3.32 0.9,4.44 0.6,1.12 1.6,2.25 3.01,3.37 1.41,1.12 3.01,1.99 4.81,2.58 1.72,0.64 3.56,0.96 5.51,0.96 3.93,0 7.51,-1.16 10.74,-3.48 1.31,-0.93 2.3,-1.81 2.98,-2.63 0.67,-0.82 1.01,-1.64 1.01,-2.46 0,-2.39 -1.05,-4.19 -3.15,-5.41 -2.1,-1.21 -5.25,-1.82 -9.44,-1.82l-6.35 0 0 -7.98 6.24 0c3,0 5.53,-0.54 7.59,-1.62 0.83,-0.49 1.45,-0.97 1.88,-1.45 0.43,-0.49 0.65,-1.05 0.65,-1.68 0,-0.75 -0.33,-1.47 -0.98,-2.15 -0.66,-0.69 -1.6,-1.35 -2.84,-1.99 -2.55,-1.3 -5.23,-1.96 -8.04,-1.96 -1.24,0 -2.45,0.12 -3.63,0.37 -1.18,0.24 -2.43,0.64 -3.74,1.2 -1.31,0.55 -2.3,1.19 -2.98,1.89 -0.79,0.85 -1.46,2.1 -2.02,3.74l-7.53 -2.8c0.6,-2.16 1.46,-3.95 2.59,-5.38 1.12,-1.41 2.7,-2.69 4.72,-3.8 3.78,-2.13 7.94,-3.2 12.48,-3.2 5.25,0 9.8,1.27 13.66,3.81 2.02,1.35 3.58,2.87 4.66,4.55 1.09,1.68 1.63,3.53 1.63,5.55 0,1.28 -0.21,2.45 -0.65,3.53 -0.43,1.09 -1.1,2.15 -2,3.2l-1.46 1.4c1.35,0.83 2.55,1.87 3.6,3.15 0.52,0.64 1.05,1.48 1.57,2.53 0.34,0.67 0.58,1.2 0.73,1.57 0.52,1.46 0.79,3 0.79,4.6z"/>
        <path class="fil3" fill-rule="nonzero" fill="#FEFEFE"
              d="M1634.53 479.68l-9.16 0 0 7.59 -7.98 0 0 -7.59 -27.26 0 0 -7.8 28.22 -32.95 7.02 0 0 32.77 9.16 0 0 7.98zm-17.14 -7.98l0 -19.34 -16.47 19.34 16.47 0z"/>
        <path class="fil3" fill-rule="nonzero" fill="#FEFEFE"
              d="M1867.43 452.24c0,1.99 -0.54,3.91 -1.6,5.76 -1.07,1.86 -2.73,3.66 -4.97,5.42 -4.57,3.67 -9.84,5.51 -15.79,5.51 -3,0 -5.83,-0.46 -8.49,-1.38 -2.66,-0.92 -5.15,-2.29 -7.48,-4.1 -2.32,-1.82 -4.01,-3.77 -5.06,-5.84 -1.05,-2.08 -1.57,-4.54 -1.57,-7.39l7.98 -0.62c0,2.02 0.34,3.62 1.01,4.78 0.68,1.16 1.77,2.27 3.31,3.32 3.18,2.17 6.62,3.26 10.32,3.26 3.89,0 7.38,-1.2 10.49,-3.6 2.58,-1.91 3.87,-3.58 3.87,-5 0,-2.77 -1.48,-4.82 -4.44,-6.13 -1.24,-0.6 -2.66,-1.03 -4.27,-1.29 -1.61,-0.26 -3.58,-0.39 -5.9,-0.39l-19.67 0 0 -25.07 39.06 0 0 7.98 -31.08 0 0 9.11 11.65 0c6.34,0 11.34,0.99 14.98,2.98 5.11,2.74 7.65,6.97 7.65,12.7z"/>
        <path class="fil3" fill-rule="nonzero" fill="#FEFEFE"
              d="M2223.36 236.55c0,1.95 -0.55,3.88 -1.66,5.79 -1.11,1.91 -2.75,3.71 -4.92,5.4 -4.46,3.67 -9.72,5.51 -15.79,5.51 -7.16,0 -13.25,-2.6 -18.27,-7.81 -4.72,-4.95 -7.08,-10.74 -7.08,-17.37 0,-7.12 2.47,-13.13 7.42,-18.04 4.95,-4.91 10.89,-7.36 17.82,-7.36 4.12,0 8.07,0.95 11.86,2.87 1.31,0.64 2.64,1.52 3.99,2.64 1.01,0.79 2.64,2.38 4.89,4.78l-6.46 4.89c-1.05,-1.19 -2.05,-2.18 -3.01,-2.99 -0.96,-0.8 -1.9,-1.47 -2.84,-2.03 -0.68,-0.36 -1.3,-0.66 -1.88,-0.89 -0.58,-0.23 -1.3,-0.47 -2.16,-0.72 -1.39,-0.37 -2.87,-0.56 -4.44,-0.56 -4.72,0 -8.77,1.66 -12.14,4.97 -3.37,3.32 -5.06,7.45 -5.06,12.39l0 1.69 0.17 1.29 -3.54 0.11c0.83,-3.3 2.9,-5.72 6.24,-7.28 3.34,-1.55 8.09,-2.33 14.28,-2.33 4.35,0 8.02,0.41 11.02,1.24 3,0.82 5.45,2.08 7.36,3.77 1.35,1.24 2.39,2.69 3.12,4.36 0.73,1.67 1.1,3.57 1.1,5.7zm-7.98 0.17c0,-2.4 -1.07,-4.18 -3.2,-5.34 -2.55,-1.27 -6.35,-1.91 -11.41,-1.91 -2.77,0 -5.06,0.14 -6.86,0.42 -1.8,0.28 -3.34,0.76 -4.61,1.43 -1.99,1.05 -2.98,2.85 -2.98,5.4 0,0.67 0.35,1.42 1.04,2.25 0.69,0.82 1.66,1.7 2.9,2.64 3.33,2.44 6.91,3.65 10.74,3.65 3.9,0 7.4,-1.2 10.51,-3.6 1.31,-0.97 2.28,-1.85 2.92,-2.61 0.64,-0.77 0.96,-1.54 0.96,-2.33z"/>
        <polygon class="fil3" fill-rule="nonzero" fill="#FEFEFE"
                 points="2578.62,433.57 2542.31,476.79 2536.13,471.67 2566.99,434.98 2535.96,434.98 2535.96,427 2578.62,427 "/>
        <path class="fil3" fill-rule="nonzero" fill="#FEFEFE"
              d="M2994.19 124.82c0,4.05 -2.25,7.84 -6.75,11.38 -4.5,3.54 -9.7,5.31 -15.63,5.31 -5.84,0 -11.15,-1.78 -15.91,-5.34 -2.29,-1.76 -3.98,-3.58 -5.09,-5.45 -1.1,-1.87 -1.66,-3.84 -1.66,-5.9 0,-1.76 0.24,-3.32 0.73,-4.67 0.3,-0.75 0.65,-1.47 1.04,-2.16 0.39,-0.69 0.87,-1.38 1.43,-2.05 2.25,-2.59 5.21,-4.08 8.88,-4.5l-0.06 3.6c-0.56,-0.04 -1.13,-0.14 -1.71,-0.31 -0.58,-0.17 -1.16,-0.39 -1.74,-0.67 -0.58,-0.28 -1.1,-0.58 -1.55,-0.9 -0.45,-0.31 -0.94,-0.73 -1.46,-1.26 -1.99,-1.99 -2.98,-4.34 -2.98,-7.06 0,-4 2.14,-7.37 6.41,-10.1 0.97,-0.6 2.01,-1.14 3.12,-1.63 1.11,-0.48 2.22,-0.89 3.34,-1.23 2.14,-0.64 4.5,-0.96 7.08,-0.96 5.32,0 9.97,1.3 13.94,3.9 3.97,2.59 5.96,5.93 5.96,10 0,2.51 -1.05,4.81 -3.15,6.9l-1.52 1.29c1.61,0.79 2.98,1.84 4.1,3.15 1.01,1.2 1.79,2.53 2.33,3.99 0.54,1.46 0.82,3.02 0.82,4.67zm-10.57 -19.81c0,-0.75 -0.33,-1.47 -0.98,-2.15 -0.66,-0.69 -1.6,-1.35 -2.84,-1.99 -2.55,-1.3 -5.23,-1.96 -8.04,-1.96 -1.35,0 -2.72,0.16 -4.13,0.48 -1.4,0.32 -2.73,0.8 -3.99,1.45 -1.25,0.66 -2.22,1.31 -2.9,1.99 -0.67,0.66 -1.01,1.41 -1.01,2.24 0,1.23 0.84,2.27 2.53,3.13 1.01,0.49 2.29,0.85 3.82,1.11 0.82,0.15 1.67,0.26 2.53,0.34 0.86,0.07 1.85,0.11 2.98,0.11 3.9,0 6.97,-0.53 9.22,-1.56 0.94,-0.45 1.64,-0.93 2.11,-1.42 0.47,-0.51 0.7,-1.1 0.7,-1.76zm2.59 19.93c0,-2.36 -1.09,-4.12 -3.26,-5.28 -2.51,-1.28 -6.3,-1.91 -11.35,-1.91 -2.77,0 -5.06,0.14 -6.86,0.42 -1.8,0.28 -3.33,0.76 -4.61,1.43 -1.99,1.05 -2.98,2.85 -2.98,5.4 0,0.75 0.34,1.54 1.01,2.36 0.67,0.82 1.65,1.72 2.92,2.7 3.22,2.32 6.8,3.48 10.74,3.48 3.86,0 7.38,-1.16 10.57,-3.48 1.28,-0.94 2.23,-1.82 2.87,-2.64 0.64,-0.83 0.96,-1.65 0.96,-2.47z"/>
        <path class="fil3" fill-rule="nonzero" fill="#FEFEFE"
              d="M3194.17 140.39l-7.98 0 0 -34.85 -8.54 10.12 -5.84 -5.61 15.29 -18 7.08 0 0 48.34zm68.86 -24.23c0,7.01 -2.47,12.98 -7.42,17.93 -4.95,4.95 -10.92,7.42 -17.93,7.42 -7.01,0 -12.97,-2.47 -17.9,-7.39 -4.93,-4.93 -7.39,-10.91 -7.39,-17.96 0,-7.01 2.45,-12.96 7.36,-17.87 4.91,-4.91 10.89,-7.36 17.93,-7.36 6.93,0 12.89,2.44 17.88,7.31 4.98,4.87 7.47,10.85 7.47,17.93zm-7.98 0c0,-4.76 -1.7,-8.82 -5.09,-12.2 -3.39,-3.37 -7.5,-5.06 -12.34,-5.06 -4.8,0 -8.87,1.68 -12.22,5.03 -3.35,3.35 -5.03,7.43 -5.03,12.22 0,4.72 1.69,8.8 5.06,12.23 3.37,3.43 7.44,5.14 12.2,5.14 2.32,0 4.51,-0.42 6.55,-1.27 2.04,-0.84 3.94,-2.13 5.7,-3.85 3.45,-3.45 5.17,-7.53 5.17,-12.25z"/>
        <path class="fil3" fill-rule="nonzero" fill="#FEFEFE"
              d="M2807.25 470.76c0,7.09 -2.49,13.13 -7.48,18.12 -1.12,1.09 -2.41,2.12 -3.85,3.09 -1.44,0.98 -2.89,1.79 -4.36,2.43 -3,1.24 -6.2,1.85 -9.61,1.85 -4.01,0 -7.96,-0.97 -11.86,-2.93 -1.54,-0.79 -2.97,-1.75 -4.3,-2.88 -1.33,-1.13 -2.82,-2.69 -4.47,-4.68l6.41 -4.85c1.12,1.32 2.13,2.37 3.01,3.15 0.88,0.77 1.79,1.42 2.73,1.95 0.71,0.37 1.37,0.69 1.97,0.94 0.6,0.24 1.33,0.5 2.19,0.77 1.57,0.38 3.04,0.56 4.38,0.56 4.76,0 8.83,-1.69 12.2,-5.07 3.37,-3.38 5.06,-7.52 5.06,-12.4l0 -1.64 -0.28 -1.52 3.6 0.06c-0.82,3.3 -2.93,5.73 -6.32,7.31 -3.39,1.57 -8.12,2.36 -14.19,2.36 -4.23,0 -7.88,-0.42 -10.93,-1.26 -3.05,-0.84 -5.54,-2.11 -7.45,-3.79 -1.39,-1.28 -2.43,-2.72 -3.12,-4.33 -0.69,-1.61 -1.04,-3.52 -1.04,-5.73 0,-2.14 0.54,-4.12 1.63,-5.96 0.56,-0.9 1.24,-1.78 2.02,-2.64 0.79,-0.86 1.74,-1.72 2.87,-2.59 4.42,-3.63 9.69,-5.45 15.79,-5.45 7.16,0 13.25,2.59 18.27,7.77 4.76,4.98 7.14,10.78 7.14,17.39zm-10.68 -8.68c0,-0.68 -0.36,-1.42 -1.07,-2.25 -0.71,-0.83 -1.69,-1.71 -2.92,-2.64 -3.22,-2.4 -6.8,-3.6 -10.74,-3.6 -3.97,0 -7.49,1.18 -10.57,3.54 -1.27,0.97 -2.22,1.84 -2.84,2.59 -0.62,0.75 -0.93,1.54 -0.93,2.36 0,2.51 1.17,4.36 3.51,5.54 2.34,1.18 6.02,1.77 11.04,1.77 5.1,0 8.9,-0.64 11.41,-1.91 2.06,-1.01 3.09,-2.81 3.09,-5.39z"/>
        <path class="fil3" fill-rule="nonzero" fill="#FEFEFE"
              d="M3496.19 441.26l-7.98 0 0 -34.85 -8.54 10.12 -5.84 -5.61 15.29 -18 7.08 0 0 48.34zm52.61 0l-7.98 0 0 -34.85 -8.54 10.12 -5.85 -5.61 15.29 -18 7.08 0 0 48.34z"/>
        <path class="fil3" fill-rule="nonzero" fill="#FEFEFE"
              d="M3658.4 488.58l-7.98 0 0 -34.85 -8.54 10.12 -5.84 -5.61 15.29 -18 7.08 0 0 48.34zm65.93 -32.83c0,4.76 -1.61,8.75 -4.83,11.97 -1.2,1.16 -2.87,2.44 -5,3.82 -2.14,1.39 -4.7,2.85 -7.7,4.38l-9.22 4.66 23.55 0 0 7.98 -39.01 0 0 -9.19 20.85 -10.54c5.25,-2.62 8.67,-4.67 10.29,-6.17 2.06,-1.94 3.09,-4.31 3.09,-7.11 0,-0.67 -0.32,-1.4 -0.95,-2.19 -0.64,-0.79 -1.58,-1.68 -2.86,-2.69 -3.22,-2.39 -6.74,-3.59 -10.55,-3.59 -3.59,0 -7.02,1.08 -10.27,3.23 -1.54,0.99 -2.61,2.03 -3.25,3.11 -0.75,1.26 -1.12,2.89 -1.12,4.9l-7.98 -0.62c0,-2.76 0.52,-5.16 1.55,-7.2 1.03,-2.03 2.71,-4 5.03,-5.91 4.57,-3.66 9.91,-5.49 16.02,-5.49 3,0 5.77,0.43 8.32,1.29 1.42,0.45 2.71,0.98 3.85,1.6 1.14,0.62 2.33,1.43 3.57,2.45 4.42,3.48 6.63,7.25 6.63,11.3z"/>
        <path class="fil3" fill-rule="nonzero" fill="#FEFEFE"
              d="M3827.55 534.57l-7.98 0 0 -34.85 -8.54 10.12 -5.84 -5.61 15.29 -18 7.08 0 0 48.34zm65.93 -15.56c0,1.95 -0.54,3.88 -1.63,5.79 -1.09,1.91 -2.77,3.77 -5.06,5.56 -4.68,3.56 -10.02,5.34 -16.02,5.34 -6.18,0 -11.54,-2.01 -16.08,-6.02 -2.1,-1.84 -3.64,-3.76 -4.64,-5.76 -0.99,-2.01 -1.49,-4.32 -1.49,-6.94l7.98 -0.62c0,1.84 0.3,3.32 0.9,4.44 0.6,1.12 1.6,2.25 3.01,3.37 1.4,1.12 3.01,1.99 4.81,2.58 1.72,0.64 3.56,0.96 5.51,0.96 3.93,0 7.51,-1.16 10.74,-3.48 1.31,-0.93 2.3,-1.81 2.98,-2.63 0.67,-0.82 1.01,-1.64 1.01,-2.46 0,-2.39 -1.05,-4.19 -3.15,-5.41 -2.1,-1.21 -5.25,-1.82 -9.44,-1.82l-6.35 0 0 -7.98 6.24 0c3,0 5.53,-0.54 7.59,-1.62 0.82,-0.49 1.45,-0.97 1.88,-1.45 0.43,-0.49 0.65,-1.05 0.65,-1.68 0,-0.75 -0.33,-1.47 -0.98,-2.16 -0.65,-0.69 -1.6,-1.35 -2.84,-1.99 -2.55,-1.3 -5.23,-1.96 -8.04,-1.96 -1.24,0 -2.45,0.12 -3.63,0.37 -1.18,0.24 -2.43,0.64 -3.74,1.2 -1.31,0.55 -2.3,1.19 -2.98,1.89 -0.79,0.85 -1.46,2.1 -2.02,3.74l-7.53 -2.8c0.6,-2.16 1.46,-3.95 2.59,-5.38 1.12,-1.41 2.7,-2.69 4.72,-3.8 3.78,-2.13 7.94,-3.2 12.48,-3.2 5.25,0 9.8,1.27 13.66,3.81 2.02,1.35 3.58,2.87 4.67,4.55 1.09,1.68 1.63,3.53 1.63,5.56 0,1.27 -0.21,2.45 -0.65,3.53 -0.43,1.09 -1.1,2.15 -2,3.2l-1.46 1.4c1.35,0.82 2.55,1.87 3.6,3.15 0.52,0.64 1.05,1.48 1.57,2.53 0.34,0.67 0.58,1.2 0.73,1.57 0.53,1.46 0.79,3 0.79,4.6z"/>
        <path class="fil3" fill-rule="nonzero" fill="#FEFEFE"
              d="M4068.16 702.39l-7.98 0 0 -34.85 -8.54 10.12 -5.85 -5.61 15.29 -18 7.08 0 0 48.34zm66.44 -7.59l-9.16 0 0 7.59 -7.98 0 0 -7.59 -27.26 0 0 -7.8 28.22 -32.95 7.03 0 0 32.77 9.16 0 0 7.98zm-17.14 -7.98l0 -19.34 -16.47 19.34 16.47 0z"/>
        <path class="fil3" fill-rule="nonzero" fill="#FEFEFE"
              d="M4114.3 870.95l-7.98 0 0 -34.85 -8.54 10.12 -5.85 -5.61 15.29 -18 7.08 0 0 48.34zm65.93 -15.57c0,1.99 -0.54,3.91 -1.6,5.76 -1.07,1.86 -2.73,3.66 -4.97,5.42 -4.57,3.67 -9.84,5.51 -15.79,5.51 -3,0 -5.83,-0.46 -8.49,-1.38 -2.66,-0.92 -5.15,-2.29 -7.47,-4.1 -2.32,-1.82 -4.01,-3.77 -5.06,-5.84 -1.05,-2.08 -1.57,-4.54 -1.57,-7.39l7.98 -0.62c0,2.02 0.34,3.62 1.01,4.78 0.67,1.16 1.77,2.27 3.31,3.32 3.18,2.17 6.62,3.26 10.32,3.26 3.89,0 7.38,-1.2 10.49,-3.6 2.58,-1.91 3.87,-3.58 3.87,-5 0,-2.77 -1.48,-4.82 -4.44,-6.13 -1.24,-0.6 -2.66,-1.03 -4.27,-1.29 -1.61,-0.26 -3.58,-0.39 -5.9,-0.39l-19.67 0 0 -25.07 39.06 0 0 7.98 -31.08 0 0 9.11 11.65 0c6.34,0 11.34,0.99 14.98,2.98 5.11,2.74 7.65,6.97 7.65,12.7z"/>
        <path class="fil3" fill-rule="nonzero" fill="#FEFEFE"
              d="M4181.24 1272.99l-8.29 0 0 -36.18 -8.87 10.5 -6.07 -5.82 15.87 -18.68 7.35 0 0 50.18zm69.91 -16.16c0,2.02 -0.57,4.03 -1.72,6.01 -1.15,1.98 -2.85,3.85 -5.1,5.6 -4.63,3.81 -10.09,5.72 -16.4,5.72 -7.43,0 -13.75,-2.7 -18.96,-8.11 -4.9,-5.13 -7.35,-11.14 -7.35,-18.03 0,-7.39 2.57,-13.63 7.7,-18.73 5.13,-5.1 11.3,-7.64 18.5,-7.64 4.28,0 8.38,0.99 12.31,2.98 1.36,0.66 2.74,1.57 4.14,2.74 1.05,0.82 2.74,2.47 5.08,4.96l-6.71 5.08c-1.09,-1.24 -2.13,-2.27 -3.12,-3.1 -0.99,-0.83 -1.98,-1.53 -2.95,-2.11 -0.7,-0.38 -1.35,-0.69 -1.95,-0.92 -0.6,-0.23 -1.35,-0.49 -2.25,-0.75 -1.44,-0.39 -2.98,-0.58 -4.61,-0.58 -4.9,0 -9.1,1.72 -12.6,5.16 -3.5,3.44 -5.25,7.73 -5.25,12.87l0 1.75 0.18 1.34 -3.68 0.12c0.85,-3.42 3.01,-5.94 6.48,-7.56 3.46,-1.61 8.4,-2.42 14.82,-2.42 4.51,0 8.33,0.43 11.44,1.28 3.11,0.86 5.66,2.16 7.64,3.91 1.4,1.28 2.48,2.79 3.24,4.52 0.76,1.73 1.14,3.71 1.14,5.92zm-8.29 0.17c0,-2.49 -1.11,-4.34 -3.33,-5.54 -2.65,-1.32 -6.59,-1.98 -11.85,-1.98 -2.88,0 -5.25,0.15 -7.12,0.44 -1.87,0.29 -3.46,0.79 -4.79,1.49 -2.06,1.09 -3.09,2.96 -3.09,5.6 0,0.7 0.36,1.48 1.08,2.33 0.72,0.85 1.72,1.77 3,2.74 3.46,2.53 7.18,3.79 11.15,3.79 4.05,0 7.68,-1.25 10.91,-3.73 1.36,-1.01 2.37,-1.92 3.03,-2.71 0.66,-0.8 0.99,-1.6 0.99,-2.42z"/>
        <path class="fil3" fill-rule="nonzero" fill="#FEFEFE"
              d="M4181.24 1649.1l-8.29 0 0 -36.18 -8.87 10.5 -6.07 -5.82 15.87 -18.68 7.35 0 0 50.18zm67.75 -43.36l-37.7 44.86 -6.42 -5.31 32.04 -38.09 -32.21 0 0 -8.29 44.29 0 0 6.83z"/>
        <path class="fil3" fill-rule="nonzero" fill="#FEFEFE"
              d="M4106.11 2028.66l-8.29 0 0 -36.18 -8.87 10.5 -6.07 -5.82 15.87 -18.68 7.35 0 0 50.18zm68.45 -16.16c0,4.2 -2.33,8.14 -7,11.82 -4.67,3.68 -10.07,5.51 -16.22,5.51 -6.07,0 -11.57,-1.85 -16.51,-5.54 -2.37,-1.83 -4.13,-3.71 -5.28,-5.66 -1.15,-1.95 -1.72,-3.99 -1.72,-6.13 0,-1.83 0.25,-3.44 0.76,-4.84 0.31,-0.78 0.67,-1.53 1.08,-2.25 0.41,-0.72 0.9,-1.43 1.49,-2.13 2.33,-2.68 5.41,-4.24 9.22,-4.67l-0.06 3.73c-0.58,-0.04 -1.18,-0.15 -1.78,-0.32 -0.6,-0.17 -1.21,-0.41 -1.81,-0.7 -0.6,-0.29 -1.14,-0.6 -1.6,-0.93 -0.47,-0.32 -0.97,-0.76 -1.52,-1.3 -2.06,-2.06 -3.09,-4.5 -3.09,-7.33 0,-4.15 2.22,-7.65 6.65,-10.48 1.01,-0.62 2.09,-1.19 3.24,-1.69 1.15,-0.5 2.3,-0.92 3.47,-1.27 2.22,-0.66 4.67,-0.99 7.35,-0.99 5.52,0 10.35,1.35 14.47,4.05 4.12,2.69 6.19,6.16 6.19,10.39 0,2.61 -1.09,4.99 -3.27,7.16l-1.58 1.34c1.67,0.82 3.09,1.91 4.26,3.27 1.05,1.25 1.86,2.63 2.42,4.14 0.56,1.52 0.85,3.13 0.85,4.84zm-10.97 -20.57c0,-0.78 -0.34,-1.53 -1.02,-2.24 -0.68,-0.72 -1.66,-1.4 -2.95,-2.06 -2.64,-1.35 -5.43,-2.03 -8.34,-2.03 -1.4,0 -2.83,0.17 -4.29,0.5 -1.46,0.33 -2.84,0.83 -4.14,1.51 -1.3,0.68 -2.3,1.36 -3,2.06 -0.7,0.69 -1.05,1.47 -1.05,2.32 0,1.27 0.87,2.35 2.63,3.25 1.05,0.51 2.37,0.88 3.97,1.16 0.86,0.16 1.73,0.27 2.63,0.35 0.89,0.08 1.93,0.12 3.09,0.12 4.05,0 7.24,-0.54 9.57,-1.62 0.97,-0.47 1.7,-0.96 2.19,-1.48 0.49,-0.53 0.73,-1.14 0.73,-1.83zm2.68 20.69c0,-2.45 -1.13,-4.28 -3.38,-5.48 -2.61,-1.32 -6.53,-1.98 -11.79,-1.98 -2.88,0 -5.25,0.15 -7.12,0.44 -1.87,0.29 -3.46,0.79 -4.79,1.49 -2.06,1.09 -3.09,2.96 -3.09,5.6 0,0.78 0.35,1.59 1.05,2.45 0.7,0.86 1.71,1.79 3.03,2.8 3.35,2.41 7.06,3.62 11.15,3.62 4.01,0 7.66,-1.21 10.97,-3.62 1.32,-0.97 2.31,-1.89 2.97,-2.74 0.66,-0.86 0.99,-1.71 0.99,-2.57z"/>
        <path class="fil3" fill-rule="nonzero" fill="#FEFEFE"
              d="M4060.23 2197.78l-8.29 0 0 -36.18 -8.87 10.5 -6.07 -5.82 15.87 -18.68 7.35 0 0 50.18zm69.79 -25.53c0,7.36 -2.59,13.63 -7.76,18.81 -1.17,1.13 -2.5,2.2 -4,3.21 -1.5,1.02 -3.01,1.86 -4.52,2.52 -3.11,1.28 -6.44,1.93 -9.98,1.93 -4.16,0 -8.27,-1.01 -12.31,-3.04 -1.59,-0.82 -3.08,-1.82 -4.46,-2.99 -1.38,-1.18 -2.93,-2.79 -4.64,-4.86l6.65 -5.04c1.17,1.37 2.21,2.46 3.12,3.27 0.91,0.8 1.86,1.48 2.83,2.02 0.74,0.39 1.42,0.72 2.04,0.97 0.62,0.25 1.38,0.52 2.28,0.8 1.63,0.39 3.15,0.58 4.55,0.58 4.94,0 9.16,-1.75 12.66,-5.26 3.5,-3.51 5.25,-7.81 5.25,-12.88l0 -1.7 -0.29 -1.58 3.73 0.06c-0.86,3.42 -3.04,5.95 -6.56,7.59 -3.52,1.63 -8.43,2.45 -14.73,2.45 -4.39,0 -8.18,-0.44 -11.35,-1.31 -3.17,-0.88 -5.75,-2.19 -7.73,-3.94 -1.44,-1.32 -2.52,-2.82 -3.24,-4.49 -0.72,-1.67 -1.08,-3.66 -1.08,-5.95 0,-2.22 0.56,-4.28 1.69,-6.19 0.58,-0.93 1.28,-1.85 2.1,-2.74 0.82,-0.89 1.81,-1.79 2.98,-2.68 4.59,-3.77 10.06,-5.66 16.4,-5.66 7.43,0 13.75,2.68 18.96,8.06 4.94,5.17 7.41,11.19 7.41,18.05zm-11.09 -9.02c0,-0.7 -0.37,-1.48 -1.11,-2.33 -0.74,-0.86 -1.75,-1.77 -3.03,-2.74 -3.35,-2.49 -7.06,-3.73 -11.15,-3.73 -4.12,0 -7.78,1.23 -10.97,3.68 -1.32,1.01 -2.3,1.91 -2.95,2.68 -0.64,0.78 -0.96,1.6 -0.96,2.45 0,2.61 1.22,4.52 3.65,5.75 2.43,1.23 6.25,1.84 11.47,1.84 5.29,0 9.24,-0.66 11.85,-1.98 2.14,-1.05 3.21,-2.92 3.21,-5.6z"/>
        <path class="fil3" fill-rule="nonzero" fill="#FEFEFE"
              d="M3914.69 2315.32c0,4.94 -1.67,9.08 -5.02,12.43 -1.24,1.21 -2.98,2.53 -5.19,3.97 -2.22,1.44 -4.88,2.96 -7.99,4.55l-9.57 4.84 24.45 0 0 8.29 -40.5 0 0 -9.54 21.65 -10.94c5.45,-2.72 9.01,-4.85 10.68,-6.41 2.14,-2.01 3.21,-4.47 3.21,-7.38 0,-0.7 -0.33,-1.46 -0.99,-2.28 -0.66,-0.82 -1.64,-1.74 -2.97,-2.79 -3.35,-2.48 -6.99,-3.72 -10.95,-3.72 -3.72,0 -7.28,1.12 -10.66,3.36 -1.59,1.03 -2.71,2.11 -3.37,3.23 -0.78,1.31 -1.17,3 -1.17,5.09l-8.29 -0.64c0,-2.87 0.54,-5.36 1.6,-7.48 1.07,-2.11 2.81,-4.15 5.22,-6.14 4.75,-3.8 10.29,-5.7 16.63,-5.7 3.11,0 5.99,0.45 8.64,1.34 1.48,0.47 2.81,1.02 4,1.66 1.19,0.64 2.42,1.49 3.71,2.54 4.59,3.62 6.89,7.53 6.89,11.73zm57.65 8.93c0,7.27 -2.57,13.48 -7.7,18.61 -5.13,5.13 -11.34,7.7 -18.61,7.7 -7.27,0 -13.47,-2.56 -18.59,-7.67 -5.11,-5.11 -7.67,-11.33 -7.67,-18.64 0,-7.27 2.55,-13.46 7.64,-18.56 5.1,-5.1 11.3,-7.64 18.61,-7.64 7.2,0 13.38,2.53 18.56,7.59 5.17,5.06 7.76,11.26 7.76,18.61zm-8.29 0c0,-4.94 -1.76,-9.16 -5.28,-12.66 -3.52,-3.5 -7.79,-5.25 -12.81,-5.25 -4.98,0 -9.21,1.74 -12.69,5.22 -3.48,3.48 -5.22,7.71 -5.22,12.69 0,4.9 1.75,9.13 5.25,12.69 3.5,3.56 7.72,5.34 12.66,5.34 2.41,0 4.68,-0.44 6.8,-1.31 2.12,-0.88 4.1,-2.21 5.92,-4 3.58,-3.58 5.37,-7.82 5.37,-12.72z"/>
        <path class="fil3" fill-rule="nonzero" fill="#FEFEFE"
              d="M3754.23 2362.66c0,4.94 -1.67,9.08 -5.02,12.43 -1.24,1.21 -2.98,2.53 -5.19,3.97 -2.22,1.44 -4.88,2.96 -7.99,4.55l-9.57 4.84 24.45 0 0 8.29 -40.5 0 0 -9.54 21.65 -10.94c5.45,-2.72 9.01,-4.85 10.68,-6.41 2.14,-2.01 3.21,-4.47 3.21,-7.38 0,-0.7 -0.33,-1.46 -0.99,-2.28 -0.66,-0.82 -1.64,-1.74 -2.97,-2.79 -3.35,-2.48 -6.99,-3.72 -10.95,-3.72 -3.72,0 -7.28,1.12 -10.66,3.36 -1.59,1.03 -2.71,2.11 -3.37,3.23 -0.78,1.31 -1.17,3 -1.17,5.09l-8.29 -0.64c0,-2.87 0.54,-5.36 1.6,-7.48 1.07,-2.11 2.81,-4.15 5.22,-6.14 4.75,-3.8 10.29,-5.7 16.63,-5.7 3.11,0 5.99,0.45 8.64,1.34 1.48,0.47 2.81,1.02 4,1.66 1.19,0.64 2.42,1.49 3.71,2.54 4.59,3.62 6.89,7.53 6.89,11.73zm40.79 34.08l-8.29 0 0 -36.18 -8.87 10.5 -6.07 -5.82 15.87 -18.68 7.35 0 0 50.18z"/>
        <path class="fil3" fill-rule="nonzero" fill="#FEFEFE"
              d="M3578.44 2409.42c0,4.94 -1.67,9.08 -5.02,12.43 -1.24,1.21 -2.98,2.53 -5.19,3.97 -2.22,1.44 -4.88,2.96 -7.99,4.55l-9.57 4.84 24.45 0 0 8.29 -40.5 0 0 -9.54 21.65 -10.94c5.45,-2.72 9.01,-4.85 10.68,-6.41 2.14,-2.01 3.21,-4.47 3.21,-7.38 0,-0.7 -0.33,-1.46 -0.99,-2.28 -0.66,-0.82 -1.64,-1.74 -2.97,-2.79 -3.35,-2.48 -6.99,-3.72 -10.95,-3.72 -3.72,0 -7.28,1.12 -10.66,3.36 -1.59,1.03 -2.71,2.11 -3.37,3.23 -0.78,1.31 -1.17,3 -1.17,5.09l-8.29 -0.64c0,-2.87 0.54,-5.36 1.6,-7.48 1.07,-2.11 2.81,-4.15 5.22,-6.14 4.75,-3.8 10.29,-5.7 16.63,-5.7 3.11,0 5.99,0.45 8.64,1.34 1.48,0.47 2.81,1.02 4,1.66 1.19,0.64 2.42,1.49 3.71,2.54 4.59,3.62 6.89,7.53 6.89,11.73zm54.62 0c0,4.94 -1.67,9.08 -5.02,12.43 -1.24,1.21 -2.98,2.53 -5.19,3.97 -2.22,1.44 -4.88,2.96 -7.99,4.55l-9.57 4.84 24.45 0 0 8.29 -40.5 0 0 -9.54 21.65 -10.94c5.45,-2.72 9.01,-4.85 10.68,-6.41 2.14,-2.01 3.21,-4.47 3.21,-7.38 0,-0.7 -0.33,-1.46 -0.99,-2.28 -0.66,-0.82 -1.64,-1.74 -2.97,-2.79 -3.35,-2.48 -6.99,-3.72 -10.95,-3.72 -3.72,0 -7.28,1.12 -10.66,3.36 -1.59,1.03 -2.71,2.11 -3.37,3.23 -0.78,1.31 -1.17,3 -1.17,5.09l-8.29 -0.64c0,-2.87 0.54,-5.36 1.6,-7.48 1.07,-2.11 2.81,-4.15 5.22,-6.14 4.75,-3.8 10.29,-5.7 16.63,-5.7 3.11,0 5.99,0.45 8.64,1.34 1.48,0.47 2.81,1.02 4,1.66 1.19,0.64 2.42,1.49 3.71,2.54 4.59,3.62 6.89,7.53 6.89,11.73z"/>
        <path class="fil3" fill-rule="nonzero" fill="#FEFEFE"
              d="M3212.22 2696.06c0,4.94 -1.67,9.08 -5.02,12.43 -1.24,1.21 -2.98,2.53 -5.19,3.97 -2.22,1.44 -4.88,2.96 -7.99,4.55l-9.57 4.84 24.45 0 0 8.29 -40.5 0 0 -9.54 21.65 -10.94c5.45,-2.72 9.01,-4.85 10.68,-6.41 2.14,-2.01 3.21,-4.47 3.21,-7.38 0,-0.7 -0.33,-1.46 -0.99,-2.28 -0.66,-0.82 -1.64,-1.74 -2.97,-2.79 -3.35,-2.48 -6.99,-3.72 -10.95,-3.72 -3.72,0 -7.28,1.12 -10.66,3.36 -1.59,1.03 -2.71,2.11 -3.37,3.23 -0.78,1.31 -1.17,3 -1.17,5.09l-8.29 -0.64c0,-2.87 0.54,-5.36 1.6,-7.48 1.07,-2.11 2.81,-4.15 5.22,-6.14 4.75,-3.8 10.29,-5.7 16.63,-5.7 3.11,0 5.99,0.45 8.64,1.34 1.48,0.47 2.81,1.02 4,1.66 1.19,0.64 2.42,1.49 3.71,2.54 4.59,3.62 6.89,7.53 6.89,11.73zm54.62 17.92c0,2.02 -0.56,4.03 -1.69,6.01 -1.13,1.98 -2.88,3.91 -5.25,5.77 -4.86,3.7 -10.41,5.54 -16.63,5.54 -6.42,0 -11.98,-2.08 -16.69,-6.24 -2.18,-1.91 -3.78,-3.9 -4.81,-5.98 -1.03,-2.08 -1.55,-4.48 -1.55,-7.21l8.29 -0.64c0,1.91 0.31,3.44 0.93,4.61 0.62,1.17 1.66,2.33 3.12,3.5 1.46,1.17 3.12,2.06 4.99,2.68 1.79,0.66 3.69,0.99 5.72,0.99 4.08,0 7.8,-1.21 11.14,-3.61 1.36,-0.96 2.39,-1.88 3.09,-2.73 0.7,-0.85 1.05,-1.7 1.05,-2.56 0,-2.48 -1.09,-4.35 -3.27,-5.61 -2.18,-1.26 -5.45,-1.89 -9.8,-1.89l-6.59 0 0 -8.29 6.48 0c3.11,0 5.74,-0.56 7.88,-1.68 0.86,-0.51 1.51,-1.01 1.96,-1.51 0.45,-0.51 0.67,-1.09 0.67,-1.74 0,-0.78 -0.34,-1.53 -1.02,-2.24 -0.68,-0.72 -1.66,-1.4 -2.95,-2.06 -2.64,-1.35 -5.43,-2.03 -8.34,-2.03 -1.28,0 -2.54,0.13 -3.76,0.38 -1.23,0.25 -2.52,0.66 -3.88,1.25 -1.36,0.57 -2.39,1.23 -3.09,1.96 -0.82,0.88 -1.52,2.18 -2.1,3.88l-7.82 -2.91c0.62,-2.25 1.52,-4.1 2.68,-5.58 1.17,-1.47 2.8,-2.79 4.9,-3.95 3.93,-2.21 8.25,-3.32 12.95,-3.32 5.45,0 10.17,1.32 14.18,3.96 2.1,1.4 3.71,2.98 4.84,4.73 1.13,1.74 1.69,3.67 1.69,5.77 0,1.32 -0.22,2.54 -0.67,3.67 -0.45,1.13 -1.14,2.24 -2.07,3.33l-1.52 1.45c1.4,0.86 2.65,1.95 3.73,3.27 0.54,0.66 1.09,1.54 1.63,2.63 0.35,0.7 0.6,1.25 0.76,1.63 0.55,1.52 0.82,3.11 0.82,4.78z"/>
        <path class="fil3" fill-rule="nonzero" fill="#FEFEFE"
              d="M2966.2 2696.64c0,4.94 -1.67,9.08 -5.02,12.43 -1.24,1.21 -2.98,2.53 -5.19,3.97 -2.22,1.44 -4.88,2.96 -7.99,4.55l-9.57 4.84 24.45 0 0 8.29 -40.5 0 0 -9.54 21.65 -10.94c5.45,-2.72 9.01,-4.85 10.68,-6.41 2.14,-2.01 3.21,-4.47 3.21,-7.38 0,-0.7 -0.33,-1.46 -0.99,-2.28 -0.66,-0.82 -1.64,-1.74 -2.97,-2.79 -3.35,-2.48 -6.99,-3.72 -10.95,-3.72 -3.72,0 -7.28,1.12 -10.66,3.36 -1.59,1.03 -2.71,2.11 -3.37,3.23 -0.78,1.31 -1.17,3 -1.17,5.09l-8.29 -0.64c0,-2.87 0.54,-5.36 1.6,-7.48 1.07,-2.11 2.81,-4.15 5.22,-6.14 4.75,-3.8 10.29,-5.7 16.63,-5.7 3.11,0 5.99,0.45 8.64,1.34 1.48,0.47 2.81,1.02 4,1.66 1.19,0.64 2.42,1.49 3.71,2.54 4.59,3.62 6.89,7.53 6.89,11.73zm55.14 26.2l-9.51 0 0 7.88 -8.29 0 0 -7.88 -28.3 0 0 -8.1 29.29 -34.2 7.29 0 0 34.02 9.51 0 0 8.29zm-17.8 -8.29l0 -20.07 -17.1 20.07 17.1 0z"/>
        <path class="fil3" fill-rule="nonzero" fill="#FEFEFE"
              d="M2792.64 2373.36c0,4.94 -1.67,9.08 -5.02,12.43 -1.24,1.21 -2.98,2.53 -5.19,3.97 -2.22,1.44 -4.88,2.96 -7.99,4.55l-9.57 4.84 24.45 0 0 8.29 -40.5 0 0 -9.54 21.65 -10.94c5.45,-2.72 9.01,-4.85 10.68,-6.41 2.14,-2.01 3.21,-4.47 3.21,-7.38 0,-0.7 -0.33,-1.46 -0.99,-2.28 -0.66,-0.82 -1.64,-1.74 -2.97,-2.79 -3.35,-2.48 -6.99,-3.72 -10.95,-3.72 -3.72,0 -7.28,1.12 -10.66,3.36 -1.59,1.03 -2.71,2.11 -3.37,3.23 -0.78,1.31 -1.17,3 -1.17,5.09l-8.29 -0.64c0,-2.87 0.54,-5.36 1.6,-7.48 1.07,-2.11 2.81,-4.15 5.22,-6.14 4.75,-3.8 10.29,-5.7 16.63,-5.7 3.11,0 5.99,0.45 8.64,1.34 1.48,0.47 2.81,1.02 4,1.66 1.19,0.64 2.42,1.49 3.71,2.54 4.59,3.62 6.89,7.53 6.89,11.73zm54.62 17.91c0,2.06 -0.55,4.06 -1.66,5.98 -1.11,1.93 -2.83,3.8 -5.16,5.63 -4.75,3.81 -10.21,5.72 -16.4,5.72 -3.11,0 -6.05,-0.48 -8.81,-1.43 -2.76,-0.95 -5.35,-2.37 -7.76,-4.26 -2.41,-1.89 -4.16,-3.91 -5.25,-6.07 -1.09,-2.16 -1.63,-4.72 -1.63,-7.67l8.29 -0.64c0,2.1 0.35,3.75 1.05,4.96 0.7,1.21 1.84,2.35 3.43,3.44 3.3,2.26 6.88,3.38 10.72,3.38 4.04,0 7.66,-1.25 10.89,-3.73 2.67,-1.98 4.02,-3.71 4.02,-5.19 0,-2.88 -1.54,-5 -4.61,-6.36 -1.28,-0.62 -2.76,-1.07 -4.43,-1.34 -1.67,-0.27 -3.71,-0.41 -6.13,-0.41l-20.42 0 0 -26.02 40.55 0 0 8.29 -32.27 0 0 9.45 12.1 0c6.58,0 11.77,1.03 15.55,3.09 5.3,2.84 7.95,7.24 7.95,13.19z"/>
        <path class="fil3" fill-rule="nonzero" fill="#FEFEFE"
              d="M2559.16 2392.17c0,4.94 -1.67,9.08 -5.02,12.43 -1.24,1.21 -2.98,2.53 -5.19,3.97 -2.22,1.44 -4.88,2.96 -7.99,4.55l-9.57 4.84 24.45 0 0 8.29 -40.5 0 0 -9.54 21.65 -10.94c5.45,-2.72 9.01,-4.85 10.68,-6.41 2.14,-2.01 3.21,-4.47 3.21,-7.38 0,-0.7 -0.33,-1.46 -0.99,-2.28 -0.66,-0.82 -1.64,-1.74 -2.97,-2.79 -3.35,-2.48 -6.99,-3.72 -10.95,-3.72 -3.72,0 -7.28,1.12 -10.66,3.36 -1.59,1.03 -2.71,2.11 -3.37,3.23 -0.78,1.31 -1.17,3 -1.17,5.09l-8.29 -0.64c0,-2.87 0.54,-5.36 1.6,-7.48 1.07,-2.11 2.81,-4.15 5.22,-6.14 4.75,-3.8 10.29,-5.7 16.63,-5.7 3.11,0 5.99,0.45 8.64,1.34 1.48,0.47 2.81,1.02 4,1.66 1.19,0.64 2.42,1.49 3.71,2.54 4.59,3.62 6.89,7.53 6.89,11.73zm56.08 17.91c0,2.02 -0.57,4.03 -1.72,6.01 -1.15,1.98 -2.85,3.85 -5.1,5.6 -4.63,3.81 -10.09,5.72 -16.4,5.72 -7.43,0 -13.75,-2.7 -18.96,-8.11 -4.9,-5.13 -7.35,-11.14 -7.35,-18.03 0,-7.39 2.57,-13.63 7.7,-18.73 5.13,-5.1 11.3,-7.64 18.5,-7.64 4.28,0 8.38,0.99 12.31,2.98 1.36,0.66 2.74,1.57 4.14,2.74 1.05,0.82 2.74,2.47 5.08,4.96l-6.71 5.08c-1.09,-1.24 -2.13,-2.27 -3.12,-3.1 -0.99,-0.83 -1.98,-1.53 -2.95,-2.11 -0.7,-0.38 -1.35,-0.69 -1.95,-0.92 -0.6,-0.23 -1.35,-0.49 -2.25,-0.75 -1.44,-0.39 -2.98,-0.58 -4.61,-0.58 -4.9,0 -9.1,1.72 -12.6,5.16 -3.5,3.44 -5.25,7.73 -5.25,12.87l0 1.75 0.18 1.34 -3.68 0.12c0.85,-3.42 3.01,-5.94 6.48,-7.56 3.46,-1.61 8.4,-2.42 14.82,-2.42 4.51,0 8.33,0.43 11.44,1.28 3.11,0.86 5.66,2.16 7.64,3.91 1.4,1.28 2.48,2.79 3.24,4.52 0.76,1.73 1.14,3.71 1.14,5.92zm-8.29 0.17c0,-2.49 -1.11,-4.34 -3.33,-5.54 -2.65,-1.32 -6.59,-1.98 -11.85,-1.98 -2.88,0 -5.25,0.15 -7.12,0.44 -1.87,0.29 -3.46,0.79 -4.79,1.49 -2.06,1.09 -3.09,2.96 -3.09,5.6 0,0.7 0.36,1.48 1.08,2.33 0.72,0.85 1.72,1.77 3,2.74 3.46,2.53 7.18,3.79 11.15,3.79 4.05,0 7.68,-1.25 10.91,-3.73 1.36,-1.01 2.37,-1.92 3.03,-2.71 0.66,-0.8 0.99,-1.6 0.99,-2.42z"/>
        <path class="fil3" fill-rule="nonzero" fill="#FEFEFE"
              d="M2195.89 2605.57c0,4.94 -1.67,9.08 -5.02,12.43 -1.24,1.21 -2.98,2.53 -5.19,3.97 -2.22,1.44 -4.88,2.96 -7.99,4.55l-9.57 4.84 24.45 0 0 8.29 -40.5 0 0 -9.54 21.65 -10.94c5.45,-2.72 9.01,-4.85 10.68,-6.41 2.14,-2.01 3.21,-4.47 3.21,-7.38 0,-0.7 -0.33,-1.46 -0.99,-2.28 -0.66,-0.82 -1.64,-1.74 -2.97,-2.79 -3.35,-2.48 -6.99,-3.72 -10.95,-3.72 -3.72,0 -7.28,1.12 -10.66,3.36 -1.59,1.03 -2.71,2.11 -3.37,3.23 -0.78,1.31 -1.17,3 -1.17,5.09l-8.29 -0.64c0,-2.87 0.54,-5.36 1.6,-7.48 1.07,-2.11 2.81,-4.15 5.22,-6.14 4.75,-3.8 10.29,-5.7 16.63,-5.7 3.11,0 5.99,0.45 8.64,1.34 1.48,0.47 2.81,1.02 4,1.66 1.19,0.64 2.42,1.49 3.71,2.54 4.59,3.62 6.89,7.53 6.89,11.73zm53.92 -9.28l-37.7 44.86 -6.42 -5.31 32.04 -38.09 -32.21 0 0 -8.29 44.29 0 0 6.83z"/>
        <path class="fil3" fill-rule="nonzero" fill="#FEFEFE"
              d="M1840.98 2396.4c0,4.94 -1.67,9.08 -5.02,12.43 -1.24,1.21 -2.98,2.53 -5.19,3.97 -2.22,1.44 -4.88,2.96 -7.99,4.55l-9.57 4.84 24.45 0 0 8.29 -40.5 0 0 -9.54 21.65 -10.94c5.45,-2.72 9.01,-4.85 10.68,-6.41 2.14,-2.01 3.21,-4.47 3.21,-7.38 0,-0.7 -0.33,-1.46 -0.99,-2.28 -0.66,-0.82 -1.64,-1.74 -2.97,-2.79 -3.35,-2.48 -6.99,-3.72 -10.95,-3.72 -3.72,0 -7.28,1.12 -10.66,3.36 -1.59,1.03 -2.71,2.11 -3.37,3.23 -0.78,1.31 -1.17,3 -1.17,5.09l-8.29 -0.64c0,-2.87 0.54,-5.36 1.6,-7.48 1.07,-2.11 2.81,-4.15 5.22,-6.14 4.75,-3.8 10.29,-5.7 16.63,-5.7 3.11,0 5.99,0.45 8.64,1.34 1.48,0.47 2.81,1.02 4,1.66 1.19,0.64 2.42,1.49 3.71,2.54 4.59,3.62 6.89,7.53 6.89,11.73zm54.62 17.91c0,4.2 -2.33,8.14 -7,11.82 -4.67,3.68 -10.07,5.51 -16.22,5.51 -6.07,0 -11.57,-1.85 -16.51,-5.54 -2.37,-1.83 -4.13,-3.71 -5.28,-5.66 -1.15,-1.95 -1.72,-3.99 -1.72,-6.13 0,-1.83 0.25,-3.44 0.76,-4.84 0.31,-0.78 0.67,-1.53 1.08,-2.25 0.41,-0.72 0.9,-1.43 1.49,-2.13 2.33,-2.68 5.41,-4.24 9.22,-4.67l-0.06 3.73c-0.58,-0.04 -1.18,-0.15 -1.78,-0.32 -0.6,-0.17 -1.21,-0.41 -1.81,-0.7 -0.6,-0.29 -1.14,-0.6 -1.6,-0.93 -0.47,-0.32 -0.97,-0.76 -1.52,-1.3 -2.06,-2.06 -3.09,-4.5 -3.09,-7.33 0,-4.15 2.22,-7.65 6.65,-10.48 1.01,-0.62 2.09,-1.19 3.24,-1.69 1.15,-0.5 2.3,-0.92 3.47,-1.27 2.22,-0.66 4.67,-0.99 7.35,-0.99 5.52,0 10.35,1.35 14.47,4.05 4.12,2.69 6.19,6.16 6.19,10.39 0,2.61 -1.09,4.99 -3.27,7.16l-1.58 1.34c1.67,0.82 3.09,1.91 4.26,3.27 1.05,1.25 1.86,2.63 2.42,4.14 0.56,1.52 0.85,3.13 0.85,4.84zm-10.97 -20.57c0,-0.78 -0.34,-1.53 -1.02,-2.24 -0.68,-0.72 -1.66,-1.4 -2.95,-2.06 -2.64,-1.35 -5.43,-2.03 -8.34,-2.03 -1.4,0 -2.83,0.17 -4.29,0.5 -1.46,0.33 -2.84,0.83 -4.14,1.51 -1.3,0.68 -2.3,1.36 -3,2.06 -0.7,0.69 -1.05,1.47 -1.05,2.32 0,1.27 0.87,2.35 2.63,3.25 1.05,0.51 2.37,0.88 3.97,1.16 0.86,0.16 1.73,0.27 2.63,0.35 0.89,0.08 1.93,0.12 3.09,0.12 4.05,0 7.24,-0.54 9.57,-1.62 0.97,-0.47 1.7,-0.96 2.19,-1.48 0.49,-0.53 0.73,-1.14 0.73,-1.83zm2.68 20.69c0,-2.45 -1.13,-4.28 -3.38,-5.48 -2.61,-1.32 -6.53,-1.98 -11.79,-1.98 -2.88,0 -5.25,0.15 -7.12,0.44 -1.87,0.29 -3.46,0.79 -4.79,1.49 -2.06,1.09 -3.09,2.96 -3.09,5.6 0,0.78 0.35,1.59 1.05,2.45 0.7,0.86 1.71,1.79 3.03,2.8 3.35,2.41 7.06,3.62 11.15,3.62 4.01,0 7.66,-1.21 10.97,-3.62 1.32,-0.97 2.31,-1.89 2.97,-2.74 0.66,-0.86 0.99,-1.71 0.99,-2.57z"/>
        <path class="fil3" fill-rule="nonzero" fill="#FEFEFE"
              d="M1607.49 2377.84c0,4.94 -1.67,9.08 -5.02,12.43 -1.24,1.21 -2.98,2.53 -5.19,3.97 -2.22,1.44 -4.88,2.96 -7.99,4.55l-9.57 4.84 24.45 0 0 8.29 -40.5 0 0 -9.54 21.65 -10.94c5.45,-2.72 9.01,-4.85 10.68,-6.41 2.14,-2.01 3.21,-4.47 3.21,-7.38 0,-0.7 -0.33,-1.46 -0.99,-2.28 -0.66,-0.82 -1.64,-1.74 -2.97,-2.79 -3.35,-2.48 -6.99,-3.72 -10.95,-3.72 -3.72,0 -7.28,1.12 -10.66,3.36 -1.59,1.03 -2.71,2.11 -3.37,3.23 -0.78,1.31 -1.17,3 -1.17,5.09l-8.29 -0.64c0,-2.87 0.54,-5.36 1.6,-7.48 1.07,-2.11 2.81,-4.15 5.22,-6.14 4.75,-3.8 10.29,-5.7 16.63,-5.7 3.11,0 5.99,0.45 8.64,1.34 1.48,0.47 2.81,1.02 4,1.66 1.19,0.64 2.42,1.49 3.71,2.54 4.59,3.62 6.89,7.53 6.89,11.73zm55.96 8.55c0,7.36 -2.59,13.63 -7.76,18.81 -1.17,1.13 -2.5,2.2 -4,3.21 -1.5,1.02 -3.01,1.86 -4.52,2.52 -3.11,1.28 -6.44,1.93 -9.98,1.93 -4.16,0 -8.27,-1.01 -12.31,-3.04 -1.59,-0.82 -3.08,-1.82 -4.46,-2.99 -1.38,-1.18 -2.93,-2.79 -4.64,-4.86l6.65 -5.04c1.17,1.37 2.21,2.46 3.12,3.27 0.91,0.8 1.86,1.48 2.83,2.02 0.74,0.39 1.42,0.72 2.04,0.97 0.62,0.25 1.38,0.52 2.28,0.8 1.63,0.39 3.15,0.58 4.55,0.58 4.94,0 9.16,-1.75 12.66,-5.26 3.5,-3.51 5.25,-7.81 5.25,-12.88l0 -1.7 -0.29 -1.58 3.73 0.06c-0.86,3.42 -3.04,5.95 -6.56,7.59 -3.52,1.63 -8.43,2.45 -14.73,2.45 -4.39,0 -8.18,-0.44 -11.35,-1.31 -3.17,-0.88 -5.75,-2.19 -7.73,-3.94 -1.44,-1.32 -2.52,-2.82 -3.24,-4.49 -0.72,-1.67 -1.08,-3.66 -1.08,-5.95 0,-2.22 0.56,-4.28 1.69,-6.19 0.58,-0.93 1.28,-1.85 2.1,-2.74 0.82,-0.89 1.81,-1.79 2.98,-2.68 4.59,-3.77 10.06,-5.66 16.4,-5.66 7.43,0 13.75,2.68 18.96,8.06 4.94,5.17 7.41,11.19 7.41,18.05zm-11.09 -9.02c0,-0.7 -0.37,-1.48 -1.11,-2.33 -0.74,-0.86 -1.75,-1.77 -3.03,-2.74 -3.35,-2.49 -7.06,-3.73 -11.15,-3.73 -4.12,0 -7.78,1.23 -10.97,3.68 -1.32,1.01 -2.3,1.91 -2.95,2.68 -0.64,0.78 -0.96,1.6 -0.96,2.45 0,2.61 1.22,4.52 3.65,5.75 2.43,1.23 6.25,1.84 11.47,1.84 5.29,0 9.24,-0.66 11.85,-1.98 2.14,-1.05 3.21,-2.92 3.21,-5.6z"/>
        <path class="fil3" fill-rule="nonzero" fill="#FEFEFE"
              d="M1426.41 2714.43c0,2.02 -0.56,4.03 -1.69,6.01 -1.13,1.98 -2.88,3.91 -5.25,5.77 -4.86,3.7 -10.41,5.54 -16.63,5.54 -6.42,0 -11.98,-2.08 -16.69,-6.24 -2.18,-1.91 -3.78,-3.9 -4.81,-5.98 -1.03,-2.08 -1.55,-4.48 -1.55,-7.21l8.29 -0.64c0,1.91 0.31,3.44 0.93,4.61 0.62,1.17 1.66,2.33 3.12,3.5 1.46,1.17 3.12,2.06 4.99,2.68 1.79,0.66 3.69,0.99 5.72,0.99 4.08,0 7.8,-1.21 11.14,-3.61 1.36,-0.96 2.39,-1.88 3.09,-2.73 0.7,-0.85 1.05,-1.7 1.05,-2.56 0,-2.48 -1.09,-4.35 -3.27,-5.61 -2.18,-1.26 -5.45,-1.89 -9.8,-1.89l-6.59 0 0 -8.29 6.48 0c3.11,0 5.74,-0.56 7.88,-1.68 0.86,-0.51 1.51,-1.01 1.96,-1.51 0.45,-0.51 0.67,-1.09 0.67,-1.74 0,-0.78 -0.34,-1.53 -1.02,-2.24 -0.68,-0.72 -1.66,-1.4 -2.95,-2.06 -2.64,-1.35 -5.43,-2.03 -8.34,-2.03 -1.28,0 -2.54,0.13 -3.76,0.38 -1.23,0.25 -2.52,0.66 -3.88,1.25 -1.36,0.57 -2.39,1.23 -3.09,1.96 -0.82,0.88 -1.52,2.18 -2.1,3.88l-7.82 -2.91c0.62,-2.25 1.52,-4.1 2.68,-5.58 1.17,-1.47 2.8,-2.79 4.9,-3.95 3.93,-2.21 8.25,-3.32 12.95,-3.32 5.45,0 10.17,1.32 14.18,3.96 2.1,1.4 3.71,2.98 4.84,4.73 1.13,1.74 1.69,3.67 1.69,5.77 0,1.32 -0.22,2.54 -0.67,3.67 -0.45,1.13 -1.14,2.24 -2.07,3.33l-1.52 1.45c1.4,0.86 2.65,1.95 3.73,3.27 0.54,0.66 1.09,1.54 1.63,2.63 0.35,0.7 0.6,1.25 0.76,1.63 0.55,1.52 0.82,3.11 0.82,4.78zm57.65 -9c0,7.27 -2.57,13.48 -7.7,18.61 -5.13,5.13 -11.34,7.7 -18.61,7.7 -7.27,0 -13.47,-2.56 -18.59,-7.67 -5.11,-5.11 -7.67,-11.33 -7.67,-18.64 0,-7.27 2.55,-13.46 7.64,-18.56 5.1,-5.1 11.3,-7.64 18.61,-7.64 7.2,0 13.38,2.53 18.56,7.59 5.17,5.06 7.76,11.26 7.76,18.61zm-8.29 0c0,-4.94 -1.76,-9.16 -5.28,-12.66 -3.52,-3.5 -7.79,-5.25 -12.81,-5.25 -4.98,0 -9.21,1.74 -12.69,5.22 -3.48,3.48 -5.22,7.71 -5.22,12.69 0,4.9 1.75,9.13 5.25,12.69 3.5,3.56 7.72,5.34 12.66,5.34 2.41,0 4.68,-0.44 6.8,-1.31 2.12,-0.88 4.1,-2.21 5.92,-4 3.58,-3.58 5.37,-7.82 5.37,-12.72z"/>
        <path class="fil3" fill-rule="nonzero" fill="#FEFEFE"
              d="M1219.55 2714.43c0,2.02 -0.56,4.03 -1.69,6.01 -1.13,1.98 -2.88,3.91 -5.25,5.77 -4.86,3.7 -10.41,5.54 -16.63,5.54 -6.42,0 -11.98,-2.08 -16.69,-6.24 -2.18,-1.91 -3.78,-3.9 -4.81,-5.98 -1.03,-2.08 -1.55,-4.48 -1.55,-7.21l8.29 -0.64c0,1.91 0.31,3.44 0.93,4.61 0.62,1.17 1.66,2.33 3.12,3.5 1.46,1.17 3.12,2.06 4.99,2.68 1.79,0.66 3.69,0.99 5.72,0.99 4.08,0 7.8,-1.21 11.14,-3.61 1.36,-0.96 2.39,-1.88 3.09,-2.73 0.7,-0.85 1.05,-1.7 1.05,-2.56 0,-2.48 -1.09,-4.35 -3.27,-5.61 -2.18,-1.26 -5.45,-1.89 -9.8,-1.89l-6.59 0 0 -8.29 6.48 0c3.11,0 5.74,-0.56 7.88,-1.68 0.86,-0.51 1.51,-1.01 1.96,-1.51 0.45,-0.51 0.67,-1.09 0.67,-1.74 0,-0.78 -0.34,-1.53 -1.02,-2.24 -0.68,-0.72 -1.66,-1.4 -2.95,-2.06 -2.64,-1.35 -5.43,-2.03 -8.34,-2.03 -1.28,0 -2.54,0.13 -3.76,0.38 -1.23,0.25 -2.52,0.66 -3.88,1.25 -1.36,0.57 -2.39,1.23 -3.09,1.96 -0.82,0.88 -1.52,2.18 -2.1,3.88l-7.82 -2.91c0.62,-2.25 1.52,-4.1 2.68,-5.58 1.17,-1.47 2.8,-2.79 4.9,-3.95 3.93,-2.21 8.25,-3.32 12.95,-3.32 5.45,0 10.17,1.32 14.18,3.96 2.1,1.4 3.71,2.98 4.84,4.73 1.13,1.74 1.69,3.67 1.69,5.77 0,1.32 -0.22,2.54 -0.67,3.67 -0.45,1.13 -1.14,2.24 -2.07,3.33l-1.52 1.45c1.4,0.86 2.65,1.95 3.73,3.27 0.54,0.66 1.09,1.54 1.63,2.63 0.35,0.7 0.6,1.25 0.76,1.63 0.55,1.52 0.82,3.11 0.82,4.78zm40.79 16.15l-8.29 0 0 -36.18 -8.87 10.5 -6.07 -5.82 15.87 -18.68 7.35 0 0 50.18z"/>
        <path class="fil3" fill-rule="nonzero" fill="#FEFEFE"
              d="M746.89 2308.93c0,2.02 -0.56,4.03 -1.69,6.01 -1.13,1.98 -2.88,3.91 -5.25,5.77 -4.86,3.7 -10.41,5.54 -16.63,5.54 -6.42,0 -11.98,-2.08 -16.69,-6.24 -2.18,-1.91 -3.78,-3.9 -4.81,-5.98 -1.03,-2.08 -1.55,-4.48 -1.55,-7.21l8.29 -0.64c0,1.91 0.31,3.44 0.93,4.61 0.62,1.17 1.66,2.33 3.12,3.5 1.46,1.17 3.12,2.06 4.99,2.68 1.79,0.66 3.69,0.99 5.72,0.99 4.08,0 7.8,-1.21 11.14,-3.61 1.36,-0.96 2.39,-1.88 3.09,-2.73 0.7,-0.85 1.05,-1.7 1.05,-2.56 0,-2.48 -1.09,-4.35 -3.27,-5.61 -2.18,-1.26 -5.45,-1.89 -9.8,-1.89l-6.59 0 0 -8.29 6.48 0c3.11,0 5.74,-0.56 7.88,-1.68 0.86,-0.51 1.51,-1.01 1.96,-1.51 0.45,-0.51 0.67,-1.09 0.67,-1.74 0,-0.78 -0.34,-1.53 -1.02,-2.24 -0.68,-0.72 -1.66,-1.4 -2.95,-2.06 -2.64,-1.35 -5.43,-2.03 -8.34,-2.03 -1.28,0 -2.54,0.13 -3.76,0.38 -1.23,0.25 -2.52,0.66 -3.88,1.25 -1.36,0.57 -2.39,1.23 -3.09,1.96 -0.82,0.88 -1.52,2.18 -2.1,3.88l-7.82 -2.91c0.62,-2.25 1.52,-4.1 2.68,-5.58 1.17,-1.47 2.8,-2.79 4.9,-3.95 3.93,-2.21 8.25,-3.32 12.95,-3.32 5.45,0 10.17,1.32 14.18,3.96 2.1,1.4 3.71,2.98 4.84,4.73 1.13,1.74 1.69,3.67 1.69,5.77 0,1.32 -0.22,2.54 -0.67,3.67 -0.45,1.13 -1.14,2.24 -2.07,3.33l-1.52 1.45c1.4,0.86 2.65,1.95 3.73,3.27 0.54,0.66 1.09,1.54 1.63,2.63 0.35,0.7 0.6,1.25 0.76,1.63 0.55,1.52 0.82,3.11 0.82,4.78zm54.62 -17.92c0,4.94 -1.67,9.08 -5.02,12.43 -1.24,1.21 -2.98,2.53 -5.19,3.97 -2.22,1.44 -4.88,2.96 -7.99,4.55l-9.57 4.84 24.45 0 0 8.29 -40.5 0 0 -9.54 21.65 -10.94c5.45,-2.72 9.01,-4.85 10.68,-6.41 2.14,-2.01 3.21,-4.47 3.21,-7.38 0,-0.7 -0.33,-1.46 -0.99,-2.28 -0.66,-0.82 -1.64,-1.74 -2.97,-2.79 -3.35,-2.48 -6.99,-3.72 -10.95,-3.72 -3.72,0 -7.28,1.12 -10.66,3.36 -1.59,1.03 -2.71,2.11 -3.37,3.23 -0.78,1.31 -1.17,3 -1.17,5.09l-8.29 -0.64c0,-2.87 0.54,-5.36 1.6,-7.48 1.07,-2.11 2.81,-4.15 5.22,-6.14 4.75,-3.8 10.29,-5.7 16.63,-5.7 3.11,0 5.99,0.45 8.64,1.34 1.48,0.47 2.81,1.02 4,1.66 1.19,0.64 2.42,1.49 3.71,2.54 4.59,3.62 6.89,7.53 6.89,11.73z"/>
 </g>
</svg>
