
<!-- Creator: CorelDRAW 2020 (64-Bit) -->
<svg xmlns="http://www.w3.org/2000/svg" xml:space="preserve" width="391.149mm" height="255.696mm" version="1.1" style="shape-rendering:geometricPrecision; text-rendering:geometricPrecision; image-rendering:optimizeQuality; fill-rule:evenodd; clip-rule:evenodd"
viewBox="0 0 4325.81 2827.81">
 <g id="Layer_x0020_1">
  <metadata id="CorelCorpID_0Corel-Layer"/>
  <g id="_1875444399904">
   <polygon fill="none" fill-rule="nonzero" stroke="#FEFEFE" stroke-width="3.75" stroke-linejoin="round" stroke-miterlimit="22.9256" points="936.62,355.14 1005.53,638.94 551.44,749.19 482.53,465.4 "/>
   <polygon fill="none" fill-rule="nonzero" stroke="#FEFEFE" stroke-width="3.75" stroke-linejoin="round" stroke-miterlimit="22.9256" points="1723.8,395.44 1733.21,511.8 1966.09,492.97 1956.69,376.62 "/>
   <polygon fill="none" fill-rule="nonzero" stroke="#FEFEFE" stroke-width="3.75" stroke-linejoin="round" stroke-miterlimit="22.9256" points="1491.18,414.32 1500.59,530.68 1733.48,511.85 1724.07,395.5 "/>
   <g>
    <polygon fill="none" fill-rule="nonzero" stroke="#FEFEFE" stroke-width="3.75" stroke-linejoin="round" stroke-miterlimit="22.9256" points="1154.82,200.95 1154.82,25.73 1339.19,25.72 1339.19,200.94 "/>
    <polygon fill="none" fill-rule="nonzero" stroke="#FEFEFE" stroke-width="3.75" stroke-linejoin="round" stroke-miterlimit="22.9256" points="1339.19,25.73 1573.57,25.73 1573.56,200.95 1339.19,200.95 "/>
   </g>
   <polygon fill="none" fill-rule="nonzero" stroke="#FEFEFE" stroke-width="3.75" stroke-linejoin="round" stroke-miterlimit="22.9256" points="4056.81,778.07 4169.47,747.5 4215.35,916.63 4102.69,947.19 "/>
   <polygon fill="none" fill-rule="nonzero" stroke="#FEFEFE" stroke-width="3.75" stroke-linejoin="round" stroke-miterlimit="22.9256" points="4020.19,2357.18 3989.03,2244.68 3820.16,2291.43 3851.3,2403.93 "/>
   <polygon fill="none" fill-rule="nonzero" stroke="#FEFEFE" stroke-width="3.75" stroke-linejoin="round" stroke-miterlimit="22.9256" points="3749.31,543.27 3780.46,430.77 3949.34,477.53 3918.19,590.03 "/>
   <polygon fill="none" fill-rule="nonzero" stroke="#FEFEFE" stroke-width="3.75" stroke-linejoin="round" stroke-miterlimit="22.9256" points="943.48,2497.02 1012.39,2213.22 558.3,2102.96 489.39,2386.76 "/>
   <polygon fill="none" fill-rule="nonzero" stroke="#FEFEFE" stroke-width="3.75" stroke-linejoin="round" stroke-miterlimit="22.9256" points="2082.68,2702.33 2316.33,2702.33 2316.33,2527.12 2082.68,2527.12 "/>
   <polygon fill="none" fill-rule="nonzero" stroke="#FEFEFE" stroke-width="3.75" stroke-linejoin="round" stroke-miterlimit="22.9256" points="2082.68,140.34 2316.33,140.34 2316.33,315.55 2082.68,315.55 "/>
   <polygon fill="none" fill-rule="nonzero" stroke="#FEFEFE" stroke-width="3.75" stroke-linejoin="round" stroke-miterlimit="22.9256" points="1491.04,2435.34 1500.46,2318.98 1733.21,2337.8 1723.8,2454.15 "/>
   <polygon fill="none" fill-rule="nonzero" stroke="#FEFEFE" stroke-width="3.75" stroke-linejoin="round" stroke-miterlimit="22.9256" points="1723.8,2454.15 1733.21,2337.8 1966.09,2356.63 1956.69,2472.98 "/>
   <polygon fill="none" fill-rule="nonzero" stroke="#FEFEFE" stroke-width="3.75" stroke-linejoin="round" stroke-miterlimit="22.9256" points="2442.78,2352.39 2452.19,2468.74 2684.93,2449.93 2675.53,2333.58 "/>
   <polygon fill="none" fill-rule="nonzero" stroke="#FEFEFE" stroke-width="3.75" stroke-linejoin="round" stroke-miterlimit="22.9256" points="2675.53,2333.58 2684.94,2449.93 2917.69,2431.12 2908.28,2314.76 "/>
   <polygon fill="none" fill-rule="nonzero" stroke="#FEFEFE" stroke-width="3.75" stroke-linejoin="round" stroke-miterlimit="22.9256" points="3682.42,2450.7 3651.27,2338.2 3482.39,2384.96 3513.54,2497.45 "/>
   <polygon fill="none" fill-rule="nonzero" stroke="#FEFEFE" stroke-width="3.75" stroke-linejoin="round" stroke-miterlimit="22.9256" points="3851.3,2403.94 3820.15,2291.43 3651.27,2338.19 3682.42,2450.69 "/>
   <polygon fill="none" fill-rule="nonzero" stroke="#FEFEFE" stroke-width="3.75" stroke-linejoin="round" stroke-miterlimit="22.9256" points="3611.32,384.22 3580.17,496.72 3411.29,449.96 3442.44,337.46 "/>
   <polygon fill="none" fill-rule="nonzero" stroke="#FEFEFE" stroke-width="3.75" stroke-linejoin="round" stroke-miterlimit="22.9256" points="3780.2,430.98 3749.05,543.48 3580.17,496.73 3611.32,384.22 "/>
   <polygon fill="none" fill-rule="nonzero" stroke="#FEFEFE" stroke-width="3.75" stroke-linejoin="round" stroke-miterlimit="22.9256" points="4010.93,608.94 4123.59,578.38 4169.47,747.5 4056.81,778.06 "/>
   <polygon fill="none" fill-rule="nonzero" stroke="#FEFEFE" stroke-width="3.75" stroke-linejoin="round" stroke-miterlimit="22.9256" points="3092.33,2796.95 3092.34,2613.16 3340.05,2613.14 3340.04,2796.94 "/>
   <polygon fill="none" fill-rule="nonzero" stroke="#FEFEFE" stroke-width="3.75" stroke-linejoin="round" stroke-miterlimit="22.9256" points="2846.57,2796.95 2846.58,2613.16 3094.29,2613.14 3094.28,2796.94 "/>
   <polygon fill="none" fill-rule="nonzero" stroke="#FEFEFE" stroke-width="3.75" stroke-linejoin="round" stroke-miterlimit="22.9256" points="4267.7,1435.95 4141.46,1435.93 4141.45,1059.81 4267.7,1059.81 "/>
   <polygon fill="none" fill-rule="nonzero" stroke="#FEFEFE" stroke-width="3.75" stroke-linejoin="round" stroke-miterlimit="22.9256" points="4267.7,1812.08 4141.46,1812.06 4141.45,1435.94 4267.7,1435.95 "/>
   <polygon fill="none" fill-rule="nonzero" stroke="#FEFEFE" stroke-width="3.75" stroke-linejoin="round" stroke-miterlimit="22.9256" points="3094.77,25.72 3340.05,25.72 3340.04,206.71 3094.77,206.71 "/>
   <polygon fill="none" fill-rule="nonzero" stroke="#FEFEFE" stroke-width="3.75" stroke-linejoin="round" stroke-miterlimit="22.9256" points="2441.39,499.65 2454.24,384.35 2906.48,423.24 2893.64,538.54 "/>
   <polygon fill="none" fill-rule="nonzero" stroke="#FEFEFE" stroke-width="3.75" stroke-linejoin="round" stroke-miterlimit="22.9256" points="2661.34,519.44 2673.2,403.05 2905.44,422.43 2893.58,538.81 "/>
   <polygon fill="none" fill-rule="nonzero" stroke="#FEFEFE" stroke-width="3.75" stroke-linejoin="round" stroke-miterlimit="22.9256" points="2849.05,25.72 3094.32,25.72 3094.32,206.71 2849.04,206.71 "/>
   <polygon fill="none" fill-rule="nonzero" stroke="#FEFEFE" stroke-width="3.75" stroke-linejoin="round" stroke-miterlimit="22.9256" points="4049.45,2072.84 4162.11,2103.4 4207.99,1934.29 4095.33,1903.72 "/>
   <polygon fill="none" fill-rule="nonzero" stroke="#FEFEFE" stroke-width="3.75" stroke-linejoin="round" stroke-miterlimit="22.9256" points="4003.57,2241.98 4116.23,2272.53 4162.11,2103.41 4049.45,2072.85 "/>
   <polygon fill="none" fill-rule="nonzero" stroke="#FEFEFE" stroke-width="3.75" stroke-linejoin="round" stroke-miterlimit="22.9256" points="1121.83,2797.83 1121.84,2613.16 1311.43,2613.14 1311.42,2797.83 "/>
   <polygon fill="none" fill-rule="nonzero" stroke="#FEFEFE" stroke-width="3.75" stroke-linejoin="round" stroke-miterlimit="22.9256" points="1311.43,2613.15 1552.43,2613.15 1552.42,2797.83 1311.42,2797.83 "/>
   <polygon fill="none" fill-rule="nonzero" stroke="#FEFEFE" stroke-width="3.75" stroke-linejoin="round" stroke-miterlimit="22.9256" points="406.34,1905.52 359.69,1728.52 1.87,1822.84 48.53,1999.84 "/>
   <polygon fill="none" fill-rule="nonzero" stroke="#FEFEFE" stroke-width="3.75" stroke-linejoin="round" stroke-miterlimit="22.9256" points="411.43,949.92 364.77,1126.92 6.96,1032.6 53.61,855.6 "/>
   <polygon fill="none" fill-rule="nonzero" stroke="#FEFEFE" stroke-width="3.75" stroke-linejoin="round" stroke-miterlimit="22.9256" points="692.48,1811.8 996.31,1811.8 996.31,1560.71 692.48,1560.71 "/>
   <polygon fill="none" fill-rule="nonzero" stroke="#FEFEFE" stroke-width="3.75" stroke-linejoin="round" stroke-miterlimit="22.9256" points="1182.03,1354.52 1485.86,1354.52 1485.86,989.49 1182.03,989.49 "/>
   <polygon fill="none" fill-rule="nonzero" stroke="#FEFEFE" stroke-width="3.75" stroke-linejoin="round" stroke-miterlimit="22.9256" points="1182.03,1876.58 1485.86,1876.58 1485.86,1511.54 1182.03,1511.54 "/>
   <polygon fill="none" fill-rule="nonzero" stroke="#FEFEFE" stroke-width="3.75" stroke-linejoin="round" stroke-miterlimit="22.9256" points="1612.83,1871.18 1860.5,1871.18 1860.5,1380.18 1612.83,1380.18 "/>
   <polygon fill="none" fill-rule="nonzero" stroke="#FEFEFE" stroke-width="3.75" stroke-linejoin="round" stroke-miterlimit="22.9256" points="2014.36,1876.04 2318.19,1876.04 2318.19,1381.9 2014.36,1381.9 "/>
   <polygon fill="none" fill-rule="nonzero" stroke="#FEFEFE" stroke-width="3.75" stroke-linejoin="round" stroke-miterlimit="22.9256" points="2480.93,1871.18 2784.76,1871.18 2784.76,1377.05 2480.93,1377.05 "/>
   <polygon fill="none" fill-rule="nonzero" stroke="#FEFEFE" stroke-width="3.75" stroke-linejoin="round" stroke-miterlimit="22.9256" points="2568.68,1200.52 3244.53,1200.52 3244.53,949.43 2568.68,949.43 "/>
   <polygon fill="none" fill-rule="nonzero" stroke="#FEFEFE" stroke-width="3.75" stroke-linejoin="round" stroke-miterlimit="22.9256" points="2971.23,1871.18 3275.06,1871.18 3275.06,1366.11 2971.23,1366.11 "/>
   <polygon fill="none" fill-rule="nonzero" stroke="#FEFEFE" stroke-width="3.75" stroke-linejoin="round" stroke-miterlimit="22.9256" points="3403.88,1320.86 3707.71,1320.86 3707.71,1069.78 3403.88,1069.78 "/>
   <polygon fill="none" fill-rule="nonzero" stroke="#FEFEFE" stroke-width="3.75" stroke-linejoin="round" stroke-miterlimit="22.9256" points="3403.88,1751.4 3707.71,1751.4 3707.71,1500.3 3403.88,1500.3 "/>
   <polygon fill="none" fill-rule="nonzero" stroke="#FEFEFE" stroke-width="3.75" stroke-linejoin="round" stroke-miterlimit="22.9256" points="692.48,1354.52 1033.47,1354.52 1033.47,1072.72 692.48,1072.72 "/>
   <g>
    <path fill="#FEFEFE" fill-rule="nonzero" d="M2411.53 1202.11l-397.17 0 0 -3.18 397.17 0 1.87 1.59 -1.87 1.59zm0 -3.18c1.03,0 1.87,0.71 1.87,1.59 0,0.88 -0.84,1.59 -1.87,1.59l0 -3.18zm1.87 -249.5l0 251.09 -3.75 0 0 -251.09 1.87 -1.59 1.87 1.59zm-3.75 0c0,-0.88 0.84,-1.59 1.87,-1.59 1.03,0 1.87,0.71 1.87,1.59l-3.75 0zm-395.29 -1.59l397.17 0 0 3.18 -397.17 0 -1.87 -1.59 1.87 -1.59zm0 3.18c-1.03,0 -1.87,-0.71 -1.87,-1.59 0,-0.88 0.84,-1.59 1.87,-1.59l0 3.18zm-1.87 249.5l0 -251.09 3.75 0 0 251.09 -1.87 1.59 -1.87 -1.59zm3.75 0c0,0.88 -0.84,1.59 -1.87,1.59 -1.03,0 -1.87,-0.71 -1.87,-1.59l3.75 0z"/>
   </g>
   <g>
    <path fill="#FEFEFE" fill-rule="nonzero" d="M1933.62 1202.39l-320.79 0 0 -3.75 320.79 0 0.88 1.87 -0.88 1.87zm0 -3.75c0.49,0 0.88,0.84 0.88,1.87 0,1.03 -0.39,1.87 -0.88,1.87l0 -3.75zm0.88 -249.22l0 251.09 -1.76 0 0 -251.09 0.88 -1.87 0.88 1.87zm-1.76 0c0,-1.03 0.39,-1.87 0.88,-1.87 0.49,0 0.88,0.84 0.88,1.87l-1.76 0zm-319.91 -1.87l320.79 0 0 3.75 -320.79 0 -0.88 -1.87 0.88 -1.87zm0 3.75c-0.49,0 -0.88,-0.84 -0.88,-1.87 0,-1.03 0.39,-1.87 0.88,-1.87l0 3.75zm-0.88 249.22l0 -251.09 1.76 0 0 251.09 -0.88 1.87 -0.88 -1.87zm1.76 0c0,1.03 -0.39,1.87 -0.88,1.87 -0.49,0 -0.88,-0.84 -0.88,-1.87l1.76 0z"/>
   </g>
   <polygon  fill="none" stroke="#FEFEFE" stroke-width="1.87" stroke-miterlimit="22.9256" points="645.26,1854.4 559.87,1558.46 559.87,1290.96 645.26,995.01 1091.31,887.47 1536.75,817.02 1983.32,782.1 2425.48,782.1 2874.97,817.37 3317.5,887.47 3753.14,992.08 3805.74,1284.66 3805.74,1564.76 3754.99,1849.95 3317.5,1961.95 2874.97,2032.06 2431.36,2067.07 1980.38,2067.19 1530.91,2031.7 1088.42,1961.37 "/>
   <polygon  fill="none" stroke="#FEFEFE" stroke-width="1.87" stroke-miterlimit="22.9256" points="463.25,2033.79 352.01,1613.15 352.01,1236.32 472.39,812.18 951.51,667.93 1454,568.7 1957.77,519.51 2456.57,519.51 2963.62,569.18 3462.83,667.93 3954.27,815.29 4013.61,1227.44 4013.61,1622.02 3956.36,2023.76 3462.83,2181.53 2963.62,2280.29 2449.54,2322.8 1977.86,2320.03 1447.41,2279.8 1034.2,2177.3 "/>
   <polyline  fill="none" stroke="#FEFEFE" stroke-width="7.49" stroke-linecap="round" stroke-linejoin="round"  stroke-miterlimit="22.9256" points="54.33,2024.79 402.86,1933.98 438.71,2063.38 527.15,2090.5 448.83,2400.97 1094.89,2566.74 1095.48,2822.6 1576.25,2820.39 1576.25,2651.95 2064.75,2650.66 2064.76,2723.96 2334.41,2723.52 2334.09,2650.17 2827.06,2651.95 2827.06,2821.54 3360.01,2824.06 3360.38,2560.47 4132.74,2344.98 4261,1976.12 4322.06,1634.03 4322.06,1215.39 4261,873.3 4130.26,497.35 3366.41,286 3361.28,4.08 2823.74,4.08 2823.74,203.85 2334.08,203.85 2334.41,124.93 2067.19,124.93 2066.77,200.86 1598.5,200.63 1597.63,4.36 1131.78,3.74 1129.16,277.35 449.52,450.02 524.64,755.54 457.77,777.81 411.26,927.33 56.62,832.65 "/>
   <polygon  fill="none" stroke="#FEFEFE" stroke-width="1.87" stroke-miterlimit="22.9256" points="629.68,1862.12 543.43,1560.86 543.43,1288.56 629.68,987.3 1080.24,877.83 1530.2,806.12 1981.29,770.57 2427.94,770.57 2881.98,806.47 3329,877.83 3769.05,984.31 3822.19,1282.14 3822.19,1567.27 3770.93,1857.58 3329,1971.59 2881.98,2042.96 2433.88,2078.6 1978.32,2078.72 1524.3,2042.6 1077.33,1971.01 "/>
   <polygon  fill="none" stroke="#FEFEFE" stroke-width="1.87" stroke-miterlimit="22.9256" points="478.14,2023.26 367.87,1609.85 367.87,1239.49 487.2,822.64 962.17,680.87 1460.31,583.34 1959.72,535 2454.2,535 2956.86,583.82 3451.75,680.87 3938.93,825.7 3997.75,1230.77 3997.75,1618.57 3941,2013.41 3451.75,2168.47 2956.86,2265.53 2447.24,2307.3 1979.63,2304.59 1453.78,2265.04 1044.14,2164.31 "/>
   <polygon fill="#FEFEFE" fill-rule="nonzero" points="221.62,1018.1 212.75,1018.1 212.75,979.4 203.26,990.64 196.77,984.41 213.75,964.42 221.62,964.42 "/>
   <path fill="#FEFEFE" fill-rule="nonzero" d="M229.08 1855.19c0,5.29 -1.79,9.72 -5.37,13.3 -1.33,1.29 -3.18,2.71 -5.56,4.24 -2.37,1.54 -5.22,3.16 -8.55,4.87l-10.24 5.18 26.16 0 0 8.86 -43.32 0 0 -10.21 23.16 -11.7c5.83,-2.91 9.63,-5.19 11.42,-6.86 2.29,-2.15 3.43,-4.79 3.43,-7.9 0,-0.75 -0.35,-1.56 -1.06,-2.43 -0.71,-0.87 -1.76,-1.86 -3.17,-2.99 -3.58,-2.65 -7.48,-3.98 -11.72,-3.98 -3.98,0 -7.79,1.2 -11.4,3.59 -1.71,1.1 -2.9,2.26 -3.61,3.45 -0.83,1.4 -1.25,3.21 -1.25,5.44l-8.86 -0.69c0,-3.07 0.57,-5.73 1.72,-8 1.14,-2.26 3.01,-4.44 5.59,-6.56 5.08,-4.07 11.01,-6.1 17.79,-6.1 3.33,0 6.41,0.48 9.24,1.44 1.58,0.5 3.01,1.09 4.28,1.78 1.27,0.69 2.59,1.59 3.96,2.72 4.91,3.87 7.37,8.05 7.37,12.55z"/>
   <path fill="#FEFEFE" fill-rule="nonzero" d="M887.91 1223.18c0,2.16 -0.6,4.31 -1.81,6.43 -1.21,2.12 -3.08,4.18 -5.62,6.17 -5.2,3.95 -11.13,5.93 -17.79,5.93 -6.87,0 -12.82,-2.23 -17.85,-6.68 -2.33,-2.04 -4.05,-4.17 -5.15,-6.4 -1.1,-2.23 -1.65,-4.8 -1.65,-7.71l8.86 -0.69c0,2.04 0.33,3.68 1,4.93 0.67,1.25 1.78,2.5 3.34,3.75 1.56,1.25 3.34,2.21 5.34,2.87 1.91,0.71 3.95,1.06 6.12,1.06 4.37,0 8.34,-1.29 11.92,-3.86 1.46,-1.03 2.56,-2.01 3.31,-2.92 0.75,-0.91 1.12,-1.82 1.12,-2.74 0,-2.65 -1.16,-4.65 -3.49,-6 -2.33,-1.34 -5.83,-2.02 -10.49,-2.02l-7.05 0 0 -8.86 6.93 0c3.33,0 6.14,-0.6 8.43,-1.8 0.92,-0.54 1.61,-1.08 2.09,-1.61 0.48,-0.54 0.72,-1.17 0.72,-1.86 0,-0.83 -0.36,-1.63 -1.09,-2.39 -0.73,-0.77 -1.78,-1.5 -3.15,-2.21 -2.83,-1.45 -5.8,-2.17 -8.93,-2.17 -1.37,0 -2.72,0.13 -4.03,0.41 -1.31,0.27 -2.7,0.71 -4.15,1.33 -1.46,0.61 -2.56,1.32 -3.31,2.1 -0.87,0.95 -1.62,2.33 -2.25,4.15l-8.37 -3.11c0.67,-2.4 1.62,-4.39 2.87,-5.97 1.25,-1.57 3,-2.99 5.24,-4.22 4.2,-2.36 8.82,-3.55 13.86,-3.55 5.83,0 10.88,1.41 15.17,4.23 2.25,1.5 3.97,3.18 5.18,5.06 1.21,1.86 1.81,3.92 1.81,6.17 0,1.42 -0.24,2.72 -0.72,3.92 -0.48,1.21 -1.22,2.39 -2.22,3.56l-1.62 1.55c1.5,0.92 2.83,2.08 3.99,3.5 0.58,0.71 1.17,1.64 1.75,2.81 0.37,0.75 0.64,1.33 0.81,1.75 0.58,1.62 0.87,3.33 0.87,5.11z"/>
   <path fill="#FEFEFE" fill-rule="nonzero" d="M869.05 1704.67l-10.18 0 0 8.43 -8.86 0 0 -8.43 -30.27 0 0 -8.67 31.34 -36.59 7.8 0 0 36.39 10.18 0 0 8.86zm-19.04 -8.86l0 -21.47 -18.29 21.47 18.29 0z"/>
   <path fill="#FEFEFE" fill-rule="nonzero" d="M1358.91 1180.93c0,2.21 -0.59,4.34 -1.78,6.4 -1.19,2.06 -3.03,4.07 -5.52,6.02 -5.08,4.08 -10.92,6.12 -17.54,6.12 -3.33,0 -6.47,-0.51 -9.43,-1.53 -2.96,-1.02 -5.72,-2.54 -8.3,-4.56 -2.58,-2.02 -4.45,-4.18 -5.62,-6.49 -1.17,-2.31 -1.75,-5.05 -1.75,-8.21l8.86 -0.69c0,2.25 0.37,4.02 1.12,5.31 0.75,1.29 1.97,2.52 3.67,3.68 3.53,2.41 7.36,3.62 11.47,3.62 4.32,0 8.2,-1.33 11.65,-3.99 2.86,-2.12 4.3,-3.97 4.3,-5.56 0,-3.08 -1.64,-5.35 -4.93,-6.8 -1.37,-0.67 -2.95,-1.14 -4.74,-1.44 -1.79,-0.29 -3.97,-0.44 -6.55,-0.44l-21.85 0 0 -27.84 43.38 0 0 8.86 -34.52 0 0 10.11 12.94 0c7.04,0 12.59,1.1 16.64,3.31 5.67,3.04 8.5,7.74 8.5,14.11z"/>
   <path fill="#FEFEFE" fill-rule="nonzero" d="M1360.44 1703.61c0,2.16 -0.61,4.31 -1.84,6.43 -1.23,2.12 -3.05,4.12 -5.46,5.99 -4.95,4.08 -10.8,6.12 -17.54,6.12 -7.95,0 -14.71,-2.89 -20.29,-8.68 -5.24,-5.49 -7.87,-11.92 -7.87,-19.29 0,-7.91 2.75,-14.59 8.24,-20.04 5.49,-5.45 12.09,-8.18 19.79,-8.18 4.58,0 8.97,1.06 13.17,3.18 1.46,0.71 2.93,1.69 4.43,2.93 1.12,0.87 2.93,2.64 5.43,5.31l-7.18 5.43c-1.17,-1.32 -2.28,-2.42 -3.34,-3.32 -1.06,-0.88 -2.11,-1.63 -3.15,-2.26 -0.75,-0.4 -1.45,-0.74 -2.09,-0.99 -0.65,-0.25 -1.45,-0.52 -2.4,-0.8 -1.54,-0.42 -3.18,-0.62 -4.93,-0.62 -5.24,0 -9.74,1.84 -13.48,5.52 -3.75,3.68 -5.62,8.27 -5.62,13.76l0 1.87 0.19 1.44 -3.93 0.12c0.92,-3.66 3.22,-6.36 6.93,-8.08 3.7,-1.73 8.99,-2.59 15.86,-2.59 4.83,0 8.91,0.46 12.23,1.37 3.33,0.92 6.05,2.31 8.18,4.18 1.5,1.37 2.65,2.99 3.46,4.84 0.81,1.85 1.22,3.96 1.22,6.34zm-8.86 0.19c0,-2.66 -1.19,-4.64 -3.56,-5.93 -2.83,-1.42 -7.05,-2.12 -12.67,-2.12 -3.08,0 -5.62,0.16 -7.62,0.47 -2,0.31 -3.7,0.84 -5.12,1.59 -2.21,1.17 -3.31,3.16 -3.31,5.99 0,0.75 0.38,1.58 1.15,2.5 0.77,0.92 1.84,1.89 3.21,2.93 3.7,2.71 7.68,4.06 11.92,4.06 4.33,0 8.22,-1.33 11.67,-3.99 1.46,-1.08 2.54,-2.05 3.25,-2.9 0.71,-0.85 1.06,-1.72 1.06,-2.59z"/>
   <polygon fill="#FEFEFE" fill-rule="nonzero" points="1820.42,1032.66 1780.09,1080.66 1773.23,1074.97 1807.5,1034.22 1773.04,1034.22 1773.04,1025.36 1820.42,1025.36 "/>
   <path fill="#FEFEFE" fill-rule="nonzero" d="M1761.66 1635.23c0,4.49 -2.5,8.71 -7.49,12.64 -4.99,3.93 -10.78,5.9 -17.35,5.9 -6.49,0 -12.38,-1.98 -17.67,-5.93 -2.54,-1.96 -4.42,-3.97 -5.65,-6.05 -1.23,-2.08 -1.84,-4.27 -1.84,-6.55 0,-1.96 0.27,-3.68 0.81,-5.18 0.33,-0.83 0.72,-1.63 1.15,-2.4 0.44,-0.77 0.97,-1.53 1.59,-2.28 2.5,-2.87 5.79,-4.54 9.86,-4.99l-0.06 3.99c-0.62,-0.04 -1.26,-0.16 -1.9,-0.34 -0.64,-0.19 -1.29,-0.44 -1.93,-0.75 -0.65,-0.31 -1.22,-0.65 -1.72,-1 -0.5,-0.34 -1.04,-0.81 -1.62,-1.39 -2.21,-2.21 -3.31,-4.82 -3.31,-7.84 0,-4.44 2.37,-8.19 7.12,-11.22 1.08,-0.67 2.24,-1.27 3.46,-1.81 1.23,-0.53 2.47,-0.99 3.71,-1.36 2.37,-0.71 4.99,-1.06 7.87,-1.06 5.91,0 11.07,1.45 15.48,4.33 4.41,2.88 6.62,6.59 6.62,11.11 0,2.79 -1.17,5.34 -3.5,7.66l-1.69 1.44c1.79,0.87 3.31,2.04 4.56,3.5 1.12,1.33 1.99,2.81 2.59,4.43 0.6,1.62 0.91,3.35 0.91,5.18zm-11.74 -22c0,-0.83 -0.36,-1.63 -1.09,-2.39 -0.73,-0.77 -1.78,-1.5 -3.15,-2.21 -2.83,-1.45 -5.8,-2.17 -8.93,-2.17 -1.5,0 -3.03,0.18 -4.59,0.53 -1.56,0.35 -3.04,0.88 -4.43,1.61 -1.39,0.73 -2.47,1.46 -3.21,2.21 -0.75,0.74 -1.12,1.57 -1.12,2.49 0,1.36 0.94,2.52 2.81,3.47 1.12,0.54 2.54,0.95 4.25,1.24 0.91,0.17 1.85,0.29 2.81,0.37 0.96,0.08 2.06,0.12 3.31,0.12 4.33,0 7.74,-0.58 10.24,-1.74 1.04,-0.5 1.82,-1.03 2.34,-1.58 0.52,-0.56 0.78,-1.22 0.78,-1.96zm2.87 22.13c0,-2.62 -1.21,-4.58 -3.62,-5.87 -2.79,-1.42 -6.99,-2.12 -12.61,-2.12 -3.08,0 -5.62,0.16 -7.62,0.47 -2,0.31 -3.7,0.84 -5.12,1.59 -2.21,1.17 -3.31,3.16 -3.31,5.99 0,0.83 0.37,1.71 1.12,2.62 0.75,0.91 1.83,1.91 3.25,3 3.58,2.58 7.55,3.87 11.92,3.87 4.29,0 8.2,-1.29 11.73,-3.87 1.42,-1.04 2.48,-2.02 3.18,-2.93 0.71,-0.92 1.06,-1.83 1.06,-2.75z"/>
   <path fill="#FEFEFE" fill-rule="nonzero" d="M2187.14 1101.82l-8.86 0 0 -38.7 -9.49 11.24 -6.49 -6.23 16.98 -19.99 7.87 0 0 53.68zm76.47 -26.9c0,7.78 -2.75,14.42 -8.24,19.91 -5.49,5.49 -12.13,8.24 -19.91,8.24 -7.78,0 -14.41,-2.74 -19.88,-8.21 -5.47,-5.47 -8.21,-12.12 -8.21,-19.94 0,-7.78 2.72,-14.4 8.18,-19.85 5.45,-5.45 12.09,-8.18 19.91,-8.18 7.7,0 14.32,2.71 19.85,8.12 5.53,5.41 8.3,12.05 8.3,19.91zm-8.86 0c0,-5.29 -1.88,-9.8 -5.65,-13.55 -3.77,-3.75 -8.33,-5.62 -13.7,-5.62 -5.33,0 -9.85,1.86 -13.58,5.59 -3.72,3.72 -5.59,8.25 -5.59,13.58 0,5.24 1.87,9.77 5.62,13.58 3.74,3.81 8.26,5.71 13.55,5.71 2.58,0 5,-0.47 7.27,-1.4 2.27,-0.94 4.38,-2.36 6.34,-4.28 3.83,-3.83 5.74,-8.36 5.74,-13.61z"/>
   <path fill="#FEFEFE" fill-rule="nonzero" d="M2192.78 1628.79c0,7.88 -2.77,14.59 -8.3,20.12 -1.25,1.21 -2.67,2.35 -4.28,3.43 -1.6,1.09 -3.21,1.99 -4.84,2.69 -3.33,1.37 -6.89,2.06 -10.67,2.06 -4.45,0 -8.84,-1.08 -13.17,-3.26 -1.71,-0.87 -3.3,-1.95 -4.78,-3.19 -1.48,-1.26 -3.13,-2.99 -4.96,-5.2l7.12 -5.39c1.25,1.47 2.36,2.63 3.34,3.49 0.98,0.85 1.99,1.58 3.03,2.16 0.79,0.42 1.52,0.77 2.18,1.04 0.67,0.27 1.48,0.55 2.44,0.85 1.75,0.42 3.37,0.62 4.87,0.62 5.29,0 9.8,-1.87 13.55,-5.63 3.74,-3.76 5.62,-8.35 5.62,-13.77l0 -1.82 -0.31 -1.69 4 0.06c-0.92,3.66 -3.26,6.37 -7.02,8.12 -3.77,1.75 -9.02,2.62 -15.76,2.62 -4.7,0 -8.75,-0.47 -12.14,-1.4 -3.39,-0.94 -6.15,-2.34 -8.27,-4.21 -1.54,-1.42 -2.7,-3.02 -3.46,-4.81 -0.77,-1.79 -1.15,-3.91 -1.15,-6.37 0,-2.37 0.6,-4.58 1.81,-6.62 0.62,-1 1.37,-1.98 2.25,-2.93 0.87,-0.96 1.93,-1.91 3.18,-2.87 4.91,-4.04 10.76,-6.05 17.54,-6.05 7.95,0 14.71,2.87 20.29,8.62 5.29,5.54 7.93,11.97 7.93,19.31zm-11.86 -9.64c0,-0.75 -0.39,-1.58 -1.19,-2.5 -0.79,-0.92 -1.87,-1.89 -3.25,-2.93 -3.58,-2.66 -7.55,-3.99 -11.92,-3.99 -4.41,0 -8.32,1.31 -11.73,3.93 -1.42,1.08 -2.47,2.04 -3.15,2.87 -0.69,0.83 -1.03,1.71 -1.03,2.62 0,2.79 1.3,4.84 3.9,6.15 2.6,1.31 6.69,1.97 12.27,1.97 5.66,0 9.88,-0.71 12.67,-2.12 2.29,-1.12 3.43,-3.12 3.43,-5.99z"/>
   <path fill="#FEFEFE" fill-rule="nonzero" d="M2889.81 1101.82l-8.86 0 0 -38.7 -9.49 11.24 -6.49 -6.23 16.98 -19.99 7.87 0 0 53.68zm58.43 0l-8.86 0 0 -38.7 -9.49 11.24 -6.49 -6.23 16.98 -19.99 7.87 0 0 53.68z"/>
   <path fill="#FEFEFE" fill-rule="nonzero" d="M2608.65 1651.58l-8.86 0 0 -38.7 -9.49 11.24 -6.49 -6.23 16.98 -19.99 7.87 0 0 53.68zm73.22 -36.46c0,5.29 -1.79,9.72 -5.37,13.3 -1.33,1.29 -3.18,2.71 -5.56,4.24 -2.37,1.54 -5.22,3.16 -8.55,4.87l-10.24 5.18 26.16 0 0 8.86 -43.32 0 0 -10.21 23.16 -11.7c5.83,-2.91 9.63,-5.19 11.42,-6.86 2.29,-2.15 3.43,-4.79 3.43,-7.9 0,-0.75 -0.35,-1.56 -1.06,-2.43 -0.71,-0.87 -1.76,-1.86 -3.17,-2.99 -3.58,-2.65 -7.48,-3.98 -11.72,-3.98 -3.98,0 -7.79,1.2 -11.4,3.59 -1.71,1.1 -2.9,2.26 -3.61,3.45 -0.83,1.4 -1.25,3.21 -1.25,5.44l-8.86 -0.69c0,-3.07 0.57,-5.73 1.72,-8 1.14,-2.26 3.01,-4.44 5.59,-6.56 5.08,-4.07 11.01,-6.1 17.79,-6.1 3.33,0 6.41,0.48 9.24,1.44 1.58,0.5 3.01,1.09 4.28,1.78 1.27,0.69 2.59,1.59 3.96,2.72 4.91,3.87 7.37,8.05 7.37,12.55z"/>
   <path fill="#FEFEFE" fill-rule="nonzero" d="M3098.95 1645.49l-8.86 0 0 -38.7 -9.49 11.24 -6.49 -6.23 16.98 -19.99 7.87 0 0 53.68zm73.22 -17.28c0,2.16 -0.6,4.31 -1.81,6.43 -1.21,2.12 -3.08,4.18 -5.62,6.17 -5.2,3.95 -11.13,5.93 -17.79,5.93 -6.87,0 -12.82,-2.23 -17.85,-6.68 -2.33,-2.04 -4.05,-4.17 -5.15,-6.4 -1.1,-2.23 -1.65,-4.8 -1.65,-7.71l8.86 -0.69c0,2.04 0.33,3.68 1,4.93 0.67,1.25 1.78,2.5 3.34,3.75 1.56,1.25 3.34,2.21 5.34,2.87 1.91,0.71 3.95,1.06 6.12,1.06 4.37,0 8.34,-1.29 11.92,-3.86 1.46,-1.03 2.56,-2.01 3.31,-2.92 0.75,-0.91 1.12,-1.82 1.12,-2.74 0,-2.65 -1.16,-4.65 -3.49,-6 -2.33,-1.34 -5.83,-2.02 -10.49,-2.02l-7.05 0 0 -8.86 6.93 0c3.33,0 6.14,-0.6 8.43,-1.8 0.92,-0.54 1.61,-1.08 2.09,-1.61 0.48,-0.54 0.72,-1.17 0.72,-1.86 0,-0.83 -0.36,-1.63 -1.09,-2.39 -0.73,-0.77 -1.78,-1.5 -3.15,-2.21 -2.83,-1.45 -5.8,-2.17 -8.93,-2.17 -1.37,0 -2.72,0.13 -4.03,0.41 -1.31,0.27 -2.7,0.71 -4.15,1.33 -1.46,0.61 -2.56,1.32 -3.31,2.1 -0.87,0.95 -1.62,2.33 -2.25,4.15l-8.37 -3.11c0.67,-2.4 1.62,-4.39 2.87,-5.97 1.25,-1.57 3,-2.99 5.24,-4.22 4.2,-2.36 8.82,-3.55 13.86,-3.55 5.83,0 10.88,1.41 15.17,4.23 2.25,1.5 3.97,3.18 5.18,5.06 1.21,1.86 1.81,3.92 1.81,6.17 0,1.42 -0.24,2.72 -0.72,3.92 -0.48,1.21 -1.22,2.39 -2.22,3.56l-1.62 1.55c1.5,0.92 2.83,2.08 3.99,3.5 0.58,0.71 1.17,1.64 1.75,2.81 0.37,0.75 0.64,1.33 0.81,1.75 0.58,1.62 0.87,3.33 0.87,5.11z"/>
   <path fill="#FEFEFE" fill-rule="nonzero" d="M3531.32 1222.16l-8.86 0 0 -38.7 -9.49 11.24 -6.49 -6.23 16.98 -19.99 7.87 0 0 53.68zm73.78 -8.43l-10.18 0 0 8.43 -8.86 0 0 -8.43 -30.27 0 0 -8.67 31.34 -36.59 7.8 0 0 36.39 10.18 0 0 8.86zm-19.04 -8.86l0 -21.47 -18.29 21.47 18.29 0z"/>
   <path fill="#FEFEFE" fill-rule="nonzero" d="M3531.6 1652.07l-8.86 0 0 -38.7 -9.49 11.24 -6.49 -6.23 16.98 -19.99 7.87 0 0 53.68zm73.22 -17.29c0,2.21 -0.59,4.34 -1.78,6.4 -1.19,2.06 -3.03,4.07 -5.52,6.02 -5.08,4.08 -10.92,6.12 -17.54,6.12 -3.33,0 -6.47,-0.51 -9.43,-1.53 -2.96,-1.02 -5.72,-2.54 -8.3,-4.56 -2.58,-2.02 -4.45,-4.18 -5.62,-6.49 -1.17,-2.31 -1.75,-5.05 -1.75,-8.21l8.86 -0.69c0,2.25 0.37,4.02 1.12,5.31 0.75,1.29 1.97,2.52 3.67,3.68 3.53,2.41 7.36,3.62 11.47,3.62 4.32,0 8.2,-1.33 11.65,-3.99 2.86,-2.12 4.3,-3.97 4.3,-5.56 0,-3.08 -1.64,-5.35 -4.93,-6.8 -1.37,-0.67 -2.95,-1.14 -4.74,-1.44 -1.79,-0.29 -3.97,-0.44 -6.55,-0.44l-21.85 0 0 -27.84 43.38 0 0 8.86 -34.52 0 0 10.11 12.94 0c7.04,0 12.59,1.1 16.64,3.31 5.67,3.04 8.5,7.74 8.5,14.11z"/>
  </g>
 </g>
</svg>
