
<!-- Creator: CorelDRAW 2020 (64-Bit) -->
<svg xmlns="http://www.w3.org/2000/svg" xml:space="preserve" width="407.27mm" height="170.225mm" version="1.1" style="shape-rendering:geometricPrecision; text-rendering:geometricPrecision; image-rendering:optimizeQuality; fill-rule:evenodd; clip-rule:evenodd"
     viewBox="0 0 3601.62 1505.35">
 <g id="Layer_x0020_1">
  <metadata id="CorelCorpID_0Corel-Layer"/>
  <path fill="none" stroke="#FEFEFE" stroke-width="3" stroke-linejoin="round" stroke-miterlimit="22.9256" d="M2932.08 299.35c115.97,224.7 90.9,726.98 -1.1,919.21l446.99 185.49c154.48,-308.09 260.19,-807.41 15.82,-1312.52l-461.71 207.83z"/>
  <path  fill="none" fill-rule="nonzero" stroke="#FEFEFE" stroke-width="1.6" stroke-linejoin="round" stroke-miterlimit="10" d="M634.77 240.77c-141.36,310.91 -151.66,695.23 -10.3,1006.14m10.3 -1006.14l27.63 -9.09 40.03 -12.73 40.17 -12.06 40.3 -11.67 40.43 -11.14 40.56 -10.6 40.7 -10.21 40.96 -9.54 40.96 -9.15 40.96 -8.62 41.23 -7.95 41.23 -7.69 41.49 -7.03 41.36 -6.5 41.49 -5.96 41.62 -5.57 41.76 -4.91 41.63 -4.51 41.89 -3.85 41.76 -3.45 41.89 -2.91 41.89 -2.26 41.89 -1.86 42.02 -1.32 41.89 -0.8 42.02 -0.27 41.89 0.27 42.02 0.8 41.89 1.32 41.89 1.86 41.89 2.26 41.89 2.91 41.89 3.45 41.76 3.85 41.63 4.51 41.76 4.91 41.62 5.57 41.49 5.96 41.49 6.5 41.36 7.03 41.23 7.69 41.22 7.95 40.96 8.62 40.96 9.15 40.96 9.54 40.7 10.21 40.56 10.6 40.43 11.14 40.3 11.67 40.17 12.06 40.03 12.73 71.12 23.82m-2173.19 991.42l72.36 24.61 40.03 12.73 40.17 12.06 40.3 11.66 40.43 11.14 40.57 10.6 40.7 10.21 40.96 9.55 40.96 9.15 40.96 8.62 41.23 7.95 41.23 7.69 41.49 7.03 41.36 6.5 41.49 5.97 41.62 5.57 41.76 4.9 41.63 4.51 41.89 3.84 41.76 3.45 41.89 2.92 41.89 2.25 41.89 1.86 42.02 1.32 41.89 0.8 42.02 0.27 41.89 -0.27 42.02 -0.8 41.89 -1.32 41.89 -1.86 41.89 -2.25 41.89 -2.92 41.89 -3.45 41.76 -3.84 41.62 -4.51 41.76 -4.9 41.62 -5.57 41.49 -5.97 41.49 -6.5 41.36 -7.03 41.23 -7.69 41.23 -7.95 40.96 -8.62 40.96 -9.15 40.96 -9.55 40.7 -10.21 40.57 -10.6 40.43 -11.14 40.3 -11.66 40.17 -12.06 40.03 -12.73 41.71 -14.15m0.75 -0.72c141.36,-310.91 135.6,-690.24 -5.76,-1001.15"/>
  <polygon  fill="none" fill-rule="nonzero" stroke="#FEFEFE" stroke-width="3" stroke-linecap="round" stroke-linejoin="round" stroke-miterlimit="10" points="1562.88,557.42 2126.57,557.42 2126.57,369.57 1562.88,369.57 "/>
  <polygon  fill="none" fill-rule="nonzero" stroke="#FEFEFE" stroke-width="3" stroke-linecap="round" stroke-linejoin="round" stroke-miterlimit="10" points="592.07,557.42 936.49,557.42 936.49,369.57 592.07,369.57 "/>
  <polygon fill="none" stroke="#FEFEFE" stroke-width="3" stroke-linejoin="round" stroke-miterlimit="22.9256" points="592.07,369.57 936.48,369.57 936.48,557.42 592.07,557.42 "/>
  <polygon fill="none" stroke="#FEFEFE" stroke-width="3" stroke-linejoin="round" stroke-miterlimit="22.9256" points="591.93,620.52 936.48,620.52 936.48,745.27 591.93,745.27 "/>
  <polygon fill="none" stroke="#FEFEFE" stroke-width="3" stroke-linejoin="round" stroke-miterlimit="22.9256" points="591.93,807.98 936.48,807.98 936.48,933.66 591.93,933.66 "/>
  <polygon fill="none" stroke="#FEFEFE" stroke-width="3" stroke-linejoin="round" stroke-miterlimit="22.9256" points="591.93,995.83 936.48,995.83 936.48,1152.4 591.93,1152.4 "/>
  <polygon fill="none" stroke="#FEFEFE" stroke-width="3" stroke-linejoin="round" stroke-miterlimit="22.9256" points="1030.48,181.58 1343.61,181.58 1343.61,275.58 1030.48,275.58 "/>
  <polygon fill="none" stroke="#FEFEFE" stroke-width="3" stroke-linejoin="round" stroke-miterlimit="22.9256" points="1030.48,369.57 1281.04,369.57 1300.44,369.57 1468.89,369.57 1468.89,557.42 1300.44,557.42 1281.04,557.42 1030.48,557.42 "/>
  <polygon fill="none" stroke="#FEFEFE" stroke-width="3" stroke-linejoin="round" stroke-miterlimit="22.9256" points="1030.48,651.41 1468.89,651.41 1468.89,1151.65 1030.48,1151.65 "/>
  <polygon fill="none" stroke="#FEFEFE" stroke-width="3" stroke-linejoin="round" stroke-miterlimit="22.9256" points="2471.63,370.85 2734.18,370.85 2734.18,1154.21 2471.63,1154.21 "/>
  <polygon fill="none" stroke="#FEFEFE" stroke-width="3" stroke-linejoin="round" stroke-miterlimit="22.9256" points="1381.46,150.3 1631.88,150.3 1631.88,275.58 1381.46,275.58 "/>
  <polygon fill="none" stroke="#FEFEFE" stroke-width="3" stroke-linejoin="round" stroke-miterlimit="22.9256" points="1669.8,150.7 2014.35,150.7 2014.35,275.58 1669.8,275.58 "/>
  <polygon fill="none" stroke="#FEFEFE" stroke-width="3" stroke-linejoin="round" stroke-miterlimit="22.9256" points="2051.02,181.58 2364.29,181.58 2364.29,275.58 2051.02,275.58 "/>
  <polygon fill="none" stroke="#FEFEFE" stroke-width="3" stroke-linejoin="round" stroke-miterlimit="22.9256" points="2176.3,369.57 2364.29,369.57 2364.29,557.42 2176.3,557.42 "/>
  <polygon fill="none" stroke="#FEFEFE" stroke-width="3" stroke-linejoin="round" stroke-miterlimit="22.9256" points="1382.69,1245.18 1632.9,1245.18 1632.9,1370.46 1382.69,1370.46 "/>
  <polygon fill="none" stroke="#FEFEFE" stroke-width="3" stroke-linejoin="round" stroke-miterlimit="22.9256" points="2051.02,1245.18 2364.29,1245.18 2364.29,1339.17 2051.02,1339.17 "/>
  <polygon fill="none" stroke="#FEFEFE" stroke-width="3" stroke-linejoin="round" stroke-miterlimit="22.9256" points="1669.8,1245.18 2014.35,1245.18 2014.35,1370.06 1669.8,1370.06 "/>
  <polygon fill="none" stroke="#FEFEFE" stroke-width="3" stroke-linejoin="round" stroke-miterlimit="22.9256" points="1030.34,1245.18 1343.61,1245.18 1343.61,1339.17 1030.34,1339.17 "/>
  <polygon fill="none" stroke="#FEFEFE" stroke-width="3" stroke-linejoin="round" stroke-miterlimit="22.9256" points="37.6,297.44 444.7,297.44 444.7,1205.76 37.6,1205.76 "/>
  <polygon fill="none" stroke="#FEFEFE" stroke-width="3" stroke-linejoin="round" stroke-miterlimit="22.9256" points="1869.66,651.41 2057.51,651.41 2057.51,1152.4 1869.66,1152.4 "/>
  <polygon fill="none" stroke="#FEFEFE" stroke-width="3" stroke-linejoin="round" stroke-miterlimit="22.9256" points="1562.88,651.41 1750.73,651.41 1750.73,1152.4 1562.88,1152.4 "/>
  <polygon fill="none" stroke="#FEFEFE" stroke-width="3" stroke-linejoin="round" stroke-miterlimit="22.9256" points="2176.3,651.41 2364.29,651.41 2364.29,1154.21 2176.3,1154.21 "/>
  <g>
   <path fill="#EFEFEF" fill-rule="nonzero" d="M616.11 227.27c0.17,-0.38 0.61,-0.54 0.98,-0.37 0.37,0.17 0.54,0.62 0.37,0.99l-1.35 -0.62zm-9.12 1032.11l-1.35 0.62 -13.03 -30.14 -12.13 -30.55 -11.23 -30.94 -10.34 -31.3 -9.45 -31.63 -8.57 -31.93 -7.69 -32.2 -6.81 -32.45 -5.94 -32.67 -5.07 -32.87 -4.2 -33.03 -3.34 -33.17 -2.48 -33.28 -1.63 -33.36 -0.78 -33.42 0.07 -33.44 0.91 -33.44 1.75 -33.42 2.58 -33.36 3.42 -33.28 4.24 -33.17 5.07 -33.03 5.89 -32.86 6.7 -32.67 7.51 -32.45 8.32 -32.2 9.13 -31.93 9.93 -31.62 10.72 -31.29 11.52 -30.94 12.3 -30.55 13.09 -30.13 1.35 0.62 -13.07 30.1 -12.29 30.51 -11.5 30.9 -10.71 31.26 -9.92 31.59 -9.12 31.89 -8.31 32.17 -7.51 32.41 -6.69 32.64 -5.88 32.83 -5.06 32.99 -4.24 33.13 -3.41 33.24 -2.58 33.32 -1.75 33.38 -0.91 33.41 -0.07 33.41 0.78 33.38 1.63 33.32 2.48 33.24 3.34 33.13 4.2 32.99 5.06 32.83 5.93 32.63 6.8 32.41 7.68 32.16 8.56 31.89 9.44 31.58 10.33 31.25 11.22 30.9 12.11 30.51 13.01 30.09zm0 0c0.17,0.38 0,0.82 -0.37,0.99 -0.37,0.17 -0.81,0.01 -0.98,-0.37l1.35 -0.62zm10.03 -1031.09c-0.39,0.13 -0.81,-0.08 -0.94,-0.48 -0.13,-0.39 0.08,-0.82 0.47,-0.94l0.46 1.42zm28.09 -9.32l-28.09 9.32 -0.46 -1.42 28.09 -9.32 0.01 -0 0.46 1.42zm-0.46 -1.42c0.39,-0.13 0.81,0.08 0.94,0.48 0.13,0.39 -0.08,0.82 -0.47,0.94l-0.46 -1.42zm41.16 -11.63l-40.7 13.05 -0.45 -1.43 40.7 -13.05 0.01 -0 0.44 1.43zm-0.45 -1.43c0.39,-0.12 0.81,0.09 0.93,0.49 0.12,0.39 -0.09,0.82 -0.48,0.94l-0.45 -1.43zm41.27 -10.94l-40.83 12.37 -0.43 -1.43 40.83 -12.37 0.01 -0 0.42 1.44zm-0.43 -1.43c0.39,-0.12 0.81,0.11 0.92,0.5 0.12,0.4 -0.11,0.81 -0.5,0.93l-0.43 -1.43zm41.39 -10.53l-40.97 11.97 -0.41 -1.44 40.97 -11.97 0.01 -0 0.4 1.44zm-0.41 -1.44c0.39,-0.11 0.8,0.11 0.92,0.51 0.11,0.4 -0.11,0.81 -0.51,0.93l-0.41 -1.44zm41.51 -9.98l-41.1 11.42 -0.39 -1.44 41.1 -11.42 0.01 -0 0.38 1.45zm-0.39 -1.44c0.39,-0.11 0.8,0.12 0.91,0.52 0.11,0.4 -0.12,0.81 -0.52,0.92l-0.39 -1.44zm41.62 -9.43l-41.24 10.88 -0.37 -1.45 41.24 -10.88 0.01 -0 0.37 1.45zm-0.37 -1.45c0.4,-0.1 0.8,0.14 0.9,0.54 0.1,0.4 -0.13,0.81 -0.53,0.91l-0.37 -1.45zm41.74 -9.02l-41.37 10.47 -0.36 -1.45 41.37 -10.47 0.01 -0 0.35 1.45zm-0.36 -1.45c0.4,-0.1 0.8,0.14 0.9,0.54 0.1,0.4 -0.14,0.81 -0.54,0.91l-0.36 -1.45zm41.99 -8.33l-41.64 9.79 -0.34 -1.46 41.64 -9.79 0.01 -0 0.33 1.46zm-0.34 -1.46c0.4,-0.09 0.8,0.16 0.89,0.56 0.09,0.4 -0.16,0.8 -0.55,0.9l-0.34 -1.46zm41.97 -7.93l-41.64 9.38 -0.32 -1.46 41.64 -9.38 0.01 -0 0.31 1.46zm-0.32 -1.46c0.4,-0.09 0.8,0.16 0.88,0.57 0.09,0.4 -0.16,0.8 -0.56,0.89l-0.32 -1.46zm41.96 -7.38l-41.64 8.84 -0.3 -1.46 41.64 -8.84 0.01 -0 0.29 1.47zm-0.3 -1.46c0.4,-0.08 0.79,0.17 0.88,0.58 0.08,0.4 -0.17,0.8 -0.57,0.89l-0.3 -1.46zm42.21 -6.69l-41.91 8.16 -0.28 -1.47 41.91 -8.16 0 -0 0.28 1.47zm-0.28 -1.47c0.4,-0.08 0.79,0.19 0.87,0.59 0.08,0.41 -0.19,0.8 -0.59,0.88l-0.28 -1.47zm42.19 -6.42l-41.91 7.89 -0.27 -1.47 41.91 -7.89 0.01 -0 0.26 1.47zm-0.27 -1.47c0.4,-0.08 0.79,0.19 0.86,0.6 0.08,0.41 -0.19,0.8 -0.59,0.87l-0.27 -1.47zm42.44 -5.73l-42.18 7.21 -0.25 -1.48 42.18 -7.21 0.01 -0 0.24 1.48zm-0.25 -1.48c0.4,-0.07 0.79,0.21 0.85,0.61 0.07,0.41 -0.2,0.8 -0.61,0.86l-0.25 -1.48zm42.28 -5.19l-42.05 6.66 -0.23 -1.48 42.05 -6.66 0.01 -0 0.22 1.48zm-0.23 -1.48c0.4,-0.06 0.78,0.22 0.85,0.62 0.06,0.41 -0.21,0.79 -0.62,0.86l-0.23 -1.48zm42.4 -4.64l-42.18 6.12 -0.21 -1.48 42.18 -6.12 0.01 -0 0.2 1.48zm-0.21 -1.48c0.41,-0.06 0.78,0.23 0.84,0.63 0.06,0.41 -0.22,0.79 -0.63,0.85l-0.21 -1.48zm42.52 -4.23l-42.32 5.71 -0.2 -1.48 42.32 -5.71 0.01 -0 0.18 1.49zm-0.2 -1.48c0.41,-0.05 0.78,0.23 0.83,0.64 0.05,0.41 -0.23,0.79 -0.64,0.84l-0.2 -1.48zm42.64 -3.55l-42.45 5.03 -0.17 -1.49 42.45 -5.03 0.01 -0 0.17 1.49zm-0.17 -1.49c0.41,-0.05 0.77,0.25 0.82,0.66 0.05,0.41 -0.24,0.78 -0.65,0.83l-0.17 -1.49zm42.49 -3.13l-42.32 4.62 -0.16 -1.49 42.32 -4.62 0.01 -0 0.15 1.49zm-0.16 -1.49c0.41,-0.04 0.77,0.25 0.82,0.66 0.04,0.41 -0.25,0.78 -0.66,0.83l-0.16 -1.49zm42.73 -2.45l-42.59 3.94 -0.14 -1.49 42.59 -3.94 0.01 -0 0.13 1.49zm-0.14 -1.49c0.41,-0.04 0.77,0.27 0.81,0.68 0.04,0.41 -0.26,0.78 -0.67,0.81l-0.14 -1.49zm42.58 -2.04l-42.45 3.54 -0.12 -1.49 42.45 -3.54 0.01 0 0.11 1.49zm-0.12 -1.49c0.41,-0.03 0.77,0.27 0.8,0.68 0.03,0.41 -0.27,0.77 -0.68,0.81l-0.12 -1.49zm42.7 -1.5l-42.59 2.99 -0.1 -1.49 42.59 -2.99 0.01 -0 0.09 1.49zm-0.1 -1.49c0.41,-0.03 0.76,0.28 0.79,0.69 0.03,0.41 -0.28,0.77 -0.69,0.8l-0.1 -1.49zm42.68 -0.82l-42.59 2.31 -0.08 -1.49 42.59 -2.31 0.01 -0 0.07 1.5zm-0.08 -1.49c0.41,-0.02 0.76,0.3 0.78,0.71 0.02,0.41 -0.29,0.77 -0.7,0.79l-0.08 -1.49zm42.66 -0.41l-42.59 1.9 -0.07 -1.5 42.59 -1.9 0.01 0 0.06 1.5zm-0.07 -1.5c0.41,-0.02 0.76,0.3 0.77,0.72 0.02,0.41 -0.3,0.76 -0.71,0.78l-0.07 -1.5zm42.78 0.14l-42.72 1.36 -0.05 -1.5 42.72 -1.36 0.01 0 0.04 1.5zm-0.05 -1.5c0.41,-0.01 0.75,0.31 0.76,0.72 0.01,0.41 -0.31,0.76 -0.72,0.77l-0.05 -1.5zm42.62 0.68l-42.59 0.82 -0.03 -1.5 42.59 -0.82 0.01 0 0.02 1.5zm-0.03 -1.5c0.41,-0.01 0.75,0.32 0.76,0.73 0.01,0.41 -0.32,0.76 -0.73,0.76l-0.03 -1.5zm42.74 1.22l-42.72 0.27 -0.01 -1.5 42.72 -0.27 0.01 0 0 1.5zm-0.01 -1.5c0.41,-0 0.74,0.33 0.75,0.74 0,0.41 -0.33,0.75 -0.74,0.75l-0.01 -1.5zm42.59 1.77l-42.59 -0.27 0.01 -1.5 42.59 0.27 0.01 0 -0.02 1.5zm0.01 -1.5c0.41,0 0.74,0.34 0.74,0.75 -0,0.41 -0.34,0.75 -0.75,0.74l0.01 -1.5zm42.7 2.31l-42.72 -0.82 0.03 -1.5 42.72 0.82 0.01 0 -0.04 1.5zm0.03 -1.5c0.41,0.01 0.73,0.35 0.73,0.76 -0.01,0.41 -0.35,0.74 -0.76,0.73l0.03 -1.5zm42.55 2.86l-42.59 -1.36 0.05 -1.5 42.59 1.36 0.01 0 -0.06 1.5zm0.05 -1.5c0.41,0.01 0.73,0.36 0.72,0.77 -0.01,0.41 -0.36,0.74 -0.76,0.72l0.05 -1.5zm42.53 3.4l-42.59 -1.9 0.07 -1.5 42.59 1.9 0.01 0 -0.07 1.5zm0.07 -1.5c0.41,0.02 0.73,0.37 0.71,0.78 -0.02,0.41 -0.36,0.73 -0.77,0.72l0.07 -1.5zm42.52 3.81l-42.59 -2.31 0.08 -1.49 42.59 2.31 0.01 0 -0.09 1.49zm0.08 -1.49c0.41,0.02 0.72,0.37 0.7,0.79 -0.02,0.41 -0.37,0.73 -0.78,0.71l0.08 -1.49zm42.5 4.48l-42.59 -2.99 0.1 -1.49 42.59 2.99 0.01 0 -0.11 1.49zm0.1 -1.49c0.41,0.03 0.72,0.39 0.69,0.8 -0.03,0.41 -0.38,0.72 -0.79,0.69l0.1 -1.49zm42.47 5.03l-42.59 -3.54 0.12 -1.49 42.59 3.54 0.01 0 -0.13 1.49zm0.12 -1.49c0.41,0.03 0.71,0.4 0.68,0.81 -0.03,0.41 -0.39,0.72 -0.8,0.69l0.12 -1.49zm42.32 5.44l-42.45 -3.94 0.14 -1.49 42.45 3.94 0.01 0 -0.15 1.49zm0.14 -1.49c0.41,0.04 0.71,0.4 0.67,0.81 -0.04,0.41 -0.4,0.71 -0.81,0.68l0.14 -1.49zm42.17 6.11l-42.32 -4.62 0.16 -1.49 42.32 4.62 0.01 0 -0.17 1.49zm0.16 -1.49c0.41,0.04 0.7,0.41 0.66,0.83 -0.04,0.41 -0.41,0.71 -0.82,0.66l0.16 -1.49zm42.29 6.52l-42.45 -5.03 0.17 -1.49 42.45 5.03 0.01 0 -0.18 1.49zm0.17 -1.49c0.41,0.05 0.7,0.42 0.65,0.83 -0.05,0.41 -0.42,0.7 -0.82,0.66l0.17 -1.49zm42.13 7.2l-42.32 -5.71 0.2 -1.48 42.32 5.71 0.01 0 -0.2 1.48zm0.2 -1.48c0.41,0.05 0.69,0.43 0.64,0.84 -0.05,0.41 -0.43,0.7 -0.83,0.64l0.2 -1.48zm41.98 7.6l-42.18 -6.12 0.21 -1.48 42.18 6.12 0.01 0 -0.22 1.48zm0.21 -1.48c0.41,0.06 0.69,0.44 0.63,0.85 -0.06,0.41 -0.43,0.69 -0.84,0.63l0.21 -1.48zm41.97 8.14l-42.19 -6.66 0.23 -1.48 42.19 6.66 0.01 0 -0.24 1.48zm0.23 -1.48c0.4,0.06 0.68,0.45 0.62,0.86 -0.06,0.41 -0.44,0.69 -0.85,0.62l0.23 -1.48zm41.81 8.68l-42.05 -7.21 0.25 -1.48 42.05 7.21 0.01 0 -0.26 1.47zm0.25 -1.48c0.4,0.07 0.67,0.46 0.61,0.86 -0.07,0.41 -0.45,0.68 -0.85,0.61l0.25 -1.48zm41.65 9.36l-41.91 -7.89 0.27 -1.47 41.91 7.89 0 0 -0.28 1.47zm0.27 -1.47c0.4,0.08 0.67,0.47 0.59,0.87 -0.08,0.41 -0.46,0.67 -0.86,0.6l0.27 -1.47zm41.63 9.63l-41.91 -8.16 0.28 -1.47 41.91 8.16 0.01 0 -0.29 1.47zm0.28 -1.47c0.4,0.08 0.66,0.47 0.59,0.88 -0.08,0.41 -0.47,0.67 -0.87,0.59l0.28 -1.47zm41.35 10.31l-41.65 -8.84 0.3 -1.46 41.65 8.84 0.01 0 -0.31 1.46zm0.3 -1.46c0.4,0.08 0.66,0.48 0.57,0.89 -0.08,0.4 -0.48,0.66 -0.88,0.58l0.3 -1.46zm41.33 10.85l-41.64 -9.38 0.32 -1.46 41.64 9.38 0.01 0 -0.33 1.46zm0.32 -1.46c0.4,0.09 0.65,0.49 0.56,0.89 -0.09,0.4 -0.49,0.66 -0.88,0.57l0.32 -1.46zm41.32 11.25l-41.64 -9.79 0.34 -1.46 41.64 9.79 0.01 0 -0.35 1.45zm0.34 -1.46c0.4,0.09 0.65,0.5 0.55,0.9 -0.09,0.4 -0.49,0.65 -0.89,0.56l0.34 -1.46zm41.03 11.93l-41.38 -10.47 0.36 -1.45 41.38 10.47 0.01 0 -0.37 1.45zm0.36 -1.45c0.4,0.1 0.64,0.51 0.54,0.91 -0.1,0.4 -0.5,0.64 -0.9,0.54l0.36 -1.45zm40.87 12.33l-41.24 -10.88 0.37 -1.45 41.24 10.88 0.01 0 -0.38 1.45zm0.37 -1.45c0.4,0.1 0.63,0.51 0.53,0.91 -0.1,0.4 -0.51,0.64 -0.9,0.54l0.37 -1.45zm40.72 12.87l-41.11 -11.42 0.39 -1.44 41.11 11.42 0.01 0 -0.4 1.44zm0.39 -1.44c0.39,0.11 0.63,0.52 0.52,0.92 -0.11,0.4 -0.52,0.63 -0.91,0.52l0.39 -1.44zm40.57 13.41l-40.97 -11.97 0.41 -1.44 40.97 11.97 0.01 0 -0.42 1.44zm0.41 -1.44c0.39,0.11 0.62,0.53 0.51,0.93 -0.11,0.4 -0.53,0.63 -0.92,0.51l0.41 -1.44zm40.42 13.81l-40.84 -12.37 0.43 -1.43 40.84 12.37 0.01 0 -0.44 1.43zm0.43 -1.43c0.39,0.12 0.61,0.54 0.5,0.93 -0.12,0.4 -0.53,0.62 -0.92,0.5l0.43 -1.43zm40.26 14.48l-40.7 -13.05 0.45 -1.43 40.7 13.05 0.01 0 -0.46 1.42zm0.45 -1.43c0.39,0.12 0.61,0.55 0.48,0.94 -0.12,0.39 -0.54,0.61 -0.93,0.49l0.45 -1.43zm71.85 25.85l-72.31 -24.43 0.47 -1.42 72.31 24.43 -0.47 1.42zm0.47 -1.42c0.39,0.13 0.6,0.56 0.47,0.95 -0.13,0.39 -0.55,0.6 -0.94,0.47l0.47 -1.42zm-2209.85 1018.43c-0.39,-0.13 -0.6,-0.56 -0.46,-0.95 0.13,-0.39 0.55,-0.6 0.94,-0.47l-0.48 1.42zm73.57 25.24l-73.57 -25.24 0.48 -1.42 73.57 25.24 -0.46 1.42 -0.01 -0zm0.48 -1.42c0.39,0.13 0.6,0.56 0.46,0.95 -0.13,0.39 -0.55,0.6 -0.94,0.47l0.48 -1.42zm40.24 14.48l-40.7 -13.06 0.45 -1.43 40.7 13.06 -0.44 1.43 -0.01 -0zm0.45 -1.43c0.39,0.12 0.61,0.55 0.48,0.94 -0.12,0.39 -0.54,0.61 -0.93,0.49l0.45 -1.43zm40.4 13.81l-40.83 -12.38 0.43 -1.43 40.83 12.38 -0.42 1.44 -0.01 -0zm0.43 -1.43c0.39,0.12 0.61,0.54 0.5,0.93 -0.12,0.4 -0.53,0.62 -0.92,0.5l0.43 -1.43zm40.55 13.4l-40.97 -11.97 0.41 -1.44 40.97 11.97 -0.4 1.44 -0.01 -0zm0.41 -1.44c0.39,0.11 0.62,0.53 0.51,0.93 -0.11,0.4 -0.53,0.63 -0.92,0.51l0.41 -1.44zm40.7 12.86l-41.11 -11.42 0.39 -1.44 41.11 11.42 -0.38 1.45 -0.01 -0zm0.39 -1.44c0.39,0.11 0.63,0.52 0.52,0.92 -0.11,0.4 -0.52,0.63 -0.91,0.52l0.39 -1.44zm40.86 12.32l-41.24 -10.88 0.37 -1.45 41.24 10.88 -0.37 1.45 -0.01 -0zm0.37 -1.45c0.4,0.1 0.63,0.51 0.53,0.91 -0.1,0.4 -0.51,0.64 -0.9,0.54l0.37 -1.45zm41 11.92l-41.37 -10.47 0.36 -1.45 41.37 10.47 -0.35 1.45 -0.01 -0zm0.36 -1.45c0.4,0.1 0.64,0.51 0.54,0.91 -0.1,0.4 -0.5,0.64 -0.9,0.54l0.36 -1.45zm41.29 11.25l-41.64 -9.79 0.34 -1.46 41.64 9.79 -0.33 1.46 -0.01 -0zm0.34 -1.46c0.4,0.09 0.65,0.5 0.55,0.9 -0.09,0.4 -0.49,0.65 -0.89,0.56l0.34 -1.46zm41.32 10.84l-41.65 -9.38 0.32 -1.46 41.65 9.38 -0.31 1.46 -0.01 -0zm0.32 -1.46c0.4,0.09 0.65,0.49 0.56,0.89 -0.09,0.4 -0.49,0.66 -0.88,0.57l0.32 -1.46zm41.33 10.3l-41.64 -8.84 0.3 -1.46 41.64 8.84 -0.29 1.47 -0.01 -0zm0.3 -1.46c0.4,0.08 0.66,0.48 0.57,0.89 -0.08,0.4 -0.48,0.66 -0.88,0.58l0.3 -1.46zm41.62 9.63l-41.91 -8.16 0.28 -1.47 41.91 8.16 -0.28 1.47 -0.01 -0zm0.28 -1.47c0.4,0.08 0.66,0.47 0.59,0.88 -0.08,0.41 -0.47,0.67 -0.87,0.59l0.28 -1.47zm41.64 9.36l-41.91 -7.89 0.27 -1.47 41.91 7.89 -0.26 1.47 -0.01 -0zm0.27 -1.47c0.4,0.08 0.67,0.47 0.59,0.87 -0.07,0.41 -0.46,0.67 -0.86,0.6l0.27 -1.47zm41.92 8.68l-42.18 -7.21 0.25 -1.48 42.18 7.21 -0.24 1.48 -0.01 -0zm0.25 -1.48c0.4,0.07 0.67,0.46 0.61,0.86 -0.07,0.41 -0.45,0.68 -0.85,0.61l0.25 -1.48zm41.81 8.14l-42.05 -6.66 0.23 -1.48 42.05 6.66 -0.22 1.48 -0.01 -0zm0.23 -1.48c0.4,0.06 0.68,0.45 0.62,0.86 -0.06,0.41 -0.44,0.69 -0.85,0.62l0.23 -1.48zm41.97 7.6l-42.19 -6.12 0.21 -1.48 42.19 6.12 -0.2 1.48 -0.01 -0zm0.21 -1.48c0.41,0.06 0.69,0.44 0.63,0.85 -0.06,0.41 -0.43,0.69 -0.84,0.63l0.21 -1.48zm42.11 7.2l-42.31 -5.71 0.2 -1.48 42.31 5.71 -0.18 1.49 -0.01 -0zm0.2 -1.48c0.41,0.05 0.69,0.43 0.64,0.84 -0.05,0.41 -0.43,0.7 -0.83,0.64l0.2 -1.48zm42.27 6.52l-42.45 -5.03 0.17 -1.49 42.45 5.03 -0.17 1.49 -0.01 -0zm0.17 -1.49c0.41,0.05 0.7,0.42 0.65,0.83 -0.05,0.41 -0.42,0.7 -0.82,0.66l0.17 -1.49zm42.15 6.11l-42.32 -4.63 0.16 -1.49 42.32 4.63 -0.15 1.49 -0.01 -0zm0.16 -1.49c0.41,0.04 0.7,0.41 0.66,0.83 -0.04,0.41 -0.41,0.71 -0.82,0.66l0.16 -1.49zm42.44 5.43l-42.59 -3.94 0.13 -1.49 42.59 3.94 -0.13 1.49 -0.01 -0zm0.13 -1.49c0.41,0.04 0.71,0.4 0.67,0.81 -0.04,0.41 -0.4,0.71 -0.81,0.68l0.13 -1.49zm42.32 5.03l-42.45 -3.54 0.12 -1.49 42.45 3.54 -0.11 1.49 -0.01 0zm0.12 -1.49c0.41,0.03 0.71,0.4 0.68,0.81 -0.03,0.41 -0.39,0.72 -0.8,0.68l0.12 -1.49zm42.48 4.49l-42.59 -2.99 0.1 -1.49 42.59 2.99 -0.09 1.49 -0.01 -0zm0.1 -1.49c0.41,0.03 0.72,0.39 0.69,0.8 -0.03,0.41 -0.38,0.72 -0.79,0.69l0.1 -1.49zm42.5 3.8l-42.59 -2.31 0.08 -1.49 42.59 2.31 -0.07 1.5 -0.01 -0zm0.08 -1.49c0.41,0.02 0.72,0.37 0.7,0.79 -0.02,0.41 -0.37,0.73 -0.78,0.71l0.08 -1.49zm42.51 3.4l-42.59 -1.9 0.07 -1.5 42.59 1.9 -0.06 1.5 -0.01 0zm0.07 -1.5c0.41,0.02 0.73,0.37 0.71,0.78 -0.02,0.41 -0.36,0.73 -0.77,0.72l0.07 -1.5zm42.66 2.85l-42.72 -1.36 0.05 -1.5 42.72 1.36 -0.04 1.5 -0.01 0zm0.05 -1.5c0.41,0.01 0.73,0.36 0.72,0.77 -0.01,0.41 -0.36,0.74 -0.76,0.72l0.05 -1.5zm42.55 2.31l-42.59 -0.82 0.03 -1.5 42.59 0.82 -0.02 1.5 -0.01 0zm0.03 -1.5c0.41,0.01 0.73,0.35 0.73,0.76 -0.01,0.41 -0.35,0.74 -0.76,0.73l0.03 -1.5zm42.7 1.77l-42.72 -0.27 0.01 -1.5 42.72 0.27 0 1.5 -0.01 0zm0.01 -1.5c0.41,0 0.74,0.34 0.74,0.75 -0,0.41 -0.34,0.75 -0.75,0.74l0.01 -1.5zm42.59 1.22l-42.59 0.27 -0.01 -1.5 42.59 -0.27 0.02 1.5 -0.01 0zm-0.01 -1.5c0.41,-0 0.74,0.33 0.75,0.74 0,0.41 -0.33,0.75 -0.74,0.75l-0.01 -1.5zm42.74 0.68l-42.72 0.82 -0.03 -1.5 42.72 -0.82 0.04 1.5 -0.01 0zm-0.03 -1.5c0.41,-0.01 0.75,0.32 0.76,0.73 0.01,0.41 -0.32,0.76 -0.73,0.76l-0.03 -1.5zm42.62 0.14l-42.59 1.36 -0.05 -1.5 42.59 -1.36 0.06 1.5 -0.01 0zm-0.05 -1.5c0.41,-0.01 0.75,0.31 0.76,0.72 0.01,0.41 -0.31,0.76 -0.72,0.77l-0.05 -1.5zm42.64 -0.41l-42.59 1.9 -0.07 -1.5 42.59 -1.9 0.07 1.5 -0.01 0zm-0.07 -1.5c0.41,-0.02 0.76,0.3 0.77,0.72 0.02,0.41 -0.3,0.76 -0.71,0.78l-0.07 -1.5zm42.66 -0.81l-42.59 2.31 -0.08 -1.49 42.59 -2.31 0.09 1.49 -0.01 0zm-0.08 -1.49c0.41,-0.02 0.76,0.3 0.78,0.71 0.02,0.41 -0.29,0.77 -0.7,0.79l-0.08 -1.49zm42.68 -1.5l-42.59 2.99 -0.1 -1.49 42.59 -2.99 0.11 1.49 -0.01 0zm-0.1 -1.49c0.41,-0.03 0.76,0.28 0.79,0.69 0.03,0.41 -0.28,0.77 -0.69,0.8l-0.1 -1.49zm42.7 -2.04l-42.59 3.54 -0.12 -1.49 42.59 -3.54 0.13 1.49 -0.01 0zm-0.12 -1.49c0.41,-0.03 0.77,0.27 0.8,0.69 0.03,0.41 -0.27,0.77 -0.68,0.81l-0.12 -1.49zm42.58 -2.45l-42.45 3.94 -0.14 -1.49 42.45 -3.94 0.15 1.49 -0.01 0zm-0.14 -1.49c0.41,-0.04 0.77,0.27 0.81,0.68 0.04,0.41 -0.26,0.78 -0.67,0.81l-0.14 -1.49zm42.46 -3.13l-42.32 4.63 -0.16 -1.49 42.32 -4.63 0.17 1.49 -0.01 0zm-0.16 -1.49c0.41,-0.04 0.77,0.25 0.82,0.66 0.04,0.41 -0.25,0.78 -0.66,0.83l-0.16 -1.49zm42.62 -3.54l-42.45 5.03 -0.17 -1.49 42.45 -5.03 0.18 1.49 -0.01 0zm-0.17 -1.49c0.41,-0.05 0.77,0.25 0.82,0.66 0.05,0.41 -0.24,0.78 -0.65,0.83l-0.17 -1.49zm42.5 -4.23l-42.32 5.71 -0.2 -1.48 42.32 -5.71 0.2 1.48 -0.01 0zm-0.2 -1.48c0.41,-0.05 0.78,0.23 0.83,0.64 0.05,0.41 -0.23,0.79 -0.64,0.84l-0.2 -1.48zm42.39 -4.64l-42.18 6.12 -0.21 -1.48 42.18 -6.12 0.22 1.48 -0.01 0zm-0.21 -1.48c0.41,-0.06 0.78,0.23 0.84,0.63 0.06,0.41 -0.22,0.79 -0.63,0.85l-0.21 -1.48zm42.4 -5.18l-42.18 6.66 -0.23 -1.48 42.18 -6.66 0.24 1.48 -0.01 0zm-0.23 -1.48c0.4,-0.06 0.78,0.22 0.85,0.62 0.06,0.41 -0.21,0.79 -0.62,0.86l-0.23 -1.48zm42.29 -5.73l-42.05 7.21 -0.25 -1.48 42.05 -7.21 0.26 1.47 -0.01 0zm-0.25 -1.48c0.4,-0.07 0.79,0.21 0.85,0.61 0.07,0.41 -0.2,0.8 -0.61,0.86l-0.25 -1.48zm42.17 -6.41l-41.91 7.89 -0.27 -1.47 41.91 -7.89 0.28 1.47 -0.01 0zm-0.27 -1.47c0.4,-0.08 0.79,0.19 0.86,0.6 0.07,0.41 -0.19,0.8 -0.59,0.87l-0.27 -1.47zm42.19 -6.69l-41.91 8.16 -0.28 -1.47 41.91 -8.16 0.29 1.47 -0.01 0zm-0.28 -1.47c0.4,-0.08 0.79,0.19 0.87,0.59 0.08,0.41 -0.19,0.8 -0.59,0.88l-0.28 -1.47zm41.94 -7.37l-41.64 8.84 -0.3 -1.46 41.64 -8.84 0.31 1.46 -0.01 0zm-0.3 -1.46c0.4,-0.08 0.79,0.17 0.88,0.58 0.08,0.4 -0.17,0.8 -0.57,0.89l-0.3 -1.46zm41.96 -7.92l-41.64 9.38 -0.32 -1.46 41.64 -9.38 0.33 1.46 -0.01 0zm-0.32 -1.46c0.4,-0.09 0.8,0.16 0.88,0.57 0.09,0.4 -0.16,0.8 -0.56,0.89l-0.32 -1.46zm41.97 -8.33l-41.64 9.79 -0.34 -1.46 41.64 -9.79 0.35 1.45 -0.01 0zm-0.34 -1.46c0.4,-0.09 0.8,0.16 0.89,0.56 0.09,0.4 -0.16,0.8 -0.55,0.9l-0.34 -1.46zm41.72 -9.02l-41.37 10.47 -0.36 -1.45 41.37 -10.47 0.37 1.45 -0.01 0zm-0.36 -1.45c0.4,-0.1 0.8,0.14 0.9,0.54 0.1,0.4 -0.14,0.81 -0.54,0.91l-0.36 -1.45zm41.61 -9.43l-41.24 10.88 -0.37 -1.45 41.24 -10.88 0.38 1.45 -0.01 0zm-0.37 -1.45c0.4,-0.1 0.8,0.14 0.9,0.54 0.1,0.4 -0.13,0.81 -0.53,0.91l-0.37 -1.45zm41.49 -9.98l-41.1 11.42 -0.39 -1.44 41.1 -11.42 0.4 1.44 -0.01 0zm-0.39 -1.44c0.39,-0.11 0.8,0.12 0.91,0.52 0.11,0.4 -0.12,0.81 -0.52,0.92l-0.39 -1.44zm41.37 -10.52l-40.97 11.97 -0.41 -1.44 40.97 -11.97 0.42 1.44 -0.01 0zm-0.41 -1.44c0.39,-0.11 0.8,0.11 0.92,0.51 0.11,0.4 -0.11,0.81 -0.51,0.93l-0.41 -1.44zm41.25 -10.94l-40.83 12.38 -0.43 -1.43 40.83 -12.38 0.44 1.43 -0.01 0zm-0.43 -1.43c0.39,-0.12 0.81,0.11 0.92,0.5 0.12,0.4 -0.11,0.81 -0.5,0.93l-0.43 -1.43zm41.14 -11.62l-40.7 13.06 -0.45 -1.43 40.7 -13.06 0.46 1.42 -0.01 0zm-0.45 -1.43c0.39,-0.12 0.81,0.09 0.93,0.49 0.12,0.39 -0.09,0.82 -0.48,0.94l-0.45 -1.43zm42.86 -13.09l-42.4 14.51 -0.48 -1.42 42.4 -14.51 0.48 1.42zm-0.48 -1.42c0.39,-0.13 0.81,0.08 0.94,0.47 0.13,0.39 -0.08,0.82 -0.46,0.95l-0.48 -1.42zm1.68 0.28c-0.17,0.38 -0.61,0.54 -0.98,0.37 -0.37,-0.17 -0.54,-0.62 -0.37,-0.99l1.35 0.62zm-7.2 -1026.99l1.35 -0.62 13.08 30.12 12.27 30.51 11.45 30.87 10.64 31.2 9.82 31.51 9 31.79 8.18 32.05 7.36 32.28 6.53 32.49 5.71 32.67 4.88 32.82 4.04 32.95 3.21 33.05 2.37 33.13 1.54 33.18 0.7 33.21 -0.15 33.2 -0.99 33.18 -1.84 33.13 -2.69 33.05 -3.54 32.95 -4.39 32.82 -5.25 32.67 -6.1 32.49 -6.97 32.28 -7.83 32.05 -8.69 31.79 -9.56 31.51 -10.43 31.2 -11.3 30.87 -12.17 30.51 -13.04 30.12 -1.35 -0.62 13.03 -30.08 12.15 -30.47 11.28 -30.83 10.41 -31.16 9.55 -31.47 8.68 -31.75 7.82 -32.01 6.96 -32.24 6.1 -32.45 5.24 -32.63 4.39 -32.78 3.54 -32.91 2.68 -33.01 1.84 -33.09 0.99 -33.14 0.15 -33.17 -0.7 -33.17 -1.53 -33.14 -2.37 -33.09 -3.21 -33.01 -4.04 -32.91 -4.87 -32.78 -5.7 -32.63 -6.53 -32.45 -7.35 -32.24 -8.17 -32.01 -8.99 -31.75 -9.81 -31.47 -10.63 -31.16 -11.44 -30.83 -12.25 -30.47 -13.06 -30.08zm0 0c-0.17,-0.38 -0,-0.82 0.37,-0.99 0.37,-0.17 0.81,-0.01 0.98,0.37l-1.35 0.62z"/>
  </g>
  <polygon fill="#EFEFEF" fill-rule="nonzero" points="774.21,484.96 767.12,484.96 767.12,454.01 759.53,463 754.34,458.01 767.92,442.03 774.21,442.03 "/>
  <path fill="#EFEFEF" fill-rule="nonzero" d="M785.97 675.21c0,4.23 -1.43,7.77 -4.29,10.63 -1.06,1.03 -2.55,2.16 -4.44,3.39 -1.9,1.23 -4.18,2.53 -6.84,3.89l-8.19 4.14 20.91 0 0 7.09 -34.64 0 0 -8.16 18.52 -9.36c4.66,-2.33 7.7,-4.15 9.13,-5.48 1.83,-1.72 2.74,-3.83 2.74,-6.31 0,-0.6 -0.28,-1.25 -0.85,-1.95 -0.57,-0.7 -1.41,-1.49 -2.54,-2.39 -2.86,-2.12 -5.98,-3.19 -9.37,-3.19 -3.19,0 -6.23,0.96 -9.12,2.87 -1.36,0.88 -2.32,1.8 -2.89,2.76 -0.67,1.12 -1,2.57 -1,4.35l-7.09 -0.55c0,-2.45 0.46,-4.58 1.37,-6.4 0.91,-1.81 2.4,-3.55 4.47,-5.25 4.06,-3.25 8.8,-4.88 14.23,-4.88 2.66,0 5.12,0.38 7.39,1.15 1.26,0.4 2.4,0.87 3.42,1.42 1.02,0.55 2.07,1.27 3.17,2.17 3.93,3.1 5.89,6.44 5.89,10.03z"/>
  <path fill="#EFEFEF" fill-rule="nonzero" d="M784.15 878.46c0,1.73 -0.48,3.44 -1.45,5.14 -0.97,1.7 -2.46,3.34 -4.49,4.93 -4.16,3.16 -8.9,4.74 -14.23,4.74 -5.49,0 -10.25,-1.78 -14.28,-5.34 -1.86,-1.63 -3.24,-3.34 -4.12,-5.12 -0.88,-1.78 -1.32,-3.84 -1.32,-6.16l7.09 -0.55c0,1.63 0.27,2.94 0.8,3.94 0.53,1 1.42,2 2.67,3 1.25,1 2.67,1.76 4.27,2.3 1.53,0.57 3.16,0.85 4.89,0.85 3.49,0 6.67,-1.03 9.53,-3.09 1.16,-0.82 2.05,-1.61 2.65,-2.34 0.6,-0.72 0.9,-1.46 0.9,-2.19 0,-2.12 -0.93,-3.72 -2.79,-4.8 -1.86,-1.07 -4.66,-1.61 -8.39,-1.61l-5.64 0 0 -7.09 5.54 0c2.66,0 4.91,-0.48 6.74,-1.44 0.73,-0.43 1.29,-0.86 1.67,-1.29 0.38,-0.43 0.57,-0.93 0.57,-1.49 0,-0.67 -0.29,-1.31 -0.87,-1.91 -0.58,-0.62 -1.42,-1.2 -2.52,-1.76 -2.26,-1.16 -4.64,-1.74 -7.14,-1.74 -1.1,0 -2.17,0.11 -3.22,0.32 -1.05,0.22 -2.16,0.57 -3.32,1.06 -1.16,0.49 -2.05,1.06 -2.65,1.68 -0.7,0.76 -1.3,1.86 -1.8,3.32l-6.69 -2.49c0.53,-1.92 1.3,-3.51 2.3,-4.78 1,-1.26 2.4,-2.39 4.19,-3.38 3.36,-1.89 7.05,-2.84 11.08,-2.84 4.66,0 8.7,1.13 12.13,3.39 1.8,1.2 3.18,2.55 4.14,4.04 0.96,1.49 1.45,3.14 1.45,4.93 0,1.13 -0.19,2.17 -0.57,3.14 -0.38,0.96 -0.97,1.91 -1.77,2.84l-1.3 1.24c1.2,0.73 2.26,1.66 3.19,2.8 0.47,0.57 0.93,1.31 1.4,2.25 0.3,0.6 0.52,1.06 0.65,1.4 0.47,1.3 0.7,2.66 0.7,4.08z"/>
  <path fill="#EFEFEF" fill-rule="nonzero" d="M783.93 1088.84l-8.14 0 0 6.74 -7.09 0 0 -6.74 -24.21 0 0 -6.93 25.06 -29.26 6.24 0 0 29.1 8.14 0 0 7.09zm-15.22 -7.09l0 -17.17 -14.63 17.17 14.63 0z"/>
  <path fill="#EFEFEF" fill-rule="nonzero" d="M1208.81 236.22c0,1.76 -0.47,3.47 -1.42,5.12 -0.95,1.65 -2.42,3.25 -4.42,4.82 -4.06,3.26 -8.74,4.89 -14.03,4.89 -2.66,0 -5.18,-0.41 -7.54,-1.22 -2.36,-0.82 -4.58,-2.03 -6.64,-3.64 -2.06,-1.61 -3.56,-3.34 -4.49,-5.19 -0.93,-1.85 -1.4,-4.03 -1.4,-6.56l7.09 -0.55c0,1.8 0.3,3.21 0.9,4.24 0.6,1.03 1.57,2.01 2.94,2.94 2.82,1.93 5.88,2.89 9.17,2.89 3.45,0 6.56,-1.06 9.32,-3.19 2.29,-1.7 3.44,-3.18 3.44,-4.44 0,-2.46 -1.31,-4.28 -3.94,-5.44 -1.1,-0.53 -2.36,-0.92 -3.79,-1.15 -1.43,-0.23 -3.18,-0.35 -5.24,-0.35l-17.47 0 0 -22.26 34.69 0 0 7.09 -27.6 0 0 8.09 10.35 0c5.63,0 10.07,0.88 13.3,2.65 4.53,2.43 6.8,6.19 6.8,11.28z"/>
  <path fill="#EFEFEF" fill-rule="nonzero" d="M1270.87 471.13c0,1.73 -0.49,3.44 -1.47,5.14 -0.98,1.7 -2.44,3.3 -4.37,4.79 -3.96,3.26 -8.64,4.89 -14.03,4.89 -6.36,0 -11.76,-2.31 -16.22,-6.94 -4.19,-4.39 -6.29,-9.53 -6.29,-15.42 0,-6.32 2.2,-11.66 6.59,-16.02 4.39,-4.36 9.67,-6.54 15.82,-6.54 3.66,0 7.17,0.85 10.53,2.55 1.16,0.57 2.35,1.35 3.54,2.35 0.9,0.7 2.35,2.11 4.34,4.24l-5.74 4.34c-0.93,-1.06 -1.82,-1.94 -2.67,-2.65 -0.85,-0.71 -1.69,-1.31 -2.52,-1.81 -0.6,-0.32 -1.16,-0.59 -1.67,-0.79 -0.52,-0.2 -1.16,-0.42 -1.92,-0.64 -1.23,-0.33 -2.55,-0.5 -3.94,-0.5 -4.19,0 -7.79,1.47 -10.78,4.42 -3,2.94 -4.49,6.61 -4.49,11.01l0 1.5 0.15 1.15 -3.14 0.1c0.73,-2.93 2.58,-5.08 5.54,-6.46 2.96,-1.38 7.19,-2.07 12.68,-2.07 3.86,0 7.12,0.37 9.78,1.1 2.66,0.73 4.84,1.85 6.54,3.34 1.2,1.1 2.12,2.39 2.77,3.87 0.65,1.48 0.97,3.17 0.97,5.07zm-7.09 0.15c0,-2.13 -0.95,-3.71 -2.85,-4.74 -2.26,-1.13 -5.64,-1.7 -10.13,-1.7 -2.46,0 -4.49,0.12 -6.09,0.37 -1.6,0.25 -2.96,0.67 -4.09,1.27 -1.76,0.93 -2.65,2.53 -2.65,4.79 0,0.6 0.31,1.26 0.92,2 0.62,0.73 1.47,1.51 2.57,2.35 2.96,2.16 6.14,3.24 9.53,3.24 3.46,0 6.57,-1.06 9.33,-3.19 1.16,-0.86 2.03,-1.64 2.6,-2.32 0.57,-0.68 0.85,-1.37 0.85,-2.07z"/>
  <polygon fill="#EFEFEF" fill-rule="nonzero" points="1269.02,885.91 1236.78,924.28 1231.29,919.74 1258.69,887.15 1231.14,887.15 1231.14,880.07 1269.02,880.07 "/>
  <path fill="#EFEFEF" fill-rule="nonzero" d="M1206.97 1299.81c0,3.59 -2,6.96 -5.99,10.11 -3.99,3.14 -8.62,4.72 -13.88,4.72 -5.19,0 -9.9,-1.58 -14.13,-4.74 -2.03,-1.56 -3.54,-3.18 -4.52,-4.84 -0.98,-1.66 -1.47,-3.41 -1.47,-5.24 0,-1.56 0.22,-2.95 0.65,-4.14 0.27,-0.67 0.57,-1.31 0.92,-1.92 0.35,-0.62 0.77,-1.22 1.27,-1.82 2,-2.3 4.63,-3.63 7.89,-3.99l-0.05 3.19c-0.5,-0.03 -1.01,-0.12 -1.52,-0.27 -0.52,-0.15 -1.03,-0.35 -1.55,-0.6 -0.52,-0.25 -0.97,-0.52 -1.37,-0.8 -0.4,-0.28 -0.83,-0.65 -1.3,-1.12 -1.76,-1.76 -2.65,-3.85 -2.65,-6.27 0,-3.55 1.9,-6.55 5.69,-8.97 0.86,-0.53 1.79,-1.02 2.77,-1.45 0.98,-0.42 1.97,-0.79 2.97,-1.09 1.9,-0.57 3.99,-0.85 6.29,-0.85 4.72,0 8.85,1.16 12.38,3.46 3.53,2.3 5.29,5.27 5.29,8.88 0,2.23 -0.93,4.27 -2.8,6.12l-1.35 1.15c1.43,0.7 2.65,1.63 3.64,2.8 0.9,1.06 1.59,2.25 2.07,3.54 0.48,1.3 0.72,2.68 0.72,4.14zm-9.38 -17.6c0,-0.67 -0.29,-1.31 -0.87,-1.91 -0.58,-0.62 -1.42,-1.2 -2.52,-1.76 -2.26,-1.16 -4.64,-1.74 -7.14,-1.74 -1.2,0 -2.42,0.14 -3.67,0.42 -1.25,0.28 -2.43,0.71 -3.54,1.29 -1.11,0.58 -1.97,1.16 -2.57,1.76 -0.6,0.59 -0.9,1.26 -0.9,1.99 0,1.09 0.75,2.01 2.25,2.78 0.9,0.43 2.03,0.76 3.39,0.99 0.73,0.13 1.48,0.23 2.25,0.3 0.77,0.07 1.65,0.1 2.65,0.1 3.46,0 6.19,-0.47 8.19,-1.39 0.83,-0.4 1.46,-0.82 1.87,-1.26 0.42,-0.45 0.62,-0.97 0.62,-1.56zm2.3 17.7c0,-2.1 -0.96,-3.66 -2.89,-4.69 -2.23,-1.13 -5.59,-1.7 -10.08,-1.7 -2.46,0 -4.49,0.12 -6.09,0.37 -1.6,0.25 -2.96,0.67 -4.09,1.27 -1.76,0.93 -2.65,2.53 -2.65,4.79 0,0.67 0.3,1.36 0.9,2.1 0.6,0.73 1.46,1.53 2.6,2.4 2.86,2.06 6.04,3.09 9.53,3.09 3.43,0 6.56,-1.03 9.38,-3.09 1.13,-0.83 1.98,-1.61 2.55,-2.35 0.57,-0.73 0.85,-1.46 0.85,-2.2z"/>
  <path fill="#EFEFEF" fill-rule="nonzero" d="M1528.94 1307.44c0,6.3 -2.21,11.66 -6.64,16.09 -1,0.96 -2.14,1.88 -3.42,2.75 -1.28,0.87 -2.57,1.59 -3.87,2.15 -2.66,1.1 -5.51,1.65 -8.54,1.65 -3.56,0 -7.07,-0.87 -10.53,-2.6 -1.36,-0.7 -2.64,-1.56 -3.82,-2.55 -1.18,-1.01 -2.5,-2.39 -3.97,-4.16l5.69 -4.31c1,1.17 1.89,2.1 2.67,2.79 0.78,0.68 1.59,1.26 2.42,1.73 0.63,0.33 1.21,0.62 1.75,0.83 0.53,0.22 1.18,0.44 1.95,0.68 1.4,0.33 2.7,0.5 3.89,0.5 4.23,0 7.84,-1.5 10.83,-4.5 2.99,-3 4.49,-6.68 4.49,-11.01l0 -1.46 -0.25 -1.35 3.2 0.05c-0.73,2.93 -2.6,5.09 -5.62,6.49 -3.01,1.4 -7.21,2.1 -12.6,2.1 -3.76,0 -7,-0.37 -9.71,-1.12 -2.71,-0.75 -4.92,-1.87 -6.61,-3.37 -1.23,-1.13 -2.16,-2.41 -2.77,-3.84 -0.62,-1.43 -0.92,-3.13 -0.92,-5.09 0,-1.9 0.48,-3.66 1.45,-5.29 0.5,-0.8 1.1,-1.58 1.8,-2.35 0.7,-0.76 1.55,-1.53 2.55,-2.3 3.93,-3.23 8.6,-4.84 14.03,-4.84 6.36,0 11.76,2.3 16.22,6.9 4.23,4.43 6.34,9.58 6.34,15.44zm-9.48 -7.71c0,-0.6 -0.32,-1.26 -0.95,-2 -0.63,-0.73 -1.5,-1.51 -2.6,-2.35 -2.86,-2.13 -6.04,-3.19 -9.53,-3.19 -3.53,0 -6.66,1.05 -9.38,3.14 -1.13,0.86 -1.97,1.63 -2.52,2.3 -0.55,0.67 -0.82,1.36 -0.82,2.1 0,2.23 1.04,3.87 3.12,4.92 2.08,1.05 5.35,1.57 9.81,1.57 4.53,0 7.9,-0.57 10.13,-1.7 1.83,-0.9 2.74,-2.5 2.74,-4.79z"/>
  <path fill="#EFEFEF" fill-rule="nonzero" d="M1636.17 923.59l-7.09 0 0 -30.95 -7.59 8.98 -5.19 -4.98 13.58 -15.98 6.29 0 0 42.93zm61.15 -21.51c0,6.22 -2.2,11.53 -6.59,15.92 -4.39,4.39 -9.7,6.59 -15.92,6.59 -6.22,0 -11.52,-2.19 -15.9,-6.56 -4.38,-4.38 -6.56,-9.69 -6.56,-15.95 0,-6.22 2.18,-11.51 6.54,-15.87 4.36,-4.36 9.67,-6.54 15.92,-6.54 6.16,0 11.45,2.16 15.87,6.49 4.43,4.33 6.64,9.63 6.64,15.92zm-7.09 0c0,-4.23 -1.51,-7.84 -4.52,-10.83 -3.01,-3 -6.66,-4.49 -10.96,-4.49 -4.26,0 -7.88,1.49 -10.86,4.47 -2.98,2.98 -4.47,6.6 -4.47,10.86 0,4.19 1.5,7.81 4.49,10.86 2.99,3.04 6.61,4.57 10.83,4.57 2.06,0 4,-0.37 5.82,-1.12 1.81,-0.75 3.5,-1.89 5.07,-3.42 3.06,-3.06 4.59,-6.69 4.59,-10.88z"/>
  <path fill="#EFEFEF" fill-rule="nonzero" d="M1831.3 484.96l-7.09 0 0 -30.95 -7.59 8.98 -5.19 -4.98 13.58 -15.98 6.29 0 0 42.93zm46.72 0l-7.09 0 0 -30.95 -7.59 8.98 -5.19 -4.98 13.58 -15.98 6.29 0 0 42.93z"/>
  <path fill="#EFEFEF" fill-rule="nonzero" d="M1493.24 234.4l-7.09 0 0 -30.95 -7.59 8.98 -5.19 -4.98 13.58 -15.98 6.29 0 0 42.93zm58.55 -29.15c0,4.23 -1.43,7.77 -4.29,10.63 -1.06,1.03 -2.55,2.16 -4.44,3.39 -1.9,1.23 -4.18,2.53 -6.84,3.89l-8.19 4.14 20.91 0 0 7.09 -34.64 0 0 -8.16 18.52 -9.36c4.66,-2.33 7.7,-4.15 9.13,-5.48 1.83,-1.72 2.74,-3.83 2.74,-6.31 0,-0.6 -0.28,-1.25 -0.85,-1.95 -0.57,-0.7 -1.41,-1.49 -2.54,-2.39 -2.86,-2.12 -5.98,-3.19 -9.37,-3.19 -3.19,0 -6.23,0.96 -9.12,2.87 -1.36,0.88 -2.32,1.8 -2.89,2.76 -0.67,1.12 -1,2.57 -1,4.35l-7.09 -0.55c0,-2.45 0.46,-4.58 1.37,-6.4 0.91,-1.81 2.4,-3.55 4.47,-5.25 4.06,-3.25 8.8,-4.88 14.23,-4.88 2.66,0 5.12,0.38 7.39,1.15 1.26,0.4 2.4,0.87 3.42,1.42 1.02,0.55 2.07,1.27 3.17,2.17 3.93,3.1 5.89,6.44 5.89,10.03z"/>
  <path fill="#EFEFEF" fill-rule="nonzero" d="M1822.73 235.1l-7.09 0 0 -30.95 -7.59 8.98 -5.19 -4.98 13.58 -15.98 6.29 0 0 42.93zm58.55 -13.82c0,1.73 -0.48,3.44 -1.45,5.14 -0.97,1.7 -2.46,3.34 -4.49,4.93 -4.16,3.16 -8.9,4.74 -14.23,4.74 -5.49,0 -10.25,-1.78 -14.28,-5.34 -1.86,-1.63 -3.24,-3.34 -4.12,-5.12 -0.88,-1.78 -1.32,-3.84 -1.32,-6.16l7.09 -0.55c0,1.63 0.27,2.94 0.8,3.94 0.53,1 1.42,2 2.67,3 1.25,1 2.67,1.76 4.27,2.3 1.53,0.57 3.16,0.85 4.89,0.85 3.49,0 6.67,-1.03 9.53,-3.09 1.16,-0.82 2.05,-1.61 2.65,-2.34 0.6,-0.72 0.9,-1.46 0.9,-2.19 0,-2.12 -0.93,-3.72 -2.79,-4.8 -1.86,-1.07 -4.66,-1.61 -8.39,-1.61l-5.64 0 0 -7.09 5.54 0c2.66,0 4.91,-0.48 6.74,-1.44 0.73,-0.43 1.29,-0.86 1.67,-1.29 0.38,-0.43 0.57,-0.93 0.57,-1.49 0,-0.67 -0.29,-1.31 -0.87,-1.91 -0.58,-0.62 -1.42,-1.2 -2.52,-1.76 -2.26,-1.16 -4.64,-1.74 -7.14,-1.74 -1.1,0 -2.17,0.11 -3.22,0.32 -1.05,0.22 -2.16,0.57 -3.32,1.06 -1.16,0.49 -2.05,1.06 -2.65,1.68 -0.7,0.76 -1.3,1.86 -1.8,3.32l-6.69 -2.49c0.53,-1.92 1.3,-3.51 2.3,-4.78 1,-1.26 2.4,-2.39 4.19,-3.38 3.36,-1.89 7.05,-2.84 11.08,-2.84 4.66,0 8.7,1.13 12.13,3.39 1.8,1.2 3.18,2.55 4.14,4.04 0.96,1.49 1.45,3.14 1.45,4.93 0,1.13 -0.19,2.17 -0.57,3.14 -0.38,0.96 -0.97,1.91 -1.77,2.84l-1.3 1.24c1.2,0.73 2.26,1.66 3.19,2.8 0.47,0.57 0.93,1.31 1.4,2.25 0.3,0.6 0.52,1.06 0.65,1.4 0.47,1.3 0.7,2.66 0.7,4.08z"/>
  <path fill="#EFEFEF" fill-rule="nonzero" d="M2188.31 250.04l-7.09 0 0 -30.95 -7.59 8.98 -5.19 -4.98 13.58 -15.98 6.29 0 0 42.93zm59 -6.74l-8.14 0 0 6.74 -7.09 0 0 -6.74 -24.21 0 0 -6.93 25.06 -29.26 6.24 0 0 29.1 8.14 0 0 7.09zm-15.22 -7.09l0 -17.17 -14.63 17.17 14.63 0z"/>
  <path fill="#EFEFEF" fill-rule="nonzero" d="M2250.73 484.96l-7.09 0 0 -30.95 -7.59 8.98 -5.19 -4.98 13.58 -15.98 6.29 0 0 42.93zm58.55 -13.83c0,1.76 -0.47,3.47 -1.42,5.12 -0.95,1.65 -2.42,3.25 -4.42,4.82 -4.06,3.26 -8.74,4.89 -14.03,4.89 -2.66,0 -5.18,-0.41 -7.54,-1.22 -2.36,-0.82 -4.58,-2.03 -6.64,-3.64 -2.06,-1.61 -3.56,-3.34 -4.49,-5.19 -0.93,-1.85 -1.4,-4.03 -1.4,-6.56l7.09 -0.55c0,1.8 0.3,3.21 0.9,4.24 0.6,1.03 1.57,2.01 2.94,2.94 2.82,1.93 5.88,2.89 9.17,2.89 3.45,0 6.56,-1.06 9.32,-3.19 2.29,-1.7 3.44,-3.18 3.44,-4.44 0,-2.46 -1.31,-4.28 -3.94,-5.44 -1.1,-0.53 -2.36,-0.92 -3.79,-1.15 -1.43,-0.23 -3.18,-0.35 -5.24,-0.35l-17.47 0 0 -22.26 34.69 0 0 7.09 -27.6 0 0 8.09 10.35 0c5.63,0 10.07,0.88 13.3,2.65 4.53,2.43 6.8,6.19 6.8,11.28z"/>
  <path fill="#EFEFEF" fill-rule="nonzero" d="M1944.24 922.87l-7.09 0 0 -30.95 -7.59 8.98 -5.19 -4.98 13.58 -15.98 6.29 0 0 42.93zm59.8 -13.83c0,1.73 -0.49,3.44 -1.47,5.14 -0.98,1.7 -2.44,3.3 -4.37,4.79 -3.96,3.26 -8.64,4.89 -14.03,4.89 -6.36,0 -11.76,-2.31 -16.22,-6.94 -4.19,-4.39 -6.29,-9.53 -6.29,-15.42 0,-6.32 2.2,-11.66 6.59,-16.02 4.39,-4.36 9.67,-6.54 15.82,-6.54 3.66,0 7.17,0.85 10.53,2.55 1.16,0.57 2.35,1.35 3.54,2.35 0.9,0.7 2.35,2.11 4.34,4.24l-5.74 4.34c-0.93,-1.06 -1.82,-1.94 -2.67,-2.65 -0.85,-0.71 -1.69,-1.31 -2.52,-1.81 -0.6,-0.32 -1.16,-0.59 -1.67,-0.79 -0.52,-0.2 -1.16,-0.42 -1.92,-0.64 -1.23,-0.33 -2.55,-0.5 -3.94,-0.5 -4.19,0 -7.79,1.47 -10.78,4.42 -3,2.94 -4.49,6.61 -4.49,11.01l0 1.5 0.15 1.15 -3.14 0.1c0.73,-2.93 2.58,-5.08 5.54,-6.46 2.96,-1.38 7.19,-2.07 12.68,-2.07 3.86,0 7.12,0.37 9.78,1.1 2.66,0.73 4.84,1.85 6.54,3.34 1.2,1.1 2.12,2.39 2.77,3.87 0.65,1.48 0.97,3.17 0.97,5.07zm-7.09 0.15c0,-2.13 -0.95,-3.71 -2.85,-4.74 -2.26,-1.13 -5.64,-1.7 -10.13,-1.7 -2.46,0 -4.49,0.12 -6.09,0.37 -1.6,0.25 -2.96,0.67 -4.09,1.27 -1.76,0.93 -2.65,2.53 -2.65,4.79 0,0.6 0.31,1.26 0.92,2 0.62,0.73 1.47,1.51 2.57,2.35 2.96,2.16 6.14,3.24 9.53,3.24 3.46,0 6.57,-1.06 9.33,-3.19 1.16,-0.86 2.03,-1.64 2.6,-2.32 0.57,-0.68 0.85,-1.37 0.85,-2.07z"/>
  <path fill="#EFEFEF" fill-rule="nonzero" d="M2250.95 922.87l-7.09 0 0 -30.95 -7.59 8.98 -5.19 -4.98 13.58 -15.98 6.29 0 0 42.93zm57.95 -37.09l-32.25 38.38 -5.49 -4.54 27.4 -32.59 -27.55 0 0 -7.09 37.89 0 0 5.84z"/>
  <path fill="#EFEFEF" fill-rule="nonzero" d="M1822.11 1329.08l-7.09 0 0 -30.95 -7.59 8.98 -5.19 -4.98 13.58 -15.98 6.29 0 0 42.93zm58.55 -13.83c0,3.59 -2,6.96 -5.99,10.11 -3.99,3.14 -8.62,4.72 -13.88,4.72 -5.19,0 -9.9,-1.58 -14.13,-4.74 -2.03,-1.56 -3.54,-3.18 -4.52,-4.84 -0.98,-1.66 -1.47,-3.41 -1.47,-5.24 0,-1.56 0.22,-2.95 0.65,-4.14 0.27,-0.67 0.57,-1.31 0.92,-1.92 0.35,-0.62 0.77,-1.22 1.27,-1.82 2,-2.3 4.63,-3.63 7.89,-3.99l-0.05 3.19c-0.5,-0.03 -1.01,-0.12 -1.52,-0.27 -0.52,-0.15 -1.03,-0.35 -1.55,-0.6 -0.52,-0.25 -0.97,-0.52 -1.37,-0.8 -0.4,-0.28 -0.83,-0.65 -1.3,-1.12 -1.76,-1.76 -2.65,-3.85 -2.65,-6.27 0,-3.55 1.9,-6.55 5.69,-8.97 0.86,-0.53 1.79,-1.02 2.77,-1.45 0.98,-0.42 1.97,-0.79 2.97,-1.09 1.9,-0.57 3.99,-0.85 6.29,-0.85 4.72,0 8.85,1.16 12.38,3.46 3.53,2.3 5.29,5.27 5.29,8.88 0,2.23 -0.93,4.27 -2.8,6.12l-1.35 1.15c1.43,0.7 2.65,1.63 3.64,2.8 0.9,1.06 1.59,2.25 2.07,3.54 0.48,1.3 0.72,2.68 0.72,4.14zm-9.38 -17.6c0,-0.67 -0.29,-1.31 -0.87,-1.91 -0.58,-0.62 -1.42,-1.2 -2.52,-1.76 -2.26,-1.16 -4.64,-1.74 -7.14,-1.74 -1.2,0 -2.42,0.14 -3.67,0.42 -1.25,0.28 -2.43,0.71 -3.54,1.29 -1.11,0.58 -1.97,1.16 -2.57,1.76 -0.6,0.59 -0.9,1.26 -0.9,1.99 0,1.09 0.75,2.01 2.25,2.78 0.9,0.43 2.03,0.76 3.39,0.99 0.73,0.13 1.48,0.23 2.25,0.3 0.77,0.07 1.65,0.1 2.65,0.1 3.46,0 6.19,-0.47 8.19,-1.39 0.83,-0.4 1.46,-0.82 1.87,-1.26 0.42,-0.45 0.62,-0.97 0.62,-1.56zm2.3 17.7c0,-2.1 -0.96,-3.66 -2.89,-4.69 -2.23,-1.13 -5.59,-1.7 -10.08,-1.7 -2.46,0 -4.49,0.12 -6.09,0.37 -1.6,0.25 -2.96,0.67 -4.09,1.27 -1.76,0.93 -2.65,2.53 -2.65,4.79 0,0.67 0.3,1.36 0.9,2.1 0.6,0.73 1.46,1.53 2.6,2.4 2.86,2.06 6.04,3.09 9.53,3.09 3.43,0 6.56,-1.03 9.38,-3.09 1.13,-0.83 1.98,-1.61 2.55,-2.35 0.57,-0.73 0.85,-1.46 0.85,-2.2z"/>
  <path fill="#EFEFEF" fill-rule="nonzero" d="M2188.31 1313.64l-7.09 0 0 -30.95 -7.59 8.98 -5.19 -4.98 13.58 -15.98 6.29 0 0 42.93zm59.7 -21.84c0,6.3 -2.21,11.66 -6.64,16.09 -1,0.96 -2.14,1.88 -3.42,2.75 -1.28,0.87 -2.57,1.59 -3.87,2.15 -2.66,1.1 -5.51,1.65 -8.54,1.65 -3.56,0 -7.07,-0.87 -10.53,-2.6 -1.36,-0.7 -2.64,-1.56 -3.82,-2.55 -1.18,-1.01 -2.5,-2.39 -3.97,-4.16l5.69 -4.31c1,1.17 1.89,2.1 2.67,2.79 0.78,0.68 1.59,1.26 2.42,1.73 0.63,0.33 1.21,0.62 1.75,0.83 0.53,0.22 1.18,0.44 1.95,0.68 1.4,0.33 2.7,0.5 3.89,0.5 4.23,0 7.84,-1.5 10.83,-4.5 2.99,-3 4.49,-6.68 4.49,-11.01l0 -1.46 -0.25 -1.35 3.2 0.05c-0.73,2.93 -2.6,5.09 -5.62,6.49 -3.01,1.4 -7.21,2.1 -12.6,2.1 -3.76,0 -7,-0.37 -9.71,-1.12 -2.71,-0.75 -4.92,-1.87 -6.61,-3.37 -1.23,-1.13 -2.16,-2.41 -2.77,-3.84 -0.62,-1.43 -0.92,-3.13 -0.92,-5.09 0,-1.9 0.48,-3.66 1.45,-5.29 0.5,-0.8 1.1,-1.58 1.8,-2.35 0.7,-0.76 1.55,-1.53 2.55,-2.3 3.93,-3.23 8.6,-4.84 14.03,-4.84 6.36,0 11.76,2.3 16.22,6.9 4.23,4.43 6.34,9.58 6.34,15.44zm-9.48 -7.71c0,-0.6 -0.32,-1.26 -0.95,-2 -0.63,-0.73 -1.5,-1.51 -2.6,-2.35 -2.86,-2.13 -6.04,-3.19 -9.53,-3.19 -3.53,0 -6.66,1.05 -9.38,3.14 -1.13,0.86 -1.97,1.63 -2.52,2.3 -0.55,0.67 -0.82,1.36 -0.82,2.1 0,2.23 1.04,3.87 3.12,4.92 2.08,1.05 5.35,1.57 9.81,1.57 4.53,0 7.9,-0.57 10.13,-1.7 1.83,-0.9 2.74,-2.5 2.74,-4.79z"/>
  <path fill="#EFEFEF" fill-rule="nonzero" d="M2594.82 755.07c0,4.23 -1.43,7.77 -4.29,10.63 -1.06,1.03 -2.55,2.16 -4.44,3.39 -1.9,1.23 -4.18,2.53 -6.84,3.89l-8.19 4.14 20.91 0 0 7.09 -34.64 0 0 -8.16 18.52 -9.36c4.66,-2.33 7.7,-4.15 9.13,-5.48 1.83,-1.72 2.74,-3.83 2.74,-6.31 0,-0.6 -0.28,-1.25 -0.85,-1.95 -0.57,-0.7 -1.41,-1.49 -2.54,-2.39 -2.86,-2.12 -5.98,-3.19 -9.37,-3.19 -3.19,0 -6.23,0.96 -9.12,2.87 -1.36,0.88 -2.32,1.8 -2.89,2.76 -0.67,1.12 -1,2.57 -1,4.35l-7.09 -0.55c0,-2.45 0.46,-4.58 1.37,-6.4 0.91,-1.81 2.4,-3.55 4.47,-5.25 4.06,-3.25 8.8,-4.88 14.23,-4.88 2.66,0 5.12,0.38 7.39,1.15 1.26,0.4 2.4,0.87 3.42,1.42 1.02,0.55 2.07,1.27 3.17,2.17 3.93,3.1 5.89,6.44 5.89,10.03zm49.32 7.64c0,6.22 -2.2,11.53 -6.59,15.92 -4.39,4.39 -9.7,6.59 -15.92,6.59 -6.22,0 -11.52,-2.19 -15.9,-6.56 -4.38,-4.38 -6.56,-9.69 -6.56,-15.95 0,-6.22 2.18,-11.51 6.54,-15.87 4.36,-4.36 9.67,-6.54 15.92,-6.54 6.16,0 11.45,2.16 15.87,6.49 4.43,4.33 6.64,9.63 6.64,15.92zm-7.09 0c0,-4.23 -1.51,-7.84 -4.52,-10.83 -3.01,-3 -6.66,-4.49 -10.96,-4.49 -4.26,0 -7.88,1.49 -10.86,4.47 -2.98,2.98 -4.47,6.6 -4.47,10.86 0,4.19 1.5,7.81 4.49,10.86 2.99,3.04 6.61,4.57 10.83,4.57 2.06,0 4,-0.37 5.82,-1.12 1.81,-0.75 3.5,-1.89 5.07,-3.42 3.06,-3.06 4.59,-6.69 4.59,-10.88z"/>
  <path fill="none" stroke="#FEFEFE" stroke-width="5.99" stroke-linejoin="round" stroke-miterlimit="22.9256" d="M464.71 1239.83c811.53,365.4 1651.81,321.98 2467.53,38.05l471.26 195.68c233.73,-489.47 283.95,-923.55 3.9,-1454.58l-490.86 230.61c-787.38,-361.01 -1954.67,-299.08 -2467.52,13.77l-446.02 0 0 976.48 461.71 0z"/>
 </g>
</svg>
