
<svg xmlns="http://www.w3.org/2000/svg" xml:space="preserve" width="337.263mm" height="171.818mm" version="1.1" style="shape-rendering:geometricPrecision; text-rendering:geometricPrecision; image-rendering:optimizeQuality; fill-rule:evenodd; clip-rule:evenodd"
viewBox="0 0 1983.62 1010.55"
>

 <g id="Layer_x0020_1">
  <metadata id="CorelCorpID_0Corel-Layer"/>
  <g id="_2987384775344">
   <path stroke="#FEFEFE" stroke-width="1"  stroke-linecap="round" stroke-linejoin="round" stroke-miterlimit="10" fill="none" fill-rule="nonzero" d="M422.18 162.53c-94.02,206.78 -100.87,462.39 -6.85,669.17m6.85 -669.17l18.38 -6.05 26.63 -8.46 26.71 -8.02 26.8 -7.76 26.89 -7.41 26.98 -7.05 27.07 -6.79 27.24 -6.35 27.24 -6.08 27.24 -5.73 27.42 -5.29 27.42 -5.11 27.6 -4.67 27.51 -4.32 27.6 -3.97 27.68 -3.7 27.77 -3.26 27.68 -3 27.86 -2.56 27.77 -2.29 27.86 -1.94 27.86 -1.5 27.86 -1.23 27.95 -0.88 27.86 -0.53 27.95 -0.18 27.86 0.18 27.95 0.53 27.86 0.88 27.86 1.23 27.86 1.5 27.86 1.94 27.86 2.29 27.77 2.56 27.68 3 27.77 3.26 27.68 3.7 27.59 3.97 27.6 4.32 27.51 4.67 27.42 5.11 27.42 5.29 27.24 5.73 27.24 6.08 27.24 6.35 27.07 6.79 26.98 7.05 26.89 7.41 26.8 7.76 26.71 8.02 26.63 8.46 47.3 15.84m-1445.35 659.37l48.13 16.37 26.63 8.46 26.71 8.02 26.8 7.76 26.89 7.41 26.98 7.05 27.07 6.79 27.24 6.35 27.24 6.08 27.24 5.73 27.42 5.29 27.42 5.11 27.59 4.67 27.51 4.32 27.6 3.97 27.68 3.7 27.77 3.26 27.68 3 27.86 2.56 27.77 2.29 27.86 1.94 27.86 1.5 27.86 1.23 27.95 0.88 27.86 0.53 27.95 0.18 27.86 -0.18 27.95 -0.53 27.86 -0.88 27.86 -1.23 27.86 -1.5 27.86 -1.94 27.86 -2.29 27.77 -2.56 27.68 -3 27.77 -3.26 27.68 -3.7 27.6 -3.97 27.59 -4.32 27.51 -4.67 27.42 -5.11 27.42 -5.29 27.24 -5.73 27.24 -6.08 27.24 -6.35 27.07 -6.79 26.98 -7.05 26.89 -7.41 26.8 -7.76 26.71 -8.02 26.63 -8.46 27.74 -9.41m0.5 -0.48c94.02,-206.78 90.19,-459.07 -3.83,-665.85"/>
   <polygon stroke="#FEFEFE" stroke-width="1.99" stroke-linecap="round" stroke-linejoin="round" stroke-miterlimit="10" fill="none" fill-rule="nonzero" points="1039.44,373.13 1414.34,373.13 1414.34,248.19 1039.44,248.19 "/>
   <polygon stroke="#FEFEFE" stroke-width="1.99" stroke-linecap="round" stroke-linejoin="round" stroke-miterlimit="10" fill="none" fill-rule="nonzero" points="393.77,373.13 622.84,373.13 622.84,248.19 393.77,248.19 "/>
   <polygon fill="none" stroke="#FEFEFE" stroke-width="1.99" stroke-linejoin="round" stroke-miterlimit="22.9256" points="393.77,248.19 622.84,248.19 622.84,373.13 393.77,373.13 "/>
   <polygon fill="none" stroke="#FEFEFE" stroke-width="1.99" stroke-linejoin="round" stroke-miterlimit="22.9256" points="393.68,415.1 622.84,415.1 622.84,498.06 393.68,498.06 "/>
   <polygon fill="none" stroke="#FEFEFE" stroke-width="1.99" stroke-linejoin="round" stroke-miterlimit="22.9256" points="393.68,539.77 622.84,539.77 622.84,623.35 393.68,623.35 "/>
   <polygon fill="none" stroke="#FEFEFE" stroke-width="1.99" stroke-linejoin="round" stroke-miterlimit="22.9256" points="393.68,664.71 622.84,664.71 622.84,768.83 393.68,768.83 "/>
   <polygon fill="none" stroke="#FEFEFE" stroke-width="1.99" stroke-linejoin="round" stroke-miterlimit="22.9256" points="685.35,123.16 893.61,123.16 893.61,185.68 685.35,185.68 "/>
   <polygon fill="none" stroke="#FEFEFE" stroke-width="1.99" stroke-linejoin="round" stroke-miterlimit="22.9256" points="685.35,248.19 851.99,248.19 864.9,248.19 976.93,248.19 976.93,373.13 864.9,373.13 851.99,373.13 685.35,373.13 "/>
   <polygon fill="none" stroke="#FEFEFE" stroke-width="1.99" stroke-linejoin="round" stroke-miterlimit="22.9256" points="685.35,435.64 976.93,435.64 976.93,768.33 685.35,768.33 "/>
   <polygon fill="none" stroke="#FEFEFE" stroke-width="1.99" stroke-linejoin="round" stroke-miterlimit="22.9256" points="1643.83,249.04 1818.45,249.04 1818.45,770.04 1643.83,770.04 "/>
   <polygon fill="none" stroke="#FEFEFE" stroke-width="1.99" stroke-linejoin="round" stroke-miterlimit="22.9256" points="918.78,102.36 1085.33,102.36 1085.33,185.68 918.78,185.68 "/>
   <polygon fill="none" stroke="#FEFEFE" stroke-width="1.99" stroke-linejoin="round" stroke-miterlimit="22.9256" points="1110.55,102.62 1339.7,102.62 1339.7,185.68 1110.55,185.68 "/>
   <polygon fill="none" stroke="#FEFEFE" stroke-width="1.99" stroke-linejoin="round" stroke-miterlimit="22.9256" points="1364.09,123.16 1572.44,123.16 1572.44,185.68 1364.09,185.68 "/>
   <polygon fill="none" stroke="#FEFEFE" stroke-width="1.99" stroke-linejoin="round" stroke-miterlimit="22.9256" points="1447.42,248.19 1572.44,248.19 1572.44,373.13 1447.42,373.13 "/>
   <polygon fill="none" stroke="#FEFEFE" stroke-width="1.99" stroke-linejoin="round" stroke-miterlimit="22.9256" points="919.6,830.54 1086.01,830.54 1086.01,913.86 919.6,913.86 "/>
   <polygon fill="none" stroke="#FEFEFE" stroke-width="1.99" stroke-linejoin="round" stroke-miterlimit="22.9256" points="1364.09,830.54 1572.44,830.54 1572.44,893.05 1364.09,893.05 "/>
   <polygon fill="none" stroke="#FEFEFE" stroke-width="1.99" stroke-linejoin="round" stroke-miterlimit="22.9256" points="1110.55,830.54 1339.7,830.54 1339.7,913.6 1110.55,913.6 "/>
   <polygon fill="none" stroke="#FEFEFE" stroke-width="1.99" stroke-linejoin="round" stroke-miterlimit="22.9256" points="685.26,830.54 893.61,830.54 893.61,893.05 685.26,893.05 "/>
   <polygon fill="none" stroke="#FEFEFE" stroke-width="1.99" stroke-linejoin="round" stroke-miterlimit="22.9256" points="25.01,200.22 295.76,200.22 295.76,804.32 25.01,804.32 "/>
   <polygon fill="none" stroke="#FEFEFE" stroke-width="1.99" stroke-linejoin="round" stroke-miterlimit="22.9256" points="1243.47,435.64 1368.41,435.64 1368.41,768.83 1243.47,768.83 "/>
   <polygon fill="none" stroke="#FEFEFE" stroke-width="1.99" stroke-linejoin="round" stroke-miterlimit="22.9256" points="1039.44,435.64 1164.38,435.64 1164.38,768.83 1039.44,768.83 "/>
   <polygon fill="none" stroke="#FEFEFE" stroke-width="1.99" stroke-linejoin="round" stroke-miterlimit="22.9256" points="1447.42,435.64 1572.44,435.64 1572.44,770.04 1447.42,770.04 "/>
   <g>
    <path fill="#FEFEFE" d="M409.76 153.55c0.11,-0.25 0.41,-0.36 0.65,-0.25 0.25,0.11 0.36,0.41 0.24,0.66l-0.9 -0.41zm-6.07 686.44l-0.9 0.41 -8.67 -20.04 -8.07 -20.32 -7.47 -20.58 -6.88 -20.81 -6.29 -21.03 -5.7 -21.24 -5.11 -21.42 -4.53 -21.58 -3.95 -21.73 -3.37 -21.86 -2.79 -21.97 -2.22 -22.06 -1.65 -22.13 -1.08 -22.19 -0.52 -22.23 0.05 -22.24 0.61 -22.24 1.16 -22.23 1.72 -22.19 2.27 -22.13 2.82 -22.06 3.37 -21.97 3.91 -21.86 4.46 -21.73 5 -21.58 5.54 -21.42 6.07 -21.23 6.6 -21.03 7.13 -20.81 7.66 -20.57 8.18 -20.32 8.71 -20.04 0.9 0.41 -8.7 20.02 -8.17 20.29 -7.65 20.55 -7.12 20.79 -6.59 21.01 -6.06 21.21 -5.53 21.39 -4.99 21.56 -4.45 21.71 -3.91 21.83 -3.37 21.94 -2.82 22.04 -2.27 22.11 -1.72 22.16 -1.16 22.2 -0.61 22.22 -0.05 22.22 0.52 22.2 1.08 22.16 1.65 22.11 2.22 22.03 2.79 21.94 3.37 21.83 3.94 21.7 4.52 21.56 5.11 21.39 5.69 21.21 6.28 21.01 6.87 20.79 7.46 20.55 8.06 20.29 8.66 20.02zm0 0c0.11,0.25 0,0.55 -0.24,0.66 -0.25,0.11 -0.54,0 -0.65,-0.25l0.9 -0.41zm6.67 -685.76c-0.26,0.09 -0.54,-0.06 -0.62,-0.32 -0.08,-0.26 0.06,-0.54 0.31,-0.63l0.31 0.95zm18.68 -6.2l-18.68 6.2 -0.31 -0.95 18.68 -6.2 0 -0 0.3 0.95zm-0.31 -0.95c0.26,-0.09 0.54,0.06 0.62,0.32 0.08,0.26 -0.06,0.54 -0.31,0.63l-0.31 -0.95zm27.37 -7.73l-27.07 8.68 -0.3 -0.95 27.07 -8.68 0.01 -0 0.29 0.95zm-0.3 -0.95c0.26,-0.08 0.54,0.06 0.62,0.32 0.08,0.26 -0.06,0.54 -0.32,0.63l-0.3 -0.95zm27.45 -7.28l-27.16 8.23 -0.28 -0.95 27.16 -8.23 0 -0 0.28 0.96zm-0.28 -0.95c0.26,-0.08 0.54,0.07 0.61,0.33 0.08,0.26 -0.07,0.54 -0.33,0.62l-0.28 -0.95zm27.53 -7l-27.25 7.96 -0.27 -0.96 27.25 -7.96 0.01 -0 0.27 0.96zm-0.27 -0.96c0.26,-0.08 0.54,0.08 0.61,0.34 0.08,0.26 -0.08,0.54 -0.34,0.62l-0.27 -0.96zm27.6 -6.64l-27.34 7.6 -0.26 -0.96 27.34 -7.6 0.01 -0 0.26 0.96zm-0.26 -0.96c0.26,-0.07 0.53,0.08 0.61,0.35 0.07,0.26 -0.08,0.54 -0.34,0.61l-0.26 -0.96zm27.68 -6.27l-27.43 7.23 -0.25 -0.96 27.43 -7.23 0 -0 0.24 0.96zm-0.25 -0.96c0.26,-0.07 0.53,0.09 0.6,0.36 0.07,0.27 -0.09,0.54 -0.35,0.61l-0.25 -0.96zm27.76 -6l-27.52 6.96 -0.24 -0.97 27.52 -6.96 0.01 -0 0.23 0.97zm-0.24 -0.97c0.26,-0.07 0.53,0.1 0.6,0.36 0.07,0.27 -0.09,0.54 -0.36,0.6l-0.24 -0.97zm27.93 -5.54l-27.7 6.51 -0.22 -0.97 27.7 -6.51 0 -0 0.22 0.97zm-0.22 -0.97c0.26,-0.06 0.53,0.1 0.59,0.37 0.06,0.27 -0.1,0.54 -0.37,0.6l-0.22 -0.97zm27.92 -5.27l-27.7 6.24 -0.21 -0.97 27.7 -6.24 0.01 -0 0.21 0.97zm-0.21 -0.97c0.27,-0.06 0.53,0.11 0.59,0.38 0.06,0.27 -0.11,0.53 -0.37,0.59l-0.21 -0.97zm27.9 -4.91l-27.7 5.88 -0.2 -0.97 27.7 -5.88 0.01 -0 0.19 0.98zm-0.2 -0.97c0.27,-0.06 0.53,0.12 0.58,0.38 0.06,0.27 -0.12,0.53 -0.38,0.59l-0.2 -0.97zm28.07 -4.45l-27.88 5.43 -0.19 -0.98 27.88 -5.43 0 -0 0.18 0.98zm-0.19 -0.98c0.27,-0.05 0.53,0.13 0.58,0.39 0.05,0.27 -0.12,0.53 -0.39,0.58l-0.19 -0.98zm28.06 -4.27l-27.88 5.25 -0.18 -0.98 27.88 -5.25 0.01 -0 0.17 0.98zm-0.18 -0.98c0.27,-0.05 0.53,0.13 0.58,0.4 0.05,0.27 -0.13,0.53 -0.39,0.58l-0.18 -0.98zm28.23 -3.81l-28.06 4.79 -0.16 -0.98 28.06 -4.79 0.01 -0 0.16 0.98zm-0.16 -0.98c0.27,-0.05 0.52,0.14 0.57,0.41 0.05,0.27 -0.14,0.53 -0.4,0.57l-0.16 -0.98zm28.12 -3.45l-27.96 4.43 -0.15 -0.98 27.96 -4.43 0.01 -0 0.15 0.98zm-0.15 -0.98c0.27,-0.04 0.52,0.14 0.56,0.41 0.04,0.27 -0.14,0.53 -0.41,0.57l-0.15 -0.98zm28.2 -3.08l-28.06 4.07 -0.14 -0.99 28.06 -4.07 0 -0 0.14 0.99zm-0.14 -0.99c0.27,-0.04 0.52,0.15 0.56,0.42 0.04,0.27 -0.15,0.52 -0.42,0.56l-0.14 -0.99zm28.28 -2.81l-28.14 3.8 -0.13 -0.99 28.14 -3.8 0.01 -0 0.12 0.99zm-0.13 -0.99c0.27,-0.04 0.52,0.16 0.55,0.43 0.04,0.27 -0.15,0.52 -0.42,0.56l-0.13 -0.99zm28.36 -2.36l-28.23 3.35 -0.12 -0.99 28.23 -3.35 0 -0 0.11 0.99zm-0.12 -0.99c0.27,-0.03 0.52,0.16 0.55,0.44 0.03,0.27 -0.16,0.52 -0.43,0.55l-0.12 -0.99zm28.26 -2.08l-28.15 3.07 -0.11 -0.99 28.15 -3.07 0.01 -0 0.1 0.99zm-0.11 -0.99c0.27,-0.03 0.51,0.17 0.54,0.44 0.03,0.27 -0.17,0.52 -0.44,0.55l-0.11 -0.99zm28.42 -1.63l-28.32 2.62 -0.09 -0.99 28.32 -2.62 0 -0 0.09 0.99zm-0.09 -0.99c0.27,-0.02 0.51,0.18 0.54,0.45 0.02,0.27 -0.17,0.52 -0.45,0.54l-0.09 -0.99zm28.32 -1.36l-28.23 2.35 -0.08 -0.99 28.23 -2.35 0.01 0 0.07 0.99zm-0.08 -0.99c0.27,-0.02 0.51,0.18 0.53,0.46 0.02,0.27 -0.18,0.52 -0.45,0.54l-0.08 -0.99zm28.4 -1l-28.32 1.99 -0.07 -0.99 28.32 -1.99 0.01 -0 0.06 0.99zm-0.07 -0.99c0.27,-0.02 0.51,0.19 0.53,0.46 0.02,0.27 -0.19,0.51 -0.46,0.53l-0.07 -0.99zm28.38 -0.55l-28.32 1.54 -0.05 -0.99 28.32 -1.54 0 -0 0.05 0.99zm-0.05 -0.99c0.27,-0.01 0.5,0.2 0.52,0.47 0.01,0.27 -0.19,0.51 -0.47,0.52l-0.05 -0.99zm28.37 -0.27l-28.32 1.27 -0.04 -1 28.32 -1.27 0.01 0 0.04 1zm-0.04 -1c0.27,-0.01 0.5,0.2 0.51,0.48 0.01,0.27 -0.2,0.51 -0.47,0.52l-0.04 -1zm28.45 0.09l-28.41 0.9 -0.03 -1 28.41 -0.9 0.01 0 0.02 1zm-0.03 -1c0.27,-0.01 0.5,0.21 0.51,0.48 0.01,0.27 -0.21,0.51 -0.48,0.51l-0.03 -1zm28.35 0.45l-28.32 0.54 -0.02 -1 28.32 -0.54 0.01 0 0.01 1zm-0.02 -1c0.27,-0 0.5,0.21 0.5,0.49 0,0.27 -0.21,0.5 -0.48,0.51l-0.02 -1zm28.43 0.81l-28.41 0.18 -0.01 -1 28.41 -0.18 0.01 0 0 1zm-0.01 -1c0.27,-0 0.49,0.22 0.5,0.49 0,0.27 -0.22,0.5 -0.49,0.5l-0.01 -1zm28.32 1.18l-28.32 -0.18 0.01 -1 28.32 0.18 0.01 0 -0.01 1zm0.01 -1c0.27,0 0.49,0.23 0.49,0.5 -0,0.27 -0.22,0.5 -0.5,0.49l0.01 -1zm28.4 1.54l-28.41 -0.54 0.02 -1 28.41 0.54 0.01 0 -0.02 1zm0.02 -1c0.27,0 0.49,0.23 0.48,0.51 -0,0.27 -0.23,0.49 -0.5,0.49l0.02 -1zm28.3 1.9l-28.32 -0.9 0.03 -1 28.32 0.9 0.01 0 -0.04 1zm0.03 -1c0.27,0.01 0.49,0.24 0.48,0.51 -0.01,0.27 -0.24,0.49 -0.51,0.48l0.03 -1zm28.29 2.26l-28.32 -1.27 0.04 -1 28.32 1.27 0 0 -0.05 0.99zm0.04 -1c0.27,0.01 0.48,0.24 0.47,0.52 -0.01,0.27 -0.24,0.49 -0.51,0.48l0.04 -1zm28.28 2.53l-28.32 -1.54 0.05 -0.99 28.32 1.54 0.01 0 -0.06 0.99zm0.05 -0.99c0.27,0.01 0.48,0.25 0.47,0.52 -0.01,0.27 -0.25,0.48 -0.52,0.47l0.05 -0.99zm28.26 2.98l-28.32 -1.99 0.07 -0.99 28.32 1.99 0.01 0 -0.07 0.99zm0.07 -0.99c0.27,0.02 0.48,0.26 0.46,0.53 -0.02,0.27 -0.25,0.48 -0.53,0.46l0.07 -0.99zm28.25 3.34l-28.32 -2.35 0.08 -0.99 28.32 2.35 0 0 -0.09 0.99zm0.08 -0.99c0.27,0.02 0.47,0.26 0.45,0.54 -0.02,0.27 -0.26,0.48 -0.53,0.46l0.08 -0.99zm28.15 3.62l-28.23 -2.62 0.09 -0.99 28.23 2.62 0.01 0 -0.1 0.99zm0.09 -0.99c0.27,0.03 0.47,0.27 0.45,0.54 -0.02,0.27 -0.27,0.48 -0.54,0.45l0.09 -0.99zm28.05 4.07l-28.15 -3.07 0.11 -0.99 28.15 3.07 0 0 -0.11 0.99zm0.11 -0.99c0.27,0.03 0.47,0.28 0.44,0.55 -0.03,0.27 -0.27,0.47 -0.54,0.44l0.11 -0.99zm28.12 4.34l-28.23 -3.35 0.12 -0.99 28.23 3.35 0.01 0 -0.12 0.99zm0.12 -0.99c0.27,0.03 0.46,0.28 0.43,0.55 -0.03,0.27 -0.28,0.47 -0.55,0.44l0.12 -0.99zm28.02 4.79l-28.14 -3.8 0.13 -0.99 28.14 3.8 0 0 -0.14 0.99zm0.13 -0.99c0.27,0.04 0.46,0.29 0.42,0.56 -0.04,0.27 -0.28,0.46 -0.55,0.43l0.13 -0.99zm27.92 5.06l-28.05 -4.07 0.14 -0.99 28.05 4.07 0.01 0 -0.15 0.98zm0.14 -0.99c0.27,0.04 0.46,0.29 0.42,0.56 -0.04,0.27 -0.29,0.46 -0.56,0.42l0.14 -0.99zm27.91 5.42l-28.06 -4.43 0.15 -0.98 28.06 4.43 0.01 0 -0.16 0.98zm0.15 -0.98c0.27,0.04 0.45,0.3 0.41,0.57 -0.04,0.27 -0.29,0.46 -0.56,0.41l0.15 -0.98zm27.81 5.78l-27.97 -4.79 0.16 -0.98 27.97 4.79 0.01 0 -0.17 0.98zm0.16 -0.98c0.27,0.05 0.45,0.3 0.4,0.57 -0.05,0.27 -0.3,0.45 -0.57,0.41l0.16 -0.98zm27.7 6.23l-27.87 -5.25 0.18 -0.98 27.87 5.25 0 0 -0.18 0.98zm0.18 -0.98c0.27,0.05 0.44,0.31 0.39,0.58 -0.05,0.27 -0.31,0.45 -0.58,0.4l0.18 -0.98zm27.69 6.4l-27.87 -5.43 0.19 -0.98 27.87 5.43 0.01 0 -0.19 0.98zm0.19 -0.98c0.27,0.05 0.44,0.31 0.39,0.58 -0.05,0.27 -0.31,0.45 -0.58,0.39l0.19 -0.98zm27.5 6.85l-27.7 -5.88 0.2 -0.97 27.7 5.88 0.01 0 -0.21 0.97zm0.2 -0.97c0.27,0.06 0.44,0.32 0.38,0.59 -0.06,0.27 -0.32,0.44 -0.58,0.38l0.2 -0.97zm27.49 7.21l-27.7 -6.24 0.21 -0.97 27.7 6.24 0 0 -0.22 0.97zm0.21 -0.97c0.27,0.06 0.43,0.33 0.37,0.59 -0.06,0.27 -0.32,0.44 -0.59,0.38l0.21 -0.97zm27.48 7.48l-27.7 -6.51 0.22 -0.97 27.7 6.51 0.01 0 -0.23 0.97zm0.22 -0.97c0.26,0.06 0.43,0.33 0.37,0.6 -0.06,0.27 -0.33,0.43 -0.59,0.37l0.22 -0.97zm27.29 7.93l-27.52 -6.96 0.24 -0.97 27.52 6.96 0 0 -0.24 0.96zm0.24 -0.97c0.26,0.07 0.42,0.34 0.36,0.6 -0.07,0.27 -0.33,0.43 -0.6,0.36l0.24 -0.97zm27.18 8.2l-27.43 -7.23 0.25 -0.96 27.43 7.23 0.01 0 -0.26 0.96zm0.25 -0.96c0.26,0.07 0.42,0.34 0.35,0.61 -0.07,0.27 -0.34,0.43 -0.6,0.36l0.25 -0.96zm27.08 8.56l-27.34 -7.6 0.26 -0.96 27.34 7.6 0.01 0 -0.27 0.96zm0.26 -0.96c0.26,0.07 0.42,0.35 0.34,0.61 -0.07,0.26 -0.34,0.42 -0.61,0.35l0.26 -0.96zm26.98 8.92l-27.25 -7.96 0.27 -0.96 27.25 7.96 0 0 -0.28 0.96zm0.27 -0.96c0.26,0.08 0.41,0.35 0.34,0.62 -0.08,0.26 -0.35,0.42 -0.61,0.34l0.27 -0.96zm26.88 9.19l-27.16 -8.23 0.28 -0.95 27.16 8.23 0.01 0 -0.29 0.95zm0.28 -0.95c0.26,0.08 0.41,0.36 0.33,0.62 -0.08,0.26 -0.35,0.41 -0.61,0.33l0.28 -0.95zm26.78 9.63l-27.07 -8.68 0.3 -0.95 27.07 8.68 0.01 0 -0.31 0.95zm0.3 -0.95c0.26,0.08 0.4,0.36 0.32,0.63 -0.08,0.26 -0.36,0.41 -0.62,0.32l0.3 -0.95zm47.78 17.2l-48.09 -16.25 0.31 -0.94 48.09 16.25 -0.31 0.94zm0.31 -0.94c0.26,0.09 0.4,0.37 0.31,0.63 -0.09,0.26 -0.37,0.4 -0.62,0.31l0.31 -0.94zm-1469.73 677.33c-0.26,-0.09 -0.4,-0.37 -0.31,-0.63 0.09,-0.26 0.37,-0.4 0.63,-0.31l-0.32 0.94zm48.93 16.79l-48.93 -16.79 0.32 -0.94 48.93 16.79 -0.31 0.95 -0.01 -0zm0.32 -0.94c0.26,0.09 0.4,0.37 0.31,0.63 -0.09,0.26 -0.37,0.4 -0.63,0.31l0.32 -0.94zm26.76 9.63l-27.07 -8.68 0.3 -0.95 27.07 8.68 -0.29 0.95 -0.01 -0zm0.3 -0.95c0.26,0.08 0.4,0.36 0.32,0.63 -0.08,0.26 -0.36,0.41 -0.62,0.32l0.3 -0.95zm26.87 9.18l-27.16 -8.23 0.28 -0.95 27.16 8.23 -0.28 0.96 -0 -0zm0.28 -0.95c0.26,0.08 0.41,0.36 0.33,0.62 -0.08,0.26 -0.35,0.41 -0.61,0.33l0.28 -0.95zm26.97 8.91l-27.25 -7.96 0.27 -0.96 27.25 7.96 -0.27 0.96 -0.01 -0zm0.27 -0.96c0.26,0.08 0.41,0.35 0.34,0.62 -0.08,0.26 -0.35,0.42 -0.61,0.34l0.27 -0.96zm27.07 8.56l-27.34 -7.6 0.26 -0.96 27.34 7.6 -0.26 0.96 -0.01 -0zm0.26 -0.96c0.26,0.07 0.42,0.35 0.34,0.61 -0.07,0.26 -0.34,0.42 -0.61,0.35l0.26 -0.96zm27.17 8.2l-27.43 -7.23 0.25 -0.96 27.43 7.23 -0.24 0.96 -0 -0zm0.25 -0.96c0.26,0.07 0.42,0.34 0.35,0.61 -0.07,0.27 -0.34,0.43 -0.6,0.36l0.25 -0.96zm27.27 7.93l-27.52 -6.96 0.24 -0.97 27.52 6.96 -0.23 0.97 -0.01 -0zm0.24 -0.97c0.26,0.07 0.42,0.34 0.36,0.6 -0.07,0.27 -0.33,0.43 -0.6,0.36l0.24 -0.97zm27.46 7.48l-27.7 -6.51 0.22 -0.97 27.7 6.51 -0.22 0.97 -0 -0zm0.22 -0.97c0.26,0.06 0.43,0.33 0.37,0.6 -0.06,0.27 -0.33,0.43 -0.59,0.37l0.22 -0.97zm27.48 7.21l-27.7 -6.24 0.21 -0.97 27.7 6.24 -0.21 0.97 -0.01 -0zm0.21 -0.97c0.27,0.06 0.43,0.33 0.37,0.59 -0.06,0.27 -0.32,0.44 -0.59,0.38l0.21 -0.97zm27.49 6.85l-27.69 -5.88 0.2 -0.97 27.69 5.88 -0.19 0.98 -0.01 -0zm0.2 -0.97c0.27,0.06 0.44,0.32 0.38,0.59 -0.06,0.27 -0.32,0.44 -0.58,0.38l0.2 -0.97zm27.68 6.4l-27.88 -5.43 0.19 -0.98 27.88 5.43 -0.18 0.98 -0 -0zm0.19 -0.98c0.27,0.05 0.44,0.31 0.39,0.58 -0.05,0.27 -0.31,0.45 -0.58,0.39l0.19 -0.98zm27.69 6.22l-27.88 -5.24 0.18 -0.98 27.88 5.24 -0.17 0.98 -0.01 -0zm0.18 -0.98c0.27,0.05 0.44,0.31 0.39,0.58 -0.05,0.27 -0.31,0.45 -0.57,0.4l0.18 -0.98zm27.88 5.77l-28.05 -4.79 0.16 -0.98 28.05 4.79 -0.16 0.98 -0.01 -0zm0.16 -0.98c0.27,0.05 0.45,0.3 0.4,0.57 -0.05,0.27 -0.3,0.45 -0.57,0.41l0.16 -0.98zm27.81 5.41l-27.97 -4.43 0.15 -0.98 27.97 4.43 -0.15 0.98 -0.01 -0zm0.15 -0.98c0.27,0.04 0.45,0.3 0.41,0.57 -0.04,0.27 -0.29,0.46 -0.56,0.41l0.15 -0.98zm27.91 5.06l-28.06 -4.07 0.14 -0.99 28.06 4.07 -0.14 0.99 -0 -0zm0.14 -0.99c0.27,0.04 0.46,0.29 0.42,0.56 -0.04,0.27 -0.29,0.46 -0.56,0.42l0.14 -0.99zm28.01 4.79l-28.14 -3.8 0.13 -0.99 28.14 3.8 -0.12 0.99 -0.01 -0zm0.13 -0.99c0.27,0.04 0.46,0.29 0.42,0.56 -0.04,0.27 -0.28,0.46 -0.55,0.43l0.13 -0.99zm28.11 4.33l-28.24 -3.35 0.12 -0.99 28.24 3.35 -0.11 0.99 -0 -0zm0.12 -0.99c0.27,0.03 0.46,0.28 0.43,0.55 -0.03,0.27 -0.28,0.47 -0.55,0.44l0.12 -0.99zm28.03 4.07l-28.15 -3.08 0.11 -0.99 28.15 3.08 -0.1 0.99 -0.01 -0zm0.11 -0.99c0.27,0.03 0.47,0.28 0.44,0.55 -0.03,0.27 -0.27,0.47 -0.54,0.44l0.11 -0.99zm28.23 3.61l-28.32 -2.62 0.09 -0.99 28.32 2.62 -0.09 0.99 -0 -0zm0.09 -0.99c0.27,0.02 0.47,0.27 0.45,0.54 -0.02,0.27 -0.26,0.48 -0.54,0.45l0.09 -0.99zm28.15 3.34l-28.23 -2.35 0.08 -0.99 28.23 2.35 -0.07 0.99 -0.01 0zm0.08 -0.99c0.27,0.02 0.47,0.26 0.45,0.54 -0.02,0.27 -0.26,0.48 -0.53,0.46l0.08 -0.99zm28.25 2.98l-28.32 -1.99 0.07 -0.99 28.32 1.99 -0.06 0.99 -0.01 -0zm0.07 -0.99c0.27,0.02 0.48,0.26 0.46,0.53 -0.02,0.27 -0.25,0.48 -0.53,0.46l0.07 -0.99zm28.26 2.53l-28.33 -1.54 0.05 -0.99 28.33 1.54 -0.05 0.99 -0 -0zm0.05 -0.99c0.27,0.01 0.48,0.25 0.47,0.52 -0.01,0.27 -0.25,0.48 -0.52,0.47l0.05 -0.99zm28.27 2.26l-28.32 -1.27 0.04 -1 28.32 1.27 -0.04 1 -0.01 0zm0.04 -1c0.27,0.01 0.48,0.24 0.47,0.52 -0.01,0.27 -0.24,0.49 -0.51,0.48l0.04 -1zm28.38 1.9l-28.41 -0.9 0.03 -1 28.41 0.9 -0.02 1 -0.01 0zm0.03 -1c0.27,0.01 0.49,0.24 0.48,0.51 -0.01,0.27 -0.24,0.49 -0.51,0.48l0.03 -1zm28.3 1.54l-28.32 -0.54 0.02 -1 28.32 0.54 -0.01 1 -0.01 0zm0.02 -1c0.27,0 0.49,0.23 0.48,0.51 -0,0.27 -0.23,0.49 -0.5,0.49l0.02 -1zm28.4 1.18l-28.41 -0.18 0.01 -1 28.41 0.18 0 1 -0.01 0zm0.01 -1c0.27,0 0.49,0.23 0.49,0.5 -0,0.27 -0.22,0.5 -0.5,0.49l0.01 -1zm28.32 0.81l-28.32 0.18 -0.01 -1 28.32 -0.18 0.01 1 -0.01 0zm-0.01 -1c0.27,-0 0.49,0.22 0.5,0.49 0,0.27 -0.22,0.5 -0.49,0.5l-0.01 -1zm28.43 0.45l-28.41 0.54 -0.02 -1 28.41 -0.54 0.02 1 -0.01 0zm-0.02 -1c0.27,-0 0.5,0.21 0.5,0.49 0,0.27 -0.21,0.5 -0.48,0.51l-0.02 -1zm28.35 0.09l-28.32 0.9 -0.03 -1 28.32 -0.9 0.04 1 -0.01 0zm-0.03 -1c0.27,-0.01 0.5,0.21 0.51,0.48 0.01,0.27 -0.21,0.51 -0.48,0.51l-0.03 -1zm28.36 -0.27l-28.32 1.27 -0.04 -1 28.32 -1.27 0.05 0.99 -0 0zm-0.04 -1c0.27,-0.01 0.5,0.2 0.51,0.48 0.01,0.27 -0.2,0.51 -0.47,0.52l-0.04 -1zm28.37 -0.54l-28.32 1.54 -0.05 -0.99 28.32 -1.54 0.06 0.99 -0.01 0zm-0.05 -0.99c0.27,-0.01 0.5,0.2 0.52,0.47 0.01,0.27 -0.19,0.51 -0.47,0.52l-0.05 -0.99zm28.39 -1l-28.33 1.99 -0.07 -0.99 28.33 -1.99 0.07 0.99 -0.01 0zm-0.07 -0.99c0.27,-0.02 0.51,0.19 0.53,0.46 0.02,0.27 -0.19,0.51 -0.46,0.53l-0.07 -0.99zm28.4 -1.36l-28.32 2.35 -0.08 -0.99 28.32 -2.35 0.09 0.99 -0 0zm-0.08 -0.99c0.27,-0.02 0.51,0.18 0.53,0.46 0.02,0.27 -0.18,0.51 -0.45,0.54l-0.08 -0.99zm28.32 -1.63l-28.23 2.62 -0.09 -0.99 28.23 -2.62 0.1 0.99 -0.01 0zm-0.09 -0.99c0.27,-0.02 0.51,0.18 0.54,0.45 0.02,0.27 -0.17,0.52 -0.45,0.54l-0.09 -0.99zm28.24 -2.08l-28.14 3.08 -0.11 -0.99 28.14 -3.08 0.11 0.99 -0 0zm-0.11 -0.99c0.27,-0.03 0.51,0.17 0.54,0.44 0.03,0.27 -0.17,0.52 -0.44,0.55l-0.11 -0.99zm28.35 -2.36l-28.24 3.35 -0.12 -0.99 28.24 -3.35 0.12 0.99 -0.01 0zm-0.12 -0.99c0.27,-0.03 0.52,0.16 0.55,0.44 0.03,0.27 -0.16,0.52 -0.43,0.55l-0.12 -0.99zm28.27 -2.81l-28.14 3.8 -0.13 -0.99 28.14 -3.8 0.14 0.99 -0 0zm-0.13 -0.99c0.27,-0.04 0.52,0.16 0.55,0.43 0.04,0.27 -0.15,0.52 -0.42,0.56l-0.13 -0.99zm28.19 -3.08l-28.06 4.07 -0.14 -0.99 28.06 -4.07 0.15 0.98 -0.01 0zm-0.14 -0.99c0.27,-0.04 0.52,0.15 0.56,0.42 0.04,0.27 -0.15,0.52 -0.42,0.56l-0.14 -0.99zm28.2 -3.45l-28.05 4.43 -0.15 -0.98 28.05 -4.43 0.16 0.98 -0.01 0zm-0.15 -0.98c0.27,-0.04 0.52,0.14 0.56,0.41 0.04,0.27 -0.14,0.53 -0.41,0.57l-0.15 -0.98zm28.12 -3.81l-27.97 4.79 -0.16 -0.98 27.97 -4.79 0.17 0.98 -0.01 0zm-0.16 -0.98c0.27,-0.05 0.52,0.14 0.57,0.41 0.05,0.27 -0.14,0.53 -0.4,0.57l-0.16 -0.98zm28.05 -4.26l-27.88 5.24 -0.18 -0.98 27.88 -5.24 0.18 0.98 -0 0zm-0.18 -0.98c0.27,-0.05 0.53,0.13 0.57,0.4 0.05,0.27 -0.13,0.53 -0.39,0.58l-0.18 -0.98zm28.06 -4.45l-27.88 5.43 -0.19 -0.98 27.88 -5.43 0.19 0.98 -0.01 0zm-0.19 -0.98c0.27,-0.05 0.53,0.13 0.58,0.39 0.05,0.27 -0.12,0.53 -0.39,0.58l-0.19 -0.98zm27.89 -4.9l-27.7 5.88 -0.2 -0.97 27.7 -5.88 0.21 0.97 -0.01 0zm-0.2 -0.97c0.27,-0.06 0.53,0.12 0.58,0.38 0.06,0.27 -0.12,0.53 -0.38,0.59l-0.2 -0.97zm27.91 -5.27l-27.7 6.24 -0.21 -0.97 27.7 -6.24 0.22 0.97 -0 0zm-0.21 -0.97c0.27,-0.06 0.53,0.11 0.59,0.38 0.06,0.27 -0.11,0.53 -0.37,0.59l-0.21 -0.97zm27.92 -5.54l-27.7 6.51 -0.22 -0.97 27.7 -6.51 0.23 0.97 -0.01 0zm-0.22 -0.97c0.26,-0.06 0.53,0.1 0.59,0.37 0.06,0.27 -0.1,0.54 -0.37,0.6l-0.22 -0.97zm27.75 -6l-27.52 6.96 -0.24 -0.97 27.52 -6.96 0.24 0.96 -0 0zm-0.24 -0.97c0.26,-0.07 0.53,0.1 0.6,0.36 0.07,0.27 -0.09,0.54 -0.36,0.6l-0.24 -0.97zm27.67 -6.27l-27.43 7.23 -0.25 -0.96 27.43 -7.23 0.26 0.96 -0.01 0zm-0.25 -0.96c0.26,-0.07 0.53,0.09 0.6,0.36 0.07,0.27 -0.09,0.54 -0.35,0.61l-0.25 -0.96zm27.59 -6.64l-27.34 7.6 -0.26 -0.96 27.34 -7.6 0.27 0.96 -0.01 0zm-0.26 -0.96c0.26,-0.07 0.53,0.08 0.61,0.35 0.07,0.26 -0.08,0.54 -0.34,0.61l-0.26 -0.96zm27.52 -7l-27.25 7.96 -0.27 -0.96 27.25 -7.96 0.28 0.96 -0 0zm-0.27 -0.96c0.26,-0.08 0.54,0.08 0.61,0.34 0.08,0.26 -0.08,0.54 -0.34,0.62l-0.27 -0.96zm27.44 -7.28l-27.16 8.23 -0.28 -0.95 27.16 -8.23 0.29 0.95 -0.01 0zm-0.28 -0.95c0.26,-0.08 0.54,0.07 0.61,0.33 0.08,0.26 -0.07,0.54 -0.33,0.62l-0.28 -0.95zm27.36 -7.73l-27.07 8.68 -0.3 -0.95 27.07 -8.68 0.31 0.95 -0.01 0zm-0.3 -0.95c0.26,-0.08 0.54,0.06 0.62,0.32 0.08,0.26 -0.06,0.54 -0.32,0.63l-0.3 -0.95zm28.51 -8.71l-28.2 9.65 -0.32 -0.94 28.2 -9.65 0.32 0.94zm-0.32 -0.94c0.26,-0.09 0.54,0.05 0.63,0.31 0.09,0.26 -0.05,0.54 -0.31,0.63l-0.32 -0.94zm1.11 0.18c-0.11,0.25 -0.41,0.36 -0.65,0.25 -0.25,-0.11 -0.36,-0.41 -0.24,-0.66l0.9 0.41zm-4.79 -683.03l0.9 -0.41 8.7 20.03 8.16 20.29 7.62 20.53 7.08 20.75 6.53 20.96 5.99 21.14 5.44 21.31 4.89 21.47 4.35 21.61 3.79 21.73 3.24 21.83 2.69 21.91 2.13 21.98 1.58 22.03 1.02 22.07 0.46 22.08 -0.1 22.08 -0.66 22.07 -1.22 22.03 -1.79 21.98 -2.35 21.91 -2.92 21.83 -3.49 21.73 -4.06 21.61 -4.63 21.47 -5.21 21.32 -5.78 21.14 -6.36 20.96 -6.93 20.75 -7.51 20.53 -8.09 20.29 -8.68 20.03 -0.9 -0.41 8.66 -20.01 8.08 -20.26 7.5 -20.5 6.92 -20.72 6.35 -20.93 5.77 -21.12 5.2 -21.29 4.63 -21.44 4.06 -21.58 3.49 -21.7 2.92 -21.8 2.35 -21.89 1.79 -21.96 1.22 -22.01 0.66 -22.04 0.1 -22.06 -0.46 -22.06 -1.02 -22.04 -1.58 -22.01 -2.13 -21.96 -2.69 -21.89 -3.24 -21.8 -3.79 -21.7 -4.34 -21.58 -4.89 -21.44 -5.44 -21.29 -5.98 -21.12 -6.52 -20.93 -7.07 -20.73 -7.61 -20.5 -8.15 -20.26 -8.69 -20.01zm0 0c-0.11,-0.25 -0,-0.55 0.24,-0.66 0.25,-0.11 0.54,-0 0.65,0.25l-0.9 0.41z"/>
   </g>
   <polygon fill="#FEFEFE" points="514.91,324.93 510.2,324.93 510.2,304.35 505.15,310.33 501.7,307.01 510.73,296.38 514.91,296.38 "/>
   <path fill="#FEFEFE" d="M522.73 451.47c0,2.81 -0.95,5.17 -2.86,7.07 -0.71,0.69 -1.69,1.44 -2.95,2.26 -1.26,0.82 -2.78,1.68 -4.55,2.59l-5.44 2.76 13.91 0 0 4.71 -23.04 0 0 -5.43 12.32 -6.22c3.1,-1.55 5.12,-2.76 6.08,-3.65 1.22,-1.15 1.83,-2.54 1.83,-4.2 0,-0.4 -0.19,-0.83 -0.56,-1.29 -0.38,-0.46 -0.94,-0.99 -1.69,-1.59 -1.9,-1.41 -3.98,-2.12 -6.23,-2.12 -2.12,0 -4.14,0.64 -6.06,1.91 -0.91,0.59 -1.54,1.2 -1.92,1.84 -0.44,0.75 -0.66,1.71 -0.66,2.89l-4.71 -0.37c0,-1.63 0.3,-3.05 0.91,-4.25 0.61,-1.2 1.6,-2.36 2.97,-3.49 2.7,-2.16 5.85,-3.24 9.46,-3.24 1.77,0 3.41,0.25 4.91,0.76 0.84,0.27 1.6,0.58 2.27,0.95 0.68,0.37 1.38,0.85 2.11,1.44 2.61,2.06 3.92,4.28 3.92,6.67z"/>
   <path fill="#FEFEFE" d="M521.52 586.65c0,1.15 -0.32,2.29 -0.96,3.42 -0.64,1.13 -1.64,2.22 -2.99,3.28 -2.77,2.1 -5.92,3.15 -9.46,3.15 -3.65,0 -6.82,-1.18 -9.49,-3.55 -1.24,-1.08 -2.15,-2.22 -2.74,-3.4 -0.59,-1.18 -0.88,-2.55 -0.88,-4.1l4.71 -0.37c0,1.08 0.18,1.96 0.53,2.62 0.35,0.66 0.95,1.33 1.78,1.99 0.83,0.66 1.78,1.17 2.84,1.53 1.02,0.38 2.1,0.56 3.25,0.56 2.32,0 4.44,-0.69 6.34,-2.05 0.77,-0.55 1.36,-1.07 1.76,-1.55 0.4,-0.48 0.6,-0.97 0.6,-1.46 0,-1.41 -0.62,-2.47 -1.86,-3.19 -1.24,-0.71 -3.1,-1.07 -5.58,-1.07l-3.75 0 0 -4.71 3.68 0c1.77,0 3.26,-0.32 4.48,-0.96 0.49,-0.29 0.86,-0.58 1.11,-0.86 0.25,-0.29 0.38,-0.62 0.38,-0.99 0,-0.44 -0.19,-0.87 -0.58,-1.27 -0.39,-0.41 -0.95,-0.8 -1.68,-1.17 -1.51,-0.77 -3.09,-1.16 -4.75,-1.16 -0.73,0 -1.44,0.07 -2.14,0.22 -0.7,0.14 -1.43,0.38 -2.21,0.71 -0.77,0.33 -1.36,0.7 -1.76,1.12 -0.47,0.5 -0.86,1.24 -1.2,2.21l-4.45 -1.65c0.35,-1.28 0.86,-2.33 1.53,-3.18 0.66,-0.84 1.59,-1.59 2.79,-2.25 2.23,-1.26 4.69,-1.89 7.37,-1.89 3.1,0 5.79,0.75 8.07,2.25 1.2,0.8 2.11,1.69 2.76,2.69 0.64,0.99 0.96,2.09 0.96,3.28 0,0.75 -0.13,1.44 -0.38,2.09 -0.25,0.64 -0.65,1.27 -1.18,1.89l-0.86 0.82c0.8,0.49 1.5,1.11 2.12,1.86 0.31,0.38 0.62,0.87 0.93,1.49 0.2,0.4 0.34,0.71 0.43,0.93 0.31,0.86 0.47,1.77 0.47,2.72z"/>
   <path fill="#FEFEFE" d="M521.37 726.56l-5.41 0 0 4.48 -4.71 0 0 -4.48 -16.1 0 0 -4.61 16.67 -19.46 4.15 0 0 19.35 5.41 0 0 4.71zm-10.13 -4.71l0 -11.42 -9.73 11.42 9.73 0z"/>
   <path fill="#FEFEFE" d="M803.95 159.5c0,1.17 -0.32,2.31 -0.95,3.4 -0.63,1.1 -1.61,2.16 -2.94,3.2 -2.7,2.17 -5.81,3.25 -9.33,3.25 -1.77,0 -3.44,-0.27 -5.01,-0.81 -1.57,-0.54 -3.04,-1.35 -4.42,-2.42 -1.37,-1.07 -2.37,-2.22 -2.99,-3.45 -0.62,-1.23 -0.93,-2.68 -0.93,-4.37l4.71 -0.37c0,1.2 0.2,2.14 0.6,2.82 0.4,0.69 1.05,1.34 1.95,1.96 1.88,1.28 3.91,1.93 6.1,1.93 2.3,0 4.36,-0.71 6.2,-2.12 1.52,-1.13 2.28,-2.11 2.28,-2.95 0,-1.64 -0.87,-2.84 -2.62,-3.62 -0.73,-0.35 -1.57,-0.61 -2.52,-0.76 -0.95,-0.15 -2.11,-0.23 -3.49,-0.23l-11.62 0 0 -14.81 23.07 0 0 4.71 -18.36 0 0 5.38 6.88 0c3.75,0 6.69,0.59 8.85,1.76 3.02,1.62 4.52,4.12 4.52,7.5z"/>
   <path fill="#FEFEFE" d="M845.23 315.74c0,1.15 -0.33,2.29 -0.98,3.42 -0.65,1.13 -1.62,2.19 -2.9,3.19 -2.63,2.17 -5.74,3.25 -9.33,3.25 -4.23,0 -7.82,-1.54 -10.79,-4.61 -2.79,-2.92 -4.18,-6.34 -4.18,-10.26 0,-4.21 1.46,-7.76 4.38,-10.66 2.92,-2.9 6.43,-4.35 10.52,-4.35 2.43,0 4.77,0.56 7,1.69 0.77,0.38 1.56,0.9 2.36,1.56 0.6,0.47 1.56,1.41 2.89,2.82l-3.82 2.89c-0.62,-0.7 -1.21,-1.29 -1.78,-1.77 -0.56,-0.47 -1.12,-0.87 -1.68,-1.2 -0.4,-0.22 -0.77,-0.39 -1.11,-0.53 -0.34,-0.13 -0.77,-0.28 -1.28,-0.43 -0.82,-0.22 -1.69,-0.33 -2.62,-0.33 -2.79,0 -5.18,0.98 -7.17,2.94 -1.99,1.96 -2.99,4.4 -2.99,7.32l0 1 0.1 0.76 -2.09 0.07c0.49,-1.95 1.72,-3.38 3.68,-4.3 1.97,-0.92 4.78,-1.38 8.43,-1.38 2.57,0 4.74,0.24 6.51,0.73 1.77,0.49 3.22,1.23 4.35,2.22 0.8,0.73 1.41,1.59 1.84,2.57 0.43,0.98 0.65,2.11 0.65,3.37zm-4.71 0.1c0,-1.42 -0.63,-2.47 -1.89,-3.15 -1.51,-0.75 -3.75,-1.13 -6.74,-1.13 -1.64,0 -2.99,0.08 -4.05,0.25 -1.06,0.17 -1.97,0.45 -2.72,0.85 -1.17,0.62 -1.76,1.68 -1.76,3.19 0,0.4 0.2,0.84 0.61,1.33 0.41,0.49 0.98,1.01 1.71,1.56 1.97,1.44 4.08,2.16 6.34,2.16 2.3,0 4.37,-0.71 6.21,-2.12 0.77,-0.58 1.35,-1.09 1.73,-1.54 0.38,-0.45 0.56,-0.91 0.56,-1.38z"/>
   <polygon fill="#FEFEFE" points="844,591.6 822.56,617.12 818.91,614.1 837.13,592.43 818.81,592.43 818.81,587.71 844,587.71 "/>
   <path fill="#FEFEFE" d="M802.73 866.88c0,2.39 -1.33,4.63 -3.98,6.72 -2.66,2.09 -5.73,3.14 -9.23,3.14 -3.45,0 -6.58,-1.05 -9.4,-3.15 -1.35,-1.04 -2.35,-2.11 -3,-3.22 -0.65,-1.11 -0.98,-2.27 -0.98,-3.49 0,-1.04 0.14,-1.96 0.43,-2.76 0.18,-0.44 0.38,-0.87 0.61,-1.28 0.23,-0.41 0.51,-0.81 0.85,-1.21 1.33,-1.53 3.08,-2.41 5.25,-2.66l-0.03 2.12c-0.33,-0.02 -0.67,-0.08 -1.01,-0.18 -0.34,-0.1 -0.69,-0.23 -1.03,-0.4 -0.34,-0.17 -0.65,-0.34 -0.91,-0.53 -0.27,-0.18 -0.55,-0.43 -0.86,-0.74 -1.17,-1.17 -1.76,-2.56 -1.76,-4.17 0,-2.36 1.26,-4.35 3.78,-5.96 0.58,-0.35 1.19,-0.68 1.84,-0.96 0.65,-0.28 1.31,-0.53 1.98,-0.73 1.26,-0.38 2.66,-0.56 4.18,-0.56 3.14,0 5.89,0.77 8.23,2.3 2.35,1.53 3.52,3.5 3.52,5.91 0,1.48 -0.62,2.84 -1.86,4.07l-0.9 0.76c0.95,0.47 1.76,1.08 2.42,1.86 0.6,0.71 1.06,1.49 1.38,2.36 0.32,0.86 0.48,1.78 0.48,2.76zm-6.24 -11.7c0,-0.44 -0.19,-0.87 -0.58,-1.27 -0.39,-0.41 -0.95,-0.8 -1.68,-1.17 -1.51,-0.77 -3.09,-1.16 -4.75,-1.16 -0.8,0 -1.61,0.09 -2.44,0.28 -0.83,0.19 -1.62,0.47 -2.36,0.86 -0.74,0.39 -1.31,0.77 -1.71,1.17 -0.4,0.39 -0.6,0.84 -0.6,1.32 0,0.72 0.5,1.34 1.49,1.85 0.6,0.29 1.35,0.5 2.26,0.66 0.49,0.09 0.98,0.16 1.49,0.2 0.51,0.04 1.1,0.07 1.76,0.07 2.3,0 4.12,-0.31 5.44,-0.92 0.55,-0.27 0.97,-0.55 1.24,-0.84 0.28,-0.3 0.42,-0.65 0.42,-1.04zm1.53 11.77c0,-1.39 -0.64,-2.43 -1.93,-3.12 -1.48,-0.75 -3.72,-1.13 -6.71,-1.13 -1.64,0 -2.99,0.08 -4.05,0.25 -1.06,0.17 -1.97,0.45 -2.72,0.85 -1.17,0.62 -1.76,1.68 -1.76,3.19 0,0.44 0.2,0.91 0.6,1.39 0.4,0.49 0.97,1.02 1.73,1.59 1.9,1.37 4.02,2.06 6.34,2.06 2.28,0 4.36,-0.69 6.24,-2.06 0.75,-0.55 1.32,-1.07 1.69,-1.56 0.38,-0.49 0.56,-0.97 0.56,-1.46z"/>
   <path fill="#FEFEFE" d="M1016.86 871.95c0,4.19 -1.47,7.76 -4.42,10.7 -0.66,0.64 -1.42,1.25 -2.27,1.83 -0.85,0.58 -1.71,1.06 -2.57,1.43 -1.77,0.73 -3.66,1.1 -5.68,1.1 -2.37,0 -4.7,-0.58 -7,-1.73 -0.91,-0.46 -1.75,-1.03 -2.54,-1.7 -0.79,-0.67 -1.67,-1.59 -2.64,-2.77l3.78 -2.87c0.66,0.78 1.26,1.4 1.78,1.86 0.52,0.45 1.06,0.84 1.61,1.15 0.42,0.22 0.81,0.41 1.16,0.55 0.35,0.14 0.79,0.29 1.3,0.45 0.93,0.22 1.79,0.33 2.59,0.33 2.81,0 5.21,-1 7.2,-2.99 1.99,-2 2.99,-4.44 2.99,-7.33l0 -0.97 -0.17 -0.9 2.12 0.03c-0.49,1.95 -1.73,3.39 -3.73,4.32 -2,0.93 -4.8,1.39 -8.38,1.39 -2.5,0 -4.65,-0.25 -6.46,-0.75 -1.8,-0.5 -3.27,-1.25 -4.4,-2.24 -0.82,-0.75 -1.43,-1.61 -1.84,-2.56 -0.41,-0.95 -0.61,-2.08 -0.61,-3.39 0,-1.26 0.32,-2.43 0.96,-3.52 0.33,-0.53 0.73,-1.05 1.2,-1.56 0.46,-0.51 1.03,-1.02 1.69,-1.53 2.61,-2.15 5.72,-3.22 9.33,-3.22 4.23,0 7.82,1.53 10.79,4.59 2.81,2.94 4.22,6.37 4.22,10.27zm-6.31 -5.13c0,-0.4 -0.21,-0.84 -0.63,-1.33 -0.42,-0.49 -1,-1.01 -1.73,-1.56 -1.9,-1.42 -4.02,-2.12 -6.34,-2.12 -2.35,0 -4.43,0.7 -6.24,2.09 -0.75,0.58 -1.31,1.08 -1.68,1.53 -0.37,0.44 -0.55,0.91 -0.55,1.39 0,1.48 0.69,2.57 2.07,3.27 1.38,0.7 3.56,1.05 6.52,1.05 3.01,0 5.26,-0.38 6.74,-1.13 1.22,-0.6 1.83,-1.66 1.83,-3.19z"/>
   <path fill="#FEFEFE" d="M1088.18 616.66l-4.71 0 0 -20.58 -5.05 5.98 -3.45 -3.31 9.03 -10.63 4.18 0 0 28.55zm40.67 -14.31c0,4.14 -1.46,7.67 -4.38,10.59 -2.92,2.92 -6.45,4.38 -10.59,4.38 -4.14,0 -7.66,-1.46 -10.57,-4.37 -2.91,-2.91 -4.37,-6.45 -4.37,-10.61 0,-4.14 1.45,-7.66 4.35,-10.56 2.9,-2.9 6.43,-4.35 10.59,-4.35 4.09,0 7.61,1.44 10.56,4.32 2.94,2.88 4.42,6.41 4.42,10.59zm-4.71 0c0,-2.81 -1,-5.21 -3,-7.2 -2,-1.99 -4.43,-2.99 -7.29,-2.99 -2.83,0 -5.24,0.99 -7.22,2.97 -1.98,1.98 -2.97,4.39 -2.97,7.22 0,2.79 1,5.2 2.99,7.22 1.99,2.03 4.39,3.04 7.2,3.04 1.37,0 2.66,-0.25 3.87,-0.75 1.21,-0.5 2.33,-1.26 3.37,-2.27 2.04,-2.04 3.05,-4.45 3.05,-7.24z"/>
   <path fill="#FEFEFE" d="M1217.96 324.93l-4.71 0 0 -20.58 -5.05 5.98 -3.45 -3.31 9.03 -10.63 4.18 0 0 28.55zm31.07 0l-4.71 0 0 -20.58 -5.05 5.98 -3.45 -3.31 9.03 -10.63 4.18 0 0 28.55z"/>
   <path fill="#FEFEFE" d="M993.12 158.29l-4.71 0 0 -20.58 -5.05 5.98 -3.45 -3.31 9.03 -10.63 4.18 0 0 28.55zm38.94 -19.39c0,2.81 -0.95,5.17 -2.86,7.07 -0.71,0.69 -1.69,1.44 -2.95,2.26 -1.26,0.82 -2.78,1.68 -4.55,2.59l-5.44 2.76 13.91 0 0 4.71 -23.04 0 0 -5.43 12.32 -6.22c3.1,-1.55 5.12,-2.76 6.08,-3.65 1.22,-1.15 1.83,-2.54 1.83,-4.2 0,-0.4 -0.19,-0.83 -0.56,-1.29 -0.38,-0.46 -0.94,-0.99 -1.69,-1.59 -1.9,-1.41 -3.98,-2.12 -6.23,-2.12 -2.12,0 -4.14,0.64 -6.06,1.91 -0.91,0.59 -1.54,1.2 -1.92,1.84 -0.44,0.75 -0.66,1.71 -0.66,2.89l-4.71 -0.37c0,-1.63 0.3,-3.05 0.91,-4.25 0.61,-1.2 1.6,-2.36 2.97,-3.49 2.7,-2.16 5.85,-3.24 9.46,-3.24 1.77,0 3.41,0.25 4.91,0.76 0.84,0.27 1.6,0.58 2.27,0.95 0.68,0.37 1.38,0.85 2.11,1.44 2.61,2.06 3.92,4.28 3.92,6.67z"/>
   <path fill="#FEFEFE" d="M1212.26 158.76l-4.71 0 0 -20.58 -5.05 5.98 -3.45 -3.31 9.03 -10.63 4.18 0 0 28.55zm38.94 -9.19c0,1.15 -0.32,2.29 -0.96,3.42 -0.64,1.13 -1.64,2.22 -2.99,3.28 -2.77,2.1 -5.92,3.15 -9.46,3.15 -3.65,0 -6.82,-1.18 -9.49,-3.55 -1.24,-1.08 -2.15,-2.22 -2.74,-3.4 -0.59,-1.18 -0.88,-2.55 -0.88,-4.1l4.71 -0.37c0,1.08 0.18,1.96 0.53,2.62 0.35,0.66 0.95,1.33 1.78,1.99 0.83,0.66 1.78,1.17 2.84,1.53 1.02,0.38 2.1,0.56 3.25,0.56 2.32,0 4.44,-0.69 6.34,-2.05 0.77,-0.55 1.36,-1.07 1.76,-1.55 0.4,-0.48 0.6,-0.97 0.6,-1.46 0,-1.41 -0.62,-2.47 -1.86,-3.19 -1.24,-0.71 -3.1,-1.07 -5.58,-1.07l-3.75 0 0 -4.71 3.68 0c1.77,0 3.26,-0.32 4.48,-0.96 0.49,-0.29 0.86,-0.58 1.11,-0.86 0.25,-0.29 0.38,-0.62 0.38,-0.99 0,-0.44 -0.19,-0.87 -0.58,-1.27 -0.39,-0.41 -0.95,-0.8 -1.68,-1.17 -1.51,-0.77 -3.09,-1.16 -4.75,-1.16 -0.73,0 -1.44,0.07 -2.14,0.22 -0.7,0.14 -1.43,0.38 -2.21,0.71 -0.77,0.33 -1.36,0.7 -1.76,1.12 -0.47,0.5 -0.86,1.24 -1.2,2.21l-4.45 -1.65c0.35,-1.28 0.86,-2.33 1.53,-3.18 0.66,-0.84 1.59,-1.59 2.79,-2.25 2.23,-1.26 4.69,-1.89 7.37,-1.89 3.1,0 5.79,0.75 8.07,2.25 1.2,0.8 2.11,1.69 2.76,2.69 0.64,0.99 0.96,2.09 0.96,3.28 0,0.75 -0.13,1.44 -0.38,2.09 -0.25,0.64 -0.65,1.27 -1.18,1.89l-0.86 0.82c0.8,0.49 1.5,1.11 2.12,1.86 0.31,0.38 0.62,0.87 0.93,1.49 0.2,0.4 0.34,0.71 0.43,0.93 0.31,0.86 0.47,1.77 0.47,2.72z"/>
   <path fill="#FEFEFE" d="M1455.4 168.7l-4.71 0 0 -20.58 -5.05 5.98 -3.45 -3.31 9.03 -10.63 4.18 0 0 28.55zm39.24 -4.48l-5.41 0 0 4.48 -4.71 0 0 -4.48 -16.1 0 0 -4.61 16.67 -19.46 4.15 0 0 19.35 5.41 0 0 4.71zm-10.13 -4.71l0 -11.42 -9.73 11.42 9.73 0z"/>
   <path fill="#FEFEFE" d="M1496.91 324.93l-4.71 0 0 -20.58 -5.05 5.98 -3.45 -3.31 9.03 -10.63 4.18 0 0 28.55zm38.94 -9.2c0,1.17 -0.32,2.31 -0.95,3.4 -0.63,1.1 -1.61,2.16 -2.94,3.2 -2.7,2.17 -5.81,3.25 -9.33,3.25 -1.77,0 -3.44,-0.27 -5.01,-0.81 -1.57,-0.54 -3.04,-1.35 -4.42,-2.42 -1.37,-1.07 -2.37,-2.22 -2.99,-3.45 -0.62,-1.23 -0.93,-2.68 -0.93,-4.37l4.71 -0.37c0,1.2 0.2,2.14 0.6,2.82 0.4,0.69 1.05,1.34 1.95,1.96 1.88,1.28 3.91,1.93 6.1,1.93 2.3,0 4.36,-0.71 6.2,-2.12 1.52,-1.13 2.28,-2.11 2.28,-2.95 0,-1.64 -0.87,-2.84 -2.62,-3.62 -0.73,-0.35 -1.57,-0.61 -2.52,-0.76 -0.95,-0.15 -2.11,-0.23 -3.49,-0.23l-11.62 0 0 -14.81 23.07 0 0 4.71 -18.36 0 0 5.38 6.88 0c3.75,0 6.69,0.59 8.85,1.76 3.02,1.62 4.52,4.12 4.52,7.5z"/>
   <path fill="#FEFEFE" d="M1293.08 616.18l-4.71 0 0 -20.58 -5.05 5.98 -3.45 -3.31 9.03 -10.63 4.18 0 0 28.55zm39.77 -9.2c0,1.15 -0.33,2.29 -0.98,3.42 -0.65,1.13 -1.62,2.19 -2.9,3.19 -2.63,2.17 -5.74,3.25 -9.33,3.25 -4.23,0 -7.82,-1.54 -10.79,-4.61 -2.79,-2.92 -4.18,-6.34 -4.18,-10.26 0,-4.21 1.46,-7.76 4.38,-10.66 2.92,-2.9 6.43,-4.35 10.52,-4.35 2.43,0 4.77,0.56 7,1.69 0.77,0.38 1.56,0.9 2.36,1.56 0.6,0.47 1.56,1.41 2.89,2.82l-3.82 2.89c-0.62,-0.7 -1.21,-1.29 -1.78,-1.77 -0.56,-0.47 -1.12,-0.87 -1.68,-1.2 -0.4,-0.22 -0.77,-0.39 -1.11,-0.53 -0.34,-0.13 -0.77,-0.28 -1.28,-0.43 -0.82,-0.22 -1.69,-0.33 -2.62,-0.33 -2.79,0 -5.18,0.98 -7.17,2.94 -1.99,1.96 -2.99,4.4 -2.99,7.32l0 1 0.1 0.76 -2.09 0.07c0.49,-1.95 1.72,-3.38 3.68,-4.3 1.97,-0.92 4.78,-1.38 8.43,-1.38 2.57,0 4.74,0.24 6.51,0.73 1.77,0.49 3.22,1.23 4.35,2.22 0.8,0.73 1.41,1.59 1.84,2.57 0.43,0.98 0.65,2.11 0.65,3.37zm-4.71 0.1c0,-1.42 -0.63,-2.47 -1.89,-3.15 -1.51,-0.75 -3.75,-1.13 -6.74,-1.13 -1.64,0 -2.99,0.08 -4.05,0.25 -1.06,0.17 -1.97,0.45 -2.72,0.85 -1.17,0.62 -1.76,1.68 -1.76,3.19 0,0.4 0.2,0.84 0.61,1.33 0.41,0.49 0.98,1.01 1.71,1.56 1.97,1.44 4.08,2.16 6.34,2.16 2.3,0 4.37,-0.71 6.21,-2.12 0.77,-0.58 1.35,-1.09 1.73,-1.54 0.38,-0.45 0.56,-0.91 0.56,-1.38z"/>
   <path fill="#FEFEFE" d="M1497.06 616.18l-4.71 0 0 -20.58 -5.05 5.98 -3.45 -3.31 9.03 -10.63 4.18 0 0 28.55zm38.54 -24.67l-21.45 25.52 -3.65 -3.02 18.23 -21.67 -18.33 0 0 -4.71 25.2 0 0 3.88z"/>
   <path fill="#FEFEFE" d="M1211.85 886.34l-4.71 0 0 -20.58 -5.05 5.98 -3.45 -3.31 9.03 -10.63 4.18 0 0 28.55zm38.94 -9.2c0,2.39 -1.33,4.63 -3.98,6.72 -2.66,2.09 -5.73,3.14 -9.23,3.14 -3.45,0 -6.58,-1.05 -9.4,-3.15 -1.35,-1.04 -2.35,-2.11 -3,-3.22 -0.65,-1.11 -0.98,-2.27 -0.98,-3.49 0,-1.04 0.14,-1.96 0.43,-2.76 0.18,-0.44 0.38,-0.87 0.61,-1.28 0.23,-0.41 0.51,-0.81 0.85,-1.21 1.33,-1.53 3.08,-2.41 5.25,-2.66l-0.03 2.12c-0.33,-0.02 -0.67,-0.08 -1.01,-0.18 -0.34,-0.1 -0.69,-0.23 -1.03,-0.4 -0.34,-0.17 -0.65,-0.34 -0.91,-0.53 -0.27,-0.18 -0.55,-0.43 -0.86,-0.74 -1.17,-1.17 -1.76,-2.56 -1.76,-4.17 0,-2.36 1.26,-4.35 3.78,-5.96 0.58,-0.35 1.19,-0.68 1.84,-0.96 0.65,-0.28 1.31,-0.53 1.98,-0.73 1.26,-0.38 2.66,-0.56 4.18,-0.56 3.14,0 5.89,0.77 8.23,2.3 2.35,1.53 3.52,3.5 3.52,5.91 0,1.48 -0.62,2.84 -1.86,4.07l-0.9 0.76c0.95,0.47 1.76,1.08 2.42,1.86 0.6,0.71 1.06,1.49 1.38,2.36 0.32,0.86 0.48,1.78 0.48,2.76zm-6.24 -11.7c0,-0.44 -0.19,-0.87 -0.58,-1.27 -0.39,-0.41 -0.95,-0.8 -1.68,-1.17 -1.51,-0.77 -3.09,-1.16 -4.75,-1.16 -0.8,0 -1.61,0.09 -2.44,0.28 -0.83,0.19 -1.62,0.47 -2.36,0.86 -0.74,0.39 -1.31,0.77 -1.71,1.17 -0.4,0.39 -0.6,0.84 -0.6,1.32 0,0.72 0.5,1.34 1.49,1.85 0.6,0.29 1.35,0.5 2.26,0.66 0.49,0.09 0.98,0.16 1.49,0.2 0.51,0.04 1.1,0.07 1.76,0.07 2.3,0 4.12,-0.31 5.44,-0.92 0.55,-0.27 0.97,-0.55 1.24,-0.84 0.28,-0.3 0.42,-0.65 0.42,-1.04zm1.53 11.77c0,-1.39 -0.64,-2.43 -1.93,-3.12 -1.48,-0.75 -3.72,-1.13 -6.71,-1.13 -1.64,0 -2.99,0.08 -4.05,0.25 -1.06,0.17 -1.97,0.45 -2.72,0.85 -1.17,0.62 -1.76,1.68 -1.76,3.19 0,0.44 0.2,0.91 0.6,1.39 0.4,0.49 0.97,1.02 1.73,1.59 1.9,1.37 4.02,2.06 6.34,2.06 2.28,0 4.36,-0.69 6.24,-2.06 0.75,-0.55 1.32,-1.07 1.69,-1.56 0.38,-0.49 0.56,-0.97 0.56,-1.46z"/>
   <path fill="#FEFEFE" d="M1455.4 876.07l-4.71 0 0 -20.58 -5.05 5.98 -3.45 -3.31 9.03 -10.63 4.18 0 0 28.55zm39.7 -14.52c0,4.19 -1.47,7.76 -4.42,10.7 -0.66,0.64 -1.42,1.25 -2.27,1.83 -0.85,0.58 -1.71,1.06 -2.57,1.43 -1.77,0.73 -3.66,1.1 -5.68,1.1 -2.37,0 -4.7,-0.58 -7,-1.73 -0.91,-0.46 -1.75,-1.03 -2.54,-1.7 -0.79,-0.67 -1.67,-1.59 -2.64,-2.77l3.78 -2.87c0.66,0.78 1.26,1.4 1.78,1.86 0.52,0.45 1.06,0.84 1.61,1.15 0.42,0.22 0.81,0.41 1.16,0.55 0.35,0.14 0.79,0.29 1.3,0.45 0.93,0.22 1.79,0.33 2.59,0.33 2.81,0 5.21,-1 7.2,-2.99 1.99,-2 2.99,-4.44 2.99,-7.33l0 -0.97 -0.17 -0.9 2.12 0.03c-0.49,1.95 -1.73,3.39 -3.73,4.32 -2,0.93 -4.8,1.39 -8.38,1.39 -2.5,0 -4.65,-0.25 -6.46,-0.75 -1.8,-0.5 -3.27,-1.25 -4.4,-2.24 -0.82,-0.75 -1.43,-1.61 -1.84,-2.56 -0.41,-0.95 -0.61,-2.08 -0.61,-3.39 0,-1.26 0.32,-2.43 0.96,-3.52 0.33,-0.53 0.73,-1.05 1.2,-1.56 0.46,-0.51 1.03,-1.02 1.69,-1.53 2.61,-2.15 5.72,-3.22 9.33,-3.22 4.23,0 7.82,1.53 10.79,4.59 2.81,2.94 4.22,6.37 4.22,10.27zm-6.31 -5.13c0,-0.4 -0.21,-0.84 -0.63,-1.33 -0.42,-0.49 -1,-1.01 -1.73,-1.56 -1.9,-1.42 -4.02,-2.12 -6.34,-2.12 -2.35,0 -4.43,0.7 -6.24,2.09 -0.75,0.58 -1.31,1.08 -1.68,1.53 -0.37,0.44 -0.55,0.91 -0.55,1.39 0,1.48 0.69,2.57 2.07,3.27 1.38,0.7 3.56,1.05 6.52,1.05 3.01,0 5.26,-0.38 6.74,-1.13 1.22,-0.6 1.83,-1.66 1.83,-3.19z"/>
   <path fill="#FEFEFE" d="M1725.76 504.58c0,2.81 -0.95,5.17 -2.86,7.07 -0.71,0.69 -1.69,1.44 -2.95,2.26 -1.26,0.82 -2.78,1.68 -4.55,2.59l-5.44 2.76 13.91 0 0 4.71 -23.04 0 0 -5.43 12.32 -6.22c3.1,-1.55 5.12,-2.76 6.08,-3.65 1.22,-1.15 1.83,-2.54 1.83,-4.2 0,-0.4 -0.19,-0.83 -0.56,-1.29 -0.38,-0.46 -0.94,-0.99 -1.69,-1.59 -1.9,-1.41 -3.98,-2.12 -6.23,-2.12 -2.12,0 -4.14,0.64 -6.06,1.91 -0.91,0.59 -1.54,1.2 -1.92,1.84 -0.44,0.75 -0.66,1.71 -0.66,2.89l-4.71 -0.37c0,-1.63 0.3,-3.05 0.91,-4.25 0.61,-1.2 1.6,-2.36 2.97,-3.49 2.7,-2.16 5.85,-3.24 9.46,-3.24 1.77,0 3.41,0.25 4.91,0.76 0.84,0.27 1.6,0.58 2.27,0.95 0.68,0.37 1.38,0.85 2.11,1.44 2.61,2.06 3.92,4.28 3.92,6.67zm32.8 5.08c0,4.14 -1.46,7.67 -4.38,10.59 -2.92,2.92 -6.45,4.38 -10.59,4.38 -4.14,0 -7.66,-1.46 -10.57,-4.37 -2.91,-2.91 -4.37,-6.45 -4.37,-10.61 0,-4.14 1.45,-7.66 4.35,-10.56 2.9,-2.9 6.43,-4.35 10.59,-4.35 4.09,0 7.61,1.44 10.56,4.32 2.94,2.88 4.42,6.41 4.42,10.59zm-4.71 0c0,-2.81 -1,-5.21 -3,-7.2 -2,-1.99 -4.43,-2.99 -7.29,-2.99 -2.83,0 -5.24,0.99 -7.22,2.97 -1.98,1.98 -2.97,4.39 -2.97,7.22 0,2.79 1,5.2 2.99,7.22 1.99,2.03 4.39,3.04 7.2,3.04 1.37,0 2.66,-0.25 3.87,-0.75 1.21,-0.5 2.33,-1.26 3.37,-2.27 2.04,-2.04 3.05,-4.45 3.05,-7.24z"/>
   <path fill="none" stroke="#FEFEFE" stroke-width="3.98" stroke-linecap="round" stroke-linejoin="round" stroke-miterlimit="22.9256" d="M309.07 826.99c539.73,243.02 1057.59,228.09 1600.11,39.26 157.5,-445.29 13.2,-630.95 -14.11,-726.46 -574.52,-224.83 -1226.5,-147.31 -1596.43,37.77l-296.64 0 0 649.43 307.08 0z"/>
  </g>
 </g>
</svg>
