<!-- Creator: CorelDRAW 2020 (64-Bit) -->
<svg xmlns="http://www.w3.org/2000/svg" xml:space="preserve" width="253.061mm" height="316.426mm" version="1.1" style="shape-rendering:geometricPrecision; text-rendering:geometricPrecision; image-rendering:optimizeQuality; fill-rule:evenodd; clip-rule:evenodd"
viewBox="0 0 1782.78 2229.18"
>
 <g id="Layer_x0020_1">
  <metadata id="CorelCorpID_0Corel-Layer"/>
  <g id="_1875400162768">
   <path fill="none" stroke="#FEFEFE" stroke-width="2.39" stroke-linecap="round" stroke-linejoin="round" stroke-miterlimit="22.9256" d="M521.45 2227.99l1066 -341.62c-301.88,-373.42 -334.86,-1095.01 -7.15,-1511.36l-1064.21 -373.82 -119.84 761.94 1.79 724.38 123.41 740.48z"/>
   <polygon fill="none" stroke="#FEFEFE" stroke-width="2.39" stroke-linecap="round" stroke-linejoin="round" stroke-miterlimit="22.9256" points="893.47,1469.18 893.47,760 396.25,760 396.25,1469.18 "/>
   <polygon fill="#FEFEFE" fill-opacity="0.2000000000" points="893.47,1539.98 893.47,1469.33 560.8,1469.33 560.8,1539.98 "/>
   <polygon fill="#FEFEFE" fill-opacity="0.2000000000" points="893.47,760 893.47,689.35 560.8,689.35 560.8,760 "/>
   <polygon fill="#FEFEFE" fill-opacity="0.2000000000" points="511.78,2169.98 620.71,2074.62 593.89,1630.15 425.35,1651.39 "/>
   <polygon fill="#FEFEFE" fill-opacity="0.2000000000" points="503.57,80.76 619.21,183.73 592.83,626.4 421.06,605.36 "/>
   <path fill="#FEFEFE" d="M684.04 2063.89c0,-5.83 -4.73,-10.56 -10.56,-10.56 -5.83,0 -10.56,4.73 -10.56,10.56 0,5.83 4.73,10.56 10.56,10.56 5.83,0 10.56,-4.73 10.56,-10.56z"/>
   <path fill="#FEFEFE" d="M725.63 2052.26c0,-5.83 -4.73,-10.56 -10.56,-10.56 -5.83,0 -10.56,4.73 -10.56,10.56 0,5.83 4.73,10.56 10.56,10.56 5.83,0 10.56,-4.73 10.56,-10.56z"/>
   <path fill="#FEFEFE" d="M762.51 2042.87c0,-5.83 -4.73,-10.56 -10.56,-10.56 -5.83,0 -10.56,4.73 -10.56,10.56 0,5.83 4.73,10.56 10.56,10.56 5.83,0 10.56,-4.73 10.56,-10.56z"/>
   <path fill="#FEFEFE" d="M797.84 2032.59c0,-5.83 -4.73,-10.56 -10.56,-10.56 -5.83,0 -10.56,4.73 -10.56,10.56 0,5.83 4.73,10.56 10.56,10.56 5.83,0 10.56,-4.73 10.56,-10.56z"/>
   <path fill="#FEFEFE" d="M830.93 2019.62c0,-5.83 -4.73,-10.56 -10.56,-10.56 -5.83,0 -10.56,4.73 -10.56,10.56 0,5.83 4.73,10.56 10.56,10.56 5.83,0 10.56,-4.73 10.56,-10.56z"/>
   <path fill="#FEFEFE" d="M865.81 2005.31c0,-5.83 -4.73,-10.56 -10.56,-10.56 -5.83,0 -10.56,4.73 -10.56,10.56 0,5.83 4.73,10.56 10.56,10.56 5.83,0 10.56,-4.73 10.56,-10.56z"/>
   <path fill="#FEFEFE" d="M901.13 1986.08c0,-5.83 -4.73,-10.56 -10.56,-10.56 -5.83,0 -10.56,4.73 -10.56,10.56 0,5.83 4.73,10.56 10.56,10.56 5.83,0 10.56,-4.73 10.56,-10.56z"/>
   <path fill="#FEFEFE" d="M936.9 1967.3c0,-5.83 -4.73,-10.56 -10.56,-10.56 -5.83,0 -10.56,4.73 -10.56,10.56 0,5.83 4.73,10.56 10.56,10.56 5.83,0 10.56,-4.73 10.56,-10.56z"/>
   <path fill="#FEFEFE" d="M969.99 1949.86c0,-5.83 -4.73,-10.56 -10.56,-10.56 -5.83,0 -10.56,4.73 -10.56,10.56 0,5.83 4.73,10.56 10.56,10.56 5.83,0 10.56,-4.73 10.56,-10.56z"/>
   <path fill="#FEFEFE" d="M1001.29 1928.85c0,-5.83 -4.73,-10.56 -10.56,-10.56 -5.83,0 -10.56,4.73 -10.56,10.56 0,5.83 4.73,10.56 10.56,10.56 5.83,0 10.56,-4.73 10.56,-10.56z"/>
   <path fill="#FEFEFE" d="M1032.59 1903.36c0,-5.83 -4.73,-10.56 -10.56,-10.56 -5.83,0 -10.56,4.73 -10.56,10.56 0,5.83 4.73,10.56 10.56,10.56 5.83,0 10.56,-4.73 10.56,-10.56z"/>
   <path fill="#FEFEFE" d="M684.04 161.72c0,5.83 -4.73,10.56 -10.56,10.56 -5.83,0 -10.56,-4.73 -10.56,-10.56 0,-5.83 4.73,-10.56 10.56,-10.56 5.83,0 10.56,4.73 10.56,10.56z"/>
   <path fill="#FEFEFE" d="M725.63 173.35c0,5.83 -4.73,10.56 -10.56,10.56 -5.83,0 -10.56,-4.73 -10.56,-10.56 0,-5.83 4.73,-10.56 10.56,-10.56 5.83,0 10.56,4.73 10.56,10.56z"/>
   <path fill="#FEFEFE" d="M762.51 182.74c0,5.83 -4.73,10.56 -10.56,10.56 -5.83,0 -10.56,-4.73 -10.56,-10.56 0,-5.83 4.73,-10.56 10.56,-10.56 5.83,0 10.56,4.73 10.56,10.56z"/>
   <path fill="#FEFEFE" d="M797.84 193.02c0,5.83 -4.73,10.56 -10.56,10.56 -5.83,0 -10.56,-4.73 -10.56,-10.56 0,-5.83 4.73,-10.56 10.56,-10.56 5.83,0 10.56,4.73 10.56,10.56z"/>
   <path fill="#FEFEFE" d="M830.93 205.99c0,5.83 -4.73,10.56 -10.56,10.56 -5.83,0 -10.56,-4.73 -10.56,-10.56 0,-5.83 4.73,-10.56 10.56,-10.56 5.83,0 10.56,4.73 10.56,10.56z"/>
   <path fill="#FEFEFE" d="M865.81 220.3c0,5.83 -4.73,10.56 -10.56,10.56 -5.83,0 -10.56,-4.73 -10.56,-10.56 0,-5.83 4.73,-10.56 10.56,-10.56 5.83,0 10.56,4.73 10.56,10.56z"/>
   <path fill="#FEFEFE" d="M901.13 239.53c0,5.83 -4.73,10.56 -10.56,10.56 -5.83,0 -10.56,-4.73 -10.56,-10.56 0,-5.83 4.73,-10.56 10.56,-10.56 5.83,0 10.56,4.73 10.56,10.56z"/>
   <path fill="#FEFEFE" d="M936.9 258.31c0,5.83 -4.73,10.56 -10.56,10.56 -5.83,0 -10.56,-4.73 -10.56,-10.56 0,-5.83 4.73,-10.56 10.56,-10.56 5.83,0 10.56,4.73 10.56,10.56z"/>
   <path fill="#FEFEFE" d="M969.99 275.75c0,5.83 -4.73,10.56 -10.56,10.56 -5.83,0 -10.56,-4.73 -10.56,-10.56 0,-5.83 4.73,-10.56 10.56,-10.56 5.83,0 10.56,4.73 10.56,10.56z"/>
   <path fill="#FEFEFE" d="M1001.29 296.76c0,5.83 -4.73,10.56 -10.56,10.56 -5.83,0 -10.56,-4.73 -10.56,-10.56 0,-5.83 4.73,-10.56 10.56,-10.56 5.83,0 10.56,4.73 10.56,10.56z"/>
   <path fill="#FEFEFE" d="M1032.59 322.25c0,5.83 -4.73,10.56 -10.56,10.56 -5.83,0 -10.56,-4.73 -10.56,-10.56 0,-5.83 4.73,-10.56 10.56,-10.56 5.83,0 10.56,4.73 10.56,10.56z"/>
   <polygon fill="none" stroke="#FEFEFE" stroke-width="2.39" stroke-linecap="round" stroke-linejoin="round" stroke-miterlimit="22.9256" points="260.54,1555.03 260.54,696.51 1.19,696.51 1.19,1555.03 "/>
   <polygon fill="#FEFEFE" fill-opacity="0.2000000000" points="1603.36,1224.75 1601.86,1199.76 1398.33,1211.91 1399.82,1236.91 "/>
   <polygon fill="#FEFEFE" fill-opacity="0.2000000000" points="1603.36,1025.01 1601.86,1050 1398.33,1037.85 1399.82,1012.85 "/>
   <polygon fill="#FEFEFE" fill-opacity="0.2000000000" points="1638.18,1421.76 1631.27,1397.69 1435.28,1453.94 1442.19,1478.01 "/>
   <polygon fill="#FEFEFE" fill-opacity="0.2000000000" points="1638.18,831.06 1631.27,855.13 1435.28,798.88 1442.19,774.81 "/>
   <polygon fill="#FEFEFE" fill-opacity="0.2000000000" points="1719.36,1614.14 1707.93,1591.86 1526.5,1684.92 1537.93,1707.2 "/>
   <polygon fill="#FEFEFE" fill-opacity="0.2000000000" points="1708.62,634.13 1697.2,656.41 1515.77,563.34 1527.2,541.06 "/>
   <polygon fill="#FEFEFE" fill-opacity="0.2000000000" points="1782.78,1764.69 1767.49,1744.86 1606,1869.34 1621.29,1889.17 "/>
   <polygon fill="#FEFEFE" fill-opacity="0.2000000000" points="1777.47,499.49 1762.18,519.32 1600.69,394.84 1615.98,375.01 "/>
   <g>
    <polygon fill="#FEFEFE" fill-opacity="0.2000000000" points="260.54,773.42 260.54,696.51 1.19,696.51 1.19,773.42 "/>
    <polygon fill="#FEFEFE" fill-opacity="0.2000000000" points="260.54,1555.03 260.54,1478.13 1.19,1478.13 1.19,1555.03 "/>
   </g>
   <polygon fill="none" stroke="#FEFEFE" stroke-width="2.39" stroke-linecap="round" stroke-linejoin="round" stroke-miterlimit="22.9256" points="634.21,906.46 634.21,785.04 424.11,785.04 424.11,906.46 "/>
   <polygon fill="none" stroke="#FEFEFE" stroke-width="2.39" stroke-linecap="round" stroke-linejoin="round" stroke-miterlimit="22.9256" points="869.07,906.46 869.07,785.04 658.96,785.04 658.96,906.46 "/>
   <polygon fill="none" stroke="#FEFEFE" stroke-width="2.39" stroke-linecap="round" stroke-linejoin="round" stroke-miterlimit="22.9256" points="634.21,1446.05 634.21,1324.63 424.11,1324.63 424.11,1446.05 "/>
   <polygon fill="none" stroke="#FEFEFE" stroke-width="2.39" stroke-linecap="round" stroke-linejoin="round" stroke-miterlimit="22.9256" points="869.07,1446.05 869.07,1324.63 658.96,1324.63 658.96,1446.05 "/>
   <polygon fill="none" stroke="#FEFEFE" stroke-width="2.39" stroke-linecap="round" stroke-linejoin="round" stroke-miterlimit="22.9256" points="888.95,1878.2 888.95,1629.7 643.13,1629.7 643.13,1878.2 "/>
   <polygon fill="none" stroke="#FEFEFE" stroke-width="2.39" stroke-linecap="round" stroke-linejoin="round" stroke-miterlimit="22.9256" points="888.95,625 888.95,376.5 643.13,376.5 643.13,625 "/>
   <polygon fill="none" stroke="#FEFEFE" stroke-width="2.39" stroke-linecap="round" stroke-linejoin="round" stroke-miterlimit="22.9256" points="1307.72,827.88 1307.72,689.35 1068.02,689.35 1068.02,827.88 "/>
   <polygon fill="none" stroke="#FEFEFE" stroke-width="2.39" stroke-linecap="round" stroke-linejoin="round" stroke-miterlimit="22.9256" points="1307.72,995.93 1307.72,857.4 1068.02,857.4 1068.02,995.93 "/>
   <polygon fill="none" stroke="#FEFEFE" stroke-width="2.39" stroke-linecap="round" stroke-linejoin="round" stroke-miterlimit="22.9256" points="1307.72,1371.78 1307.72,1233.25 1068.02,1233.25 1068.02,1371.78 "/>
   <polygon fill="none" stroke="#FEFEFE" stroke-width="2.39" stroke-linecap="round" stroke-linejoin="round" stroke-miterlimit="22.9256" points="1307.72,1539.83 1307.72,1401.3 1068.02,1401.3 1068.02,1539.83 "/>
   <polygon fill="#FEFEFE" fill-rule="nonzero" points="537.07,862.84 531.42,862.84 531.42,838.19 525.38,845.35 521.24,841.38 532.06,828.65 537.07,828.65 "/>
   <path fill="#FEFEFE" fill-rule="nonzero" d="M779.92 840.02c0,3.37 -1.14,6.19 -3.42,8.47 -0.85,0.82 -2.03,1.72 -3.54,2.7 -1.51,0.98 -3.33,2.01 -5.45,3.1l-6.52 3.3 16.66 0 0 5.65 -27.6 0 0 -6.5 14.75 -7.46c3.71,-1.86 6.14,-3.31 7.28,-4.37 1.46,-1.37 2.19,-3.05 2.19,-5.03 0,-0.48 -0.22,-0.99 -0.68,-1.55 -0.45,-0.56 -1.12,-1.19 -2.02,-1.9 -2.28,-1.69 -4.77,-2.54 -7.46,-2.54 -2.54,0 -4.96,0.76 -7.26,2.29 -1.09,0.7 -1.85,1.44 -2.3,2.2 -0.53,0.89 -0.8,2.05 -0.8,3.47l-5.65 -0.44c0,-1.95 0.36,-3.65 1.09,-5.1 0.73,-1.44 1.91,-2.83 3.56,-4.18 3.23,-2.59 7.01,-3.88 11.33,-3.88 2.12,0 4.08,0.31 5.89,0.91 1.01,0.32 1.91,0.7 2.72,1.13 0.81,0.44 1.65,1.01 2.52,1.73 3.13,2.47 4.69,5.13 4.69,7.99z"/>
   <path fill="#FEFEFE" fill-rule="nonzero" d="M545.04 1391.43c0,1.38 -0.38,2.74 -1.15,4.1 -0.77,1.35 -1.96,2.66 -3.58,3.93 -3.31,2.52 -7.09,3.78 -11.33,3.78 -4.37,0 -8.16,-1.42 -11.37,-4.26 -1.48,-1.3 -2.58,-2.66 -3.28,-4.08 -0.7,-1.42 -1.05,-3.06 -1.05,-4.91l5.65 -0.44c0,1.3 0.21,2.35 0.64,3.14 0.42,0.8 1.13,1.59 2.13,2.39 0.99,0.79 2.13,1.4 3.4,1.83 1.22,0.45 2.52,0.68 3.9,0.68 2.78,0 5.32,-0.82 7.6,-2.46 0.93,-0.66 1.63,-1.28 2.11,-1.86 0.48,-0.58 0.72,-1.16 0.72,-1.74 0,-1.69 -0.74,-2.96 -2.23,-3.82 -1.49,-0.86 -3.71,-1.29 -6.68,-1.29l-4.49 0 0 -5.65 4.41 0c2.12,0 3.91,-0.38 5.37,-1.15 0.58,-0.34 1.03,-0.69 1.33,-1.03 0.31,-0.34 0.46,-0.74 0.46,-1.19 0,-0.53 -0.23,-1.04 -0.7,-1.52 -0.46,-0.49 -1.13,-0.95 -2.01,-1.4 -1.8,-0.92 -3.7,-1.39 -5.69,-1.39 -0.87,0 -1.73,0.09 -2.56,0.26 -0.84,0.17 -1.72,0.45 -2.64,0.85 -0.93,0.39 -1.63,0.84 -2.11,1.34 -0.56,0.6 -1.03,1.49 -1.43,2.64l-5.33 -1.98c0.42,-1.53 1.03,-2.8 1.83,-3.8 0.79,-1 1.91,-1.9 3.34,-2.69 2.68,-1.5 5.62,-2.26 8.83,-2.26 3.71,0 6.93,0.9 9.66,2.7 1.43,0.95 2.53,2.03 3.3,3.22 0.77,1.19 1.15,2.5 1.15,3.93 0,0.9 -0.15,1.73 -0.46,2.5 -0.31,0.77 -0.78,1.52 -1.41,2.27l-1.03 0.99c0.95,0.58 1.8,1.33 2.54,2.23 0.37,0.45 0.74,1.05 1.11,1.79 0.24,0.48 0.41,0.85 0.52,1.11 0.37,1.03 0.56,2.12 0.56,3.25z"/>
   <path fill="#FEFEFE" fill-rule="nonzero" d="M779.72 1397.07l-6.48 0 0 5.37 -5.65 0 0 -5.37 -19.29 0 0 -5.52 19.96 -23.31 4.97 0 0 23.18 6.48 0 0 5.65zm-12.13 -5.65l0 -13.68 -11.65 13.68 11.65 0z"/>
   <path fill="#FEFEFE" fill-rule="nonzero" d="M781.95 506.44c0,1.4 -0.38,2.76 -1.13,4.08 -0.76,1.31 -1.93,2.59 -3.52,3.84 -3.23,2.6 -6.96,3.9 -11.17,3.9 -2.12,0 -4.12,-0.32 -6,-0.97 -1.88,-0.65 -3.65,-1.62 -5.29,-2.9 -1.64,-1.29 -2.84,-2.66 -3.58,-4.14 -0.74,-1.47 -1.11,-3.21 -1.11,-5.23l5.65 -0.44c0,1.43 0.24,2.56 0.72,3.38 0.48,0.82 1.25,1.6 2.34,2.35 2.25,1.54 4.69,2.31 7.3,2.31 2.75,0 5.22,-0.85 7.42,-2.54 1.82,-1.35 2.74,-2.53 2.74,-3.54 0,-1.96 -1.05,-3.41 -3.14,-4.33 -0.87,-0.42 -1.88,-0.73 -3.02,-0.91 -1.14,-0.19 -2.53,-0.28 -4.18,-0.28l-13.92 0 0 -17.73 27.64 0 0 5.65 -21.99 0 0 6.44 8.24 0c4.49,0 8.02,0.7 10.6,2.11 3.61,1.94 5.41,4.93 5.41,8.99z"/>
   <path fill="#FEFEFE" fill-rule="nonzero" d="M782.92 1760.03c0,1.38 -0.39,2.74 -1.17,4.1 -0.78,1.35 -1.94,2.62 -3.48,3.82 -3.15,2.6 -6.88,3.9 -11.17,3.9 -5.06,0 -9.37,-1.84 -12.92,-5.53 -3.34,-3.5 -5.01,-7.6 -5.01,-12.29 0,-5.04 1.75,-9.29 5.25,-12.76 3.5,-3.47 7.7,-5.21 12.61,-5.21 2.92,0 5.71,0.68 8.39,2.03 0.93,0.45 1.87,1.07 2.82,1.87 0.72,0.56 1.87,1.68 3.46,3.38l-4.57 3.46c-0.74,-0.84 -1.45,-1.54 -2.13,-2.11 -0.68,-0.56 -1.35,-1.04 -2.01,-1.44 -0.48,-0.26 -0.92,-0.47 -1.33,-0.63 -0.41,-0.16 -0.92,-0.33 -1.53,-0.51 -0.98,-0.26 -2.03,-0.4 -3.14,-0.4 -3.34,0 -6.2,1.17 -8.59,3.52 -2.39,2.35 -3.58,5.27 -3.58,8.77l0 1.19 0.12 0.92 -2.51 0.08c0.58,-2.33 2.05,-4.05 4.41,-5.15 2.36,-1.1 5.73,-1.65 10.1,-1.65 3.08,0 5.67,0.29 7.79,0.87 2.12,0.58 3.86,1.47 5.21,2.66 0.95,0.87 1.69,1.9 2.21,3.08 0.52,1.18 0.78,2.52 0.78,4.04zm-5.65 0.12c0,-1.7 -0.76,-2.96 -2.27,-3.78 -1.8,-0.9 -4.49,-1.35 -8.07,-1.35 -1.96,0 -3.58,0.1 -4.85,0.3 -1.27,0.2 -2.36,0.54 -3.26,1.01 -1.41,0.74 -2.11,2.01 -2.11,3.82 0,0.48 0.25,1.01 0.74,1.59 0.49,0.58 1.17,1.21 2.05,1.87 2.36,1.72 4.89,2.58 7.6,2.58 2.76,0 5.24,-0.85 7.44,-2.54 0.93,-0.69 1.62,-1.31 2.07,-1.85 0.45,-0.54 0.68,-1.09 0.68,-1.65z"/>
   <polygon fill="#FEFEFE" fill-rule="nonzero" points="1202.96,745.66 1177.27,776.23 1172.9,772.61 1194.73,746.65 1172.78,746.65 1172.78,741 1202.96,741 "/>
   <path fill="#FEFEFE" fill-rule="nonzero" d="M1203.79 932.75c0,2.86 -1.59,5.55 -4.77,8.05 -3.18,2.51 -6.87,3.76 -11.05,3.76 -4.14,0 -7.89,-1.26 -11.25,-3.78 -1.62,-1.25 -2.82,-2.53 -3.6,-3.86 -0.78,-1.33 -1.17,-2.72 -1.17,-4.17 0,-1.25 0.17,-2.35 0.52,-3.3 0.21,-0.53 0.46,-1.04 0.74,-1.53 0.28,-0.49 0.62,-0.97 1.01,-1.45 1.59,-1.83 3.69,-2.89 6.28,-3.18l-0.04 2.54c-0.4,-0.03 -0.8,-0.1 -1.21,-0.22 -0.41,-0.12 -0.82,-0.28 -1.23,-0.48 -0.41,-0.2 -0.78,-0.41 -1.09,-0.64 -0.32,-0.22 -0.66,-0.52 -1.03,-0.89 -1.41,-1.4 -2.11,-3.07 -2.11,-5 0,-2.83 1.51,-5.22 4.53,-7.14 0.69,-0.42 1.42,-0.81 2.21,-1.15 0.78,-0.34 1.57,-0.63 2.37,-0.87 1.51,-0.45 3.18,-0.68 5.01,-0.68 3.76,0 7.05,0.92 9.86,2.76 2.81,1.84 4.21,4.2 4.21,7.08 0,1.78 -0.74,3.4 -2.23,4.88l-1.07 0.91c1.14,0.56 2.11,1.3 2.9,2.23 0.72,0.85 1.27,1.79 1.65,2.82 0.38,1.03 0.58,2.13 0.58,3.3zm-7.48 -14.02c0,-0.53 -0.23,-1.04 -0.7,-1.52 -0.46,-0.49 -1.13,-0.95 -2.01,-1.4 -1.8,-0.92 -3.7,-1.39 -5.69,-1.39 -0.95,0 -1.93,0.11 -2.92,0.34 -0.99,0.23 -1.94,0.56 -2.82,1.03 -0.89,0.46 -1.57,0.93 -2.05,1.4 -0.48,0.47 -0.72,1 -0.72,1.58 0,0.87 0.6,1.6 1.79,2.21 0.72,0.34 1.62,0.6 2.7,0.79 0.58,0.11 1.18,0.19 1.79,0.24 0.61,0.05 1.31,0.08 2.11,0.08 2.76,0 4.93,-0.37 6.52,-1.11 0.66,-0.32 1.16,-0.66 1.49,-1.01 0.33,-0.36 0.5,-0.78 0.5,-1.25zm1.83 14.1c0,-1.67 -0.77,-2.92 -2.31,-3.74 -1.78,-0.9 -4.45,-1.35 -8.03,-1.35 -1.96,0 -3.58,0.1 -4.85,0.3 -1.27,0.2 -2.36,0.54 -3.26,1.01 -1.4,0.74 -2.11,2.01 -2.11,3.82 0,0.53 0.24,1.09 0.72,1.67 0.48,0.58 1.17,1.22 2.07,1.91 2.28,1.64 4.81,2.46 7.6,2.46 2.73,0 5.22,-0.82 7.48,-2.46 0.9,-0.66 1.58,-1.29 2.03,-1.87 0.45,-0.58 0.68,-1.17 0.68,-1.75z"/>
   <path fill="#FEFEFE" fill-rule="nonzero" d="M1204.75 1302.4c0,5.02 -1.76,9.29 -5.29,12.82 -0.8,0.77 -1.7,1.5 -2.72,2.19 -1.02,0.7 -2.05,1.27 -3.08,1.72 -2.12,0.87 -4.39,1.31 -6.8,1.31 -2.84,0 -5.63,-0.69 -8.39,-2.07 -1.09,-0.56 -2.1,-1.24 -3.04,-2.03 -0.94,-0.8 -1.99,-1.9 -3.16,-3.31l4.53 -3.43c0.79,0.93 1.5,1.68 2.13,2.23 0.62,0.54 1.27,1.01 1.93,1.38 0.5,0.26 0.97,0.49 1.39,0.66 0.42,0.17 0.94,0.35 1.55,0.54 1.11,0.27 2.15,0.4 3.1,0.4 3.37,0 6.24,-1.19 8.63,-3.59 2.39,-2.39 3.58,-5.32 3.58,-8.77l0 -1.16 -0.2 -1.07 2.55 0.04c-0.58,2.33 -2.07,4.06 -4.47,5.17 -2.4,1.11 -5.75,1.67 -10.04,1.67 -3,0 -5.57,-0.3 -7.73,-0.89 -2.16,-0.6 -3.92,-1.49 -5.27,-2.68 -0.98,-0.9 -1.72,-1.92 -2.21,-3.06 -0.49,-1.14 -0.74,-2.49 -0.74,-4.06 0,-1.51 0.38,-2.92 1.15,-4.21 0.4,-0.64 0.87,-1.26 1.43,-1.87 0.56,-0.61 1.23,-1.22 2.03,-1.83 3.13,-2.57 6.85,-3.86 11.17,-3.86 5.06,0 9.37,1.83 12.92,5.49 3.37,3.53 5.05,7.63 5.05,12.3zm-7.56 -6.14c0,-0.48 -0.25,-1.01 -0.76,-1.59 -0.5,-0.58 -1.19,-1.21 -2.07,-1.87 -2.28,-1.7 -4.81,-2.54 -7.6,-2.54 -2.81,0 -5.3,0.83 -7.48,2.51 -0.9,0.69 -1.57,1.3 -2.01,1.83 -0.44,0.53 -0.66,1.09 -0.66,1.67 0,1.78 0.83,3.08 2.49,3.92 1.66,0.83 4.26,1.25 7.81,1.25 3.6,0 6.3,-0.45 8.07,-1.35 1.46,-0.72 2.19,-1.99 2.19,-3.82z"/>
   <path fill="#FEFEFE" fill-rule="nonzero" d="M1171.42 1487.66l-5.65 0 0 -24.65 -6.04 7.16 -4.14 -3.97 10.82 -12.73 5.01 0 0 34.2zm48.71 -17.14c0,4.96 -1.75,9.19 -5.25,12.68 -3.5,3.5 -7.73,5.25 -12.68,5.25 -4.96,0 -9.18,-1.74 -12.66,-5.23 -3.49,-3.49 -5.23,-7.72 -5.23,-12.7 0,-4.96 1.74,-9.17 5.21,-12.64 3.47,-3.47 7.7,-5.21 12.68,-5.21 4.9,0 9.12,1.72 12.65,5.17 3.53,3.45 5.29,7.67 5.29,12.68zm-5.65 0c0,-3.37 -1.2,-6.24 -3.6,-8.63 -2.4,-2.39 -5.31,-3.58 -8.73,-3.58 -3.39,0 -6.28,1.19 -8.65,3.56 -2.37,2.37 -3.56,5.26 -3.56,8.65 0,3.34 1.19,6.22 3.58,8.65 2.39,2.43 5.26,3.64 8.63,3.64 1.64,0 3.19,-0.3 4.63,-0.89 1.44,-0.6 2.79,-1.5 4.04,-2.72 2.44,-2.44 3.66,-5.33 3.66,-8.67z"/>
  </g>
 </g>
</svg>
