<svg width="335" height="89" viewBox="0 0 335 89" fill="none" xmlns="http://www.w3.org/2000/svg">
<path fill-rule="evenodd" clip-rule="evenodd" d="M117.69 12.2226L105.807 39.1314H112.622L115.514 32.0279H126.368L128.865 39.1314H135.906L126.139 12.2226H117.69H117.69ZM121.598 16.4909H121.733C122.189 18.1365 122.779 20.3046 123.323 21.9858L125.413 28.1089L116.959 27.9532L121.598 16.4909ZM140.45 39.1317H147.127V28.2152H149.398C152.58 28.2152 153.988 29.2989 154.895 32.7627C155.714 36.0168 156.577 38.3628 157.076 39.1314H163.98C163.299 38.1176 162.393 34.8991 161.392 31.7123C160.574 28.9834 159.212 27.1641 156.759 26.4296V26.3233C160.03 25.3429 162.755 22.9291 162.755 19.6387C162.755 12.4315 153.852 12.0104 149.444 12.0104C146.038 12.0104 142.766 12.2552 140.45 12.5711V39.131L140.45 39.1317ZM147.127 16.1753C147.673 16.036 148.717 15.966 150.217 15.966C152.669 15.966 156.032 16.6309 156.032 20.0946C156.032 22.6506 153.715 24.3659 149.898 24.3659H147.127V16.1753H147.127ZM191.875 12.2226L187.92 22.3351C186.74 25.5555 185.694 28.81 184.879 31.819H184.742C183.97 28.7404 182.969 25.5896 181.834 22.3351L178.063 12.2226H169.75L167.389 39.1314H173.522L174.203 28.7734C174.429 25.4492 174.656 21.4599 174.747 18.0665H174.884C175.702 21.3543 176.791 24.994 177.926 28.0389L181.789 38.748H186.877L191.147 27.8626C192.328 24.8536 193.599 21.2843 194.6 18.0661H194.736C194.691 20.795 194.917 25.1336 195.099 28.6697L195.734 39.131H202.14L200.142 12.2223H191.875V12.2226ZM214.769 34.7935V27.3044H226.172V23.0699H214.769V16.5609H226.853V12.2226H208.046V39.1314H227.58V34.7931H214.769V34.7935ZM252.111 12.2226V20.3046C252.111 24.6792 252.293 28.4945 252.7 31.9242H252.61C251.201 29.1234 249.248 25.8352 247.387 23.1395L240.026 12.2226H232.757V39.1314H238.845V30.8742C238.845 26.0803 238.709 22.301 238.435 18.9746H238.618C240.071 21.9158 242.115 25.2396 243.979 28.0048L251.474 39.1314H258.196V12.2226H252.11H252.111ZM271.78 39.1314V12.2226H265.058V39.1314H271.78ZM285.954 12.2226L276.051 39.1314H282.864L285.273 32.0279H294.632L297.129 39.1314H304.171L294.404 12.2226H285.954H285.954ZM288.315 21.9495C288.816 20.3746 289.406 18.1698 289.86 16.4909H289.996C290.45 18.1365 291.043 20.3046 291.587 21.9858L293.677 28.1089H286.225L288.315 21.9495ZM328.065 12.2226V20.3046C328.065 24.6792 328.248 28.4945 328.655 31.9242H328.564C327.156 29.1234 325.203 25.8352 323.341 23.1395L315.981 12.2226H308.712V39.1314H314.8V30.8742C314.8 26.0803 314.664 22.301 314.39 18.9746H314.572C316.026 21.9158 318.07 25.2396 319.934 28.0048L327.429 39.1314H334.151V12.2226H328.065H328.065Z" fill="#FEFEFE"/>
<path fill-rule="evenodd" clip-rule="evenodd" d="M101.851 49.1812L90.0588 76.3614H96.3011L99.2899 69.1866H109.801L112.09 76.3614H118.541L109.594 49.1812H101.851H101.851ZM105.432 53.4928H105.557C105.972 55.1547 106.513 57.3443 107.012 59.0425L108.927 65.2281H100.87L105.432 53.4928ZM139.438 49.1812V65.5919C139.438 70.4287 137.398 72.4396 134.067 72.4396C130.903 72.4396 128.782 70.3584 128.782 65.5919V49.1812H122.622V65.1343C122.622 73.1107 126.7 76.7505 133.901 76.7505C141.142 76.7505 145.598 73.04 145.598 65.0977V49.1808H139.438V49.1812ZM149.176 49.1812V53.7042H157.043V76.3618H163.203V53.7042H171.113V49.1812H149.176ZM186.804 48.7554C178.438 48.7554 173.152 54.7289 173.152 62.8603C173.152 70.7418 177.938 76.7513 186.388 76.7513C194.338 76.7513 199.999 71.9098 199.999 62.435C199.999 55.1887 195.669 48.7554 186.803 48.7554H186.804ZM186.638 53.0331C191.341 53.0331 193.546 57.6631 193.546 62.6486C193.546 68.1256 191.175 72.4736 186.595 72.4736C182.058 72.4736 179.603 68.092 179.603 62.7537C179.603 57.7705 181.808 53.0331 186.638 53.0331ZM212.277 75.1964C213.776 75.9727 216.98 76.7172 220.144 76.7172C227.594 76.7172 231.797 73.2521 231.797 68.5147C231.797 64.9453 229.508 62.435 224.39 60.4907C220.478 58.9718 218.894 58.0866 218.894 56.1427C218.894 54.6238 220.353 53.1397 223.597 53.1397C226.22 53.1397 228.178 53.8116 229.302 54.305L230.591 50.0281C229.093 49.3929 226.762 48.7921 223.722 48.7921C216.814 48.7921 212.693 52.2201 212.693 56.6732C212.693 60.2082 215.69 62.7537 220.518 64.5222C224.056 65.8289 225.596 66.9943 225.596 68.9408C225.596 70.9555 223.806 72.3326 220.393 72.3326C217.814 72.3326 215.15 71.661 213.483 70.8118L212.277 75.1961V75.1964ZM253.567 49.1815V60.0335H242.66V49.1815H236.502V76.3618H242.66V64.6636H253.567V76.3618H259.727V49.1815H253.567ZM278.042 48.7558C269.674 48.7558 264.388 54.7293 264.388 62.8607C264.388 70.7422 269.174 76.7516 277.624 76.7516C285.574 76.7516 291.235 71.9102 291.235 62.4353C291.235 55.1891 286.907 48.7558 278.041 48.7558H278.042ZM277.874 53.0334C282.579 53.0334 284.784 57.6635 284.784 62.649C284.784 68.126 282.411 72.474 277.833 72.474C273.296 72.474 270.841 68.0924 270.841 62.7541C270.841 57.7709 273.046 53.0334 277.874 53.0334ZM321.828 60.8098C321.162 64.0631 320.538 67.1384 320.038 70.355H319.914C319.498 67.1724 318.873 64.1671 318.165 60.9868L315.46 49.1815H309.383L306.47 60.8461C305.637 64.2374 304.847 67.3841 304.388 70.4257H304.263C303.807 67.5252 303.182 64.1671 302.515 60.9164L300.06 49.1815H293.524L300.559 76.3618H307.052L310.174 64.8386C310.964 61.9774 311.547 59.2546 312.088 56.1786H312.172C312.588 59.2546 313.087 62.0111 313.796 64.8386L316.543 76.3618H323.076L330.651 49.1815H324.45L321.827 60.8094L321.828 60.8098Z" fill="#FEFEFE"/>
<path d="M55.7086 0H39.1533L0.820779 89H17.3761L55.7086 0Z" fill="#E1100C"/>
<path d="M81.0196 0H64.4644L26.1318 89H42.6871L81.0196 0Z" fill="#1F3487"/>
<path d="M106.096 0H89.5412L51.2087 89H67.7639L106.096 0Z" fill="#F4A000"/>
</svg>
