<?xml version="1.0" standalone="no"?>
<!DOCTYPE svg PUBLIC "-//W3C//DTD SVG 20010904//EN"
 "http://www.w3.org/TR/2001/REC-SVG-20010904/DTD/svg10.dtd">
<svg version="1.0" xmlns="http://www.w3.org/2000/svg"
 width="888.000000pt" height="888.000000pt" viewBox="0 0 888.000000 888.000000"
 preserveAspectRatio="xMidYMid meet">
<metadata>
Created by potrace 1.14, written by Peter Selinger 2001-2017
</metadata>
<g transform="translate(0.000000,888.000000) scale(0.100000,-0.100000)"
fill="#000000" stroke="none">
<path d="M2750 7180 c-13 -24 -342 -684 -433 -870 -34 -69 -66 -128 -70 -131
-5 -3 -8 -9 -7 -13 1 -6 -394 -813 -419 -856 -12 -19 -144 -283 -146 -290 -5
-20 -222 -446 -227 -448 -5 -2 -8 -8 -8 -14 0 -6 -103 -219 -230 -473 -126
-255 -230 -468 -230 -474 0 -6 -4 -11 -10 -11 -5 0 -10 -9 -10 -20 0 -11 -4
-20 -10 -20 -5 0 -10 -4 -10 -10 0 -11 -246 -510 -260 -527 -6 -7 -10 -15 -10
-18 0 -3 -72 -150 -160 -328 -88 -177 -160 -328 -160 -334 0 -6 -3 -13 -8 -15
-4 -1 -52 -93 -106 -203 -54 -110 -128 -257 -163 -327 l-63 -128 782 0 783 0
404 813 c222 446 429 864 460 927 31 63 59 117 64 118 4 2 7 8 7 13 0 6 178
368 395 805 217 438 395 800 395 805 0 5 5 9 10 9 6 0 10 9 10 20 0 11 5 20
10 20 6 0 10 6 10 13 0 16 42 100 55 109 6 4 6 8 1 8 -5 0 -1 9 10 21 10 12
17 22 15 23 -3 0 133 279 302 618 169 340 307 622 307 627 0 5 3 11 8 13 4 2
18 28 32 58 13 30 31 65 39 78 8 13 33 62 56 110 22 48 47 98 55 112 8 14 15
27 15 30 0 3 20 43 43 89 23 46 42 86 42 88 0 1 -351 3 -780 3 -773 0 -779 0
-790 -20z"/>
<path d="M4873 6872 c-89 -180 -219 -444 -290 -587 -70 -143 -131 -261 -135
-263 -5 -2 -8 -8 -8 -12 0 -9 -682 -1392 -700 -1420 -6 -8 -14 -24 -19 -35
-16 -35 -327 -661 -337 -676 -5 -8 -9 -16 -9 -19 0 -3 -94 -193 -208 -422
-114 -229 -207 -421 -207 -427 0 -5 -3 -11 -7 -13 -9 -4 -213 -414 -213 -428
0 -6 -4 -10 -10 -10 -5 0 -10 -5 -10 -11 0 -6 -72 -156 -160 -332 -88 -177
-160 -327 -160 -333 0 -7 -4 -14 -9 -16 -4 -2 -28 -43 -51 -93 -24 -49 -45
-93 -47 -98 -2 -4 348 -7 779 -7 l783 1 255 514 c140 283 257 520 259 527 2 7
10 20 18 30 8 9 16 22 17 30 1 7 115 238 252 513 137 275 249 502 249 505 0 3
7 16 15 30 36 63 164 326 162 333 -1 4 2 7 8 7 5 0 10 4 10 10 0 7 202 419
231 470 14 25 623 1255 624 1260 0 3 7 16 15 30 7 14 65 129 127 255 63 127
121 240 129 253 8 12 12 22 10 22 -4 0 42 93 82 165 6 11 70 142 143 290 73
149 134 273 136 278 2 4 -348 7 -779 7 l-783 -1 -162 -327z"/>
<path d="M7275 7118 c-22 -46 -47 -94 -56 -108 -9 -14 -17 -28 -18 -33 -1 -16
-305 -622 -315 -629 -6 -4 -8 -8 -4 -8 4 0 -108 -231 -248 -512 -141 -282
-274 -551 -297 -598 -23 -47 -50 -98 -62 -115 -11 -16 -18 -30 -16 -30 3 0
-37 -83 -87 -185 -51 -102 -92 -190 -92 -197 0 -6 -4 -13 -8 -15 -10 -4 -297
-580 -294 -590 1 -5 -2 -8 -8 -8 -5 0 -10 -4 -10 -10 0 -14 -224 -464 -232
-468 -5 -2 -8 -8 -8 -13 0 -4 -126 -263 -280 -574 -154 -310 -280 -569 -280
-575 0 -5 -3 -10 -7 -10 -9 0 -33 -48 -33 -66 0 -7 -3 -14 -7 -16 -5 -1 -64
-118 -133 -258 -69 -140 -129 -258 -133 -261 -5 -3 -8 -9 -7 -13 3 -10 -43
-99 -55 -108 -6 -5 -6 -8 -1 -8 6 0 5 -5 -2 -12 -7 -7 -12 -16 -12 -20 0 -4
352 -7 782 -6 l782 3 47 95 c305 609 919 1851 919 1859 0 5 3 11 8 13 9 4 72
130 72 146 0 7 5 12 10 12 6 0 10 9 10 20 0 11 5 20 10 20 6 0 10 5 10 12 0
15 83 182 93 186 4 2 7 8 7 14 0 6 152 315 337 687 185 372 338 678 338 681 3
9 56 114 65 130 6 8 45 87 87 175 43 88 81 162 85 163 5 2 8 8 8 14 0 6 99
210 220 454 122 244 220 447 219 450 0 4 3 10 8 13 7 5 57 103 159 314 l33 67
-782 0 -783 0 -39 -82z"/>
</g>
</svg>
