<svg xmlns="http://www.w3.org/2000/svg" xml:space="preserve" width="248.315mm" height="90.3067mm" version="1.1" style="shape-rendering:geometricPrecision; text-rendering:geometricPrecision; image-rendering:optimizeQuality; fill-rule:evenodd; clip-rule:evenodd"
viewBox="0 0 13633.9 4958.35">
 <g id="Layer_x0020_1">
  <metadata id="CorelCorpID_0Corel-Layer"/>
  <rect fill="none" stroke="#DFDFE0" stroke-width="116.22" stroke-miterlimit="22.9256" x="58.11" y="58.11" width="13517.68" height="4842.13"/>
  <g id="_2513559220064">
   <rect fill="red" x="9034.55" y="3682.23" width="898.85" height="900.32"/>
   <rect fill="red" x="7961.09" y="3682.23" width="898.85" height="900.32"/>
   <rect fill="red" x="6887.64" y="3682.23" width="898.85" height="900.32"/>
   <rect fill="red" x="5814.19" y="3682.23" width="898.85" height="900.32"/>
   <rect fill="red" x="4740.73" y="3682.23" width="898.85" height="900.32"/>
   <rect fill="red" x="3667.28" y="3682.23" width="898.85" height="900.32"/>
   <rect fill="red" x="2593.83" y="3682.23" width="898.85" height="900.32"/>
   <rect fill="red" x="1520.38" y="3682.23" width="898.85" height="900.32"/>
   <rect fill="red" x="446.92" y="3682.23" width="898.85" height="900.32"/>
   <rect fill="red" x="11287.85" y="3682.23" width="1963" height="900.32"/>
   <rect fill="red" x="11996.94" y="1524.44" width="719.08" height="553.86"/>
   <rect fill="red" x="11114.51" y="1524.44" width="719.08" height="553.86"/>
   <rect fill="red" x="10210.22" y="1524.44" width="719.08" height="553.86"/>
   <rect fill="red" x="9305.93" y="1524.44" width="719.08" height="553.86"/>
   <rect fill="red" x="8401.65" y="1524.44" width="719.08" height="553.86"/>
   <rect fill="red" x="7497.36" y="1524.44" width="719.08" height="553.86"/>
   <rect fill="red" x="6593.08" y="1524.44" width="719.08" height="553.86"/>
   <rect fill="red" x="5688.79" y="1524.44" width="719.08" height="553.86"/>
   <rect fill="red" x="4784.5" y="1524.44" width="719.08" height="553.86"/>
   <rect fill="red" x="2484.35" y="1524.44" width="719.08" height="553.86"/>
   <rect fill="red" x="1575.14" y="1524.44" width="719.08" height="553.86"/>
   <rect fill="red" x="665.94" y="1524.44" width="719.08" height="553.86"/>
  </g>
  <path fill="white" fill-rule="nonzero" d="M9244.31 3866.81c0,7.5 -1.42,14.07 -4.26,19.77 -2.83,5.67 -6.67,10.33 -11.44,14.07 -5.7,4.43 -11.93,7.6 -18.7,9.5 -6.81,1.9 -15.44,2.83 -25.88,2.83l-60.41 0 0 -150.75 53.32 0c11.1,0 19.49,0.41 25.2,1.28 5.74,0.83 11.1,2.59 16.1,5.29 5.39,2.9 9.44,6.81 12.1,11.65 2.66,4.88 4.01,10.47 4.01,16.83 0,7.33 -1.83,13.9 -5.53,19.63 -3.67,5.74 -8.78,9.95 -15.24,12.65l0 0.83c9.3,1.97 16.72,5.94 22.32,11.99 5.6,6.05 8.4,14.2 8.4,24.43zm-48.53 -62c0,-2.42 -0.62,-4.94 -1.87,-7.5 -1.25,-2.56 -3.18,-4.43 -5.84,-5.57 -2.49,-1.1 -5.42,-1.69 -8.85,-1.8 -3.42,-0.1 -8.5,-0.14 -15.24,-0.14l-2.63 0 0 31.93 4.77 0c6.46,0 10.99,-0.07 13.62,-0.21 2.59,-0.14 5.25,-0.83 8.05,-2.14 3,-1.42 5.11,-3.35 6.25,-5.87 1.14,-2.49 1.73,-5.39 1.73,-8.71zm9.54 61.38c0,-4.67 -0.93,-8.3 -2.83,-10.92 -1.9,-2.66 -4.73,-4.63 -8.5,-5.98 -2.32,-0.9 -5.46,-1.38 -9.47,-1.49 -4.05,-0.1 -9.4,-0.14 -16.18,-0.14l-6.98 0 0 37.74 2.04 0c9.85,0 16.66,-0.07 20.46,-0.21 3.77,-0.14 7.6,-1.04 11.55,-2.73 3.42,-1.49 5.94,-3.66 7.53,-6.53 1.59,-2.87 2.38,-6.12 2.38,-9.75z"/>
  <path id="_1" fill="white" fill-rule="nonzero" d="M9376.4 3912.99l-110.73 0 0 -24.58c9.37,-7.43 17.76,-14.45 25.2,-21.05 7.43,-6.64 14,-12.92 19.63,-18.84 7.36,-7.77 12.65,-14.58 15.97,-20.46 3.28,-5.87 4.94,-11.93 4.94,-18.15 0,-7.02 -2.07,-12.4 -6.25,-16.14 -4.15,-3.77 -9.99,-5.63 -17.42,-5.63 -3.83,0 -7.46,0.44 -10.85,1.38 -3.39,0.93 -6.84,2.15 -10.33,3.6 -3.42,1.55 -6.36,3.11 -8.78,4.7 -2.42,1.59 -4.22,2.8 -5.42,3.6l-2.94 0 0 -32.9c4.25,-2 10.88,-4.07 19.9,-6.22 9.02,-2.11 17.73,-3.18 26.1,-3.18 17.83,0 31.38,3.98 40.58,11.96 9.19,7.98 13.79,19.22 13.79,33.7 0,8.92 -2.07,17.66 -6.25,26.2 -4.18,8.57 -11.13,17.73 -20.84,27.55 -6.08,6.01 -11.99,11.37 -17.73,16.07 -5.74,4.7 -9.88,8.02 -12.44,9.99l63.9 0 0 28.41z"/>
  <path id="_2" fill="white" fill-rule="nonzero" d="M9501.79 3912.99l-99.53 0 0 -26.34 31.72 0 0 -79.62 -31.72 0 0 -24.68c4.67,0 9.26,-0.31 13.86,-0.9 4.56,-0.62 8.22,-1.59 10.99,-2.94 3.24,-1.62 5.74,-3.8 7.53,-6.53 1.8,-2.73 2.8,-6.12 3.07,-10.16l32.97 0 0 124.83 31.1 0 0 26.34z"/>
  <path fill="white" fill-rule="nonzero" d="M8166.43 3868.61c0,7.5 -1.42,14.07 -4.26,19.77 -2.83,5.67 -6.67,10.33 -11.44,14.07 -5.7,4.43 -11.93,7.6 -18.7,9.5 -6.81,1.9 -15.44,2.83 -25.88,2.83l-60.41 0 0 -150.75 53.32 0c11.1,0 19.49,0.41 25.2,1.28 5.74,0.83 11.1,2.59 16.1,5.29 5.39,2.9 9.44,6.81 12.1,11.65 2.66,4.88 4.01,10.47 4.01,16.83 0,7.33 -1.83,13.9 -5.53,19.63 -3.67,5.74 -8.78,9.95 -15.24,12.65l0 0.83c9.3,1.97 16.72,5.94 22.32,11.99 5.6,6.05 8.4,14.2 8.4,24.43zm-48.53 -62c0,-2.42 -0.62,-4.94 -1.87,-7.5 -1.25,-2.56 -3.18,-4.43 -5.84,-5.57 -2.49,-1.1 -5.42,-1.69 -8.85,-1.8 -3.42,-0.1 -8.5,-0.14 -15.24,-0.14l-2.63 0 0 31.93 4.77 0c6.46,0 10.99,-0.07 13.62,-0.21 2.59,-0.14 5.25,-0.83 8.05,-2.14 3,-1.42 5.11,-3.35 6.25,-5.87 1.14,-2.49 1.73,-5.39 1.73,-8.71zm9.54 61.38c0,-4.67 -0.93,-8.3 -2.83,-10.92 -1.9,-2.66 -4.73,-4.63 -8.5,-5.98 -2.32,-0.9 -5.46,-1.38 -9.47,-1.49 -4.05,-0.1 -9.4,-0.14 -16.18,-0.14l-6.98 0 0 37.74 2.04 0c9.85,0 16.66,-0.07 20.46,-0.21 3.77,-0.14 7.6,-1.04 11.55,-2.73 3.42,-1.49 5.94,-3.66 7.53,-6.53 1.59,-2.87 2.38,-6.12 2.38,-9.75z"/>
  <path id="_1_0" fill="white" fill-rule="nonzero" d="M8298.53 3914.79l-110.73 0 0 -24.58c9.37,-7.43 17.76,-14.45 25.2,-21.05 7.43,-6.64 14,-12.92 19.63,-18.84 7.36,-7.77 12.65,-14.58 15.97,-20.46 3.28,-5.87 4.94,-11.93 4.94,-18.15 0,-7.02 -2.07,-12.4 -6.25,-16.14 -4.15,-3.77 -9.99,-5.63 -17.42,-5.63 -3.83,0 -7.46,0.44 -10.85,1.38 -3.39,0.93 -6.84,2.15 -10.33,3.6 -3.42,1.55 -6.36,3.11 -8.78,4.7 -2.42,1.59 -4.22,2.8 -5.42,3.6l-2.94 0 0 -32.9c4.25,-2 10.88,-4.07 19.9,-6.22 9.02,-2.11 17.73,-3.18 26.1,-3.18 17.83,0 31.38,3.98 40.58,11.96 9.19,7.98 13.79,19.22 13.79,33.7 0,8.92 -2.07,17.66 -6.25,26.2 -4.18,8.57 -11.13,17.73 -20.84,27.55 -6.08,6.01 -11.99,11.37 -17.73,16.07 -5.74,4.7 -9.88,8.02 -12.44,9.99l63.9 0 0 28.41z"/>
  <path id="_2_1" fill="white" fill-rule="nonzero" d="M8428.69 3839.3c0,13.03 -1.04,24.44 -3.15,34.25 -2.07,9.78 -5.42,17.94 -10.02,24.5 -4.6,6.53 -10.57,11.48 -17.94,14.83 -7.36,3.35 -16.38,5.01 -27.06,5.01 -10.61,0 -19.6,-1.66 -26.96,-5.01 -7.36,-3.35 -13.38,-8.37 -18.04,-15.03 -4.6,-6.64 -7.94,-14.8 -10.02,-24.47 -2.11,-9.68 -3.15,-21.01 -3.15,-33.98 0,-13.38 1.04,-24.78 3.07,-34.21 2.08,-9.47 5.5,-17.59 10.3,-24.44 4.74,-6.67 10.82,-11.65 18.25,-14.93 7.43,-3.28 16.28,-4.91 26.54,-4.91 10.89,0 19.94,1.7 27.2,5.12 7.26,3.42 13.24,8.5 17.9,15.24 4.6,6.6 7.91,14.79 9.99,24.5 2.04,9.71 3.07,20.91 3.07,33.52zm-37.95 0c0,-18.66 -1.55,-31.76 -4.63,-39.3 -3.07,-7.53 -8.26,-11.3 -15.59,-11.3 -7.26,0 -12.44,3.77 -15.55,11.3 -3.11,7.54 -4.67,20.7 -4.67,39.5 0,18.39 1.55,31.42 4.67,39.09 3.11,7.68 8.29,11.51 15.55,11.51 7.26,0 12.44,-3.84 15.55,-11.51 3.11,-7.67 4.66,-20.77 4.66,-39.3z"/>
  <path fill="white" fill-rule="nonzero" d="M7095.47 3866.53c0,7.5 -1.42,14.07 -4.26,19.77 -2.83,5.67 -6.67,10.33 -11.44,14.07 -5.7,4.43 -11.93,7.6 -18.7,9.5 -6.81,1.9 -15.44,2.83 -25.88,2.83l-60.41 0 0 -150.75 53.32 0c11.1,0 19.49,0.41 25.2,1.28 5.74,0.83 11.1,2.59 16.1,5.29 5.39,2.9 9.44,6.81 12.1,11.65 2.66,4.88 4.01,10.47 4.01,16.83 0,7.33 -1.83,13.9 -5.53,19.63 -3.67,5.74 -8.78,9.95 -15.24,12.65l0 0.83c9.3,1.97 16.72,5.94 22.32,11.99 5.6,6.05 8.4,14.2 8.4,24.43zm-48.53 -62c0,-2.42 -0.62,-4.94 -1.87,-7.5 -1.25,-2.56 -3.18,-4.43 -5.84,-5.57 -2.49,-1.1 -5.42,-1.69 -8.85,-1.8 -3.42,-0.1 -8.5,-0.14 -15.24,-0.14l-2.63 0 0 31.93 4.77 0c6.46,0 10.99,-0.07 13.62,-0.21 2.59,-0.14 5.25,-0.83 8.05,-2.14 3,-1.42 5.11,-3.35 6.25,-5.87 1.14,-2.49 1.73,-5.39 1.73,-8.71zm9.54 61.38c0,-4.67 -0.93,-8.3 -2.83,-10.92 -1.9,-2.66 -4.73,-4.63 -8.5,-5.98 -2.32,-0.9 -5.46,-1.38 -9.47,-1.49 -4.05,-0.1 -9.4,-0.14 -16.18,-0.14l-6.98 0 0 37.74 2.04 0c9.85,0 16.66,-0.07 20.46,-0.21 3.77,-0.14 7.6,-1.04 11.55,-2.73 3.42,-1.49 5.94,-3.66 7.53,-6.53 1.59,-2.87 2.38,-6.12 2.38,-9.75z"/>
  <path id="_1_2" fill="white" fill-rule="nonzero" d="M7220.93 3912.71l-99.53 0 0 -26.34 31.72 0 0 -79.62 -31.72 0 0 -24.68c4.67,0 9.26,-0.31 13.86,-0.9 4.56,-0.62 8.22,-1.59 10.99,-2.94 3.24,-1.62 5.74,-3.8 7.53,-6.53 1.8,-2.73 2.8,-6.12 3.07,-10.16l32.97 0 0 124.83 31.1 0 0 26.34z"/>
  <path id="_2_3" fill="white" fill-rule="nonzero" d="M7355.65 3828.83c0,12.82 -1.48,24.57 -4.46,35.22 -2.97,10.68 -7.6,19.84 -13.86,27.47 -6.5,7.74 -14.55,13.72 -24.16,17.87 -9.61,4.15 -21.39,6.22 -35.39,6.22 -4.7,0 -9.64,-0.31 -14.75,-0.9 -5.15,-0.62 -8.54,-1.17 -10.23,-1.63l0 -29.62 2.94 0c1.87,0.93 4.56,1.93 8.02,2.97 3.49,1.07 8.3,1.59 14.41,1.59 4.94,0 9.67,-0.66 14.27,-1.97 4.6,-1.31 8.54,-3.39 11.82,-6.22 3.46,-2.94 6.33,-6.64 8.61,-11.1 2.28,-4.46 3.83,-9.99 4.63,-16.66 -5.39,3.39 -10.4,5.95 -15.03,7.74 -4.6,1.8 -10.37,2.7 -17.25,2.7 -5.18,0 -10.2,-0.69 -14.93,-2.08 -4.77,-1.38 -9.09,-3.52 -13.03,-6.42 -5.18,-4.08 -9.3,-9.3 -12.34,-15.66 -3.04,-6.39 -4.56,-14.65 -4.56,-24.78 0,-7.85 1.35,-15.1 4.01,-21.74 2.66,-6.67 6.46,-12.48 11.4,-17.39 4.84,-4.87 10.82,-8.71 17.9,-11.47 7.12,-2.77 15,-4.15 23.71,-4.15 8.77,0 16.59,1.25 23.43,3.7 6.81,2.45 12.65,6.22 17.53,11.3 5.67,5.74 9.99,13.13 12.92,22.15 2.94,9.05 4.39,20.01 4.39,32.83zm-37.53 -5.6c0,-8.15 -0.69,-14.9 -2.07,-20.18 -1.38,-5.32 -3.32,-9.43 -5.81,-12.41 -1.76,-2.17 -3.73,-3.73 -5.91,-4.67 -2.18,-0.93 -4.56,-1.42 -7.12,-1.42 -2.25,0 -4.39,0.45 -6.53,1.38 -2.11,0.9 -4.15,2.45 -6.12,4.7 -1.73,1.94 -3.21,4.8 -4.42,8.61 -1.21,3.77 -1.83,7.91 -1.83,12.44 0,4.87 0.62,8.85 1.87,11.99 1.24,3.15 2.94,5.67 5.11,7.53 2.15,1.83 4.6,3.11 7.36,3.87 2.77,0.72 5.84,1.11 9.2,1.11 2.83,0 5.73,-0.38 8.74,-1.17 3.01,-0.76 5.42,-1.56 7.23,-2.39 0,-0.72 0.07,-1.8 0.17,-3.18 0.1,-1.38 0.14,-3.45 0.14,-6.22z"/>
  <path fill="white" fill-rule="nonzero" d="M6018.43 3866.26c0,7.5 -1.42,14.07 -4.26,19.77 -2.83,5.67 -6.67,10.33 -11.44,14.07 -5.7,4.43 -11.93,7.6 -18.7,9.5 -6.81,1.9 -15.44,2.83 -25.88,2.83l-60.41 0 0 -150.75 53.32 0c11.1,0 19.49,0.41 25.2,1.28 5.74,0.83 11.1,2.59 16.1,5.29 5.39,2.9 9.44,6.81 12.1,11.65 2.66,4.88 4.01,10.47 4.01,16.83 0,7.33 -1.83,13.9 -5.53,19.63 -3.67,5.74 -8.78,9.95 -15.24,12.65l0 0.83c9.3,1.97 16.72,5.94 22.32,11.99 5.6,6.05 8.4,14.2 8.4,24.43zm-48.53 -62c0,-2.42 -0.62,-4.94 -1.87,-7.5 -1.25,-2.56 -3.18,-4.43 -5.84,-5.57 -2.49,-1.1 -5.42,-1.69 -8.85,-1.8 -3.42,-0.1 -8.5,-0.14 -15.24,-0.14l-2.63 0 0 31.93 4.77 0c6.46,0 10.99,-0.07 13.62,-0.21 2.59,-0.14 5.25,-0.83 8.05,-2.14 3,-1.42 5.11,-3.35 6.25,-5.87 1.14,-2.49 1.73,-5.39 1.73,-8.71zm9.54 61.38c0,-4.67 -0.93,-8.3 -2.83,-10.92 -1.9,-2.66 -4.73,-4.63 -8.5,-5.98 -2.32,-0.9 -5.46,-1.38 -9.47,-1.49 -4.05,-0.1 -9.4,-0.14 -16.18,-0.14l-6.98 0 0 37.74 2.04 0c9.85,0 16.66,-0.07 20.46,-0.21 3.77,-0.14 7.6,-1.04 11.55,-2.73 3.42,-1.49 5.94,-3.66 7.53,-6.53 1.59,-2.87 2.38,-6.12 2.38,-9.75z"/>
  <path id="_1_4" fill="white" fill-rule="nonzero" d="M6143.88 3912.44l-99.53 0 0 -26.34 31.72 0 0 -79.62 -31.72 0 0 -24.68c4.67,0 9.26,-0.31 13.86,-0.9 4.56,-0.62 8.22,-1.59 10.99,-2.94 3.24,-1.62 5.74,-3.8 7.53,-6.53 1.8,-2.73 2.8,-6.12 3.07,-10.16l32.97 0 0 124.83 31.1 0 0 26.34z"/>
  <path id="_2_5" fill="white" fill-rule="nonzero" d="M6282.13 3870.44c0,6.5 -1.35,12.51 -4.01,18.11 -2.66,5.57 -6.57,10.37 -11.68,14.45 -5.12,4.04 -11.37,7.22 -18.77,9.5 -7.4,2.31 -15.87,3.45 -25.37,3.45 -10.12,0 -18.97,-1.17 -26.61,-3.49 -7.64,-2.35 -13.86,-5.5 -18.73,-9.47 -4.8,-4.01 -8.33,-8.71 -10.61,-14.11 -2.31,-5.39 -3.45,-11.13 -3.45,-17.14 0,-8.64 2.38,-15.83 7.12,-21.57 4.77,-5.74 11.68,-10.54 20.7,-14.41l0 -0.59c-8.78,-4.32 -14.93,-9.57 -18.42,-15.72 -3.49,-6.15 -5.25,-12.99 -5.25,-20.56 0,-5.53 1.21,-10.75 3.63,-15.62 2.42,-4.88 6.08,-9.23 10.92,-13.07 4.6,-3.66 10.4,-6.57 17.42,-8.77 7.05,-2.18 14.96,-3.28 23.71,-3.28 9.3,0 17.38,1 24.3,3 6.91,1.97 12.58,4.6 17.04,7.85 4.56,3.32 8.09,7.29 10.51,11.99 2.42,4.7 3.63,9.78 3.63,15.28 0,7.15 -2.08,13.62 -6.19,19.39 -4.15,5.77 -10.47,10.65 -19.01,14.55l0 0.62c9.95,4.05 17.32,9.37 22.05,15.97 4.73,6.57 7.08,14.45 7.08,23.64zm-40.64 -69.68c0,-5.15 -1.7,-9.23 -5.05,-12.3 -3.35,-3.07 -7.92,-4.6 -13.66,-4.6 -5.49,0 -9.95,1.38 -13.34,4.15 -3.39,2.77 -5.08,6.15 -5.08,10.2 0,4.05 1.04,7.29 3.08,9.78 2.04,2.45 5.22,4.73 9.5,6.81 1.87,0.97 4.11,1.93 6.67,2.94 2.59,1.03 6.05,2.35 10.33,3.97 2.59,-3.45 4.52,-6.77 5.74,-9.99 1.21,-3.18 1.8,-6.84 1.8,-10.95zm3.32 71.33c0,-4.94 -1.04,-8.74 -3.15,-11.37 -2.11,-2.62 -6.63,-5.63 -13.55,-8.92 -1.97,-0.97 -4.8,-2.14 -8.5,-3.56 -3.7,-1.42 -6.98,-2.73 -9.81,-3.94 -2.66,2.63 -5.01,5.87 -7.09,9.78 -2.07,3.87 -3.11,8.15 -3.11,12.82 0,7.02 2.25,12.65 6.7,16.83 4.49,4.18 10.4,6.29 17.73,6.29 1.97,0 4.22,-0.31 6.78,-0.97 2.56,-0.62 4.8,-1.63 6.78,-2.98 2.17,-1.55 3.9,-3.38 5.25,-5.49 1.32,-2.11 1.97,-4.95 1.97,-8.5z"/>
  <path fill="white" fill-rule="nonzero" d="M4946.63 3866.4c0,7.5 -1.42,14.07 -4.26,19.77 -2.83,5.67 -6.67,10.33 -11.44,14.07 -5.7,4.43 -11.93,7.6 -18.7,9.5 -6.81,1.9 -15.44,2.83 -25.88,2.83l-60.41 0 0 -150.75 53.32 0c11.1,0 19.49,0.41 25.2,1.28 5.74,0.83 11.1,2.59 16.1,5.29 5.39,2.9 9.44,6.81 12.1,11.65 2.66,4.88 4.01,10.47 4.01,16.83 0,7.33 -1.83,13.9 -5.53,19.63 -3.67,5.74 -8.78,9.95 -15.24,12.65l0 0.83c9.3,1.97 16.72,5.94 22.32,11.99 5.6,6.05 8.4,14.2 8.4,24.43zm-48.53 -62c0,-2.42 -0.62,-4.94 -1.87,-7.5 -1.25,-2.56 -3.18,-4.43 -5.84,-5.57 -2.49,-1.1 -5.42,-1.69 -8.85,-1.8 -3.42,-0.1 -8.5,-0.14 -15.24,-0.14l-2.63 0 0 31.93 4.77 0c6.46,0 10.99,-0.07 13.62,-0.21 2.59,-0.14 5.25,-0.83 8.05,-2.14 3,-1.42 5.11,-3.35 6.25,-5.87 1.14,-2.49 1.73,-5.39 1.73,-8.71zm9.54 61.38c0,-4.67 -0.93,-8.3 -2.83,-10.92 -1.9,-2.66 -4.73,-4.63 -8.5,-5.98 -2.32,-0.9 -5.46,-1.38 -9.47,-1.49 -4.05,-0.1 -9.4,-0.14 -16.18,-0.14l-6.98 0 0 37.74 2.04 0c9.85,0 16.66,-0.07 20.46,-0.21 3.77,-0.14 7.6,-1.04 11.55,-2.73 3.42,-1.49 5.94,-3.66 7.53,-6.53 1.59,-2.87 2.38,-6.12 2.38,-9.75z"/>
  <path id="_1_6" fill="white" fill-rule="nonzero" d="M5072.09 3912.57l-99.53 0 0 -26.34 31.72 0 0 -79.62 -31.72 0 0 -24.68c4.67,0 9.26,-0.31 13.86,-0.9 4.56,-0.62 8.22,-1.59 10.99,-2.94 3.24,-1.62 5.74,-3.8 7.53,-6.53 1.8,-2.73 2.8,-6.12 3.07,-10.16l32.97 0 0 124.83 31.1 0 0 26.34z"/>
  <polygon id="_2_7" fill="white" fill-rule="nonzero" points="5207.44,3791.75 5143.11,3912.57 5101.06,3912.57 5168.28,3790.23 5096.49,3790.23 5096.49,3761.82 5207.44,3761.82 "/>
  <path fill="white" fill-rule="nonzero" d="M3874.84 3866.53c0,7.5 -1.42,14.07 -4.26,19.77 -2.83,5.67 -6.67,10.33 -11.44,14.07 -5.7,4.43 -11.93,7.6 -18.7,9.5 -6.81,1.9 -15.44,2.83 -25.88,2.83l-60.41 0 0 -150.75 53.32 0c11.1,0 19.49,0.41 25.2,1.28 5.74,0.83 11.1,2.59 16.1,5.29 5.39,2.9 9.44,6.81 12.1,11.65 2.66,4.88 4.01,10.47 4.01,16.83 0,7.33 -1.83,13.9 -5.53,19.63 -3.67,5.74 -8.78,9.95 -15.24,12.65l0 0.83c9.3,1.97 16.72,5.94 22.32,11.99 5.6,6.05 8.4,14.2 8.4,24.43zm-48.53 -62c0,-2.42 -0.62,-4.94 -1.87,-7.5 -1.25,-2.56 -3.18,-4.43 -5.84,-5.57 -2.49,-1.1 -5.42,-1.69 -8.85,-1.8 -3.42,-0.1 -8.5,-0.14 -15.24,-0.14l-2.63 0 0 31.93 4.77 0c6.46,0 10.99,-0.07 13.62,-0.21 2.59,-0.14 5.25,-0.83 8.05,-2.14 3,-1.42 5.11,-3.35 6.25,-5.87 1.14,-2.49 1.73,-5.39 1.73,-8.71zm9.54 61.38c0,-4.67 -0.93,-8.3 -2.83,-10.92 -1.9,-2.66 -4.73,-4.63 -8.5,-5.98 -2.32,-0.9 -5.46,-1.38 -9.47,-1.49 -4.05,-0.1 -9.4,-0.14 -16.18,-0.14l-6.98 0 0 37.74 2.04 0c9.85,0 16.66,-0.07 20.46,-0.21 3.77,-0.14 7.6,-1.04 11.55,-2.73 3.42,-1.49 5.94,-3.66 7.53,-6.53 1.59,-2.87 2.38,-6.12 2.38,-9.75z"/>
  <path id="_1_8" fill="white" fill-rule="nonzero" d="M4000.29 3912.71l-99.53 0 0 -26.34 31.72 0 0 -79.62 -31.72 0 0 -24.68c4.67,0 9.26,-0.31 13.86,-0.9 4.56,-0.62 8.22,-1.59 10.99,-2.94 3.24,-1.62 5.74,-3.8 7.53,-6.53 1.8,-2.73 2.8,-6.12 3.07,-10.16l32.97 0 0 124.83 31.1 0 0 26.34z"/>
  <path id="_2_9" fill="white" fill-rule="nonzero" d="M4138.13 3861.29c0,15.9 -5.05,28.96 -15.1,39.19 -10.06,10.23 -23.88,15.35 -41.44,15.35 -8.78,0 -16.63,-1.28 -23.51,-3.8 -6.87,-2.52 -12.72,-6.25 -17.52,-11.2 -5.74,-5.81 -10.12,-13.31 -13.17,-22.47 -3.04,-9.19 -4.56,-20.15 -4.56,-32.94 0,-13.2 1.42,-24.95 4.25,-35.22 2.83,-10.26 7.47,-19.35 13.86,-27.27 6.15,-7.47 14.17,-13.34 24.09,-17.56 9.92,-4.22 21.67,-6.33 35.25,-6.33 4.91,0 9.85,0.31 14.83,0.97 4.94,0.62 8.33,1.14 10.16,1.55l0 29.62 -2.73 0c-1.76,-0.86 -4.67,-1.83 -8.71,-2.94 -4.05,-1.07 -8.68,-1.63 -13.86,-1.63 -11.82,0 -20.95,3.11 -27.34,9.3 -6.42,6.19 -10.37,15.07 -11.85,26.65 4.91,-3.18 9.95,-5.7 15.04,-7.6 5.11,-1.91 10.88,-2.83 17.31,-2.83 5.39,0 10.48,0.72 15.24,2.17 4.77,1.45 9.02,3.56 12.72,6.33 5.22,4.01 9.36,9.23 12.44,15.72 3.07,6.5 4.6,14.79 4.6,24.92zm-44.03 22.74c1.97,-2.42 3.46,-5.08 4.53,-7.94 1.04,-2.87 1.55,-7.19 1.55,-13 0,-4.88 -0.62,-8.88 -1.83,-12.06 -1.21,-3.18 -2.94,-5.7 -5.15,-7.57 -2.25,-1.9 -4.77,-3.21 -7.6,-3.9 -2.83,-0.72 -5.84,-1.07 -9.02,-1.07 -2.62,0 -5.36,0.35 -8.15,1 -2.8,0.69 -5.43,1.52 -7.85,2.55 0,0.66 -0.04,1.76 -0.1,3.32 -0.07,1.55 -0.1,3.52 -0.1,5.87 0,8.64 0.76,15.59 2.28,20.88 1.52,5.25 3.42,9.22 5.74,11.92 1.73,2.18 3.77,3.73 6.02,4.67 2.25,0.93 4.63,1.42 7.15,1.42 2,0 4.21,-0.52 6.56,-1.52 2.39,-1 4.36,-2.52 5.98,-4.56z"/>
  <path fill="white" fill-rule="nonzero" d="M2799.45 3866.53c0,7.5 -1.42,14.07 -4.26,19.77 -2.83,5.67 -6.67,10.33 -11.44,14.07 -5.7,4.43 -11.93,7.6 -18.7,9.5 -6.81,1.9 -15.44,2.83 -25.88,2.83l-60.41 0 0 -150.75 53.32 0c11.1,0 19.49,0.41 25.2,1.28 5.74,0.83 11.1,2.59 16.1,5.29 5.39,2.9 9.44,6.81 12.1,11.65 2.66,4.88 4.01,10.47 4.01,16.83 0,7.33 -1.83,13.9 -5.53,19.63 -3.67,5.74 -8.78,9.95 -15.24,12.65l0 0.83c9.3,1.97 16.72,5.94 22.32,11.99 5.6,6.05 8.4,14.2 8.4,24.43zm-48.53 -62c0,-2.42 -0.62,-4.94 -1.87,-7.5 -1.25,-2.56 -3.18,-4.43 -5.84,-5.57 -2.49,-1.1 -5.42,-1.69 -8.85,-1.8 -3.42,-0.1 -8.5,-0.14 -15.24,-0.14l-2.63 0 0 31.93 4.77 0c6.46,0 10.99,-0.07 13.62,-0.21 2.59,-0.14 5.25,-0.83 8.05,-2.14 3,-1.42 5.11,-3.35 6.25,-5.87 1.14,-2.49 1.73,-5.39 1.73,-8.71zm9.54 61.38c0,-4.67 -0.93,-8.3 -2.83,-10.92 -1.9,-2.66 -4.73,-4.63 -8.5,-5.98 -2.32,-0.9 -5.46,-1.38 -9.47,-1.49 -4.05,-0.1 -9.4,-0.14 -16.18,-0.14l-6.98 0 0 37.74 2.04 0c9.85,0 16.66,-0.07 20.46,-0.21 3.77,-0.14 7.6,-1.04 11.55,-2.73 3.42,-1.49 5.94,-3.66 7.53,-6.53 1.59,-2.87 2.38,-6.12 2.38,-9.75z"/>
  <path id="_1_10" fill="white" fill-rule="nonzero" d="M2924.9 3912.71l-99.53 0 0 -26.34 31.72 0 0 -79.62 -31.72 0 0 -24.68c4.67,0 9.26,-0.31 13.86,-0.9 4.56,-0.62 8.22,-1.59 10.99,-2.94 3.24,-1.62 5.74,-3.8 7.53,-6.53 1.8,-2.73 2.8,-6.12 3.07,-10.16l32.97 0 0 124.83 31.1 0 0 26.34z"/>
  <path id="_2_11" fill="white" fill-rule="nonzero" d="M3060.25 3861.7c0,7.81 -1.35,15.07 -4.01,21.74 -2.66,6.67 -6.67,12.44 -11.99,17.32 -5.29,4.77 -11.54,8.5 -18.8,11.13 -7.26,2.62 -16.18,3.94 -26.78,3.94 -11.23,-0.07 -20.88,-1.04 -28.93,-2.9 -8.09,-1.83 -14.76,-3.94 -20.01,-6.22l0 -32.97 3.46 0c1.9,1.1 4.01,2.35 6.39,3.73 2.35,1.38 5.46,2.84 9.33,4.36 3.59,1.45 7.22,2.62 10.92,3.56 3.7,0.93 7.77,1.42 12.34,1.42 3.9,0 8.16,-0.48 12.68,-1.49 4.53,-0.97 8.19,-2.76 10.96,-5.32 2.04,-2.04 3.63,-4.32 4.77,-6.84 1.14,-2.49 1.73,-5.84 1.73,-10.06 0,-3.52 -0.72,-6.57 -2.17,-9.13 -1.46,-2.52 -3.39,-4.6 -5.74,-6.15 -3.46,-2.32 -7.64,-3.77 -12.51,-4.43 -4.88,-0.66 -9.09,-0.97 -12.58,-0.97 -5.57,0 -10.99,0.44 -16.21,1.31 -5.25,0.86 -9.82,1.83 -13.69,2.83l-3.25 0 0 -84.6 99.95 0 0 28.41 -64.28 0 0 25.2c2.04,-0.14 4.46,-0.28 7.26,-0.38 2.8,-0.1 5.01,-0.14 6.57,-0.14 7.23,0 13.93,0.72 20.08,2.18 6.15,1.45 11.61,3.7 16.35,6.74 5.77,3.7 10.23,8.68 13.41,14.9 3.18,6.26 4.77,13.86 4.77,22.85z"/>
  <path fill="white" fill-rule="nonzero" d="M1728.34 3866.67c0,7.5 -1.42,14.07 -4.26,19.77 -2.83,5.67 -6.67,10.33 -11.44,14.07 -5.7,4.43 -11.93,7.6 -18.7,9.5 -6.81,1.9 -15.44,2.83 -25.88,2.83l-60.41 0 0 -150.75 53.32 0c11.1,0 19.49,0.41 25.2,1.28 5.74,0.83 11.1,2.59 16.1,5.29 5.39,2.9 9.44,6.81 12.1,11.65 2.66,4.88 4.01,10.47 4.01,16.83 0,7.33 -1.83,13.9 -5.53,19.63 -3.67,5.74 -8.78,9.95 -15.24,12.65l0 0.83c9.3,1.97 16.72,5.94 22.32,11.99 5.6,6.05 8.4,14.2 8.4,24.43zm-48.53 -62c0,-2.42 -0.62,-4.94 -1.87,-7.5 -1.25,-2.56 -3.18,-4.43 -5.84,-5.57 -2.49,-1.1 -5.42,-1.69 -8.85,-1.8 -3.42,-0.1 -8.5,-0.14 -15.24,-0.14l-2.63 0 0 31.93 4.77 0c6.46,0 10.99,-0.07 13.62,-0.21 2.59,-0.14 5.25,-0.83 8.05,-2.14 3,-1.42 5.11,-3.35 6.25,-5.87 1.14,-2.49 1.73,-5.39 1.73,-8.71zm9.54 61.38c0,-4.67 -0.93,-8.3 -2.83,-10.92 -1.9,-2.66 -4.73,-4.63 -8.5,-5.98 -2.32,-0.9 -5.46,-1.38 -9.47,-1.49 -4.05,-0.1 -9.4,-0.14 -16.18,-0.14l-6.98 0 0 37.74 2.04 0c9.85,0 16.66,-0.07 20.46,-0.21 3.77,-0.14 7.6,-1.04 11.55,-2.73 3.42,-1.49 5.94,-3.66 7.53,-6.53 1.59,-2.87 2.38,-6.12 2.38,-9.75z"/>
  <path id="_1_12" fill="white" fill-rule="nonzero" d="M1853.79 3912.85l-99.53 0 0 -26.34 31.72 0 0 -79.62 -31.72 0 0 -24.68c4.67,0 9.26,-0.31 13.86,-0.9 4.56,-0.62 8.22,-1.59 10.99,-2.94 3.24,-1.62 5.74,-3.8 7.53,-6.53 1.8,-2.73 2.8,-6.12 3.07,-10.16l32.97 0 0 124.83 31.1 0 0 26.34z"/>
  <path id="_2_13" fill="white" fill-rule="nonzero" d="M1994.11 3877.8l-20.32 0 0 35.46 -36.7 0 0 -35.46 -66.15 0 0 -28.17 64.94 -87.54 37.91 0 0 88.55 20.32 0 0 27.16zm-57.03 -27.16l0 -51.25 -38.02 51.25 38.02 0z"/>
  <path fill="white" fill-rule="nonzero" d="M651.94 3866.53c0,7.5 -1.42,14.07 -4.26,19.77 -2.83,5.67 -6.67,10.33 -11.44,14.07 -5.7,4.43 -11.93,7.6 -18.7,9.5 -6.81,1.9 -15.44,2.83 -25.88,2.83l-60.41 0 0 -150.75 53.32 0c11.1,0 19.49,0.41 25.2,1.28 5.74,0.83 11.1,2.59 16.1,5.29 5.39,2.9 9.44,6.81 12.1,11.65 2.66,4.88 4.01,10.47 4.01,16.83 0,7.33 -1.83,13.9 -5.53,19.63 -3.67,5.74 -8.78,9.95 -15.24,12.65l0 0.83c9.3,1.97 16.72,5.94 22.32,11.99 5.6,6.05 8.4,14.2 8.4,24.43zm-48.53 -62c0,-2.42 -0.62,-4.94 -1.87,-7.5 -1.25,-2.56 -3.18,-4.43 -5.84,-5.57 -2.49,-1.1 -5.42,-1.69 -8.85,-1.8 -3.42,-0.1 -8.5,-0.14 -15.24,-0.14l-2.63 0 0 31.93 4.77 0c6.46,0 10.99,-0.07 13.62,-0.21 2.59,-0.14 5.25,-0.83 8.05,-2.14 3,-1.42 5.11,-3.35 6.25,-5.87 1.14,-2.49 1.73,-5.39 1.73,-8.71zm9.54 61.38c0,-4.67 -0.93,-8.3 -2.83,-10.92 -1.9,-2.66 -4.73,-4.63 -8.5,-5.98 -2.32,-0.9 -5.46,-1.38 -9.47,-1.49 -4.05,-0.1 -9.4,-0.14 -16.18,-0.14l-6.98 0 0 37.74 2.04 0c9.85,0 16.66,-0.07 20.46,-0.21 3.77,-0.14 7.6,-1.04 11.55,-2.73 3.42,-1.49 5.94,-3.66 7.53,-6.53 1.59,-2.87 2.38,-6.12 2.38,-9.75z"/>
  <path id="_1_14" fill="white" fill-rule="nonzero" d="M777.39 3912.71l-99.53 0 0 -26.34 31.72 0 0 -79.62 -31.72 0 0 -24.68c4.67,0 9.26,-0.31 13.86,-0.9 4.56,-0.62 8.22,-1.59 10.99,-2.94 3.24,-1.62 5.74,-3.8 7.53,-6.53 1.8,-2.73 2.8,-6.12 3.07,-10.16l32.97 0 0 124.83 31.1 0 0 26.34z"/>
  <path id="_2_15" fill="white" fill-rule="nonzero" d="M912.32 3867.02c0,7.36 -1.38,14.07 -4.11,20.15 -2.73,6.08 -6.74,11.23 -11.99,15.48 -5.36,4.25 -11.61,7.5 -18.8,9.78 -7.19,2.25 -15.97,3.39 -26.31,3.39 -11.75,0 -21.84,-0.97 -30.24,-2.94 -8.43,-1.97 -15.24,-4.15 -20.53,-6.6l0 -32.76 3.63 0c5.57,3.59 12.1,6.7 19.56,9.33 7.5,2.63 14.31,3.94 20.46,3.94 3.66,0 7.64,-0.31 11.96,-0.97 4.28,-0.66 7.88,-2.08 10.82,-4.25 2.28,-1.7 4.15,-3.77 5.53,-6.26 1.38,-2.49 2.08,-6.01 2.08,-10.57 0,-4.49 -0.97,-7.95 -2.94,-10.37 -1.97,-2.42 -4.6,-4.15 -7.85,-5.25 -3.28,-1.14 -7.19,-1.8 -11.72,-1.94 -4.56,-0.14 -8.57,-0.2 -12.03,-0.2l-6.53 0 0 -26.34 5.97 0c4.6,0 8.82,-0.21 12.69,-0.62 3.83,-0.38 7.12,-1.21 9.85,-2.42 2.7,-1.28 4.8,-3.07 6.33,-5.39 1.52,-2.28 2.28,-5.39 2.28,-9.33 0,-3.04 -0.72,-5.53 -2.14,-7.43 -1.42,-1.93 -3.15,-3.45 -5.25,-4.52 -2.42,-1.21 -5.25,-2.04 -8.5,-2.42 -3.24,-0.42 -6.01,-0.62 -8.29,-0.62 -3.73,0 -7.5,0.44 -11.37,1.31 -3.84,0.9 -7.6,2 -11.23,3.39 -2.83,1.07 -5.8,2.49 -8.92,4.22 -3.11,1.76 -5.39,3.04 -6.88,3.94l-3.14 0 0 -32.35c5.22,-2.25 12.2,-4.39 21.05,-6.46 8.81,-2.04 17.8,-3.07 26.99,-3.07 8.99,0 16.76,0.76 23.36,2.32 6.61,1.55 12.2,3.84 16.87,6.81 5.15,3.15 8.99,7.19 11.58,12.06 2.56,4.91 3.84,10.4 3.84,16.55 0,8.57 -2.49,16.07 -7.47,22.5 -4.94,6.46 -11.48,10.61 -19.6,12.51l0 1.42c3.56,0.52 7.08,1.46 10.47,2.73 3.42,1.28 6.74,3.35 9.99,6.25 3.04,2.66 5.57,6.05 7.57,10.2 1.97,4.15 2.97,9.09 2.97,14.82z"/>
  <path fill="white" fill-rule="nonzero" d="M11555.91 3863.43c0,7.5 -1.42,14.07 -4.26,19.77 -2.83,5.67 -6.67,10.33 -11.44,14.07 -5.7,4.43 -11.93,7.6 -18.7,9.5 -6.81,1.9 -15.44,2.83 -25.88,2.83l-60.41 0 0 -150.75 53.32 0c11.1,0 19.49,0.41 25.2,1.28 5.74,0.83 11.1,2.59 16.1,5.29 5.39,2.9 9.44,6.81 12.1,11.65 2.66,4.88 4.01,10.47 4.01,16.83 0,7.33 -1.83,13.9 -5.53,19.63 -3.67,5.74 -8.78,9.95 -15.24,12.65l0 0.83c9.3,1.97 16.72,5.94 22.32,11.99 5.6,6.05 8.4,14.2 8.4,24.43zm-48.53 -62c0,-2.42 -0.62,-4.94 -1.87,-7.5 -1.25,-2.56 -3.18,-4.43 -5.84,-5.57 -2.49,-1.1 -5.42,-1.69 -8.85,-1.8 -3.42,-0.1 -8.5,-0.14 -15.24,-0.14l-2.63 0 0 31.93 4.77 0c6.46,0 10.99,-0.07 13.62,-0.21 2.59,-0.14 5.25,-0.83 8.05,-2.14 3,-1.42 5.11,-3.35 6.25,-5.87 1.14,-2.49 1.73,-5.39 1.73,-8.71zm9.54 61.38c0,-4.67 -0.93,-8.3 -2.83,-10.92 -1.9,-2.66 -4.73,-4.63 -8.5,-5.98 -2.32,-0.9 -5.46,-1.38 -9.47,-1.49 -4.05,-0.1 -9.4,-0.14 -16.18,-0.14l-6.98 0 0 37.74 2.04 0c9.85,0 16.66,-0.07 20.46,-0.21 3.77,-0.14 7.6,-1.04 11.55,-2.73 3.42,-1.49 5.94,-3.66 7.53,-6.53 1.59,-2.87 2.38,-6.12 2.38,-9.75z"/>
  <path id="_1_16" fill="white" fill-rule="nonzero" d="M11688 3909.6l-110.73 0 0 -24.58c9.37,-7.43 17.76,-14.45 25.2,-21.05 7.43,-6.64 14,-12.92 19.63,-18.84 7.36,-7.77 12.65,-14.58 15.97,-20.46 3.28,-5.87 4.94,-11.93 4.94,-18.15 0,-7.02 -2.07,-12.4 -6.25,-16.14 -4.15,-3.77 -9.99,-5.63 -17.42,-5.63 -3.83,0 -7.46,0.44 -10.85,1.38 -3.39,0.93 -6.84,2.15 -10.33,3.6 -3.42,1.55 -6.36,3.11 -8.78,4.7 -2.42,1.59 -4.22,2.8 -5.42,3.6l-2.94 0 0 -32.9c4.25,-2 10.88,-4.07 19.9,-6.22 9.02,-2.11 17.73,-3.18 26.1,-3.18 17.83,0 31.38,3.98 40.58,11.96 9.19,7.98 13.79,19.22 13.79,33.7 0,8.92 -2.07,17.66 -6.25,26.2 -4.18,8.57 -11.13,17.73 -20.84,27.55 -6.08,6.01 -11.99,11.37 -17.73,16.07 -5.74,4.7 -9.88,8.02 -12.44,9.99l63.9 0 0 28.41z"/>
  <path id="_2_17" fill="white" fill-rule="nonzero" d="M11820.02 3909.6l-110.73 0 0 -24.58c9.37,-7.43 17.76,-14.45 25.2,-21.05 7.43,-6.64 14,-12.92 19.63,-18.84 7.36,-7.77 12.65,-14.58 15.97,-20.46 3.28,-5.87 4.94,-11.93 4.94,-18.15 0,-7.02 -2.07,-12.4 -6.25,-16.14 -4.15,-3.77 -9.99,-5.63 -17.42,-5.63 -3.83,0 -7.46,0.44 -10.85,1.38 -3.39,0.93 -6.84,2.15 -10.33,3.6 -3.42,1.55 -6.36,3.11 -8.78,4.7 -2.42,1.59 -4.22,2.8 -5.42,3.6l-2.94 0 0 -32.9c4.25,-2 10.88,-4.07 19.9,-6.22 9.02,-2.11 17.73,-3.18 26.1,-3.18 17.83,0 31.38,3.98 40.58,11.96 9.19,7.98 13.79,19.22 13.79,33.7 0,8.92 -2.07,17.66 -6.25,26.2 -4.18,8.57 -11.13,17.73 -20.84,27.55 -6.08,6.01 -11.99,11.37 -17.73,16.07 -5.74,4.7 -9.88,8.02 -12.44,9.99l63.9 0 0 28.41z"/>
  <path fill="white" fill-rule="nonzero" d="M4986.98 1688.66c0,7.5 -1.42,14.07 -4.26,19.77 -2.83,5.67 -6.67,10.33 -11.44,14.07 -5.7,4.43 -11.93,7.6 -18.7,9.5 -6.81,1.9 -15.44,2.83 -25.88,2.83l-60.41 0 0 -150.75 53.32 0c11.1,0 19.49,0.41 25.2,1.28 5.74,0.83 11.1,2.59 16.1,5.29 5.39,2.9 9.44,6.81 12.1,11.65 2.66,4.88 4.01,10.47 4.01,16.83 0,7.33 -1.83,13.9 -5.53,19.63 -3.67,5.74 -8.78,9.95 -15.24,12.65l0 0.83c9.3,1.97 16.72,5.94 22.32,11.99 5.6,6.05 8.4,14.2 8.4,24.43zm-48.53 -62c0,-2.42 -0.62,-4.94 -1.87,-7.5 -1.25,-2.56 -3.18,-4.43 -5.84,-5.57 -2.49,-1.1 -5.42,-1.69 -8.85,-1.8 -3.42,-0.1 -8.5,-0.14 -15.24,-0.14l-2.63 0 0 31.93 4.77 0c6.46,0 10.99,-0.07 13.62,-0.21 2.59,-0.14 5.25,-0.83 8.05,-2.14 3,-1.42 5.11,-3.35 6.25,-5.87 1.14,-2.49 1.73,-5.39 1.73,-8.71zm9.54 61.38c0,-4.67 -0.93,-8.3 -2.83,-10.92 -1.9,-2.66 -4.73,-4.63 -8.5,-5.98 -2.32,-0.9 -5.46,-1.38 -9.47,-1.49 -4.05,-0.1 -9.4,-0.14 -16.18,-0.14l-6.98 0 0 37.74 2.04 0c9.85,0 16.66,-0.07 20.46,-0.21 3.77,-0.14 7.6,-1.04 11.55,-2.73 3.42,-1.49 5.94,-3.66 7.53,-6.53 1.59,-2.87 2.38,-6.12 2.38,-9.75z"/>
  <path id="_1_18" fill="white" fill-rule="nonzero" d="M5120.73 1699.79l-20.32 0 0 35.46 -36.7 0 0 -35.46 -66.15 0 0 -28.17 64.94 -87.54 37.91 0 0 88.55 20.32 0 0 27.16zm-57.03 -27.16l0 -51.25 -38.02 51.25 38.02 0z"/>
  <path fill="white" fill-rule="nonzero" d="M5871.28 1687.1c0,7.5 -1.42,14.07 -4.26,19.77 -2.83,5.67 -6.67,10.33 -11.44,14.07 -5.7,4.43 -11.93,7.6 -18.7,9.5 -6.81,1.9 -15.44,2.83 -25.88,2.83l-60.41 0 0 -150.75 53.32 0c11.1,0 19.49,0.41 25.2,1.28 5.74,0.83 11.1,2.59 16.1,5.29 5.39,2.9 9.44,6.81 12.1,11.65 2.66,4.88 4.01,10.47 4.01,16.83 0,7.33 -1.83,13.9 -5.53,19.63 -3.67,5.74 -8.78,9.95 -15.24,12.65l0 0.83c9.3,1.97 16.72,5.94 22.32,11.99 5.6,6.05 8.4,14.2 8.4,24.43zm-48.53 -62c0,-2.42 -0.62,-4.94 -1.87,-7.5 -1.25,-2.56 -3.18,-4.43 -5.84,-5.57 -2.49,-1.1 -5.42,-1.69 -8.85,-1.8 -3.42,-0.1 -8.5,-0.14 -15.24,-0.14l-2.63 0 0 31.93 4.77 0c6.46,0 10.99,-0.07 13.62,-0.21 2.59,-0.14 5.25,-0.83 8.05,-2.14 3,-1.42 5.11,-3.35 6.25,-5.87 1.14,-2.49 1.73,-5.39 1.73,-8.71zm9.54 61.38c0,-4.67 -0.93,-8.3 -2.83,-10.92 -1.9,-2.66 -4.73,-4.63 -8.5,-5.98 -2.32,-0.9 -5.46,-1.38 -9.47,-1.49 -4.05,-0.1 -9.4,-0.14 -16.18,-0.14l-6.98 0 0 37.74 2.04 0c9.85,0 16.66,-0.07 20.46,-0.21 3.77,-0.14 7.6,-1.04 11.55,-2.73 3.42,-1.49 5.94,-3.66 7.53,-6.53 1.59,-2.87 2.38,-6.12 2.38,-9.75z"/>
  <path id="_1_19" fill="white" fill-rule="nonzero" d="M6000.06 1682.26c0,7.81 -1.35,15.07 -4.01,21.74 -2.66,6.67 -6.67,12.44 -11.99,17.32 -5.29,4.77 -11.54,8.5 -18.8,11.13 -7.26,2.62 -16.18,3.94 -26.78,3.94 -11.23,-0.07 -20.88,-1.04 -28.93,-2.9 -8.09,-1.83 -14.76,-3.94 -20.01,-6.22l0 -32.97 3.46 0c1.9,1.1 4.01,2.35 6.39,3.73 2.35,1.38 5.46,2.84 9.33,4.36 3.59,1.45 7.22,2.62 10.92,3.56 3.7,0.93 7.77,1.42 12.34,1.42 3.9,0 8.16,-0.48 12.68,-1.49 4.53,-0.97 8.19,-2.76 10.96,-5.32 2.04,-2.04 3.63,-4.32 4.77,-6.84 1.14,-2.49 1.73,-5.84 1.73,-10.06 0,-3.52 -0.72,-6.57 -2.17,-9.13 -1.46,-2.52 -3.39,-4.6 -5.74,-6.15 -3.46,-2.32 -7.64,-3.77 -12.51,-4.43 -4.88,-0.66 -9.09,-0.97 -12.58,-0.97 -5.57,0 -10.99,0.44 -16.21,1.31 -5.25,0.86 -9.82,1.83 -13.69,2.83l-3.25 0 0 -84.6 99.95 0 0 28.41 -64.28 0 0 25.2c2.04,-0.14 4.46,-0.28 7.26,-0.38 2.8,-0.1 5.01,-0.14 6.57,-0.14 7.23,0 13.93,0.72 20.08,2.18 6.15,1.45 11.61,3.7 16.35,6.74 5.77,3.7 10.23,8.68 13.41,14.9 3.18,6.26 4.77,13.86 4.77,22.85z"/>
  <path fill="white" fill-rule="nonzero" d="M6772.87 1687.11c0,7.5 -1.42,14.07 -4.26,19.77 -2.83,5.67 -6.67,10.33 -11.44,14.07 -5.7,4.43 -11.93,7.6 -18.7,9.5 -6.81,1.9 -15.44,2.83 -25.88,2.83l-60.41 0 0 -150.75 53.32 0c11.1,0 19.49,0.41 25.2,1.28 5.74,0.83 11.1,2.59 16.1,5.29 5.39,2.9 9.44,6.81 12.1,11.65 2.66,4.88 4.01,10.47 4.01,16.83 0,7.33 -1.83,13.9 -5.53,19.63 -3.67,5.74 -8.78,9.95 -15.24,12.65l0 0.83c9.3,1.97 16.72,5.94 22.32,11.99 5.6,6.05 8.4,14.2 8.4,24.43zm-48.53 -62c0,-2.42 -0.62,-4.94 -1.87,-7.5 -1.25,-2.56 -3.18,-4.43 -5.84,-5.57 -2.49,-1.1 -5.42,-1.69 -8.85,-1.8 -3.42,-0.1 -8.5,-0.14 -15.24,-0.14l-2.63 0 0 31.93 4.77 0c6.46,0 10.99,-0.07 13.62,-0.21 2.59,-0.14 5.25,-0.83 8.05,-2.14 3,-1.42 5.11,-3.35 6.25,-5.87 1.14,-2.49 1.73,-5.39 1.73,-8.71zm9.54 61.38c0,-4.67 -0.93,-8.3 -2.83,-10.92 -1.9,-2.66 -4.73,-4.63 -8.5,-5.98 -2.32,-0.9 -5.46,-1.38 -9.47,-1.49 -4.05,-0.1 -9.4,-0.14 -16.18,-0.14l-6.98 0 0 37.74 2.04 0c9.85,0 16.66,-0.07 20.46,-0.21 3.77,-0.14 7.6,-1.04 11.55,-2.73 3.42,-1.49 5.94,-3.66 7.53,-6.53 1.59,-2.87 2.38,-6.12 2.38,-9.75z"/>
  <path id="_1_20" fill="white" fill-rule="nonzero" d="M6904.14 1681.86c0,15.9 -5.05,28.96 -15.1,39.19 -10.06,10.23 -23.88,15.35 -41.44,15.35 -8.78,0 -16.63,-1.28 -23.51,-3.8 -6.87,-2.52 -12.72,-6.25 -17.52,-11.2 -5.74,-5.81 -10.12,-13.31 -13.17,-22.47 -3.04,-9.19 -4.56,-20.15 -4.56,-32.94 0,-13.2 1.42,-24.95 4.25,-35.22 2.83,-10.26 7.47,-19.35 13.86,-27.27 6.15,-7.47 14.17,-13.34 24.09,-17.56 9.92,-4.22 21.67,-6.33 35.25,-6.33 4.91,0 9.85,0.31 14.83,0.97 4.94,0.62 8.33,1.14 10.16,1.55l0 29.62 -2.73 0c-1.76,-0.86 -4.67,-1.83 -8.71,-2.94 -4.05,-1.07 -8.68,-1.63 -13.86,-1.63 -11.82,0 -20.95,3.11 -27.34,9.3 -6.42,6.19 -10.37,15.07 -11.85,26.65 4.91,-3.18 9.95,-5.7 15.04,-7.6 5.11,-1.91 10.88,-2.83 17.31,-2.83 5.39,0 10.48,0.72 15.24,2.17 4.77,1.45 9.02,3.56 12.72,6.33 5.22,4.01 9.36,9.23 12.44,15.72 3.07,6.5 4.6,14.79 4.6,24.92zm-44.03 22.74c1.97,-2.42 3.46,-5.08 4.53,-7.94 1.04,-2.87 1.55,-7.19 1.55,-13 0,-4.88 -0.62,-8.88 -1.83,-12.06 -1.21,-3.18 -2.94,-5.7 -5.15,-7.57 -2.25,-1.9 -4.77,-3.21 -7.6,-3.9 -2.83,-0.72 -5.84,-1.07 -9.02,-1.07 -2.62,0 -5.36,0.35 -8.15,1 -2.8,0.69 -5.43,1.52 -7.85,2.55 0,0.66 -0.04,1.76 -0.1,3.32 -0.07,1.55 -0.1,3.52 -0.1,5.87 0,8.64 0.76,15.59 2.28,20.88 1.52,5.25 3.42,9.22 5.74,11.92 1.73,2.18 3.77,3.73 6.02,4.67 2.25,0.93 4.63,1.42 7.15,1.42 2,0 4.21,-0.52 6.56,-1.52 2.39,-1 4.36,-2.52 5.98,-4.56z"/>
  <path fill="white" fill-rule="nonzero" d="M7679.65 1685.76c0,7.5 -1.42,14.07 -4.26,19.77 -2.83,5.67 -6.67,10.33 -11.44,14.07 -5.7,4.43 -11.93,7.6 -18.7,9.5 -6.81,1.9 -15.44,2.83 -25.88,2.83l-60.41 0 0 -150.75 53.32 0c11.1,0 19.49,0.41 25.2,1.28 5.74,0.83 11.1,2.59 16.1,5.29 5.39,2.9 9.44,6.81 12.1,11.65 2.66,4.88 4.01,10.47 4.01,16.83 0,7.33 -1.83,13.9 -5.53,19.63 -3.67,5.74 -8.78,9.95 -15.24,12.65l0 0.83c9.3,1.97 16.72,5.94 22.32,11.99 5.6,6.05 8.4,14.2 8.4,24.43zm-48.53 -62c0,-2.42 -0.62,-4.94 -1.87,-7.5 -1.25,-2.56 -3.18,-4.43 -5.84,-5.57 -2.49,-1.1 -5.42,-1.69 -8.85,-1.8 -3.42,-0.1 -8.5,-0.14 -15.24,-0.14l-2.63 0 0 31.93 4.77 0c6.46,0 10.99,-0.07 13.62,-0.21 2.59,-0.14 5.25,-0.83 8.05,-2.14 3,-1.42 5.11,-3.35 6.25,-5.87 1.14,-2.49 1.73,-5.39 1.73,-8.71zm9.54 61.38c0,-4.67 -0.93,-8.3 -2.83,-10.92 -1.9,-2.66 -4.73,-4.63 -8.5,-5.98 -2.32,-0.9 -5.46,-1.38 -9.47,-1.49 -4.05,-0.1 -9.4,-0.14 -16.18,-0.14l-6.98 0 0 37.74 2.04 0c9.85,0 16.66,-0.07 20.46,-0.21 3.77,-0.14 7.6,-1.04 11.55,-2.73 3.42,-1.49 5.94,-3.66 7.53,-6.53 1.59,-2.87 2.38,-6.12 2.38,-9.75z"/>
  <polygon id="_1_21" fill="white" fill-rule="nonzero" points="7808.43,1611.11 7744.11,1731.93 7702.05,1731.93 7769.27,1609.59 7697.49,1609.59 7697.49,1581.18 7808.43,1581.18 "/>
  <path fill="white" fill-rule="nonzero" d="M9488.22 1687.31c0,7.5 -1.42,14.07 -4.26,19.77 -2.83,5.67 -6.67,10.33 -11.44,14.07 -5.7,4.43 -11.93,7.6 -18.7,9.5 -6.81,1.9 -15.44,2.83 -25.88,2.83l-60.41 0 0 -150.75 53.32 0c11.1,0 19.49,0.41 25.2,1.28 5.74,0.83 11.1,2.59 16.1,5.29 5.39,2.9 9.44,6.81 12.1,11.65 2.66,4.88 4.01,10.47 4.01,16.83 0,7.33 -1.83,13.9 -5.53,19.63 -3.67,5.74 -8.78,9.95 -15.24,12.65l0 0.83c9.3,1.97 16.72,5.94 22.32,11.99 5.6,6.05 8.4,14.2 8.4,24.43zm-48.53 -62c0,-2.42 -0.62,-4.94 -1.87,-7.5 -1.25,-2.56 -3.18,-4.43 -5.84,-5.57 -2.49,-1.1 -5.42,-1.69 -8.85,-1.8 -3.42,-0.1 -8.5,-0.14 -15.24,-0.14l-2.63 0 0 31.93 4.77 0c6.46,0 10.99,-0.07 13.62,-0.21 2.59,-0.14 5.25,-0.83 8.05,-2.14 3,-1.42 5.11,-3.35 6.25,-5.87 1.14,-2.49 1.73,-5.39 1.73,-8.71zm9.54 61.38c0,-4.67 -0.93,-8.3 -2.83,-10.92 -1.9,-2.66 -4.73,-4.63 -8.5,-5.98 -2.32,-0.9 -5.46,-1.38 -9.47,-1.49 -4.05,-0.1 -9.4,-0.14 -16.18,-0.14l-6.98 0 0 37.74 2.04 0c9.85,0 16.66,-0.07 20.46,-0.21 3.77,-0.14 7.6,-1.04 11.55,-2.73 3.42,-1.49 5.94,-3.66 7.53,-6.53 1.59,-2.87 2.38,-6.12 2.38,-9.75z"/>
  <path id="_1_22" fill="white" fill-rule="nonzero" d="M9616.37 1649.61c0,12.82 -1.48,24.57 -4.46,35.22 -2.97,10.68 -7.6,19.84 -13.86,27.47 -6.5,7.74 -14.55,13.72 -24.16,17.87 -9.61,4.15 -21.39,6.22 -35.39,6.22 -4.7,0 -9.64,-0.31 -14.75,-0.9 -5.15,-0.62 -8.54,-1.17 -10.23,-1.63l0 -29.62 2.94 0c1.87,0.93 4.56,1.93 8.02,2.97 3.49,1.07 8.3,1.59 14.41,1.59 4.94,0 9.67,-0.66 14.27,-1.97 4.6,-1.31 8.54,-3.39 11.82,-6.22 3.46,-2.94 6.33,-6.64 8.61,-11.1 2.28,-4.46 3.83,-9.99 4.63,-16.66 -5.39,3.39 -10.4,5.95 -15.03,7.74 -4.6,1.8 -10.37,2.7 -17.25,2.7 -5.18,0 -10.2,-0.69 -14.93,-2.08 -4.77,-1.38 -9.09,-3.52 -13.03,-6.42 -5.18,-4.08 -9.3,-9.3 -12.34,-15.66 -3.04,-6.39 -4.56,-14.65 -4.56,-24.78 0,-7.85 1.35,-15.1 4.01,-21.74 2.66,-6.67 6.46,-12.48 11.4,-17.39 4.84,-4.87 10.82,-8.71 17.9,-11.47 7.12,-2.77 15,-4.15 23.71,-4.15 8.77,0 16.59,1.25 23.43,3.7 6.81,2.45 12.65,6.22 17.53,11.3 5.67,5.74 9.99,13.13 12.92,22.15 2.94,9.05 4.39,20.01 4.39,32.83zm-37.53 -5.6c0,-8.15 -0.69,-14.9 -2.07,-20.18 -1.38,-5.32 -3.32,-9.43 -5.81,-12.41 -1.76,-2.17 -3.73,-3.73 -5.91,-4.67 -2.18,-0.93 -4.56,-1.42 -7.12,-1.42 -2.25,0 -4.39,0.45 -6.53,1.38 -2.11,0.9 -4.15,2.45 -6.12,4.7 -1.73,1.94 -3.21,4.8 -4.42,8.61 -1.21,3.77 -1.83,7.91 -1.83,12.44 0,4.87 0.62,8.85 1.87,11.99 1.24,3.15 2.94,5.67 5.11,7.53 2.15,1.83 4.6,3.11 7.36,3.87 2.77,0.72 5.84,1.11 9.2,1.11 2.83,0 5.73,-0.38 8.74,-1.17 3.01,-0.76 5.42,-1.56 7.23,-2.39 0,-0.72 0.07,-1.8 0.17,-3.18 0.1,-1.38 0.14,-3.45 0.14,-6.22z"/>
  <path fill="white" fill-rule="nonzero" d="M10391.05 1687.1c0,7.5 -1.42,14.07 -4.26,19.77 -2.83,5.67 -6.67,10.33 -11.44,14.07 -5.7,4.43 -11.93,7.6 -18.7,9.5 -6.81,1.9 -15.44,2.83 -25.88,2.83l-60.41 0 0 -150.75 53.32 0c11.1,0 19.49,0.41 25.2,1.28 5.74,0.83 11.1,2.59 16.1,5.29 5.39,2.9 9.44,6.81 12.1,11.65 2.66,4.88 4.01,10.47 4.01,16.83 0,7.33 -1.83,13.9 -5.53,19.63 -3.67,5.74 -8.78,9.95 -15.24,12.65l0 0.83c9.3,1.97 16.72,5.94 22.32,11.99 5.6,6.05 8.4,14.2 8.4,24.43zm-48.53 -62c0,-2.42 -0.62,-4.94 -1.87,-7.5 -1.25,-2.56 -3.18,-4.43 -5.84,-5.57 -2.49,-1.1 -5.42,-1.69 -8.85,-1.8 -3.42,-0.1 -8.5,-0.14 -15.24,-0.14l-2.63 0 0 31.93 4.77 0c6.46,0 10.99,-0.07 13.62,-0.21 2.59,-0.14 5.25,-0.83 8.05,-2.14 3,-1.42 5.11,-3.35 6.25,-5.87 1.14,-2.49 1.73,-5.39 1.73,-8.71zm9.54 61.38c0,-4.67 -0.93,-8.3 -2.83,-10.92 -1.9,-2.66 -4.73,-4.63 -8.5,-5.98 -2.32,-0.9 -5.46,-1.38 -9.47,-1.49 -4.05,-0.1 -9.4,-0.14 -16.18,-0.14l-6.98 0 0 37.74 2.04 0c9.85,0 16.66,-0.07 20.46,-0.21 3.77,-0.14 7.6,-1.04 11.55,-2.73 3.42,-1.49 5.94,-3.66 7.53,-6.53 1.59,-2.87 2.38,-6.12 2.38,-9.75z"/>
  <path id="_1_23" fill="white" fill-rule="nonzero" d="M10516.51 1733.27l-99.53 0 0 -26.34 31.72 0 0 -79.62 -31.72 0 0 -24.68c4.67,0 9.26,-0.31 13.86,-0.9 4.56,-0.62 8.22,-1.59 10.99,-2.94 3.24,-1.62 5.74,-3.8 7.53,-6.53 1.8,-2.73 2.8,-6.12 3.07,-10.16l32.97 0 0 124.83 31.1 0 0 26.34z"/>
  <path id="_2_24" fill="white" fill-rule="nonzero" d="M10653.31 1657.79c0,13.03 -1.04,24.44 -3.15,34.25 -2.07,9.78 -5.42,17.94 -10.02,24.5 -4.6,6.53 -10.57,11.48 -17.94,14.83 -7.36,3.35 -16.38,5.01 -27.06,5.01 -10.61,0 -19.6,-1.66 -26.96,-5.01 -7.36,-3.35 -13.38,-8.37 -18.04,-15.03 -4.6,-6.64 -7.94,-14.8 -10.02,-24.47 -2.11,-9.68 -3.15,-21.01 -3.15,-33.98 0,-13.38 1.04,-24.78 3.07,-34.21 2.08,-9.47 5.5,-17.59 10.3,-24.44 4.74,-6.67 10.82,-11.65 18.25,-14.93 7.43,-3.28 16.28,-4.91 26.54,-4.91 10.89,0 19.94,1.7 27.2,5.12 7.26,3.42 13.24,8.5 17.9,15.24 4.6,6.6 7.91,14.79 9.99,24.5 2.04,9.71 3.07,20.91 3.07,33.52zm-37.95 0c0,-18.66 -1.55,-31.76 -4.63,-39.3 -3.07,-7.53 -8.26,-11.3 -15.59,-11.3 -7.26,0 -12.44,3.77 -15.55,11.3 -3.11,7.54 -4.67,20.7 -4.67,39.5 0,18.39 1.55,31.42 4.67,39.09 3.11,7.68 8.29,11.51 15.55,11.51 7.26,0 12.44,-3.84 15.55,-11.51 3.11,-7.67 4.66,-20.77 4.66,-39.3z"/>
  <path fill="white" fill-rule="nonzero" d="M11297.1 1687.21c0,7.5 -1.42,14.07 -4.26,19.77 -2.83,5.67 -6.67,10.33 -11.44,14.07 -5.7,4.43 -11.93,7.6 -18.7,9.5 -6.81,1.9 -15.44,2.83 -25.88,2.83l-60.41 0 0 -150.75 53.32 0c11.1,0 19.49,0.41 25.2,1.28 5.74,0.83 11.1,2.59 16.1,5.29 5.39,2.9 9.44,6.81 12.1,11.65 2.66,4.88 4.01,10.47 4.01,16.83 0,7.33 -1.83,13.9 -5.53,19.63 -3.67,5.74 -8.78,9.95 -15.24,12.65l0 0.83c9.3,1.97 16.72,5.94 22.32,11.99 5.6,6.05 8.4,14.2 8.4,24.43zm-48.53 -62c0,-2.42 -0.62,-4.94 -1.87,-7.5 -1.25,-2.56 -3.18,-4.43 -5.84,-5.57 -2.49,-1.1 -5.42,-1.69 -8.85,-1.8 -3.42,-0.1 -8.5,-0.14 -15.24,-0.14l-2.63 0 0 31.93 4.77 0c6.46,0 10.99,-0.07 13.62,-0.21 2.59,-0.14 5.25,-0.83 8.05,-2.14 3,-1.42 5.11,-3.35 6.25,-5.87 1.14,-2.49 1.73,-5.39 1.73,-8.71zm9.54 61.38c0,-4.67 -0.93,-8.3 -2.83,-10.92 -1.9,-2.66 -4.73,-4.63 -8.5,-5.98 -2.32,-0.9 -5.46,-1.38 -9.47,-1.49 -4.05,-0.1 -9.4,-0.14 -16.18,-0.14l-6.98 0 0 37.74 2.04 0c9.85,0 16.66,-0.07 20.46,-0.21 3.77,-0.14 7.6,-1.04 11.55,-2.73 3.42,-1.49 5.94,-3.66 7.53,-6.53 1.59,-2.87 2.38,-6.12 2.38,-9.75z"/>
  <path id="_1_25" fill="white" fill-rule="nonzero" d="M11422.56 1733.38l-99.53 0 0 -26.34 31.72 0 0 -79.62 -31.72 0 0 -24.68c4.67,0 9.26,-0.31 13.86,-0.9 4.56,-0.62 8.22,-1.59 10.99,-2.94 3.24,-1.62 5.74,-3.8 7.53,-6.53 1.8,-2.73 2.8,-6.12 3.07,-10.16l32.97 0 0 124.83 31.1 0 0 26.34z"/>
  <path id="_2_26" fill="white" fill-rule="nonzero" d="M11554.58 1733.38l-99.53 0 0 -26.34 31.72 0 0 -79.62 -31.72 0 0 -24.68c4.67,0 9.26,-0.31 13.86,-0.9 4.56,-0.62 8.22,-1.59 10.99,-2.94 3.24,-1.62 5.74,-3.8 7.53,-6.53 1.8,-2.73 2.8,-6.12 3.07,-10.16l32.97 0 0 124.83 31.1 0 0 26.34z"/>
  <path fill="white" fill-rule="nonzero" d="M12200.35 1687.1c0,7.5 -1.42,14.07 -4.26,19.77 -2.83,5.67 -6.67,10.33 -11.44,14.07 -5.7,4.43 -11.93,7.6 -18.7,9.5 -6.81,1.9 -15.44,2.83 -25.88,2.83l-60.41 0 0 -150.75 53.32 0c11.1,0 19.49,0.41 25.2,1.28 5.74,0.83 11.1,2.59 16.1,5.29 5.39,2.9 9.44,6.81 12.1,11.65 2.66,4.88 4.01,10.47 4.01,16.83 0,7.33 -1.83,13.9 -5.53,19.63 -3.67,5.74 -8.78,9.95 -15.24,12.65l0 0.83c9.3,1.97 16.72,5.94 22.32,11.99 5.6,6.05 8.4,14.2 8.4,24.43zm-48.53 -62c0,-2.42 -0.62,-4.94 -1.87,-7.5 -1.25,-2.56 -3.18,-4.43 -5.84,-5.57 -2.49,-1.1 -5.42,-1.69 -8.85,-1.8 -3.42,-0.1 -8.5,-0.14 -15.24,-0.14l-2.63 0 0 31.93 4.77 0c6.46,0 10.99,-0.07 13.62,-0.21 2.59,-0.14 5.25,-0.83 8.05,-2.14 3,-1.42 5.11,-3.35 6.25,-5.87 1.14,-2.49 1.73,-5.39 1.73,-8.71zm9.54 61.38c0,-4.67 -0.93,-8.3 -2.83,-10.92 -1.9,-2.66 -4.73,-4.63 -8.5,-5.98 -2.32,-0.9 -5.46,-1.38 -9.47,-1.49 -4.05,-0.1 -9.4,-0.14 -16.18,-0.14l-6.98 0 0 37.74 2.04 0c9.85,0 16.66,-0.07 20.46,-0.21 3.77,-0.14 7.6,-1.04 11.55,-2.73 3.42,-1.49 5.94,-3.66 7.53,-6.53 1.59,-2.87 2.38,-6.12 2.38,-9.75z"/>
  <path id="_1_27" fill="white" fill-rule="nonzero" d="M12325.8 1733.27l-99.53 0 0 -26.34 31.72 0 0 -79.62 -31.72 0 0 -24.68c4.67,0 9.26,-0.31 13.86,-0.9 4.56,-0.62 8.22,-1.59 10.99,-2.94 3.24,-1.62 5.74,-3.8 7.53,-6.53 1.8,-2.73 2.8,-6.12 3.07,-10.16l32.97 0 0 124.83 31.1 0 0 26.34z"/>
  <path id="_2_28" fill="white" fill-rule="nonzero" d="M12464.47 1733.27l-110.73 0 0 -24.58c9.37,-7.43 17.76,-14.45 25.2,-21.05 7.43,-6.64 14,-12.92 19.63,-18.84 7.36,-7.77 12.65,-14.58 15.97,-20.46 3.28,-5.87 4.94,-11.93 4.94,-18.15 0,-7.02 -2.07,-12.4 -6.25,-16.14 -4.15,-3.77 -9.99,-5.63 -17.42,-5.63 -3.83,0 -7.46,0.44 -10.85,1.38 -3.39,0.93 -6.84,2.15 -10.33,3.6 -3.42,1.55 -6.36,3.11 -8.78,4.7 -2.42,1.59 -4.22,2.8 -5.42,3.6l-2.94 0 0 -32.9c4.25,-2 10.88,-4.07 19.9,-6.22 9.02,-2.11 17.73,-3.18 26.1,-3.18 17.83,0 31.38,3.98 40.58,11.96 9.19,7.98 13.79,19.22 13.79,33.7 0,8.92 -2.07,17.66 -6.25,26.2 -4.18,8.57 -11.13,17.73 -20.84,27.55 -6.08,6.01 -11.99,11.37 -17.73,16.07 -5.74,4.7 -9.88,8.02 -12.44,9.99l63.9 0 0 28.41z"/>
  <path fill="white" fill-rule="nonzero" d="M833.75 1688.24c0,7.5 -1.42,14.07 -4.26,19.77 -2.83,5.67 -6.67,10.33 -11.44,14.07 -5.7,4.43 -11.93,7.6 -18.7,9.5 -6.81,1.9 -15.44,2.83 -25.88,2.83l-60.41 0 0 -150.75 53.32 0c11.1,0 19.49,0.41 25.2,1.28 5.74,0.83 11.1,2.59 16.1,5.29 5.39,2.9 9.44,6.81 12.1,11.65 2.66,4.88 4.01,10.47 4.01,16.83 0,7.33 -1.83,13.9 -5.53,19.63 -3.67,5.74 -8.78,9.95 -15.24,12.65l0 0.83c9.3,1.97 16.72,5.94 22.32,11.99 5.6,6.05 8.4,14.2 8.4,24.43zm-48.53 -62c0,-2.42 -0.62,-4.94 -1.87,-7.5 -1.25,-2.56 -3.18,-4.43 -5.84,-5.57 -2.49,-1.1 -5.42,-1.69 -8.85,-1.8 -3.42,-0.1 -8.5,-0.14 -15.24,-0.14l-2.63 0 0 31.93 4.77 0c6.46,0 10.99,-0.07 13.62,-0.21 2.59,-0.14 5.25,-0.83 8.05,-2.14 3,-1.42 5.11,-3.35 6.25,-5.87 1.14,-2.49 1.73,-5.39 1.73,-8.71zm9.54 61.38c0,-4.67 -0.93,-8.3 -2.83,-10.92 -1.9,-2.66 -4.73,-4.63 -8.5,-5.98 -2.32,-0.9 -5.46,-1.38 -9.47,-1.49 -4.05,-0.1 -9.4,-0.14 -16.18,-0.14l-6.98 0 0 37.74 2.04 0c9.85,0 16.66,-0.07 20.46,-0.21 3.77,-0.14 7.6,-1.04 11.55,-2.73 3.42,-1.49 5.94,-3.66 7.53,-6.53 1.59,-2.87 2.38,-6.12 2.38,-9.75z"/>
  <path id="_1_29" fill="white" fill-rule="nonzero" d="M959.21 1734.42l-99.53 0 0 -26.34 31.72 0 0 -79.62 -31.72 0 0 -24.68c4.67,0 9.26,-0.31 13.86,-0.9 4.56,-0.62 8.22,-1.59 10.99,-2.94 3.24,-1.62 5.74,-3.8 7.53,-6.53 1.8,-2.73 2.8,-6.12 3.07,-10.16l32.97 0 0 124.83 31.1 0 0 26.34z"/>
  <path fill="white" fill-rule="nonzero" d="M1739.64 1688.24c0,7.5 -1.42,14.07 -4.26,19.77 -2.83,5.67 -6.67,10.33 -11.44,14.07 -5.7,4.43 -11.93,7.6 -18.7,9.5 -6.81,1.9 -15.44,2.83 -25.88,2.83l-60.41 0 0 -150.75 53.32 0c11.1,0 19.49,0.41 25.2,1.28 5.74,0.83 11.1,2.59 16.1,5.29 5.39,2.9 9.44,6.81 12.1,11.65 2.66,4.88 4.01,10.47 4.01,16.83 0,7.33 -1.83,13.9 -5.53,19.63 -3.67,5.74 -8.78,9.95 -15.24,12.65l0 0.83c9.3,1.97 16.72,5.94 22.32,11.99 5.6,6.05 8.4,14.2 8.4,24.43zm-48.53 -62c0,-2.42 -0.62,-4.94 -1.87,-7.5 -1.25,-2.56 -3.18,-4.43 -5.84,-5.57 -2.49,-1.1 -5.42,-1.69 -8.85,-1.8 -3.42,-0.1 -8.5,-0.14 -15.24,-0.14l-2.63 0 0 31.93 4.77 0c6.46,0 10.99,-0.07 13.62,-0.21 2.59,-0.14 5.25,-0.83 8.05,-2.14 3,-1.42 5.11,-3.35 6.25,-5.87 1.14,-2.49 1.73,-5.39 1.73,-8.71zm9.54 61.38c0,-4.67 -0.93,-8.3 -2.83,-10.92 -1.9,-2.66 -4.73,-4.63 -8.5,-5.98 -2.32,-0.9 -5.46,-1.38 -9.47,-1.49 -4.05,-0.1 -9.4,-0.14 -16.18,-0.14l-6.98 0 0 37.74 2.04 0c9.85,0 16.66,-0.07 20.46,-0.21 3.77,-0.14 7.6,-1.04 11.55,-2.73 3.42,-1.49 5.94,-3.66 7.53,-6.53 1.59,-2.87 2.38,-6.12 2.38,-9.75z"/>
  <path id="_1_30" fill="white" fill-rule="nonzero" d="M1871.73 1734.42l-110.73 0 0 -24.58c9.37,-7.43 17.76,-14.45 25.2,-21.05 7.43,-6.64 14,-12.92 19.63,-18.84 7.36,-7.77 12.65,-14.58 15.97,-20.46 3.28,-5.87 4.94,-11.93 4.94,-18.15 0,-7.02 -2.07,-12.4 -6.25,-16.14 -4.15,-3.77 -9.99,-5.63 -17.42,-5.63 -3.83,0 -7.46,0.44 -10.85,1.38 -3.39,0.93 -6.84,2.15 -10.33,3.6 -3.42,1.55 -6.36,3.11 -8.78,4.7 -2.42,1.59 -4.22,2.8 -5.42,3.6l-2.94 0 0 -32.9c4.25,-2 10.88,-4.07 19.9,-6.22 9.02,-2.11 17.73,-3.18 26.1,-3.18 17.83,0 31.38,3.98 40.58,11.96 9.19,7.98 13.79,19.22 13.79,33.7 0,8.92 -2.07,17.66 -6.25,26.2 -4.18,8.57 -11.13,17.73 -20.84,27.55 -6.08,6.01 -11.99,11.37 -17.73,16.07 -5.74,4.7 -9.88,8.02 -12.44,9.99l63.9 0 0 28.41z"/>
  <path fill="white" fill-rule="nonzero" d="M2650.71 1686.68c0,7.5 -1.42,14.07 -4.26,19.77 -2.83,5.67 -6.67,10.33 -11.44,14.07 -5.7,4.43 -11.93,7.6 -18.7,9.5 -6.81,1.9 -15.44,2.83 -25.88,2.83l-60.41 0 0 -150.75 53.32 0c11.1,0 19.49,0.41 25.2,1.28 5.74,0.83 11.1,2.59 16.1,5.29 5.39,2.9 9.44,6.81 12.1,11.65 2.66,4.88 4.01,10.47 4.01,16.83 0,7.33 -1.83,13.9 -5.53,19.63 -3.67,5.74 -8.78,9.95 -15.24,12.65l0 0.83c9.3,1.97 16.72,5.94 22.32,11.99 5.6,6.05 8.4,14.2 8.4,24.43zm-48.53 -62c0,-2.42 -0.62,-4.94 -1.87,-7.5 -1.25,-2.56 -3.18,-4.43 -5.84,-5.57 -2.49,-1.1 -5.42,-1.69 -8.85,-1.8 -3.42,-0.1 -8.5,-0.14 -15.24,-0.14l-2.63 0 0 31.93 4.77 0c6.46,0 10.99,-0.07 13.62,-0.21 2.59,-0.14 5.25,-0.83 8.05,-2.14 3,-1.42 5.11,-3.35 6.25,-5.87 1.14,-2.49 1.73,-5.39 1.73,-8.71zm9.54 61.38c0,-4.67 -0.93,-8.3 -2.83,-10.92 -1.9,-2.66 -4.73,-4.63 -8.5,-5.98 -2.32,-0.9 -5.46,-1.38 -9.47,-1.49 -4.05,-0.1 -9.4,-0.14 -16.18,-0.14l-6.98 0 0 37.74 2.04 0c9.85,0 16.66,-0.07 20.46,-0.21 3.77,-0.14 7.6,-1.04 11.55,-2.73 3.42,-1.49 5.94,-3.66 7.53,-6.53 1.59,-2.87 2.38,-6.12 2.38,-9.75z"/>
  <path id="_1_31" fill="white" fill-rule="nonzero" d="M2779.07 1687.16c0,7.36 -1.38,14.07 -4.11,20.15 -2.73,6.08 -6.74,11.23 -11.99,15.48 -5.36,4.25 -11.61,7.5 -18.8,9.78 -7.19,2.25 -15.97,3.39 -26.31,3.39 -11.75,0 -21.84,-0.97 -30.24,-2.94 -8.43,-1.97 -15.24,-4.15 -20.53,-6.6l0 -32.76 3.63 0c5.57,3.59 12.1,6.7 19.56,9.33 7.5,2.63 14.31,3.94 20.46,3.94 3.66,0 7.64,-0.31 11.96,-0.97 4.28,-0.66 7.88,-2.08 10.82,-4.25 2.28,-1.7 4.15,-3.77 5.53,-6.26 1.38,-2.49 2.08,-6.01 2.08,-10.57 0,-4.49 -0.97,-7.95 -2.94,-10.37 -1.97,-2.42 -4.6,-4.15 -7.85,-5.25 -3.28,-1.14 -7.19,-1.8 -11.72,-1.94 -4.56,-0.14 -8.57,-0.2 -12.03,-0.2l-6.53 0 0 -26.34 5.97 0c4.6,0 8.82,-0.21 12.69,-0.62 3.83,-0.38 7.12,-1.21 9.85,-2.42 2.7,-1.28 4.8,-3.07 6.33,-5.39 1.52,-2.28 2.28,-5.39 2.28,-9.33 0,-3.04 -0.72,-5.53 -2.14,-7.43 -1.42,-1.93 -3.15,-3.45 -5.25,-4.52 -2.42,-1.21 -5.25,-2.04 -8.5,-2.42 -3.24,-0.42 -6.01,-0.62 -8.29,-0.62 -3.73,0 -7.5,0.44 -11.37,1.31 -3.84,0.9 -7.6,2 -11.23,3.39 -2.83,1.07 -5.8,2.49 -8.92,4.22 -3.11,1.76 -5.39,3.04 -6.88,3.94l-3.14 0 0 -32.35c5.22,-2.25 12.2,-4.39 21.05,-6.46 8.81,-2.04 17.8,-3.07 26.99,-3.07 8.99,0 16.76,0.76 23.36,2.32 6.61,1.55 12.2,3.84 16.87,6.81 5.15,3.15 8.99,7.19 11.58,12.06 2.56,4.91 3.84,10.4 3.84,16.55 0,8.57 -2.49,16.07 -7.47,22.5 -4.94,6.46 -11.48,10.61 -19.6,12.51l0 1.42c3.56,0.52 7.08,1.46 10.47,2.73 3.42,1.28 6.74,3.35 9.99,6.25 3.04,2.66 5.57,6.05 7.57,10.2 1.97,4.15 2.97,9.09 2.97,14.82z"/>
  <path fill="white" fill-rule="nonzero" d="M8582.7 1687c0,7.5 -1.42,14.07 -4.26,19.77 -2.83,5.67 -6.67,10.33 -11.44,14.07 -5.7,4.43 -11.93,7.6 -18.7,9.5 -6.81,1.9 -15.44,2.83 -25.88,2.83l-60.41 0 0 -150.75 53.32 0c11.1,0 19.49,0.41 25.2,1.28 5.74,0.83 11.1,2.59 16.1,5.29 5.39,2.9 9.44,6.81 12.1,11.65 2.66,4.88 4.01,10.47 4.01,16.83 0,7.33 -1.83,13.9 -5.53,19.63 -3.67,5.74 -8.78,9.95 -15.24,12.65l0 0.83c9.3,1.97 16.72,5.94 22.32,11.99 5.6,6.05 8.4,14.2 8.4,24.43zm-48.53 -62c0,-2.42 -0.62,-4.94 -1.87,-7.5 -1.25,-2.56 -3.18,-4.43 -5.84,-5.57 -2.49,-1.1 -5.42,-1.69 -8.85,-1.8 -3.42,-0.1 -8.5,-0.14 -15.24,-0.14l-2.63 0 0 31.93 4.77 0c6.46,0 10.99,-0.07 13.62,-0.21 2.59,-0.14 5.25,-0.83 8.05,-2.14 3,-1.42 5.11,-3.35 6.25,-5.87 1.14,-2.49 1.73,-5.39 1.73,-8.71zm9.54 61.38c0,-4.67 -0.93,-8.3 -2.83,-10.92 -1.9,-2.66 -4.73,-4.63 -8.5,-5.98 -2.32,-0.9 -5.46,-1.38 -9.47,-1.49 -4.05,-0.1 -9.4,-0.14 -16.18,-0.14l-6.98 0 0 37.74 2.04 0c9.85,0 16.66,-0.07 20.46,-0.21 3.77,-0.14 7.6,-1.04 11.55,-2.73 3.42,-1.49 5.94,-3.66 7.53,-6.53 1.59,-2.87 2.38,-6.12 2.38,-9.75z"/>
  <path id="_1_32" fill="white" fill-rule="nonzero" d="M8714.37 1691.18c0,6.5 -1.35,12.51 -4.01,18.11 -2.66,5.57 -6.57,10.37 -11.68,14.45 -5.12,4.04 -11.37,7.22 -18.77,9.5 -7.4,2.31 -15.87,3.45 -25.37,3.45 -10.12,0 -18.97,-1.17 -26.61,-3.49 -7.64,-2.35 -13.86,-5.5 -18.73,-9.47 -4.8,-4.01 -8.33,-8.71 -10.61,-14.11 -2.31,-5.39 -3.45,-11.13 -3.45,-17.14 0,-8.64 2.38,-15.83 7.12,-21.57 4.77,-5.74 11.68,-10.54 20.7,-14.41l0 -0.59c-8.78,-4.32 -14.93,-9.57 -18.42,-15.72 -3.49,-6.15 -5.25,-12.99 -5.25,-20.56 0,-5.53 1.21,-10.75 3.63,-15.62 2.42,-4.88 6.08,-9.23 10.92,-13.07 4.6,-3.66 10.4,-6.57 17.42,-8.77 7.05,-2.18 14.96,-3.28 23.71,-3.28 9.3,0 17.38,1 24.3,3 6.91,1.97 12.58,4.6 17.04,7.85 4.56,3.32 8.09,7.29 10.51,11.99 2.42,4.7 3.63,9.78 3.63,15.28 0,7.15 -2.08,13.62 -6.19,19.39 -4.15,5.77 -10.47,10.65 -19.01,14.55l0 0.62c9.95,4.05 17.32,9.37 22.05,15.97 4.73,6.57 7.08,14.45 7.08,23.64zm-40.64 -69.68c0,-5.15 -1.7,-9.23 -5.05,-12.3 -3.35,-3.07 -7.92,-4.6 -13.66,-4.6 -5.49,0 -9.95,1.38 -13.34,4.15 -3.39,2.77 -5.08,6.15 -5.08,10.2 0,4.05 1.04,7.29 3.08,9.78 2.04,2.45 5.22,4.73 9.5,6.81 1.87,0.97 4.11,1.93 6.67,2.94 2.59,1.03 6.05,2.35 10.33,3.97 2.59,-3.45 4.52,-6.77 5.74,-9.99 1.21,-3.18 1.8,-6.84 1.8,-10.95zm3.32 71.33c0,-4.94 -1.04,-8.74 -3.15,-11.37 -2.11,-2.62 -6.63,-5.63 -13.55,-8.92 -1.97,-0.97 -4.8,-2.14 -8.5,-3.56 -3.7,-1.42 -6.98,-2.73 -9.81,-3.94 -2.66,2.63 -5.01,5.87 -7.09,9.78 -2.07,3.87 -3.11,8.15 -3.11,12.82 0,7.02 2.25,12.65 6.7,16.83 4.49,4.18 10.4,6.29 17.73,6.29 1.97,0 4.22,-0.31 6.78,-0.97 2.56,-0.62 4.8,-1.63 6.78,-2.98 2.17,-1.55 3.9,-3.38 5.25,-5.49 1.32,-2.11 1.97,-4.95 1.97,-8.5z"/>
  <rect fill="#B3B3B3" x="12065.8" y="4597.12" width="96.2" height="131.19"/>
  <rect fill="#B3B3B3" x="10990.67" y="4597.12" width="96.2" height="131.19"/>
  <rect fill="#B3B3B3" x="10000.97" y="4597.12" width="96.2" height="131.19"/>
  <rect fill="#B3B3B3" x="9821" y="4597.12" width="96.2" height="131.19"/>
  <rect fill="#B3B3B3" x="8832.17" y="4597.12" width="96.2" height="131.19"/>
  <rect fill="#B3B3B3" x="7755.4" y="4597.12" width="96.2" height="131.19"/>
  <rect fill="#B3B3B3" x="6676.49" y="4597.12" width="96.2" height="131.19"/>
  <rect fill="#B3B3B3" x="5599.03" y="4597.12" width="96.2" height="131.19"/>
  <rect fill="#B3B3B3" x="4513.41" y="4597.12" width="96.2" height="131.19"/>
  <rect fill="#B3B3B3" x="3434.9" y="4597.12" width="96.2" height="131.19"/>
  <rect fill="#B3B3B3" x="2356.22" y="4597.12" width="96.2" height="131.19"/>
  <rect fill="#B3B3B3" x="1276.94" y="4597.12" width="96.2" height="131.19"/>
  <rect fill="#B3B3B3" x="197.77" y="4597.12" width="96.2" height="131.19"/>
  <rect fill="#B3B3B3" x="13183.61" y="3560" width="34.78" height="47.42"/>
  <rect fill="#B3B3B3" x="12104.99" y="3560" width="34.78" height="47.42"/>
  <rect fill="#B3B3B3" x="11022.6" y="3560" width="34.78" height="47.42"/>
  <rect fill="#B3B3B3" x="9945.92" y="3560" width="34.78" height="47.42"/>
  <rect fill="#B3B3B3" x="8862.88" y="3560" width="34.78" height="47.42"/>
  <rect fill="#B3B3B3" x="7782.84" y="3560" width="34.78" height="47.42"/>
  <rect fill="#B3B3B3" x="6708.21" y="3560" width="34.78" height="47.42"/>
  <rect fill="#B3B3B3" x="5629.75" y="3560" width="34.78" height="47.42"/>
  <rect fill="#B3B3B3" x="4543.09" y="3560" width="34.78" height="47.42"/>
  <rect fill="#B3B3B3" x="3465.61" y="3560" width="34.78" height="47.42"/>
  <rect fill="#B3B3B3" x="2386.93" y="3560" width="34.78" height="47.42"/>
  <rect fill="#B3B3B3" x="1307.66" y="3560" width="34.78" height="47.42"/>
  <rect fill="#B3B3B3" x="232.26" y="3560" width="34.78" height="47.42"/>
  <rect fill="#B3B3B3" x="6707.2" y="3560" width="34.78" height="47.42"/>
  <rect fill="#B3B3B3" x="13148.49" y="4597.12" width="96.2" height="131.19"/>
 </g>
</svg>
