<svg xmlns="http://www.w3.org/2000/svg" xml:space="preserve" width="14.684in" height="12.9507in" version="1.1" style="shape-rendering:geometricPrecision; text-rendering:geometricPrecision; image-rendering:optimizeQuality; fill-rule:evenodd; clip-rule:evenodd"
viewBox="0 0 3647.05 3216.55">

 <g id="Layer_x0020_1">
  <metadata id="CorelCorpID_0Corel-Layer"/>
  <g id="_1851569312736" fill-opacity="0.9">
   <path fill="#fff" d="M1701.02 3115.88c0,29.7 -6.09,40.93 -70.87,40.93l-172.41 0c-51.01,0 -70.9,-14.85 -70.9,-52.88l0 -115.97c0,-37.98 19.89,-52.82 70.9,-52.82l170.84 0c51.75,0 68.92,6.08 68.92,42.18l0 25.18 72.26 0 0 -37.52c0,-40.9 -22.29,-89.58 -128.55,-89.58l-188.48 0c-101.04,0 -144.17,38.39 -144.17,128.35l0 84.43c0,89.96 43.12,128.38 144.17,128.38l185.93 0c84.99,0 137.63,-16.59 137.63,-98.96l0 -33.73 -75.28 0 0 32.03z"/>
   <polygon fill="#fff" points="1962.06,3213.13 2040.36,3213.13 2040.36,3075.85 2341.15,3075.85 2341.15,3016.07 2040.36,3016.07 2040.36,2938.53 2352.7,2938.53 2352.7,2878.79 1962.06,2878.79 "/>
   <path fill="#fff" d="M2928.22 3103.93c0,38.05 -19.89,52.86 -70.9,52.86l-188.44 0c-51.05,0 -70.94,-14.82 -70.94,-52.86l0 -115.97c0,-38.01 19.89,-52.81 70.94,-52.81l188.44 0c51.01,0 70.9,14.81 70.9,52.81l0 115.97zm-65.89 -228.56l-198.49 0c-101.08,0 -144.17,38.43 -144.17,128.39l0 84.4c0,89.99 43.08,128.38 144.17,128.38l198.49 0c101.08,0 144.2,-38.38 144.2,-128.38l0 -84.4c0,-89.95 -43.11,-128.39 -144.2,-128.39z"/>
   <polygon fill="#fff" points="3451,3036.97 3623.3,2878.03 3623.41,2877.92 3519.82,2877.92 3391.99,2997.33 3260.06,2878.1 3153.03,2877.92 3152.89,2877.92 3328.42,3036.97 3136.82,3213.9 3136.72,3214.01 3241.67,3213.97 3387.78,3076.24 3539.88,3214.01 3647.05,3214.01 "/>
   <polygon fill="#fff" points="234.06,2878.8 -0,3213.14 90.03,3213.14 272.8,2950.22 365.33,3083.88 253.05,3083.88 214.72,3138.83 403.54,3138.83 455.64,3213.14 545.63,3213.14 311.57,2878.8 "/>
   <path fill="#fff" d="M993.91 2878.8l-305.52 0 0 334.34 78.34 0 0 -274.57 217.72 0c67.28,0 67.28,16.1 67.28,36.58l0 24.31c0,19.33 -4.42,31.99 -63.32,31.99l-164.34 0 0 59.74 168.3 0c41.97,0 57.86,3.59 57.86,41.35l0 80.6 75.29 0 0 -91.7c0,-26.04 -9.98,-44.61 -30.46,-56.64 23.19,-11.27 34.98,-31.61 34.98,-60.61l0 -30.22c0,-63.14 -21.07,-95.17 -136.14,-95.17z"/>
   <path fill="#fff" d="M684.78 945.97c-5.64,-7.59 -12.21,-15.97 -19.82,-14.36 -6.47,1.35 -9.74,8.17 -12.1,20.72 -15.19,81.23 -34.98,264.18 -35.64,367.24 -0.25,42.11 7.48,90.16 49.69,124.63 100.29,81.81 539.3,338.96 642.44,396.38 13.45,7.47 23.26,10.11 28.68,4.94 5.18,-4.87 4.04,-12.74 -7.02,-27.65 -28.86,-39.08 -639.59,-862.93 -646.22,-871.9z"/>
   <path fill="#fff" d="M2994.17 952.33c-2.37,-12.56 -5.6,-19.34 -12.06,-20.69 -7.58,-1.64 -14.22,6.74 -19.82,14.36 -6.67,8.97 -617.4,832.82 -646.22,871.83 -11.06,14.99 -12.24,22.78 -7.06,27.68 5.49,5.19 15.23,2.57 28.72,-4.97 103.09,-57.38 542.14,-314.53 642.43,-396.31 42.22,-34.5 49.94,-82.55 49.66,-124.66 -0.63,-103.07 -20.41,-286.01 -35.64,-367.24z"/>
   <path fill="#fff" d="M2875.97 307.07c-9.07,-61.02 -50.66,-226.27 -54.49,-240.46 -8.34,-30.94 -17.98,-64.92 -34.53,-66.51 -15.37,-1.43 -22.15,13.32 -49.14,69.79 -68.47,143.33 -426.66,812.48 -914.28,812.48 -487.62,0 -845.8,-669.15 -914.29,-812.48 -26.95,-56.47 -33.73,-71.22 -49.1,-69.79 -16.56,1.6 -26.22,35.57 -34.57,66.51 -3.82,14.19 -45.38,179.44 -54.46,240.46 -4.55,30.5 -7.44,63.8 16.27,111.44 62.77,126.27 819.72,1626.42 960.82,1909.72 9.92,19.95 34.95,71.45 55.53,97.92 5.71,6.71 12.7,10.64 19.82,10.64 7.03,0 13.91,-3.83 19.55,-10.43 20.62,-26.36 45.8,-78.14 55.74,-98.13 141.11,-283.3 898.05,-1783.45 960.85,-1909.72 23.69,-47.64 20.8,-80.95 16.27,-111.44z"/>
  </g>
 </g>
</svg>
