<svg xmlns="http://www.w3.org/2000/svg" xml:space="preserve" width="201.51mm" height="200mm" version="1.1" style="shape-rendering:geometricPrecision; text-rendering:geometricPrecision; image-rendering:optimizeQuality; fill-rule:evenodd; clip-rule:evenodd"
viewBox="0 0 1687.97 1675.32">

 <g id="Layer_x0020_1">
  <metadata id="CorelCorpID_0Corel-Layer"/>
  <g id="_2987541065184">
   <g id="_33P2o3m_1_">
    <g>
     <path fill="#FEFEFE" fill-rule="nonzero" d="M-0 874.74c0,-24.47 0,-48.61 0,-73.08 0.65,-4.89 1.63,-9.46 2.28,-14.35 5.55,-40.78 7.83,-82.54 16.64,-122.67 80.58,-373.22 401.6,-645.63 782.32,-663.57 207.49,-9.79 395.4,47.31 559.83,174.87 172.58,133.76 277.96,308.95 315.47,524.59 4.89,27.73 7.83,55.79 11.42,83.84 0,36.21 0,72.1 0,108.31 -0.98,4.24 -1.96,8.48 -2.61,12.72 -9.46,53.18 -14.68,107.66 -29.04,158.88 -111.9,394.75 -488.38,648.56 -899.44,606.48 -197.05,-19.9 -367.02,-100.81 -507.63,-239.79 -134.74,-133.11 -214.99,-294.6 -240.76,-482.51 -3.26,-24.47 -5.87,-49.26 -8.48,-73.73zm831.26 -778.41c-22.18,0 -45.02,-0.33 -67.21,0 -8.16,0 -16.64,1.31 -24.79,1.96 -164.1,13.05 -311.89,69.16 -444.66,165.73 -61.66,44.69 -113.21,98.52 -137.67,171.93 -15.01,45.35 -24.14,93.31 -30.34,140.94 -21.86,166.38 -7.83,330.48 38.17,491.64 31.97,113.53 82.21,218.58 151.37,314.17 55.46,76.01 131.8,122.01 218.58,152.35 192.81,66.88 388.23,70.47 583.32,14.35 131.8,-37.84 239.79,-106.35 305.03,-236.52 88.41,-176.17 140.28,-359.19 141.91,-556.89 0.65,-77.97 -5.87,-155.94 -18.27,-232.94 -18.92,-116.14 -74.38,-209.45 -174.87,-273.06 -164.42,-104.4 -345.16,-154.64 -540.58,-153.66z"/>
     <path fill="#FEFEFE" fill-rule="nonzero" d="M255.12 605.6c2.61,-60.35 2.28,-116.79 8.81,-172.26 7.5,-65.25 44.37,-111.9 106.35,-137.35 81.89,-33.6 168.01,-52.2 255.45,-64.27 95.26,-13.38 191.18,-18.27 287.42,-15.01 116.47,3.92 231.3,17.62 341.25,58.4 23.82,8.81 46.65,19.25 69.49,30.67 60.03,30.01 87.76,82.87 97.55,146.16 5.55,34.58 5.87,69.81 6.85,104.72 5.87,232.94 -28.06,460.32 -99.83,682.17 -14.35,43.72 -30.01,86.13 -46,129.19 -2.28,6.2 -6.52,11.74 -11.42,16.31 -46.33,42.08 -102.77,64.27 -162.14,80.58 -107.99,29.36 -218.26,34.58 -329.18,27.73 -82.86,-4.89 -164.75,-17.29 -243.05,-45.35 -18.6,-6.85 -37.19,-15.01 -55.13,-23.82 -36.21,-17.62 -61.33,-44.37 -77.32,-82.86 -76.99,-183.02 -125.93,-373.22 -140.61,-571.57 -4.57,-55.46 -5.87,-111.57 -8.48,-163.45zm615.62 587.23c0,-107.66 0,-214.01 0,-320.69 33.6,0 64.27,0 96.89,0 0,107.66 0,213.36 0,320.69 24.14,0 46,0 69.49,0 0.33,-4.89 0.65,-8.81 0.65,-13.05 0,-173.23 0,-346.14 0,-519.05 0,-6.52 -1.63,-13.38 -4.89,-19.57 -18.27,-38.17 -37.52,-76.01 -56.11,-113.86 -3.92,-8.81 -9.13,-11.74 -18.92,-11.42 -44.37,0.65 -88.74,0.33 -132.78,0.33 -18.92,0 -18.92,0 -18.92,18.92 0,213.36 0,426.72 0,640.74 0,5.87 0,11.42 0,17.94 21.21,-0.98 41.11,-0.98 64.6,-0.98zm-250.23 -674.01c-67.53,0 -134.74,0 -200.96,0 0,226.08 0,450.86 0,676.29 23.49,0 45.67,0 69.49,0 0,-107.99 0,-214.67 0,-323.96 35.89,0 70.14,0 103.74,0 0,-26.1 0,-50.24 0,-76.01 -35.23,0 -69.16,0 -103.09,0 0,-67.53 0,-134.08 0,-201.62 44.04,0 86.78,0 130.82,0 0,-26.1 0,-49.92 0,-74.71zm574.84 75.69c24.47,0 46.98,0 70.47,0 0,-26.43 0,-51.22 0,-75.69 -71.45,0 -141.59,0 -211.73,0 0,25.77 0,49.91 0,75.69 23.16,0 44.69,0 70.47,0 0,200.31 0,398.99 0,598.32 25.77,0 47.31,0 71.12,0 -0.33,-198.68 -0.33,-397.69 -0.33,-598.32zm-473.05 600.61c0,-226.74 0,-452.17 0,-678.25 -23.82,0 -46,0 -68.18,0 0,226.74 0,452.17 0,678.25 22.84,0 45.02,0 68.18,0z"/>
     <path fill="#FEFEFE" fill-rule="nonzero" d="M966.98 779.48c-32.95,0 -63.62,0 -94.61,0 0,-62.64 0,-124.62 0,-188.24 17.94,0 35.56,-0.33 53.5,0.33 2.94,0 6.85,4.89 8.16,8.16 10.44,24.79 20.55,49.26 30.67,74.06 0.98,2.28 1.96,4.89 1.96,7.18 0.33,32.3 0.33,65.25 0.33,98.52z"/>
    </g>
   </g>
  </g>
 </g>
</svg>
