<svg xmlns="http://www.w3.org/2000/svg" xml:space="preserve" width="200mm" height="170.557mm" version="1.1" style="shape-rendering:geometricPrecision; text-rendering:geometricPrecision; image-rendering:optimizeQuality; fill-rule:evenodd; clip-rule:evenodd"
viewBox="0 0 2375.64 2025.91">
 <g id="Layer_x0020_1">
  <metadata id="CorelCorpID_0Corel-Layer"/>
  <g id="_2987564638176">
   <path fill="#FEFEFE" d="M1161.31 1.17c-113.3,7.26 -193.89,28.02 -284.46,71.7 -251.2,121.12 -410.81,387.36 -398.13,669.01 17.89,397.36 351.06,698.21 741.21,681.58 381.49,-16.27 697.64,-337.89 680.44,-740.97 -6.09,-142.71 -57.18,-286.75 -138.43,-393.26 -53.41,-70.02 -109,-124.7 -183.03,-172.73 -117.04,-75.93 -269.83,-124.78 -417.6,-115.32zm-16.02 77.47c-94.33,7.65 -173.94,31.33 -247.09,69.22 -85.77,44.43 -144.1,96.48 -198.13,159.7 -17.12,20.03 -35.61,46.46 -49.87,69.36 -114.08,183.23 -129.56,433.63 -25.37,626.1 31.5,58.19 43.31,72.97 79.62,119.13 59.33,75.4 166.47,148.51 255,182.35 173.8,66.43 355.15,55.27 519.8,-26.94 34.67,-17.31 70.09,-40.58 97.24,-61.78 277.61,-216.69 331.49,-609.66 116.05,-890.94 -127,-165.82 -335.82,-263.33 -547.25,-246.19z"/>
   <path fill="#FEFEFE" d="M1559.89 373.63c-17.38,7.11 -33.76,35.11 -45.01,51.04 -13.72,19.42 -27.78,37.09 -41.02,56.37l-123.15 169.07c-68.81,92.19 -135.99,188.84 -204.43,280.57 -27.64,37.04 -55.04,74.68 -82.03,112.75 -35.8,50.49 -9.01,61.56 35.27,124.9 11,15.74 49.26,72.16 63.57,81.52 10.73,7.02 23.96,10.72 38.88,6.82 22.97,-6 35.79,-29.33 48.51,-46.88 13.87,-19.14 27.36,-37.44 40.86,-56.54l409.13 -562.89c6.39,-8.56 13.5,-19.62 14.01,-33.57 0.88,-23.87 -37.15,-65.27 -55.64,-90.9 -14.11,-19.55 -27.33,-38.2 -41.15,-56.27 -12.27,-16.03 -26.64,-48.72 -57.8,-35.99z"/>
   <path fill="#FEFEFE" d="M1194.48 371.57c-37.49,6.82 -52.86,39.55 -78.19,73.89 -21.61,29.29 -42.22,58.9 -64.42,88.67 -2.84,3.8 -184.75,251.63 -190.78,264.48 -16.46,35.08 13.75,59.46 42.49,100.51 6.26,8.94 57.62,81.09 65.44,87.64 14.92,12.49 37.79,16.68 57.16,4.7 14.59,-9.03 25.48,-27.84 35.82,-41.72 64.13,-86.06 127.68,-177.99 191.43,-263.79 16.53,-22.25 186.03,-251.2 190.72,-266.54 7.09,-23.19 -4.78,-43.18 -22.9,-47.75 -9.21,-2.32 -213.91,-2.44 -226.77,-0.1z"/>
   <path fill="#FEFEFE" d="M1548.92 1709.94c-56.52,11.32 -73.86,47.55 -73.78,111.23 0.07,50.32 -8.21,131.97 17.19,166.82 32.31,44.35 82.37,36.68 148.92,36.68 34.23,0 160.87,2.32 184.95,-2.5 56.85,-11.38 73.69,-48.31 73.64,-111.57 -0.04,-50.74 8.57,-131.91 -17.45,-167.59 -31.15,-42.71 -86.77,-35.93 -149.7,-35.93 -36.66,0 -156.37,-2.63 -183.76,2.85zm36.29 86.38c-15.09,3.51 -15.64,15.07 -15.58,30.78 0.05,15.91 0.04,31.82 0.04,47.73 0,72.9 -12.18,60.88 127.23,60.88 18.95,0 79.84,2.35 93.72,-1.07 21.9,-5.4 15.27,-41.67 15.27,-77.69 0,-74.05 14.78,-61.61 -126.88,-61.61 -19.65,0 -79.19,-2.41 -93.8,0.99z"/>
   <path fill="#FEFEFE" d="M554.64 1709.53c-56.13,9.47 -75.72,46.97 -75.72,109.65 0,48.74 -7.59,134.21 16.43,167.97 31.79,44.71 81.71,37.53 148.09,37.53 33.84,0 161.69,2.22 185.21,-2.2 55.79,-10.49 75.32,-48.05 75.32,-109.87 -0,-51.16 8.18,-131.29 -16.75,-168.26 -28.81,-42.71 -86.88,-37.25 -148.36,-37.25 -36.18,0 -157.26,-2.11 -184.2,2.44zm34.72 86.77c-22.97,5.47 -16.14,40.87 -16.14,78.53 -0,44.44 -5.31,61.06 34.39,60.91 31.48,-0.12 167.95,4.02 187.17,-1.15 13.2,-3.54 14.97,-14.13 14.94,-29.87 -0.03,-15.93 -0.04,-31.86 -0.04,-47.78 0,-70.98 16.71,-61.61 -126.48,-61.61 -19.15,0 -79.86,-2.36 -93.83,0.97z"/>
   <path fill="#FEFEFE" d="M815.75 371c-32.23,4.21 -40.97,21.88 -55.18,40.8l-80.26 110.54c-17.26,24.78 -21.5,40.51 -1.21,68.6 27.07,37.48 53.89,73.83 81.17,111.6 13.13,18.18 25.31,40.3 59.93,35.35 25.86,-3.69 38.56,-27.96 51.38,-46.14 26.27,-37.28 54.05,-72.96 80.5,-110.33l101.04 -139.47c7.9,-10.83 14.84,-16.51 13.77,-33.94 -2.31,-37.76 -37.64,-37.56 -59.72,-37.54 -30.64,0.03 -174.34,-1.7 -191.43,0.53z"/>
   <path fill="#FEFEFE" d="M1985.49 2024.51l93.62 0.18 0.85 -229.24 173.49 -0.12c17.76,0 27.82,7.66 27.82,25.83l0 203.51 94.38 0 0 -217.42c0,-103.45 -79.77,-100.16 -146.05,-100.16 -38.15,0 -223.22,-2.3 -244.13,0.76l0.03 316.66z"/>
   <path fill="#FEFEFE" d="M0.24 2023.03l94.08 0.88 0 -88.24 222.36 -0.01 0.65 -84.63 -222.5 -0.47c-1.66,-16.89 -2.33,-40.66 3.47,-53.4 37.4,-7.74 259.75,2.74 291.73,-2.58l0.2 -87.68 -176.13 -0.2c-87.76,0 -179.79,-18 -207.12,56.36 -8.92,24.28 -6.74,54.3 -6.74,81.96 0,59.34 -0.01,118.67 0,178.01z"/>
   <path fill="#FEFEFE" d="M974.86 1794.94c25.37,0 154.63,-2.89 168.42,1.43l0.62 227.08c18.15,0.01 80.35,2.35 93.36,-1.49l0.2 -225.72 167.72 -0.12 -0 -89.03 -430.56 0 0.24 87.85z"/>
   <path fill="#FEFEFE" d="M1237.26 2021.96c-13.01,3.84 -75.21,1.5 -93.36,1.49l-0.62 -227.08c-13.79,-4.32 -143.06,-1.43 -168.42,-1.43l2.9 1.45c8.89,1.92 141.72,-0.84 163.85,0.98 -0.01,30.15 -2.97,214.41 1.58,227.58l70.71 0.55c14.76,0.01 19.59,2.18 23.37,-3.54z"/>
  </g>
 </g>
</svg>
