<svg xmlns="http://www.w3.org/2000/svg" xml:space="preserve" width="200mm" height="107.586mm" version="1.1"
     style="shape-rendering:geometricPrecision; text-rendering:geometricPrecision; image-rendering:optimizeQuality; fill-rule:evenodd; clip-rule:evenodd"
     viewBox="0 0 1663.81 895.01"
>

 <g id="Layer_x0020_1">
  <metadata id="CorelCorpID_0Corel-Layer"/>
     <g id="_2987495895920">
   <path fill="#FEFEFE"
         d="M826.71 493.04l48.13 -0.65c22.85,0.03 61.66,-4.93 81.9,-7.21 29,-3.26 74.72,-9.85 103.84,-14.54 34.54,-5.57 68.79,-9.88 101.81,-16.57 12.73,-2.58 11.97,-1.21 13.72,-15.55 1.07,-8.76 1.59,-17.87 2.58,-27.34 2.85,-27.09 4.11,-55.17 6.95,-82.16l3.36 -40.87c0.13,-4.29 1.16,-9.37 1.3,-13.66 0.3,-9.5 2.8,-27.01 3.45,-37.04 0.15,-2.34 3.48,-3.37 -13.95,-1.43l-14.21 0.75c-3.27,-0.03 -4.3,0.3 -6.6,0.56l-21.37 1.39c-5.35,0.26 -8.84,0.48 -14.33,0.63 -5.28,0.15 -13.57,1.32 -20.81,1.3 -3.58,-0.01 -4.18,0.52 -7.13,0.67 -19.07,1.02 -37.69,1.81 -55.98,3.21l-56.55 2.64c-5.52,-0.02 -8.27,0.68 -13.65,0.66l-73.5 1.3c-19.12,0 -120.48,0.84 -127.86,-0.27 -12.69,-1.92 -31,1.25 -43.58,-0.65 -6.74,-1.02 -14.66,-0.41 -21.74,-0.37l-21.46 -0.65c-4.56,0.02 -6.49,-0.63 -10.38,-0.68 -3.49,-0.04 -7.65,0.27 -11.05,-0.01l-184.11 -11.02c-2.92,-0.14 -2.36,-0.59 -5.2,-0.65l6.5 89.11c0.41,16.28 4.2,43.31 5.22,61.77l6.01 61.63c1.1,7.18 -1.04,4.59 11.91,6.96 5.48,1 11.61,2.18 16.64,2.87 21.15,2.94 44.94,7.4 66.35,10.4l100.82 14.3c44.92,6.46 91.91,11.17 142.98,11.17z"/>
         <path fill="#FEFEFE"
               d="M459.86 3.25c0,20.08 2.66,50.52 2.6,70.25 -0.06,19.88 2.71,50.63 2.6,70.25 -0.03,5.97 0.55,10.99 0.63,17.58l2.47 43.06c0.51,3.88 0.33,4 3.94,5.17 10.95,3.53 55.76,5.1 67.77,5.74 4.78,0.25 12.12,1.05 16.91,1.31 6.32,0.33 11.2,0.3 17.57,0.64 12.87,0.69 20.62,1.78 34.5,1.93l60.44 3.3c3.12,0.09 6.68,-0.24 9.74,0.01l87.84 3.22c6.06,-0 12.19,-0.1 18.24,-0.03 3.69,0.05 4.5,0.69 8.41,0.7 3.04,0 6.09,-0.02 9.13,-0.02l78.73 0.02c3.91,-0 4.72,-0.65 8.41,-0.7 5.83,-0.07 11.75,0.02 17.59,0.03l51.38 -1.95c2.63,-0.14 5.78,-0 8.47,0.01 3.96,0.02 5.33,-0.49 8.44,-0.66 2.94,-0.16 6.16,0.11 9.13,0.02l25.37 -1.3c3.77,-0 4.43,-0.59 7.76,-0.69l42.92 -1.96c22.22,-1.82 44.82,-2.65 67.68,-3.87l33.19 -1.93c3.22,-0.09 30.93,-1.98 32.36,-3.42 1.78,-1.8 1.59,-27.55 2.19,-32.93 1.1,-9.77 1.07,-16.21 1.18,-25.49 0.05,-3.69 0.69,-4.5 0.7,-8.41l1.28 -33.84c-0.05,-11.59 1.32,-23.01 1.3,-34.47l1.28 -61.16c0.1,-3.39 0.67,-4.43 0.67,-8.43 -12.11,-2.82 -143.57,-3.25 -160.66,-3.25 -8.37,0 -15.08,-0.67 -22.77,-0.65 -15.61,0.04 -31.22,0 -46.83,0 -16.18,0 -30.4,-0.65 -46.18,-0.65 -15.61,0 -31.22,0 -46.83,0 -15.17,0 -32.6,0.81 -47.49,0 -3.57,-0.19 -6.3,-0.64 -10.75,-0.65l-0.94 0 -0.58 0 -81.64 0c-10.35,0.16 -18.4,0.44 -21.59,0.93 -7.24,1.1 -15.48,0.13 -23.06,0.36l-22.74 0.67c-8.03,0 -16.06,-0.03 -24.09,-0.02 -4.25,0.01 -6.27,0.7 -11.03,0.68 -58.68,-0.3 -117.2,0.65 -175.62,0.65z"/>
         <path fill="#FEFEFE"
               d="M1219.58 206.84c0,1.95 4.88,1.3 7.8,1.3 13.37,0 32.97,-1.85 47.49,-2.6 15.25,-0.78 33.4,-2.89 48.14,-3.24l148.93 -11.08c3.75,-0.18 9.27,-1.11 13.02,-1.29 21.47,-1.02 46.55,-4.15 68.28,-5.22 10.75,-0.53 28.87,-2.96 39.7,-3.23l67.64 -5.86 2.51 -23.51c0.83,-7.41 1,-34.37 0.19,-41.63 -0.28,-2.46 -0.1,-5.82 -0.09,-8.37 0.05,-8.46 -2.67,-33.4 -4.41,-39.82 -4.15,-15.26 -19.22,-30.79 -33.4,-36.85 -19.37,-8.27 -50.81,-9.9 -75.33,-11.83l-150.94 -6.47c-5.5,-0.3 -11.96,0 -17.57,0 -6.57,0 -10.54,-0.67 -16.91,-0.65 -5.64,0.01 -11.28,0 -16.91,0 -6.54,0 -10.95,-0.69 -16.91,-0.65 -5.85,0.03 -11.71,0 -17.57,0 -6.58,0 -10.72,-0.68 -16.91,-0.65 -5.85,0.02 -11.71,0 -17.56,0 -6.45,0 -11.2,-0.69 -16.9,-0.66l-26.04 0.02c-3.95,0.02 -5.17,-0.67 -8.44,-0.67l-1.95 50.73c0.01,4.99 -0.44,8.37 -0.65,12.36 -0.22,4.16 0.31,8.87 -0.03,12.98l-1.28 25.39c0.03,4.88 -0.1,8.51 -0.55,12.46l-0.75 25.27c0.01,5.34 -0.69,8.22 -0.67,12.99 0.07,17.38 -1.94,33.33 -1.94,50.75z"/>
         <path fill="#FEFEFE"
               d="M-0 98.22c0,13.62 0.45,65.23 2.95,73.8 1.21,4.17 7.66,3.94 12.29,4.62 4.91,0.72 10.28,1.51 15.33,1.58l31.91 2.56c5.48,0.42 10.66,0.93 15.61,1.3l31.18 2.64c12.66,0.4 34.89,3.27 47.49,3.89l31.87 2.61c5.64,0.27 10.59,0.87 15.64,1.27 5.62,0.44 10.39,0.24 15.85,1.06l111.42 7.61c4.55,0.61 10.56,0.88 15.78,1.13 12.56,0.6 33.86,3.21 47.5,3.89 12.9,0.64 37.84,3.26 48.12,3.26l-2.63 -76.73c-0.1,-7.95 -0.36,-14.11 -0.6,-22.16l-2.62 -53.97c0.03,-4.77 -0.67,-6.77 -0.68,-11.03 -0.01,-8.2 -0.63,-13.96 -0.63,-22.14 0,-25.66 5.01,-18.14 -26.02,-18.21 -7.6,-0.02 -40.44,-0.46 -45.26,0.27 -13.73,2.08 -31.05,-1.33 -44.78,0.75 -6.26,0.95 -33.3,-0.1 -45.29,0.89l-33.15 0.68c-4.72,-0.03 -6.5,0.69 -11.03,0.67l-76.15 3.2c-3.69,0.31 -7.92,-0.28 -11.58,0.13l-43.68 2.5c-9.51,-0.09 -32.02,3.13 -40.8,4.73 -15.48,2.82 -24.09,7.73 -34.55,16.18 -19.69,15.89 -23.51,36.09 -23.51,63z"/>
         <path fill="#FEFEFE"
               d="M1200.72 443.6l0 3.9c3.21,0 5.87,-0.86 9.02,-1.39 55.27,-9.2 118.84,-22.58 173.26,-34.23 57.07,-12.21 146.51,-31.94 196.93,-65.19 2.23,-1.47 4.29,-3.02 6.49,-4.57 5.93,-4.16 21.67,-17.48 26.18,-22.6 28.1,-31.92 33.6,-53.08 42.07,-95.17 1.69,-8.42 2.65,-13 2.65,-22.07 0,-3.82 -4.38,-2.24 -7.17,-1.97l-70.94 6.48c-13.52,1.05 -26.79,2.57 -40.26,3.32 -2.46,0.14 -7.36,0.42 -10.25,0.81 -15.41,2.06 -36.69,2.05 -50.54,4.1 -10.47,1.55 -30.05,1.77 -41.26,2.97 -5.98,0.64 -14.2,1.5 -20.28,1.84l-61.16 4.54c-1.68,0.13 -3.45,-0.06 -5.13,0.07l-107.37 7.76c-2.69,0.02 -7.2,0.45 -10.21,0.84 -2.59,0.34 -7.45,0.62 -10.11,0.95 -2.87,0.35 -3.61,-1.61 -4.33,6.73 -0.92,10.71 -3.55,30.92 -3.95,40.28l-9.11 100.81c-0.16,6.26 -1.22,14.34 -1.85,20.26 -0.34,3.17 -0.66,7.61 -0.75,10.31 -0.32,10.32 -1.95,19.97 -1.95,31.22z"/>
         <path fill="#FEFEFE"
               d="M460.51 446.2c2.98,0 1.75,-3.18 1.52,-4.69l-0.83 -13.55c-0.19,-2.36 0.11,-4.54 -0.21,-6.94 -0.41,-2.99 -1.02,-9.85 -1.12,-13.19 -0.14,-4.63 -0.76,-9.59 -1.2,-13.76l-2.07 -26.55c-0.46,-8.36 -1.62,-18.57 -2.48,-26.79 -1.62,-15.34 -2.59,-38.94 -4.47,-53.42l-4.74 -53.15c-4.66,-1.08 -51.41,-4.03 -61.79,-4.55 -8.32,-0.42 -27.36,-2.57 -34.45,-2.62l-41.55 -2.68c-16.55,-1.81 -40.14,-2.24 -55.56,-4.28 -8.84,-1.17 -33.44,-1.91 -41.17,-3.06l-192.36 -15.79c-4.59,-0.63 -8.91,-1.5 -13.46,-1.5 0,4.45 5.58,33.17 6.5,37.07 2.95,12.42 5.66,23.12 9.85,34.38 6.24,16.77 16.38,35.25 29.02,47.73 2.01,1.98 3.2,4.07 5.35,5.71l11.43 10.03c4.39,3.43 8.13,6.27 12.77,9.34 35.01,23.24 84.83,40.06 125.27,50.35 11.31,2.88 23.75,6.35 35.42,8.81l35.61 7.97c33.81,8.03 75.53,15.51 109.65,22.39l55.56 10.14c5.61,0.93 13.43,2.6 19.51,2.6z"/>
         <path fill="#FEFEFE"
               d="M-0 716.79l0 113.83c0,12.34 0.8,34.75 4.35,43.14 2.65,6.27 5.77,8.96 11.23,12.19 2.59,1.54 13.34,8.42 15.65,8.42l283.59 0 0 -141.8c-9.1,0 -16.07,0.65 -24.72,0.65l-78.05 0c-17.92,0 -33.68,0.65 -51.38,0.65 -17.35,0 -34.69,0 -52.03,0l0 39.03c27.29,0 53.5,0.65 81.31,0.65 14.25,0 26.45,0.65 40.33,0.65 13.66,0 27.32,0 40.98,0l0 58.54 -227.66 0 0 -102.77c0,-7.08 0.69,-12.5 0.65,-18.86 -0.03,-6.29 0.01,-12.59 -0.02,-18.88l1.32 -18.2c25.8,0 51.6,0 77.4,0 26.42,0 50.85,-0.65 77.4,-0.65l106.68 0.01c4.3,0.04 6.82,1.21 7.22,-2.54 0.25,-2.31 -0.07,-7.24 -0.08,-9.84 -0.02,-4.16 0.65,-5.31 0.69,-9.06 0.04,-3.17 -0.2,-6.66 -0.03,-9.79 0.17,-3.23 0.65,-4.98 0.65,-9.1l-284.89 0c-2.12,0 -12.9,6.65 -15.23,8.19 -5.19,3.42 -8.85,5.92 -11.05,12.36 -3.56,10.43 -4.29,29.3 -4.29,43.19z"/>
         <path fill="#FEFEFE"
               d="M757.77 660.2c0,61.7 0.52,122.45 1.28,183.45 0.05,3.9 0.72,5.8 0.68,10.38 -0.04,4.69 0.33,6.83 0.7,11.01 0.68,7.63 3.14,11.62 7.58,15.84 2.74,2.61 9.74,7.83 13.44,9.32 7,2.82 11.86,2.19 20.53,2.89 12.34,1 39,-0.08 45.39,0.79 11.32,1.55 32.57,0.47 45.71,0.47l172.37 0 0 -41.63 -263.43 0 0 -58.54c21.25,0 42.5,0 63.74,0 21.49,0 41.28,-0.65 63.09,-0.65 43.17,0 84.83,-0.65 127.49,-0.65l0.93 -21.19c0.82,-5.39 0.04,-10.74 0.54,-15.86 0.16,-1.64 1.16,-3.27 -1.47,-3.27l-254.97 0c0,-5.67 0.69,-9.34 0.67,-14.29l0.63 -44.25 245.87 -0.65c12.49,0 15.49,1.71 15.68,-3.18 0.48,-12.2 1.23,-24.3 1.23,-37.14l-307.66 0 0 7.16z"/>
         <path fill="#FEFEFE"
               d="M386.36 803.95c0,4.55 0.01,9.11 0,13.66 -0.01,5.27 0.67,8.51 0.67,12.99 0.01,4.5 -0.18,9.23 -0.04,13.7 0.09,3.12 0.53,2.97 0.67,5.83 0.13,2.55 -0.1,4.33 0.26,6.89 2.83,19.76 2.92,22.46 17.5,30.64 1.81,1.01 2.56,1.72 4.61,2.55 10.61,4.3 36.4,3.51 51.78,3.51 9.58,0 16.93,0.65 26.67,0.65l204.24 0 0 -40.33c-87.08,0 -174.65,-1.3 -262.13,-1.3l0 -58.54c21.25,0 42.5,0 63.74,0 21.66,0 41.3,-0.65 63.09,-0.65 43.14,0 84.9,-0.65 127.49,-0.65l0 -39.03c-21.25,0 -42.5,0 -63.74,0 -21.94,0 -41.76,-0.65 -63.74,-0.65 -31.87,0 -63.74,0 -95.61,0 -11.44,0 -20.56,-0.65 -31.87,-0.65l0.75 -29.17c0.5,-4.5 0.56,-8.99 0.56,-14.41l0.65 -14.96 245.87 -0.65c3.04,0 6.09,-0.03 9.13,0.02 10.33,0.18 3.82,-1.25 6.66,-21.96 0.72,-5.28 -0.05,-13.34 1.12,-18.39l-308.31 0 0 150.9z"/>
         <path fill="#FEFEFE"
               d="M1470.65 894.36c2.64,0.22 1.62,0.65 5.85,0.65 13.16,0 24.44,-1.3 37.08,-1.3l0 -89.76c0,-2.35 34.66,-35.64 36.91,-37.89 6.44,-6.44 110.53,-109.79 112.69,-113.01l-52.73 -0.05c-5.17,0 -4.57,1.08 -10.85,7.36l-70.9 70.9c-3.13,3.13 -33.23,33.8 -35.94,35.61 -2.75,-4.11 -99.96,-99.95 -110.41,-110.74 -2.24,-2.31 -1.87,-3.06 -5.97,-3.14l-54.04 0.05c2.07,3.1 8.77,9.1 11.87,12.2 4.17,4.17 7.86,7.86 12.03,12.03l115.78 115.78c9.61,9.61 7.32,3.39 7.32,29.11 0,8.24 0,16.48 0,24.72 0,8.62 0.66,15.39 0.65,23.42l-0 18.22c0.13,2.5 0.65,3.18 0.65,5.85z"/>
         <path fill="#FEFEFE"
               d="M1131.77 829.96c0,7.89 0.41,29.16 1.87,36.5 3.32,16.59 21.16,26.48 37.78,26.62 8.16,0.07 15.81,0.63 24.74,0.63 8.55,0 17.55,-0.28 26.04,-0.02l179.5 0.67c1.5,0 1.95,-0.45 1.95,-1.95l0 -39.68 -228.3 0 0 -199.69 -43.58 0 0 176.92z"/>
  </g>
 </g>
</svg>
