<svg width="115" height="56" viewBox="0 0 115 56" fill="none" xmlns="http://www.w3.org/2000/svg">
<path fill-rule="evenodd" clip-rule="evenodd" d="M79.25 0.0380859C76.7561 0.192895 63.975 13.8161 61.4811 16.2931C58.6755 19.0797 55.4802 21.9436 52.9084 24.885C49.4793 28.7552 52.0511 34.7928 57.3506 34.7154C60.9356 34.638 65.2219 29.3745 67.0924 27.4394L84.2378 10.4103C89.2255 5.37901 85.173 0.192895 82.2894 0.115491C81.4321 0.0380859 80.1073 0.0380859 79.1721 0.115491L79.25 0.0380859Z" fill="white" fill-opacity="0.6"/>
<path fill-rule="evenodd" clip-rule="evenodd" d="M55.7126 0.116107C53.6863 0.116107 52.0497 2.51565 50.8807 3.59932C49.4 5.07001 48.153 6.30849 46.6723 7.77918L29.4489 24.8082C25.7861 28.2914 28.4358 34.4064 33.3456 34.6386C37.2423 34.7934 41.3728 29.4525 43.2432 27.5948L60.3886 10.5657C66.1557 4.76039 61.168 0.193512 58.752 0.116107C57.6609 -0.0387024 56.7257 -0.0387024 55.6347 0.116107H55.7126Z" fill="white" fill-opacity="0.6"/>
<path fill-rule="evenodd" clip-rule="evenodd" d="M78.7044 23.492C71.3007 26.4334 75.8208 36.9604 82.9128 34.4061C85.5625 33.4772 87.5109 30.2262 86.2639 26.8204C85.3287 24.1887 82.0555 22.1761 78.7044 23.492Z" fill="white" fill-opacity="0.6"/>
<path fill-rule="evenodd" clip-rule="evenodd" d="M32.0989 0.0391422C26.9552 -0.0382626 25.5524 10.7984 33.2679 11.2628C41.373 11.7273 40.9833 0.426166 35.2941 0.116547C34.3589 0.0391422 33.112 -0.0382626 32.0209 0.0391422H32.0989Z" fill="white" fill-opacity="0.6"/>
<path fill-rule="evenodd" clip-rule="evenodd" d="M9.03083 55.6932C9.03083 53.6806 8.48529 50.0426 9.57636 48.5719C10.8233 48.8816 10.5116 48.8816 11.0571 50.3522C11.3688 51.2037 11.6026 51.9777 11.8364 52.8292C12.4599 54.6095 13.1613 55.7706 15.4214 55.7706C18.6167 55.7706 18.7725 53.4484 19.7857 50.3522C20.3312 48.8042 20.0195 48.8042 21.2664 48.5719C22.3575 50.12 21.734 53.6806 21.734 55.7706H24.4617C24.4617 51.8229 25.5528 46.0176 21.1885 46.0176C16.6683 46.0176 17.9932 52.0551 15.3435 53.2936C12.6937 52.0551 14.1745 46.0176 9.49843 46.0176C5.05621 46.0176 6.22521 51.7455 6.22521 55.848L8.95289 55.6932H9.03083Z" fill="white" fill-opacity="0.6"/>
<path fill-rule="evenodd" clip-rule="evenodd" d="M98.8879 50.5065L96.1603 50.8936L90.2373 50.8162V47.3329H96.5499L98.8879 47.6426C99.3555 48.881 99.3555 49.2681 98.9659 50.5065H98.8879ZM89.1462 46.1719C88.3669 48.2618 88.9124 53.2931 88.9124 55.8475C91.3284 55.7701 89.9256 54.996 90.4711 52.3643C98.4983 52.3643 99.2776 51.5128 99.3555 55.8475H100.758C100.758 53.6027 100.836 53.0609 99.5114 51.8998C103.096 45.3204 96.5499 45.7848 90.7049 46.0945L89.1462 46.2493V46.1719Z" fill="white" fill-opacity="0.6"/>
<path fill-rule="evenodd" clip-rule="evenodd" d="M31.3972 55.8478C33.8911 55.693 32.5662 53.8353 32.8 47.4107L33.2677 47.7977C33.3456 47.8751 33.4235 47.9525 33.5015 48.0299L35.1381 50.7391C38.9568 57.7829 41.2169 48.1847 43.1652 47.4881C43.2432 49.0362 43.2432 50.6617 43.2432 52.2098C43.1652 56.7766 43.0873 55.4608 43.9446 55.8478C45.0356 55.3834 44.646 55.6156 44.646 53.6805C44.646 51.5905 44.9577 47.1785 43.9446 46.4044C40.5155 44.8563 40.5155 50.7391 38.0995 51.7453C36.7747 51.2035 35.9953 49.2684 35.3719 48.0299C34.9043 47.1785 34.5925 46.5592 33.8132 46.2496C30.3062 44.8563 31.3972 52.9838 31.3972 55.8478Z" fill="white" fill-opacity="0.6"/>
<path fill-rule="evenodd" clip-rule="evenodd" d="M110.812 55.8471C113.695 55.8471 115.721 53.912 113.929 51.7447C112.916 50.5062 109.175 50.3514 107.149 50.0418C103.33 49.4999 103.486 47.3326 107.928 47.41C109.253 47.41 110.656 47.41 111.981 47.4874C114.319 47.5648 114.397 47.9518 114.474 46.0941C111.045 46.0941 102.317 44.6234 103.252 49.1903C103.72 51.2802 105.98 51.2802 108.162 51.5899C112.37 52.2091 113.072 51.8221 112.916 53.9894C111.591 54.7634 109.798 54.5312 107.85 54.4538C103.875 54.4538 103.72 53.912 103.174 55.0731C103.486 55.9245 102.551 55.7697 104.577 55.7697H110.812V55.8471Z" fill="white" fill-opacity="0.6"/>
<path fill-rule="evenodd" clip-rule="evenodd" d="M84.8607 52.9063C83.7696 54.8414 76.5997 55.538 75.5087 52.7515C72.2354 44.5466 88.8353 45.785 84.8607 52.9063ZM77.3791 46.1721C71.534 47.5653 71.7678 58.0924 83.1462 55.538C87.5104 54.5318 87.0428 50.1197 86.1076 48.3394C84.7048 45.4754 80.0288 45.5528 77.3791 46.1721Z" fill="white" fill-opacity="0.6"/>
<path fill-rule="evenodd" clip-rule="evenodd" d="M50.1798 47.7199C51.9723 47.1006 56.1028 46.9458 57.4277 48.1843C58.8305 49.5002 58.6746 53.293 56.4925 54.0671C54.9338 54.6089 47.4521 56.0022 48.2315 49.9646C48.4653 48.3391 48.8549 48.1843 50.1798 47.6425V47.7199ZM46.9066 52.2093C47.4521 55.6152 51.115 56.0796 54.5441 55.8474C58.3629 55.6152 60.2333 53.9123 59.6098 49.7324C59.0643 46.3266 55.6352 45.7073 51.9723 46.017C48.1535 46.2492 46.3611 48.1843 46.9066 52.2868V52.2093Z" fill="white" fill-opacity="0.6"/>
<path fill-rule="evenodd" clip-rule="evenodd" d="M66.5456 46.0168C61.402 46.0168 60.6227 45.3202 60.4668 47.1005C61.7137 47.8746 64.3635 47.2553 66.0001 47.5649L65.9222 54.3766C66.156 56.3891 65.6884 55.3828 66.8574 55.6924C67.4029 55.0732 66.9353 56.0021 67.247 54.9958L67.325 47.5649C68.9616 47.2553 71.6113 47.8746 72.8583 47.1005C72.7024 45.475 72.0789 46.0168 70.1306 46.0168C68.8836 46.0168 67.7146 46.0168 66.4677 46.0168H66.5456Z" fill="white" fill-opacity="0.6"/>
<path fill-rule="evenodd" clip-rule="evenodd" d="M0.0685577 55.848L2.87417 55.6932V46.0176L0.0685577 45.9402V55.848Z" fill="white" fill-opacity="0.6"/>
</svg>
