
<svg xmlns="http://www.w3.org/2000/svg" xml:space="preserve" width="200mm" height="47.0584mm" version="1.1" style="shape-rendering:geometricPrecision; text-rendering:geometricPrecision; image-rendering:optimizeQuality; fill-rule:evenodd; clip-rule:evenodd"
viewBox="0 0 1663.81 391.48">
 <g id="Layer_x0020_1">
  <metadata id="CorelCorpID_0Corel-Layer"/>
  <g id="_2987543996656">
   <path fill="#FEFEFE" fill-rule="nonzero" d="M965.21 346.56c0,3.19 1.04,4.99 2.84,4.99 1.46,-0.2 2.85,-0.77 4.02,-1.66l518.55 -336.51c8.38,-5.87 18.39,-9.03 28.63,-9.03 0.43,0 0.89,0.01 1.32,0.02l113.97 -0c17.47,0 29.25,11.65 29.25,29.12l0 217.61c0,26.34 -5.82,41.6 -29.12,55.53l-138.23 83.19c-1.37,0.95 -2.98,1.53 -4.64,1.66 -1.66,0 -3.33,-1.32 -3.33,-6.1l0 -253.94c0,-2.98 -0.83,-4.92 -2.84,-4.92 -1.47,0.16 -2.87,0.74 -4.02,1.66l-378.93 246.17c-8.42,5.73 -18.4,8.81 -28.59,8.81 -0.17,0 -0.35,0 -0.53,0l-251.23 -0c-17.61,0 -29.26,-11.65 -29.26,-29.25l0 -313.63c0,-2.29 -1.04,-4.44 -3.05,-4.44 -1.44,0.19 -2.81,0.77 -3.95,1.66l-250.06 149.95c-2.5,1.66 -3.19,2.84 -3.19,4.02 0,0.97 0.55,2.01 2.22,3.81l178.65 178.51c2.36,2.36 4.02,4.16 4.02,6.17 0,1.66 -2.7,2.98 -5.82,2.98l-161.46 0c-12.69,0 -22.46,-1.8 -29.32,-8.67l-108.29 -108.15c-0.83,-0.99 -2.03,-1.6 -3.33,-1.67 -1.18,0.07 -2.32,0.43 -3.33,1.04l-180.94 108.84c-8.22,5.52 -17.92,8.48 -27.83,8.48 -0.49,0 -1.01,-0.01 -1.49,-0.02l-166.45 0c-17.82,0.14 -29.46,-11.65 -29.46,-29.05l0 -213.52c0,-26.34 5.82,-41.6 29.26,-55.46l139.2 -83.67c1.08,-0.69 2.33,-1.07 3.61,-1.11 2.22,0 3.33,2.08 3.33,6.93l0 285.9c0,2.98 0.69,4.37 2.84,4.37 1.49,-0.23 2.92,-0.8 4.16,-1.66l469.75 -282.78c8.38,-5.64 18.27,-8.66 28.38,-8.66 0.84,0 1.71,0.02 2.54,0.06l252.9 0c17.47,0 29.25,11.65 29.25,29.12l-0.14 313.21 0.14 0.07z"/>
  </g>
 </g>
</svg>
