<svg width="91" height="48" viewBox="0 0 91 48" fill="none" xmlns="http://www.w3.org/2000/svg">
<g clip-path="url(#clip0_31_343)">
<path fill-rule="evenodd" clip-rule="evenodd" d="M87.9822 24.7365C87.6171 28.673 85.5305 31.2973 83.0788 33.8167C80.5227 36.3885 75.7758 38.9604 71.8113 40.5875C56.2141 47.0433 33.1574 46.7284 17.7168 40.0101C11.5092 37.3333 2.17178 31.4548 3.00642 22.847C3.78888 15.0789 12.4482 9.83026 19.1774 7.15344C34.7745 0.90752 57.8312 0.90752 73.1675 7.73079C75.0976 8.57058 76.7147 9.46285 78.384 10.4601L81.9312 12.9795C83.0266 13.9242 83.0266 14.0292 83.9134 14.9215C86.313 17.1784 88.2952 21.2199 87.9301 24.8415L87.9822 24.7365ZM41.3473 0.120219C31.2795 0.75006 21.5248 2.69207 13.7523 6.891C11.8222 7.94074 10.0486 8.99047 8.48368 10.1977C6.76225 11.5098 5.35381 12.7695 4.10187 14.3966C1.54581 17.7033 -0.4886 22.0597 1.07633 27.5708C3.26724 35.0764 11.77 40.3775 19.699 43.3168C36.7046 49.6677 61.0132 49.0378 77.1842 40.6924C83.3396 37.4908 92.7814 30.3526 89.8602 19.9602C87.7736 12.5071 79.01 7.04847 71.2375 4.21418C62.526 1.06498 51.5193 -0.562108 41.3473 0.0677326V0.120219Z" fill="white" fill-opacity="1"/>
<path fill-rule="evenodd" clip-rule="evenodd" d="M5.51031 24.7365C4.72784 17.2833 14.0131 11.8247 19.7512 9.51531C34.5659 3.58431 55.1187 3.32188 69.9333 8.99045C75.6193 11.1424 84.8002 15.9712 85.4783 22.8994C85.7913 26.1011 83.9134 29.6702 81.9833 31.2973C81.7225 31.5072 81.7747 31.5072 81.5138 31.7697C80.5749 32.8194 77.6015 34.8664 76.1931 35.6537C59.031 45.4687 26.9499 45.2588 11.457 33.4492C9.26614 31.8222 5.92762 28.7254 5.51031 24.684V24.7365ZM41.0864 4.05669C31.0187 4.58156 19.9077 6.99595 11.7179 12.717C11.3527 12.9794 10.9876 13.1894 10.6224 13.5043L8.58801 15.2888C5.71896 18.1231 3.05858 22.427 5.19732 27.5183C7.70121 33.5017 15.5259 37.9106 22.9332 40.325C37.9044 45.2063 60.4394 44.9963 74.3673 37.7532C78.1753 35.7587 78.4883 35.5487 81.3052 33.2918C83.3396 31.6647 85.2697 29.1978 86.1043 26.626C88.0344 20.4325 83.2353 15.2364 78.4883 12.1921C68.1598 5.52632 53.6581 3.37437 41.0864 4.05669Z" fill="white" fill-opacity="1"/>
<path fill-rule="evenodd" clip-rule="evenodd" d="M41.7646 11.2473C41.7124 12.3495 42.4949 10.67 41.3994 13.9766C40.9821 15.3413 38.8955 21.1148 38.739 21.9021H41.3473C41.8689 21.2198 43.173 16.0761 43.7468 15.0788C44.0598 16.1286 44.2163 17.4407 44.4771 18.543C44.6336 19.2253 44.8423 21.5872 45.2596 21.9546H47.8156L51.415 11.1948H48.7024C48.4416 11.5097 48.2851 12.1921 48.1286 12.612L46.668 16.9159C46.1464 15.8661 46.042 12.4545 45.4682 11.1948C44.8944 11.1423 42.0776 11.0898 41.7124 11.2473H41.7646Z" fill="white" fill-opacity="1"/>
<path fill-rule="evenodd" clip-rule="evenodd" d="M53.3972 19.3302L55.2751 13.7667C58.3528 13.2943 57.8834 14.8164 57.1009 16.8634C56.3184 18.8579 56.0576 19.6977 53.3451 19.3302H53.3972ZM49.5892 21.9021C52.0931 21.9546 56.3184 22.217 57.9355 20.9048C58.092 20.7474 58.5093 20.38 58.6137 20.2225C59.8135 18.6479 61.3262 14.344 60.1264 12.507C59.0831 10.8799 56.4749 11.1423 54.3362 11.1423C51.415 11.1423 53.2407 11.0373 52.6669 12.8219L49.5892 21.9021Z" fill="white" fill-opacity="1"/>
<path fill-rule="evenodd" clip-rule="evenodd" d="M67.9511 26.7836C68.5771 26.6786 69.6725 26.7311 70.1942 26.8361C70.4028 27.4659 70.142 28.4107 69.6725 28.7256C69.2552 28.988 67.7424 28.9355 67.1686 28.9355L67.9511 26.7836ZM62.213 35.024H65.0299C65.3429 34.6566 66.1775 31.9273 66.334 31.2974H67.3251C67.7946 32.0847 68.0554 34.3941 68.5249 34.9715H71.3418L70.0377 31.1925C70.8723 30.8251 71.6026 30.8775 72.3329 29.4604C72.7502 28.6206 73.2719 27.3084 73.0632 26.1537C72.6981 23.6869 69.3074 24.1592 66.9078 24.1592C66.4905 24.1592 65.1864 24.0018 65.1342 24.3167C65.0821 24.6841 65.6037 24.5266 65.1864 25.7863C64.6647 27.3084 62.1608 34.3417 62.1087 34.919L62.213 35.024Z" fill="white" fill-opacity="1"/>
<path fill-rule="evenodd" clip-rule="evenodd" d="M28.6191 26.7836C29.2451 26.6786 30.3406 26.7311 30.8622 26.8361C31.0709 27.4134 30.81 28.4107 30.3406 28.7256C29.9232 28.988 28.4105 28.9355 27.7845 28.9355L28.567 26.7836H28.6191ZM22.8811 35.024H25.6979C25.9588 34.7091 26.8455 31.8748 27.002 31.3499L27.8888 31.2974C28.5148 31.7698 28.6191 34.2892 29.2451 35.024H32.062L30.7579 31.2449C31.5925 30.8775 32.2706 30.9825 33.0531 29.5129C33.5226 28.6206 33.9399 27.4659 33.8356 26.2062C33.5226 23.7393 30.0276 24.2117 27.6802 24.2117C27.2629 24.2117 25.9588 24.0543 25.9066 24.3692C25.8544 24.7366 26.3761 24.5791 25.9588 25.8388C25.4371 27.3084 22.9332 34.3942 22.8811 34.919V35.024Z" fill="white" fill-opacity="1"/>
<path fill-rule="evenodd" clip-rule="evenodd" d="M41.2951 28.3581C41.0864 29.4603 40.304 31.4548 39.678 32.0847C39.2085 32.5571 38.3739 32.7145 37.5914 32.5571C36.6003 32.3996 36.6525 31.8747 36.8089 30.93C36.9654 29.9852 37.9044 27.5708 38.3739 27.2034C38.8434 26.7835 41.7646 25.7863 41.2429 28.3581H41.2951ZM39.678 24.1592C36.3395 24.4216 35.1919 26.6261 34.3572 29.6178C33.2618 33.5543 34.5659 35.5488 38.739 35.1814C42.0254 34.919 43.173 32.662 43.9555 29.7228C44.9988 25.8388 43.7468 23.8443 39.678 24.2117V24.1592Z" fill="white" fill-opacity="1"/>
<path fill-rule="evenodd" clip-rule="evenodd" d="M35.0875 14.1342L35.0354 17.3883L33.1574 17.3358L35.0354 14.1342H35.0875ZM27.5758 21.9022H30.7057L32.0098 19.5403H35.1919V21.8497H38.0087L37.4871 12.2446C37.4349 10.8275 37.9566 11.0899 34.6702 11.0899C33.1053 11.0899 33.1053 10.9325 33.2618 11.5098C33.4704 12.2971 32.7923 13.0319 32.1142 14.1342C31.4882 15.2364 27.7845 21.2723 27.5758 21.8497V21.9022Z" fill="white" fill-opacity="1"/>
<path fill-rule="evenodd" clip-rule="evenodd" d="M53.3972 35.0239H60.3873L61.3262 32.5045H57.2052L57.779 30.72H61.4827L62.3173 28.463H58.6137L59.1353 26.7835H63.152C63.3606 26.416 63.9866 24.789 64.0388 24.3166H57.1531C56.6836 24.3166 56.2141 24.2116 56.4228 24.684C56.7358 25.4713 56.7358 25.0514 56.1619 26.7835C55.7968 27.8857 53.3451 34.5515 53.3972 35.0764V35.0239Z" fill="white" fill-opacity="1"/>
<path fill-rule="evenodd" clip-rule="evenodd" d="M45.0509 24.3166C45.0509 25.2614 45.5204 23.7393 45.6769 26.5736C45.7291 28.2007 45.9377 34.2891 46.1464 35.0239H49.6414C49.9022 34.709 55.3795 24.8415 55.536 24.2642H52.6148C52.1974 24.4216 49.1198 31.6648 48.5459 31.9272L48.3373 24.2642C47.8678 24.2117 45.3639 24.1592 45.0509 24.3166Z" fill="white" fill-opacity="1"/>
<path fill-rule="evenodd" clip-rule="evenodd" d="M19.4904 21.9546H26.7412C26.9499 21.5872 27.5758 19.8026 27.5758 19.3827H23.4549L26.2196 11.1948H22.5681C22.3072 12.2446 23.2984 10.67 22.2551 13.7667C21.9421 14.6589 21.6813 15.5512 21.3161 16.4435L19.4904 21.9546Z" fill="white" fill-opacity="1"/>
<path fill-rule="evenodd" clip-rule="evenodd" d="M14.1174 31.0348H21.2118C21.5248 30.2475 21.8378 29.3027 22.1508 28.5154L17.456 28.4629C18.1341 28.0955 19.699 27.6232 20.5858 27.3607C22.8289 26.6259 22.8811 26.8883 23.194 25.6812C21.5248 26.101 19.4904 26.8883 17.8211 27.4132C17.3516 27.5707 15.4215 28.0955 15.1607 28.358C15.0564 28.4629 14.2739 30.7199 14.1696 31.0348H14.1174Z" fill="white" fill-opacity="1"/>
<path fill-rule="evenodd" clip-rule="evenodd" d="M62.4738 17.5982L67.1165 17.6507C66.8035 17.9131 63.3606 19.0154 62.526 19.2778C61.7435 19.5402 61.6914 19.5927 61.5349 20.38C63.0998 20.0651 65.2907 19.1728 66.9078 18.648C67.3773 18.4905 69.3595 17.9131 69.5682 17.7032C69.7247 17.5457 70.455 15.3938 70.5593 15.0789H63.465L62.5782 17.5982H62.4738Z" fill="white" fill-opacity="1"/>
</g>
<defs>
<clipPath id="clip0_31_343">
<rect width="89.8793" height="47.636" fill="white" transform="translate(0.554688)"/>
</clipPath>
</defs>
</svg>
