<?xml version="1.0" encoding="UTF-8"?>
<!DOCTYPE svg PUBLIC "-//W3C//DTD SVG 1.1//EN" "http://www.w3.org/Graphics/SVG/1.1/DTD/svg11.dtd">
<!-- Creator: CorelDRAW 2020 (64-Bit) -->
<svg xmlns="http://www.w3.org/2000/svg" xml:space="preserve" width="200mm" height="200mm" version="1.1" style="shape-rendering:geometricPrecision; text-rendering:geometricPrecision; image-rendering:optimizeQuality; fill-rule:evenodd; clip-rule:evenodd"
viewBox="0 0 1662.34 1662.34"
 xmlns:xlink="http://www.w3.org/1999/xlink"
 xmlns:xodm="http://www.corel.com/coreldraw/odm/2003">
 <defs>
  <style type="text/css">
   <![CDATA[
    .fil0 {fill:#FEFEFE}
   ]]>
  </style>
 </defs>
 <g id="Layer_x0020_1">
  <metadata id="CorelCorpID_0Corel-Layer"/>
  <g id="_2987315948624">
   <path class="fil0" d="M76.36 973.97c22.74,98.53 35.17,130.43 75.72,213.72 16.35,33.58 2.23,29.71 1.74,30.6l-17.77 -29.55c-4.55,-8.98 -8.1,-18.76 -11.79,-28.11 -20.72,-52.5 -48.24,-131.1 -47.9,-186.66zm1267.78 -711.94c106.45,67.36 206.61,235.32 246.14,360.79 147.82,469.16 -214.85,1003.68 -761.6,1004.63 -159.96,0.28 -306.03,-48.54 -415.2,-120.58 -86.06,-56.79 -82.21,-64.13 -145.73,-122.29 -22.26,-20.38 -97.56,-120.21 -111.09,-160.89 23.68,4.65 8.29,-2.65 21.83,12.24 3.08,3.38 53.22,80.6 98.77,129.26 236.62,252.79 656.09,313.63 960.86,115.97 92.37,-59.91 173.27,-135.14 231.48,-225.02 13.88,-21.43 11.05,-29.42 36.06,-33.35 -9.69,-29.94 23.53,-73.7 36.88,-107.06 104.66,-261.41 55.13,-580.78 -135.71,-785.9 -18.95,-20.36 -49.87,-45.35 -62.7,-67.79zm-639.52 484.75l44.15 22.09 74.54 -665.16c2.04,-20.89 1.23,-24.44 9.99,-34.48l8.07 738.15c16.75,-0.48 87.76,-48.09 111.37,-59.11l-24.81 -162.72c-8.67,-52.18 -79.4,-466.28 -79.4,-501.13 55.91,0 149.14,18.2 202.87,35.3 180.27,57.38 307.54,160.85 410.48,313.96 60.08,89.37 108.59,225.3 116.11,365.19 7.17,133.43 -24.32,234.97 -70.18,346.65 -6.23,15.19 -15.2,28.33 -19.16,45.34 -16.96,-4.53 -49.43,-36.53 -65.15,-48.97l-425.44 -348.62c-11.74,-9.45 -20.64,-20.27 -35.85,-24.15l-34.66 24.81c20.19,21.25 111.72,83.64 142.09,106.47 48.98,36.81 93.68,69.69 142.71,105.33l280.26 208.9c-20.5,-4.28 -501.13,-277.28 -569.69,-316.49 -24.45,-13.98 -54.74,-32.53 -80.95,-43.05l1.32 127.38 16.52 8.58c9.55,4.26 8.38,3.54 17.89,6.91l512.45 192.15c25.58,9.52 56.79,18.96 78.64,30.52 -145.88,217.83 -352.49,357.14 -640.11,357.24 -199.39,0.07 -390.63,-79.91 -527.23,-217.07 -21.38,-21.47 -105.22,-112.74 -107.92,-145.13 20.58,-1.71 57.82,-18.38 77.95,-26.26l389.94 -145.96c28.04,-10.98 51.22,-18.74 79.39,-29.77 12.6,-4.93 66.89,-22.71 76.05,-31.22l0.77 -127.98c-47.6,16.56 -606.91,348.06 -649.83,361.13 7.01,-13.72 126.46,-98 140.65,-108.23 47.8,-34.46 413.45,-299.46 425.15,-315.15l-38.89 -20.96c-22.18,5.98 -109.24,85.22 -129.66,101.38 -65,51.47 -346.68,288.27 -391.36,318.19 -12.87,-24.33 -25.31,-54.79 -36.22,-82.87 -134.52,-346.25 -4.03,-728.45 305.72,-912.88 110.53,-65.82 209.48,-97.29 370.61,-110.7l-109.17 662.36zm-405.14 694.7c-27.71,-13.29 -93.59,-91.4 -117.94,-124.51 -119.51,-162.45 -181.42,-361.87 -156.84,-577.39 33.09,-290.11 213.28,-495.95 390.71,-602.01 509.72,-304.7 1132.82,39.25 1210.6,541.87 -50.58,-139.41 -82.02,-218.33 -164.68,-319.55 -344.34,-421.69 -955.59,-417.19 -1276.05,28.85 -196.25,273.17 -174.24,652.13 9.68,924.65 19.52,28.92 88.91,120.61 104.52,128.09zm-299.48 -632.66c0,161.11 16.69,239.19 75.79,370.76 21.07,46.91 44.83,85.8 72.03,126.44l66.88 81.98c11.41,11.75 12.08,15.86 22.2,27.41l52.08 47.16c121.09,112.83 339.43,199.65 499.99,199.65 121.57,0 134.98,3.54 260.08,-27.72 53.28,-13.32 103.73,-35.03 146.82,-56.62 395.51,-198.22 581.13,-664.72 391.95,-1086.55 -42.36,-94.45 -100.72,-172.77 -172.38,-244.42 -173.89,-173.88 -430.83,-275.3 -679.07,-239.9 -32.38,4.62 -58.64,8.17 -89.27,14.93 -116.8,25.8 -253.59,91.65 -342.96,168.13 -11.28,9.65 -14.66,14.45 -26.27,23.34 -12.1,9.26 -17.21,14.61 -28.54,26.04 -34.59,34.9 -64.94,68.47 -93.54,109.9 -91.21,132.11 -155.8,282.55 -155.8,459.46z"/>
   <path class="fil0" d="M1354.4 1126.54c-28.89,-26.03 -314.8,-212.96 -372.54,-252.65 -20.83,-14.32 -40.31,-27.08 -62.02,-42.18 -24.59,-17.09 -39.06,-23.06 -61.07,1.91l495.63 292.91z"/>
   <path class="fil0" d="M789.07 796.08l29.58 15.24 5.94 -529.88c-14.6,37.91 -32.38,440.82 -35.53,514.64z"/>
   <path class="fil0" d="M803.81 831.7l-24.76 -12.92c-33.68,17.31 -111.67,92.52 -111.67,92.52 -0.4,-0.85 -1.67,2.02 -1.63,4.46l138.06 -84.06z"/>
  </g>
 </g>
</svg>
