<svg width="66" height="66" viewBox="0 0 66 66" fill="none" xmlns="http://www.w3.org/2000/svg">
<path d="M33 0C51.2132 0 66 14.7867 66 33C66 51.2132 51.2132 66 33 66C14.7867 66 0 51.2132 0 33C0 14.7867 14.7867 0 33 0ZM8.92375 48.2323C11.4925 52.2938 15.0472 55.6394 19.2568 57.9575C23.4665 60.2756 28.1943 61.4908 33 61.49C43.1227 61.49 52.0218 56.199 57.0763 48.2323L33 39.0583L8.92375 48.2323ZM38.247 29.9695L58.2313 46.2357C60.3781 42.1546 61.4967 37.6113 61.49 33C61.49 17.6632 49.3433 5.13975 34.155 4.532L38.247 29.9695ZM31.845 4.532C16.6567 5.13975 4.51 17.6632 4.51 33C4.51 37.7767 5.687 42.2785 7.76875 46.2357L27.753 29.9695L31.845 4.532Z" fill="#FEFEFE" />
</svg>
