<svg xmlns="http://www.w3.org/2000/svg" xml:space="preserve" width="189.364mm" height="199.92mm" version="1.1" style="shape-rendering:geometricPrecision; text-rendering:geometricPrecision; image-rendering:optimizeQuality; fill-rule:evenodd; clip-rule:evenodd"
viewBox="0 0 1232.26 1300.95">

 <g id="Layer_x0020_1">
  <metadata id="CorelCorpID_0Corel-Layer"/>
  <g id="_2987560927072">
   <path fill="#FEFEFE" d="M140.68 53.75c-10.89,2.48 -12.77,8.05 -17.81,16.53 -7.79,13.09 -23.55,34.08 -8.06,46.83 6,4.93 17.33,5.98 26.71,7.88 70.91,14.36 134.91,42.13 193.07,79.97 30.01,19.53 50.37,37.23 76.32,60.21l29.18 30.23c1.56,1.72 2.88,2.62 4.41,4.41 55.48,65.1 97.5,134.45 120.55,220.83 6.75,25.3 14.95,90.04 18.58,118.7 5.16,40.75 9.95,81.25 14.49,122.21 2.26,20.39 4.09,41.32 6.71,61.64 2.76,21.45 32.68,22.28 35.64,-0.54 5.23,-40.37 9.12,-82.1 13.72,-122.66 4.61,-40.61 9.81,-81.56 15.69,-121.68 6.74,-46.01 10.52,-65.79 27.35,-109.2 23.76,-61.3 54.67,-111.32 95.4,-159.93 2.9,-3.46 5.3,-6.36 8.35,-9.36l42.48 -42.66c9.51,-7.88 15.69,-14.37 28.24,-24.05 70.35,-54.3 143.68,-90 232.95,-108.3 9.5,-1.95 19.78,-2.41 25.8,-7.95 15.56,-14.3 0.41,-31.46 -8.01,-46.36 -4.48,-7.93 -7.37,-14.88 -17.61,-16.92 -8.85,-1.76 -45.81,8.33 -55.81,11.07 -85.63,23.48 -163.16,65.26 -225.62,115.72 -15.01,12.13 -23.16,19.99 -36.6,31.67l-37.7 38.51c-1.62,1.77 -2.38,3.17 -4,4.92 -30.73,33.29 -55.14,71.33 -78.21,110.59 -8.42,14.32 -18.61,38.25 -22.85,45.45 -10.09,17.14 -33.12,16.74 -42.68,0.09 -3.85,-6.71 -7.5,-15.66 -11,-22.66 -17.71,-35.4 -41.97,-74.8 -66.27,-104.85 -5.3,-6.56 -10.55,-12.54 -15.56,-19 -16.4,-21.15 -51.35,-54.79 -71.91,-72.59l-14.63 -11.99c-23.13,-19.01 -52.15,-39.03 -81.13,-55.41 -29.49,-16.67 -58.96,-30.93 -92.9,-43.63 -15.86,-5.94 -92.45,-31.1 -107.28,-27.72z"/>
   <path fill="#FEFEFE" d="M347.89 0.41c-12.16,2.59 -13.14,8.14 -18.65,17.37 -4.66,7.8 -8.91,15.24 -13.3,23.05 -5.19,9.24 -2.8,20.56 3.26,26.14 3.18,2.93 17.89,9.97 23.43,12.9 60.82,32.18 118.53,75.78 164.07,123.2 3.28,3.42 5.06,5.23 8.89,8.82 6.63,6.21 36.12,41.74 41.62,48.82 15.84,20.39 30.24,41.4 43.98,64.19 4.71,7.82 8.41,15.27 19.35,16.23 12.74,1.13 17.68,-6.42 22.32,-14.15 28.4,-47.26 57.35,-83.69 93.52,-121.93 7.51,-7.94 35.74,-35.24 46.24,-43.31l29.88 -24.18c12.73,-9.9 28.03,-20.68 42.74,-29.95 15.08,-9.51 29.17,-17.56 45.24,-26.6 13.47,-7.58 40.22,-15.08 30.22,-37.74 -2.99,-6.77 -9.03,-15.81 -12.97,-22.46 -4.94,-8.35 -7.4,-16.17 -16.83,-19.56 -10.39,-3.73 -18.79,1.84 -26.41,5.9 -40.02,21.32 -75.76,43.08 -110.18,69.81 -7.26,5.63 -12.79,10.3 -19.78,15.68 -3.51,2.7 -6.05,4.87 -9.66,8.06l-64.88 61.91c-3.91,4.56 -13.34,14.81 -18.26,18.09 -16.88,11.25 -37.98,12.38 -55.93,1.55 -8.89,-5.36 -27.55,-27.56 -35.79,-36.01l-27.13 -26.03c-1.66,-1.58 -3.05,-2.54 -4.86,-4.04 -2.06,-1.7 -2.93,-2.95 -4.96,-4.75 -39.74,-35.3 -101.02,-78.72 -149.06,-102.72 -7.04,-3.52 -16.77,-10.25 -26.09,-8.26z"/>
   <path fill="#FEFEFE" d="M199.55 254.11c3.03,13.05 17.77,16.23 29.22,22.1 31.61,16.21 65.8,38.75 90.83,61.62l61.69 65.98c42.35,56.96 71.32,119.69 83.61,195.73 7.93,49.1 -2.72,69.97 32.42,69.87 8.49,-0.02 17.3,0.24 25.74,0 28.12,-0.8 21.32,-31.56 19.16,-52.54 -10.22,-99.08 -50.34,-195.4 -111.54,-270.42 -12.89,-15.8 -45.86,-51.94 -61.97,-64.78 -9.51,-7.58 -17.9,-15.02 -28.42,-23.02 -27.68,-21.04 -62.26,-42.51 -95.2,-57.26 -21.68,-9.71 -30.97,15.61 -40.78,32.77 -3.59,6.28 -6.9,10.71 -4.75,19.94z"/>
   <path fill="#FEFEFE" d="M1045.16 255.89c4.09,-12.35 -5.69,-24.22 -12.85,-36.75 -5.76,-10.1 -13.18,-24.69 -30.63,-18.29 -30.42,11.16 -84.43,47.44 -110.5,68.57 -28.67,23.24 -39.55,35.63 -64.03,61.85 -3.87,4.14 -7.92,9.4 -11.69,14.04 -61.05,75.12 -101.75,169.18 -112.15,268.87 -1.33,12.71 -5.46,37.11 1.05,46.39 8.44,12.05 24.83,8.82 42.08,8.84 18.25,0.03 27.98,-4.26 28.99,-22.83 3.85,-71.08 24.36,-139.03 57.61,-195.94 12.43,-21.28 32.49,-51.21 47.75,-67.48 5.99,-6.38 11.28,-13.94 18.22,-19.9 4.89,-4.2 7.94,-7.97 12.65,-13.05l27.06 -23.49c5.25,-4.3 9.24,-7.04 14.49,-11.22 16.43,-13.06 42.77,-28.78 62.21,-38.82 10.84,-5.6 25.89,-9.19 29.73,-20.78z"/>
   <path fill="#FEFEFE" d="M-0 993.16c1.36,3.7 11.15,15.72 14.2,19.8 5.18,6.9 9.38,12.52 14.45,19.23l187.75 250.2c2.05,2.71 11.8,17.51 14.95,18.02l29.37 0 0 -307.35 -15.4 0 -0.11 275.88c-4.67,-5.05 -8.96,-11.36 -13.29,-17.12l-91.2 -121.57c-17.72,-23.64 -34.3,-45.77 -52.07,-69.39 -8.87,-11.79 -17.31,-23.06 -26.23,-34.94 -4.21,-5.61 -8.62,-11.5 -12.92,-17.23 -5.26,-7.01 -9.69,-15.63 -15.02,-15.63l-34.48 0.1z"/>
   <path fill="#FEFEFE" d="M372.04 1156.03l184.28 -0.01 0 -30.81 -199.81 0.24 0 174.77c18.37,1.53 42.86,0.19 61.9,0.19 21.88,0 176.59,1.18 184.03,-0.46l-0.27 -30.29 -230.25 -0.38 0.11 -113.26z"/>
   <path fill="#FEFEFE" d="M1061.61 993.07c1.43,5.66 30.44,62.49 35.53,72.65 6.21,12.41 12.11,24.31 18.24,36.74 4.95,10.03 15.04,26.91 17.99,36.55l-143.93 0.05 -80.01 161.36 17.02 -0.12 64.63 -130.48 158.19 -0c5.42,14.71 62.4,123.78 64.39,130.59l18.61 -0.28 -153.03 -307.05 -17.63 -0.01z"/>
   <polygon fill="#FEFEFE" points="667.54,1023.81 781.95,1023.81 781.95,1300.36 785.45,1300.41 798.24,1300.41 798.34,1023.82 913.5,1023.81 913.55,993.06 667.54,993.06 "/>
   <path fill="#FEFEFE" d="M356.52 1023.62c18.37,1.53 42.86,0.19 61.9,0.19 21.88,0 176.59,1.18 184.03,-0.46l-0.27 -30.29 -245.61 0.08 -0.05 30.48z"/>
   <path fill="#FEFEFE" d="M17.86 1300.41l15.41 -0.46 0 -188.54c0,-22.24 4.89,-25.61 -15.41,-46.79l-0 235.79z"/>
  </g>
 </g>
</svg>
