<svg xmlns="http://www.w3.org/2000/svg" xml:space="preserve" width="200mm" height="228.465mm" version="1.1" style="shape-rendering:geometricPrecision; text-rendering:geometricPrecision; image-rendering:optimizeQuality; fill-rule:evenodd; clip-rule:evenodd"
viewBox="0 0 3560.68 4067.45">

 <g id="Layer_x0020_1">
  <metadata id="CorelCorpID_0Corel-Layer"/>
  <g id="_2987535885280">
   <path fill="#FEFEFE" d="M1388.53 44.21c-354.46,87.99 -694.42,285.48 -923.78,550.62 -361.16,417.5 -470.96,796.81 -417.08,1445.68 8.3,44.43 -1.77,44.62 32.83,70.29 23.29,17.27 41.62,29.8 64.8,46.81 45.51,33.39 86.56,62.87 130.19,95.24 53.47,47.26 129.75,96.12 186.43,137.59 111.1,81.3 160.59,91.47 168.76,165.84 10.75,97.86 25.21,197.44 36.47,297.15 8.13,72.03 21.67,234.33 38.88,294.7 26.38,13.23 330.65,7.13 360.48,6.76 121.75,-1.53 244.38,-0.13 366.29,-0.41 80.56,-0.18 101.85,-11.64 159.04,25.25 86.63,55.88 201.98,71.63 302.27,46.67 60.49,-15.06 82.59,-38.64 130.55,-57.58 3.37,-7.82 -14.5,-5.97 21.52,-13.41 9.89,-2.04 36.02,-1.29 47.34,-1.17 26.64,0.27 53.23,0.27 79.86,0.26l700.68 -0.46c36.08,-12.1 2.18,4.33 27.32,-26.88 -7.67,-67.3 36.85,-351.19 48.48,-438.78 12.52,-94.23 6.88,-169.9 46.5,-198.91 35.29,-25.84 108.95,-85.06 144.18,-99.34 3.09,-5.4 0.23,-2.85 8.6,-11.74l310.73 -229.75c86.25,-64.49 30.74,-21.48 66.29,-108.14 46.82,-448.05 5.89,-781.76 -214.6,-1161.92 -29.33,-50.56 -59.65,-95.16 -90.64,-140.36l-76.18 -99.24c-19.84,-22.44 -13.72,-5.88 -19.75,-31.67l-44.37 -39.39c-13.33,-14.13 -20.77,-23.37 -34.21,-37.49 -22.08,-23.19 -60.02,-49.56 -73.42,-79.91 -23.11,-9.25 -189.18,-152.27 -307.4,-216.1 -438.48,-236.73 -770.59,-281.96 -1277.04,-190.23zm-110.4 346.13l343.09 1755.99c-20.82,-6.97 -124.73,-392.59 -132.02,-417.1 -63.86,-214.62 -337.95,-1111.27 -367.92,-1256.25 -81.4,6.57 -184.62,81.53 -228.48,120.02 -142.67,125.2 -115.2,139.62 -82.22,206.49 79.25,160.71 146.4,325 222.52,486.22 74.35,157.49 147.06,320.68 219.18,481.37 36.66,81.69 70.86,158.99 110.15,240.23 25.23,52.16 97.62,194.89 109.96,245.71 -30.18,-34.58 -167.93,-279.89 -204.84,-341.99 -71.72,-120.69 -556.63,-978.45 -615.09,-1043.7 -59.54,37.45 -107.04,100.99 -148.69,172.39 -27.51,47.17 -88.57,190.19 -54.52,240.41 6.85,10.1 28.56,33.11 36.89,42.92l537.8 656.57c41.72,49.93 277.34,330.28 290.03,359.43l-235.29 -223.1c-41.02,-39.91 -76.29,-73.52 -116.86,-114.14 -97.03,-97.15 -519.65,-533.6 -582.24,-569.27 -48.63,143.96 -85.64,286.54 -32.27,459.37 11.57,37.47 36.31,44.56 62.91,64.39 86.55,64.5 524.87,384.97 533.49,406.08l55.01 415.25c2.19,18.1 3.31,49.89 13.9,58.74 40.52,17.13 551.11,7.7 644.8,9.6 32.15,33.06 55.26,85.68 133.96,86.67 77.22,0.98 106.08,-45.85 143.09,-85.69l644.97 -1.21c9.08,-78.71 21.33,-156.46 31.28,-233.34 8.08,-62.34 17.09,-182.33 31.78,-237.66 9.46,-35.62 108.08,-96.11 142.18,-120.98l383.97 -284.86c28.27,-21.19 58.19,-37.35 68.19,-67.68 47.05,-142.7 25.4,-338.91 -29.65,-464.08 -45.53,23.85 -838.15,823.9 -952.52,927.36 275.23,-348.71 609.39,-728.49 879.37,-1075.55 28.29,-36.37 19.78,-46.85 -0.24,-120.94 -26.92,-99.64 -130.71,-269.27 -196.03,-299.07 -27.25,27.92 -181.65,297.09 -214.8,351.55 -71.92,118.14 -140.01,237.14 -208.72,356.66l-416.49 706.93c62.77,-154.24 153.58,-324.72 223.73,-485.67 72.36,-166.02 150.55,-326.74 224.24,-492.5 72.19,-162.4 146.01,-333.54 226.19,-490.34 34.76,-67.98 70.51,-85.92 -68.84,-212.53 -52.42,-47.63 -142.55,-114.03 -233.35,-128.87l-507.42 1726.83 343.74 -1801.23c-145.6,-66.17 -220.41,-112.34 -417.37,-85.56 -20.06,148.41 -20.17,324.28 -27.8,476.42 -10.97,218.84 -37.38,1320.46 -66.53,1433.75 -22.82,-313.96 -39.13,-631.99 -49.23,-948.28 -9.94,-311.35 -16.49,-652.36 -44.41,-960.64 -195.89,-49.78 -321.61,43.72 -422.56,74.87z"/>
   <g>
    <path fill="#FEFEFE" d="M437.41 3944.16c-112.86,-2.31 -114.21,-4.12 -136.46,-101.3l-30.88 -0 -267.42 -0.79c-18.95,243.12 157.72,219.96 410.91,222.07 108.09,0.9 200.61,2.24 307.28,-12.04 113.23,-15.15 159.16,-36.33 170.28,-156.54 24.08,-260.36 -143.53,-234.31 -390.89,-244.24 -91.05,-3.66 -251.56,25.72 -194.98,-118.59 22.85,-58.27 259.25,-37.51 277.52,-21.65 20.71,22.67 20.15,43.34 21.78,82.27l278.36 0.64c0.5,-103.69 -27.81,-162.03 -110.85,-184.05 -59.77,-15.85 -215.83,-13.99 -286.85,-14.36 -96.59,-0.5 -199.87,-0.01 -294.62,5.28 -104.29,5.82 -158.09,33.57 -180.15,124.25 -59.35,243.85 145.09,243.3 339.41,242.3 50.58,-0.26 100.96,0.24 151.53,1.26 53.7,1.09 88.75,-2.35 100.1,50.37 28.61,132.94 -60.33,126.7 -164.08,125.13z"/>
    <path fill="#FEFEFE" d="M1049.51 4065.58l259.1 1.02c1.99,-279.29 -34.29,-351.88 116.19,-351.62 195.19,0.34 72.8,169.8 115.26,352.42l254.45 0.05c9.9,-64.52 1.14,-180.94 1.73,-251.2 1.58,-186.16 -8.89,-236.38 -276.19,-229.73 -142.27,3.54 -171.8,32.82 -210.76,35.04l-0.8 -218.46 -257.09 -0.57 -1.9 663.05z"/>
    <path fill="#FEFEFE" d="M2507.72 3587.56l-95.55 -3.81c-110.6,-2.37 -353.4,-14.74 -419.57,51.65 -69.23,69.46 -54.23,318.14 10.58,375.01 67.18,58.94 300.83,58.36 408.66,52.26 179.45,-10.14 273.69,-14.64 295.51,-175.97l-255.33 -1.11c-34.11,70.72 -40.42,78.37 -135.55,78.54 -73.53,0.14 -113.05,-28.38 -102.21,-105.07l494.51 0.98c1.43,-207.93 -7.47,-242.79 -201.04,-272.48zm-297.56 176.71l236.51 -0.98c-3.47,-74.19 -38.59,-88.74 -113.99,-90.13 -82.2,-1.51 -115.71,11.97 -122.51,91.1z"/>
    <polygon fill="#FEFEFE" points="2985.49,3402.83 2858.5,3406.72 2856.77,4066.31 3122.78,4066.2 3121.34,3402.49 "/>
    <polygon fill="#FEFEFE" points="3306.07,4061.42 3559.49,4060.94 3560.68,3405.42 3305.64,3405.34 "/>
   </g>
  </g>
 </g>
</svg>
