<svg width="131" height="65" viewBox="0 0 131 65" fill="none" xmlns="http://www.w3.org/2000/svg">
<path fill-rule="evenodd" clip-rule="evenodd" d="M42.069 14.9987C43.4826 12.8879 45.7988 10.7905 47.9455 9.16549C54.2029 4.42899 59.3757 4.24823 66.4757 8.80743C67.2818 9.32506 66.7842 8.97921 67.2233 9.36075L48.5389 13.6623C46.4778 14.0878 44.1195 14.9534 42.069 14.999V14.9987ZM52.4407 0.253174H56.0759C56.5064 0.313503 56.9596 0.393404 57.439 0.49564C61.9202 1.45192 63.9554 2.53554 67.5128 4.30004C74.2632 7.64829 72.0036 8.34138 77.374 6.93586C84.4491 5.08409 99.6823 2.23251 107.114 1.96794C110.025 1.86432 111.036 2.42156 113.628 2.42156V3.28896C105.185 3.28896 99.3203 4.32007 92.0615 5.5757C89.3654 6.04221 74.0656 9.00822 72.4273 9.79457C73.1758 10.8162 74.7511 11.4589 76.0399 12.2538C81.807 15.8097 87.0282 20.7885 91.8997 25.4515C91.9641 25.513 92.0565 25.6023 92.1196 25.6652L102.542 37.3612C105.563 41.3675 114.967 54.375 115.797 57.9347C113.823 57.7705 112.031 56.8089 110.523 56.269C107.836 55.3065 108.043 56.0081 106.815 53.472C103.116 45.8339 99.2174 39.4174 94.296 32.5966C93.6913 31.7584 93.4588 31.2928 92.8755 30.5475C92.2722 29.7763 92.0632 29.7035 91.5098 28.8771C78.1587 31.9875 79.8887 32.2171 64.7496 34.21C58.6884 35.0081 43.1091 35.1539 37.5024 33.0099C35.859 32.3815 37.0359 32.8727 36.431 32.3467C52.9139 32.3467 73.6375 32.3656 87.6069 24.9739C86.7434 21.7404 76.8663 14.7993 73.8169 12.7424C71.8155 11.3924 70.3574 10.2406 67.9558 10.5498L39.4668 16.3002C39.9144 14.6236 41.2458 13.8675 42.3941 12.7221C49.0586 6.07537 53.2931 2.06373 63.1417 6.06961C72.8111 10.0025 66.4835 8.49359 72.4273 8.49359V7.62619C70.4373 7.16267 66.927 4.24915 61.5934 2.84731C57.0697 1.65824 53.4994 1.11321 49.3186 3.16623C47.7275 3.94751 45.9634 5.12784 44.4934 6.14744C40.8023 8.70773 33.31 15.9196 32.094 16.7335C32.6577 14.6223 40.5792 7.8249 42.614 6.0026C43.8006 4.93994 45.1674 3.90054 46.5856 3.03521C48.6045 1.8033 50.171 0.646693 52.4407 0.253174Z" fill="white" fill-opacity="0.7"/>
<path fill-rule="evenodd" clip-rule="evenodd" d="M10.8431 29.3107L18.6681 31.8577L18.6494 29.7443C14.6196 27.8108 6.7589 25.9818 3.47006 21.0705C4.8171 21.4302 5.44341 22.1562 6.52104 22.7901C9.2835 24.4147 10.8408 24.9072 13.8204 25.8994C14.8218 26.2328 16.8766 26.7078 17.7818 27.1423C17.7392 25.2365 17.4882 25.7914 17.348 24.1063C15.6233 23.9629 11.036 22.1687 9.54186 21.5037C6.91755 20.3362 5.01029 19.4675 3.46983 17.1671C7.33203 15.314 15.3127 16.8257 19.4132 17.7041C21.1851 18.0838 32.2465 20.3705 33.3948 21.9377C32.0903 22.2414 28.2426 23.7695 27.7566 24.9735C29.2917 24.2369 35.3769 22.0768 37.5427 22.523C40.5633 23.1452 44.143 25.3375 47.2727 25.4073C46.8046 25.082 47.2243 25.3249 46.4419 24.9369L40.8171 22.7551C40.2716 22.5525 40.2515 22.5907 39.6089 22.2285C38.7348 21.7358 39.0595 21.9046 38.5987 21.5041C42.7414 21.4118 49.0061 17.9235 65.8874 19.8034C68.8416 20.1325 70.9635 20.3846 74.5955 21.0703C75.009 20.2084 75.2178 19.5195 75.4628 18.4681C59.3919 16.9231 53.371 16.4559 37.6381 20.5741C35.8597 21.0397 35.4282 21.0227 33.582 20.4698L20.9942 16.9903C17.8355 16.2696 15.659 15.8031 12.2797 15.296C8.52571 14.733 5.80078 15.13 2.16838 15.4323C2.16838 9.86965 7.06308 10.2956 12.9917 11.1144C17.4037 11.7237 24.2471 14.0915 26.0215 14.1311C24.9971 13.4191 0.842992 4.35578 0 13.1573V14.1788C0.0292434 14.5131 0.0863485 14.8684 0.172467 15.2451C0.891347 18.3947 1.33691 21.7682 3.59026 24.419C4.07519 24.9896 9.9386 30.1639 11.873 31.7027C12.1537 31.9261 12.0172 31.0646 10.8424 29.3103L10.8431 29.3107Z" fill="white" fill-opacity="0.7"/>
<path fill-rule="evenodd" clip-rule="evenodd" d="M130.109 64.44C129.497 61.812 122.277 51.0875 120.381 48.5795C119.399 47.2799 118.815 46.2647 117.835 45.0539L111.999 37.8794C110.921 36.6567 109.83 35.8427 108.753 34.6201C104.45 29.7343 100.658 26.4985 95.5139 22.2708C93.1095 20.2949 82.8043 12.6493 80.2339 11.9629C81.3447 13.6217 85.2041 16.1838 87.0393 17.7347L92.0717 22.2434C92.943 22.9729 93.1261 22.9586 94.0091 23.7754L103.549 33.3184C104.884 34.6387 105.342 35.4914 106.58 36.7919C109.999 40.3805 114.89 47.4024 117.101 51.8591C117.75 53.1673 118.497 54.448 119.09 55.9415C119.764 57.638 119.793 59.3639 121.156 60.3807C122.269 61.2101 128.622 64.0932 130.108 64.4395L130.109 64.44Z" fill="white" fill-opacity="0.7"/>
<path fill-rule="evenodd" clip-rule="evenodd" d="M42.9364 51.4292C62.5833 51.4292 78.9311 49.308 95.4133 40.5868C94.611 39.0707 94.0469 38.633 93.2449 37.1172C89.2505 38.0479 80.8298 46.1504 46.3738 50.5295C45.3466 50.6601 45.4859 50.5482 44.4792 50.8035C44.3371 50.8395 43.9436 50.9661 43.8195 51.011C42.7043 51.414 43.4174 51.1243 42.9366 51.4292H42.9364Z" fill="white" fill-opacity="0.7"/>
<path fill-rule="evenodd" clip-rule="evenodd" d="M40.3342 49.694C50.4075 49.694 60.2236 47.8317 68.2785 45.5449C75.7205 43.4323 85.5364 39.5254 91.0763 35.8156L88.5743 33.1133L78.06 38.8459C74.2022 40.5641 70.6734 41.8232 66.411 43.2437C57.6366 46.168 42.2507 48.9079 41.2198 49.2786C40.1489 49.6639 40.7989 49.3991 40.3342 49.6938V49.694Z" fill="white" fill-opacity="0.7"/>
<path fill-rule="evenodd" clip-rule="evenodd" d="M118.833 20.2031C118.549 23.6131 115.545 27.0042 114.929 29.3107C116.183 28.4712 117.394 26.3196 118.319 24.8941C121.419 20.1173 123.564 10.3412 119.266 7.19238C120.686 13.2849 116.887 19.2022 112.514 22.559C111.646 23.2256 108.858 25.6263 108.424 26.2749C109.134 27.3351 110.057 28.0687 111.46 28.4433C113.91 26.8029 116.97 21.4503 118.833 20.2031H118.833Z" fill="white" fill-opacity="0.7"/>
<path fill-rule="evenodd" clip-rule="evenodd" d="M99.3165 19.3357C99.841 20.1188 100.682 20.8913 101.65 21.3797C104.443 22.7885 112.509 14.2188 114.132 12.0326C116.031 9.47328 116.23 9.31394 116.23 5.02368C115.062 6.36796 115.043 7.60101 113.095 9.69433C111.755 11.1339 110.432 12.1128 108.918 13.3237C107.26 14.6491 101.254 18.8183 99.3165 19.3357Z" fill="white" fill-opacity="0.7"/>
<path fill-rule="evenodd" clip-rule="evenodd" d="M9.10828 51.4289C12.0112 50.0361 10.6052 51.4702 13.7343 45.2125C14.7304 43.2205 16.9045 39.4567 17.3485 37.5508C16.459 38.2027 9.57203 49.4388 9.10828 51.4289Z" fill="white" fill-opacity="0.7"/>
<path fill-rule="evenodd" clip-rule="evenodd" d="M26.0222 14.1316L26.868 14.6303L26.0222 14.1316Z" fill="white" fill-opacity="0.7"/>
<path fill-rule="evenodd" clip-rule="evenodd" d="M32.094 16.7339L31.6602 17.1675L32.094 16.7339Z" fill="white" fill-opacity="0.7"/>
<path fill-rule="evenodd" clip-rule="evenodd" d="M31.6603 17.1672L31.2267 17.6011L31.6603 17.1672Z" fill="white" fill-opacity="0.7"/>
</svg>
