
<svg xmlns="http://www.w3.org/2000/svg" xml:space="preserve" width="200mm" height="74.473mm" version="1.1" style="shape-rendering:geometricPrecision; text-rendering:geometricPrecision; image-rendering:optimizeQuality; fill-rule:evenodd; clip-rule:evenodd"
viewBox="0 0 1663.81 619.54">

 <g id="Layer_x0020_1">
  <metadata id="CorelCorpID_0Corel-Layer"/>
  <g id="_2987497076208">
   <path  fill="#FEFEFE" d="M543.31 315.57l33.37 -0.09c10.1,-0.08 12.64,-2.28 19.4,-5.72 5.6,-2.86 10.74,-5.76 16.46,-8.73 33.33,-17.35 66.12,-35.26 99.17,-52.63 22.29,-11.71 43.56,-23.7 65.77,-35.28 10.78,-5.62 21.69,-11.75 32.37,-17.45 19.82,-10.59 16.47,-5.77 16.47,-39.3 0,-31.67 2.48,-25.65 -16.41,-36.18l-68.38 -36.8c-11.82,-6.17 -22.88,-12.76 -34.31,-18.29 -9.7,-4.69 -24,-12.99 -34.17,-18.3 -9.33,-4.87 -81.15,-43.48 -86.37,-45.27 -5.33,-1.82 -28.96,-1.28 -37.42,-1.28 -6.7,-0 -20.7,-2.1 -18.82,7.49 0.69,3.48 31.73,39.2 35.35,43.42l72.34 85.37c5.33,6.39 5.95,8.53 16.42,9.51 8.06,0.75 16.85,1.22 25,1.55 16.86,0.69 32.96,1.95 49.83,2.76l37.45 2.18c3.12,0.12 9.32,-0.42 9.93,3.04 0.98,5.6 -0.15,7.04 -5.33,7.3l-37.47 2.06c-3.71,0.13 -7.5,0.7 -11.45,0.87 -10.26,0.43 -29.12,1.07 -38.08,1.99 -7.58,0.78 -16.4,1.3 -24.08,1.7 -10.04,0.53 -14.09,-0.01 -19.85,6.82 -7.75,9.21 -16.33,19.27 -24.1,28.47 -15.98,18.94 -31.41,36.86 -48.22,56.94 -6.08,7.26 -30.93,35.52 -36.09,42.52 -1.78,2.42 -3.36,6.42 -0.19,9.37 2.71,2.53 6.94,1.97 11.41,1.97z"/>
   <path  fill="#FEFEFE" d="M1079.66 0.87c-6.49,0.66 -29.49,13.51 -36.33,17.37 -11.45,6.45 -22.79,11.8 -34.9,18.59 -21.64,12.14 -47.65,25.11 -70.08,37.33 -31.49,17.16 -64.09,33.92 -95.47,51.28 -3.04,1.68 -5.65,3.11 -6.32,7.25 -0.94,5.79 -0.21,20.23 -0.21,26.88 0,29.88 -3.32,25.83 17.06,36.41 6.32,3.28 11.66,6.36 17.46,9.47 11.33,6.08 23.3,12.43 34.78,18.69 23.59,12.85 46.25,24.38 70.05,37.44 11.13,6.11 23.74,12.4 34.91,18.52l51.64 27.48c8.22,4.37 10.41,6.51 19.28,7.65 6.42,0.83 30.66,0.33 40.03,0.32 12.11,-0.01 13.53,-5.76 7.17,-13.21l-104.35 -123.3c-5.86,-6.89 -6.48,-8.54 -17.57,-9.38 -16.85,-1.27 -33.53,-2.02 -50.26,-3.07 -16.92,-1.06 -33.92,-1.41 -50.96,-2.8 -4.06,-0.33 -8.66,-0.65 -12.6,-0.77 -5.66,-0.17 -7.65,-0.03 -7.32,-6.22 0.25,-4.82 4.86,-3.93 9.17,-4.12l63.53 -3.64c16.44,-0.77 34.13,-1.62 50.29,-3.12 10.51,-0.97 10.64,-3.62 16.47,-10.1 4.3,-4.78 8.48,-9.77 12.32,-14.69 3.52,-4.51 8.26,-9.7 12.36,-14.57 19.79,-23.51 41.36,-49.67 61.3,-72.62 4.34,-4.99 8.48,-9.83 12.19,-14.35 1.77,-2.16 4.23,-4.96 6.06,-7.2 1.96,-2.4 4.49,-6.36 1.51,-9.76 -3.34,-3.81 -18.98,-2.36 -24.83,-2.37 -8.6,-0.01 -18.01,-0.24 -26.37,0.6z"/>
   <path  fill="#FEFEFE" d="M1477.82 617.98l184.85 0.15c1,-7.05 0.25,-37.72 0.25,-44.85 0,-6.3 0.67,-41.92 -0.32,-44.96l-159.94 -0.02 -0.11 27.51c3.37,0.9 100.68,0.28 115.02,0.3 4.79,0.01 12.12,-0.43 16.59,0.11l0.17 33.82c-4.45,0.51 -126.29,0.13 -130.58,0.13 -19.73,0 -37.83,1.89 -53.2,-12.14 -11.15,-10.18 -19.92,-28.58 -14.32,-48.47 4.53,-16.09 16.53,-28.68 32.18,-33.26 9.78,-2.86 19.28,-2.19 30.77,-2.19 11.61,0 160.34,0.47 163.85,-0.16l0.13 -27.8c-4.17,-0.73 -51.31,-0.17 -59.76,-0.17l-119.77 -0c-18.36,0.04 -34.08,5.86 -45.73,14.51 -11.25,8.35 -20.91,19.96 -26.15,33.76 -6.17,16.24 -7.21,33.7 -1.52,51.58 6.99,21.97 23.49,38.12 43.33,46.71 5.38,2.33 17.09,5.65 24.27,5.47z"/>
   <path  fill="#FEFEFE" d="M573.91 527.3c-0.79,0.8 0.24,0.15 -1,0.64 -0.69,0.27 -0.8,0.26 -1.54,0.34 -5.51,0.58 -95.95,0.1 -101.66,0.1 -7.4,0 -100.35,-0.46 -104.96,0.07l0.05 89.4 27.8 0.06c1.09,-6.48 -1.06,-56.21 0.44,-61.91l180.27 -0.19c10.01,1.36 24.59,-7.3 31.56,-15.58 17.56,-20.85 12.21,-51.93 -8.59,-65.61 -13.25,-8.71 -21.55,-7.97 -40.17,-7.97 -63.88,0 -127.78,0.11 -191.65,-0l-0 28.05c22.11,0.54 44.79,0.03 66.86,0.03l133.48 0c8.88,-0 18.15,1.39 21.11,12.22 3.01,10.99 -6.34,20.34 -12,20.37z"/>
   <path  fill="#FEFEFE" d="M965.22 555.9c0.07,-0.11 0.2,-0.19 0.34,-0.99 0.1,-0.58 0.11,-1.12 0.12,-1.71l-0.1 -25.17c-1.77,-0.5 -247.79,-0.95 -251.66,-0 -0.89,14.09 -0.08,30.88 -0.08,45.25 0,7.53 -1.25,40.57 0.06,45.11l251.59 0.04c0.4,-2.77 0.44,-26.41 -0.1,-28.42l-222.33 -0.12 -0.06 -33.39c64.82,-0.42 129.95,-0.02 194.81,-0.02l20.57 -0c1.23,0 2.46,0.03 3.69,0.04 0.34,0 1.52,0 1.79,-0.05 1.33,-0.24 0.89,-0.13 1.36,-0.57z"/>
   <path  fill="#FEFEFE" d="M965.22 555.9l-0.06 -27.52c-20.55,0.6 -41.92,0.07 -62.55,0.07 -11.83,0 -185.26,-0.57 -188,0.23 -0.45,14.93 -0.02,29.7 -0.02,44.6 0,7.5 -0.37,15.01 -0.36,22.4 0.01,6.97 0.39,15.43 -0.12,22.23l250.82 -0.15 0.24 -27.29c-71.4,0.51 -144.02,-0.01 -215.7,0.02l-5.44 -0.05c-1.36,-0.31 -0.48,0.24 -1.18,-0.62 -0.6,-0.6 -0.7,-30.32 -0.34,-33.58 2.43,-1.15 165.21,-0.48 194.84,-0.49 8.37,-0 19.89,-0.65 27.87,0.17z"/>
   <path  fill="#FEFEFE" d="M108.18 540.36c-0.9,1.68 -51.7,37.68 -54.25,39.49 -2.05,1.45 -53.68,38.12 -53.93,39.32 15.11,0.45 32.02,0.16 47.32,0.15 1.07,0 9.27,-6.41 10.72,-7.46 3.53,-2.55 7.26,-5.1 10.67,-7.62 13.69,-10.11 29.01,-20.53 42.48,-30.63 2.26,-1.69 20.76,-15.38 22.08,-15.2 2.75,1.29 7.26,5.03 10.61,7.43l68.84 49.57c0.83,0.58 1.84,1.26 2.69,1.92l2.42 1.97c5.94,0.06 45.9,0.69 47.93,-0.3 -0.67,-1.4 -90.39,-65.49 -101.28,-73.28 -1.18,-0.84 -2.27,-1.72 -3.44,-2.52 -1.29,-0.88 -2.5,-1.42 -3.26,-2.82 2.11,-2.42 84.71,-60.97 95.65,-69.12 1.26,-0.94 5.29,-3.28 6.07,-4.93l-45.32 -0.05c-3.61,-0.01 -6.51,2.85 -10.9,6.07 -7.21,5.28 -69.55,50.42 -70.46,50.35l-75.43 -54.09c-3.04,-2.2 -2.4,-2.32 -6.86,-2.32l-44.34 0.02c1.11,1.76 21.58,15.95 25.34,18.6 5.02,3.55 74.86,53.47 76.66,55.47z"/>
   <path  fill="#FEFEFE" d="M1064.03 618.53l28.43 -0.25 0.19 -120.99c2.37,0.51 69.07,44.54 77.38,49.92l102.95 67.09c1.73,1.14 4.49,3.57 6.74,3.87 2.45,0.33 7.79,0.04 10.54,0.04 6.99,0 14.67,0.3 21.57,-0.08l0.02 -151.96 -28.7 -0.16 0.04 120.76c-1.85,0.12 -44.8,-28.7 -47.13,-30.21l-129.47 -84.84c-7.87,-5.08 -7.09,-5.99 -13.8,-5.63l0 152.41 -28.74 0z"/>
   <polygon  fill="#FEFEFE" points="714.02,493.96 965.42,494.1 965.48,466.09 714.09,465.96 "/>
   <polygon  fill="#FEFEFE" points="1064.03,618.53 1092.77,618.53 1092.77,466.12 1063.83,466.04 "/>
   <path  fill="#FEFEFE" d="M573.31 555.79l-180.27 0.19c-1.49,5.71 0.65,55.44 -0.44,61.91l-27.8 -0.06 -0.05 -89.4c4.62,-0.53 97.56,-0.07 104.96,-0.07 5.71,0 96.14,0.48 101.66,-0.1 0.74,-0.08 0.85,-0.07 1.54,-0.34 1.24,-0.48 0.21,0.16 1,-0.64 -7.83,1.11 -94.5,0.45 -104.65,0.45l-78.63 0c-8.21,0 -18.22,-0.51 -26.2,0.1l-0.21 90.44 28.9 0.22 0.12 -31.05c-0.01,-5.56 -0.7,-27.12 0.29,-30.89 43.53,0.84 90.5,0.06 134.69,0.05 7.46,-0 14.94,0.06 22.4,0.05 3.81,-0.01 7.63,0.02 11.43,-0l11.26 -0.86z"/>
   <path  fill="#FEFEFE" d="M1477.82 617.98l2.58 0.68c5.86,0.42 37.16,0.03 43.45,0.04l93.25 0c6.88,-0 42.85,0.94 46.44,-0.41 0.58,-2.33 -0,-39.3 -0,-45.02 0,-5.31 0.49,-43.64 -0.41,-45.05 -1,-1.2 -7.39,-0.61 -9,-0.61l-69.94 0c-26.67,0 -53.33,0 -80,0 -2.87,-0.14 -0.66,-0.09 -1.54,0.69l159.94 0.02c1,3.04 0.32,38.67 0.32,44.96 0,7.13 0.75,37.8 -0.25,44.85l-184.85 -0.15z"/>
  </g>
 </g>
</svg>
